%TF.GenerationSoftware,KiCad,Pcbnew,8.0.3*%
%TF.CreationDate,2024-07-16T22:22:09-07:00*%
%TF.ProjectId,pultec-three-band-eq,70756c74-6563-42d7-9468-7265652d6261,4*%
%TF.SameCoordinates,Original*%
%TF.FileFunction,Soldermask,Top*%
%TF.FilePolarity,Negative*%
%FSLAX46Y46*%
G04 Gerber Fmt 4.6, Leading zero omitted, Abs format (unit mm)*
G04 Created by KiCad (PCBNEW 8.0.3) date 2024-07-16 22:22:09*
%MOMM*%
%LPD*%
G01*
G04 APERTURE LIST*
%ADD10R,2.600000X2.600000*%
%ADD11C,2.600000*%
%ADD12R,2.600000X5.000000*%
%ADD13O,2.600000X5.000000*%
%ADD14R,7.000000X3.500000*%
%ADD15O,7.000000X3.500000*%
%ADD16R,3.500000X7.000000*%
%ADD17O,3.500000X7.000000*%
%ADD18O,2.500000X5.000000*%
%ADD19O,5.000000X2.500000*%
%ADD20C,5.000000*%
%ADD21C,3.000000*%
G04 APERTURE END LIST*
D10*
%TO.C,J15*%
X129489200Y-101708000D03*
D11*
X129489200Y-96708000D03*
X129489200Y-91708000D03*
X129489200Y-86708000D03*
X129489200Y-81708000D03*
X129489200Y-76708000D03*
%TD*%
D12*
%TO.C,J40*%
X137278000Y-45618600D03*
D13*
X142278000Y-45618600D03*
X147278000Y-45618600D03*
X152278000Y-45618600D03*
X157278000Y-45618600D03*
X162278000Y-45618600D03*
X167278000Y-45618600D03*
X172278000Y-45618600D03*
X177278000Y-45618600D03*
X182278000Y-45618600D03*
X187278000Y-45618600D03*
X192278000Y-45618600D03*
%TD*%
D12*
%TO.C,J36*%
X146776400Y-81330800D03*
D13*
X151776400Y-81330800D03*
X156776400Y-81330800D03*
X161776400Y-81330800D03*
X166776400Y-81330800D03*
X171776400Y-81330800D03*
%TD*%
D14*
%TO.C,J39*%
X191973200Y-87317600D03*
D15*
X191973200Y-82317600D03*
X191973200Y-77317600D03*
%TD*%
%TO.C,J38*%
X191973200Y-93472000D03*
X191973200Y-98472000D03*
D14*
X191973200Y-103472000D03*
%TD*%
D16*
%TO.C,J35*%
X195997200Y-128727000D03*
D17*
X190997200Y-128727000D03*
%TD*%
D14*
%TO.C,J32*%
X191973200Y-114648000D03*
D15*
X191973200Y-109648000D03*
%TD*%
D16*
%TO.C,J31*%
X53249200Y-33223000D03*
D17*
X48249200Y-33223000D03*
%TD*%
D12*
%TO.C,J14*%
X137378400Y-33985200D03*
D13*
X142378400Y-33985200D03*
X147378400Y-33985200D03*
X152378400Y-33985200D03*
X157378400Y-33985200D03*
X162378400Y-33985200D03*
X167378400Y-33985200D03*
X172378400Y-33985200D03*
X177378400Y-33985200D03*
X182378400Y-33985200D03*
X187378400Y-33985200D03*
X192378400Y-33985200D03*
%TD*%
D18*
%TO.C,C41*%
X189208400Y-66903600D03*
X194208400Y-66903600D03*
%TD*%
%TO.C,C40*%
X189208400Y-60903600D03*
X194208400Y-60903600D03*
%TD*%
%TO.C,C39*%
X179607200Y-67157600D03*
X184607200Y-67157600D03*
%TD*%
%TO.C,C38*%
X179607200Y-61157600D03*
X184607200Y-61157600D03*
%TD*%
%TO.C,C37*%
X169802800Y-66903600D03*
X174802800Y-66903600D03*
%TD*%
%TO.C,C36*%
X169802800Y-60903600D03*
X174802800Y-60903600D03*
%TD*%
%TO.C,C13*%
X159947600Y-66903600D03*
X164947600Y-66903600D03*
%TD*%
%TO.C,C12*%
X159947600Y-60903600D03*
X164947600Y-60903600D03*
%TD*%
%TO.C,C11*%
X149758400Y-66756800D03*
X154758400Y-66756800D03*
%TD*%
%TO.C,C10*%
X149758400Y-60756800D03*
X154758400Y-60756800D03*
%TD*%
%TO.C,C9*%
X139678400Y-66649600D03*
X144678400Y-66649600D03*
%TD*%
%TO.C,C8*%
X139678400Y-60649600D03*
X144678400Y-60649600D03*
%TD*%
D19*
%TO.C,C3*%
X90115006Y-61304600D03*
X90115006Y-56304600D03*
%TD*%
D16*
%TO.C,J20*%
X129126000Y-128473200D03*
D17*
X124126000Y-128473200D03*
X119126000Y-128473200D03*
%TD*%
D19*
%TO.C,C20*%
X115943006Y-47741200D03*
X115943006Y-42741200D03*
%TD*%
D10*
%TO.C,J8*%
X96601800Y-102269800D03*
D11*
X96601800Y-97269800D03*
X96601800Y-92269800D03*
X96601800Y-87269800D03*
X96601800Y-82269800D03*
X96601800Y-77269800D03*
%TD*%
D19*
%TO.C,C28*%
X152668000Y-115610000D03*
X152668000Y-120610000D03*
%TD*%
%TO.C,C33*%
X146183006Y-115599200D03*
X146183006Y-120599200D03*
%TD*%
D14*
%TO.C,J11*%
X50868206Y-54225200D03*
D15*
X50868206Y-49225200D03*
X50868206Y-44225200D03*
%TD*%
D19*
%TO.C,C1*%
X74367006Y-47577800D03*
X74367006Y-42577800D03*
%TD*%
%TO.C,C27*%
X152787006Y-92485200D03*
X152787006Y-97485200D03*
%TD*%
D16*
%TO.C,J1*%
X106019600Y-128422400D03*
D17*
X111019600Y-128422400D03*
%TD*%
D19*
%TO.C,C25*%
X160051406Y-103661200D03*
X160051406Y-108661200D03*
%TD*%
D18*
%TO.C,C17*%
X119695600Y-97485200D03*
X114695600Y-97485200D03*
%TD*%
D20*
%TO.C,R3*%
X136093200Y-116586000D03*
X123393200Y-116586000D03*
%TD*%
D19*
%TO.C,C5*%
X95758000Y-47701200D03*
X95758000Y-42701200D03*
%TD*%
%TO.C,C18*%
X105913806Y-47650200D03*
X105913806Y-42650200D03*
%TD*%
%TO.C,C24*%
X173024800Y-115773200D03*
X173024800Y-120773200D03*
%TD*%
D16*
%TO.C,J2*%
X66830206Y-33404600D03*
D17*
X61830206Y-33404600D03*
%TD*%
D14*
%TO.C,J9*%
X71188206Y-65764400D03*
D15*
X71188206Y-60764400D03*
%TD*%
D18*
%TO.C,C35*%
X110196000Y-110439200D03*
X105196000Y-110439200D03*
%TD*%
D19*
%TO.C,C2*%
X79599406Y-50941400D03*
X79599406Y-45941400D03*
%TD*%
%TO.C,C32*%
X159797406Y-92536000D03*
X159797406Y-97536000D03*
%TD*%
D18*
%TO.C,C14*%
X110105200Y-77165200D03*
X105105200Y-77165200D03*
%TD*%
D21*
%TO.C,R2*%
X60215406Y-60633600D03*
X60215406Y-53013600D03*
%TD*%
D16*
%TO.C,J6*%
X184120800Y-128422400D03*
D17*
X179120800Y-128422400D03*
%TD*%
D12*
%TO.C,J5*%
X74313006Y-33938200D03*
D13*
X79313006Y-33938200D03*
X84313006Y-33938200D03*
X89313006Y-33938200D03*
X94313006Y-33938200D03*
X99313006Y-33938200D03*
%TD*%
D18*
%TO.C,C34*%
X110105200Y-103835200D03*
X105105200Y-103835200D03*
%TD*%
D19*
%TO.C,C23*%
X130929006Y-56845200D03*
X130929006Y-51845200D03*
%TD*%
%TO.C,C4*%
X89302206Y-47639400D03*
X89302206Y-42639400D03*
%TD*%
%TO.C,C30*%
X167552400Y-112979200D03*
X167552400Y-117979200D03*
%TD*%
%TO.C,C21*%
X121023006Y-56722000D03*
X121023006Y-51722000D03*
%TD*%
%TO.C,C26*%
X166249006Y-92485200D03*
X166249006Y-97485200D03*
%TD*%
D14*
%TO.C,J29*%
X50614206Y-87557600D03*
D15*
X50614206Y-82557600D03*
X50614206Y-77557600D03*
%TD*%
D16*
%TO.C,J3*%
X70527806Y-128350000D03*
D17*
X65527806Y-128350000D03*
%TD*%
D14*
%TO.C,J4*%
X50258606Y-123117600D03*
D15*
X50258606Y-118117600D03*
X50258606Y-113117600D03*
%TD*%
D16*
%TO.C,J13*%
X98997406Y-128451600D03*
D17*
X93997406Y-128451600D03*
%TD*%
D19*
%TO.C,C31*%
X167552400Y-103835200D03*
X167552400Y-108835200D03*
%TD*%
D12*
%TO.C,J12*%
X172777200Y-128574800D03*
D13*
X167777200Y-128574800D03*
X162777200Y-128574800D03*
X157777200Y-128574800D03*
X152777200Y-128574800D03*
X147777200Y-128574800D03*
%TD*%
D18*
%TO.C,C16*%
X110206800Y-87020400D03*
X105206800Y-87020400D03*
%TD*%
%TO.C,C4a2*%
X119594000Y-91957400D03*
X114594000Y-91957400D03*
%TD*%
D19*
%TO.C,C22*%
X126183006Y-47701200D03*
X126183006Y-42701200D03*
%TD*%
D14*
%TO.C,J7*%
X50715806Y-70880000D03*
D15*
X50715806Y-65880000D03*
X50715806Y-60880000D03*
%TD*%
D19*
%TO.C,C7*%
X84476206Y-63946200D03*
X84476206Y-58946200D03*
%TD*%
D16*
%TO.C,J19*%
X136245600Y-128524000D03*
D17*
X141245600Y-128524000D03*
%TD*%
D18*
%TO.C,C2a2*%
X119655600Y-82397600D03*
X114655600Y-82397600D03*
%TD*%
D20*
%TO.C,R1*%
X59402606Y-117732800D03*
X59402606Y-130432800D03*
%TD*%
D19*
%TO.C,C29*%
X145167006Y-92485200D03*
X145167006Y-97485200D03*
%TD*%
D12*
%TO.C,J10*%
X106023006Y-33938200D03*
D13*
X111023006Y-33938200D03*
X116023006Y-33938200D03*
X121023006Y-33938200D03*
X126023006Y-33938200D03*
X131023006Y-33938200D03*
%TD*%
D18*
%TO.C,C5a2*%
X110094400Y-97383600D03*
X105094400Y-97383600D03*
%TD*%
%TO.C,C15*%
X119564800Y-75946000D03*
X114564800Y-75946000D03*
%TD*%
D16*
%TO.C,J21*%
X87139406Y-128350000D03*
D17*
X82139406Y-128350000D03*
X77139406Y-128350000D03*
%TD*%
D19*
%TO.C,C6*%
X104140000Y-64058800D03*
X104140000Y-59058800D03*
%TD*%
%TO.C,C19*%
X110964606Y-56986800D03*
X110964606Y-51986800D03*
%TD*%
M02*
