%TF.GenerationSoftware,KiCad,Pcbnew,8.0.3*%
%TF.CreationDate,2024-07-16T22:22:09-07:00*%
%TF.ProjectId,pultec-three-band-eq,70756c74-6563-42d7-9468-7265652d6261,4*%
%TF.SameCoordinates,Original*%
%TF.FileFunction,Legend,Top*%
%TF.FilePolarity,Positive*%
%FSLAX46Y46*%
G04 Gerber Fmt 4.6, Leading zero omitted, Abs format (unit mm)*
G04 Created by KiCad (PCBNEW 8.0.3) date 2024-07-16 22:22:09*
%MOMM*%
%LPD*%
G01*
G04 APERTURE LIST*
%ADD10C,0.100000*%
%ADD11C,0.150000*%
%ADD12C,0.120000*%
G04 APERTURE END LIST*
D10*
X77164284Y-116728075D02*
X77164284Y-115728075D01*
X77164284Y-115728075D02*
X77545236Y-115728075D01*
X77545236Y-115728075D02*
X77640474Y-115775694D01*
X77640474Y-115775694D02*
X77688093Y-115823313D01*
X77688093Y-115823313D02*
X77735712Y-115918551D01*
X77735712Y-115918551D02*
X77735712Y-116061408D01*
X77735712Y-116061408D02*
X77688093Y-116156646D01*
X77688093Y-116156646D02*
X77640474Y-116204265D01*
X77640474Y-116204265D02*
X77545236Y-116251884D01*
X77545236Y-116251884D02*
X77164284Y-116251884D01*
X78592855Y-116061408D02*
X78592855Y-116728075D01*
X78164284Y-116061408D02*
X78164284Y-116585217D01*
X78164284Y-116585217D02*
X78211903Y-116680456D01*
X78211903Y-116680456D02*
X78307141Y-116728075D01*
X78307141Y-116728075D02*
X78449998Y-116728075D01*
X78449998Y-116728075D02*
X78545236Y-116680456D01*
X78545236Y-116680456D02*
X78592855Y-116632836D01*
X79211903Y-116728075D02*
X79116665Y-116680456D01*
X79116665Y-116680456D02*
X79069046Y-116585217D01*
X79069046Y-116585217D02*
X79069046Y-115728075D01*
X79449999Y-116061408D02*
X79830951Y-116061408D01*
X79592856Y-115728075D02*
X79592856Y-116585217D01*
X79592856Y-116585217D02*
X79640475Y-116680456D01*
X79640475Y-116680456D02*
X79735713Y-116728075D01*
X79735713Y-116728075D02*
X79830951Y-116728075D01*
X80545237Y-116680456D02*
X80449999Y-116728075D01*
X80449999Y-116728075D02*
X80259523Y-116728075D01*
X80259523Y-116728075D02*
X80164285Y-116680456D01*
X80164285Y-116680456D02*
X80116666Y-116585217D01*
X80116666Y-116585217D02*
X80116666Y-116204265D01*
X80116666Y-116204265D02*
X80164285Y-116109027D01*
X80164285Y-116109027D02*
X80259523Y-116061408D01*
X80259523Y-116061408D02*
X80449999Y-116061408D01*
X80449999Y-116061408D02*
X80545237Y-116109027D01*
X80545237Y-116109027D02*
X80592856Y-116204265D01*
X80592856Y-116204265D02*
X80592856Y-116299503D01*
X80592856Y-116299503D02*
X80116666Y-116394741D01*
X81449999Y-116680456D02*
X81354761Y-116728075D01*
X81354761Y-116728075D02*
X81164285Y-116728075D01*
X81164285Y-116728075D02*
X81069047Y-116680456D01*
X81069047Y-116680456D02*
X81021428Y-116632836D01*
X81021428Y-116632836D02*
X80973809Y-116537598D01*
X80973809Y-116537598D02*
X80973809Y-116251884D01*
X80973809Y-116251884D02*
X81021428Y-116156646D01*
X81021428Y-116156646D02*
X81069047Y-116109027D01*
X81069047Y-116109027D02*
X81164285Y-116061408D01*
X81164285Y-116061408D02*
X81354761Y-116061408D01*
X81354761Y-116061408D02*
X81449999Y-116109027D01*
X82545238Y-115728075D02*
X83164285Y-115728075D01*
X83164285Y-115728075D02*
X82830952Y-116109027D01*
X82830952Y-116109027D02*
X82973809Y-116109027D01*
X82973809Y-116109027D02*
X83069047Y-116156646D01*
X83069047Y-116156646D02*
X83116666Y-116204265D01*
X83116666Y-116204265D02*
X83164285Y-116299503D01*
X83164285Y-116299503D02*
X83164285Y-116537598D01*
X83164285Y-116537598D02*
X83116666Y-116632836D01*
X83116666Y-116632836D02*
X83069047Y-116680456D01*
X83069047Y-116680456D02*
X82973809Y-116728075D01*
X82973809Y-116728075D02*
X82688095Y-116728075D01*
X82688095Y-116728075D02*
X82592857Y-116680456D01*
X82592857Y-116680456D02*
X82545238Y-116632836D01*
X83592857Y-116347122D02*
X84354762Y-116347122D01*
X85164285Y-116204265D02*
X85307142Y-116251884D01*
X85307142Y-116251884D02*
X85354761Y-116299503D01*
X85354761Y-116299503D02*
X85402380Y-116394741D01*
X85402380Y-116394741D02*
X85402380Y-116537598D01*
X85402380Y-116537598D02*
X85354761Y-116632836D01*
X85354761Y-116632836D02*
X85307142Y-116680456D01*
X85307142Y-116680456D02*
X85211904Y-116728075D01*
X85211904Y-116728075D02*
X84830952Y-116728075D01*
X84830952Y-116728075D02*
X84830952Y-115728075D01*
X84830952Y-115728075D02*
X85164285Y-115728075D01*
X85164285Y-115728075D02*
X85259523Y-115775694D01*
X85259523Y-115775694D02*
X85307142Y-115823313D01*
X85307142Y-115823313D02*
X85354761Y-115918551D01*
X85354761Y-115918551D02*
X85354761Y-116013789D01*
X85354761Y-116013789D02*
X85307142Y-116109027D01*
X85307142Y-116109027D02*
X85259523Y-116156646D01*
X85259523Y-116156646D02*
X85164285Y-116204265D01*
X85164285Y-116204265D02*
X84830952Y-116204265D01*
X86259523Y-116728075D02*
X86259523Y-116204265D01*
X86259523Y-116204265D02*
X86211904Y-116109027D01*
X86211904Y-116109027D02*
X86116666Y-116061408D01*
X86116666Y-116061408D02*
X85926190Y-116061408D01*
X85926190Y-116061408D02*
X85830952Y-116109027D01*
X86259523Y-116680456D02*
X86164285Y-116728075D01*
X86164285Y-116728075D02*
X85926190Y-116728075D01*
X85926190Y-116728075D02*
X85830952Y-116680456D01*
X85830952Y-116680456D02*
X85783333Y-116585217D01*
X85783333Y-116585217D02*
X85783333Y-116489979D01*
X85783333Y-116489979D02*
X85830952Y-116394741D01*
X85830952Y-116394741D02*
X85926190Y-116347122D01*
X85926190Y-116347122D02*
X86164285Y-116347122D01*
X86164285Y-116347122D02*
X86259523Y-116299503D01*
X86735714Y-116061408D02*
X86735714Y-116728075D01*
X86735714Y-116156646D02*
X86783333Y-116109027D01*
X86783333Y-116109027D02*
X86878571Y-116061408D01*
X86878571Y-116061408D02*
X87021428Y-116061408D01*
X87021428Y-116061408D02*
X87116666Y-116109027D01*
X87116666Y-116109027D02*
X87164285Y-116204265D01*
X87164285Y-116204265D02*
X87164285Y-116728075D01*
X88069047Y-116728075D02*
X88069047Y-115728075D01*
X88069047Y-116680456D02*
X87973809Y-116728075D01*
X87973809Y-116728075D02*
X87783333Y-116728075D01*
X87783333Y-116728075D02*
X87688095Y-116680456D01*
X87688095Y-116680456D02*
X87640476Y-116632836D01*
X87640476Y-116632836D02*
X87592857Y-116537598D01*
X87592857Y-116537598D02*
X87592857Y-116251884D01*
X87592857Y-116251884D02*
X87640476Y-116156646D01*
X87640476Y-116156646D02*
X87688095Y-116109027D01*
X87688095Y-116109027D02*
X87783333Y-116061408D01*
X87783333Y-116061408D02*
X87973809Y-116061408D01*
X87973809Y-116061408D02*
X88069047Y-116109027D01*
X89307143Y-116204265D02*
X89640476Y-116204265D01*
X89783333Y-116728075D02*
X89307143Y-116728075D01*
X89307143Y-116728075D02*
X89307143Y-115728075D01*
X89307143Y-115728075D02*
X89783333Y-115728075D01*
X90878571Y-116823313D02*
X90783333Y-116775694D01*
X90783333Y-116775694D02*
X90688095Y-116680456D01*
X90688095Y-116680456D02*
X90545238Y-116537598D01*
X90545238Y-116537598D02*
X90450000Y-116489979D01*
X90450000Y-116489979D02*
X90354762Y-116489979D01*
X90402381Y-116728075D02*
X90307143Y-116680456D01*
X90307143Y-116680456D02*
X90211905Y-116585217D01*
X90211905Y-116585217D02*
X90164286Y-116394741D01*
X90164286Y-116394741D02*
X90164286Y-116061408D01*
X90164286Y-116061408D02*
X90211905Y-115870932D01*
X90211905Y-115870932D02*
X90307143Y-115775694D01*
X90307143Y-115775694D02*
X90402381Y-115728075D01*
X90402381Y-115728075D02*
X90592857Y-115728075D01*
X90592857Y-115728075D02*
X90688095Y-115775694D01*
X90688095Y-115775694D02*
X90783333Y-115870932D01*
X90783333Y-115870932D02*
X90830952Y-116061408D01*
X90830952Y-116061408D02*
X90830952Y-116394741D01*
X90830952Y-116394741D02*
X90783333Y-116585217D01*
X90783333Y-116585217D02*
X90688095Y-116680456D01*
X90688095Y-116680456D02*
X90592857Y-116728075D01*
X90592857Y-116728075D02*
X90402381Y-116728075D01*
X77735712Y-118338019D02*
X77402379Y-117861828D01*
X77164284Y-118338019D02*
X77164284Y-117338019D01*
X77164284Y-117338019D02*
X77545236Y-117338019D01*
X77545236Y-117338019D02*
X77640474Y-117385638D01*
X77640474Y-117385638D02*
X77688093Y-117433257D01*
X77688093Y-117433257D02*
X77735712Y-117528495D01*
X77735712Y-117528495D02*
X77735712Y-117671352D01*
X77735712Y-117671352D02*
X77688093Y-117766590D01*
X77688093Y-117766590D02*
X77640474Y-117814209D01*
X77640474Y-117814209D02*
X77545236Y-117861828D01*
X77545236Y-117861828D02*
X77164284Y-117861828D01*
X78545236Y-118290400D02*
X78449998Y-118338019D01*
X78449998Y-118338019D02*
X78259522Y-118338019D01*
X78259522Y-118338019D02*
X78164284Y-118290400D01*
X78164284Y-118290400D02*
X78116665Y-118195161D01*
X78116665Y-118195161D02*
X78116665Y-117814209D01*
X78116665Y-117814209D02*
X78164284Y-117718971D01*
X78164284Y-117718971D02*
X78259522Y-117671352D01*
X78259522Y-117671352D02*
X78449998Y-117671352D01*
X78449998Y-117671352D02*
X78545236Y-117718971D01*
X78545236Y-117718971D02*
X78592855Y-117814209D01*
X78592855Y-117814209D02*
X78592855Y-117909447D01*
X78592855Y-117909447D02*
X78116665Y-118004685D01*
X78926189Y-117671352D02*
X79164284Y-118338019D01*
X79164284Y-118338019D02*
X79402379Y-117671352D01*
X79783332Y-118242780D02*
X79830951Y-118290400D01*
X79830951Y-118290400D02*
X79783332Y-118338019D01*
X79783332Y-118338019D02*
X79735713Y-118290400D01*
X79735713Y-118290400D02*
X79783332Y-118242780D01*
X79783332Y-118242780D02*
X79783332Y-118338019D01*
X81449998Y-117671352D02*
X81449998Y-118338019D01*
X81211903Y-117290400D02*
X80973808Y-118004685D01*
X80973808Y-118004685D02*
X81592855Y-118004685D01*
X82688094Y-117433257D02*
X82735713Y-117385638D01*
X82735713Y-117385638D02*
X82830951Y-117338019D01*
X82830951Y-117338019D02*
X83069046Y-117338019D01*
X83069046Y-117338019D02*
X83164284Y-117385638D01*
X83164284Y-117385638D02*
X83211903Y-117433257D01*
X83211903Y-117433257D02*
X83259522Y-117528495D01*
X83259522Y-117528495D02*
X83259522Y-117623733D01*
X83259522Y-117623733D02*
X83211903Y-117766590D01*
X83211903Y-117766590D02*
X82640475Y-118338019D01*
X82640475Y-118338019D02*
X83259522Y-118338019D01*
X83878570Y-117338019D02*
X83973808Y-117338019D01*
X83973808Y-117338019D02*
X84069046Y-117385638D01*
X84069046Y-117385638D02*
X84116665Y-117433257D01*
X84116665Y-117433257D02*
X84164284Y-117528495D01*
X84164284Y-117528495D02*
X84211903Y-117718971D01*
X84211903Y-117718971D02*
X84211903Y-117957066D01*
X84211903Y-117957066D02*
X84164284Y-118147542D01*
X84164284Y-118147542D02*
X84116665Y-118242780D01*
X84116665Y-118242780D02*
X84069046Y-118290400D01*
X84069046Y-118290400D02*
X83973808Y-118338019D01*
X83973808Y-118338019D02*
X83878570Y-118338019D01*
X83878570Y-118338019D02*
X83783332Y-118290400D01*
X83783332Y-118290400D02*
X83735713Y-118242780D01*
X83735713Y-118242780D02*
X83688094Y-118147542D01*
X83688094Y-118147542D02*
X83640475Y-117957066D01*
X83640475Y-117957066D02*
X83640475Y-117718971D01*
X83640475Y-117718971D02*
X83688094Y-117528495D01*
X83688094Y-117528495D02*
X83735713Y-117433257D01*
X83735713Y-117433257D02*
X83783332Y-117385638D01*
X83783332Y-117385638D02*
X83878570Y-117338019D01*
X84592856Y-117433257D02*
X84640475Y-117385638D01*
X84640475Y-117385638D02*
X84735713Y-117338019D01*
X84735713Y-117338019D02*
X84973808Y-117338019D01*
X84973808Y-117338019D02*
X85069046Y-117385638D01*
X85069046Y-117385638D02*
X85116665Y-117433257D01*
X85116665Y-117433257D02*
X85164284Y-117528495D01*
X85164284Y-117528495D02*
X85164284Y-117623733D01*
X85164284Y-117623733D02*
X85116665Y-117766590D01*
X85116665Y-117766590D02*
X84545237Y-118338019D01*
X84545237Y-118338019D02*
X85164284Y-118338019D01*
X86021427Y-117671352D02*
X86021427Y-118338019D01*
X85783332Y-117290400D02*
X85545237Y-118004685D01*
X85545237Y-118004685D02*
X86164284Y-118004685D01*
X86545237Y-117957066D02*
X87307142Y-117957066D01*
X87973808Y-117338019D02*
X88069046Y-117338019D01*
X88069046Y-117338019D02*
X88164284Y-117385638D01*
X88164284Y-117385638D02*
X88211903Y-117433257D01*
X88211903Y-117433257D02*
X88259522Y-117528495D01*
X88259522Y-117528495D02*
X88307141Y-117718971D01*
X88307141Y-117718971D02*
X88307141Y-117957066D01*
X88307141Y-117957066D02*
X88259522Y-118147542D01*
X88259522Y-118147542D02*
X88211903Y-118242780D01*
X88211903Y-118242780D02*
X88164284Y-118290400D01*
X88164284Y-118290400D02*
X88069046Y-118338019D01*
X88069046Y-118338019D02*
X87973808Y-118338019D01*
X87973808Y-118338019D02*
X87878570Y-118290400D01*
X87878570Y-118290400D02*
X87830951Y-118242780D01*
X87830951Y-118242780D02*
X87783332Y-118147542D01*
X87783332Y-118147542D02*
X87735713Y-117957066D01*
X87735713Y-117957066D02*
X87735713Y-117718971D01*
X87735713Y-117718971D02*
X87783332Y-117528495D01*
X87783332Y-117528495D02*
X87830951Y-117433257D01*
X87830951Y-117433257D02*
X87878570Y-117385638D01*
X87878570Y-117385638D02*
X87973808Y-117338019D01*
X88640475Y-117338019D02*
X89307141Y-117338019D01*
X89307141Y-117338019D02*
X88878570Y-118338019D01*
X89688094Y-117957066D02*
X90449999Y-117957066D01*
X91449998Y-118338019D02*
X90878570Y-118338019D01*
X91164284Y-118338019D02*
X91164284Y-117338019D01*
X91164284Y-117338019D02*
X91069046Y-117480876D01*
X91069046Y-117480876D02*
X90973808Y-117576114D01*
X90973808Y-117576114D02*
X90878570Y-117623733D01*
X92354760Y-117338019D02*
X91878570Y-117338019D01*
X91878570Y-117338019D02*
X91830951Y-117814209D01*
X91830951Y-117814209D02*
X91878570Y-117766590D01*
X91878570Y-117766590D02*
X91973808Y-117718971D01*
X91973808Y-117718971D02*
X92211903Y-117718971D01*
X92211903Y-117718971D02*
X92307141Y-117766590D01*
X92307141Y-117766590D02*
X92354760Y-117814209D01*
X92354760Y-117814209D02*
X92402379Y-117909447D01*
X92402379Y-117909447D02*
X92402379Y-118147542D01*
X92402379Y-118147542D02*
X92354760Y-118242780D01*
X92354760Y-118242780D02*
X92307141Y-118290400D01*
X92307141Y-118290400D02*
X92211903Y-118338019D01*
X92211903Y-118338019D02*
X91973808Y-118338019D01*
X91973808Y-118338019D02*
X91878570Y-118290400D01*
X91878570Y-118290400D02*
X91830951Y-118242780D01*
D11*
X122684019Y-90017523D02*
X123398304Y-90017523D01*
X123398304Y-90017523D02*
X123541161Y-90065142D01*
X123541161Y-90065142D02*
X123636400Y-90160380D01*
X123636400Y-90160380D02*
X123684019Y-90303237D01*
X123684019Y-90303237D02*
X123684019Y-90398475D01*
X123684019Y-89017523D02*
X123684019Y-89588951D01*
X123684019Y-89303237D02*
X122684019Y-89303237D01*
X122684019Y-89303237D02*
X122826876Y-89398475D01*
X122826876Y-89398475D02*
X122922114Y-89493713D01*
X122922114Y-89493713D02*
X122969733Y-89588951D01*
X122684019Y-88112761D02*
X122684019Y-88588951D01*
X122684019Y-88588951D02*
X123160209Y-88636570D01*
X123160209Y-88636570D02*
X123112590Y-88588951D01*
X123112590Y-88588951D02*
X123064971Y-88493713D01*
X123064971Y-88493713D02*
X123064971Y-88255618D01*
X123064971Y-88255618D02*
X123112590Y-88160380D01*
X123112590Y-88160380D02*
X123160209Y-88112761D01*
X123160209Y-88112761D02*
X123255447Y-88065142D01*
X123255447Y-88065142D02*
X123493542Y-88065142D01*
X123493542Y-88065142D02*
X123588780Y-88112761D01*
X123588780Y-88112761D02*
X123636400Y-88160380D01*
X123636400Y-88160380D02*
X123684019Y-88255618D01*
X123684019Y-88255618D02*
X123684019Y-88493713D01*
X123684019Y-88493713D02*
X123636400Y-88588951D01*
X123636400Y-88588951D02*
X123588780Y-88636570D01*
X163968476Y-38813419D02*
X163968476Y-39527704D01*
X163968476Y-39527704D02*
X163920857Y-39670561D01*
X163920857Y-39670561D02*
X163825619Y-39765800D01*
X163825619Y-39765800D02*
X163682762Y-39813419D01*
X163682762Y-39813419D02*
X163587524Y-39813419D01*
X164873238Y-39146752D02*
X164873238Y-39813419D01*
X164635143Y-38765800D02*
X164397048Y-39480085D01*
X164397048Y-39480085D02*
X165016095Y-39480085D01*
X165587524Y-38813419D02*
X165682762Y-38813419D01*
X165682762Y-38813419D02*
X165778000Y-38861038D01*
X165778000Y-38861038D02*
X165825619Y-38908657D01*
X165825619Y-38908657D02*
X165873238Y-39003895D01*
X165873238Y-39003895D02*
X165920857Y-39194371D01*
X165920857Y-39194371D02*
X165920857Y-39432466D01*
X165920857Y-39432466D02*
X165873238Y-39622942D01*
X165873238Y-39622942D02*
X165825619Y-39718180D01*
X165825619Y-39718180D02*
X165778000Y-39765800D01*
X165778000Y-39765800D02*
X165682762Y-39813419D01*
X165682762Y-39813419D02*
X165587524Y-39813419D01*
X165587524Y-39813419D02*
X165492286Y-39765800D01*
X165492286Y-39765800D02*
X165444667Y-39718180D01*
X165444667Y-39718180D02*
X165397048Y-39622942D01*
X165397048Y-39622942D02*
X165349429Y-39432466D01*
X165349429Y-39432466D02*
X165349429Y-39194371D01*
X165349429Y-39194371D02*
X165397048Y-39003895D01*
X165397048Y-39003895D02*
X165444667Y-38908657D01*
X165444667Y-38908657D02*
X165492286Y-38861038D01*
X165492286Y-38861038D02*
X165587524Y-38813419D01*
X158466876Y-74525619D02*
X158466876Y-75239904D01*
X158466876Y-75239904D02*
X158419257Y-75382761D01*
X158419257Y-75382761D02*
X158324019Y-75478000D01*
X158324019Y-75478000D02*
X158181162Y-75525619D01*
X158181162Y-75525619D02*
X158085924Y-75525619D01*
X158847829Y-74525619D02*
X159466876Y-74525619D01*
X159466876Y-74525619D02*
X159133543Y-74906571D01*
X159133543Y-74906571D02*
X159276400Y-74906571D01*
X159276400Y-74906571D02*
X159371638Y-74954190D01*
X159371638Y-74954190D02*
X159419257Y-75001809D01*
X159419257Y-75001809D02*
X159466876Y-75097047D01*
X159466876Y-75097047D02*
X159466876Y-75335142D01*
X159466876Y-75335142D02*
X159419257Y-75430380D01*
X159419257Y-75430380D02*
X159371638Y-75478000D01*
X159371638Y-75478000D02*
X159276400Y-75525619D01*
X159276400Y-75525619D02*
X158990686Y-75525619D01*
X158990686Y-75525619D02*
X158895448Y-75478000D01*
X158895448Y-75478000D02*
X158847829Y-75430380D01*
X160324019Y-74525619D02*
X160133543Y-74525619D01*
X160133543Y-74525619D02*
X160038305Y-74573238D01*
X160038305Y-74573238D02*
X159990686Y-74620857D01*
X159990686Y-74620857D02*
X159895448Y-74763714D01*
X159895448Y-74763714D02*
X159847829Y-74954190D01*
X159847829Y-74954190D02*
X159847829Y-75335142D01*
X159847829Y-75335142D02*
X159895448Y-75430380D01*
X159895448Y-75430380D02*
X159943067Y-75478000D01*
X159943067Y-75478000D02*
X160038305Y-75525619D01*
X160038305Y-75525619D02*
X160228781Y-75525619D01*
X160228781Y-75525619D02*
X160324019Y-75478000D01*
X160324019Y-75478000D02*
X160371638Y-75430380D01*
X160371638Y-75430380D02*
X160419257Y-75335142D01*
X160419257Y-75335142D02*
X160419257Y-75097047D01*
X160419257Y-75097047D02*
X160371638Y-75001809D01*
X160371638Y-75001809D02*
X160324019Y-74954190D01*
X160324019Y-74954190D02*
X160228781Y-74906571D01*
X160228781Y-74906571D02*
X160038305Y-74906571D01*
X160038305Y-74906571D02*
X159943067Y-74954190D01*
X159943067Y-74954190D02*
X159895448Y-75001809D01*
X159895448Y-75001809D02*
X159847829Y-75097047D01*
X185168019Y-83127123D02*
X185882304Y-83127123D01*
X185882304Y-83127123D02*
X186025161Y-83174742D01*
X186025161Y-83174742D02*
X186120400Y-83269980D01*
X186120400Y-83269980D02*
X186168019Y-83412837D01*
X186168019Y-83412837D02*
X186168019Y-83508075D01*
X185168019Y-82746170D02*
X185168019Y-82127123D01*
X185168019Y-82127123D02*
X185548971Y-82460456D01*
X185548971Y-82460456D02*
X185548971Y-82317599D01*
X185548971Y-82317599D02*
X185596590Y-82222361D01*
X185596590Y-82222361D02*
X185644209Y-82174742D01*
X185644209Y-82174742D02*
X185739447Y-82127123D01*
X185739447Y-82127123D02*
X185977542Y-82127123D01*
X185977542Y-82127123D02*
X186072780Y-82174742D01*
X186072780Y-82174742D02*
X186120400Y-82222361D01*
X186120400Y-82222361D02*
X186168019Y-82317599D01*
X186168019Y-82317599D02*
X186168019Y-82603313D01*
X186168019Y-82603313D02*
X186120400Y-82698551D01*
X186120400Y-82698551D02*
X186072780Y-82746170D01*
X186168019Y-81650932D02*
X186168019Y-81460456D01*
X186168019Y-81460456D02*
X186120400Y-81365218D01*
X186120400Y-81365218D02*
X186072780Y-81317599D01*
X186072780Y-81317599D02*
X185929923Y-81222361D01*
X185929923Y-81222361D02*
X185739447Y-81174742D01*
X185739447Y-81174742D02*
X185358495Y-81174742D01*
X185358495Y-81174742D02*
X185263257Y-81222361D01*
X185263257Y-81222361D02*
X185215638Y-81269980D01*
X185215638Y-81269980D02*
X185168019Y-81365218D01*
X185168019Y-81365218D02*
X185168019Y-81555694D01*
X185168019Y-81555694D02*
X185215638Y-81650932D01*
X185215638Y-81650932D02*
X185263257Y-81698551D01*
X185263257Y-81698551D02*
X185358495Y-81746170D01*
X185358495Y-81746170D02*
X185596590Y-81746170D01*
X185596590Y-81746170D02*
X185691828Y-81698551D01*
X185691828Y-81698551D02*
X185739447Y-81650932D01*
X185739447Y-81650932D02*
X185787066Y-81555694D01*
X185787066Y-81555694D02*
X185787066Y-81365218D01*
X185787066Y-81365218D02*
X185739447Y-81269980D01*
X185739447Y-81269980D02*
X185691828Y-81222361D01*
X185691828Y-81222361D02*
X185596590Y-81174742D01*
X185168019Y-99281523D02*
X185882304Y-99281523D01*
X185882304Y-99281523D02*
X186025161Y-99329142D01*
X186025161Y-99329142D02*
X186120400Y-99424380D01*
X186120400Y-99424380D02*
X186168019Y-99567237D01*
X186168019Y-99567237D02*
X186168019Y-99662475D01*
X185168019Y-98900570D02*
X185168019Y-98281523D01*
X185168019Y-98281523D02*
X185548971Y-98614856D01*
X185548971Y-98614856D02*
X185548971Y-98471999D01*
X185548971Y-98471999D02*
X185596590Y-98376761D01*
X185596590Y-98376761D02*
X185644209Y-98329142D01*
X185644209Y-98329142D02*
X185739447Y-98281523D01*
X185739447Y-98281523D02*
X185977542Y-98281523D01*
X185977542Y-98281523D02*
X186072780Y-98329142D01*
X186072780Y-98329142D02*
X186120400Y-98376761D01*
X186120400Y-98376761D02*
X186168019Y-98471999D01*
X186168019Y-98471999D02*
X186168019Y-98757713D01*
X186168019Y-98757713D02*
X186120400Y-98852951D01*
X186120400Y-98852951D02*
X186072780Y-98900570D01*
X185596590Y-97710094D02*
X185548971Y-97805332D01*
X185548971Y-97805332D02*
X185501352Y-97852951D01*
X185501352Y-97852951D02*
X185406114Y-97900570D01*
X185406114Y-97900570D02*
X185358495Y-97900570D01*
X185358495Y-97900570D02*
X185263257Y-97852951D01*
X185263257Y-97852951D02*
X185215638Y-97805332D01*
X185215638Y-97805332D02*
X185168019Y-97710094D01*
X185168019Y-97710094D02*
X185168019Y-97519618D01*
X185168019Y-97519618D02*
X185215638Y-97424380D01*
X185215638Y-97424380D02*
X185263257Y-97376761D01*
X185263257Y-97376761D02*
X185358495Y-97329142D01*
X185358495Y-97329142D02*
X185406114Y-97329142D01*
X185406114Y-97329142D02*
X185501352Y-97376761D01*
X185501352Y-97376761D02*
X185548971Y-97424380D01*
X185548971Y-97424380D02*
X185596590Y-97519618D01*
X185596590Y-97519618D02*
X185596590Y-97710094D01*
X185596590Y-97710094D02*
X185644209Y-97805332D01*
X185644209Y-97805332D02*
X185691828Y-97852951D01*
X185691828Y-97852951D02*
X185787066Y-97900570D01*
X185787066Y-97900570D02*
X185977542Y-97900570D01*
X185977542Y-97900570D02*
X186072780Y-97852951D01*
X186072780Y-97852951D02*
X186120400Y-97805332D01*
X186120400Y-97805332D02*
X186168019Y-97710094D01*
X186168019Y-97710094D02*
X186168019Y-97519618D01*
X186168019Y-97519618D02*
X186120400Y-97424380D01*
X186120400Y-97424380D02*
X186072780Y-97376761D01*
X186072780Y-97376761D02*
X185977542Y-97329142D01*
X185977542Y-97329142D02*
X185787066Y-97329142D01*
X185787066Y-97329142D02*
X185691828Y-97376761D01*
X185691828Y-97376761D02*
X185644209Y-97424380D01*
X185644209Y-97424380D02*
X185596590Y-97519618D01*
X192687676Y-134441819D02*
X192687676Y-135156104D01*
X192687676Y-135156104D02*
X192640057Y-135298961D01*
X192640057Y-135298961D02*
X192544819Y-135394200D01*
X192544819Y-135394200D02*
X192401962Y-135441819D01*
X192401962Y-135441819D02*
X192306724Y-135441819D01*
X193068629Y-134441819D02*
X193687676Y-134441819D01*
X193687676Y-134441819D02*
X193354343Y-134822771D01*
X193354343Y-134822771D02*
X193497200Y-134822771D01*
X193497200Y-134822771D02*
X193592438Y-134870390D01*
X193592438Y-134870390D02*
X193640057Y-134918009D01*
X193640057Y-134918009D02*
X193687676Y-135013247D01*
X193687676Y-135013247D02*
X193687676Y-135251342D01*
X193687676Y-135251342D02*
X193640057Y-135346580D01*
X193640057Y-135346580D02*
X193592438Y-135394200D01*
X193592438Y-135394200D02*
X193497200Y-135441819D01*
X193497200Y-135441819D02*
X193211486Y-135441819D01*
X193211486Y-135441819D02*
X193116248Y-135394200D01*
X193116248Y-135394200D02*
X193068629Y-135346580D01*
X194592438Y-134441819D02*
X194116248Y-134441819D01*
X194116248Y-134441819D02*
X194068629Y-134918009D01*
X194068629Y-134918009D02*
X194116248Y-134870390D01*
X194116248Y-134870390D02*
X194211486Y-134822771D01*
X194211486Y-134822771D02*
X194449581Y-134822771D01*
X194449581Y-134822771D02*
X194544819Y-134870390D01*
X194544819Y-134870390D02*
X194592438Y-134918009D01*
X194592438Y-134918009D02*
X194640057Y-135013247D01*
X194640057Y-135013247D02*
X194640057Y-135251342D01*
X194640057Y-135251342D02*
X194592438Y-135346580D01*
X194592438Y-135346580D02*
X194544819Y-135394200D01*
X194544819Y-135394200D02*
X194449581Y-135441819D01*
X194449581Y-135441819D02*
X194211486Y-135441819D01*
X194211486Y-135441819D02*
X194116248Y-135394200D01*
X194116248Y-135394200D02*
X194068629Y-135346580D01*
X185168019Y-112957523D02*
X185882304Y-112957523D01*
X185882304Y-112957523D02*
X186025161Y-113005142D01*
X186025161Y-113005142D02*
X186120400Y-113100380D01*
X186120400Y-113100380D02*
X186168019Y-113243237D01*
X186168019Y-113243237D02*
X186168019Y-113338475D01*
X185168019Y-112576570D02*
X185168019Y-111957523D01*
X185168019Y-111957523D02*
X185548971Y-112290856D01*
X185548971Y-112290856D02*
X185548971Y-112147999D01*
X185548971Y-112147999D02*
X185596590Y-112052761D01*
X185596590Y-112052761D02*
X185644209Y-112005142D01*
X185644209Y-112005142D02*
X185739447Y-111957523D01*
X185739447Y-111957523D02*
X185977542Y-111957523D01*
X185977542Y-111957523D02*
X186072780Y-112005142D01*
X186072780Y-112005142D02*
X186120400Y-112052761D01*
X186120400Y-112052761D02*
X186168019Y-112147999D01*
X186168019Y-112147999D02*
X186168019Y-112433713D01*
X186168019Y-112433713D02*
X186120400Y-112528951D01*
X186120400Y-112528951D02*
X186072780Y-112576570D01*
X185263257Y-111576570D02*
X185215638Y-111528951D01*
X185215638Y-111528951D02*
X185168019Y-111433713D01*
X185168019Y-111433713D02*
X185168019Y-111195618D01*
X185168019Y-111195618D02*
X185215638Y-111100380D01*
X185215638Y-111100380D02*
X185263257Y-111052761D01*
X185263257Y-111052761D02*
X185358495Y-111005142D01*
X185358495Y-111005142D02*
X185453733Y-111005142D01*
X185453733Y-111005142D02*
X185596590Y-111052761D01*
X185596590Y-111052761D02*
X186168019Y-111624189D01*
X186168019Y-111624189D02*
X186168019Y-111005142D01*
X49939676Y-38937819D02*
X49939676Y-39652104D01*
X49939676Y-39652104D02*
X49892057Y-39794961D01*
X49892057Y-39794961D02*
X49796819Y-39890200D01*
X49796819Y-39890200D02*
X49653962Y-39937819D01*
X49653962Y-39937819D02*
X49558724Y-39937819D01*
X50320629Y-38937819D02*
X50939676Y-38937819D01*
X50939676Y-38937819D02*
X50606343Y-39318771D01*
X50606343Y-39318771D02*
X50749200Y-39318771D01*
X50749200Y-39318771D02*
X50844438Y-39366390D01*
X50844438Y-39366390D02*
X50892057Y-39414009D01*
X50892057Y-39414009D02*
X50939676Y-39509247D01*
X50939676Y-39509247D02*
X50939676Y-39747342D01*
X50939676Y-39747342D02*
X50892057Y-39842580D01*
X50892057Y-39842580D02*
X50844438Y-39890200D01*
X50844438Y-39890200D02*
X50749200Y-39937819D01*
X50749200Y-39937819D02*
X50463486Y-39937819D01*
X50463486Y-39937819D02*
X50368248Y-39890200D01*
X50368248Y-39890200D02*
X50320629Y-39842580D01*
X51892057Y-39937819D02*
X51320629Y-39937819D01*
X51606343Y-39937819D02*
X51606343Y-38937819D01*
X51606343Y-38937819D02*
X51511105Y-39080676D01*
X51511105Y-39080676D02*
X51415867Y-39175914D01*
X51415867Y-39175914D02*
X51320629Y-39223533D01*
X164068876Y-27180019D02*
X164068876Y-27894304D01*
X164068876Y-27894304D02*
X164021257Y-28037161D01*
X164021257Y-28037161D02*
X163926019Y-28132400D01*
X163926019Y-28132400D02*
X163783162Y-28180019D01*
X163783162Y-28180019D02*
X163687924Y-28180019D01*
X165068876Y-28180019D02*
X164497448Y-28180019D01*
X164783162Y-28180019D02*
X164783162Y-27180019D01*
X164783162Y-27180019D02*
X164687924Y-27322876D01*
X164687924Y-27322876D02*
X164592686Y-27418114D01*
X164592686Y-27418114D02*
X164497448Y-27465733D01*
X165926019Y-27513352D02*
X165926019Y-28180019D01*
X165687924Y-27132400D02*
X165449829Y-27846685D01*
X165449829Y-27846685D02*
X166068876Y-27846685D01*
X191065542Y-65013180D02*
X191017923Y-65060800D01*
X191017923Y-65060800D02*
X190875066Y-65108419D01*
X190875066Y-65108419D02*
X190779828Y-65108419D01*
X190779828Y-65108419D02*
X190636971Y-65060800D01*
X190636971Y-65060800D02*
X190541733Y-64965561D01*
X190541733Y-64965561D02*
X190494114Y-64870323D01*
X190494114Y-64870323D02*
X190446495Y-64679847D01*
X190446495Y-64679847D02*
X190446495Y-64536990D01*
X190446495Y-64536990D02*
X190494114Y-64346514D01*
X190494114Y-64346514D02*
X190541733Y-64251276D01*
X190541733Y-64251276D02*
X190636971Y-64156038D01*
X190636971Y-64156038D02*
X190779828Y-64108419D01*
X190779828Y-64108419D02*
X190875066Y-64108419D01*
X190875066Y-64108419D02*
X191017923Y-64156038D01*
X191017923Y-64156038D02*
X191065542Y-64203657D01*
X191922685Y-64441752D02*
X191922685Y-65108419D01*
X191684590Y-64060800D02*
X191446495Y-64775085D01*
X191446495Y-64775085D02*
X192065542Y-64775085D01*
X192970304Y-65108419D02*
X192398876Y-65108419D01*
X192684590Y-65108419D02*
X192684590Y-64108419D01*
X192684590Y-64108419D02*
X192589352Y-64251276D01*
X192589352Y-64251276D02*
X192494114Y-64346514D01*
X192494114Y-64346514D02*
X192398876Y-64394133D01*
X191065542Y-59013180D02*
X191017923Y-59060800D01*
X191017923Y-59060800D02*
X190875066Y-59108419D01*
X190875066Y-59108419D02*
X190779828Y-59108419D01*
X190779828Y-59108419D02*
X190636971Y-59060800D01*
X190636971Y-59060800D02*
X190541733Y-58965561D01*
X190541733Y-58965561D02*
X190494114Y-58870323D01*
X190494114Y-58870323D02*
X190446495Y-58679847D01*
X190446495Y-58679847D02*
X190446495Y-58536990D01*
X190446495Y-58536990D02*
X190494114Y-58346514D01*
X190494114Y-58346514D02*
X190541733Y-58251276D01*
X190541733Y-58251276D02*
X190636971Y-58156038D01*
X190636971Y-58156038D02*
X190779828Y-58108419D01*
X190779828Y-58108419D02*
X190875066Y-58108419D01*
X190875066Y-58108419D02*
X191017923Y-58156038D01*
X191017923Y-58156038D02*
X191065542Y-58203657D01*
X191922685Y-58441752D02*
X191922685Y-59108419D01*
X191684590Y-58060800D02*
X191446495Y-58775085D01*
X191446495Y-58775085D02*
X192065542Y-58775085D01*
X192636971Y-58108419D02*
X192732209Y-58108419D01*
X192732209Y-58108419D02*
X192827447Y-58156038D01*
X192827447Y-58156038D02*
X192875066Y-58203657D01*
X192875066Y-58203657D02*
X192922685Y-58298895D01*
X192922685Y-58298895D02*
X192970304Y-58489371D01*
X192970304Y-58489371D02*
X192970304Y-58727466D01*
X192970304Y-58727466D02*
X192922685Y-58917942D01*
X192922685Y-58917942D02*
X192875066Y-59013180D01*
X192875066Y-59013180D02*
X192827447Y-59060800D01*
X192827447Y-59060800D02*
X192732209Y-59108419D01*
X192732209Y-59108419D02*
X192636971Y-59108419D01*
X192636971Y-59108419D02*
X192541733Y-59060800D01*
X192541733Y-59060800D02*
X192494114Y-59013180D01*
X192494114Y-59013180D02*
X192446495Y-58917942D01*
X192446495Y-58917942D02*
X192398876Y-58727466D01*
X192398876Y-58727466D02*
X192398876Y-58489371D01*
X192398876Y-58489371D02*
X192446495Y-58298895D01*
X192446495Y-58298895D02*
X192494114Y-58203657D01*
X192494114Y-58203657D02*
X192541733Y-58156038D01*
X192541733Y-58156038D02*
X192636971Y-58108419D01*
X181464342Y-65267180D02*
X181416723Y-65314800D01*
X181416723Y-65314800D02*
X181273866Y-65362419D01*
X181273866Y-65362419D02*
X181178628Y-65362419D01*
X181178628Y-65362419D02*
X181035771Y-65314800D01*
X181035771Y-65314800D02*
X180940533Y-65219561D01*
X180940533Y-65219561D02*
X180892914Y-65124323D01*
X180892914Y-65124323D02*
X180845295Y-64933847D01*
X180845295Y-64933847D02*
X180845295Y-64790990D01*
X180845295Y-64790990D02*
X180892914Y-64600514D01*
X180892914Y-64600514D02*
X180940533Y-64505276D01*
X180940533Y-64505276D02*
X181035771Y-64410038D01*
X181035771Y-64410038D02*
X181178628Y-64362419D01*
X181178628Y-64362419D02*
X181273866Y-64362419D01*
X181273866Y-64362419D02*
X181416723Y-64410038D01*
X181416723Y-64410038D02*
X181464342Y-64457657D01*
X181797676Y-64362419D02*
X182416723Y-64362419D01*
X182416723Y-64362419D02*
X182083390Y-64743371D01*
X182083390Y-64743371D02*
X182226247Y-64743371D01*
X182226247Y-64743371D02*
X182321485Y-64790990D01*
X182321485Y-64790990D02*
X182369104Y-64838609D01*
X182369104Y-64838609D02*
X182416723Y-64933847D01*
X182416723Y-64933847D02*
X182416723Y-65171942D01*
X182416723Y-65171942D02*
X182369104Y-65267180D01*
X182369104Y-65267180D02*
X182321485Y-65314800D01*
X182321485Y-65314800D02*
X182226247Y-65362419D01*
X182226247Y-65362419D02*
X181940533Y-65362419D01*
X181940533Y-65362419D02*
X181845295Y-65314800D01*
X181845295Y-65314800D02*
X181797676Y-65267180D01*
X182892914Y-65362419D02*
X183083390Y-65362419D01*
X183083390Y-65362419D02*
X183178628Y-65314800D01*
X183178628Y-65314800D02*
X183226247Y-65267180D01*
X183226247Y-65267180D02*
X183321485Y-65124323D01*
X183321485Y-65124323D02*
X183369104Y-64933847D01*
X183369104Y-64933847D02*
X183369104Y-64552895D01*
X183369104Y-64552895D02*
X183321485Y-64457657D01*
X183321485Y-64457657D02*
X183273866Y-64410038D01*
X183273866Y-64410038D02*
X183178628Y-64362419D01*
X183178628Y-64362419D02*
X182988152Y-64362419D01*
X182988152Y-64362419D02*
X182892914Y-64410038D01*
X182892914Y-64410038D02*
X182845295Y-64457657D01*
X182845295Y-64457657D02*
X182797676Y-64552895D01*
X182797676Y-64552895D02*
X182797676Y-64790990D01*
X182797676Y-64790990D02*
X182845295Y-64886228D01*
X182845295Y-64886228D02*
X182892914Y-64933847D01*
X182892914Y-64933847D02*
X182988152Y-64981466D01*
X182988152Y-64981466D02*
X183178628Y-64981466D01*
X183178628Y-64981466D02*
X183273866Y-64933847D01*
X183273866Y-64933847D02*
X183321485Y-64886228D01*
X183321485Y-64886228D02*
X183369104Y-64790990D01*
X181464342Y-59267180D02*
X181416723Y-59314800D01*
X181416723Y-59314800D02*
X181273866Y-59362419D01*
X181273866Y-59362419D02*
X181178628Y-59362419D01*
X181178628Y-59362419D02*
X181035771Y-59314800D01*
X181035771Y-59314800D02*
X180940533Y-59219561D01*
X180940533Y-59219561D02*
X180892914Y-59124323D01*
X180892914Y-59124323D02*
X180845295Y-58933847D01*
X180845295Y-58933847D02*
X180845295Y-58790990D01*
X180845295Y-58790990D02*
X180892914Y-58600514D01*
X180892914Y-58600514D02*
X180940533Y-58505276D01*
X180940533Y-58505276D02*
X181035771Y-58410038D01*
X181035771Y-58410038D02*
X181178628Y-58362419D01*
X181178628Y-58362419D02*
X181273866Y-58362419D01*
X181273866Y-58362419D02*
X181416723Y-58410038D01*
X181416723Y-58410038D02*
X181464342Y-58457657D01*
X181797676Y-58362419D02*
X182416723Y-58362419D01*
X182416723Y-58362419D02*
X182083390Y-58743371D01*
X182083390Y-58743371D02*
X182226247Y-58743371D01*
X182226247Y-58743371D02*
X182321485Y-58790990D01*
X182321485Y-58790990D02*
X182369104Y-58838609D01*
X182369104Y-58838609D02*
X182416723Y-58933847D01*
X182416723Y-58933847D02*
X182416723Y-59171942D01*
X182416723Y-59171942D02*
X182369104Y-59267180D01*
X182369104Y-59267180D02*
X182321485Y-59314800D01*
X182321485Y-59314800D02*
X182226247Y-59362419D01*
X182226247Y-59362419D02*
X181940533Y-59362419D01*
X181940533Y-59362419D02*
X181845295Y-59314800D01*
X181845295Y-59314800D02*
X181797676Y-59267180D01*
X182988152Y-58790990D02*
X182892914Y-58743371D01*
X182892914Y-58743371D02*
X182845295Y-58695752D01*
X182845295Y-58695752D02*
X182797676Y-58600514D01*
X182797676Y-58600514D02*
X182797676Y-58552895D01*
X182797676Y-58552895D02*
X182845295Y-58457657D01*
X182845295Y-58457657D02*
X182892914Y-58410038D01*
X182892914Y-58410038D02*
X182988152Y-58362419D01*
X182988152Y-58362419D02*
X183178628Y-58362419D01*
X183178628Y-58362419D02*
X183273866Y-58410038D01*
X183273866Y-58410038D02*
X183321485Y-58457657D01*
X183321485Y-58457657D02*
X183369104Y-58552895D01*
X183369104Y-58552895D02*
X183369104Y-58600514D01*
X183369104Y-58600514D02*
X183321485Y-58695752D01*
X183321485Y-58695752D02*
X183273866Y-58743371D01*
X183273866Y-58743371D02*
X183178628Y-58790990D01*
X183178628Y-58790990D02*
X182988152Y-58790990D01*
X182988152Y-58790990D02*
X182892914Y-58838609D01*
X182892914Y-58838609D02*
X182845295Y-58886228D01*
X182845295Y-58886228D02*
X182797676Y-58981466D01*
X182797676Y-58981466D02*
X182797676Y-59171942D01*
X182797676Y-59171942D02*
X182845295Y-59267180D01*
X182845295Y-59267180D02*
X182892914Y-59314800D01*
X182892914Y-59314800D02*
X182988152Y-59362419D01*
X182988152Y-59362419D02*
X183178628Y-59362419D01*
X183178628Y-59362419D02*
X183273866Y-59314800D01*
X183273866Y-59314800D02*
X183321485Y-59267180D01*
X183321485Y-59267180D02*
X183369104Y-59171942D01*
X183369104Y-59171942D02*
X183369104Y-58981466D01*
X183369104Y-58981466D02*
X183321485Y-58886228D01*
X183321485Y-58886228D02*
X183273866Y-58838609D01*
X183273866Y-58838609D02*
X183178628Y-58790990D01*
X171659942Y-65013180D02*
X171612323Y-65060800D01*
X171612323Y-65060800D02*
X171469466Y-65108419D01*
X171469466Y-65108419D02*
X171374228Y-65108419D01*
X171374228Y-65108419D02*
X171231371Y-65060800D01*
X171231371Y-65060800D02*
X171136133Y-64965561D01*
X171136133Y-64965561D02*
X171088514Y-64870323D01*
X171088514Y-64870323D02*
X171040895Y-64679847D01*
X171040895Y-64679847D02*
X171040895Y-64536990D01*
X171040895Y-64536990D02*
X171088514Y-64346514D01*
X171088514Y-64346514D02*
X171136133Y-64251276D01*
X171136133Y-64251276D02*
X171231371Y-64156038D01*
X171231371Y-64156038D02*
X171374228Y-64108419D01*
X171374228Y-64108419D02*
X171469466Y-64108419D01*
X171469466Y-64108419D02*
X171612323Y-64156038D01*
X171612323Y-64156038D02*
X171659942Y-64203657D01*
X171993276Y-64108419D02*
X172612323Y-64108419D01*
X172612323Y-64108419D02*
X172278990Y-64489371D01*
X172278990Y-64489371D02*
X172421847Y-64489371D01*
X172421847Y-64489371D02*
X172517085Y-64536990D01*
X172517085Y-64536990D02*
X172564704Y-64584609D01*
X172564704Y-64584609D02*
X172612323Y-64679847D01*
X172612323Y-64679847D02*
X172612323Y-64917942D01*
X172612323Y-64917942D02*
X172564704Y-65013180D01*
X172564704Y-65013180D02*
X172517085Y-65060800D01*
X172517085Y-65060800D02*
X172421847Y-65108419D01*
X172421847Y-65108419D02*
X172136133Y-65108419D01*
X172136133Y-65108419D02*
X172040895Y-65060800D01*
X172040895Y-65060800D02*
X171993276Y-65013180D01*
X172945657Y-64108419D02*
X173612323Y-64108419D01*
X173612323Y-64108419D02*
X173183752Y-65108419D01*
X171659942Y-59013180D02*
X171612323Y-59060800D01*
X171612323Y-59060800D02*
X171469466Y-59108419D01*
X171469466Y-59108419D02*
X171374228Y-59108419D01*
X171374228Y-59108419D02*
X171231371Y-59060800D01*
X171231371Y-59060800D02*
X171136133Y-58965561D01*
X171136133Y-58965561D02*
X171088514Y-58870323D01*
X171088514Y-58870323D02*
X171040895Y-58679847D01*
X171040895Y-58679847D02*
X171040895Y-58536990D01*
X171040895Y-58536990D02*
X171088514Y-58346514D01*
X171088514Y-58346514D02*
X171136133Y-58251276D01*
X171136133Y-58251276D02*
X171231371Y-58156038D01*
X171231371Y-58156038D02*
X171374228Y-58108419D01*
X171374228Y-58108419D02*
X171469466Y-58108419D01*
X171469466Y-58108419D02*
X171612323Y-58156038D01*
X171612323Y-58156038D02*
X171659942Y-58203657D01*
X171993276Y-58108419D02*
X172612323Y-58108419D01*
X172612323Y-58108419D02*
X172278990Y-58489371D01*
X172278990Y-58489371D02*
X172421847Y-58489371D01*
X172421847Y-58489371D02*
X172517085Y-58536990D01*
X172517085Y-58536990D02*
X172564704Y-58584609D01*
X172564704Y-58584609D02*
X172612323Y-58679847D01*
X172612323Y-58679847D02*
X172612323Y-58917942D01*
X172612323Y-58917942D02*
X172564704Y-59013180D01*
X172564704Y-59013180D02*
X172517085Y-59060800D01*
X172517085Y-59060800D02*
X172421847Y-59108419D01*
X172421847Y-59108419D02*
X172136133Y-59108419D01*
X172136133Y-59108419D02*
X172040895Y-59060800D01*
X172040895Y-59060800D02*
X171993276Y-59013180D01*
X173469466Y-58108419D02*
X173278990Y-58108419D01*
X173278990Y-58108419D02*
X173183752Y-58156038D01*
X173183752Y-58156038D02*
X173136133Y-58203657D01*
X173136133Y-58203657D02*
X173040895Y-58346514D01*
X173040895Y-58346514D02*
X172993276Y-58536990D01*
X172993276Y-58536990D02*
X172993276Y-58917942D01*
X172993276Y-58917942D02*
X173040895Y-59013180D01*
X173040895Y-59013180D02*
X173088514Y-59060800D01*
X173088514Y-59060800D02*
X173183752Y-59108419D01*
X173183752Y-59108419D02*
X173374228Y-59108419D01*
X173374228Y-59108419D02*
X173469466Y-59060800D01*
X173469466Y-59060800D02*
X173517085Y-59013180D01*
X173517085Y-59013180D02*
X173564704Y-58917942D01*
X173564704Y-58917942D02*
X173564704Y-58679847D01*
X173564704Y-58679847D02*
X173517085Y-58584609D01*
X173517085Y-58584609D02*
X173469466Y-58536990D01*
X173469466Y-58536990D02*
X173374228Y-58489371D01*
X173374228Y-58489371D02*
X173183752Y-58489371D01*
X173183752Y-58489371D02*
X173088514Y-58536990D01*
X173088514Y-58536990D02*
X173040895Y-58584609D01*
X173040895Y-58584609D02*
X172993276Y-58679847D01*
X161804742Y-65013180D02*
X161757123Y-65060800D01*
X161757123Y-65060800D02*
X161614266Y-65108419D01*
X161614266Y-65108419D02*
X161519028Y-65108419D01*
X161519028Y-65108419D02*
X161376171Y-65060800D01*
X161376171Y-65060800D02*
X161280933Y-64965561D01*
X161280933Y-64965561D02*
X161233314Y-64870323D01*
X161233314Y-64870323D02*
X161185695Y-64679847D01*
X161185695Y-64679847D02*
X161185695Y-64536990D01*
X161185695Y-64536990D02*
X161233314Y-64346514D01*
X161233314Y-64346514D02*
X161280933Y-64251276D01*
X161280933Y-64251276D02*
X161376171Y-64156038D01*
X161376171Y-64156038D02*
X161519028Y-64108419D01*
X161519028Y-64108419D02*
X161614266Y-64108419D01*
X161614266Y-64108419D02*
X161757123Y-64156038D01*
X161757123Y-64156038D02*
X161804742Y-64203657D01*
X162757123Y-65108419D02*
X162185695Y-65108419D01*
X162471409Y-65108419D02*
X162471409Y-64108419D01*
X162471409Y-64108419D02*
X162376171Y-64251276D01*
X162376171Y-64251276D02*
X162280933Y-64346514D01*
X162280933Y-64346514D02*
X162185695Y-64394133D01*
X163090457Y-64108419D02*
X163709504Y-64108419D01*
X163709504Y-64108419D02*
X163376171Y-64489371D01*
X163376171Y-64489371D02*
X163519028Y-64489371D01*
X163519028Y-64489371D02*
X163614266Y-64536990D01*
X163614266Y-64536990D02*
X163661885Y-64584609D01*
X163661885Y-64584609D02*
X163709504Y-64679847D01*
X163709504Y-64679847D02*
X163709504Y-64917942D01*
X163709504Y-64917942D02*
X163661885Y-65013180D01*
X163661885Y-65013180D02*
X163614266Y-65060800D01*
X163614266Y-65060800D02*
X163519028Y-65108419D01*
X163519028Y-65108419D02*
X163233314Y-65108419D01*
X163233314Y-65108419D02*
X163138076Y-65060800D01*
X163138076Y-65060800D02*
X163090457Y-65013180D01*
X161804742Y-59013180D02*
X161757123Y-59060800D01*
X161757123Y-59060800D02*
X161614266Y-59108419D01*
X161614266Y-59108419D02*
X161519028Y-59108419D01*
X161519028Y-59108419D02*
X161376171Y-59060800D01*
X161376171Y-59060800D02*
X161280933Y-58965561D01*
X161280933Y-58965561D02*
X161233314Y-58870323D01*
X161233314Y-58870323D02*
X161185695Y-58679847D01*
X161185695Y-58679847D02*
X161185695Y-58536990D01*
X161185695Y-58536990D02*
X161233314Y-58346514D01*
X161233314Y-58346514D02*
X161280933Y-58251276D01*
X161280933Y-58251276D02*
X161376171Y-58156038D01*
X161376171Y-58156038D02*
X161519028Y-58108419D01*
X161519028Y-58108419D02*
X161614266Y-58108419D01*
X161614266Y-58108419D02*
X161757123Y-58156038D01*
X161757123Y-58156038D02*
X161804742Y-58203657D01*
X162757123Y-59108419D02*
X162185695Y-59108419D01*
X162471409Y-59108419D02*
X162471409Y-58108419D01*
X162471409Y-58108419D02*
X162376171Y-58251276D01*
X162376171Y-58251276D02*
X162280933Y-58346514D01*
X162280933Y-58346514D02*
X162185695Y-58394133D01*
X163138076Y-58203657D02*
X163185695Y-58156038D01*
X163185695Y-58156038D02*
X163280933Y-58108419D01*
X163280933Y-58108419D02*
X163519028Y-58108419D01*
X163519028Y-58108419D02*
X163614266Y-58156038D01*
X163614266Y-58156038D02*
X163661885Y-58203657D01*
X163661885Y-58203657D02*
X163709504Y-58298895D01*
X163709504Y-58298895D02*
X163709504Y-58394133D01*
X163709504Y-58394133D02*
X163661885Y-58536990D01*
X163661885Y-58536990D02*
X163090457Y-59108419D01*
X163090457Y-59108419D02*
X163709504Y-59108419D01*
X151615542Y-64866380D02*
X151567923Y-64914000D01*
X151567923Y-64914000D02*
X151425066Y-64961619D01*
X151425066Y-64961619D02*
X151329828Y-64961619D01*
X151329828Y-64961619D02*
X151186971Y-64914000D01*
X151186971Y-64914000D02*
X151091733Y-64818761D01*
X151091733Y-64818761D02*
X151044114Y-64723523D01*
X151044114Y-64723523D02*
X150996495Y-64533047D01*
X150996495Y-64533047D02*
X150996495Y-64390190D01*
X150996495Y-64390190D02*
X151044114Y-64199714D01*
X151044114Y-64199714D02*
X151091733Y-64104476D01*
X151091733Y-64104476D02*
X151186971Y-64009238D01*
X151186971Y-64009238D02*
X151329828Y-63961619D01*
X151329828Y-63961619D02*
X151425066Y-63961619D01*
X151425066Y-63961619D02*
X151567923Y-64009238D01*
X151567923Y-64009238D02*
X151615542Y-64056857D01*
X152567923Y-64961619D02*
X151996495Y-64961619D01*
X152282209Y-64961619D02*
X152282209Y-63961619D01*
X152282209Y-63961619D02*
X152186971Y-64104476D01*
X152186971Y-64104476D02*
X152091733Y-64199714D01*
X152091733Y-64199714D02*
X151996495Y-64247333D01*
X153520304Y-64961619D02*
X152948876Y-64961619D01*
X153234590Y-64961619D02*
X153234590Y-63961619D01*
X153234590Y-63961619D02*
X153139352Y-64104476D01*
X153139352Y-64104476D02*
X153044114Y-64199714D01*
X153044114Y-64199714D02*
X152948876Y-64247333D01*
X151615542Y-58866380D02*
X151567923Y-58914000D01*
X151567923Y-58914000D02*
X151425066Y-58961619D01*
X151425066Y-58961619D02*
X151329828Y-58961619D01*
X151329828Y-58961619D02*
X151186971Y-58914000D01*
X151186971Y-58914000D02*
X151091733Y-58818761D01*
X151091733Y-58818761D02*
X151044114Y-58723523D01*
X151044114Y-58723523D02*
X150996495Y-58533047D01*
X150996495Y-58533047D02*
X150996495Y-58390190D01*
X150996495Y-58390190D02*
X151044114Y-58199714D01*
X151044114Y-58199714D02*
X151091733Y-58104476D01*
X151091733Y-58104476D02*
X151186971Y-58009238D01*
X151186971Y-58009238D02*
X151329828Y-57961619D01*
X151329828Y-57961619D02*
X151425066Y-57961619D01*
X151425066Y-57961619D02*
X151567923Y-58009238D01*
X151567923Y-58009238D02*
X151615542Y-58056857D01*
X152567923Y-58961619D02*
X151996495Y-58961619D01*
X152282209Y-58961619D02*
X152282209Y-57961619D01*
X152282209Y-57961619D02*
X152186971Y-58104476D01*
X152186971Y-58104476D02*
X152091733Y-58199714D01*
X152091733Y-58199714D02*
X151996495Y-58247333D01*
X153186971Y-57961619D02*
X153282209Y-57961619D01*
X153282209Y-57961619D02*
X153377447Y-58009238D01*
X153377447Y-58009238D02*
X153425066Y-58056857D01*
X153425066Y-58056857D02*
X153472685Y-58152095D01*
X153472685Y-58152095D02*
X153520304Y-58342571D01*
X153520304Y-58342571D02*
X153520304Y-58580666D01*
X153520304Y-58580666D02*
X153472685Y-58771142D01*
X153472685Y-58771142D02*
X153425066Y-58866380D01*
X153425066Y-58866380D02*
X153377447Y-58914000D01*
X153377447Y-58914000D02*
X153282209Y-58961619D01*
X153282209Y-58961619D02*
X153186971Y-58961619D01*
X153186971Y-58961619D02*
X153091733Y-58914000D01*
X153091733Y-58914000D02*
X153044114Y-58866380D01*
X153044114Y-58866380D02*
X152996495Y-58771142D01*
X152996495Y-58771142D02*
X152948876Y-58580666D01*
X152948876Y-58580666D02*
X152948876Y-58342571D01*
X152948876Y-58342571D02*
X152996495Y-58152095D01*
X152996495Y-58152095D02*
X153044114Y-58056857D01*
X153044114Y-58056857D02*
X153091733Y-58009238D01*
X153091733Y-58009238D02*
X153186971Y-57961619D01*
X142011733Y-64759180D02*
X141964114Y-64806800D01*
X141964114Y-64806800D02*
X141821257Y-64854419D01*
X141821257Y-64854419D02*
X141726019Y-64854419D01*
X141726019Y-64854419D02*
X141583162Y-64806800D01*
X141583162Y-64806800D02*
X141487924Y-64711561D01*
X141487924Y-64711561D02*
X141440305Y-64616323D01*
X141440305Y-64616323D02*
X141392686Y-64425847D01*
X141392686Y-64425847D02*
X141392686Y-64282990D01*
X141392686Y-64282990D02*
X141440305Y-64092514D01*
X141440305Y-64092514D02*
X141487924Y-63997276D01*
X141487924Y-63997276D02*
X141583162Y-63902038D01*
X141583162Y-63902038D02*
X141726019Y-63854419D01*
X141726019Y-63854419D02*
X141821257Y-63854419D01*
X141821257Y-63854419D02*
X141964114Y-63902038D01*
X141964114Y-63902038D02*
X142011733Y-63949657D01*
X142487924Y-64854419D02*
X142678400Y-64854419D01*
X142678400Y-64854419D02*
X142773638Y-64806800D01*
X142773638Y-64806800D02*
X142821257Y-64759180D01*
X142821257Y-64759180D02*
X142916495Y-64616323D01*
X142916495Y-64616323D02*
X142964114Y-64425847D01*
X142964114Y-64425847D02*
X142964114Y-64044895D01*
X142964114Y-64044895D02*
X142916495Y-63949657D01*
X142916495Y-63949657D02*
X142868876Y-63902038D01*
X142868876Y-63902038D02*
X142773638Y-63854419D01*
X142773638Y-63854419D02*
X142583162Y-63854419D01*
X142583162Y-63854419D02*
X142487924Y-63902038D01*
X142487924Y-63902038D02*
X142440305Y-63949657D01*
X142440305Y-63949657D02*
X142392686Y-64044895D01*
X142392686Y-64044895D02*
X142392686Y-64282990D01*
X142392686Y-64282990D02*
X142440305Y-64378228D01*
X142440305Y-64378228D02*
X142487924Y-64425847D01*
X142487924Y-64425847D02*
X142583162Y-64473466D01*
X142583162Y-64473466D02*
X142773638Y-64473466D01*
X142773638Y-64473466D02*
X142868876Y-64425847D01*
X142868876Y-64425847D02*
X142916495Y-64378228D01*
X142916495Y-64378228D02*
X142964114Y-64282990D01*
X142011733Y-58759180D02*
X141964114Y-58806800D01*
X141964114Y-58806800D02*
X141821257Y-58854419D01*
X141821257Y-58854419D02*
X141726019Y-58854419D01*
X141726019Y-58854419D02*
X141583162Y-58806800D01*
X141583162Y-58806800D02*
X141487924Y-58711561D01*
X141487924Y-58711561D02*
X141440305Y-58616323D01*
X141440305Y-58616323D02*
X141392686Y-58425847D01*
X141392686Y-58425847D02*
X141392686Y-58282990D01*
X141392686Y-58282990D02*
X141440305Y-58092514D01*
X141440305Y-58092514D02*
X141487924Y-57997276D01*
X141487924Y-57997276D02*
X141583162Y-57902038D01*
X141583162Y-57902038D02*
X141726019Y-57854419D01*
X141726019Y-57854419D02*
X141821257Y-57854419D01*
X141821257Y-57854419D02*
X141964114Y-57902038D01*
X141964114Y-57902038D02*
X142011733Y-57949657D01*
X142583162Y-58282990D02*
X142487924Y-58235371D01*
X142487924Y-58235371D02*
X142440305Y-58187752D01*
X142440305Y-58187752D02*
X142392686Y-58092514D01*
X142392686Y-58092514D02*
X142392686Y-58044895D01*
X142392686Y-58044895D02*
X142440305Y-57949657D01*
X142440305Y-57949657D02*
X142487924Y-57902038D01*
X142487924Y-57902038D02*
X142583162Y-57854419D01*
X142583162Y-57854419D02*
X142773638Y-57854419D01*
X142773638Y-57854419D02*
X142868876Y-57902038D01*
X142868876Y-57902038D02*
X142916495Y-57949657D01*
X142916495Y-57949657D02*
X142964114Y-58044895D01*
X142964114Y-58044895D02*
X142964114Y-58092514D01*
X142964114Y-58092514D02*
X142916495Y-58187752D01*
X142916495Y-58187752D02*
X142868876Y-58235371D01*
X142868876Y-58235371D02*
X142773638Y-58282990D01*
X142773638Y-58282990D02*
X142583162Y-58282990D01*
X142583162Y-58282990D02*
X142487924Y-58330609D01*
X142487924Y-58330609D02*
X142440305Y-58378228D01*
X142440305Y-58378228D02*
X142392686Y-58473466D01*
X142392686Y-58473466D02*
X142392686Y-58663942D01*
X142392686Y-58663942D02*
X142440305Y-58759180D01*
X142440305Y-58759180D02*
X142487924Y-58806800D01*
X142487924Y-58806800D02*
X142583162Y-58854419D01*
X142583162Y-58854419D02*
X142773638Y-58854419D01*
X142773638Y-58854419D02*
X142868876Y-58806800D01*
X142868876Y-58806800D02*
X142916495Y-58759180D01*
X142916495Y-58759180D02*
X142964114Y-58663942D01*
X142964114Y-58663942D02*
X142964114Y-58473466D01*
X142964114Y-58473466D02*
X142916495Y-58378228D01*
X142916495Y-58378228D02*
X142868876Y-58330609D01*
X142868876Y-58330609D02*
X142773638Y-58282990D01*
X88224586Y-58971266D02*
X88272206Y-59018885D01*
X88272206Y-59018885D02*
X88319825Y-59161742D01*
X88319825Y-59161742D02*
X88319825Y-59256980D01*
X88319825Y-59256980D02*
X88272206Y-59399837D01*
X88272206Y-59399837D02*
X88176967Y-59495075D01*
X88176967Y-59495075D02*
X88081729Y-59542694D01*
X88081729Y-59542694D02*
X87891253Y-59590313D01*
X87891253Y-59590313D02*
X87748396Y-59590313D01*
X87748396Y-59590313D02*
X87557920Y-59542694D01*
X87557920Y-59542694D02*
X87462682Y-59495075D01*
X87462682Y-59495075D02*
X87367444Y-59399837D01*
X87367444Y-59399837D02*
X87319825Y-59256980D01*
X87319825Y-59256980D02*
X87319825Y-59161742D01*
X87319825Y-59161742D02*
X87367444Y-59018885D01*
X87367444Y-59018885D02*
X87415063Y-58971266D01*
X87319825Y-58637932D02*
X87319825Y-58018885D01*
X87319825Y-58018885D02*
X87700777Y-58352218D01*
X87700777Y-58352218D02*
X87700777Y-58209361D01*
X87700777Y-58209361D02*
X87748396Y-58114123D01*
X87748396Y-58114123D02*
X87796015Y-58066504D01*
X87796015Y-58066504D02*
X87891253Y-58018885D01*
X87891253Y-58018885D02*
X88129348Y-58018885D01*
X88129348Y-58018885D02*
X88224586Y-58066504D01*
X88224586Y-58066504D02*
X88272206Y-58114123D01*
X88272206Y-58114123D02*
X88319825Y-58209361D01*
X88319825Y-58209361D02*
X88319825Y-58495075D01*
X88319825Y-58495075D02*
X88272206Y-58590313D01*
X88272206Y-58590313D02*
X88224586Y-58637932D01*
X123316476Y-134188019D02*
X123316476Y-134902304D01*
X123316476Y-134902304D02*
X123268857Y-135045161D01*
X123268857Y-135045161D02*
X123173619Y-135140400D01*
X123173619Y-135140400D02*
X123030762Y-135188019D01*
X123030762Y-135188019D02*
X122935524Y-135188019D01*
X123745048Y-134283257D02*
X123792667Y-134235638D01*
X123792667Y-134235638D02*
X123887905Y-134188019D01*
X123887905Y-134188019D02*
X124126000Y-134188019D01*
X124126000Y-134188019D02*
X124221238Y-134235638D01*
X124221238Y-134235638D02*
X124268857Y-134283257D01*
X124268857Y-134283257D02*
X124316476Y-134378495D01*
X124316476Y-134378495D02*
X124316476Y-134473733D01*
X124316476Y-134473733D02*
X124268857Y-134616590D01*
X124268857Y-134616590D02*
X123697429Y-135188019D01*
X123697429Y-135188019D02*
X124316476Y-135188019D01*
X124935524Y-134188019D02*
X125030762Y-134188019D01*
X125030762Y-134188019D02*
X125126000Y-134235638D01*
X125126000Y-134235638D02*
X125173619Y-134283257D01*
X125173619Y-134283257D02*
X125221238Y-134378495D01*
X125221238Y-134378495D02*
X125268857Y-134568971D01*
X125268857Y-134568971D02*
X125268857Y-134807066D01*
X125268857Y-134807066D02*
X125221238Y-134997542D01*
X125221238Y-134997542D02*
X125173619Y-135092780D01*
X125173619Y-135092780D02*
X125126000Y-135140400D01*
X125126000Y-135140400D02*
X125030762Y-135188019D01*
X125030762Y-135188019D02*
X124935524Y-135188019D01*
X124935524Y-135188019D02*
X124840286Y-135140400D01*
X124840286Y-135140400D02*
X124792667Y-135092780D01*
X124792667Y-135092780D02*
X124745048Y-134997542D01*
X124745048Y-134997542D02*
X124697429Y-134807066D01*
X124697429Y-134807066D02*
X124697429Y-134568971D01*
X124697429Y-134568971D02*
X124745048Y-134378495D01*
X124745048Y-134378495D02*
X124792667Y-134283257D01*
X124792667Y-134283257D02*
X124840286Y-134235638D01*
X124840286Y-134235638D02*
X124935524Y-134188019D01*
X114052586Y-45884057D02*
X114100206Y-45931676D01*
X114100206Y-45931676D02*
X114147825Y-46074533D01*
X114147825Y-46074533D02*
X114147825Y-46169771D01*
X114147825Y-46169771D02*
X114100206Y-46312628D01*
X114100206Y-46312628D02*
X114004967Y-46407866D01*
X114004967Y-46407866D02*
X113909729Y-46455485D01*
X113909729Y-46455485D02*
X113719253Y-46503104D01*
X113719253Y-46503104D02*
X113576396Y-46503104D01*
X113576396Y-46503104D02*
X113385920Y-46455485D01*
X113385920Y-46455485D02*
X113290682Y-46407866D01*
X113290682Y-46407866D02*
X113195444Y-46312628D01*
X113195444Y-46312628D02*
X113147825Y-46169771D01*
X113147825Y-46169771D02*
X113147825Y-46074533D01*
X113147825Y-46074533D02*
X113195444Y-45931676D01*
X113195444Y-45931676D02*
X113243063Y-45884057D01*
X113243063Y-45503104D02*
X113195444Y-45455485D01*
X113195444Y-45455485D02*
X113147825Y-45360247D01*
X113147825Y-45360247D02*
X113147825Y-45122152D01*
X113147825Y-45122152D02*
X113195444Y-45026914D01*
X113195444Y-45026914D02*
X113243063Y-44979295D01*
X113243063Y-44979295D02*
X113338301Y-44931676D01*
X113338301Y-44931676D02*
X113433539Y-44931676D01*
X113433539Y-44931676D02*
X113576396Y-44979295D01*
X113576396Y-44979295D02*
X114147825Y-45550723D01*
X114147825Y-45550723D02*
X114147825Y-44931676D01*
X113147825Y-44312628D02*
X113147825Y-44217390D01*
X113147825Y-44217390D02*
X113195444Y-44122152D01*
X113195444Y-44122152D02*
X113243063Y-44074533D01*
X113243063Y-44074533D02*
X113338301Y-44026914D01*
X113338301Y-44026914D02*
X113528777Y-43979295D01*
X113528777Y-43979295D02*
X113766872Y-43979295D01*
X113766872Y-43979295D02*
X113957348Y-44026914D01*
X113957348Y-44026914D02*
X114052586Y-44074533D01*
X114052586Y-44074533D02*
X114100206Y-44122152D01*
X114100206Y-44122152D02*
X114147825Y-44217390D01*
X114147825Y-44217390D02*
X114147825Y-44312628D01*
X114147825Y-44312628D02*
X114100206Y-44407866D01*
X114100206Y-44407866D02*
X114052586Y-44455485D01*
X114052586Y-44455485D02*
X113957348Y-44503104D01*
X113957348Y-44503104D02*
X113766872Y-44550723D01*
X113766872Y-44550723D02*
X113528777Y-44550723D01*
X113528777Y-44550723D02*
X113338301Y-44503104D01*
X113338301Y-44503104D02*
X113243063Y-44455485D01*
X113243063Y-44455485D02*
X113195444Y-44407866D01*
X113195444Y-44407866D02*
X113147825Y-44312628D01*
X89796619Y-90103133D02*
X90510904Y-90103133D01*
X90510904Y-90103133D02*
X90653761Y-90150752D01*
X90653761Y-90150752D02*
X90749000Y-90245990D01*
X90749000Y-90245990D02*
X90796619Y-90388847D01*
X90796619Y-90388847D02*
X90796619Y-90484085D01*
X90225190Y-89484085D02*
X90177571Y-89579323D01*
X90177571Y-89579323D02*
X90129952Y-89626942D01*
X90129952Y-89626942D02*
X90034714Y-89674561D01*
X90034714Y-89674561D02*
X89987095Y-89674561D01*
X89987095Y-89674561D02*
X89891857Y-89626942D01*
X89891857Y-89626942D02*
X89844238Y-89579323D01*
X89844238Y-89579323D02*
X89796619Y-89484085D01*
X89796619Y-89484085D02*
X89796619Y-89293609D01*
X89796619Y-89293609D02*
X89844238Y-89198371D01*
X89844238Y-89198371D02*
X89891857Y-89150752D01*
X89891857Y-89150752D02*
X89987095Y-89103133D01*
X89987095Y-89103133D02*
X90034714Y-89103133D01*
X90034714Y-89103133D02*
X90129952Y-89150752D01*
X90129952Y-89150752D02*
X90177571Y-89198371D01*
X90177571Y-89198371D02*
X90225190Y-89293609D01*
X90225190Y-89293609D02*
X90225190Y-89484085D01*
X90225190Y-89484085D02*
X90272809Y-89579323D01*
X90272809Y-89579323D02*
X90320428Y-89626942D01*
X90320428Y-89626942D02*
X90415666Y-89674561D01*
X90415666Y-89674561D02*
X90606142Y-89674561D01*
X90606142Y-89674561D02*
X90701380Y-89626942D01*
X90701380Y-89626942D02*
X90749000Y-89579323D01*
X90749000Y-89579323D02*
X90796619Y-89484085D01*
X90796619Y-89484085D02*
X90796619Y-89293609D01*
X90796619Y-89293609D02*
X90749000Y-89198371D01*
X90749000Y-89198371D02*
X90701380Y-89150752D01*
X90701380Y-89150752D02*
X90606142Y-89103133D01*
X90606142Y-89103133D02*
X90415666Y-89103133D01*
X90415666Y-89103133D02*
X90320428Y-89150752D01*
X90320428Y-89150752D02*
X90272809Y-89198371D01*
X90272809Y-89198371D02*
X90225190Y-89293609D01*
X155277580Y-118752857D02*
X155325200Y-118800476D01*
X155325200Y-118800476D02*
X155372819Y-118943333D01*
X155372819Y-118943333D02*
X155372819Y-119038571D01*
X155372819Y-119038571D02*
X155325200Y-119181428D01*
X155325200Y-119181428D02*
X155229961Y-119276666D01*
X155229961Y-119276666D02*
X155134723Y-119324285D01*
X155134723Y-119324285D02*
X154944247Y-119371904D01*
X154944247Y-119371904D02*
X154801390Y-119371904D01*
X154801390Y-119371904D02*
X154610914Y-119324285D01*
X154610914Y-119324285D02*
X154515676Y-119276666D01*
X154515676Y-119276666D02*
X154420438Y-119181428D01*
X154420438Y-119181428D02*
X154372819Y-119038571D01*
X154372819Y-119038571D02*
X154372819Y-118943333D01*
X154372819Y-118943333D02*
X154420438Y-118800476D01*
X154420438Y-118800476D02*
X154468057Y-118752857D01*
X154468057Y-118371904D02*
X154420438Y-118324285D01*
X154420438Y-118324285D02*
X154372819Y-118229047D01*
X154372819Y-118229047D02*
X154372819Y-117990952D01*
X154372819Y-117990952D02*
X154420438Y-117895714D01*
X154420438Y-117895714D02*
X154468057Y-117848095D01*
X154468057Y-117848095D02*
X154563295Y-117800476D01*
X154563295Y-117800476D02*
X154658533Y-117800476D01*
X154658533Y-117800476D02*
X154801390Y-117848095D01*
X154801390Y-117848095D02*
X155372819Y-118419523D01*
X155372819Y-118419523D02*
X155372819Y-117800476D01*
X154801390Y-117229047D02*
X154753771Y-117324285D01*
X154753771Y-117324285D02*
X154706152Y-117371904D01*
X154706152Y-117371904D02*
X154610914Y-117419523D01*
X154610914Y-117419523D02*
X154563295Y-117419523D01*
X154563295Y-117419523D02*
X154468057Y-117371904D01*
X154468057Y-117371904D02*
X154420438Y-117324285D01*
X154420438Y-117324285D02*
X154372819Y-117229047D01*
X154372819Y-117229047D02*
X154372819Y-117038571D01*
X154372819Y-117038571D02*
X154420438Y-116943333D01*
X154420438Y-116943333D02*
X154468057Y-116895714D01*
X154468057Y-116895714D02*
X154563295Y-116848095D01*
X154563295Y-116848095D02*
X154610914Y-116848095D01*
X154610914Y-116848095D02*
X154706152Y-116895714D01*
X154706152Y-116895714D02*
X154753771Y-116943333D01*
X154753771Y-116943333D02*
X154801390Y-117038571D01*
X154801390Y-117038571D02*
X154801390Y-117229047D01*
X154801390Y-117229047D02*
X154849009Y-117324285D01*
X154849009Y-117324285D02*
X154896628Y-117371904D01*
X154896628Y-117371904D02*
X154991866Y-117419523D01*
X154991866Y-117419523D02*
X155182342Y-117419523D01*
X155182342Y-117419523D02*
X155277580Y-117371904D01*
X155277580Y-117371904D02*
X155325200Y-117324285D01*
X155325200Y-117324285D02*
X155372819Y-117229047D01*
X155372819Y-117229047D02*
X155372819Y-117038571D01*
X155372819Y-117038571D02*
X155325200Y-116943333D01*
X155325200Y-116943333D02*
X155277580Y-116895714D01*
X155277580Y-116895714D02*
X155182342Y-116848095D01*
X155182342Y-116848095D02*
X154991866Y-116848095D01*
X154991866Y-116848095D02*
X154896628Y-116895714D01*
X154896628Y-116895714D02*
X154849009Y-116943333D01*
X154849009Y-116943333D02*
X154801390Y-117038571D01*
X148792586Y-118742057D02*
X148840206Y-118789676D01*
X148840206Y-118789676D02*
X148887825Y-118932533D01*
X148887825Y-118932533D02*
X148887825Y-119027771D01*
X148887825Y-119027771D02*
X148840206Y-119170628D01*
X148840206Y-119170628D02*
X148744967Y-119265866D01*
X148744967Y-119265866D02*
X148649729Y-119313485D01*
X148649729Y-119313485D02*
X148459253Y-119361104D01*
X148459253Y-119361104D02*
X148316396Y-119361104D01*
X148316396Y-119361104D02*
X148125920Y-119313485D01*
X148125920Y-119313485D02*
X148030682Y-119265866D01*
X148030682Y-119265866D02*
X147935444Y-119170628D01*
X147935444Y-119170628D02*
X147887825Y-119027771D01*
X147887825Y-119027771D02*
X147887825Y-118932533D01*
X147887825Y-118932533D02*
X147935444Y-118789676D01*
X147935444Y-118789676D02*
X147983063Y-118742057D01*
X147887825Y-118408723D02*
X147887825Y-117789676D01*
X147887825Y-117789676D02*
X148268777Y-118123009D01*
X148268777Y-118123009D02*
X148268777Y-117980152D01*
X148268777Y-117980152D02*
X148316396Y-117884914D01*
X148316396Y-117884914D02*
X148364015Y-117837295D01*
X148364015Y-117837295D02*
X148459253Y-117789676D01*
X148459253Y-117789676D02*
X148697348Y-117789676D01*
X148697348Y-117789676D02*
X148792586Y-117837295D01*
X148792586Y-117837295D02*
X148840206Y-117884914D01*
X148840206Y-117884914D02*
X148887825Y-117980152D01*
X148887825Y-117980152D02*
X148887825Y-118265866D01*
X148887825Y-118265866D02*
X148840206Y-118361104D01*
X148840206Y-118361104D02*
X148792586Y-118408723D01*
X147887825Y-117456342D02*
X147887825Y-116837295D01*
X147887825Y-116837295D02*
X148268777Y-117170628D01*
X148268777Y-117170628D02*
X148268777Y-117027771D01*
X148268777Y-117027771D02*
X148316396Y-116932533D01*
X148316396Y-116932533D02*
X148364015Y-116884914D01*
X148364015Y-116884914D02*
X148459253Y-116837295D01*
X148459253Y-116837295D02*
X148697348Y-116837295D01*
X148697348Y-116837295D02*
X148792586Y-116884914D01*
X148792586Y-116884914D02*
X148840206Y-116932533D01*
X148840206Y-116932533D02*
X148887825Y-117027771D01*
X148887825Y-117027771D02*
X148887825Y-117313485D01*
X148887825Y-117313485D02*
X148840206Y-117408723D01*
X148840206Y-117408723D02*
X148792586Y-117456342D01*
X44063025Y-50034723D02*
X44777310Y-50034723D01*
X44777310Y-50034723D02*
X44920167Y-50082342D01*
X44920167Y-50082342D02*
X45015406Y-50177580D01*
X45015406Y-50177580D02*
X45063025Y-50320437D01*
X45063025Y-50320437D02*
X45063025Y-50415675D01*
X45063025Y-49034723D02*
X45063025Y-49606151D01*
X45063025Y-49320437D02*
X44063025Y-49320437D01*
X44063025Y-49320437D02*
X44205882Y-49415675D01*
X44205882Y-49415675D02*
X44301120Y-49510913D01*
X44301120Y-49510913D02*
X44348739Y-49606151D01*
X45063025Y-48082342D02*
X45063025Y-48653770D01*
X45063025Y-48368056D02*
X44063025Y-48368056D01*
X44063025Y-48368056D02*
X44205882Y-48463294D01*
X44205882Y-48463294D02*
X44301120Y-48558532D01*
X44301120Y-48558532D02*
X44348739Y-48653770D01*
X72476586Y-45244466D02*
X72524206Y-45292085D01*
X72524206Y-45292085D02*
X72571825Y-45434942D01*
X72571825Y-45434942D02*
X72571825Y-45530180D01*
X72571825Y-45530180D02*
X72524206Y-45673037D01*
X72524206Y-45673037D02*
X72428967Y-45768275D01*
X72428967Y-45768275D02*
X72333729Y-45815894D01*
X72333729Y-45815894D02*
X72143253Y-45863513D01*
X72143253Y-45863513D02*
X72000396Y-45863513D01*
X72000396Y-45863513D02*
X71809920Y-45815894D01*
X71809920Y-45815894D02*
X71714682Y-45768275D01*
X71714682Y-45768275D02*
X71619444Y-45673037D01*
X71619444Y-45673037D02*
X71571825Y-45530180D01*
X71571825Y-45530180D02*
X71571825Y-45434942D01*
X71571825Y-45434942D02*
X71619444Y-45292085D01*
X71619444Y-45292085D02*
X71667063Y-45244466D01*
X72571825Y-44292085D02*
X72571825Y-44863513D01*
X72571825Y-44577799D02*
X71571825Y-44577799D01*
X71571825Y-44577799D02*
X71714682Y-44673037D01*
X71714682Y-44673037D02*
X71809920Y-44768275D01*
X71809920Y-44768275D02*
X71857539Y-44863513D01*
X155396586Y-95628057D02*
X155444206Y-95675676D01*
X155444206Y-95675676D02*
X155491825Y-95818533D01*
X155491825Y-95818533D02*
X155491825Y-95913771D01*
X155491825Y-95913771D02*
X155444206Y-96056628D01*
X155444206Y-96056628D02*
X155348967Y-96151866D01*
X155348967Y-96151866D02*
X155253729Y-96199485D01*
X155253729Y-96199485D02*
X155063253Y-96247104D01*
X155063253Y-96247104D02*
X154920396Y-96247104D01*
X154920396Y-96247104D02*
X154729920Y-96199485D01*
X154729920Y-96199485D02*
X154634682Y-96151866D01*
X154634682Y-96151866D02*
X154539444Y-96056628D01*
X154539444Y-96056628D02*
X154491825Y-95913771D01*
X154491825Y-95913771D02*
X154491825Y-95818533D01*
X154491825Y-95818533D02*
X154539444Y-95675676D01*
X154539444Y-95675676D02*
X154587063Y-95628057D01*
X154587063Y-95247104D02*
X154539444Y-95199485D01*
X154539444Y-95199485D02*
X154491825Y-95104247D01*
X154491825Y-95104247D02*
X154491825Y-94866152D01*
X154491825Y-94866152D02*
X154539444Y-94770914D01*
X154539444Y-94770914D02*
X154587063Y-94723295D01*
X154587063Y-94723295D02*
X154682301Y-94675676D01*
X154682301Y-94675676D02*
X154777539Y-94675676D01*
X154777539Y-94675676D02*
X154920396Y-94723295D01*
X154920396Y-94723295D02*
X155491825Y-95294723D01*
X155491825Y-95294723D02*
X155491825Y-94675676D01*
X154491825Y-94342342D02*
X154491825Y-93675676D01*
X154491825Y-93675676D02*
X155491825Y-94104247D01*
X108186266Y-121617219D02*
X108186266Y-122331504D01*
X108186266Y-122331504D02*
X108138647Y-122474361D01*
X108138647Y-122474361D02*
X108043409Y-122569600D01*
X108043409Y-122569600D02*
X107900552Y-122617219D01*
X107900552Y-122617219D02*
X107805314Y-122617219D01*
X109186266Y-122617219D02*
X108614838Y-122617219D01*
X108900552Y-122617219D02*
X108900552Y-121617219D01*
X108900552Y-121617219D02*
X108805314Y-121760076D01*
X108805314Y-121760076D02*
X108710076Y-121855314D01*
X108710076Y-121855314D02*
X108614838Y-121902933D01*
X162660986Y-106804057D02*
X162708606Y-106851676D01*
X162708606Y-106851676D02*
X162756225Y-106994533D01*
X162756225Y-106994533D02*
X162756225Y-107089771D01*
X162756225Y-107089771D02*
X162708606Y-107232628D01*
X162708606Y-107232628D02*
X162613367Y-107327866D01*
X162613367Y-107327866D02*
X162518129Y-107375485D01*
X162518129Y-107375485D02*
X162327653Y-107423104D01*
X162327653Y-107423104D02*
X162184796Y-107423104D01*
X162184796Y-107423104D02*
X161994320Y-107375485D01*
X161994320Y-107375485D02*
X161899082Y-107327866D01*
X161899082Y-107327866D02*
X161803844Y-107232628D01*
X161803844Y-107232628D02*
X161756225Y-107089771D01*
X161756225Y-107089771D02*
X161756225Y-106994533D01*
X161756225Y-106994533D02*
X161803844Y-106851676D01*
X161803844Y-106851676D02*
X161851463Y-106804057D01*
X161851463Y-106423104D02*
X161803844Y-106375485D01*
X161803844Y-106375485D02*
X161756225Y-106280247D01*
X161756225Y-106280247D02*
X161756225Y-106042152D01*
X161756225Y-106042152D02*
X161803844Y-105946914D01*
X161803844Y-105946914D02*
X161851463Y-105899295D01*
X161851463Y-105899295D02*
X161946701Y-105851676D01*
X161946701Y-105851676D02*
X162041939Y-105851676D01*
X162041939Y-105851676D02*
X162184796Y-105899295D01*
X162184796Y-105899295D02*
X162756225Y-106470723D01*
X162756225Y-106470723D02*
X162756225Y-105851676D01*
X161756225Y-104946914D02*
X161756225Y-105423104D01*
X161756225Y-105423104D02*
X162232415Y-105470723D01*
X162232415Y-105470723D02*
X162184796Y-105423104D01*
X162184796Y-105423104D02*
X162137177Y-105327866D01*
X162137177Y-105327866D02*
X162137177Y-105089771D01*
X162137177Y-105089771D02*
X162184796Y-104994533D01*
X162184796Y-104994533D02*
X162232415Y-104946914D01*
X162232415Y-104946914D02*
X162327653Y-104899295D01*
X162327653Y-104899295D02*
X162565748Y-104899295D01*
X162565748Y-104899295D02*
X162660986Y-104946914D01*
X162660986Y-104946914D02*
X162708606Y-104994533D01*
X162708606Y-104994533D02*
X162756225Y-105089771D01*
X162756225Y-105089771D02*
X162756225Y-105327866D01*
X162756225Y-105327866D02*
X162708606Y-105423104D01*
X162708606Y-105423104D02*
X162660986Y-105470723D01*
X116552742Y-100094780D02*
X116505123Y-100142400D01*
X116505123Y-100142400D02*
X116362266Y-100190019D01*
X116362266Y-100190019D02*
X116267028Y-100190019D01*
X116267028Y-100190019D02*
X116124171Y-100142400D01*
X116124171Y-100142400D02*
X116028933Y-100047161D01*
X116028933Y-100047161D02*
X115981314Y-99951923D01*
X115981314Y-99951923D02*
X115933695Y-99761447D01*
X115933695Y-99761447D02*
X115933695Y-99618590D01*
X115933695Y-99618590D02*
X115981314Y-99428114D01*
X115981314Y-99428114D02*
X116028933Y-99332876D01*
X116028933Y-99332876D02*
X116124171Y-99237638D01*
X116124171Y-99237638D02*
X116267028Y-99190019D01*
X116267028Y-99190019D02*
X116362266Y-99190019D01*
X116362266Y-99190019D02*
X116505123Y-99237638D01*
X116505123Y-99237638D02*
X116552742Y-99285257D01*
X117505123Y-100190019D02*
X116933695Y-100190019D01*
X117219409Y-100190019D02*
X117219409Y-99190019D01*
X117219409Y-99190019D02*
X117124171Y-99332876D01*
X117124171Y-99332876D02*
X117028933Y-99428114D01*
X117028933Y-99428114D02*
X116933695Y-99475733D01*
X117838457Y-99190019D02*
X118505123Y-99190019D01*
X118505123Y-99190019D02*
X118076552Y-100190019D01*
X129576533Y-119960819D02*
X129243200Y-119484628D01*
X129005105Y-119960819D02*
X129005105Y-118960819D01*
X129005105Y-118960819D02*
X129386057Y-118960819D01*
X129386057Y-118960819D02*
X129481295Y-119008438D01*
X129481295Y-119008438D02*
X129528914Y-119056057D01*
X129528914Y-119056057D02*
X129576533Y-119151295D01*
X129576533Y-119151295D02*
X129576533Y-119294152D01*
X129576533Y-119294152D02*
X129528914Y-119389390D01*
X129528914Y-119389390D02*
X129481295Y-119437009D01*
X129481295Y-119437009D02*
X129386057Y-119484628D01*
X129386057Y-119484628D02*
X129005105Y-119484628D01*
X129909867Y-118960819D02*
X130528914Y-118960819D01*
X130528914Y-118960819D02*
X130195581Y-119341771D01*
X130195581Y-119341771D02*
X130338438Y-119341771D01*
X130338438Y-119341771D02*
X130433676Y-119389390D01*
X130433676Y-119389390D02*
X130481295Y-119437009D01*
X130481295Y-119437009D02*
X130528914Y-119532247D01*
X130528914Y-119532247D02*
X130528914Y-119770342D01*
X130528914Y-119770342D02*
X130481295Y-119865580D01*
X130481295Y-119865580D02*
X130433676Y-119913200D01*
X130433676Y-119913200D02*
X130338438Y-119960819D01*
X130338438Y-119960819D02*
X130052724Y-119960819D01*
X130052724Y-119960819D02*
X129957486Y-119913200D01*
X129957486Y-119913200D02*
X129909867Y-119865580D01*
X93867580Y-45367866D02*
X93915200Y-45415485D01*
X93915200Y-45415485D02*
X93962819Y-45558342D01*
X93962819Y-45558342D02*
X93962819Y-45653580D01*
X93962819Y-45653580D02*
X93915200Y-45796437D01*
X93915200Y-45796437D02*
X93819961Y-45891675D01*
X93819961Y-45891675D02*
X93724723Y-45939294D01*
X93724723Y-45939294D02*
X93534247Y-45986913D01*
X93534247Y-45986913D02*
X93391390Y-45986913D01*
X93391390Y-45986913D02*
X93200914Y-45939294D01*
X93200914Y-45939294D02*
X93105676Y-45891675D01*
X93105676Y-45891675D02*
X93010438Y-45796437D01*
X93010438Y-45796437D02*
X92962819Y-45653580D01*
X92962819Y-45653580D02*
X92962819Y-45558342D01*
X92962819Y-45558342D02*
X93010438Y-45415485D01*
X93010438Y-45415485D02*
X93058057Y-45367866D01*
X92962819Y-44463104D02*
X92962819Y-44939294D01*
X92962819Y-44939294D02*
X93439009Y-44986913D01*
X93439009Y-44986913D02*
X93391390Y-44939294D01*
X93391390Y-44939294D02*
X93343771Y-44844056D01*
X93343771Y-44844056D02*
X93343771Y-44605961D01*
X93343771Y-44605961D02*
X93391390Y-44510723D01*
X93391390Y-44510723D02*
X93439009Y-44463104D01*
X93439009Y-44463104D02*
X93534247Y-44415485D01*
X93534247Y-44415485D02*
X93772342Y-44415485D01*
X93772342Y-44415485D02*
X93867580Y-44463104D01*
X93867580Y-44463104D02*
X93915200Y-44510723D01*
X93915200Y-44510723D02*
X93962819Y-44605961D01*
X93962819Y-44605961D02*
X93962819Y-44844056D01*
X93962819Y-44844056D02*
X93915200Y-44939294D01*
X93915200Y-44939294D02*
X93867580Y-44986913D01*
X104023386Y-45793057D02*
X104071006Y-45840676D01*
X104071006Y-45840676D02*
X104118625Y-45983533D01*
X104118625Y-45983533D02*
X104118625Y-46078771D01*
X104118625Y-46078771D02*
X104071006Y-46221628D01*
X104071006Y-46221628D02*
X103975767Y-46316866D01*
X103975767Y-46316866D02*
X103880529Y-46364485D01*
X103880529Y-46364485D02*
X103690053Y-46412104D01*
X103690053Y-46412104D02*
X103547196Y-46412104D01*
X103547196Y-46412104D02*
X103356720Y-46364485D01*
X103356720Y-46364485D02*
X103261482Y-46316866D01*
X103261482Y-46316866D02*
X103166244Y-46221628D01*
X103166244Y-46221628D02*
X103118625Y-46078771D01*
X103118625Y-46078771D02*
X103118625Y-45983533D01*
X103118625Y-45983533D02*
X103166244Y-45840676D01*
X103166244Y-45840676D02*
X103213863Y-45793057D01*
X104118625Y-44840676D02*
X104118625Y-45412104D01*
X104118625Y-45126390D02*
X103118625Y-45126390D01*
X103118625Y-45126390D02*
X103261482Y-45221628D01*
X103261482Y-45221628D02*
X103356720Y-45316866D01*
X103356720Y-45316866D02*
X103404339Y-45412104D01*
X103547196Y-44269247D02*
X103499577Y-44364485D01*
X103499577Y-44364485D02*
X103451958Y-44412104D01*
X103451958Y-44412104D02*
X103356720Y-44459723D01*
X103356720Y-44459723D02*
X103309101Y-44459723D01*
X103309101Y-44459723D02*
X103213863Y-44412104D01*
X103213863Y-44412104D02*
X103166244Y-44364485D01*
X103166244Y-44364485D02*
X103118625Y-44269247D01*
X103118625Y-44269247D02*
X103118625Y-44078771D01*
X103118625Y-44078771D02*
X103166244Y-43983533D01*
X103166244Y-43983533D02*
X103213863Y-43935914D01*
X103213863Y-43935914D02*
X103309101Y-43888295D01*
X103309101Y-43888295D02*
X103356720Y-43888295D01*
X103356720Y-43888295D02*
X103451958Y-43935914D01*
X103451958Y-43935914D02*
X103499577Y-43983533D01*
X103499577Y-43983533D02*
X103547196Y-44078771D01*
X103547196Y-44078771D02*
X103547196Y-44269247D01*
X103547196Y-44269247D02*
X103594815Y-44364485D01*
X103594815Y-44364485D02*
X103642434Y-44412104D01*
X103642434Y-44412104D02*
X103737672Y-44459723D01*
X103737672Y-44459723D02*
X103928148Y-44459723D01*
X103928148Y-44459723D02*
X104023386Y-44412104D01*
X104023386Y-44412104D02*
X104071006Y-44364485D01*
X104071006Y-44364485D02*
X104118625Y-44269247D01*
X104118625Y-44269247D02*
X104118625Y-44078771D01*
X104118625Y-44078771D02*
X104071006Y-43983533D01*
X104071006Y-43983533D02*
X104023386Y-43935914D01*
X104023386Y-43935914D02*
X103928148Y-43888295D01*
X103928148Y-43888295D02*
X103737672Y-43888295D01*
X103737672Y-43888295D02*
X103642434Y-43935914D01*
X103642434Y-43935914D02*
X103594815Y-43983533D01*
X103594815Y-43983533D02*
X103547196Y-44078771D01*
X175634380Y-118916057D02*
X175682000Y-118963676D01*
X175682000Y-118963676D02*
X175729619Y-119106533D01*
X175729619Y-119106533D02*
X175729619Y-119201771D01*
X175729619Y-119201771D02*
X175682000Y-119344628D01*
X175682000Y-119344628D02*
X175586761Y-119439866D01*
X175586761Y-119439866D02*
X175491523Y-119487485D01*
X175491523Y-119487485D02*
X175301047Y-119535104D01*
X175301047Y-119535104D02*
X175158190Y-119535104D01*
X175158190Y-119535104D02*
X174967714Y-119487485D01*
X174967714Y-119487485D02*
X174872476Y-119439866D01*
X174872476Y-119439866D02*
X174777238Y-119344628D01*
X174777238Y-119344628D02*
X174729619Y-119201771D01*
X174729619Y-119201771D02*
X174729619Y-119106533D01*
X174729619Y-119106533D02*
X174777238Y-118963676D01*
X174777238Y-118963676D02*
X174824857Y-118916057D01*
X174824857Y-118535104D02*
X174777238Y-118487485D01*
X174777238Y-118487485D02*
X174729619Y-118392247D01*
X174729619Y-118392247D02*
X174729619Y-118154152D01*
X174729619Y-118154152D02*
X174777238Y-118058914D01*
X174777238Y-118058914D02*
X174824857Y-118011295D01*
X174824857Y-118011295D02*
X174920095Y-117963676D01*
X174920095Y-117963676D02*
X175015333Y-117963676D01*
X175015333Y-117963676D02*
X175158190Y-118011295D01*
X175158190Y-118011295D02*
X175729619Y-118582723D01*
X175729619Y-118582723D02*
X175729619Y-117963676D01*
X175062952Y-117106533D02*
X175729619Y-117106533D01*
X174682000Y-117344628D02*
X175396285Y-117582723D01*
X175396285Y-117582723D02*
X175396285Y-116963676D01*
X63996872Y-39119419D02*
X63996872Y-39833704D01*
X63996872Y-39833704D02*
X63949253Y-39976561D01*
X63949253Y-39976561D02*
X63854015Y-40071800D01*
X63854015Y-40071800D02*
X63711158Y-40119419D01*
X63711158Y-40119419D02*
X63615920Y-40119419D01*
X64425444Y-39214657D02*
X64473063Y-39167038D01*
X64473063Y-39167038D02*
X64568301Y-39119419D01*
X64568301Y-39119419D02*
X64806396Y-39119419D01*
X64806396Y-39119419D02*
X64901634Y-39167038D01*
X64901634Y-39167038D02*
X64949253Y-39214657D01*
X64949253Y-39214657D02*
X64996872Y-39309895D01*
X64996872Y-39309895D02*
X64996872Y-39405133D01*
X64996872Y-39405133D02*
X64949253Y-39547990D01*
X64949253Y-39547990D02*
X64377825Y-40119419D01*
X64377825Y-40119419D02*
X64996872Y-40119419D01*
X64383025Y-63597733D02*
X65097310Y-63597733D01*
X65097310Y-63597733D02*
X65240167Y-63645352D01*
X65240167Y-63645352D02*
X65335406Y-63740590D01*
X65335406Y-63740590D02*
X65383025Y-63883447D01*
X65383025Y-63883447D02*
X65383025Y-63978685D01*
X65383025Y-63073923D02*
X65383025Y-62883447D01*
X65383025Y-62883447D02*
X65335406Y-62788209D01*
X65335406Y-62788209D02*
X65287786Y-62740590D01*
X65287786Y-62740590D02*
X65144929Y-62645352D01*
X65144929Y-62645352D02*
X64954453Y-62597733D01*
X64954453Y-62597733D02*
X64573501Y-62597733D01*
X64573501Y-62597733D02*
X64478263Y-62645352D01*
X64478263Y-62645352D02*
X64430644Y-62692971D01*
X64430644Y-62692971D02*
X64383025Y-62788209D01*
X64383025Y-62788209D02*
X64383025Y-62978685D01*
X64383025Y-62978685D02*
X64430644Y-63073923D01*
X64430644Y-63073923D02*
X64478263Y-63121542D01*
X64478263Y-63121542D02*
X64573501Y-63169161D01*
X64573501Y-63169161D02*
X64811596Y-63169161D01*
X64811596Y-63169161D02*
X64906834Y-63121542D01*
X64906834Y-63121542D02*
X64954453Y-63073923D01*
X64954453Y-63073923D02*
X65002072Y-62978685D01*
X65002072Y-62978685D02*
X65002072Y-62788209D01*
X65002072Y-62788209D02*
X64954453Y-62692971D01*
X64954453Y-62692971D02*
X64906834Y-62645352D01*
X64906834Y-62645352D02*
X64811596Y-62597733D01*
X107053142Y-113048780D02*
X107005523Y-113096400D01*
X107005523Y-113096400D02*
X106862666Y-113144019D01*
X106862666Y-113144019D02*
X106767428Y-113144019D01*
X106767428Y-113144019D02*
X106624571Y-113096400D01*
X106624571Y-113096400D02*
X106529333Y-113001161D01*
X106529333Y-113001161D02*
X106481714Y-112905923D01*
X106481714Y-112905923D02*
X106434095Y-112715447D01*
X106434095Y-112715447D02*
X106434095Y-112572590D01*
X106434095Y-112572590D02*
X106481714Y-112382114D01*
X106481714Y-112382114D02*
X106529333Y-112286876D01*
X106529333Y-112286876D02*
X106624571Y-112191638D01*
X106624571Y-112191638D02*
X106767428Y-112144019D01*
X106767428Y-112144019D02*
X106862666Y-112144019D01*
X106862666Y-112144019D02*
X107005523Y-112191638D01*
X107005523Y-112191638D02*
X107053142Y-112239257D01*
X107386476Y-112144019D02*
X108005523Y-112144019D01*
X108005523Y-112144019D02*
X107672190Y-112524971D01*
X107672190Y-112524971D02*
X107815047Y-112524971D01*
X107815047Y-112524971D02*
X107910285Y-112572590D01*
X107910285Y-112572590D02*
X107957904Y-112620209D01*
X107957904Y-112620209D02*
X108005523Y-112715447D01*
X108005523Y-112715447D02*
X108005523Y-112953542D01*
X108005523Y-112953542D02*
X107957904Y-113048780D01*
X107957904Y-113048780D02*
X107910285Y-113096400D01*
X107910285Y-113096400D02*
X107815047Y-113144019D01*
X107815047Y-113144019D02*
X107529333Y-113144019D01*
X107529333Y-113144019D02*
X107434095Y-113096400D01*
X107434095Y-113096400D02*
X107386476Y-113048780D01*
X108910285Y-112144019D02*
X108434095Y-112144019D01*
X108434095Y-112144019D02*
X108386476Y-112620209D01*
X108386476Y-112620209D02*
X108434095Y-112572590D01*
X108434095Y-112572590D02*
X108529333Y-112524971D01*
X108529333Y-112524971D02*
X108767428Y-112524971D01*
X108767428Y-112524971D02*
X108862666Y-112572590D01*
X108862666Y-112572590D02*
X108910285Y-112620209D01*
X108910285Y-112620209D02*
X108957904Y-112715447D01*
X108957904Y-112715447D02*
X108957904Y-112953542D01*
X108957904Y-112953542D02*
X108910285Y-113048780D01*
X108910285Y-113048780D02*
X108862666Y-113096400D01*
X108862666Y-113096400D02*
X108767428Y-113144019D01*
X108767428Y-113144019D02*
X108529333Y-113144019D01*
X108529333Y-113144019D02*
X108434095Y-113096400D01*
X108434095Y-113096400D02*
X108386476Y-113048780D01*
X77708986Y-48608066D02*
X77756606Y-48655685D01*
X77756606Y-48655685D02*
X77804225Y-48798542D01*
X77804225Y-48798542D02*
X77804225Y-48893780D01*
X77804225Y-48893780D02*
X77756606Y-49036637D01*
X77756606Y-49036637D02*
X77661367Y-49131875D01*
X77661367Y-49131875D02*
X77566129Y-49179494D01*
X77566129Y-49179494D02*
X77375653Y-49227113D01*
X77375653Y-49227113D02*
X77232796Y-49227113D01*
X77232796Y-49227113D02*
X77042320Y-49179494D01*
X77042320Y-49179494D02*
X76947082Y-49131875D01*
X76947082Y-49131875D02*
X76851844Y-49036637D01*
X76851844Y-49036637D02*
X76804225Y-48893780D01*
X76804225Y-48893780D02*
X76804225Y-48798542D01*
X76804225Y-48798542D02*
X76851844Y-48655685D01*
X76851844Y-48655685D02*
X76899463Y-48608066D01*
X76899463Y-48227113D02*
X76851844Y-48179494D01*
X76851844Y-48179494D02*
X76804225Y-48084256D01*
X76804225Y-48084256D02*
X76804225Y-47846161D01*
X76804225Y-47846161D02*
X76851844Y-47750923D01*
X76851844Y-47750923D02*
X76899463Y-47703304D01*
X76899463Y-47703304D02*
X76994701Y-47655685D01*
X76994701Y-47655685D02*
X77089939Y-47655685D01*
X77089939Y-47655685D02*
X77232796Y-47703304D01*
X77232796Y-47703304D02*
X77804225Y-48274732D01*
X77804225Y-48274732D02*
X77804225Y-47655685D01*
X162406986Y-95678857D02*
X162454606Y-95726476D01*
X162454606Y-95726476D02*
X162502225Y-95869333D01*
X162502225Y-95869333D02*
X162502225Y-95964571D01*
X162502225Y-95964571D02*
X162454606Y-96107428D01*
X162454606Y-96107428D02*
X162359367Y-96202666D01*
X162359367Y-96202666D02*
X162264129Y-96250285D01*
X162264129Y-96250285D02*
X162073653Y-96297904D01*
X162073653Y-96297904D02*
X161930796Y-96297904D01*
X161930796Y-96297904D02*
X161740320Y-96250285D01*
X161740320Y-96250285D02*
X161645082Y-96202666D01*
X161645082Y-96202666D02*
X161549844Y-96107428D01*
X161549844Y-96107428D02*
X161502225Y-95964571D01*
X161502225Y-95964571D02*
X161502225Y-95869333D01*
X161502225Y-95869333D02*
X161549844Y-95726476D01*
X161549844Y-95726476D02*
X161597463Y-95678857D01*
X161502225Y-95345523D02*
X161502225Y-94726476D01*
X161502225Y-94726476D02*
X161883177Y-95059809D01*
X161883177Y-95059809D02*
X161883177Y-94916952D01*
X161883177Y-94916952D02*
X161930796Y-94821714D01*
X161930796Y-94821714D02*
X161978415Y-94774095D01*
X161978415Y-94774095D02*
X162073653Y-94726476D01*
X162073653Y-94726476D02*
X162311748Y-94726476D01*
X162311748Y-94726476D02*
X162406986Y-94774095D01*
X162406986Y-94774095D02*
X162454606Y-94821714D01*
X162454606Y-94821714D02*
X162502225Y-94916952D01*
X162502225Y-94916952D02*
X162502225Y-95202666D01*
X162502225Y-95202666D02*
X162454606Y-95297904D01*
X162454606Y-95297904D02*
X162406986Y-95345523D01*
X161597463Y-94345523D02*
X161549844Y-94297904D01*
X161549844Y-94297904D02*
X161502225Y-94202666D01*
X161502225Y-94202666D02*
X161502225Y-93964571D01*
X161502225Y-93964571D02*
X161549844Y-93869333D01*
X161549844Y-93869333D02*
X161597463Y-93821714D01*
X161597463Y-93821714D02*
X161692701Y-93774095D01*
X161692701Y-93774095D02*
X161787939Y-93774095D01*
X161787939Y-93774095D02*
X161930796Y-93821714D01*
X161930796Y-93821714D02*
X162502225Y-94393142D01*
X162502225Y-94393142D02*
X162502225Y-93774095D01*
X106962342Y-79774780D02*
X106914723Y-79822400D01*
X106914723Y-79822400D02*
X106771866Y-79870019D01*
X106771866Y-79870019D02*
X106676628Y-79870019D01*
X106676628Y-79870019D02*
X106533771Y-79822400D01*
X106533771Y-79822400D02*
X106438533Y-79727161D01*
X106438533Y-79727161D02*
X106390914Y-79631923D01*
X106390914Y-79631923D02*
X106343295Y-79441447D01*
X106343295Y-79441447D02*
X106343295Y-79298590D01*
X106343295Y-79298590D02*
X106390914Y-79108114D01*
X106390914Y-79108114D02*
X106438533Y-79012876D01*
X106438533Y-79012876D02*
X106533771Y-78917638D01*
X106533771Y-78917638D02*
X106676628Y-78870019D01*
X106676628Y-78870019D02*
X106771866Y-78870019D01*
X106771866Y-78870019D02*
X106914723Y-78917638D01*
X106914723Y-78917638D02*
X106962342Y-78965257D01*
X107914723Y-79870019D02*
X107343295Y-79870019D01*
X107629009Y-79870019D02*
X107629009Y-78870019D01*
X107629009Y-78870019D02*
X107533771Y-79012876D01*
X107533771Y-79012876D02*
X107438533Y-79108114D01*
X107438533Y-79108114D02*
X107343295Y-79155733D01*
X108771866Y-79203352D02*
X108771866Y-79870019D01*
X108533771Y-78822400D02*
X108295676Y-79536685D01*
X108295676Y-79536685D02*
X108914723Y-79536685D01*
X58300225Y-56990266D02*
X57824034Y-57323599D01*
X58300225Y-57561694D02*
X57300225Y-57561694D01*
X57300225Y-57561694D02*
X57300225Y-57180742D01*
X57300225Y-57180742D02*
X57347844Y-57085504D01*
X57347844Y-57085504D02*
X57395463Y-57037885D01*
X57395463Y-57037885D02*
X57490701Y-56990266D01*
X57490701Y-56990266D02*
X57633558Y-56990266D01*
X57633558Y-56990266D02*
X57728796Y-57037885D01*
X57728796Y-57037885D02*
X57776415Y-57085504D01*
X57776415Y-57085504D02*
X57824034Y-57180742D01*
X57824034Y-57180742D02*
X57824034Y-57561694D01*
X57395463Y-56609313D02*
X57347844Y-56561694D01*
X57347844Y-56561694D02*
X57300225Y-56466456D01*
X57300225Y-56466456D02*
X57300225Y-56228361D01*
X57300225Y-56228361D02*
X57347844Y-56133123D01*
X57347844Y-56133123D02*
X57395463Y-56085504D01*
X57395463Y-56085504D02*
X57490701Y-56037885D01*
X57490701Y-56037885D02*
X57585939Y-56037885D01*
X57585939Y-56037885D02*
X57728796Y-56085504D01*
X57728796Y-56085504D02*
X58300225Y-56656932D01*
X58300225Y-56656932D02*
X58300225Y-56037885D01*
X86479672Y-27133019D02*
X86479672Y-27847304D01*
X86479672Y-27847304D02*
X86432053Y-27990161D01*
X86432053Y-27990161D02*
X86336815Y-28085400D01*
X86336815Y-28085400D02*
X86193958Y-28133019D01*
X86193958Y-28133019D02*
X86098720Y-28133019D01*
X87432053Y-27133019D02*
X86955863Y-27133019D01*
X86955863Y-27133019D02*
X86908244Y-27609209D01*
X86908244Y-27609209D02*
X86955863Y-27561590D01*
X86955863Y-27561590D02*
X87051101Y-27513971D01*
X87051101Y-27513971D02*
X87289196Y-27513971D01*
X87289196Y-27513971D02*
X87384434Y-27561590D01*
X87384434Y-27561590D02*
X87432053Y-27609209D01*
X87432053Y-27609209D02*
X87479672Y-27704447D01*
X87479672Y-27704447D02*
X87479672Y-27942542D01*
X87479672Y-27942542D02*
X87432053Y-28037780D01*
X87432053Y-28037780D02*
X87384434Y-28085400D01*
X87384434Y-28085400D02*
X87289196Y-28133019D01*
X87289196Y-28133019D02*
X87051101Y-28133019D01*
X87051101Y-28133019D02*
X86955863Y-28085400D01*
X86955863Y-28085400D02*
X86908244Y-28037780D01*
X106962342Y-106444780D02*
X106914723Y-106492400D01*
X106914723Y-106492400D02*
X106771866Y-106540019D01*
X106771866Y-106540019D02*
X106676628Y-106540019D01*
X106676628Y-106540019D02*
X106533771Y-106492400D01*
X106533771Y-106492400D02*
X106438533Y-106397161D01*
X106438533Y-106397161D02*
X106390914Y-106301923D01*
X106390914Y-106301923D02*
X106343295Y-106111447D01*
X106343295Y-106111447D02*
X106343295Y-105968590D01*
X106343295Y-105968590D02*
X106390914Y-105778114D01*
X106390914Y-105778114D02*
X106438533Y-105682876D01*
X106438533Y-105682876D02*
X106533771Y-105587638D01*
X106533771Y-105587638D02*
X106676628Y-105540019D01*
X106676628Y-105540019D02*
X106771866Y-105540019D01*
X106771866Y-105540019D02*
X106914723Y-105587638D01*
X106914723Y-105587638D02*
X106962342Y-105635257D01*
X107295676Y-105540019D02*
X107914723Y-105540019D01*
X107914723Y-105540019D02*
X107581390Y-105920971D01*
X107581390Y-105920971D02*
X107724247Y-105920971D01*
X107724247Y-105920971D02*
X107819485Y-105968590D01*
X107819485Y-105968590D02*
X107867104Y-106016209D01*
X107867104Y-106016209D02*
X107914723Y-106111447D01*
X107914723Y-106111447D02*
X107914723Y-106349542D01*
X107914723Y-106349542D02*
X107867104Y-106444780D01*
X107867104Y-106444780D02*
X107819485Y-106492400D01*
X107819485Y-106492400D02*
X107724247Y-106540019D01*
X107724247Y-106540019D02*
X107438533Y-106540019D01*
X107438533Y-106540019D02*
X107343295Y-106492400D01*
X107343295Y-106492400D02*
X107295676Y-106444780D01*
X108771866Y-105873352D02*
X108771866Y-106540019D01*
X108533771Y-105492400D02*
X108295676Y-106206685D01*
X108295676Y-106206685D02*
X108914723Y-106206685D01*
X129038586Y-54988057D02*
X129086206Y-55035676D01*
X129086206Y-55035676D02*
X129133825Y-55178533D01*
X129133825Y-55178533D02*
X129133825Y-55273771D01*
X129133825Y-55273771D02*
X129086206Y-55416628D01*
X129086206Y-55416628D02*
X128990967Y-55511866D01*
X128990967Y-55511866D02*
X128895729Y-55559485D01*
X128895729Y-55559485D02*
X128705253Y-55607104D01*
X128705253Y-55607104D02*
X128562396Y-55607104D01*
X128562396Y-55607104D02*
X128371920Y-55559485D01*
X128371920Y-55559485D02*
X128276682Y-55511866D01*
X128276682Y-55511866D02*
X128181444Y-55416628D01*
X128181444Y-55416628D02*
X128133825Y-55273771D01*
X128133825Y-55273771D02*
X128133825Y-55178533D01*
X128133825Y-55178533D02*
X128181444Y-55035676D01*
X128181444Y-55035676D02*
X128229063Y-54988057D01*
X128229063Y-54607104D02*
X128181444Y-54559485D01*
X128181444Y-54559485D02*
X128133825Y-54464247D01*
X128133825Y-54464247D02*
X128133825Y-54226152D01*
X128133825Y-54226152D02*
X128181444Y-54130914D01*
X128181444Y-54130914D02*
X128229063Y-54083295D01*
X128229063Y-54083295D02*
X128324301Y-54035676D01*
X128324301Y-54035676D02*
X128419539Y-54035676D01*
X128419539Y-54035676D02*
X128562396Y-54083295D01*
X128562396Y-54083295D02*
X129133825Y-54654723D01*
X129133825Y-54654723D02*
X129133825Y-54035676D01*
X128133825Y-53702342D02*
X128133825Y-53083295D01*
X128133825Y-53083295D02*
X128514777Y-53416628D01*
X128514777Y-53416628D02*
X128514777Y-53273771D01*
X128514777Y-53273771D02*
X128562396Y-53178533D01*
X128562396Y-53178533D02*
X128610015Y-53130914D01*
X128610015Y-53130914D02*
X128705253Y-53083295D01*
X128705253Y-53083295D02*
X128943348Y-53083295D01*
X128943348Y-53083295D02*
X129038586Y-53130914D01*
X129038586Y-53130914D02*
X129086206Y-53178533D01*
X129086206Y-53178533D02*
X129133825Y-53273771D01*
X129133825Y-53273771D02*
X129133825Y-53559485D01*
X129133825Y-53559485D02*
X129086206Y-53654723D01*
X129086206Y-53654723D02*
X129038586Y-53702342D01*
X87411786Y-45306066D02*
X87459406Y-45353685D01*
X87459406Y-45353685D02*
X87507025Y-45496542D01*
X87507025Y-45496542D02*
X87507025Y-45591780D01*
X87507025Y-45591780D02*
X87459406Y-45734637D01*
X87459406Y-45734637D02*
X87364167Y-45829875D01*
X87364167Y-45829875D02*
X87268929Y-45877494D01*
X87268929Y-45877494D02*
X87078453Y-45925113D01*
X87078453Y-45925113D02*
X86935596Y-45925113D01*
X86935596Y-45925113D02*
X86745120Y-45877494D01*
X86745120Y-45877494D02*
X86649882Y-45829875D01*
X86649882Y-45829875D02*
X86554644Y-45734637D01*
X86554644Y-45734637D02*
X86507025Y-45591780D01*
X86507025Y-45591780D02*
X86507025Y-45496542D01*
X86507025Y-45496542D02*
X86554644Y-45353685D01*
X86554644Y-45353685D02*
X86602263Y-45306066D01*
X86840358Y-44448923D02*
X87507025Y-44448923D01*
X86459406Y-44687018D02*
X87173691Y-44925113D01*
X87173691Y-44925113D02*
X87173691Y-44306066D01*
X170161980Y-116122057D02*
X170209600Y-116169676D01*
X170209600Y-116169676D02*
X170257219Y-116312533D01*
X170257219Y-116312533D02*
X170257219Y-116407771D01*
X170257219Y-116407771D02*
X170209600Y-116550628D01*
X170209600Y-116550628D02*
X170114361Y-116645866D01*
X170114361Y-116645866D02*
X170019123Y-116693485D01*
X170019123Y-116693485D02*
X169828647Y-116741104D01*
X169828647Y-116741104D02*
X169685790Y-116741104D01*
X169685790Y-116741104D02*
X169495314Y-116693485D01*
X169495314Y-116693485D02*
X169400076Y-116645866D01*
X169400076Y-116645866D02*
X169304838Y-116550628D01*
X169304838Y-116550628D02*
X169257219Y-116407771D01*
X169257219Y-116407771D02*
X169257219Y-116312533D01*
X169257219Y-116312533D02*
X169304838Y-116169676D01*
X169304838Y-116169676D02*
X169352457Y-116122057D01*
X169257219Y-115788723D02*
X169257219Y-115169676D01*
X169257219Y-115169676D02*
X169638171Y-115503009D01*
X169638171Y-115503009D02*
X169638171Y-115360152D01*
X169638171Y-115360152D02*
X169685790Y-115264914D01*
X169685790Y-115264914D02*
X169733409Y-115217295D01*
X169733409Y-115217295D02*
X169828647Y-115169676D01*
X169828647Y-115169676D02*
X170066742Y-115169676D01*
X170066742Y-115169676D02*
X170161980Y-115217295D01*
X170161980Y-115217295D02*
X170209600Y-115264914D01*
X170209600Y-115264914D02*
X170257219Y-115360152D01*
X170257219Y-115360152D02*
X170257219Y-115645866D01*
X170257219Y-115645866D02*
X170209600Y-115741104D01*
X170209600Y-115741104D02*
X170161980Y-115788723D01*
X169257219Y-114550628D02*
X169257219Y-114455390D01*
X169257219Y-114455390D02*
X169304838Y-114360152D01*
X169304838Y-114360152D02*
X169352457Y-114312533D01*
X169352457Y-114312533D02*
X169447695Y-114264914D01*
X169447695Y-114264914D02*
X169638171Y-114217295D01*
X169638171Y-114217295D02*
X169876266Y-114217295D01*
X169876266Y-114217295D02*
X170066742Y-114264914D01*
X170066742Y-114264914D02*
X170161980Y-114312533D01*
X170161980Y-114312533D02*
X170209600Y-114360152D01*
X170209600Y-114360152D02*
X170257219Y-114455390D01*
X170257219Y-114455390D02*
X170257219Y-114550628D01*
X170257219Y-114550628D02*
X170209600Y-114645866D01*
X170209600Y-114645866D02*
X170161980Y-114693485D01*
X170161980Y-114693485D02*
X170066742Y-114741104D01*
X170066742Y-114741104D02*
X169876266Y-114788723D01*
X169876266Y-114788723D02*
X169638171Y-114788723D01*
X169638171Y-114788723D02*
X169447695Y-114741104D01*
X169447695Y-114741104D02*
X169352457Y-114693485D01*
X169352457Y-114693485D02*
X169304838Y-114645866D01*
X169304838Y-114645866D02*
X169257219Y-114550628D01*
X119132586Y-54864857D02*
X119180206Y-54912476D01*
X119180206Y-54912476D02*
X119227825Y-55055333D01*
X119227825Y-55055333D02*
X119227825Y-55150571D01*
X119227825Y-55150571D02*
X119180206Y-55293428D01*
X119180206Y-55293428D02*
X119084967Y-55388666D01*
X119084967Y-55388666D02*
X118989729Y-55436285D01*
X118989729Y-55436285D02*
X118799253Y-55483904D01*
X118799253Y-55483904D02*
X118656396Y-55483904D01*
X118656396Y-55483904D02*
X118465920Y-55436285D01*
X118465920Y-55436285D02*
X118370682Y-55388666D01*
X118370682Y-55388666D02*
X118275444Y-55293428D01*
X118275444Y-55293428D02*
X118227825Y-55150571D01*
X118227825Y-55150571D02*
X118227825Y-55055333D01*
X118227825Y-55055333D02*
X118275444Y-54912476D01*
X118275444Y-54912476D02*
X118323063Y-54864857D01*
X118323063Y-54483904D02*
X118275444Y-54436285D01*
X118275444Y-54436285D02*
X118227825Y-54341047D01*
X118227825Y-54341047D02*
X118227825Y-54102952D01*
X118227825Y-54102952D02*
X118275444Y-54007714D01*
X118275444Y-54007714D02*
X118323063Y-53960095D01*
X118323063Y-53960095D02*
X118418301Y-53912476D01*
X118418301Y-53912476D02*
X118513539Y-53912476D01*
X118513539Y-53912476D02*
X118656396Y-53960095D01*
X118656396Y-53960095D02*
X119227825Y-54531523D01*
X119227825Y-54531523D02*
X119227825Y-53912476D01*
X119227825Y-52960095D02*
X119227825Y-53531523D01*
X119227825Y-53245809D02*
X118227825Y-53245809D01*
X118227825Y-53245809D02*
X118370682Y-53341047D01*
X118370682Y-53341047D02*
X118465920Y-53436285D01*
X118465920Y-53436285D02*
X118513539Y-53531523D01*
X168858586Y-95628057D02*
X168906206Y-95675676D01*
X168906206Y-95675676D02*
X168953825Y-95818533D01*
X168953825Y-95818533D02*
X168953825Y-95913771D01*
X168953825Y-95913771D02*
X168906206Y-96056628D01*
X168906206Y-96056628D02*
X168810967Y-96151866D01*
X168810967Y-96151866D02*
X168715729Y-96199485D01*
X168715729Y-96199485D02*
X168525253Y-96247104D01*
X168525253Y-96247104D02*
X168382396Y-96247104D01*
X168382396Y-96247104D02*
X168191920Y-96199485D01*
X168191920Y-96199485D02*
X168096682Y-96151866D01*
X168096682Y-96151866D02*
X168001444Y-96056628D01*
X168001444Y-96056628D02*
X167953825Y-95913771D01*
X167953825Y-95913771D02*
X167953825Y-95818533D01*
X167953825Y-95818533D02*
X168001444Y-95675676D01*
X168001444Y-95675676D02*
X168049063Y-95628057D01*
X168049063Y-95247104D02*
X168001444Y-95199485D01*
X168001444Y-95199485D02*
X167953825Y-95104247D01*
X167953825Y-95104247D02*
X167953825Y-94866152D01*
X167953825Y-94866152D02*
X168001444Y-94770914D01*
X168001444Y-94770914D02*
X168049063Y-94723295D01*
X168049063Y-94723295D02*
X168144301Y-94675676D01*
X168144301Y-94675676D02*
X168239539Y-94675676D01*
X168239539Y-94675676D02*
X168382396Y-94723295D01*
X168382396Y-94723295D02*
X168953825Y-95294723D01*
X168953825Y-95294723D02*
X168953825Y-94675676D01*
X167953825Y-93818533D02*
X167953825Y-94009009D01*
X167953825Y-94009009D02*
X168001444Y-94104247D01*
X168001444Y-94104247D02*
X168049063Y-94151866D01*
X168049063Y-94151866D02*
X168191920Y-94247104D01*
X168191920Y-94247104D02*
X168382396Y-94294723D01*
X168382396Y-94294723D02*
X168763348Y-94294723D01*
X168763348Y-94294723D02*
X168858586Y-94247104D01*
X168858586Y-94247104D02*
X168906206Y-94199485D01*
X168906206Y-94199485D02*
X168953825Y-94104247D01*
X168953825Y-94104247D02*
X168953825Y-93913771D01*
X168953825Y-93913771D02*
X168906206Y-93818533D01*
X168906206Y-93818533D02*
X168858586Y-93770914D01*
X168858586Y-93770914D02*
X168763348Y-93723295D01*
X168763348Y-93723295D02*
X168525253Y-93723295D01*
X168525253Y-93723295D02*
X168430015Y-93770914D01*
X168430015Y-93770914D02*
X168382396Y-93818533D01*
X168382396Y-93818533D02*
X168334777Y-93913771D01*
X168334777Y-93913771D02*
X168334777Y-94104247D01*
X168334777Y-94104247D02*
X168382396Y-94199485D01*
X168382396Y-94199485D02*
X168430015Y-94247104D01*
X168430015Y-94247104D02*
X168525253Y-94294723D01*
X43809025Y-83367123D02*
X44523310Y-83367123D01*
X44523310Y-83367123D02*
X44666167Y-83414742D01*
X44666167Y-83414742D02*
X44761406Y-83509980D01*
X44761406Y-83509980D02*
X44809025Y-83652837D01*
X44809025Y-83652837D02*
X44809025Y-83748075D01*
X43904263Y-82938551D02*
X43856644Y-82890932D01*
X43856644Y-82890932D02*
X43809025Y-82795694D01*
X43809025Y-82795694D02*
X43809025Y-82557599D01*
X43809025Y-82557599D02*
X43856644Y-82462361D01*
X43856644Y-82462361D02*
X43904263Y-82414742D01*
X43904263Y-82414742D02*
X43999501Y-82367123D01*
X43999501Y-82367123D02*
X44094739Y-82367123D01*
X44094739Y-82367123D02*
X44237596Y-82414742D01*
X44237596Y-82414742D02*
X44809025Y-82986170D01*
X44809025Y-82986170D02*
X44809025Y-82367123D01*
X44809025Y-81890932D02*
X44809025Y-81700456D01*
X44809025Y-81700456D02*
X44761406Y-81605218D01*
X44761406Y-81605218D02*
X44713786Y-81557599D01*
X44713786Y-81557599D02*
X44570929Y-81462361D01*
X44570929Y-81462361D02*
X44380453Y-81414742D01*
X44380453Y-81414742D02*
X43999501Y-81414742D01*
X43999501Y-81414742D02*
X43904263Y-81462361D01*
X43904263Y-81462361D02*
X43856644Y-81509980D01*
X43856644Y-81509980D02*
X43809025Y-81605218D01*
X43809025Y-81605218D02*
X43809025Y-81795694D01*
X43809025Y-81795694D02*
X43856644Y-81890932D01*
X43856644Y-81890932D02*
X43904263Y-81938551D01*
X43904263Y-81938551D02*
X43999501Y-81986170D01*
X43999501Y-81986170D02*
X44237596Y-81986170D01*
X44237596Y-81986170D02*
X44332834Y-81938551D01*
X44332834Y-81938551D02*
X44380453Y-81890932D01*
X44380453Y-81890932D02*
X44428072Y-81795694D01*
X44428072Y-81795694D02*
X44428072Y-81605218D01*
X44428072Y-81605218D02*
X44380453Y-81509980D01*
X44380453Y-81509980D02*
X44332834Y-81462361D01*
X44332834Y-81462361D02*
X44237596Y-81414742D01*
X67694472Y-134064819D02*
X67694472Y-134779104D01*
X67694472Y-134779104D02*
X67646853Y-134921961D01*
X67646853Y-134921961D02*
X67551615Y-135017200D01*
X67551615Y-135017200D02*
X67408758Y-135064819D01*
X67408758Y-135064819D02*
X67313520Y-135064819D01*
X68075425Y-134064819D02*
X68694472Y-134064819D01*
X68694472Y-134064819D02*
X68361139Y-134445771D01*
X68361139Y-134445771D02*
X68503996Y-134445771D01*
X68503996Y-134445771D02*
X68599234Y-134493390D01*
X68599234Y-134493390D02*
X68646853Y-134541009D01*
X68646853Y-134541009D02*
X68694472Y-134636247D01*
X68694472Y-134636247D02*
X68694472Y-134874342D01*
X68694472Y-134874342D02*
X68646853Y-134969580D01*
X68646853Y-134969580D02*
X68599234Y-135017200D01*
X68599234Y-135017200D02*
X68503996Y-135064819D01*
X68503996Y-135064819D02*
X68218282Y-135064819D01*
X68218282Y-135064819D02*
X68123044Y-135017200D01*
X68123044Y-135017200D02*
X68075425Y-134969580D01*
X43453425Y-118450933D02*
X44167710Y-118450933D01*
X44167710Y-118450933D02*
X44310567Y-118498552D01*
X44310567Y-118498552D02*
X44405806Y-118593790D01*
X44405806Y-118593790D02*
X44453425Y-118736647D01*
X44453425Y-118736647D02*
X44453425Y-118831885D01*
X43786758Y-117546171D02*
X44453425Y-117546171D01*
X43405806Y-117784266D02*
X44120091Y-118022361D01*
X44120091Y-118022361D02*
X44120091Y-117403314D01*
X95687882Y-134166419D02*
X95687882Y-134880704D01*
X95687882Y-134880704D02*
X95640263Y-135023561D01*
X95640263Y-135023561D02*
X95545025Y-135118800D01*
X95545025Y-135118800D02*
X95402168Y-135166419D01*
X95402168Y-135166419D02*
X95306930Y-135166419D01*
X96687882Y-135166419D02*
X96116454Y-135166419D01*
X96402168Y-135166419D02*
X96402168Y-134166419D01*
X96402168Y-134166419D02*
X96306930Y-134309276D01*
X96306930Y-134309276D02*
X96211692Y-134404514D01*
X96211692Y-134404514D02*
X96116454Y-134452133D01*
X97021216Y-134166419D02*
X97640263Y-134166419D01*
X97640263Y-134166419D02*
X97306930Y-134547371D01*
X97306930Y-134547371D02*
X97449787Y-134547371D01*
X97449787Y-134547371D02*
X97545025Y-134594990D01*
X97545025Y-134594990D02*
X97592644Y-134642609D01*
X97592644Y-134642609D02*
X97640263Y-134737847D01*
X97640263Y-134737847D02*
X97640263Y-134975942D01*
X97640263Y-134975942D02*
X97592644Y-135071180D01*
X97592644Y-135071180D02*
X97545025Y-135118800D01*
X97545025Y-135118800D02*
X97449787Y-135166419D01*
X97449787Y-135166419D02*
X97164073Y-135166419D01*
X97164073Y-135166419D02*
X97068835Y-135118800D01*
X97068835Y-135118800D02*
X97021216Y-135071180D01*
X170161980Y-106978057D02*
X170209600Y-107025676D01*
X170209600Y-107025676D02*
X170257219Y-107168533D01*
X170257219Y-107168533D02*
X170257219Y-107263771D01*
X170257219Y-107263771D02*
X170209600Y-107406628D01*
X170209600Y-107406628D02*
X170114361Y-107501866D01*
X170114361Y-107501866D02*
X170019123Y-107549485D01*
X170019123Y-107549485D02*
X169828647Y-107597104D01*
X169828647Y-107597104D02*
X169685790Y-107597104D01*
X169685790Y-107597104D02*
X169495314Y-107549485D01*
X169495314Y-107549485D02*
X169400076Y-107501866D01*
X169400076Y-107501866D02*
X169304838Y-107406628D01*
X169304838Y-107406628D02*
X169257219Y-107263771D01*
X169257219Y-107263771D02*
X169257219Y-107168533D01*
X169257219Y-107168533D02*
X169304838Y-107025676D01*
X169304838Y-107025676D02*
X169352457Y-106978057D01*
X169257219Y-106644723D02*
X169257219Y-106025676D01*
X169257219Y-106025676D02*
X169638171Y-106359009D01*
X169638171Y-106359009D02*
X169638171Y-106216152D01*
X169638171Y-106216152D02*
X169685790Y-106120914D01*
X169685790Y-106120914D02*
X169733409Y-106073295D01*
X169733409Y-106073295D02*
X169828647Y-106025676D01*
X169828647Y-106025676D02*
X170066742Y-106025676D01*
X170066742Y-106025676D02*
X170161980Y-106073295D01*
X170161980Y-106073295D02*
X170209600Y-106120914D01*
X170209600Y-106120914D02*
X170257219Y-106216152D01*
X170257219Y-106216152D02*
X170257219Y-106501866D01*
X170257219Y-106501866D02*
X170209600Y-106597104D01*
X170209600Y-106597104D02*
X170161980Y-106644723D01*
X170257219Y-105073295D02*
X170257219Y-105644723D01*
X170257219Y-105359009D02*
X169257219Y-105359009D01*
X169257219Y-105359009D02*
X169400076Y-105454247D01*
X169400076Y-105454247D02*
X169495314Y-105549485D01*
X169495314Y-105549485D02*
X169542933Y-105644723D01*
X159467676Y-134289619D02*
X159467676Y-135003904D01*
X159467676Y-135003904D02*
X159420057Y-135146761D01*
X159420057Y-135146761D02*
X159324819Y-135242000D01*
X159324819Y-135242000D02*
X159181962Y-135289619D01*
X159181962Y-135289619D02*
X159086724Y-135289619D01*
X160467676Y-135289619D02*
X159896248Y-135289619D01*
X160181962Y-135289619D02*
X160181962Y-134289619D01*
X160181962Y-134289619D02*
X160086724Y-134432476D01*
X160086724Y-134432476D02*
X159991486Y-134527714D01*
X159991486Y-134527714D02*
X159896248Y-134575333D01*
X160848629Y-134384857D02*
X160896248Y-134337238D01*
X160896248Y-134337238D02*
X160991486Y-134289619D01*
X160991486Y-134289619D02*
X161229581Y-134289619D01*
X161229581Y-134289619D02*
X161324819Y-134337238D01*
X161324819Y-134337238D02*
X161372438Y-134384857D01*
X161372438Y-134384857D02*
X161420057Y-134480095D01*
X161420057Y-134480095D02*
X161420057Y-134575333D01*
X161420057Y-134575333D02*
X161372438Y-134718190D01*
X161372438Y-134718190D02*
X160801010Y-135289619D01*
X160801010Y-135289619D02*
X161420057Y-135289619D01*
X107063942Y-89629980D02*
X107016323Y-89677600D01*
X107016323Y-89677600D02*
X106873466Y-89725219D01*
X106873466Y-89725219D02*
X106778228Y-89725219D01*
X106778228Y-89725219D02*
X106635371Y-89677600D01*
X106635371Y-89677600D02*
X106540133Y-89582361D01*
X106540133Y-89582361D02*
X106492514Y-89487123D01*
X106492514Y-89487123D02*
X106444895Y-89296647D01*
X106444895Y-89296647D02*
X106444895Y-89153790D01*
X106444895Y-89153790D02*
X106492514Y-88963314D01*
X106492514Y-88963314D02*
X106540133Y-88868076D01*
X106540133Y-88868076D02*
X106635371Y-88772838D01*
X106635371Y-88772838D02*
X106778228Y-88725219D01*
X106778228Y-88725219D02*
X106873466Y-88725219D01*
X106873466Y-88725219D02*
X107016323Y-88772838D01*
X107016323Y-88772838D02*
X107063942Y-88820457D01*
X108016323Y-89725219D02*
X107444895Y-89725219D01*
X107730609Y-89725219D02*
X107730609Y-88725219D01*
X107730609Y-88725219D02*
X107635371Y-88868076D01*
X107635371Y-88868076D02*
X107540133Y-88963314D01*
X107540133Y-88963314D02*
X107444895Y-89010933D01*
X108873466Y-88725219D02*
X108682990Y-88725219D01*
X108682990Y-88725219D02*
X108587752Y-88772838D01*
X108587752Y-88772838D02*
X108540133Y-88820457D01*
X108540133Y-88820457D02*
X108444895Y-88963314D01*
X108444895Y-88963314D02*
X108397276Y-89153790D01*
X108397276Y-89153790D02*
X108397276Y-89534742D01*
X108397276Y-89534742D02*
X108444895Y-89629980D01*
X108444895Y-89629980D02*
X108492514Y-89677600D01*
X108492514Y-89677600D02*
X108587752Y-89725219D01*
X108587752Y-89725219D02*
X108778228Y-89725219D01*
X108778228Y-89725219D02*
X108873466Y-89677600D01*
X108873466Y-89677600D02*
X108921085Y-89629980D01*
X108921085Y-89629980D02*
X108968704Y-89534742D01*
X108968704Y-89534742D02*
X108968704Y-89296647D01*
X108968704Y-89296647D02*
X108921085Y-89201409D01*
X108921085Y-89201409D02*
X108873466Y-89153790D01*
X108873466Y-89153790D02*
X108778228Y-89106171D01*
X108778228Y-89106171D02*
X108587752Y-89106171D01*
X108587752Y-89106171D02*
X108492514Y-89153790D01*
X108492514Y-89153790D02*
X108444895Y-89201409D01*
X108444895Y-89201409D02*
X108397276Y-89296647D01*
X115998761Y-94566980D02*
X115951142Y-94614600D01*
X115951142Y-94614600D02*
X115808285Y-94662219D01*
X115808285Y-94662219D02*
X115713047Y-94662219D01*
X115713047Y-94662219D02*
X115570190Y-94614600D01*
X115570190Y-94614600D02*
X115474952Y-94519361D01*
X115474952Y-94519361D02*
X115427333Y-94424123D01*
X115427333Y-94424123D02*
X115379714Y-94233647D01*
X115379714Y-94233647D02*
X115379714Y-94090790D01*
X115379714Y-94090790D02*
X115427333Y-93900314D01*
X115427333Y-93900314D02*
X115474952Y-93805076D01*
X115474952Y-93805076D02*
X115570190Y-93709838D01*
X115570190Y-93709838D02*
X115713047Y-93662219D01*
X115713047Y-93662219D02*
X115808285Y-93662219D01*
X115808285Y-93662219D02*
X115951142Y-93709838D01*
X115951142Y-93709838D02*
X115998761Y-93757457D01*
X116855904Y-93995552D02*
X116855904Y-94662219D01*
X116617809Y-93614600D02*
X116379714Y-94328885D01*
X116379714Y-94328885D02*
X116998761Y-94328885D01*
X117808285Y-94662219D02*
X117808285Y-94138409D01*
X117808285Y-94138409D02*
X117760666Y-94043171D01*
X117760666Y-94043171D02*
X117665428Y-93995552D01*
X117665428Y-93995552D02*
X117474952Y-93995552D01*
X117474952Y-93995552D02*
X117379714Y-94043171D01*
X117808285Y-94614600D02*
X117713047Y-94662219D01*
X117713047Y-94662219D02*
X117474952Y-94662219D01*
X117474952Y-94662219D02*
X117379714Y-94614600D01*
X117379714Y-94614600D02*
X117332095Y-94519361D01*
X117332095Y-94519361D02*
X117332095Y-94424123D01*
X117332095Y-94424123D02*
X117379714Y-94328885D01*
X117379714Y-94328885D02*
X117474952Y-94281266D01*
X117474952Y-94281266D02*
X117713047Y-94281266D01*
X117713047Y-94281266D02*
X117808285Y-94233647D01*
X118236857Y-93757457D02*
X118284476Y-93709838D01*
X118284476Y-93709838D02*
X118379714Y-93662219D01*
X118379714Y-93662219D02*
X118617809Y-93662219D01*
X118617809Y-93662219D02*
X118713047Y-93709838D01*
X118713047Y-93709838D02*
X118760666Y-93757457D01*
X118760666Y-93757457D02*
X118808285Y-93852695D01*
X118808285Y-93852695D02*
X118808285Y-93947933D01*
X118808285Y-93947933D02*
X118760666Y-94090790D01*
X118760666Y-94090790D02*
X118189238Y-94662219D01*
X118189238Y-94662219D02*
X118808285Y-94662219D01*
X124292586Y-45844057D02*
X124340206Y-45891676D01*
X124340206Y-45891676D02*
X124387825Y-46034533D01*
X124387825Y-46034533D02*
X124387825Y-46129771D01*
X124387825Y-46129771D02*
X124340206Y-46272628D01*
X124340206Y-46272628D02*
X124244967Y-46367866D01*
X124244967Y-46367866D02*
X124149729Y-46415485D01*
X124149729Y-46415485D02*
X123959253Y-46463104D01*
X123959253Y-46463104D02*
X123816396Y-46463104D01*
X123816396Y-46463104D02*
X123625920Y-46415485D01*
X123625920Y-46415485D02*
X123530682Y-46367866D01*
X123530682Y-46367866D02*
X123435444Y-46272628D01*
X123435444Y-46272628D02*
X123387825Y-46129771D01*
X123387825Y-46129771D02*
X123387825Y-46034533D01*
X123387825Y-46034533D02*
X123435444Y-45891676D01*
X123435444Y-45891676D02*
X123483063Y-45844057D01*
X123483063Y-45463104D02*
X123435444Y-45415485D01*
X123435444Y-45415485D02*
X123387825Y-45320247D01*
X123387825Y-45320247D02*
X123387825Y-45082152D01*
X123387825Y-45082152D02*
X123435444Y-44986914D01*
X123435444Y-44986914D02*
X123483063Y-44939295D01*
X123483063Y-44939295D02*
X123578301Y-44891676D01*
X123578301Y-44891676D02*
X123673539Y-44891676D01*
X123673539Y-44891676D02*
X123816396Y-44939295D01*
X123816396Y-44939295D02*
X124387825Y-45510723D01*
X124387825Y-45510723D02*
X124387825Y-44891676D01*
X123483063Y-44510723D02*
X123435444Y-44463104D01*
X123435444Y-44463104D02*
X123387825Y-44367866D01*
X123387825Y-44367866D02*
X123387825Y-44129771D01*
X123387825Y-44129771D02*
X123435444Y-44034533D01*
X123435444Y-44034533D02*
X123483063Y-43986914D01*
X123483063Y-43986914D02*
X123578301Y-43939295D01*
X123578301Y-43939295D02*
X123673539Y-43939295D01*
X123673539Y-43939295D02*
X123816396Y-43986914D01*
X123816396Y-43986914D02*
X124387825Y-44558342D01*
X124387825Y-44558342D02*
X124387825Y-43939295D01*
X43910625Y-66213333D02*
X44624910Y-66213333D01*
X44624910Y-66213333D02*
X44767767Y-66260952D01*
X44767767Y-66260952D02*
X44863006Y-66356190D01*
X44863006Y-66356190D02*
X44910625Y-66499047D01*
X44910625Y-66499047D02*
X44910625Y-66594285D01*
X43910625Y-65832380D02*
X43910625Y-65165714D01*
X43910625Y-65165714D02*
X44910625Y-65594285D01*
X82585786Y-61612866D02*
X82633406Y-61660485D01*
X82633406Y-61660485D02*
X82681025Y-61803342D01*
X82681025Y-61803342D02*
X82681025Y-61898580D01*
X82681025Y-61898580D02*
X82633406Y-62041437D01*
X82633406Y-62041437D02*
X82538167Y-62136675D01*
X82538167Y-62136675D02*
X82442929Y-62184294D01*
X82442929Y-62184294D02*
X82252453Y-62231913D01*
X82252453Y-62231913D02*
X82109596Y-62231913D01*
X82109596Y-62231913D02*
X81919120Y-62184294D01*
X81919120Y-62184294D02*
X81823882Y-62136675D01*
X81823882Y-62136675D02*
X81728644Y-62041437D01*
X81728644Y-62041437D02*
X81681025Y-61898580D01*
X81681025Y-61898580D02*
X81681025Y-61803342D01*
X81681025Y-61803342D02*
X81728644Y-61660485D01*
X81728644Y-61660485D02*
X81776263Y-61612866D01*
X81681025Y-61279532D02*
X81681025Y-60612866D01*
X81681025Y-60612866D02*
X82681025Y-61041437D01*
X137936076Y-121718819D02*
X137936076Y-122433104D01*
X137936076Y-122433104D02*
X137888457Y-122575961D01*
X137888457Y-122575961D02*
X137793219Y-122671200D01*
X137793219Y-122671200D02*
X137650362Y-122718819D01*
X137650362Y-122718819D02*
X137555124Y-122718819D01*
X138936076Y-122718819D02*
X138364648Y-122718819D01*
X138650362Y-122718819D02*
X138650362Y-121718819D01*
X138650362Y-121718819D02*
X138555124Y-121861676D01*
X138555124Y-121861676D02*
X138459886Y-121956914D01*
X138459886Y-121956914D02*
X138364648Y-122004533D01*
X139412267Y-122718819D02*
X139602743Y-122718819D01*
X139602743Y-122718819D02*
X139697981Y-122671200D01*
X139697981Y-122671200D02*
X139745600Y-122623580D01*
X139745600Y-122623580D02*
X139840838Y-122480723D01*
X139840838Y-122480723D02*
X139888457Y-122290247D01*
X139888457Y-122290247D02*
X139888457Y-121909295D01*
X139888457Y-121909295D02*
X139840838Y-121814057D01*
X139840838Y-121814057D02*
X139793219Y-121766438D01*
X139793219Y-121766438D02*
X139697981Y-121718819D01*
X139697981Y-121718819D02*
X139507505Y-121718819D01*
X139507505Y-121718819D02*
X139412267Y-121766438D01*
X139412267Y-121766438D02*
X139364648Y-121814057D01*
X139364648Y-121814057D02*
X139317029Y-121909295D01*
X139317029Y-121909295D02*
X139317029Y-122147390D01*
X139317029Y-122147390D02*
X139364648Y-122242628D01*
X139364648Y-122242628D02*
X139412267Y-122290247D01*
X139412267Y-122290247D02*
X139507505Y-122337866D01*
X139507505Y-122337866D02*
X139697981Y-122337866D01*
X139697981Y-122337866D02*
X139793219Y-122290247D01*
X139793219Y-122290247D02*
X139840838Y-122242628D01*
X139840838Y-122242628D02*
X139888457Y-122147390D01*
X115907961Y-85449580D02*
X115860342Y-85497200D01*
X115860342Y-85497200D02*
X115717485Y-85544819D01*
X115717485Y-85544819D02*
X115622247Y-85544819D01*
X115622247Y-85544819D02*
X115479390Y-85497200D01*
X115479390Y-85497200D02*
X115384152Y-85401961D01*
X115384152Y-85401961D02*
X115336533Y-85306723D01*
X115336533Y-85306723D02*
X115288914Y-85116247D01*
X115288914Y-85116247D02*
X115288914Y-84973390D01*
X115288914Y-84973390D02*
X115336533Y-84782914D01*
X115336533Y-84782914D02*
X115384152Y-84687676D01*
X115384152Y-84687676D02*
X115479390Y-84592438D01*
X115479390Y-84592438D02*
X115622247Y-84544819D01*
X115622247Y-84544819D02*
X115717485Y-84544819D01*
X115717485Y-84544819D02*
X115860342Y-84592438D01*
X115860342Y-84592438D02*
X115907961Y-84640057D01*
X116288914Y-84640057D02*
X116336533Y-84592438D01*
X116336533Y-84592438D02*
X116431771Y-84544819D01*
X116431771Y-84544819D02*
X116669866Y-84544819D01*
X116669866Y-84544819D02*
X116765104Y-84592438D01*
X116765104Y-84592438D02*
X116812723Y-84640057D01*
X116812723Y-84640057D02*
X116860342Y-84735295D01*
X116860342Y-84735295D02*
X116860342Y-84830533D01*
X116860342Y-84830533D02*
X116812723Y-84973390D01*
X116812723Y-84973390D02*
X116241295Y-85544819D01*
X116241295Y-85544819D02*
X116860342Y-85544819D01*
X117717485Y-85544819D02*
X117717485Y-85021009D01*
X117717485Y-85021009D02*
X117669866Y-84925771D01*
X117669866Y-84925771D02*
X117574628Y-84878152D01*
X117574628Y-84878152D02*
X117384152Y-84878152D01*
X117384152Y-84878152D02*
X117288914Y-84925771D01*
X117717485Y-85497200D02*
X117622247Y-85544819D01*
X117622247Y-85544819D02*
X117384152Y-85544819D01*
X117384152Y-85544819D02*
X117288914Y-85497200D01*
X117288914Y-85497200D02*
X117241295Y-85401961D01*
X117241295Y-85401961D02*
X117241295Y-85306723D01*
X117241295Y-85306723D02*
X117288914Y-85211485D01*
X117288914Y-85211485D02*
X117384152Y-85163866D01*
X117384152Y-85163866D02*
X117622247Y-85163866D01*
X117622247Y-85163866D02*
X117717485Y-85116247D01*
X118146057Y-84640057D02*
X118193676Y-84592438D01*
X118193676Y-84592438D02*
X118288914Y-84544819D01*
X118288914Y-84544819D02*
X118527009Y-84544819D01*
X118527009Y-84544819D02*
X118622247Y-84592438D01*
X118622247Y-84592438D02*
X118669866Y-84640057D01*
X118669866Y-84640057D02*
X118717485Y-84735295D01*
X118717485Y-84735295D02*
X118717485Y-84830533D01*
X118717485Y-84830533D02*
X118669866Y-84973390D01*
X118669866Y-84973390D02*
X118098438Y-85544819D01*
X118098438Y-85544819D02*
X118717485Y-85544819D01*
X62777425Y-124249466D02*
X62301234Y-124582799D01*
X62777425Y-124820894D02*
X61777425Y-124820894D01*
X61777425Y-124820894D02*
X61777425Y-124439942D01*
X61777425Y-124439942D02*
X61825044Y-124344704D01*
X61825044Y-124344704D02*
X61872663Y-124297085D01*
X61872663Y-124297085D02*
X61967901Y-124249466D01*
X61967901Y-124249466D02*
X62110758Y-124249466D01*
X62110758Y-124249466D02*
X62205996Y-124297085D01*
X62205996Y-124297085D02*
X62253615Y-124344704D01*
X62253615Y-124344704D02*
X62301234Y-124439942D01*
X62301234Y-124439942D02*
X62301234Y-124820894D01*
X62777425Y-123297085D02*
X62777425Y-123868513D01*
X62777425Y-123582799D02*
X61777425Y-123582799D01*
X61777425Y-123582799D02*
X61920282Y-123678037D01*
X61920282Y-123678037D02*
X62015520Y-123773275D01*
X62015520Y-123773275D02*
X62063139Y-123868513D01*
X147776586Y-95628057D02*
X147824206Y-95675676D01*
X147824206Y-95675676D02*
X147871825Y-95818533D01*
X147871825Y-95818533D02*
X147871825Y-95913771D01*
X147871825Y-95913771D02*
X147824206Y-96056628D01*
X147824206Y-96056628D02*
X147728967Y-96151866D01*
X147728967Y-96151866D02*
X147633729Y-96199485D01*
X147633729Y-96199485D02*
X147443253Y-96247104D01*
X147443253Y-96247104D02*
X147300396Y-96247104D01*
X147300396Y-96247104D02*
X147109920Y-96199485D01*
X147109920Y-96199485D02*
X147014682Y-96151866D01*
X147014682Y-96151866D02*
X146919444Y-96056628D01*
X146919444Y-96056628D02*
X146871825Y-95913771D01*
X146871825Y-95913771D02*
X146871825Y-95818533D01*
X146871825Y-95818533D02*
X146919444Y-95675676D01*
X146919444Y-95675676D02*
X146967063Y-95628057D01*
X146967063Y-95247104D02*
X146919444Y-95199485D01*
X146919444Y-95199485D02*
X146871825Y-95104247D01*
X146871825Y-95104247D02*
X146871825Y-94866152D01*
X146871825Y-94866152D02*
X146919444Y-94770914D01*
X146919444Y-94770914D02*
X146967063Y-94723295D01*
X146967063Y-94723295D02*
X147062301Y-94675676D01*
X147062301Y-94675676D02*
X147157539Y-94675676D01*
X147157539Y-94675676D02*
X147300396Y-94723295D01*
X147300396Y-94723295D02*
X147871825Y-95294723D01*
X147871825Y-95294723D02*
X147871825Y-94675676D01*
X147871825Y-94199485D02*
X147871825Y-94009009D01*
X147871825Y-94009009D02*
X147824206Y-93913771D01*
X147824206Y-93913771D02*
X147776586Y-93866152D01*
X147776586Y-93866152D02*
X147633729Y-93770914D01*
X147633729Y-93770914D02*
X147443253Y-93723295D01*
X147443253Y-93723295D02*
X147062301Y-93723295D01*
X147062301Y-93723295D02*
X146967063Y-93770914D01*
X146967063Y-93770914D02*
X146919444Y-93818533D01*
X146919444Y-93818533D02*
X146871825Y-93913771D01*
X146871825Y-93913771D02*
X146871825Y-94104247D01*
X146871825Y-94104247D02*
X146919444Y-94199485D01*
X146919444Y-94199485D02*
X146967063Y-94247104D01*
X146967063Y-94247104D02*
X147062301Y-94294723D01*
X147062301Y-94294723D02*
X147300396Y-94294723D01*
X147300396Y-94294723D02*
X147395634Y-94247104D01*
X147395634Y-94247104D02*
X147443253Y-94199485D01*
X147443253Y-94199485D02*
X147490872Y-94104247D01*
X147490872Y-94104247D02*
X147490872Y-93913771D01*
X147490872Y-93913771D02*
X147443253Y-93818533D01*
X147443253Y-93818533D02*
X147395634Y-93770914D01*
X147395634Y-93770914D02*
X147300396Y-93723295D01*
X117713482Y-27133019D02*
X117713482Y-27847304D01*
X117713482Y-27847304D02*
X117665863Y-27990161D01*
X117665863Y-27990161D02*
X117570625Y-28085400D01*
X117570625Y-28085400D02*
X117427768Y-28133019D01*
X117427768Y-28133019D02*
X117332530Y-28133019D01*
X118713482Y-28133019D02*
X118142054Y-28133019D01*
X118427768Y-28133019D02*
X118427768Y-27133019D01*
X118427768Y-27133019D02*
X118332530Y-27275876D01*
X118332530Y-27275876D02*
X118237292Y-27371114D01*
X118237292Y-27371114D02*
X118142054Y-27418733D01*
X119332530Y-27133019D02*
X119427768Y-27133019D01*
X119427768Y-27133019D02*
X119523006Y-27180638D01*
X119523006Y-27180638D02*
X119570625Y-27228257D01*
X119570625Y-27228257D02*
X119618244Y-27323495D01*
X119618244Y-27323495D02*
X119665863Y-27513971D01*
X119665863Y-27513971D02*
X119665863Y-27752066D01*
X119665863Y-27752066D02*
X119618244Y-27942542D01*
X119618244Y-27942542D02*
X119570625Y-28037780D01*
X119570625Y-28037780D02*
X119523006Y-28085400D01*
X119523006Y-28085400D02*
X119427768Y-28133019D01*
X119427768Y-28133019D02*
X119332530Y-28133019D01*
X119332530Y-28133019D02*
X119237292Y-28085400D01*
X119237292Y-28085400D02*
X119189673Y-28037780D01*
X119189673Y-28037780D02*
X119142054Y-27942542D01*
X119142054Y-27942542D02*
X119094435Y-27752066D01*
X119094435Y-27752066D02*
X119094435Y-27513971D01*
X119094435Y-27513971D02*
X119142054Y-27323495D01*
X119142054Y-27323495D02*
X119189673Y-27228257D01*
X119189673Y-27228257D02*
X119237292Y-27180638D01*
X119237292Y-27180638D02*
X119332530Y-27133019D01*
X106499161Y-99993180D02*
X106451542Y-100040800D01*
X106451542Y-100040800D02*
X106308685Y-100088419D01*
X106308685Y-100088419D02*
X106213447Y-100088419D01*
X106213447Y-100088419D02*
X106070590Y-100040800D01*
X106070590Y-100040800D02*
X105975352Y-99945561D01*
X105975352Y-99945561D02*
X105927733Y-99850323D01*
X105927733Y-99850323D02*
X105880114Y-99659847D01*
X105880114Y-99659847D02*
X105880114Y-99516990D01*
X105880114Y-99516990D02*
X105927733Y-99326514D01*
X105927733Y-99326514D02*
X105975352Y-99231276D01*
X105975352Y-99231276D02*
X106070590Y-99136038D01*
X106070590Y-99136038D02*
X106213447Y-99088419D01*
X106213447Y-99088419D02*
X106308685Y-99088419D01*
X106308685Y-99088419D02*
X106451542Y-99136038D01*
X106451542Y-99136038D02*
X106499161Y-99183657D01*
X107403923Y-99088419D02*
X106927733Y-99088419D01*
X106927733Y-99088419D02*
X106880114Y-99564609D01*
X106880114Y-99564609D02*
X106927733Y-99516990D01*
X106927733Y-99516990D02*
X107022971Y-99469371D01*
X107022971Y-99469371D02*
X107261066Y-99469371D01*
X107261066Y-99469371D02*
X107356304Y-99516990D01*
X107356304Y-99516990D02*
X107403923Y-99564609D01*
X107403923Y-99564609D02*
X107451542Y-99659847D01*
X107451542Y-99659847D02*
X107451542Y-99897942D01*
X107451542Y-99897942D02*
X107403923Y-99993180D01*
X107403923Y-99993180D02*
X107356304Y-100040800D01*
X107356304Y-100040800D02*
X107261066Y-100088419D01*
X107261066Y-100088419D02*
X107022971Y-100088419D01*
X107022971Y-100088419D02*
X106927733Y-100040800D01*
X106927733Y-100040800D02*
X106880114Y-99993180D01*
X108308685Y-100088419D02*
X108308685Y-99564609D01*
X108308685Y-99564609D02*
X108261066Y-99469371D01*
X108261066Y-99469371D02*
X108165828Y-99421752D01*
X108165828Y-99421752D02*
X107975352Y-99421752D01*
X107975352Y-99421752D02*
X107880114Y-99469371D01*
X108308685Y-100040800D02*
X108213447Y-100088419D01*
X108213447Y-100088419D02*
X107975352Y-100088419D01*
X107975352Y-100088419D02*
X107880114Y-100040800D01*
X107880114Y-100040800D02*
X107832495Y-99945561D01*
X107832495Y-99945561D02*
X107832495Y-99850323D01*
X107832495Y-99850323D02*
X107880114Y-99755085D01*
X107880114Y-99755085D02*
X107975352Y-99707466D01*
X107975352Y-99707466D02*
X108213447Y-99707466D01*
X108213447Y-99707466D02*
X108308685Y-99659847D01*
X108737257Y-99183657D02*
X108784876Y-99136038D01*
X108784876Y-99136038D02*
X108880114Y-99088419D01*
X108880114Y-99088419D02*
X109118209Y-99088419D01*
X109118209Y-99088419D02*
X109213447Y-99136038D01*
X109213447Y-99136038D02*
X109261066Y-99183657D01*
X109261066Y-99183657D02*
X109308685Y-99278895D01*
X109308685Y-99278895D02*
X109308685Y-99374133D01*
X109308685Y-99374133D02*
X109261066Y-99516990D01*
X109261066Y-99516990D02*
X108689638Y-100088419D01*
X108689638Y-100088419D02*
X109308685Y-100088419D01*
X116421942Y-78555580D02*
X116374323Y-78603200D01*
X116374323Y-78603200D02*
X116231466Y-78650819D01*
X116231466Y-78650819D02*
X116136228Y-78650819D01*
X116136228Y-78650819D02*
X115993371Y-78603200D01*
X115993371Y-78603200D02*
X115898133Y-78507961D01*
X115898133Y-78507961D02*
X115850514Y-78412723D01*
X115850514Y-78412723D02*
X115802895Y-78222247D01*
X115802895Y-78222247D02*
X115802895Y-78079390D01*
X115802895Y-78079390D02*
X115850514Y-77888914D01*
X115850514Y-77888914D02*
X115898133Y-77793676D01*
X115898133Y-77793676D02*
X115993371Y-77698438D01*
X115993371Y-77698438D02*
X116136228Y-77650819D01*
X116136228Y-77650819D02*
X116231466Y-77650819D01*
X116231466Y-77650819D02*
X116374323Y-77698438D01*
X116374323Y-77698438D02*
X116421942Y-77746057D01*
X117374323Y-78650819D02*
X116802895Y-78650819D01*
X117088609Y-78650819D02*
X117088609Y-77650819D01*
X117088609Y-77650819D02*
X116993371Y-77793676D01*
X116993371Y-77793676D02*
X116898133Y-77888914D01*
X116898133Y-77888914D02*
X116802895Y-77936533D01*
X118279085Y-77650819D02*
X117802895Y-77650819D01*
X117802895Y-77650819D02*
X117755276Y-78127009D01*
X117755276Y-78127009D02*
X117802895Y-78079390D01*
X117802895Y-78079390D02*
X117898133Y-78031771D01*
X117898133Y-78031771D02*
X118136228Y-78031771D01*
X118136228Y-78031771D02*
X118231466Y-78079390D01*
X118231466Y-78079390D02*
X118279085Y-78127009D01*
X118279085Y-78127009D02*
X118326704Y-78222247D01*
X118326704Y-78222247D02*
X118326704Y-78460342D01*
X118326704Y-78460342D02*
X118279085Y-78555580D01*
X118279085Y-78555580D02*
X118231466Y-78603200D01*
X118231466Y-78603200D02*
X118136228Y-78650819D01*
X118136228Y-78650819D02*
X117898133Y-78650819D01*
X117898133Y-78650819D02*
X117802895Y-78603200D01*
X117802895Y-78603200D02*
X117755276Y-78555580D01*
X81329882Y-134064819D02*
X81329882Y-134779104D01*
X81329882Y-134779104D02*
X81282263Y-134921961D01*
X81282263Y-134921961D02*
X81187025Y-135017200D01*
X81187025Y-135017200D02*
X81044168Y-135064819D01*
X81044168Y-135064819D02*
X80948930Y-135064819D01*
X81758454Y-134160057D02*
X81806073Y-134112438D01*
X81806073Y-134112438D02*
X81901311Y-134064819D01*
X81901311Y-134064819D02*
X82139406Y-134064819D01*
X82139406Y-134064819D02*
X82234644Y-134112438D01*
X82234644Y-134112438D02*
X82282263Y-134160057D01*
X82282263Y-134160057D02*
X82329882Y-134255295D01*
X82329882Y-134255295D02*
X82329882Y-134350533D01*
X82329882Y-134350533D02*
X82282263Y-134493390D01*
X82282263Y-134493390D02*
X81710835Y-135064819D01*
X81710835Y-135064819D02*
X82329882Y-135064819D01*
X83282263Y-135064819D02*
X82710835Y-135064819D01*
X82996549Y-135064819D02*
X82996549Y-134064819D01*
X82996549Y-134064819D02*
X82901311Y-134207676D01*
X82901311Y-134207676D02*
X82806073Y-134302914D01*
X82806073Y-134302914D02*
X82710835Y-134350533D01*
X102249580Y-61725466D02*
X102297200Y-61773085D01*
X102297200Y-61773085D02*
X102344819Y-61915942D01*
X102344819Y-61915942D02*
X102344819Y-62011180D01*
X102344819Y-62011180D02*
X102297200Y-62154037D01*
X102297200Y-62154037D02*
X102201961Y-62249275D01*
X102201961Y-62249275D02*
X102106723Y-62296894D01*
X102106723Y-62296894D02*
X101916247Y-62344513D01*
X101916247Y-62344513D02*
X101773390Y-62344513D01*
X101773390Y-62344513D02*
X101582914Y-62296894D01*
X101582914Y-62296894D02*
X101487676Y-62249275D01*
X101487676Y-62249275D02*
X101392438Y-62154037D01*
X101392438Y-62154037D02*
X101344819Y-62011180D01*
X101344819Y-62011180D02*
X101344819Y-61915942D01*
X101344819Y-61915942D02*
X101392438Y-61773085D01*
X101392438Y-61773085D02*
X101440057Y-61725466D01*
X101344819Y-60868323D02*
X101344819Y-61058799D01*
X101344819Y-61058799D02*
X101392438Y-61154037D01*
X101392438Y-61154037D02*
X101440057Y-61201656D01*
X101440057Y-61201656D02*
X101582914Y-61296894D01*
X101582914Y-61296894D02*
X101773390Y-61344513D01*
X101773390Y-61344513D02*
X102154342Y-61344513D01*
X102154342Y-61344513D02*
X102249580Y-61296894D01*
X102249580Y-61296894D02*
X102297200Y-61249275D01*
X102297200Y-61249275D02*
X102344819Y-61154037D01*
X102344819Y-61154037D02*
X102344819Y-60963561D01*
X102344819Y-60963561D02*
X102297200Y-60868323D01*
X102297200Y-60868323D02*
X102249580Y-60820704D01*
X102249580Y-60820704D02*
X102154342Y-60773085D01*
X102154342Y-60773085D02*
X101916247Y-60773085D01*
X101916247Y-60773085D02*
X101821009Y-60820704D01*
X101821009Y-60820704D02*
X101773390Y-60868323D01*
X101773390Y-60868323D02*
X101725771Y-60963561D01*
X101725771Y-60963561D02*
X101725771Y-61154037D01*
X101725771Y-61154037D02*
X101773390Y-61249275D01*
X101773390Y-61249275D02*
X101821009Y-61296894D01*
X101821009Y-61296894D02*
X101916247Y-61344513D01*
X109074186Y-55129657D02*
X109121806Y-55177276D01*
X109121806Y-55177276D02*
X109169425Y-55320133D01*
X109169425Y-55320133D02*
X109169425Y-55415371D01*
X109169425Y-55415371D02*
X109121806Y-55558228D01*
X109121806Y-55558228D02*
X109026567Y-55653466D01*
X109026567Y-55653466D02*
X108931329Y-55701085D01*
X108931329Y-55701085D02*
X108740853Y-55748704D01*
X108740853Y-55748704D02*
X108597996Y-55748704D01*
X108597996Y-55748704D02*
X108407520Y-55701085D01*
X108407520Y-55701085D02*
X108312282Y-55653466D01*
X108312282Y-55653466D02*
X108217044Y-55558228D01*
X108217044Y-55558228D02*
X108169425Y-55415371D01*
X108169425Y-55415371D02*
X108169425Y-55320133D01*
X108169425Y-55320133D02*
X108217044Y-55177276D01*
X108217044Y-55177276D02*
X108264663Y-55129657D01*
X109169425Y-54177276D02*
X109169425Y-54748704D01*
X109169425Y-54462990D02*
X108169425Y-54462990D01*
X108169425Y-54462990D02*
X108312282Y-54558228D01*
X108312282Y-54558228D02*
X108407520Y-54653466D01*
X108407520Y-54653466D02*
X108455139Y-54748704D01*
X109169425Y-53701085D02*
X109169425Y-53510609D01*
X109169425Y-53510609D02*
X109121806Y-53415371D01*
X109121806Y-53415371D02*
X109074186Y-53367752D01*
X109074186Y-53367752D02*
X108931329Y-53272514D01*
X108931329Y-53272514D02*
X108740853Y-53224895D01*
X108740853Y-53224895D02*
X108359901Y-53224895D01*
X108359901Y-53224895D02*
X108264663Y-53272514D01*
X108264663Y-53272514D02*
X108217044Y-53320133D01*
X108217044Y-53320133D02*
X108169425Y-53415371D01*
X108169425Y-53415371D02*
X108169425Y-53605847D01*
X108169425Y-53605847D02*
X108217044Y-53701085D01*
X108217044Y-53701085D02*
X108264663Y-53748704D01*
X108264663Y-53748704D02*
X108359901Y-53796323D01*
X108359901Y-53796323D02*
X108597996Y-53796323D01*
X108597996Y-53796323D02*
X108693234Y-53748704D01*
X108693234Y-53748704D02*
X108740853Y-53701085D01*
X108740853Y-53701085D02*
X108788472Y-53605847D01*
X108788472Y-53605847D02*
X108788472Y-53415371D01*
X108788472Y-53415371D02*
X108740853Y-53320133D01*
X108740853Y-53320133D02*
X108693234Y-53272514D01*
X108693234Y-53272514D02*
X108597996Y-53224895D01*
D12*
%TO.C,J15*%
X133649200Y-104508000D02*
X134389200Y-104508000D01*
X134389200Y-104508000D02*
X134389200Y-104008000D01*
X124228200Y-104268000D02*
X134149200Y-104268000D01*
X124228200Y-104268000D02*
X124228200Y-74148000D01*
X127188200Y-104268000D02*
X127188200Y-74148000D01*
X132089200Y-104268000D02*
X132089200Y-74148000D01*
X133589200Y-104268000D02*
X133589200Y-74148000D01*
X134149200Y-104268000D02*
X134149200Y-74148000D01*
X130512200Y-97935000D02*
X130558200Y-97982000D01*
X130728200Y-97742000D02*
X130763200Y-97777000D01*
X128214200Y-95638000D02*
X128250200Y-95673000D01*
X128420200Y-95433000D02*
X128466200Y-95480000D01*
X130512200Y-92935000D02*
X130558200Y-92982000D01*
X130728200Y-92742000D02*
X130763200Y-92777000D01*
X128214200Y-90638000D02*
X128250200Y-90673000D01*
X128420200Y-90433000D02*
X128466200Y-90480000D01*
X130512200Y-87935000D02*
X130558200Y-87982000D01*
X130728200Y-87742000D02*
X130763200Y-87777000D01*
X128214200Y-85638000D02*
X128250200Y-85673000D01*
X128420200Y-85433000D02*
X128466200Y-85480000D01*
X130512200Y-82935000D02*
X130558200Y-82982000D01*
X130728200Y-82742000D02*
X130763200Y-82777000D01*
X128214200Y-80638000D02*
X128250200Y-80673000D01*
X128420200Y-80433000D02*
X128466200Y-80480000D01*
X130512200Y-77935000D02*
X130558200Y-77982000D01*
X130728200Y-77742000D02*
X130763200Y-77777000D01*
X128214200Y-75638000D02*
X128250200Y-75673000D01*
X128420200Y-75433000D02*
X128466200Y-75480000D01*
X124228200Y-74148000D02*
X134149200Y-74148000D01*
X130172242Y-103243427D02*
G75*
G02*
X128805200Y-103243000I-683041J1535420D01*
G01*
X127953773Y-102391042D02*
G75*
G02*
X127954200Y-101024000I1535420J683041D01*
G01*
X131169453Y-101679195D02*
G75*
G02*
X131024200Y-102392000I-1680254J-28806D01*
G01*
X131023956Y-101024682D02*
G75*
G02*
X131169200Y-101708000I-1534756J-683318D01*
G01*
X128806158Y-100172573D02*
G75*
G02*
X130173200Y-100173000I683042J-1535427D01*
G01*
X131169200Y-96708000D02*
G75*
G02*
X127809200Y-96708000I-1680000J0D01*
G01*
X127809200Y-96708000D02*
G75*
G02*
X131169200Y-96708000I1680000J0D01*
G01*
X131169200Y-91708000D02*
G75*
G02*
X127809200Y-91708000I-1680000J0D01*
G01*
X127809200Y-91708000D02*
G75*
G02*
X131169200Y-91708000I1680000J0D01*
G01*
X131169200Y-86708000D02*
G75*
G02*
X127809200Y-86708000I-1680000J0D01*
G01*
X127809200Y-86708000D02*
G75*
G02*
X131169200Y-86708000I1680000J0D01*
G01*
X131169200Y-81708000D02*
G75*
G02*
X127809200Y-81708000I-1680000J0D01*
G01*
X127809200Y-81708000D02*
G75*
G02*
X131169200Y-81708000I1680000J0D01*
G01*
X131169200Y-76708000D02*
G75*
G02*
X127809200Y-76708000I-1680000J0D01*
G01*
X127809200Y-76708000D02*
G75*
G02*
X131169200Y-76708000I1680000J0D01*
G01*
%TO.C,J40*%
X134478000Y-49778600D02*
X134478000Y-50518600D01*
X134478000Y-50518600D02*
X134978000Y-50518600D01*
X134718000Y-40357600D02*
X134718000Y-50278600D01*
X134718000Y-40357600D02*
X194838000Y-40357600D01*
X134718000Y-43317600D02*
X194838000Y-43317600D01*
X134718000Y-48218600D02*
X194838000Y-48218600D01*
X134718000Y-49718600D02*
X194838000Y-49718600D01*
X134718000Y-50278600D02*
X194838000Y-50278600D01*
X141051000Y-46641600D02*
X141004000Y-46687600D01*
X141244000Y-46857600D02*
X141209000Y-46892600D01*
X143348000Y-44343600D02*
X143313000Y-44379600D01*
X143553000Y-44549600D02*
X143506000Y-44595600D01*
X146051000Y-46641600D02*
X146004000Y-46687600D01*
X146244000Y-46857600D02*
X146209000Y-46892600D01*
X148348000Y-44343600D02*
X148313000Y-44379600D01*
X148553000Y-44549600D02*
X148506000Y-44595600D01*
X151051000Y-46641600D02*
X151004000Y-46687600D01*
X151244000Y-46857600D02*
X151209000Y-46892600D01*
X153348000Y-44343600D02*
X153313000Y-44379600D01*
X153553000Y-44549600D02*
X153506000Y-44595600D01*
X156051000Y-46641600D02*
X156004000Y-46687600D01*
X156244000Y-46857600D02*
X156209000Y-46892600D01*
X158348000Y-44343600D02*
X158313000Y-44379600D01*
X158553000Y-44549600D02*
X158506000Y-44595600D01*
X161051000Y-46641600D02*
X161004000Y-46687600D01*
X161244000Y-46857600D02*
X161209000Y-46892600D01*
X163348000Y-44343600D02*
X163313000Y-44379600D01*
X163553000Y-44549600D02*
X163506000Y-44595600D01*
X166051000Y-46641600D02*
X166004000Y-46687600D01*
X166244000Y-46857600D02*
X166209000Y-46892600D01*
X168348000Y-44343600D02*
X168313000Y-44379600D01*
X168553000Y-44549600D02*
X168506000Y-44595600D01*
X171051000Y-46641600D02*
X171004000Y-46687600D01*
X171244000Y-46857600D02*
X171209000Y-46892600D01*
X173348000Y-44343600D02*
X173313000Y-44379600D01*
X173553000Y-44549600D02*
X173506000Y-44595600D01*
X176051000Y-46641600D02*
X176004000Y-46687600D01*
X176244000Y-46857600D02*
X176209000Y-46892600D01*
X178348000Y-44343600D02*
X178313000Y-44379600D01*
X178553000Y-44549600D02*
X178506000Y-44595600D01*
X181051000Y-46641600D02*
X181004000Y-46687600D01*
X181244000Y-46857600D02*
X181209000Y-46892600D01*
X183348000Y-44343600D02*
X183313000Y-44379600D01*
X183553000Y-44549600D02*
X183506000Y-44595600D01*
X186051000Y-46641600D02*
X186004000Y-46687600D01*
X186244000Y-46857600D02*
X186209000Y-46892600D01*
X188348000Y-44343600D02*
X188313000Y-44379600D01*
X188553000Y-44549600D02*
X188506000Y-44595600D01*
X191051000Y-46641600D02*
X191004000Y-46687600D01*
X191244000Y-46857600D02*
X191209000Y-46892600D01*
X193348000Y-44343600D02*
X193313000Y-44379600D01*
X193553000Y-44549600D02*
X193506000Y-44595600D01*
X194838000Y-40357600D02*
X194838000Y-50278600D01*
X135742573Y-46301642D02*
G75*
G02*
X135743000Y-44934600I1535420J683041D01*
G01*
X136594958Y-44083173D02*
G75*
G02*
X137962000Y-44083600I683041J-1535420D01*
G01*
X137306805Y-47298853D02*
G75*
G02*
X136594000Y-47153600I-28806J1680254D01*
G01*
X137961318Y-47153356D02*
G75*
G02*
X137278000Y-47298600I-683318J1534756D01*
G01*
X138813427Y-44935558D02*
G75*
G02*
X138813000Y-46302600I-1535427J-683042D01*
G01*
X143958000Y-45618600D02*
G75*
G02*
X140598000Y-45618600I-1680000J0D01*
G01*
X140598000Y-45618600D02*
G75*
G02*
X143958000Y-45618600I1680000J0D01*
G01*
X148958000Y-45618600D02*
G75*
G02*
X145598000Y-45618600I-1680000J0D01*
G01*
X145598000Y-45618600D02*
G75*
G02*
X148958000Y-45618600I1680000J0D01*
G01*
X153958000Y-45618600D02*
G75*
G02*
X150598000Y-45618600I-1680000J0D01*
G01*
X150598000Y-45618600D02*
G75*
G02*
X153958000Y-45618600I1680000J0D01*
G01*
X158958000Y-45618600D02*
G75*
G02*
X155598000Y-45618600I-1680000J0D01*
G01*
X155598000Y-45618600D02*
G75*
G02*
X158958000Y-45618600I1680000J0D01*
G01*
X163958000Y-45618600D02*
G75*
G02*
X160598000Y-45618600I-1680000J0D01*
G01*
X160598000Y-45618600D02*
G75*
G02*
X163958000Y-45618600I1680000J0D01*
G01*
X168958000Y-45618600D02*
G75*
G02*
X165598000Y-45618600I-1680000J0D01*
G01*
X165598000Y-45618600D02*
G75*
G02*
X168958000Y-45618600I1680000J0D01*
G01*
X173958000Y-45618600D02*
G75*
G02*
X170598000Y-45618600I-1680000J0D01*
G01*
X170598000Y-45618600D02*
G75*
G02*
X173958000Y-45618600I1680000J0D01*
G01*
X178958000Y-45618600D02*
G75*
G02*
X175598000Y-45618600I-1680000J0D01*
G01*
X175598000Y-45618600D02*
G75*
G02*
X178958000Y-45618600I1680000J0D01*
G01*
X183958000Y-45618600D02*
G75*
G02*
X180598000Y-45618600I-1680000J0D01*
G01*
X180598000Y-45618600D02*
G75*
G02*
X183958000Y-45618600I1680000J0D01*
G01*
X188958000Y-45618600D02*
G75*
G02*
X185598000Y-45618600I-1680000J0D01*
G01*
X185598000Y-45618600D02*
G75*
G02*
X188958000Y-45618600I1680000J0D01*
G01*
X193958000Y-45618600D02*
G75*
G02*
X190598000Y-45618600I-1680000J0D01*
G01*
X190598000Y-45618600D02*
G75*
G02*
X193958000Y-45618600I1680000J0D01*
G01*
%TO.C,J36*%
X143976400Y-85490800D02*
X143976400Y-86230800D01*
X143976400Y-86230800D02*
X144476400Y-86230800D01*
X144216400Y-76069800D02*
X144216400Y-85990800D01*
X144216400Y-76069800D02*
X174336400Y-76069800D01*
X144216400Y-79029800D02*
X174336400Y-79029800D01*
X144216400Y-83930800D02*
X174336400Y-83930800D01*
X144216400Y-85430800D02*
X174336400Y-85430800D01*
X144216400Y-85990800D02*
X174336400Y-85990800D01*
X150549400Y-82353800D02*
X150502400Y-82399800D01*
X150742400Y-82569800D02*
X150707400Y-82604800D01*
X152846400Y-80055800D02*
X152811400Y-80091800D01*
X153051400Y-80261800D02*
X153004400Y-80307800D01*
X155549400Y-82353800D02*
X155502400Y-82399800D01*
X155742400Y-82569800D02*
X155707400Y-82604800D01*
X157846400Y-80055800D02*
X157811400Y-80091800D01*
X158051400Y-80261800D02*
X158004400Y-80307800D01*
X160549400Y-82353800D02*
X160502400Y-82399800D01*
X160742400Y-82569800D02*
X160707400Y-82604800D01*
X162846400Y-80055800D02*
X162811400Y-80091800D01*
X163051400Y-80261800D02*
X163004400Y-80307800D01*
X165549400Y-82353800D02*
X165502400Y-82399800D01*
X165742400Y-82569800D02*
X165707400Y-82604800D01*
X167846400Y-80055800D02*
X167811400Y-80091800D01*
X168051400Y-80261800D02*
X168004400Y-80307800D01*
X170549400Y-82353800D02*
X170502400Y-82399800D01*
X170742400Y-82569800D02*
X170707400Y-82604800D01*
X172846400Y-80055800D02*
X172811400Y-80091800D01*
X173051400Y-80261800D02*
X173004400Y-80307800D01*
X174336400Y-76069800D02*
X174336400Y-85990800D01*
X145240973Y-82013842D02*
G75*
G02*
X145241400Y-80646800I1535420J683041D01*
G01*
X146093358Y-79795373D02*
G75*
G02*
X147460400Y-79795800I683041J-1535420D01*
G01*
X146805205Y-83011053D02*
G75*
G02*
X146092400Y-82865800I-28806J1680254D01*
G01*
X147459718Y-82865556D02*
G75*
G02*
X146776400Y-83010800I-683318J1534756D01*
G01*
X148311827Y-80647758D02*
G75*
G02*
X148311400Y-82014800I-1535427J-683042D01*
G01*
X153456400Y-81330800D02*
G75*
G02*
X150096400Y-81330800I-1680000J0D01*
G01*
X150096400Y-81330800D02*
G75*
G02*
X153456400Y-81330800I1680000J0D01*
G01*
X158456400Y-81330800D02*
G75*
G02*
X155096400Y-81330800I-1680000J0D01*
G01*
X155096400Y-81330800D02*
G75*
G02*
X158456400Y-81330800I1680000J0D01*
G01*
X163456400Y-81330800D02*
G75*
G02*
X160096400Y-81330800I-1680000J0D01*
G01*
X160096400Y-81330800D02*
G75*
G02*
X163456400Y-81330800I1680000J0D01*
G01*
X168456400Y-81330800D02*
G75*
G02*
X165096400Y-81330800I-1680000J0D01*
G01*
X165096400Y-81330800D02*
G75*
G02*
X168456400Y-81330800I1680000J0D01*
G01*
X173456400Y-81330800D02*
G75*
G02*
X170096400Y-81330800I-1680000J0D01*
G01*
X170096400Y-81330800D02*
G75*
G02*
X173456400Y-81330800I1680000J0D01*
G01*
%TO.C,J39*%
X196133200Y-90117600D02*
X196873200Y-90117600D01*
X196873200Y-90117600D02*
X196873200Y-89617600D01*
X186712200Y-89877600D02*
X196633200Y-89877600D01*
X186712200Y-89877600D02*
X186712200Y-74757600D01*
X189672200Y-89877600D02*
X189672200Y-74757600D01*
X194573200Y-89877600D02*
X194573200Y-74757600D01*
X196073200Y-89877600D02*
X196073200Y-74757600D01*
X196633200Y-89877600D02*
X196633200Y-74757600D01*
X192996200Y-83544600D02*
X193042200Y-83591600D01*
X193212200Y-83351600D02*
X193247200Y-83386600D01*
X190698200Y-81247600D02*
X190734200Y-81282600D01*
X190904200Y-81042600D02*
X190950200Y-81089600D01*
X192996200Y-78544600D02*
X193042200Y-78591600D01*
X193212200Y-78351600D02*
X193247200Y-78386600D01*
X190698200Y-76247600D02*
X190734200Y-76282600D01*
X190904200Y-76042600D02*
X190950200Y-76089600D01*
X186712200Y-74757600D02*
X196633200Y-74757600D01*
X192656242Y-88853027D02*
G75*
G02*
X191289200Y-88852600I-683041J1535420D01*
G01*
X190437773Y-88000642D02*
G75*
G02*
X190438200Y-86633600I1535420J683041D01*
G01*
X193653453Y-87288795D02*
G75*
G02*
X193508200Y-88001600I-1680254J-28806D01*
G01*
X193507956Y-86634282D02*
G75*
G02*
X193653200Y-87317600I-1534756J-683318D01*
G01*
X191290158Y-85782173D02*
G75*
G02*
X192657200Y-85782600I683042J-1535427D01*
G01*
X193653200Y-82317600D02*
G75*
G02*
X190293200Y-82317600I-1680000J0D01*
G01*
X190293200Y-82317600D02*
G75*
G02*
X193653200Y-82317600I1680000J0D01*
G01*
X193653200Y-77317600D02*
G75*
G02*
X190293200Y-77317600I-1680000J0D01*
G01*
X190293200Y-77317600D02*
G75*
G02*
X193653200Y-77317600I1680000J0D01*
G01*
%TO.C,J38*%
X193653200Y-93472000D02*
G75*
G02*
X190293200Y-93472000I-1680000J0D01*
G01*
X190293200Y-93472000D02*
G75*
G02*
X193653200Y-93472000I1680000J0D01*
G01*
X193653200Y-98472000D02*
G75*
G02*
X190293200Y-98472000I-1680000J0D01*
G01*
X190293200Y-98472000D02*
G75*
G02*
X193653200Y-98472000I1680000J0D01*
G01*
X191290158Y-101936573D02*
G75*
G02*
X192657200Y-101937000I683042J-1535427D01*
G01*
X193507956Y-102788682D02*
G75*
G02*
X193653200Y-103472000I-1534756J-683318D01*
G01*
X193653453Y-103443195D02*
G75*
G02*
X193508200Y-104156000I-1680254J-28806D01*
G01*
X190437773Y-104155042D02*
G75*
G02*
X190438200Y-102788000I1535420J683041D01*
G01*
X192656242Y-105007427D02*
G75*
G02*
X191289200Y-105007000I-683041J1535420D01*
G01*
X186712200Y-90912000D02*
X196633200Y-90912000D01*
X190904200Y-92197000D02*
X190950200Y-92244000D01*
X190698200Y-92402000D02*
X190734200Y-92437000D01*
X193212200Y-94506000D02*
X193247200Y-94541000D01*
X192996200Y-94699000D02*
X193042200Y-94746000D01*
X190904200Y-97197000D02*
X190950200Y-97244000D01*
X190698200Y-97402000D02*
X190734200Y-97437000D01*
X193212200Y-99506000D02*
X193247200Y-99541000D01*
X192996200Y-99699000D02*
X193042200Y-99746000D01*
X196633200Y-106032000D02*
X196633200Y-90912000D01*
X196073200Y-106032000D02*
X196073200Y-90912000D01*
X194573200Y-106032000D02*
X194573200Y-90912000D01*
X189672200Y-106032000D02*
X189672200Y-90912000D01*
X186712200Y-106032000D02*
X186712200Y-90912000D01*
X186712200Y-106032000D02*
X196633200Y-106032000D01*
X196873200Y-106272000D02*
X196873200Y-105772000D01*
X196133200Y-106272000D02*
X196873200Y-106272000D01*
%TO.C,J35*%
X198797200Y-124567000D02*
X198797200Y-123827000D01*
X198797200Y-123827000D02*
X198297200Y-123827000D01*
X198557200Y-133988000D02*
X198557200Y-124067000D01*
X198557200Y-133988000D02*
X188437200Y-133988000D01*
X198557200Y-131028000D02*
X188437200Y-131028000D01*
X198557200Y-126127000D02*
X188437200Y-126127000D01*
X198557200Y-124627000D02*
X188437200Y-124627000D01*
X198557200Y-124067000D02*
X188437200Y-124067000D01*
X192224200Y-127704000D02*
X192271200Y-127658000D01*
X192031200Y-127488000D02*
X192066200Y-127453000D01*
X189927200Y-130002000D02*
X189962200Y-129966000D01*
X189722200Y-129796000D02*
X189769200Y-129750000D01*
X188437200Y-133988000D02*
X188437200Y-124067000D01*
X197532627Y-128043958D02*
G75*
G02*
X197532200Y-129411000I-1535420J-683041D01*
G01*
X196680242Y-130262427D02*
G75*
G02*
X195313200Y-130262000I-683041J1535420D01*
G01*
X195968395Y-127046747D02*
G75*
G02*
X196681200Y-127192000I28806J-1680254D01*
G01*
X195313882Y-127192244D02*
G75*
G02*
X195997200Y-127047000I683318J-1534756D01*
G01*
X194461773Y-129410042D02*
G75*
G02*
X194462200Y-128043000I1535427J683042D01*
G01*
X192677200Y-128727000D02*
G75*
G02*
X189317200Y-128727000I-1680000J0D01*
G01*
X189317200Y-128727000D02*
G75*
G02*
X192677200Y-128727000I1680000J0D01*
G01*
%TO.C,J32*%
X196133200Y-117448000D02*
X196873200Y-117448000D01*
X196873200Y-117448000D02*
X196873200Y-116948000D01*
X186712200Y-117208000D02*
X196633200Y-117208000D01*
X186712200Y-117208000D02*
X186712200Y-107088000D01*
X189672200Y-117208000D02*
X189672200Y-107088000D01*
X194573200Y-117208000D02*
X194573200Y-107088000D01*
X196073200Y-117208000D02*
X196073200Y-107088000D01*
X196633200Y-117208000D02*
X196633200Y-107088000D01*
X192996200Y-110875000D02*
X193042200Y-110922000D01*
X193212200Y-110682000D02*
X193247200Y-110717000D01*
X190698200Y-108578000D02*
X190734200Y-108613000D01*
X190904200Y-108373000D02*
X190950200Y-108420000D01*
X186712200Y-107088000D02*
X196633200Y-107088000D01*
X192656242Y-116183427D02*
G75*
G02*
X191289200Y-116183000I-683041J1535420D01*
G01*
X190437773Y-115331042D02*
G75*
G02*
X190438200Y-113964000I1535420J683041D01*
G01*
X193653453Y-114619195D02*
G75*
G02*
X193508200Y-115332000I-1680254J-28806D01*
G01*
X193507956Y-113964682D02*
G75*
G02*
X193653200Y-114648000I-1534756J-683318D01*
G01*
X191290158Y-113112573D02*
G75*
G02*
X192657200Y-113113000I683042J-1535427D01*
G01*
X193653200Y-109648000D02*
G75*
G02*
X190293200Y-109648000I-1680000J0D01*
G01*
X190293200Y-109648000D02*
G75*
G02*
X193653200Y-109648000I1680000J0D01*
G01*
%TO.C,J31*%
X56049200Y-29063000D02*
X56049200Y-28323000D01*
X56049200Y-28323000D02*
X55549200Y-28323000D01*
X55809200Y-38484000D02*
X55809200Y-28563000D01*
X55809200Y-38484000D02*
X45689200Y-38484000D01*
X55809200Y-35524000D02*
X45689200Y-35524000D01*
X55809200Y-30623000D02*
X45689200Y-30623000D01*
X55809200Y-29123000D02*
X45689200Y-29123000D01*
X55809200Y-28563000D02*
X45689200Y-28563000D01*
X49476200Y-32200000D02*
X49523200Y-32154000D01*
X49283200Y-31984000D02*
X49318200Y-31949000D01*
X47179200Y-34498000D02*
X47214200Y-34462000D01*
X46974200Y-34292000D02*
X47021200Y-34246000D01*
X45689200Y-38484000D02*
X45689200Y-28563000D01*
X54784627Y-32539958D02*
G75*
G02*
X54784200Y-33907000I-1535420J-683041D01*
G01*
X53932242Y-34758427D02*
G75*
G02*
X52565200Y-34758000I-683041J1535420D01*
G01*
X53220395Y-31542747D02*
G75*
G02*
X53933200Y-31688000I28806J-1680254D01*
G01*
X52565882Y-31688244D02*
G75*
G02*
X53249200Y-31543000I683318J-1534756D01*
G01*
X51713773Y-33906042D02*
G75*
G02*
X51714200Y-32539000I1535427J683042D01*
G01*
X49929200Y-33223000D02*
G75*
G02*
X46569200Y-33223000I-1680000J0D01*
G01*
X46569200Y-33223000D02*
G75*
G02*
X49929200Y-33223000I1680000J0D01*
G01*
%TO.C,J14*%
X134578400Y-38145200D02*
X134578400Y-38885200D01*
X134578400Y-38885200D02*
X135078400Y-38885200D01*
X134818400Y-28724200D02*
X134818400Y-38645200D01*
X134818400Y-28724200D02*
X194938400Y-28724200D01*
X134818400Y-31684200D02*
X194938400Y-31684200D01*
X134818400Y-36585200D02*
X194938400Y-36585200D01*
X134818400Y-38085200D02*
X194938400Y-38085200D01*
X134818400Y-38645200D02*
X194938400Y-38645200D01*
X141151400Y-35008200D02*
X141104400Y-35054200D01*
X141344400Y-35224200D02*
X141309400Y-35259200D01*
X143448400Y-32710200D02*
X143413400Y-32746200D01*
X143653400Y-32916200D02*
X143606400Y-32962200D01*
X146151400Y-35008200D02*
X146104400Y-35054200D01*
X146344400Y-35224200D02*
X146309400Y-35259200D01*
X148448400Y-32710200D02*
X148413400Y-32746200D01*
X148653400Y-32916200D02*
X148606400Y-32962200D01*
X151151400Y-35008200D02*
X151104400Y-35054200D01*
X151344400Y-35224200D02*
X151309400Y-35259200D01*
X153448400Y-32710200D02*
X153413400Y-32746200D01*
X153653400Y-32916200D02*
X153606400Y-32962200D01*
X156151400Y-35008200D02*
X156104400Y-35054200D01*
X156344400Y-35224200D02*
X156309400Y-35259200D01*
X158448400Y-32710200D02*
X158413400Y-32746200D01*
X158653400Y-32916200D02*
X158606400Y-32962200D01*
X161151400Y-35008200D02*
X161104400Y-35054200D01*
X161344400Y-35224200D02*
X161309400Y-35259200D01*
X163448400Y-32710200D02*
X163413400Y-32746200D01*
X163653400Y-32916200D02*
X163606400Y-32962200D01*
X166151400Y-35008200D02*
X166104400Y-35054200D01*
X166344400Y-35224200D02*
X166309400Y-35259200D01*
X168448400Y-32710200D02*
X168413400Y-32746200D01*
X168653400Y-32916200D02*
X168606400Y-32962200D01*
X171151400Y-35008200D02*
X171104400Y-35054200D01*
X171344400Y-35224200D02*
X171309400Y-35259200D01*
X173448400Y-32710200D02*
X173413400Y-32746200D01*
X173653400Y-32916200D02*
X173606400Y-32962200D01*
X176151400Y-35008200D02*
X176104400Y-35054200D01*
X176344400Y-35224200D02*
X176309400Y-35259200D01*
X178448400Y-32710200D02*
X178413400Y-32746200D01*
X178653400Y-32916200D02*
X178606400Y-32962200D01*
X181151400Y-35008200D02*
X181104400Y-35054200D01*
X181344400Y-35224200D02*
X181309400Y-35259200D01*
X183448400Y-32710200D02*
X183413400Y-32746200D01*
X183653400Y-32916200D02*
X183606400Y-32962200D01*
X186151400Y-35008200D02*
X186104400Y-35054200D01*
X186344400Y-35224200D02*
X186309400Y-35259200D01*
X188448400Y-32710200D02*
X188413400Y-32746200D01*
X188653400Y-32916200D02*
X188606400Y-32962200D01*
X191151400Y-35008200D02*
X191104400Y-35054200D01*
X191344400Y-35224200D02*
X191309400Y-35259200D01*
X193448400Y-32710200D02*
X193413400Y-32746200D01*
X193653400Y-32916200D02*
X193606400Y-32962200D01*
X194938400Y-28724200D02*
X194938400Y-38645200D01*
X135842973Y-34668242D02*
G75*
G02*
X135843400Y-33301200I1535420J683041D01*
G01*
X136695358Y-32449773D02*
G75*
G02*
X138062400Y-32450200I683041J-1535420D01*
G01*
X137407205Y-35665453D02*
G75*
G02*
X136694400Y-35520200I-28806J1680254D01*
G01*
X138061718Y-35519956D02*
G75*
G02*
X137378400Y-35665200I-683318J1534756D01*
G01*
X138913827Y-33302158D02*
G75*
G02*
X138913400Y-34669200I-1535427J-683042D01*
G01*
X144058400Y-33985200D02*
G75*
G02*
X140698400Y-33985200I-1680000J0D01*
G01*
X140698400Y-33985200D02*
G75*
G02*
X144058400Y-33985200I1680000J0D01*
G01*
X149058400Y-33985200D02*
G75*
G02*
X145698400Y-33985200I-1680000J0D01*
G01*
X145698400Y-33985200D02*
G75*
G02*
X149058400Y-33985200I1680000J0D01*
G01*
X154058400Y-33985200D02*
G75*
G02*
X150698400Y-33985200I-1680000J0D01*
G01*
X150698400Y-33985200D02*
G75*
G02*
X154058400Y-33985200I1680000J0D01*
G01*
X159058400Y-33985200D02*
G75*
G02*
X155698400Y-33985200I-1680000J0D01*
G01*
X155698400Y-33985200D02*
G75*
G02*
X159058400Y-33985200I1680000J0D01*
G01*
X164058400Y-33985200D02*
G75*
G02*
X160698400Y-33985200I-1680000J0D01*
G01*
X160698400Y-33985200D02*
G75*
G02*
X164058400Y-33985200I1680000J0D01*
G01*
X169058400Y-33985200D02*
G75*
G02*
X165698400Y-33985200I-1680000J0D01*
G01*
X165698400Y-33985200D02*
G75*
G02*
X169058400Y-33985200I1680000J0D01*
G01*
X174058400Y-33985200D02*
G75*
G02*
X170698400Y-33985200I-1680000J0D01*
G01*
X170698400Y-33985200D02*
G75*
G02*
X174058400Y-33985200I1680000J0D01*
G01*
X179058400Y-33985200D02*
G75*
G02*
X175698400Y-33985200I-1680000J0D01*
G01*
X175698400Y-33985200D02*
G75*
G02*
X179058400Y-33985200I1680000J0D01*
G01*
X184058400Y-33985200D02*
G75*
G02*
X180698400Y-33985200I-1680000J0D01*
G01*
X180698400Y-33985200D02*
G75*
G02*
X184058400Y-33985200I1680000J0D01*
G01*
X189058400Y-33985200D02*
G75*
G02*
X185698400Y-33985200I-1680000J0D01*
G01*
X185698400Y-33985200D02*
G75*
G02*
X189058400Y-33985200I1680000J0D01*
G01*
X194058400Y-33985200D02*
G75*
G02*
X190698400Y-33985200I-1680000J0D01*
G01*
X190698400Y-33985200D02*
G75*
G02*
X194058400Y-33985200I1680000J0D01*
G01*
%TO.C,C41*%
X188088400Y-65783600D02*
X188088400Y-68023600D01*
X188088400Y-65783600D02*
X195328400Y-65783600D01*
X188088400Y-68023600D02*
X195328400Y-68023600D01*
X195328400Y-65783600D02*
X195328400Y-68023600D01*
%TO.C,C40*%
X188088400Y-59783600D02*
X188088400Y-62023600D01*
X188088400Y-59783600D02*
X195328400Y-59783600D01*
X188088400Y-62023600D02*
X195328400Y-62023600D01*
X195328400Y-59783600D02*
X195328400Y-62023600D01*
%TO.C,C39*%
X178487200Y-66037600D02*
X178487200Y-68277600D01*
X178487200Y-66037600D02*
X185727200Y-66037600D01*
X178487200Y-68277600D02*
X185727200Y-68277600D01*
X185727200Y-66037600D02*
X185727200Y-68277600D01*
%TO.C,C38*%
X178487200Y-60037600D02*
X178487200Y-62277600D01*
X178487200Y-60037600D02*
X185727200Y-60037600D01*
X178487200Y-62277600D02*
X185727200Y-62277600D01*
X185727200Y-60037600D02*
X185727200Y-62277600D01*
%TO.C,C37*%
X168682800Y-65783600D02*
X168682800Y-68023600D01*
X168682800Y-65783600D02*
X175922800Y-65783600D01*
X168682800Y-68023600D02*
X175922800Y-68023600D01*
X175922800Y-65783600D02*
X175922800Y-68023600D01*
%TO.C,C36*%
X168682800Y-59783600D02*
X168682800Y-62023600D01*
X168682800Y-59783600D02*
X175922800Y-59783600D01*
X168682800Y-62023600D02*
X175922800Y-62023600D01*
X175922800Y-59783600D02*
X175922800Y-62023600D01*
%TO.C,C13*%
X158827600Y-65783600D02*
X158827600Y-68023600D01*
X158827600Y-65783600D02*
X166067600Y-65783600D01*
X158827600Y-68023600D02*
X166067600Y-68023600D01*
X166067600Y-65783600D02*
X166067600Y-68023600D01*
%TO.C,C12*%
X158827600Y-59783600D02*
X158827600Y-62023600D01*
X158827600Y-59783600D02*
X166067600Y-59783600D01*
X158827600Y-62023600D02*
X166067600Y-62023600D01*
X166067600Y-59783600D02*
X166067600Y-62023600D01*
%TO.C,C11*%
X148638400Y-65636800D02*
X148638400Y-67876800D01*
X148638400Y-65636800D02*
X155878400Y-65636800D01*
X148638400Y-67876800D02*
X155878400Y-67876800D01*
X155878400Y-65636800D02*
X155878400Y-67876800D01*
%TO.C,C10*%
X148638400Y-59636800D02*
X148638400Y-61876800D01*
X148638400Y-59636800D02*
X155878400Y-59636800D01*
X148638400Y-61876800D02*
X155878400Y-61876800D01*
X155878400Y-59636800D02*
X155878400Y-61876800D01*
%TO.C,C9*%
X138558400Y-65529600D02*
X138558400Y-67769600D01*
X138558400Y-65529600D02*
X145798400Y-65529600D01*
X138558400Y-67769600D02*
X145798400Y-67769600D01*
X145798400Y-65529600D02*
X145798400Y-67769600D01*
%TO.C,C8*%
X138558400Y-59529600D02*
X138558400Y-61769600D01*
X138558400Y-59529600D02*
X145798400Y-59529600D01*
X138558400Y-61769600D02*
X145798400Y-61769600D01*
X145798400Y-59529600D02*
X145798400Y-61769600D01*
%TO.C,C3*%
X88995006Y-55184600D02*
X91235006Y-55184600D01*
X88995006Y-62424600D02*
X88995006Y-55184600D01*
X88995006Y-62424600D02*
X91235006Y-62424600D01*
X91235006Y-62424600D02*
X91235006Y-55184600D01*
%TO.C,J20*%
X116566000Y-133734200D02*
X116566000Y-123813200D01*
X117851000Y-129542200D02*
X117898000Y-129496200D01*
X118056000Y-129748200D02*
X118091000Y-129712200D01*
X120160000Y-127234200D02*
X120195000Y-127199200D01*
X120353000Y-127450200D02*
X120400000Y-127404200D01*
X122851000Y-129542200D02*
X122898000Y-129496200D01*
X123056000Y-129748200D02*
X123091000Y-129712200D01*
X125160000Y-127234200D02*
X125195000Y-127199200D01*
X125353000Y-127450200D02*
X125400000Y-127404200D01*
X131686000Y-123813200D02*
X116566000Y-123813200D01*
X131686000Y-124373200D02*
X116566000Y-124373200D01*
X131686000Y-125873200D02*
X116566000Y-125873200D01*
X131686000Y-130774200D02*
X116566000Y-130774200D01*
X131686000Y-133734200D02*
X116566000Y-133734200D01*
X131686000Y-133734200D02*
X131686000Y-123813200D01*
X131926000Y-123573200D02*
X131426000Y-123573200D01*
X131926000Y-124313200D02*
X131926000Y-123573200D01*
X127590573Y-129156242D02*
G75*
G02*
X127591000Y-127789200I1535427J683042D01*
G01*
X128442682Y-126938444D02*
G75*
G02*
X129126000Y-126793200I683318J-1534756D01*
G01*
X129097195Y-126792947D02*
G75*
G02*
X129810000Y-126938200I28806J-1680254D01*
G01*
X129809042Y-130008627D02*
G75*
G02*
X128442000Y-130008200I-683041J1535420D01*
G01*
X130661427Y-127790158D02*
G75*
G02*
X130661000Y-129157200I-1535420J-683041D01*
G01*
X120806000Y-128473200D02*
G75*
G02*
X117446000Y-128473200I-1680000J0D01*
G01*
X117446000Y-128473200D02*
G75*
G02*
X120806000Y-128473200I1680000J0D01*
G01*
X125806000Y-128473200D02*
G75*
G02*
X122446000Y-128473200I-1680000J0D01*
G01*
X122446000Y-128473200D02*
G75*
G02*
X125806000Y-128473200I1680000J0D01*
G01*
%TO.C,C20*%
X114823006Y-41621200D02*
X117063006Y-41621200D01*
X114823006Y-48861200D02*
X114823006Y-41621200D01*
X114823006Y-48861200D02*
X117063006Y-48861200D01*
X117063006Y-48861200D02*
X117063006Y-41621200D01*
%TO.C,J8*%
X91340800Y-74709800D02*
X101261800Y-74709800D01*
X91340800Y-104829800D02*
X91340800Y-74709800D01*
X91340800Y-104829800D02*
X101261800Y-104829800D01*
X94300800Y-104829800D02*
X94300800Y-74709800D01*
X95326800Y-76199800D02*
X95362800Y-76234800D01*
X95326800Y-81199800D02*
X95362800Y-81234800D01*
X95326800Y-86199800D02*
X95362800Y-86234800D01*
X95326800Y-91199800D02*
X95362800Y-91234800D01*
X95326800Y-96199800D02*
X95362800Y-96234800D01*
X95532800Y-75994800D02*
X95578800Y-76041800D01*
X95532800Y-80994800D02*
X95578800Y-81041800D01*
X95532800Y-85994800D02*
X95578800Y-86041800D01*
X95532800Y-90994800D02*
X95578800Y-91041800D01*
X95532800Y-95994800D02*
X95578800Y-96041800D01*
X97624800Y-78496800D02*
X97670800Y-78543800D01*
X97624800Y-83496800D02*
X97670800Y-83543800D01*
X97624800Y-88496800D02*
X97670800Y-88543800D01*
X97624800Y-93496800D02*
X97670800Y-93543800D01*
X97624800Y-98496800D02*
X97670800Y-98543800D01*
X97840800Y-78303800D02*
X97875800Y-78338800D01*
X97840800Y-83303800D02*
X97875800Y-83338800D01*
X97840800Y-88303800D02*
X97875800Y-88338800D01*
X97840800Y-93303800D02*
X97875800Y-93338800D01*
X97840800Y-98303800D02*
X97875800Y-98338800D01*
X99201800Y-104829800D02*
X99201800Y-74709800D01*
X100701800Y-104829800D02*
X100701800Y-74709800D01*
X100761800Y-105069800D02*
X101501800Y-105069800D01*
X101261800Y-104829800D02*
X101261800Y-74709800D01*
X101501800Y-105069800D02*
X101501800Y-104569800D01*
X95066373Y-102952842D02*
G75*
G02*
X95066800Y-101585800I1535420J683041D01*
G01*
X95918758Y-100734373D02*
G75*
G02*
X97285800Y-100734800I683042J-1535427D01*
G01*
X97284842Y-103805227D02*
G75*
G02*
X95917800Y-103804800I-683041J1535420D01*
G01*
X98136556Y-101586482D02*
G75*
G02*
X98281800Y-102269800I-1534756J-683318D01*
G01*
X98282053Y-102240995D02*
G75*
G02*
X98136800Y-102953800I-1680254J-28806D01*
G01*
X98281800Y-77269800D02*
G75*
G02*
X94921800Y-77269800I-1680000J0D01*
G01*
X94921800Y-77269800D02*
G75*
G02*
X98281800Y-77269800I1680000J0D01*
G01*
X98281800Y-82269800D02*
G75*
G02*
X94921800Y-82269800I-1680000J0D01*
G01*
X94921800Y-82269800D02*
G75*
G02*
X98281800Y-82269800I1680000J0D01*
G01*
X98281800Y-87269800D02*
G75*
G02*
X94921800Y-87269800I-1680000J0D01*
G01*
X94921800Y-87269800D02*
G75*
G02*
X98281800Y-87269800I1680000J0D01*
G01*
X98281800Y-92269800D02*
G75*
G02*
X94921800Y-92269800I-1680000J0D01*
G01*
X94921800Y-92269800D02*
G75*
G02*
X98281800Y-92269800I1680000J0D01*
G01*
X98281800Y-97269800D02*
G75*
G02*
X94921800Y-97269800I-1680000J0D01*
G01*
X94921800Y-97269800D02*
G75*
G02*
X98281800Y-97269800I1680000J0D01*
G01*
%TO.C,C28*%
X151548000Y-114490000D02*
X151548000Y-121730000D01*
X153788000Y-114490000D02*
X151548000Y-114490000D01*
X153788000Y-114490000D02*
X153788000Y-121730000D01*
X153788000Y-121730000D02*
X151548000Y-121730000D01*
%TO.C,C33*%
X145063006Y-114479200D02*
X145063006Y-121719200D01*
X147303006Y-114479200D02*
X145063006Y-114479200D01*
X147303006Y-114479200D02*
X147303006Y-121719200D01*
X147303006Y-121719200D02*
X145063006Y-121719200D01*
%TO.C,J11*%
X45607206Y-41665200D02*
X55528206Y-41665200D01*
X45607206Y-56785200D02*
X45607206Y-41665200D01*
X45607206Y-56785200D02*
X55528206Y-56785200D01*
X48567206Y-56785200D02*
X48567206Y-41665200D01*
X49593206Y-43155200D02*
X49629206Y-43190200D01*
X49593206Y-48155200D02*
X49629206Y-48190200D01*
X49799206Y-42950200D02*
X49845206Y-42997200D01*
X49799206Y-47950200D02*
X49845206Y-47997200D01*
X51891206Y-45452200D02*
X51937206Y-45499200D01*
X51891206Y-50452200D02*
X51937206Y-50499200D01*
X52107206Y-45259200D02*
X52142206Y-45294200D01*
X52107206Y-50259200D02*
X52142206Y-50294200D01*
X53468206Y-56785200D02*
X53468206Y-41665200D01*
X54968206Y-56785200D02*
X54968206Y-41665200D01*
X55028206Y-57025200D02*
X55768206Y-57025200D01*
X55528206Y-56785200D02*
X55528206Y-41665200D01*
X55768206Y-57025200D02*
X55768206Y-56525200D01*
X49332779Y-54908242D02*
G75*
G02*
X49333206Y-53541200I1535420J683041D01*
G01*
X50185164Y-52689773D02*
G75*
G02*
X51552206Y-52690200I683042J-1535427D01*
G01*
X51551248Y-55760627D02*
G75*
G02*
X50184206Y-55760200I-683041J1535420D01*
G01*
X52402962Y-53541882D02*
G75*
G02*
X52548206Y-54225200I-1534756J-683318D01*
G01*
X52548459Y-54196395D02*
G75*
G02*
X52403206Y-54909200I-1680254J-28806D01*
G01*
X52548206Y-44225200D02*
G75*
G02*
X49188206Y-44225200I-1680000J0D01*
G01*
X49188206Y-44225200D02*
G75*
G02*
X52548206Y-44225200I1680000J0D01*
G01*
X52548206Y-49225200D02*
G75*
G02*
X49188206Y-49225200I-1680000J0D01*
G01*
X49188206Y-49225200D02*
G75*
G02*
X52548206Y-49225200I1680000J0D01*
G01*
%TO.C,C1*%
X73247006Y-41457800D02*
X75487006Y-41457800D01*
X73247006Y-48697800D02*
X73247006Y-41457800D01*
X73247006Y-48697800D02*
X75487006Y-48697800D01*
X75487006Y-48697800D02*
X75487006Y-41457800D01*
%TO.C,C27*%
X151667006Y-91365200D02*
X151667006Y-98605200D01*
X153907006Y-91365200D02*
X151667006Y-91365200D01*
X153907006Y-91365200D02*
X153907006Y-98605200D01*
X153907006Y-98605200D02*
X151667006Y-98605200D01*
%TO.C,J1*%
X103219600Y-132582400D02*
X103219600Y-133322400D01*
X103219600Y-133322400D02*
X103719600Y-133322400D01*
X103459600Y-123161400D02*
X103459600Y-133082400D01*
X103459600Y-123161400D02*
X113579600Y-123161400D01*
X103459600Y-126121400D02*
X113579600Y-126121400D01*
X103459600Y-131022400D02*
X113579600Y-131022400D01*
X103459600Y-132522400D02*
X113579600Y-132522400D01*
X103459600Y-133082400D02*
X113579600Y-133082400D01*
X109792600Y-129445400D02*
X109745600Y-129491400D01*
X109985600Y-129661400D02*
X109950600Y-129696400D01*
X112089600Y-127147400D02*
X112054600Y-127183400D01*
X112294600Y-127353400D02*
X112247600Y-127399400D01*
X113579600Y-123161400D02*
X113579600Y-133082400D01*
X104484173Y-129105442D02*
G75*
G02*
X104484600Y-127738400I1535420J683041D01*
G01*
X105336558Y-126886973D02*
G75*
G02*
X106703600Y-126887400I683041J-1535420D01*
G01*
X106048405Y-130102653D02*
G75*
G02*
X105335600Y-129957400I-28806J1680254D01*
G01*
X106702918Y-129957156D02*
G75*
G02*
X106019600Y-130102400I-683318J1534756D01*
G01*
X107555027Y-127739358D02*
G75*
G02*
X107554600Y-129106400I-1535427J-683042D01*
G01*
X112699600Y-128422400D02*
G75*
G02*
X109339600Y-128422400I-1680000J0D01*
G01*
X109339600Y-128422400D02*
G75*
G02*
X112699600Y-128422400I1680000J0D01*
G01*
%TO.C,C25*%
X158931406Y-102541200D02*
X158931406Y-109781200D01*
X161171406Y-102541200D02*
X158931406Y-102541200D01*
X161171406Y-102541200D02*
X161171406Y-109781200D01*
X161171406Y-109781200D02*
X158931406Y-109781200D01*
%TO.C,C17*%
X113575600Y-98605200D02*
X113575600Y-96365200D01*
X120815600Y-96365200D02*
X113575600Y-96365200D01*
X120815600Y-98605200D02*
X113575600Y-98605200D01*
X120815600Y-98605200D02*
X120815600Y-96365200D01*
%TO.C,R3*%
X124673200Y-114666000D02*
X124673200Y-115146000D01*
X124673200Y-118506000D02*
X124673200Y-118026000D01*
X134813200Y-114666000D02*
X124673200Y-114666000D01*
X134813200Y-115146000D02*
X134813200Y-114666000D01*
X134813200Y-118026000D02*
X134813200Y-118506000D01*
X134813200Y-118506000D02*
X124673200Y-118506000D01*
%TO.C,C5*%
X94638000Y-41581200D02*
X96878000Y-41581200D01*
X94638000Y-48821200D02*
X94638000Y-41581200D01*
X94638000Y-48821200D02*
X96878000Y-48821200D01*
X96878000Y-48821200D02*
X96878000Y-41581200D01*
%TO.C,C18*%
X104793806Y-41530200D02*
X107033806Y-41530200D01*
X104793806Y-48770200D02*
X104793806Y-41530200D01*
X104793806Y-48770200D02*
X107033806Y-48770200D01*
X107033806Y-48770200D02*
X107033806Y-41530200D01*
%TO.C,C24*%
X171904800Y-114653200D02*
X171904800Y-121893200D01*
X174144800Y-114653200D02*
X171904800Y-114653200D01*
X174144800Y-114653200D02*
X174144800Y-121893200D01*
X174144800Y-121893200D02*
X171904800Y-121893200D01*
%TO.C,J2*%
X59270206Y-38665600D02*
X59270206Y-28744600D01*
X60555206Y-34473600D02*
X60602206Y-34427600D01*
X60760206Y-34679600D02*
X60795206Y-34643600D01*
X62864206Y-32165600D02*
X62899206Y-32130600D01*
X63057206Y-32381600D02*
X63104206Y-32335600D01*
X69390206Y-28744600D02*
X59270206Y-28744600D01*
X69390206Y-29304600D02*
X59270206Y-29304600D01*
X69390206Y-30804600D02*
X59270206Y-30804600D01*
X69390206Y-35705600D02*
X59270206Y-35705600D01*
X69390206Y-38665600D02*
X59270206Y-38665600D01*
X69390206Y-38665600D02*
X69390206Y-28744600D01*
X69630206Y-28504600D02*
X69130206Y-28504600D01*
X69630206Y-29244600D02*
X69630206Y-28504600D01*
X65294779Y-34087642D02*
G75*
G02*
X65295206Y-32720600I1535427J683042D01*
G01*
X66146888Y-31869844D02*
G75*
G02*
X66830206Y-31724600I683318J-1534756D01*
G01*
X66801401Y-31724347D02*
G75*
G02*
X67514206Y-31869600I28806J-1680254D01*
G01*
X67513248Y-34940027D02*
G75*
G02*
X66146206Y-34939600I-683041J1535420D01*
G01*
X68365633Y-32721558D02*
G75*
G02*
X68365206Y-34088600I-1535420J-683041D01*
G01*
X63510206Y-33404600D02*
G75*
G02*
X60150206Y-33404600I-1680000J0D01*
G01*
X60150206Y-33404600D02*
G75*
G02*
X63510206Y-33404600I1680000J0D01*
G01*
%TO.C,J9*%
X65927206Y-58204400D02*
X75848206Y-58204400D01*
X65927206Y-68324400D02*
X65927206Y-58204400D01*
X65927206Y-68324400D02*
X75848206Y-68324400D01*
X68887206Y-68324400D02*
X68887206Y-58204400D01*
X69913206Y-59694400D02*
X69949206Y-59729400D01*
X70119206Y-59489400D02*
X70165206Y-59536400D01*
X72211206Y-61991400D02*
X72257206Y-62038400D01*
X72427206Y-61798400D02*
X72462206Y-61833400D01*
X73788206Y-68324400D02*
X73788206Y-58204400D01*
X75288206Y-68324400D02*
X75288206Y-58204400D01*
X75348206Y-68564400D02*
X76088206Y-68564400D01*
X75848206Y-68324400D02*
X75848206Y-58204400D01*
X76088206Y-68564400D02*
X76088206Y-68064400D01*
X69652779Y-66447442D02*
G75*
G02*
X69653206Y-65080400I1535420J683041D01*
G01*
X70505164Y-64228973D02*
G75*
G02*
X71872206Y-64229400I683042J-1535427D01*
G01*
X71871248Y-67299827D02*
G75*
G02*
X70504206Y-67299400I-683041J1535420D01*
G01*
X72722962Y-65081082D02*
G75*
G02*
X72868206Y-65764400I-1534756J-683318D01*
G01*
X72868459Y-65735595D02*
G75*
G02*
X72723206Y-66448400I-1680254J-28806D01*
G01*
X72868206Y-60764400D02*
G75*
G02*
X69508206Y-60764400I-1680000J0D01*
G01*
X69508206Y-60764400D02*
G75*
G02*
X72868206Y-60764400I1680000J0D01*
G01*
%TO.C,C35*%
X104076000Y-111559200D02*
X104076000Y-109319200D01*
X111316000Y-109319200D02*
X104076000Y-109319200D01*
X111316000Y-111559200D02*
X104076000Y-111559200D01*
X111316000Y-111559200D02*
X111316000Y-109319200D01*
%TO.C,C2*%
X78479406Y-44821400D02*
X80719406Y-44821400D01*
X78479406Y-52061400D02*
X78479406Y-44821400D01*
X78479406Y-52061400D02*
X80719406Y-52061400D01*
X80719406Y-52061400D02*
X80719406Y-44821400D01*
%TO.C,C32*%
X158677406Y-91416000D02*
X158677406Y-98656000D01*
X160917406Y-91416000D02*
X158677406Y-91416000D01*
X160917406Y-91416000D02*
X160917406Y-98656000D01*
X160917406Y-98656000D02*
X158677406Y-98656000D01*
%TO.C,C14*%
X103985200Y-78285200D02*
X103985200Y-76045200D01*
X111225200Y-76045200D02*
X103985200Y-76045200D01*
X111225200Y-78285200D02*
X103985200Y-78285200D01*
X111225200Y-78285200D02*
X111225200Y-76045200D01*
%TO.C,R2*%
X58845406Y-53553600D02*
X59175406Y-53553600D01*
X58845406Y-60093600D02*
X58845406Y-53553600D01*
X59175406Y-60093600D02*
X58845406Y-60093600D01*
X61255406Y-60093600D02*
X61585406Y-60093600D01*
X61585406Y-53553600D02*
X61255406Y-53553600D01*
X61585406Y-60093600D02*
X61585406Y-53553600D01*
%TO.C,J6*%
X176560800Y-133683400D02*
X176560800Y-123762400D01*
X177845800Y-129491400D02*
X177892800Y-129445400D01*
X178050800Y-129697400D02*
X178085800Y-129661400D01*
X180154800Y-127183400D02*
X180189800Y-127148400D01*
X180347800Y-127399400D02*
X180394800Y-127353400D01*
X186680800Y-123762400D02*
X176560800Y-123762400D01*
X186680800Y-124322400D02*
X176560800Y-124322400D01*
X186680800Y-125822400D02*
X176560800Y-125822400D01*
X186680800Y-130723400D02*
X176560800Y-130723400D01*
X186680800Y-133683400D02*
X176560800Y-133683400D01*
X186680800Y-133683400D02*
X186680800Y-123762400D01*
X186920800Y-123522400D02*
X186420800Y-123522400D01*
X186920800Y-124262400D02*
X186920800Y-123522400D01*
X182585373Y-129105442D02*
G75*
G02*
X182585800Y-127738400I1535427J683042D01*
G01*
X183437482Y-126887644D02*
G75*
G02*
X184120800Y-126742400I683318J-1534756D01*
G01*
X184091995Y-126742147D02*
G75*
G02*
X184804800Y-126887400I28806J-1680254D01*
G01*
X184803842Y-129957827D02*
G75*
G02*
X183436800Y-129957400I-683041J1535420D01*
G01*
X185656227Y-127739358D02*
G75*
G02*
X185655800Y-129106400I-1535420J-683041D01*
G01*
X180800800Y-128422400D02*
G75*
G02*
X177440800Y-128422400I-1680000J0D01*
G01*
X177440800Y-128422400D02*
G75*
G02*
X180800800Y-128422400I1680000J0D01*
G01*
%TO.C,J5*%
X71513006Y-38098200D02*
X71513006Y-38838200D01*
X71513006Y-38838200D02*
X72013006Y-38838200D01*
X71753006Y-28677200D02*
X71753006Y-38598200D01*
X71753006Y-28677200D02*
X101873006Y-28677200D01*
X71753006Y-31637200D02*
X101873006Y-31637200D01*
X71753006Y-36538200D02*
X101873006Y-36538200D01*
X71753006Y-38038200D02*
X101873006Y-38038200D01*
X71753006Y-38598200D02*
X101873006Y-38598200D01*
X78086006Y-34961200D02*
X78039006Y-35007200D01*
X78279006Y-35177200D02*
X78244006Y-35212200D01*
X80383006Y-32663200D02*
X80348006Y-32699200D01*
X80588006Y-32869200D02*
X80541006Y-32915200D01*
X83086006Y-34961200D02*
X83039006Y-35007200D01*
X83279006Y-35177200D02*
X83244006Y-35212200D01*
X85383006Y-32663200D02*
X85348006Y-32699200D01*
X85588006Y-32869200D02*
X85541006Y-32915200D01*
X88086006Y-34961200D02*
X88039006Y-35007200D01*
X88279006Y-35177200D02*
X88244006Y-35212200D01*
X90383006Y-32663200D02*
X90348006Y-32699200D01*
X90588006Y-32869200D02*
X90541006Y-32915200D01*
X93086006Y-34961200D02*
X93039006Y-35007200D01*
X93279006Y-35177200D02*
X93244006Y-35212200D01*
X95383006Y-32663200D02*
X95348006Y-32699200D01*
X95588006Y-32869200D02*
X95541006Y-32915200D01*
X98086006Y-34961200D02*
X98039006Y-35007200D01*
X98279006Y-35177200D02*
X98244006Y-35212200D01*
X100383006Y-32663200D02*
X100348006Y-32699200D01*
X100588006Y-32869200D02*
X100541006Y-32915200D01*
X101873006Y-28677200D02*
X101873006Y-38598200D01*
X72777579Y-34621242D02*
G75*
G02*
X72778006Y-33254200I1535420J683041D01*
G01*
X73629964Y-32402773D02*
G75*
G02*
X74997006Y-32403200I683041J-1535420D01*
G01*
X74341811Y-35618453D02*
G75*
G02*
X73629006Y-35473200I-28806J1680254D01*
G01*
X74996324Y-35472956D02*
G75*
G02*
X74313006Y-35618200I-683318J1534756D01*
G01*
X75848433Y-33255158D02*
G75*
G02*
X75848006Y-34622200I-1535427J-683042D01*
G01*
X80993006Y-33938200D02*
G75*
G02*
X77633006Y-33938200I-1680000J0D01*
G01*
X77633006Y-33938200D02*
G75*
G02*
X80993006Y-33938200I1680000J0D01*
G01*
X85993006Y-33938200D02*
G75*
G02*
X82633006Y-33938200I-1680000J0D01*
G01*
X82633006Y-33938200D02*
G75*
G02*
X85993006Y-33938200I1680000J0D01*
G01*
X90993006Y-33938200D02*
G75*
G02*
X87633006Y-33938200I-1680000J0D01*
G01*
X87633006Y-33938200D02*
G75*
G02*
X90993006Y-33938200I1680000J0D01*
G01*
X95993006Y-33938200D02*
G75*
G02*
X92633006Y-33938200I-1680000J0D01*
G01*
X92633006Y-33938200D02*
G75*
G02*
X95993006Y-33938200I1680000J0D01*
G01*
X100993006Y-33938200D02*
G75*
G02*
X97633006Y-33938200I-1680000J0D01*
G01*
X97633006Y-33938200D02*
G75*
G02*
X100993006Y-33938200I1680000J0D01*
G01*
%TO.C,C34*%
X103985200Y-104955200D02*
X103985200Y-102715200D01*
X111225200Y-102715200D02*
X103985200Y-102715200D01*
X111225200Y-104955200D02*
X103985200Y-104955200D01*
X111225200Y-104955200D02*
X111225200Y-102715200D01*
%TO.C,C23*%
X129809006Y-50725200D02*
X132049006Y-50725200D01*
X129809006Y-57965200D02*
X129809006Y-50725200D01*
X129809006Y-57965200D02*
X132049006Y-57965200D01*
X132049006Y-57965200D02*
X132049006Y-50725200D01*
%TO.C,C4*%
X88182206Y-41519400D02*
X90422206Y-41519400D01*
X88182206Y-48759400D02*
X88182206Y-41519400D01*
X88182206Y-48759400D02*
X90422206Y-48759400D01*
X90422206Y-48759400D02*
X90422206Y-41519400D01*
%TO.C,C30*%
X166432400Y-111859200D02*
X166432400Y-119099200D01*
X168672400Y-111859200D02*
X166432400Y-111859200D01*
X168672400Y-111859200D02*
X168672400Y-119099200D01*
X168672400Y-119099200D02*
X166432400Y-119099200D01*
%TO.C,C21*%
X119903006Y-50602000D02*
X122143006Y-50602000D01*
X119903006Y-57842000D02*
X119903006Y-50602000D01*
X119903006Y-57842000D02*
X122143006Y-57842000D01*
X122143006Y-57842000D02*
X122143006Y-50602000D01*
%TO.C,C26*%
X165129006Y-91365200D02*
X165129006Y-98605200D01*
X167369006Y-91365200D02*
X165129006Y-91365200D01*
X167369006Y-91365200D02*
X167369006Y-98605200D01*
X167369006Y-98605200D02*
X165129006Y-98605200D01*
%TO.C,J29*%
X45353206Y-74997600D02*
X55274206Y-74997600D01*
X45353206Y-90117600D02*
X45353206Y-74997600D01*
X45353206Y-90117600D02*
X55274206Y-90117600D01*
X48313206Y-90117600D02*
X48313206Y-74997600D01*
X49339206Y-76487600D02*
X49375206Y-76522600D01*
X49339206Y-81487600D02*
X49375206Y-81522600D01*
X49545206Y-76282600D02*
X49591206Y-76329600D01*
X49545206Y-81282600D02*
X49591206Y-81329600D01*
X51637206Y-78784600D02*
X51683206Y-78831600D01*
X51637206Y-83784600D02*
X51683206Y-83831600D01*
X51853206Y-78591600D02*
X51888206Y-78626600D01*
X51853206Y-83591600D02*
X51888206Y-83626600D01*
X53214206Y-90117600D02*
X53214206Y-74997600D01*
X54714206Y-90117600D02*
X54714206Y-74997600D01*
X54774206Y-90357600D02*
X55514206Y-90357600D01*
X55274206Y-90117600D02*
X55274206Y-74997600D01*
X55514206Y-90357600D02*
X55514206Y-89857600D01*
X49078779Y-88240642D02*
G75*
G02*
X49079206Y-86873600I1535420J683041D01*
G01*
X49931164Y-86022173D02*
G75*
G02*
X51298206Y-86022600I683042J-1535427D01*
G01*
X51297248Y-89093027D02*
G75*
G02*
X49930206Y-89092600I-683041J1535420D01*
G01*
X52148962Y-86874282D02*
G75*
G02*
X52294206Y-87557600I-1534756J-683318D01*
G01*
X52294459Y-87528795D02*
G75*
G02*
X52149206Y-88241600I-1680254J-28806D01*
G01*
X52294206Y-77557600D02*
G75*
G02*
X48934206Y-77557600I-1680000J0D01*
G01*
X48934206Y-77557600D02*
G75*
G02*
X52294206Y-77557600I1680000J0D01*
G01*
X52294206Y-82557600D02*
G75*
G02*
X48934206Y-82557600I-1680000J0D01*
G01*
X48934206Y-82557600D02*
G75*
G02*
X52294206Y-82557600I1680000J0D01*
G01*
%TO.C,J3*%
X62967806Y-133611000D02*
X62967806Y-123690000D01*
X64252806Y-129419000D02*
X64299806Y-129373000D01*
X64457806Y-129625000D02*
X64492806Y-129589000D01*
X66561806Y-127111000D02*
X66596806Y-127076000D01*
X66754806Y-127327000D02*
X66801806Y-127281000D01*
X73087806Y-123690000D02*
X62967806Y-123690000D01*
X73087806Y-124250000D02*
X62967806Y-124250000D01*
X73087806Y-125750000D02*
X62967806Y-125750000D01*
X73087806Y-130651000D02*
X62967806Y-130651000D01*
X73087806Y-133611000D02*
X62967806Y-133611000D01*
X73087806Y-133611000D02*
X73087806Y-123690000D01*
X73327806Y-123450000D02*
X72827806Y-123450000D01*
X73327806Y-124190000D02*
X73327806Y-123450000D01*
X68992379Y-129033042D02*
G75*
G02*
X68992806Y-127666000I1535427J683042D01*
G01*
X69844488Y-126815244D02*
G75*
G02*
X70527806Y-126670000I683318J-1534756D01*
G01*
X70499001Y-126669747D02*
G75*
G02*
X71211806Y-126815000I28806J-1680254D01*
G01*
X71210848Y-129885427D02*
G75*
G02*
X69843806Y-129885000I-683041J1535420D01*
G01*
X72063233Y-127666958D02*
G75*
G02*
X72062806Y-129034000I-1535420J-683041D01*
G01*
X67207806Y-128350000D02*
G75*
G02*
X63847806Y-128350000I-1680000J0D01*
G01*
X63847806Y-128350000D02*
G75*
G02*
X67207806Y-128350000I1680000J0D01*
G01*
%TO.C,J4*%
X44997606Y-110557600D02*
X54918606Y-110557600D01*
X44997606Y-125677600D02*
X44997606Y-110557600D01*
X44997606Y-125677600D02*
X54918606Y-125677600D01*
X47957606Y-125677600D02*
X47957606Y-110557600D01*
X48983606Y-112047600D02*
X49019606Y-112082600D01*
X48983606Y-117047600D02*
X49019606Y-117082600D01*
X49189606Y-111842600D02*
X49235606Y-111889600D01*
X49189606Y-116842600D02*
X49235606Y-116889600D01*
X51281606Y-114344600D02*
X51327606Y-114391600D01*
X51281606Y-119344600D02*
X51327606Y-119391600D01*
X51497606Y-114151600D02*
X51532606Y-114186600D01*
X51497606Y-119151600D02*
X51532606Y-119186600D01*
X52858606Y-125677600D02*
X52858606Y-110557600D01*
X54358606Y-125677600D02*
X54358606Y-110557600D01*
X54418606Y-125917600D02*
X55158606Y-125917600D01*
X54918606Y-125677600D02*
X54918606Y-110557600D01*
X55158606Y-125917600D02*
X55158606Y-125417600D01*
X48723179Y-123800642D02*
G75*
G02*
X48723606Y-122433600I1535420J683041D01*
G01*
X49575564Y-121582173D02*
G75*
G02*
X50942606Y-121582600I683042J-1535427D01*
G01*
X50941648Y-124653027D02*
G75*
G02*
X49574606Y-124652600I-683041J1535420D01*
G01*
X51793362Y-122434282D02*
G75*
G02*
X51938606Y-123117600I-1534756J-683318D01*
G01*
X51938859Y-123088795D02*
G75*
G02*
X51793606Y-123801600I-1680254J-28806D01*
G01*
X51938606Y-113117600D02*
G75*
G02*
X48578606Y-113117600I-1680000J0D01*
G01*
X48578606Y-113117600D02*
G75*
G02*
X51938606Y-113117600I1680000J0D01*
G01*
X51938606Y-118117600D02*
G75*
G02*
X48578606Y-118117600I-1680000J0D01*
G01*
X48578606Y-118117600D02*
G75*
G02*
X51938606Y-118117600I1680000J0D01*
G01*
%TO.C,J13*%
X91437406Y-133712600D02*
X91437406Y-123791600D01*
X92722406Y-129520600D02*
X92769406Y-129474600D01*
X92927406Y-129726600D02*
X92962406Y-129690600D01*
X95031406Y-127212600D02*
X95066406Y-127177600D01*
X95224406Y-127428600D02*
X95271406Y-127382600D01*
X101557406Y-123791600D02*
X91437406Y-123791600D01*
X101557406Y-124351600D02*
X91437406Y-124351600D01*
X101557406Y-125851600D02*
X91437406Y-125851600D01*
X101557406Y-130752600D02*
X91437406Y-130752600D01*
X101557406Y-133712600D02*
X91437406Y-133712600D01*
X101557406Y-133712600D02*
X101557406Y-123791600D01*
X101797406Y-123551600D02*
X101297406Y-123551600D01*
X101797406Y-124291600D02*
X101797406Y-123551600D01*
X97461979Y-129134642D02*
G75*
G02*
X97462406Y-127767600I1535427J683042D01*
G01*
X98314088Y-126916844D02*
G75*
G02*
X98997406Y-126771600I683318J-1534756D01*
G01*
X98968601Y-126771347D02*
G75*
G02*
X99681406Y-126916600I28806J-1680254D01*
G01*
X99680448Y-129987027D02*
G75*
G02*
X98313406Y-129986600I-683041J1535420D01*
G01*
X100532833Y-127768558D02*
G75*
G02*
X100532406Y-129135600I-1535420J-683041D01*
G01*
X95677406Y-128451600D02*
G75*
G02*
X92317406Y-128451600I-1680000J0D01*
G01*
X92317406Y-128451600D02*
G75*
G02*
X95677406Y-128451600I1680000J0D01*
G01*
%TO.C,C31*%
X166432400Y-102715200D02*
X166432400Y-109955200D01*
X168672400Y-102715200D02*
X166432400Y-102715200D01*
X168672400Y-102715200D02*
X168672400Y-109955200D01*
X168672400Y-109955200D02*
X166432400Y-109955200D01*
%TO.C,J12*%
X145217200Y-133835800D02*
X145217200Y-123914800D01*
X146502200Y-129643800D02*
X146549200Y-129597800D01*
X146707200Y-129849800D02*
X146742200Y-129813800D01*
X148811200Y-127335800D02*
X148846200Y-127300800D01*
X149004200Y-127551800D02*
X149051200Y-127505800D01*
X151502200Y-129643800D02*
X151549200Y-129597800D01*
X151707200Y-129849800D02*
X151742200Y-129813800D01*
X153811200Y-127335800D02*
X153846200Y-127300800D01*
X154004200Y-127551800D02*
X154051200Y-127505800D01*
X156502200Y-129643800D02*
X156549200Y-129597800D01*
X156707200Y-129849800D02*
X156742200Y-129813800D01*
X158811200Y-127335800D02*
X158846200Y-127300800D01*
X159004200Y-127551800D02*
X159051200Y-127505800D01*
X161502200Y-129643800D02*
X161549200Y-129597800D01*
X161707200Y-129849800D02*
X161742200Y-129813800D01*
X163811200Y-127335800D02*
X163846200Y-127300800D01*
X164004200Y-127551800D02*
X164051200Y-127505800D01*
X166502200Y-129643800D02*
X166549200Y-129597800D01*
X166707200Y-129849800D02*
X166742200Y-129813800D01*
X168811200Y-127335800D02*
X168846200Y-127300800D01*
X169004200Y-127551800D02*
X169051200Y-127505800D01*
X175337200Y-123914800D02*
X145217200Y-123914800D01*
X175337200Y-124474800D02*
X145217200Y-124474800D01*
X175337200Y-125974800D02*
X145217200Y-125974800D01*
X175337200Y-130875800D02*
X145217200Y-130875800D01*
X175337200Y-133835800D02*
X145217200Y-133835800D01*
X175337200Y-133835800D02*
X175337200Y-123914800D01*
X175577200Y-123674800D02*
X175077200Y-123674800D01*
X175577200Y-124414800D02*
X175577200Y-123674800D01*
X171241773Y-129257842D02*
G75*
G02*
X171242200Y-127890800I1535427J683042D01*
G01*
X172093882Y-127040044D02*
G75*
G02*
X172777200Y-126894800I683318J-1534756D01*
G01*
X172748395Y-126894547D02*
G75*
G02*
X173461200Y-127039800I28806J-1680254D01*
G01*
X173460242Y-130110227D02*
G75*
G02*
X172093200Y-130109800I-683041J1535420D01*
G01*
X174312627Y-127891758D02*
G75*
G02*
X174312200Y-129258800I-1535420J-683041D01*
G01*
X149457200Y-128574800D02*
G75*
G02*
X146097200Y-128574800I-1680000J0D01*
G01*
X146097200Y-128574800D02*
G75*
G02*
X149457200Y-128574800I1680000J0D01*
G01*
X154457200Y-128574800D02*
G75*
G02*
X151097200Y-128574800I-1680000J0D01*
G01*
X151097200Y-128574800D02*
G75*
G02*
X154457200Y-128574800I1680000J0D01*
G01*
X159457200Y-128574800D02*
G75*
G02*
X156097200Y-128574800I-1680000J0D01*
G01*
X156097200Y-128574800D02*
G75*
G02*
X159457200Y-128574800I1680000J0D01*
G01*
X164457200Y-128574800D02*
G75*
G02*
X161097200Y-128574800I-1680000J0D01*
G01*
X161097200Y-128574800D02*
G75*
G02*
X164457200Y-128574800I1680000J0D01*
G01*
X169457200Y-128574800D02*
G75*
G02*
X166097200Y-128574800I-1680000J0D01*
G01*
X166097200Y-128574800D02*
G75*
G02*
X169457200Y-128574800I1680000J0D01*
G01*
%TO.C,C16*%
X104086800Y-88140400D02*
X104086800Y-85900400D01*
X111326800Y-85900400D02*
X104086800Y-85900400D01*
X111326800Y-88140400D02*
X104086800Y-88140400D01*
X111326800Y-88140400D02*
X111326800Y-85900400D01*
%TO.C,C4a2*%
X113474000Y-93077400D02*
X113474000Y-90837400D01*
X120714000Y-90837400D02*
X113474000Y-90837400D01*
X120714000Y-93077400D02*
X113474000Y-93077400D01*
X120714000Y-93077400D02*
X120714000Y-90837400D01*
%TO.C,C22*%
X125063006Y-41581200D02*
X127303006Y-41581200D01*
X125063006Y-48821200D02*
X125063006Y-41581200D01*
X125063006Y-48821200D02*
X127303006Y-48821200D01*
X127303006Y-48821200D02*
X127303006Y-41581200D01*
%TO.C,J7*%
X45454806Y-58320000D02*
X55375806Y-58320000D01*
X45454806Y-73440000D02*
X45454806Y-58320000D01*
X45454806Y-73440000D02*
X55375806Y-73440000D01*
X48414806Y-73440000D02*
X48414806Y-58320000D01*
X49440806Y-59810000D02*
X49476806Y-59845000D01*
X49440806Y-64810000D02*
X49476806Y-64845000D01*
X49646806Y-59605000D02*
X49692806Y-59652000D01*
X49646806Y-64605000D02*
X49692806Y-64652000D01*
X51738806Y-62107000D02*
X51784806Y-62154000D01*
X51738806Y-67107000D02*
X51784806Y-67154000D01*
X51954806Y-61914000D02*
X51989806Y-61949000D01*
X51954806Y-66914000D02*
X51989806Y-66949000D01*
X53315806Y-73440000D02*
X53315806Y-58320000D01*
X54815806Y-73440000D02*
X54815806Y-58320000D01*
X54875806Y-73680000D02*
X55615806Y-73680000D01*
X55375806Y-73440000D02*
X55375806Y-58320000D01*
X55615806Y-73680000D02*
X55615806Y-73180000D01*
X49180379Y-71563042D02*
G75*
G02*
X49180806Y-70196000I1535420J683041D01*
G01*
X50032764Y-69344573D02*
G75*
G02*
X51399806Y-69345000I683042J-1535427D01*
G01*
X51398848Y-72415427D02*
G75*
G02*
X50031806Y-72415000I-683041J1535420D01*
G01*
X52250562Y-70196682D02*
G75*
G02*
X52395806Y-70880000I-1534756J-683318D01*
G01*
X52396059Y-70851195D02*
G75*
G02*
X52250806Y-71564000I-1680254J-28806D01*
G01*
X52395806Y-60880000D02*
G75*
G02*
X49035806Y-60880000I-1680000J0D01*
G01*
X49035806Y-60880000D02*
G75*
G02*
X52395806Y-60880000I1680000J0D01*
G01*
X52395806Y-65880000D02*
G75*
G02*
X49035806Y-65880000I-1680000J0D01*
G01*
X49035806Y-65880000D02*
G75*
G02*
X52395806Y-65880000I1680000J0D01*
G01*
%TO.C,C7*%
X83356206Y-57826200D02*
X85596206Y-57826200D01*
X83356206Y-65066200D02*
X83356206Y-57826200D01*
X83356206Y-65066200D02*
X85596206Y-65066200D01*
X85596206Y-65066200D02*
X85596206Y-57826200D01*
%TO.C,J19*%
X133445600Y-132684000D02*
X133445600Y-133424000D01*
X133445600Y-133424000D02*
X133945600Y-133424000D01*
X133685600Y-123263000D02*
X133685600Y-133184000D01*
X133685600Y-123263000D02*
X143805600Y-123263000D01*
X133685600Y-126223000D02*
X143805600Y-126223000D01*
X133685600Y-131124000D02*
X143805600Y-131124000D01*
X133685600Y-132624000D02*
X143805600Y-132624000D01*
X133685600Y-133184000D02*
X143805600Y-133184000D01*
X140018600Y-129547000D02*
X139971600Y-129593000D01*
X140211600Y-129763000D02*
X140176600Y-129798000D01*
X142315600Y-127249000D02*
X142280600Y-127285000D01*
X142520600Y-127455000D02*
X142473600Y-127501000D01*
X143805600Y-123263000D02*
X143805600Y-133184000D01*
X134710173Y-129207042D02*
G75*
G02*
X134710600Y-127840000I1535420J683041D01*
G01*
X135562558Y-126988573D02*
G75*
G02*
X136929600Y-126989000I683041J-1535420D01*
G01*
X136274405Y-130204253D02*
G75*
G02*
X135561600Y-130059000I-28806J1680254D01*
G01*
X136928918Y-130058756D02*
G75*
G02*
X136245600Y-130204000I-683318J1534756D01*
G01*
X137781027Y-127840958D02*
G75*
G02*
X137780600Y-129208000I-1535427J-683042D01*
G01*
X142925600Y-128524000D02*
G75*
G02*
X139565600Y-128524000I-1680000J0D01*
G01*
X139565600Y-128524000D02*
G75*
G02*
X142925600Y-128524000I1680000J0D01*
G01*
%TO.C,C2a2*%
X113535600Y-83517600D02*
X113535600Y-81277600D01*
X120775600Y-81277600D02*
X113535600Y-81277600D01*
X120775600Y-83517600D02*
X113535600Y-83517600D01*
X120775600Y-83517600D02*
X120775600Y-81277600D01*
%TO.C,R1*%
X57482606Y-119012800D02*
X57482606Y-129152800D01*
X57482606Y-129152800D02*
X57962606Y-129152800D01*
X57962606Y-119012800D02*
X57482606Y-119012800D01*
X60842606Y-119012800D02*
X61322606Y-119012800D01*
X61322606Y-119012800D02*
X61322606Y-129152800D01*
X61322606Y-129152800D02*
X60842606Y-129152800D01*
%TO.C,C29*%
X144047006Y-91365200D02*
X144047006Y-98605200D01*
X146287006Y-91365200D02*
X144047006Y-91365200D01*
X146287006Y-91365200D02*
X146287006Y-98605200D01*
X146287006Y-98605200D02*
X144047006Y-98605200D01*
%TO.C,J10*%
X103223006Y-38098200D02*
X103223006Y-38838200D01*
X103223006Y-38838200D02*
X103723006Y-38838200D01*
X103463006Y-28677200D02*
X103463006Y-38598200D01*
X103463006Y-28677200D02*
X133583006Y-28677200D01*
X103463006Y-31637200D02*
X133583006Y-31637200D01*
X103463006Y-36538200D02*
X133583006Y-36538200D01*
X103463006Y-38038200D02*
X133583006Y-38038200D01*
X103463006Y-38598200D02*
X133583006Y-38598200D01*
X109796006Y-34961200D02*
X109749006Y-35007200D01*
X109989006Y-35177200D02*
X109954006Y-35212200D01*
X112093006Y-32663200D02*
X112058006Y-32699200D01*
X112298006Y-32869200D02*
X112251006Y-32915200D01*
X114796006Y-34961200D02*
X114749006Y-35007200D01*
X114989006Y-35177200D02*
X114954006Y-35212200D01*
X117093006Y-32663200D02*
X117058006Y-32699200D01*
X117298006Y-32869200D02*
X117251006Y-32915200D01*
X119796006Y-34961200D02*
X119749006Y-35007200D01*
X119989006Y-35177200D02*
X119954006Y-35212200D01*
X122093006Y-32663200D02*
X122058006Y-32699200D01*
X122298006Y-32869200D02*
X122251006Y-32915200D01*
X124796006Y-34961200D02*
X124749006Y-35007200D01*
X124989006Y-35177200D02*
X124954006Y-35212200D01*
X127093006Y-32663200D02*
X127058006Y-32699200D01*
X127298006Y-32869200D02*
X127251006Y-32915200D01*
X129796006Y-34961200D02*
X129749006Y-35007200D01*
X129989006Y-35177200D02*
X129954006Y-35212200D01*
X132093006Y-32663200D02*
X132058006Y-32699200D01*
X132298006Y-32869200D02*
X132251006Y-32915200D01*
X133583006Y-28677200D02*
X133583006Y-38598200D01*
X104487579Y-34621242D02*
G75*
G02*
X104488006Y-33254200I1535420J683041D01*
G01*
X105339964Y-32402773D02*
G75*
G02*
X106707006Y-32403200I683041J-1535420D01*
G01*
X106051811Y-35618453D02*
G75*
G02*
X105339006Y-35473200I-28806J1680254D01*
G01*
X106706324Y-35472956D02*
G75*
G02*
X106023006Y-35618200I-683318J1534756D01*
G01*
X107558433Y-33255158D02*
G75*
G02*
X107558006Y-34622200I-1535427J-683042D01*
G01*
X112703006Y-33938200D02*
G75*
G02*
X109343006Y-33938200I-1680000J0D01*
G01*
X109343006Y-33938200D02*
G75*
G02*
X112703006Y-33938200I1680000J0D01*
G01*
X117703006Y-33938200D02*
G75*
G02*
X114343006Y-33938200I-1680000J0D01*
G01*
X114343006Y-33938200D02*
G75*
G02*
X117703006Y-33938200I1680000J0D01*
G01*
X122703006Y-33938200D02*
G75*
G02*
X119343006Y-33938200I-1680000J0D01*
G01*
X119343006Y-33938200D02*
G75*
G02*
X122703006Y-33938200I1680000J0D01*
G01*
X127703006Y-33938200D02*
G75*
G02*
X124343006Y-33938200I-1680000J0D01*
G01*
X124343006Y-33938200D02*
G75*
G02*
X127703006Y-33938200I1680000J0D01*
G01*
X132703006Y-33938200D02*
G75*
G02*
X129343006Y-33938200I-1680000J0D01*
G01*
X129343006Y-33938200D02*
G75*
G02*
X132703006Y-33938200I1680000J0D01*
G01*
%TO.C,C5a2*%
X103974400Y-98503600D02*
X103974400Y-96263600D01*
X111214400Y-96263600D02*
X103974400Y-96263600D01*
X111214400Y-98503600D02*
X103974400Y-98503600D01*
X111214400Y-98503600D02*
X111214400Y-96263600D01*
%TO.C,C15*%
X113444800Y-77066000D02*
X113444800Y-74826000D01*
X120684800Y-74826000D02*
X113444800Y-74826000D01*
X120684800Y-77066000D02*
X113444800Y-77066000D01*
X120684800Y-77066000D02*
X120684800Y-74826000D01*
%TO.C,J21*%
X74579406Y-133611000D02*
X74579406Y-123690000D01*
X75864406Y-129419000D02*
X75911406Y-129373000D01*
X76069406Y-129625000D02*
X76104406Y-129589000D01*
X78173406Y-127111000D02*
X78208406Y-127076000D01*
X78366406Y-127327000D02*
X78413406Y-127281000D01*
X80864406Y-129419000D02*
X80911406Y-129373000D01*
X81069406Y-129625000D02*
X81104406Y-129589000D01*
X83173406Y-127111000D02*
X83208406Y-127076000D01*
X83366406Y-127327000D02*
X83413406Y-127281000D01*
X89699406Y-123690000D02*
X74579406Y-123690000D01*
X89699406Y-124250000D02*
X74579406Y-124250000D01*
X89699406Y-125750000D02*
X74579406Y-125750000D01*
X89699406Y-130651000D02*
X74579406Y-130651000D01*
X89699406Y-133611000D02*
X74579406Y-133611000D01*
X89699406Y-133611000D02*
X89699406Y-123690000D01*
X89939406Y-123450000D02*
X89439406Y-123450000D01*
X89939406Y-124190000D02*
X89939406Y-123450000D01*
X85603979Y-129033042D02*
G75*
G02*
X85604406Y-127666000I1535427J683042D01*
G01*
X86456088Y-126815244D02*
G75*
G02*
X87139406Y-126670000I683318J-1534756D01*
G01*
X87110601Y-126669747D02*
G75*
G02*
X87823406Y-126815000I28806J-1680254D01*
G01*
X87822448Y-129885427D02*
G75*
G02*
X86455406Y-129885000I-683041J1535420D01*
G01*
X88674833Y-127666958D02*
G75*
G02*
X88674406Y-129034000I-1535420J-683041D01*
G01*
X78819406Y-128350000D02*
G75*
G02*
X75459406Y-128350000I-1680000J0D01*
G01*
X75459406Y-128350000D02*
G75*
G02*
X78819406Y-128350000I1680000J0D01*
G01*
X83819406Y-128350000D02*
G75*
G02*
X80459406Y-128350000I-1680000J0D01*
G01*
X80459406Y-128350000D02*
G75*
G02*
X83819406Y-128350000I1680000J0D01*
G01*
%TO.C,C6*%
X103020000Y-57938800D02*
X105260000Y-57938800D01*
X103020000Y-65178800D02*
X103020000Y-57938800D01*
X103020000Y-65178800D02*
X105260000Y-65178800D01*
X105260000Y-65178800D02*
X105260000Y-57938800D01*
%TO.C,C19*%
X109844606Y-50866800D02*
X112084606Y-50866800D01*
X109844606Y-58106800D02*
X109844606Y-50866800D01*
X109844606Y-58106800D02*
X112084606Y-58106800D01*
X112084606Y-58106800D02*
X112084606Y-50866800D01*
%TD*%
M02*
