M48
; DRILL file {KiCad 8.0.3} date 2024-07-16T22:21:39-0700
; FORMAT={-:-/ absolute / metric / decimal}
; #@! TF.CreationDate,2024-07-16T22:21:39-07:00
; #@! TF.GenerationSoftware,Kicad,Pcbnew,8.0.3
; #@! TF.FileFunction,MixedPlating,1,2
FMAT,2
METRIC
; #@! TA.AperFunction,Plated,PTH,ComponentDrill
T1C1.200
; #@! TA.AperFunction,Plated,PTH,ViaDrill
T2C1.300
; #@! TA.AperFunction,Plated,PTH,ComponentDrill
T3C1.300
; #@! TA.AperFunction,Plated,PTH,ComponentDrill
T4C1.500
%
G90
G05
T1
X60.215Y-53.014
X60.215Y-60.634
T2
X81.991Y-95.25
T3
X48.249Y-33.223
X50.259Y-113.118
X50.259Y-118.118
X50.259Y-123.118
X50.614Y-77.558
X50.614Y-82.558
X50.614Y-87.558
X50.716Y-60.88
X50.716Y-65.88
X50.716Y-70.88
X50.868Y-44.225
X50.868Y-49.225
X50.868Y-54.225
X53.249Y-33.223
X61.83Y-33.405
X65.528Y-128.35
X66.83Y-33.405
X70.528Y-128.35
X71.188Y-60.764
X71.188Y-65.764
X77.139Y-128.35
X82.139Y-128.35
X87.139Y-128.35
X93.997Y-128.452
X96.602Y-77.27
X96.602Y-82.27
X96.602Y-87.27
X96.602Y-92.27
X96.602Y-97.27
X96.602Y-102.27
X98.997Y-128.452
X106.02Y-128.422
X111.02Y-128.422
X119.126Y-128.473
X124.126Y-128.473
X129.126Y-128.473
X129.489Y-76.708
X129.489Y-81.708
X129.489Y-86.708
X129.489Y-91.708
X129.489Y-96.708
X129.489Y-101.708
X136.246Y-128.524
X141.246Y-128.524
X179.121Y-128.422
X184.121Y-128.422
X190.997Y-128.727
X191.973Y-77.318
X191.973Y-82.318
X191.973Y-87.318
X191.973Y-93.472
X191.973Y-98.472
X191.973Y-103.472
X191.973Y-109.648
X191.973Y-114.648
X195.997Y-128.727
T4
X59.403Y-117.733
X59.403Y-130.433
X74.313Y-33.938
X74.367Y-42.578
X74.367Y-47.578
X79.313Y-33.938
X79.599Y-45.941
X79.599Y-50.941
X84.313Y-33.938
X84.476Y-58.946
X84.476Y-63.946
X89.302Y-42.639
X89.302Y-47.639
X89.313Y-33.938
X90.115Y-56.305
X90.115Y-61.305
X94.313Y-33.938
X95.758Y-42.701
X95.758Y-47.701
X99.313Y-33.938
X104.14Y-59.059
X104.14Y-64.059
X105.094Y-97.384
X105.105Y-77.165
X105.105Y-103.835
X105.196Y-110.439
X105.207Y-87.02
X105.914Y-42.65
X105.914Y-47.65
X106.023Y-33.938
X110.094Y-97.384
X110.105Y-77.165
X110.105Y-103.835
X110.196Y-110.439
X110.207Y-87.02
X110.965Y-51.987
X110.965Y-56.987
X111.023Y-33.938
X114.565Y-75.946
X114.594Y-91.957
X114.656Y-82.398
X114.696Y-97.485
X115.943Y-42.741
X115.943Y-47.741
X116.023Y-33.938
X119.565Y-75.946
X119.594Y-91.957
X119.656Y-82.398
X119.696Y-97.485
X121.023Y-33.938
X121.023Y-51.722
X121.023Y-56.722
X123.393Y-116.586
X126.023Y-33.938
X126.183Y-42.701
X126.183Y-47.701
X130.929Y-51.845
X130.929Y-56.845
X131.023Y-33.938
X136.093Y-116.586
X137.278Y-45.619
X137.378Y-33.985
X139.678Y-60.65
X139.678Y-66.65
X142.278Y-45.619
X142.378Y-33.985
X144.678Y-60.65
X144.678Y-66.65
X145.167Y-92.485
X145.167Y-97.485
X146.183Y-115.599
X146.183Y-120.599
X146.776Y-81.331
X147.278Y-45.619
X147.378Y-33.985
X147.777Y-128.575
X149.758Y-60.757
X149.758Y-66.757
X151.776Y-81.331
X152.278Y-45.619
X152.378Y-33.985
X152.668Y-115.61
X152.668Y-120.61
X152.777Y-128.575
X152.787Y-92.485
X152.787Y-97.485
X154.758Y-60.757
X154.758Y-66.757
X156.776Y-81.331
X157.278Y-45.619
X157.378Y-33.985
X157.777Y-128.575
X159.797Y-92.536
X159.797Y-97.536
X159.948Y-60.904
X159.948Y-66.904
X160.051Y-103.661
X160.051Y-108.661
X161.776Y-81.331
X162.278Y-45.619
X162.378Y-33.985
X162.777Y-128.575
X164.948Y-60.904
X164.948Y-66.904
X166.249Y-92.485
X166.249Y-97.485
X166.776Y-81.331
X167.278Y-45.619
X167.378Y-33.985
X167.552Y-103.835
X167.552Y-108.835
X167.552Y-112.979
X167.552Y-117.979
X167.777Y-128.575
X169.803Y-60.904
X169.803Y-66.904
X171.776Y-81.331
X172.278Y-45.619
X172.378Y-33.985
X172.777Y-128.575
X173.025Y-115.773
X173.025Y-120.773
X174.803Y-60.904
X174.803Y-66.904
X177.278Y-45.619
X177.378Y-33.985
X179.607Y-61.158
X179.607Y-67.158
X182.278Y-45.619
X182.378Y-33.985
X184.607Y-61.158
X184.607Y-67.158
X187.278Y-45.619
X187.378Y-33.985
X189.208Y-60.904
X189.208Y-66.904
X192.278Y-45.619
X192.378Y-33.985
X194.208Y-60.904
X194.208Y-66.904
M30
