<?xml version="1.0" standalone="no"?>
 <!DOCTYPE svg PUBLIC "-//W3C//DTD SVG 1.1//EN" 
 "http://www.w3.org/Graphics/SVG/1.1/DTD/svg11.dtd"> 
<svg
  xmlns:svg="http://www.w3.org/2000/svg"
  xmlns="http://www.w3.org/2000/svg"
  xmlns:xlink="http://www.w3.org/1999/xlink"
  version="1.1"
  width="142.2400mm" height="125.3236mm" viewBox="0.0000 0.0000 142.2400 125.3236">
<title>SVG Image created as multi-channel-preamp-brd.svg date 2024/06/11 19:22:54 </title>
  <desc>Image generated by PCBNEW </desc>
<g style="fill:#000000; fill-opacity:1.0000;stroke:#000000; stroke-opacity:1.0000;
stroke-linecap:round; stroke-linejoin:round;"
 transform="translate(0 0) scale(1 1)">
</g>
<g style="fill:none; 
stroke:#000000; stroke-width:3.5000; stroke-opacity:1; 
stroke-linecap:round; stroke-linejoin:round;">
<path d="M63.6300 87.1500
L63.6300 90.6500
" />
<path style="fill:#000000; fill-opacity:1.0000; stroke:none;fill-rule:evenodd;"
d="M 56.8800,92.4000
56.8800,85.4000
60.3800,85.4000
60.3800,92.4000
Z" /> 
</g>
<g style="fill:none; 
stroke:#000000; stroke-width:3.5000; stroke-opacity:1; 
stroke-linecap:round; stroke-linejoin:round;">
<path d="M42.3900 77.4700
L38.8900 77.4700
" />
<path style="fill:#000000; fill-opacity:1.0000; stroke:none;fill-rule:evenodd;"
d="M 37.1400,70.7200
44.1400,70.7200
44.1400,74.2200
37.1400,74.2200
Z" /> 
</g>
<g style="fill:none; 
stroke:#000000; stroke-width:3.5000; stroke-opacity:1; 
stroke-linecap:round; stroke-linejoin:round;">
<path d="M48.2600 87.1500
L48.2600 90.6500
" />
<path d="M43.2600 87.1500
L43.2600 90.6500
" />
<path style="fill:#000000; fill-opacity:1.0000; stroke:none;fill-rule:evenodd;"
d="M 36.5100,92.4000
36.5100,85.4000
40.0100,85.4000
40.0100,92.4000
Z" /> 
<path style="fill:#000000; fill-opacity:1.0000; stroke:none;fill-rule:evenodd;"
d="M 101.6561,75.2000
94.6561,75.2000
94.6561,71.7000
101.6561,71.7000
Z" /> 
</g>
<g style="fill:none; 
stroke:#000000; stroke-width:3.5000; stroke-opacity:1; 
stroke-linecap:round; stroke-linejoin:round;">
<path d="M96.4061 68.4500
L99.9061 68.4500
" />
<path style="fill:#000000; fill-opacity:1.0000; stroke:none;fill-rule:evenodd;"
d="M 90.5850,93.6700
90.5850,86.6700
94.0850,86.6700
94.0850,93.6700
Z" /> 
</g>
<g style="fill:none; 
stroke:#000000; stroke-width:3.5000; stroke-opacity:1; 
stroke-linecap:round; stroke-linejoin:round;">
<path d="M97.3350 88.4200
L97.3350 91.9200
" />
<path style="fill:#000000; fill-opacity:1.0000; stroke:none;fill-rule:evenodd;"
d="M 66.4400,32.0600
66.4400,39.0600
62.9400,39.0600
62.9400,32.0600
Z" /> 
</g>
<g style="fill:none; 
stroke:#000000; stroke-width:3.5000; stroke-opacity:1; 
stroke-linecap:round; stroke-linejoin:round;">
<path d="M59.6900 37.3100
L59.6900 33.8100
" />
<path style="fill:#000000; fill-opacity:1.0000; stroke:none;fill-rule:evenodd;"
d="M 84.7800,52.5500
77.7800,52.5500
77.7800,49.0500
84.7800,49.0500
Z" /> 
</g>
<g style="fill:none; 
stroke:#000000; stroke-width:3.5000; stroke-opacity:1; 
stroke-linecap:round; stroke-linejoin:round;">
<path d="M79.5300 45.8000
L83.0300 45.8000
" />
<path style="fill:#000000; fill-opacity:1.0000; stroke:none;fill-rule:evenodd;"
d="M 23.0935,52.0540
30.0935,52.0540
30.0935,55.5540
23.0935,55.5540
Z" /> 
</g>
<g style="fill:none; 
stroke:#000000; stroke-width:3.5000; stroke-opacity:1; 
stroke-linecap:round; stroke-linejoin:round;">
<path d="M28.3435 58.8040
L24.8435 58.8040
" />
<path style="fill:#000000; fill-opacity:1.0000; stroke:none;fill-rule:evenodd;"
d="M 84.7300,32.2006
84.7300,39.2006
81.2300,39.2006
81.2300,32.2006
Z" /> 
</g>
<g style="fill:none; 
stroke:#000000; stroke-width:3.5000; stroke-opacity:1; 
stroke-linecap:round; stroke-linejoin:round;">
<path d="M77.9800 37.4506
L77.9800 33.9506
" />
<path d="M72.9800 37.4506
L72.9800 33.9506
" />
<path style="fill:#000000; fill-opacity:1.0000; stroke:none;fill-rule:evenodd;"
d="M 36.0400,32.0600
36.0400,39.0600
32.5400,39.0600
32.5400,32.0600
Z" /> 
</g>
<g style="fill:none; 
stroke:#000000; stroke-width:3.5000; stroke-opacity:1; 
stroke-linecap:round; stroke-linejoin:round;">
<path d="M29.2900 37.3100
L29.2900 33.8100
" />
</g>
<g style="fill:#000000; fill-opacity:1.0000; stroke:none;">
<circle cx="37.0500" cy="102.8700" r="0.8000" /> 
<circle cx="64.5500" cy="102.8700" r="0.8000" /> 
</g>
<g style="fill:#000000; fill-opacity:1.0000; stroke:none;">
<circle cx="102.6846" cy="81.6864" r="0.8000" /> 
</g>
<g style="fill:#000000; fill-opacity:1.0000; stroke:none;">
<circle cx="92.5246" cy="81.6864" r="0.8000" /> 
<circle cx="79.5550" cy="93.9800" r="0.8000" /> 
</g>
<g style="fill:#000000; fill-opacity:1.0000; stroke:none;">
<circle cx="79.5550" cy="81.2800" r="0.8000" /> 
<circle cx="56.1000" cy="21.5900" r="0.8000" /> 
</g>
<g style="fill:#000000; fill-opacity:1.0000; stroke:none;">
<circle cx="83.6000" cy="21.5900" r="0.8000" /> 
<circle cx="44.4500" cy="53.3400" r="0.8000" /> 
</g>
<g style="fill:#000000; fill-opacity:1.0000; stroke:none;">
<circle cx="44.4500" cy="63.5000" r="0.8000" /> 
<circle cx="44.4500" cy="27.9400" r="0.8000" /> 
</g>
<g style="fill:#000000; fill-opacity:1.0000; stroke:none;">
<circle cx="44.4500" cy="40.6400" r="0.8000" /> 
<circle cx="65.6800" cy="68.2500" r="1.0150" /> 
</g>
<g style="fill:#000000; fill-opacity:1.0000; stroke:none;">
<circle cx="67.8300" cy="65.3200" r="1.0150" /> 
</g>
<g style="fill:#000000; fill-opacity:1.0000; stroke:none;">
<circle cx="67.8300" cy="61.6700" r="1.0150" /> 
</g>
<g style="fill:#000000; fill-opacity:1.0000; stroke:none;">
<circle cx="65.6800" cy="58.7400" r="1.0150" /> 
</g>
<g style="fill:#000000; fill-opacity:1.0000; stroke:none;">
<circle cx="62.2300" cy="57.6000" r="1.0150" /> 
</g>
<g style="fill:#000000; fill-opacity:1.0000; stroke:none;">
<circle cx="58.7700" cy="58.7400" r="1.0150" /> 
</g>
<g style="fill:#000000; fill-opacity:1.0000; stroke:none;">
<circle cx="56.6200" cy="61.6700" r="1.0150" /> 
</g>
<g style="fill:#000000; fill-opacity:1.0000; stroke:none;">
<circle cx="56.6200" cy="65.2800" r="1.0150" /> 
</g>
<g style="fill:#000000; fill-opacity:1.0000; stroke:none;">
<circle cx="58.7700" cy="68.2500" r="1.0150" /> 
</g>
<g style="fill:#000000; fill-opacity:1.0000; stroke:none;">
<circle cx="36.7792" cy="63.3984" r="0.8000" /> 
</g>
<g style="fill:#000000; fill-opacity:1.0000; stroke:none;">
<circle cx="36.7792" cy="50.6984" r="0.8000" /> 
<circle cx="85.7860" cy="62.7888" r="0.8000" /> 
</g>
<g style="fill:#000000; fill-opacity:1.0000; stroke:none;">
<circle cx="85.7860" cy="75.4888" r="0.8000" /> 
<circle cx="26.6700" cy="45.7200" r="0.8000" /> 
</g>
<g style="fill:#000000; fill-opacity:1.0000; stroke:none;">
<circle cx="36.8300" cy="45.7200" r="0.8000" /> 
<circle cx="79.5376" cy="72.7964" r="0.8000" /> 
</g>
<g style="fill:#000000; fill-opacity:1.0000; stroke:none;">
<circle cx="79.5376" cy="62.6364" r="0.8000" /> 
</g>
<g style="fill:none; 
stroke:#000000; stroke-width:2.0000; stroke-opacity:1; 
stroke-linecap:round; stroke-linejoin:round;">
<path d="M77.9800 35.7006
L77.9800 42.5000
" />
<path d="M77.9800 42.5000
L81.2800 45.8000
" />
<path d="M83.6000 21.5900
L72.9800 32.2100
" />
<path d="M72.9800 32.2100
L72.9800 35.7006
" />
<path d="M44.4500 40.6400
L41.4500 37.6400
" />
<path d="M46.5574 21.5900
L56.1000 21.5900
" />
<path d="M41.4500 37.6400
L41.4500 26.6974
" />
<path d="M41.4500 26.6974
L46.5574 21.5900
" />
<path d="M43.2600 88.9000
L43.2600 80.0900
" />
<path d="M43.2600 80.0900
L40.6400 77.4700
" />
<path d="M37.0500 102.8700
L48.2600 91.6600
" />
<path d="M48.2600 91.6600
L48.2600 88.9000
" />
<path d="M79.5550 81.2800
L79.5550 87.8650
" />
<path d="M79.5550 87.8650
L64.5500 102.8700
" />
<path d="M79.5550 81.2800
L78.7100 81.2800
" />
<path d="M78.7100 81.2800
L65.6800 68.2500
" />
<path d="M92.5246 81.6864
L88.0238 81.6864
" />
<path d="M88.0238 81.6864
L79.5376 73.2002
" />
<path d="M79.5376 73.2002
L79.5376 72.7964
" />
<path d="M92.3350 90.1700
L92.3350 81.8760
" />
<path d="M92.3350 81.8760
L92.5246 81.6864
" />
<path d="M85.7860 62.7888
L92.4949 62.7888
" />
<path d="M92.4949 62.7888
L98.1561 68.4500
" />
<path d="M85.7860 62.7888
L82.6336 59.6364
" />
<path d="M82.6336 59.6364
L69.8636 59.6364
" />
<path d="M69.8636 59.6364
L67.8300 61.6700
" />
<path d="M79.5376 62.6364
L76.8540 65.3200
" />
<path d="M76.8540 65.3200
L67.8300 65.3200
" />
<path d="M59.6900 35.5600
L52.0700 35.5600
" />
<path d="M52.0700 35.5600
L44.4500 27.9400
" />
<path d="M36.8300 45.7200
L44.4500 53.3400
" />
<path d="M34.2900 35.5600
L34.2900 43.1800
" />
<path d="M34.2900 43.1800
L36.8300 45.7200
" />
<path d="M36.7792 63.3984
L31.1879 63.3984
" />
<path d="M31.1879 63.3984
L26.5935 58.8040
" />
<path d="M36.7792 63.3984
L39.8808 66.5000
" />
<path d="M39.8808 66.5000
L55.4000 66.5000
" />
<path d="M55.4000 66.5000
L56.6200 65.2800
" />
<path d="M44.4500 63.5000
L46.2800 61.6700
" />
<path d="M46.2800 61.6700
L56.6200 61.6700
" />
<path d="M44.4500 40.6400
L44.4500 44.4200
" />
<path d="M44.4500 44.4200
L58.7700 58.7400
" />
</g>
<g style="fill:none; 
stroke:#000000; stroke-width:0.2000; stroke-opacity:1; 
stroke-linecap:round; stroke-linejoin:round;">
<path d="M55.8600 66.0400
L56.6200 65.2800
" />
</g>
<g style="fill:none; 
stroke:#000000; stroke-width:2.0000; stroke-opacity:1; 
stroke-linecap:round; stroke-linejoin:round;">
<path d="M79.5884 72.8472
L79.5376 72.7964
" />
<path style="fill:#000000; fill-opacity:1.0000; stroke:none;fill-rule:evenodd;"
d="M 109.8266,10.6809
110.0195,10.7415
110.1962,10.8396
110.3496,10.9712
110.4733,11.1311
110.5623,11.3125
110.6130,11.5082
110.6245,11.6595
110.6245,111.5305
110.6041,111.7316
110.5435,111.9245
110.4454,112.1012
110.3138,112.2546
110.1539,112.3783
109.9725,112.4673
109.7768,112.5180
109.6255,112.5295
17.3745,112.5295
17.1734,112.5091
16.9805,112.4485
16.8038,112.3504
16.6504,112.2188
16.5267,112.0589
16.4377,111.8775
16.3870,111.6818
16.3755,111.5305
16.3755,106.9838
16.3959,106.7827
16.4565,106.5898
16.5546,106.4131
16.6862,106.2597
16.8461,106.1360
17.0275,106.0470
17.2232,105.9963
17.4251,105.9861
17.6249,106.0167
17.8145,106.0869
17.9860,106.1938
18.1325,106.3331
18.2480,106.4990
18.3071,106.6258
18.3877,106.8357
18.4455,106.9491
18.5543,107.1626
18.5543,107.1627
18.7541,107.4704
18.7541,107.4704
18.9850,107.7555
18.9850,107.7555
18.9851,107.7555
19.2445,108.0149
19.2445,108.0150
19.2445,108.0150
19.5296,108.2458
19.5296,108.2459
19.8373,108.4457
19.8374,108.4457
20.1643,108.6123
20.1643,108.6123
20.5068,108.7437
20.8612,108.8387
21.2236,108.8961
21.5900,108.9153
21.9564,108.8961
22.3188,108.8387
22.6732,108.7437
23.0157,108.6123
23.3427,108.4457
23.6504,108.2459
23.9355,108.0149
24.1949,107.7555
24.4259,107.4704
24.6257,107.1627
24.7923,106.8357
24.9237,106.4932
25.0187,106.1388
25.0761,105.7764
25.0953,105.4100
25.0761,105.0436
25.0187,104.6812
24.9237,104.3268
24.7923,103.9843
24.7701,103.9408
24.6257,103.6574
24.6257,103.6573
24.4259,103.3496
24.4259,103.3496
24.1950,103.0645
24.1950,103.0645
24.1949,103.0645
23.9355,102.8051
23.9355,102.8050
23.9355,102.8050
23.8076,102.7015
34.0495,102.7015
34.0495,103.0385
34.0495,103.0385
34.0872,103.3734
34.0872,103.3734
34.1622,103.7019
34.1622,103.7020
34.2735,104.0200
34.4198,104.3237
34.5513,104.5330
34.5991,104.6090
34.8092,104.8725
35.0475,105.1108
35.3110,105.3209
35.5963,105.5002
35.8999,105.6465
36.2180,105.7578
36.5466,105.8328
36.8815,105.8705
36.8815,105.8705
37.2185,105.8705
37.2185,105.8705
37.5534,105.8328
37.8820,105.7578
38.2001,105.6465
38.5037,105.5002
38.7890,105.3209
39.0525,105.1108
50.4645,93.6988
50.5371,93.6330
50.7817,93.4323
51.0423,93.1717
51.2761,92.8869
51.4808,92.5805
51.6545,92.2555
51.7955,91.9150
51.9025,91.5624
51.9744,91.2010
52.0105,90.8342
52.0105,86.9657
51.9744,86.5990
51.9025,86.2376
51.7955,85.8850
51.6545,85.5445
51.6545,85.5445
51.6545,85.5445
51.5391,85.3286
54.8795,85.3286
54.8795,92.4714
54.8948,92.6854
54.8948,92.6854
54.8948,92.6854
54.9556,92.9650
54.9556,92.9650
55.0556,93.2332
55.0556,93.2332
55.0556,93.2332
55.1928,93.4843
55.3643,93.7134
55.5666,93.9157
55.7957,94.0872
56.0468,94.2244
56.0468,94.2244
56.0468,94.2244
56.2295,94.2925
56.3150,94.3244
56.3150,94.3244
56.3150,94.3244
56.4288,94.3491
56.5946,94.3852
56.8086,94.4005
56.8086,94.4005
60.4514,94.4005
60.4514,94.4005
60.6654,94.3852
60.8831,94.3378
60.9450,94.3244
60.9450,94.3244
60.9450,94.3244
61.1846,94.2350
61.2132,94.2244
61.2132,94.2244
61.2132,94.2244
61.3310,94.1600
61.5173,94.0816
61.7155,94.0423
61.9177,94.0437
62.1154,94.0857
62.1920,94.1139
62.2797,94.1502
62.3650,94.1855
62.3650,94.1855
62.3650,94.1855
62.7176,94.2925
62.7176,94.2925
62.7176,94.2925
63.0790,94.3644
63.0790,94.3644
63.0790,94.3644
63.4457,94.4005
63.4458,94.4005
63.8142,94.4005
63.8142,94.4005
64.1810,94.3644
64.5424,94.2925
64.8950,94.1855
65.2355,94.0445
65.2355,94.0445
65.2355,94.0445
65.5605,93.8708
65.5605,93.8708
65.5605,93.8708
65.8669,93.6661
66.1517,93.4323
66.4123,93.1717
66.6461,92.8869
66.8508,92.5805
67.0245,92.2555
67.1655,91.9150
67.2725,91.5624
67.3444,91.2010
67.3805,90.8342
67.3805,86.9657
67.3444,86.5990
67.2725,86.2376
67.1655,85.8850
67.0245,85.5445
67.0245,85.5445
67.0245,85.5445
66.8508,85.2195
66.6916,84.9813
66.6461,84.9131
66.4612,84.6879
66.4123,84.6283
66.1517,84.3677
65.8710,84.1373
65.8669,84.1339
65.5605,83.9292
65.5605,83.9292
65.5605,83.9292
65.5605,83.9292
65.2355,83.7555
65.2355,83.7555
64.8950,83.6145
64.7084,83.5579
64.5424,83.5075
64.5424,83.5075
64.5424,83.5075
64.1810,83.4356
64.0143,83.4192
63.8142,83.3995
63.4457,83.3995
63.2624,83.4176
63.0790,83.4356
62.7176,83.5075
62.7176,83.5075
62.7176,83.5075
62.7176,83.5075
62.7176,83.5075
62.3650,83.6145
62.3650,83.6145
62.1920,83.6861
61.9984,83.7442
61.7971,83.7621
61.5963,83.7391
61.4042,83.6761
61.3310,83.6400
61.2132,83.5756
61.2132,83.5756
60.9450,83.4756
60.9450,83.4756
60.6654,83.4148
60.6654,83.4148
60.6654,83.4148
60.4729,83.4010
60.4514,83.3995
60.4514,83.3995
56.8086,83.3995
56.8085,83.3995
56.7657,83.4026
56.5946,83.4148
56.5946,83.4148
56.5946,83.4148
56.3150,83.4756
56.3150,83.4756
56.0468,83.5756
56.0468,83.5756
55.7957,83.7128
55.7957,83.7128
55.5666,83.8843
55.3643,84.0866
55.1928,84.3157
55.1928,84.3157
55.0556,84.5668
55.0556,84.5668
54.9556,84.8350
54.9556,84.8350
54.9028,85.0778
54.8948,85.1146
54.8795,85.3286
51.5391,85.3286
51.4808,85.2195
51.3216,84.9813
51.2761,84.9131
51.0912,84.6879
51.0423,84.6283
50.7817,84.3677
50.5010,84.1373
50.4969,84.1339
50.1905,83.9292
50.1905,83.9292
50.1905,83.9292
50.1905,83.9292
49.8655,83.7555
49.8655,83.7555
49.5250,83.6145
49.3384,83.5579
49.1724,83.5075
49.1724,83.5075
49.1724,83.5075
48.8110,83.4356
48.6443,83.4192
48.4442,83.3995
48.0757,83.3995
47.7090,83.4356
47.4544,83.4863
47.2532,83.5054
47.0522,83.4837
46.8597,83.4220
46.6836,83.3228
46.5311,83.1901
46.4084,83.0295
46.3205,82.8475
46.2711,82.6515
46.2605,82.5065
46.2605,79.9215
46.2605,79.9215
46.2551,79.8735
46.2551,79.8735
46.2228,79.5866
46.1950,79.4651
46.1950,79.4651
46.1478,79.2580
46.0515,78.9828
46.0043,78.7862
45.9978,78.5842
46.0283,78.4066
46.0265,78.4062
46.0325,78.3824
46.0325,78.3824
46.1044,78.0210
46.1405,77.6542
46.1405,77.2857
46.1044,76.9190
46.0325,76.5576
45.9255,76.2050
45.7845,75.8645
45.7845,75.8645
45.7845,75.8645
45.6108,75.5395
45.5429,75.4379
45.4061,75.2331
45.1723,74.9483
44.9117,74.6877
44.9117,74.6877
44.6269,74.4539
44.6269,74.4539
44.3205,74.2492
44.3205,74.2492
44.3205,74.2492
44.3205,74.2492
43.9955,74.0755
43.9955,74.0755
43.6550,73.9345
43.4684,73.8779
43.3024,73.8275
43.3024,73.8275
43.3024,73.8275
42.9410,73.7556
42.7743,73.7392
42.5742,73.7195
38.7057,73.7195
38.5224,73.7376
38.3390,73.7556
37.9776,73.8275
37.9776,73.8275
37.9776,73.8275
37.9776,73.8275
37.9776,73.8275
37.6250,73.9345
37.6250,73.9345
37.2845,74.0755
37.2845,74.0755
36.9595,74.2492
36.6531,74.4539
36.6531,74.4539
36.3683,74.6877
36.1077,74.9483
35.8739,75.2331
35.8739,75.2331
35.6692,75.5395
35.4955,75.8645
35.4955,75.8645
35.3545,76.2050
35.3545,76.2050
35.2475,76.5576
35.2475,76.5576
35.1756,76.9190
35.1576,77.1024
35.1395,77.2857
35.1395,77.6542
35.1606,77.8682
35.1756,78.0210
35.2475,78.3824
35.2475,78.3824
35.2475,78.3824
35.3396,78.6859
35.3545,78.7350
35.3545,78.7350
35.4955,79.0755
35.4955,79.0755
35.6692,79.4005
35.7124,79.4651
35.8739,79.7069
35.8739,79.7069
36.1077,79.9917
36.1077,79.9917
36.3683,80.2523
36.6531,80.4861
36.9595,80.6908
36.9595,80.6908
36.9595,80.6908
37.2845,80.8645
37.2845,80.8645
37.2845,80.8645
37.6250,81.0055
37.9776,81.1125
37.9776,81.1125
37.9776,81.1125
38.3390,81.1844
38.3390,81.1844
38.3390,81.1844
38.7057,81.2205
39.2605,81.2205
39.4616,81.2409
39.6545,81.3015
39.8312,81.3996
39.9846,81.5312
40.1083,81.6911
40.1973,81.8725
40.2480,82.0682
40.2595,82.2195
40.2595,84.5868
40.2390,84.7879
40.1785,84.9808
40.0911,85.1418
40.0392,85.2195
40.0392,85.2195
39.8655,85.5445
39.8655,85.5445
39.7245,85.8850
39.7245,85.8850
39.6175,86.2376
39.6175,86.2376
39.5456,86.5990
39.5433,86.6222
39.5095,86.9657
39.5095,90.8342
39.5306,91.0482
39.5456,91.2010
39.6175,91.5624
39.6175,91.5624
39.6175,91.5624
39.6175,91.5624
39.7245,91.9150
39.7245,91.9150
39.8655,92.2555
39.8655,92.2555
40.0392,92.5805
40.1093,92.6854
40.2439,92.8869
40.2439,92.8869
40.4777,93.1717
40.7383,93.4323
40.7508,93.4437
40.8861,93.5939
40.9884,93.7682
41.0535,93.9596
41.0787,94.1602
41.0630,94.3617
41.0071,94.5559
40.9132,94.7349
40.7864,94.8903
34.8092,100.8675
34.5991,101.1310
34.5991,101.1310
34.4198,101.4163
34.2735,101.7200
34.1622,102.0380
34.1622,102.0381
34.0872,102.3666
34.0872,102.3666
34.0495,102.7015
34.0495,102.7015
23.8076,102.7015
23.6504,102.5741
23.6504,102.5741
23.3427,102.3743
23.3426,102.3743
23.0157,102.2077
22.6732,102.0763
22.6732,102.0763
22.6732,102.0763
22.3188,101.9813
21.9564,101.9239
21.9564,101.9239
21.5900,101.9047
21.2236,101.9239
21.1207,101.9402
20.8612,101.9813
20.6494,102.0381
20.5068,102.0763
20.1643,102.2077
19.8374,102.3743
19.8373,102.3743
19.5296,102.5741
19.5296,102.5741
19.2445,102.8050
18.9850,103.0645
18.7541,103.3496
18.7541,103.3496
18.5543,103.6573
18.5543,103.6574
18.3877,103.9843
18.3877,103.9843
18.3071,104.1942
18.2160,104.3746
18.0904,104.5330
17.9355,104.6629
17.7576,104.7589
17.5640,104.8171
17.3627,104.8351
17.1618,104.8123
16.9697,104.7495
16.7941,104.6494
16.6423,104.5159
16.5205,104.3546
16.4336,104.1721
16.3853,103.9758
16.3755,103.8362
16.3755,58.6197
21.0930,58.6197
21.0930,58.9883
21.0981,59.0398
21.1291,59.3550
21.2010,59.7164
21.2010,59.7164
21.2010,59.7164
21.2570,59.9010
21.3080,60.0690
21.3080,60.0690
21.4490,60.4095
21.4490,60.4095
21.6227,60.7345
21.7170,60.8756
21.8274,61.0409
21.8274,61.0409
22.0612,61.3257
22.3218,61.5863
22.4238,61.6700
22.6066,61.8201
22.9130,62.0248
22.9130,62.0248
22.9130,62.0248
23.2380,62.1985
23.2380,62.1985
23.2380,62.1985
23.5785,62.3395
23.9311,62.4465
23.9311,62.4465
23.9311,62.4465
24.2925,62.5184
24.2925,62.5184
24.2925,62.5184
24.6593,62.5545
25.6869,62.5545
25.8879,62.5749
26.0808,62.6355
26.2575,62.7336
26.3933,62.8471
28.9275,65.3814
28.9275,65.3814
28.9471,65.4009
29.1854,65.6392
29.4489,65.8493
29.7342,66.0286
30.0378,66.1749
30.3559,66.2862
30.5545,66.3315
30.6845,66.3612
31.0194,66.3989
31.0194,66.3989
35.1226,66.3989
35.3236,66.4193
35.5165,66.4799
35.6932,66.5780
35.8290,66.6915
37.6204,68.4830
37.6204,68.4830
37.6204,68.4830
37.6400,68.5025
37.8783,68.7408
38.1418,68.9509
38.1418,68.9509
38.3689,69.0937
38.4271,69.1302
38.7307,69.2765
39.0488,69.3878
39.3774,69.4628
39.7123,69.5005
39.7123,69.5005
39.7123,69.5005
55.4437,69.5005
55.6448,69.5209
55.8377,69.5815
56.0144,69.6796
56.1678,69.8112
56.2585,69.9214
56.4087,70.1331
56.4087,70.1331
56.4087,70.1331
56.5984,70.3455
56.6344,70.3856
56.6344,70.3856
56.6344,70.3857
56.8869,70.6113
56.8869,70.6113
56.8869,70.6113
56.8869,70.6113
57.1631,70.8073
57.4596,70.9712
57.7725,71.1008
57.7725,71.1008
58.0979,71.1945
58.4318,71.2513
58.5727,71.2592
58.7700,71.2703
58.7700,71.2703
58.7700,71.2703
58.9521,71.2600
59.1082,71.2513
59.4421,71.1945
59.7675,71.1008
60.0804,70.9712
60.3769,70.8073
60.6531,70.6113
60.9056,70.3856
61.1313,70.1331
61.3273,69.8569
61.3507,69.8147
61.4658,69.6485
61.6121,69.5090
61.7834,69.4018
61.9728,69.3312
62.1726,69.3003
62.3745,69.3101
62.5703,69.3604
62.7519,69.4491
62.9120,69.5726
63.0439,69.7257
63.0993,69.8147
63.1227,69.8569
63.2636,70.0555
63.3187,70.1331
63.3187,70.1331
63.5084,70.3455
63.5444,70.3856
63.5444,70.3856
63.5444,70.3857
63.7861,70.6017
63.8268,70.6402
70.1057,76.9190
76.2619,83.0752
76.3896,83.2319
76.4832,83.4111
76.5388,83.6054
76.5545,83.7816
76.5545,86.2084
76.5340,86.4094
76.4735,86.6023
76.3754,86.7790
76.2619,86.9148
62.3092,100.8675
62.0991,101.1310
62.0991,101.1310
61.9198,101.4163
61.7735,101.7200
61.6622,102.0380
61.6622,102.0381
61.5872,102.3666
61.5872,102.3666
61.5495,102.7015
61.5495,102.7015
61.5495,103.0385
61.5495,103.0385
61.5872,103.3734
61.5872,103.3734
61.6622,103.7019
61.6622,103.7020
61.7735,104.0200
61.9198,104.3237
62.0513,104.5330
62.0991,104.6090
62.3092,104.8725
62.5475,105.1108
62.8110,105.3209
63.0963,105.5002
63.3999,105.6465
63.7180,105.7578
64.0466,105.8328
64.3815,105.8705
64.3815,105.8705
64.7185,105.8705
64.7185,105.8705
65.0534,105.8328
65.3820,105.7578
65.7001,105.6465
66.0037,105.5002
66.1473,105.4100
100.6347,105.4100
100.6539,105.7764
100.6539,105.7764
100.7113,106.1388
100.7848,106.4131
100.8063,106.4932
100.9377,106.8357
101.1043,107.1626
101.1043,107.1627
101.3041,107.4704
101.3041,107.4704
101.5350,107.7555
101.5350,107.7555
101.5351,107.7555
101.7945,108.0149
101.7945,108.0150
101.7945,108.0150
102.0796,108.2458
102.0796,108.2459
102.3873,108.4457
102.3874,108.4457
102.7143,108.6123
102.7143,108.6123
103.0568,108.7437
103.4112,108.8387
103.7736,108.8961
104.1400,108.9153
104.5064,108.8961
104.8688,108.8387
105.2232,108.7437
105.5657,108.6123
105.8927,108.4457
106.2004,108.2459
106.4855,108.0149
106.7449,107.7555
106.9759,107.4704
107.1757,107.1627
107.3423,106.8357
107.4737,106.4932
107.5687,106.1388
107.6261,105.7764
107.6453,105.4100
107.6261,105.0436
107.5687,104.6812
107.4737,104.3268
107.3423,103.9843
107.3201,103.9408
107.1757,103.6574
107.1757,103.6573
106.9759,103.3496
106.9758,103.3496
106.7450,103.0645
106.7450,103.0645
106.7449,103.0645
106.4855,102.8051
106.4855,102.8050
106.4855,102.8050
106.2004,102.5741
106.2004,102.5741
105.8927,102.3743
105.8926,102.3743
105.5657,102.2077
105.2232,102.0763
105.2232,102.0763
105.2232,102.0763
104.8688,101.9813
104.5064,101.9239
104.5064,101.9239
104.1400,101.9047
103.7736,101.9239
103.6707,101.9402
103.4112,101.9813
103.1994,102.0381
103.0568,102.0763
102.7143,102.2077
102.3874,102.3743
102.3873,102.3743
102.0796,102.5741
102.0796,102.5741
101.7945,102.8050
101.5350,103.0645
101.3041,103.3496
101.3041,103.3496
101.1043,103.6573
101.1043,103.6574
100.9377,103.9843
100.8063,104.3268
100.8063,104.3268
100.8063,104.3268
100.7113,104.6812
100.6990,104.7589
100.6539,105.0436
100.6347,105.4100
66.1473,105.4100
66.2890,105.3209
66.5525,105.1108
75.9390,95.7244
76.0956,95.5966
76.2748,95.5031
76.4691,95.4475
76.6707,95.4321
76.8712,95.4576
77.0625,95.5230
77.2366,95.6256
77.3866,95.7611
77.4038,95.7808
77.6299,96.0205
77.6299,96.0205
77.7820,96.1480
77.8798,96.2302
78.1524,96.4094
78.4439,96.5558
78.7504,96.6674
79.0679,96.7426
79.3540,96.7761
79.3919,96.7805
79.3919,96.7805
79.7181,96.7805
79.7520,96.7765
80.0421,96.7426
80.3596,96.6674
80.6661,96.5558
80.9576,96.4094
81.2302,96.2302
81.4801,96.0205
81.7039,95.7832
81.8987,95.5215
82.0619,95.2390
82.1911,94.9395
82.2846,94.6269
82.3413,94.3057
82.3602,93.9800
82.3413,93.6543
82.2846,93.3331
82.1911,93.0205
82.0619,92.7210
81.8987,92.4385
81.7039,92.1768
81.7039,92.1768
81.4801,91.9395
81.4801,91.9395
81.3603,91.8390
81.2194,91.6941
81.1105,91.5238
81.0382,91.3350
81.0053,91.1356
81.0133,90.9336
81.0618,90.7373
81.1487,90.5549
81.2706,90.3936
81.2960,90.3673
81.7958,89.8675
82.0059,89.6040
82.1852,89.3187
82.3315,89.0151
82.4164,88.7722
82.4428,88.6970
82.5178,88.3684
82.5555,88.0335
82.5555,82.8732
82.5759,82.6721
82.6365,82.4793
82.7346,82.3025
82.8662,82.1492
83.0261,82.0254
83.2075,81.9364
83.4032,81.8858
83.6051,81.8755
83.8049,81.9061
83.9945,81.9763
84.1660,82.0833
84.2609,82.1668
86.0213,83.9272
86.2848,84.1373
86.2848,84.1373
86.5686,84.3157
86.5701,84.3166
86.8738,84.4629
87.1054,84.5439
87.1709,84.5668
87.1918,84.5742
87.5204,84.6492
87.7137,84.6709
87.8645,84.6879
88.0621,84.7308
88.2469,84.8125
88.4116,84.9298
88.5492,85.0778
88.6543,85.2505
88.7224,85.4408
88.7509,85.6409
88.7384,85.8426
88.6887,86.0298
88.6606,86.1050
88.6606,86.1050
88.5998,86.3846
88.5998,86.3846
88.5845,86.5986
88.5845,93.7414
88.5998,93.9554
88.5998,93.9554
88.5998,93.9554
88.6606,94.2350
88.6606,94.2350
88.7606,94.5032
88.7606,94.5032
88.8515,94.6696
88.8978,94.7543
89.0693,94.9834
89.2716,95.1857
89.5007,95.3572
89.7518,95.4944
89.7518,95.4944
89.7518,95.4944
89.9529,95.5694
90.0200,95.5944
90.0200,95.5944
90.0200,95.5944
90.1338,95.6191
90.2996,95.6552
90.5136,95.6705
90.5136,95.6705
94.1564,95.6705
94.1564,95.6705
94.3704,95.6552
94.5881,95.6078
94.6500,95.5944
94.6500,95.5944
94.6500,95.5944
94.8454,95.5215
94.9182,95.4944
94.9182,95.4944
94.9182,95.4944
94.9182,95.4944
95.1693,95.3572
95.3984,95.1857
95.6007,94.9834
95.7722,94.7543
95.9094,94.5032
96.0094,94.2350
96.0117,94.2244
96.0415,94.0872
96.0702,93.9554
96.0855,93.7414
96.0855,86.5986
96.0702,86.3846
96.0094,86.1050
95.9813,86.0298
95.9094,85.8368
95.9094,85.8368
95.9094,85.8368
95.7722,85.5857
95.6007,85.3566
95.6007,85.3566
95.5795,85.3321
95.4633,85.1667
95.3827,84.9813
95.3411,84.7835
95.3355,84.6779
95.3355,82.9078
95.3559,82.7067
95.3916,82.5778
95.4124,82.5184
95.4874,82.1898
95.5251,81.8549
95.5251,81.5179
95.4874,81.1830
95.4124,80.8544
95.3011,80.5363
95.1548,80.2327
94.9755,79.9474
94.7654,79.6839
94.5271,79.4456
94.2636,79.2355
94.0091,79.0755
93.9783,79.0562
93.7370,78.9399
93.6747,78.9099
93.6746,78.9099
93.6746,78.9099
93.3566,78.7986
93.3566,78.7986
93.3566,78.7986
93.0280,78.7236
93.0280,78.7236
93.0280,78.7236
92.8553,78.7042
92.8553,78.7042
92.6931,78.6859
92.6931,78.6859
92.6931,78.6859
92.6931,78.6859
92.6931,78.6859
89.6804,78.6859
89.4794,78.6654
89.2865,78.6049
89.1098,78.5068
88.9740,78.3933
82.5657,71.9849
82.4379,71.8283
82.3720,71.7120
82.2186,71.3935
82.2186,71.3935
82.1867,71.3427
82.0393,71.1082
81.8292,70.8447
81.5401,70.5556
81.2766,70.3455
81.2766,70.3455
80.9913,70.1662
80.7615,70.0555
80.6877,70.0199
80.6876,70.0199
80.6876,70.0199
80.3696,69.9086
80.3695,69.9086
80.0410,69.8336
79.7061,69.7959
79.7061,69.7959
79.7061,69.7959
79.3691,69.7959
79.3691,69.7959
79.3691,69.7959
79.0342,69.8336
79.0342,69.8336
79.0342,69.8336
78.8627,69.8728
78.6621,69.8976
78.4888,69.8838
78.4182,69.9613
78.2549,70.0803
78.1847,70.1176
78.0839,70.1662
78.0839,70.1662
77.7986,70.3455
77.7986,70.3455
77.5351,70.5556
77.2968,70.7939
77.0867,71.0574
77.0867,71.0574
76.9074,71.3427
76.7611,71.6464
76.6498,71.9644
76.6498,71.9644
76.6498,71.9644
76.6498,71.9644
76.5748,72.2930
76.5748,72.2930
76.5748,72.2930
76.5430,72.5759
76.5001,72.7735
76.4184,72.9584
76.3011,73.1230
76.1531,73.2607
75.9804,73.3657
75.7901,73.4339
75.5900,73.4623
75.3882,73.4499
75.1931,73.3971
75.0126,73.3061
74.8541,73.1806
74.8438,73.1705
71.6992,70.0259
71.5715,69.8692
71.4779,69.6901
71.4223,69.4957
71.4070,69.2942
71.4325,69.0937
71.4979,68.9024
71.6004,68.7282
71.7359,68.5782
71.8989,68.4586
72.0825,68.3742
72.2794,68.3285
72.4056,68.3205
77.0225,68.3205
77.0225,68.3205
77.3574,68.2828
77.5289,68.2436
77.7295,68.2188
77.9028,68.2326
77.9734,68.1551
78.1367,68.0361
78.2070,67.9988
78.2143,67.9952
78.3077,67.9502
78.5930,67.7709
78.8036,67.6031
78.8565,67.5608
79.0948,67.3225
81.7784,64.6389
81.7977,64.6148
81.9390,64.4703
82.1066,64.3573
82.2935,64.2803
82.4920,64.2424
82.6941,64.2454
82.8915,64.2889
83.0761,64.3713
83.2403,64.4891
83.2851,64.5312
83.5256,64.7718
83.5256,64.7718
83.5452,64.7913
83.7835,65.0296
84.0470,65.2397
84.0470,65.2397
84.3035,65.4009
84.3323,65.4190
84.6359,65.5653
84.7857,65.6177
84.9540,65.6766
84.9540,65.6766
84.9540,65.6766
85.2371,65.7412
85.2826,65.7516
85.6175,65.7893
85.6175,65.7893
90.8383,65.7893
91.0393,65.8097
91.2322,65.8703
91.4089,65.9684
91.5447,66.0819
92.4253,66.9626
92.5530,67.1192
92.6466,67.2984
92.7022,67.4927
92.7176,67.6943
92.6987,67.8638
92.6917,67.8990
92.6867,67.9502
92.6556,68.2657
92.6556,68.6342
92.6649,68.7282
92.6917,69.0010
92.7636,69.3624
92.7636,69.3624
92.7636,69.3624
92.8081,69.5090
92.8706,69.7150
92.8706,69.7150
93.0116,70.0555
93.0116,70.0555
93.1853,70.3805
93.3023,70.5556
93.3900,70.6869
93.3900,70.6869
93.6238,70.9717
93.8844,71.2323
94.0132,71.3380
94.1692,71.4661
94.4756,71.6708
94.4756,71.6708
94.4756,71.6708
94.8006,71.8445
94.8006,71.8445
94.8006,71.8445
95.1411,71.9855
95.4937,72.0925
95.4937,72.0925
95.4937,72.0925
95.8551,72.1644
95.8551,72.1644
95.8551,72.1644
96.2218,72.2005
96.2219,72.2005
100.0903,72.2005
100.0904,72.2005
100.4571,72.1644
100.8185,72.0925
101.1711,71.9855
101.5116,71.8445
101.5116,71.8445
101.5116,71.8445
101.8366,71.6708
101.8366,71.6708
101.8366,71.6708
102.1430,71.4661
102.4278,71.2323
102.6884,70.9717
102.9222,70.6869
103.1269,70.3805
103.2591,70.1331
103.3006,70.0555
103.3006,70.0555
103.3006,70.0555
103.4416,69.7150
103.5486,69.3624
103.6205,69.0010
103.6566,68.6342
103.6566,68.2657
103.6205,67.8990
103.5950,67.7709
103.5486,67.5376
103.5486,67.5376
103.5486,67.5376
103.4416,67.1850
103.3006,66.8445
103.3006,66.8445
103.3006,66.8445
103.1269,66.5195
102.9710,66.2862
102.9222,66.2131
102.6884,65.9283
102.4278,65.6677
102.4278,65.6677
102.1430,65.4339
102.1430,65.4339
101.8366,65.2292
101.8366,65.2292
101.8366,65.2292
101.8366,65.2292
101.5116,65.0555
101.5116,65.0555
101.1711,64.9145
100.9845,64.8579
100.8185,64.8075
100.8185,64.8075
100.8185,64.8075
100.4571,64.7356
100.2904,64.7192
100.0904,64.6995
100.0903,64.6995
99.0627,64.6995
98.8616,64.6791
98.6688,64.6185
98.4920,64.5204
98.3563,64.4069
96.5849,62.6355
94.4974,60.5480
94.2339,60.3379
94.2007,60.3169
93.9486,60.1586
93.7842,60.0794
93.6450,60.0123
93.6449,60.0123
93.6449,60.0123
93.3269,59.9010
93.3268,59.9010
92.9983,59.8260
92.6634,59.7883
92.6634,59.7883
92.6634,59.7883
92.6634,59.7883
92.6634,59.7883
87.4426,59.7883
87.2415,59.7678
87.0487,59.7073
86.8719,59.6092
86.7362,59.4957
85.8563,58.6158
84.6361,57.3956
84.3726,57.1855
84.3726,57.1855
84.0873,57.0062
83.9229,56.9270
83.7837,56.8599
83.7836,56.8599
83.7836,56.8599
83.4656,56.7486
83.4655,56.7486
83.1370,56.6736
82.8021,56.6359
82.8021,56.6359
82.8021,56.6359
82.8021,56.6359
70.0321,56.6359
69.6951,56.6359
69.6951,56.6359
69.6680,56.6389
69.6680,56.6389
69.3602,56.6736
69.3602,56.6736
69.0317,56.7486
69.0316,56.7486
68.8806,56.8015
68.8806,56.8015
68.8300,56.8192
68.6335,56.8663
68.4314,56.8729
68.2322,56.8386
68.0440,56.7650
67.8744,56.6550
67.8344,56.6211
67.5631,56.3787
67.5631,56.3787
67.2869,56.1827
67.2869,56.1827
66.9904,56.0188
66.9904,56.0188
66.6775,55.8892
66.6775,55.8892
66.3521,55.7955
66.3521,55.7955
66.3521,55.7955
66.3521,55.7955
66.0182,55.7387
65.6800,55.7197
65.6800,55.7197
65.3418,55.7387
65.2507,55.7542
65.0491,55.7677
64.8488,55.7404
64.6581,55.6733
64.4849,55.5692
64.3770,55.4757
64.3656,55.4644
64.3656,55.4644
64.3656,55.4644
64.3656,55.4643
64.1131,55.2387
64.1131,55.2387
63.8369,55.0427
63.8369,55.0427
63.5404,54.8788
63.5404,54.8788
63.2275,54.7492
63.2275,54.7492
62.9021,54.6555
62.9021,54.6555
62.9021,54.6555
62.9021,54.6555
62.5682,54.5987
62.2300,54.5797
62.2300,54.5797
61.8918,54.5987
61.5579,54.6555
61.5579,54.6555
61.2325,54.7492
60.9196,54.8788
60.9196,54.8788
60.6231,55.0427
60.5465,55.0970
60.3707,55.1967
60.1784,55.2590
59.9775,55.2812
59.7762,55.2626
59.5828,55.2039
59.4052,55.1074
59.2620,54.9887
47.7431,43.4698
47.6154,43.3131
47.5218,43.1339
47.4662,42.9396
47.4505,42.7634
47.4505,40.4715
47.4505,40.4715
47.4500,40.4668
47.4500,40.4667
47.4500,40.4667
47.4136,40.1443
47.4128,40.1366
47.3378,39.8080
47.3069,39.7199
47.2265,39.4899
47.2265,39.4899
47.1731,39.3790
47.1731,39.3790
47.0802,39.1863
47.0802,39.1863
46.9009,38.9010
46.8125,38.7901
46.8125,38.7901
46.6908,38.6375
46.4525,38.3992
46.4330,38.3796
46.4330,38.3796
46.4330,38.3796
44.7431,36.6898
44.6154,36.5331
44.5218,36.3539
44.4662,36.1596
44.4505,35.9834
44.4505,34.5956
44.4709,34.3946
44.5315,34.2017
44.6296,34.0250
44.7612,33.8716
44.9211,33.7479
45.1025,33.6588
45.2982,33.6082
45.5001,33.5979
45.6999,33.6285
45.8895,33.6987
46.0610,33.8057
46.1559,33.8892
49.8292,37.5625
49.8292,37.5625
50.0675,37.8008
50.0675,37.8008
50.0771,37.8085
50.1160,37.8395
50.3310,38.0109
50.6163,38.1902
50.9199,38.3365
51.2380,38.4478
51.5666,38.5228
51.9015,38.5605
51.9015,38.5605
55.5070,38.5605
55.7081,38.5810
55.9009,38.6415
56.0777,38.7396
56.2310,38.8712
56.3548,39.0311
56.3880,39.0886
56.4692,39.2405
56.6739,39.5469
56.6739,39.5469
56.9077,39.8317
57.1683,40.0923
57.2317,40.1443
57.4531,40.3261
57.7595,40.5308
57.7595,40.5308
57.7595,40.5308
58.0845,40.7045
58.0845,40.7045
58.0845,40.7045
58.4250,40.8455
58.7776,40.9525
58.7776,40.9525
58.7776,40.9525
59.1390,41.0244
59.1390,41.0244
59.1390,41.0244
59.5057,41.0605
59.5058,41.0605
59.8742,41.0605
59.8742,41.0605
60.2410,41.0244
60.6024,40.9525
60.9550,40.8455
61.2955,40.7045
61.2955,40.7045
61.2955,40.7045
61.6205,40.5308
61.6205,40.5308
61.6205,40.5308
61.9269,40.3261
62.2117,40.0923
62.4723,39.8317
62.7061,39.5469
62.9108,39.2405
62.9920,39.0886
63.0845,38.9155
63.0845,38.9155
63.0845,38.9155
63.2255,38.5750
63.3325,38.2224
63.3482,38.1434
63.4044,37.8610
63.4044,37.8610
63.4044,37.8610
63.4405,37.4943
63.4405,33.7663
69.2295,33.7663
69.2295,37.6349
69.2458,37.8008
69.2656,38.0016
69.3375,38.3630
69.3375,38.3630
69.3375,38.3630
69.4018,38.5750
69.4445,38.7156
69.4445,38.7156
69.5855,39.0561
69.5855,39.0561
69.7592,39.3811
69.8539,39.5227
69.9639,39.6875
69.9639,39.6875
70.1977,39.9723
70.1977,39.9723
70.4583,40.2329
70.7431,40.4667
71.0495,40.6714
71.0495,40.6714
71.0495,40.6714
71.3745,40.8451
71.3745,40.8451
71.3745,40.8451
71.7150,40.9861
72.0676,41.0931
72.0676,41.0931
72.0676,41.0931
72.4290,41.1650
72.4290,41.1650
72.4290,41.1650
72.7957,41.2011
72.7958,41.2011
73.1642,41.2011
73.1642,41.2011
73.5310,41.1650
73.7856,41.1143
73.9868,41.0952
74.1878,41.1169
74.3803,41.1786
74.5564,41.2778
74.7089,41.4105
74.8316,41.5711
74.9195,41.7531
74.9689,41.9491
74.9795,42.0941
74.9795,42.6685
74.9852,42.7195
74.9852,42.7195
75.0172,43.0034
75.0172,43.0034
75.0922,43.3320
75.0922,43.3320
75.0922,43.3320
75.1731,43.5631
75.2035,43.6501
75.3498,43.9537
75.5291,44.2390
75.5877,44.3126
75.6016,44.3301
75.6016,44.3301
75.6299,44.3656
75.7393,44.5355
75.8123,44.7240
75.8458,44.9234
75.8385,45.1254
75.8287,45.1833
75.8156,45.2490
75.8156,45.2490
75.8156,45.2490
75.7795,45.6157
75.7795,45.9842
75.7967,46.1590
75.8156,46.3510
75.8875,46.7124
75.8875,46.7124
75.8875,46.7124
75.8875,46.7124
75.9945,47.0650
75.9945,47.0650
76.1355,47.4055
76.1355,47.4055
76.3092,47.7305
76.4451,47.9338
76.5139,48.0369
76.5139,48.0369
76.7477,48.3217
76.7477,48.3217
77.0083,48.5823
77.2931,48.8161
77.5995,49.0208
77.5995,49.0208
77.5995,49.0208
77.9245,49.1945
77.9245,49.1945
77.9245,49.1945
78.2650,49.3355
78.6176,49.4425
78.6176,49.4425
78.6176,49.4425
78.9790,49.5144
78.9790,49.5144
78.9790,49.5144
79.3457,49.5505
79.3458,49.5505
83.2142,49.5505
83.2142,49.5505
83.5810,49.5144
83.9424,49.4425
84.2950,49.3355
84.6355,49.1945
84.6355,49.1945
84.6355,49.1945
84.9605,49.0208
84.9605,49.0208
84.9605,49.0208
85.2669,48.8161
85.5517,48.5823
85.8123,48.3217
86.0461,48.0369
86.2508,47.7305
86.4245,47.4055
86.5655,47.0650
86.6725,46.7124
86.7444,46.3510
86.7805,45.9842
86.7805,45.6157
86.7444,45.2490
86.7444,45.2490
86.6725,44.8876
86.6725,44.8876
86.6725,44.8876
86.5655,44.5350
86.4245,44.1945
86.4245,44.1945
86.4245,44.1945
86.2508,43.8695
86.1829,43.7679
86.0461,43.5631
85.8563,43.3320
85.8123,43.2783
85.5517,43.0177
85.2669,42.7839
85.2669,42.7839
84.9605,42.5792
84.9605,42.5792
84.9605,42.5792
84.9605,42.5792
84.6355,42.4055
84.6355,42.4055
84.2950,42.2645
84.1084,42.2079
83.9424,42.1575
83.9424,42.1575
83.9424,42.1575
83.5810,42.0856
83.4143,42.0692
83.2142,42.0495
83.2142,42.0495
82.1866,42.0495
81.9855,42.0290
81.7927,41.9685
81.6159,41.8704
81.4802,41.7569
81.2731,41.5498
81.1454,41.3931
81.0518,41.2139
80.9962,41.0196
80.9805,40.8434
80.9805,40.0138
81.0010,39.8127
81.0615,39.6198
81.1489,39.4588
81.2008,39.3811
81.3342,39.1314
81.3745,39.0561
81.3745,39.0561
81.3745,39.0561
81.5155,38.7156
81.6225,38.3630
81.6944,38.0016
81.7305,37.6349
81.7305,33.7663
81.6944,33.3996
81.6225,33.0382
81.5155,32.6856
81.3745,32.3451
81.3745,32.3451
81.3745,32.3451
81.2008,32.0201
81.0367,31.7746
80.9961,31.7137
80.7623,31.4289
80.5017,31.1683
80.5017,31.1683
80.3085,31.0098
80.2169,30.9345
80.1991,30.9227
80.0433,30.7939
79.9165,30.6365
79.8241,30.4567
79.7697,30.2620
79.7556,30.0604
79.7824,29.8601
79.8490,29.6692
79.9527,29.4957
80.0477,29.3856
85.8408,23.5925
86.0509,23.3290
86.2302,23.0437
86.3765,22.7401
86.4878,22.4220
86.5628,22.0934
86.6005,21.7585
86.6005,21.4215
86.5628,21.0866
86.4878,20.7580
86.3765,20.4399
86.2302,20.1363
86.0509,19.8510
85.8408,19.5875
85.6025,19.3492
85.3390,19.1391
85.3007,19.1150
85.0537,18.9598
84.8372,18.8555
84.7501,18.8135
84.7500,18.8135
84.7500,18.8135
84.4320,18.7022
84.4319,18.7022
84.1034,18.6272
83.7685,18.5895
83.7685,18.5895
83.7685,18.5895
83.4315,18.5895
83.4315,18.5895
83.4315,18.5895
83.0966,18.6272
83.0966,18.6272
82.7681,18.7022
82.7680,18.7022
82.4500,18.8135
82.1463,18.9598
81.8610,19.1391
81.8610,19.1391
81.5975,19.3492
70.9775,29.9692
70.7392,30.2075
70.5291,30.4710
70.5291,30.4710
70.3498,30.7563
70.2035,31.0599
70.0922,31.3780
70.0922,31.3781
70.0834,31.4167
70.0187,31.6082
69.9401,31.7494
69.7592,32.0201
69.7592,32.0201
69.5855,32.3451
69.5855,32.3451
69.4445,32.6856
69.4445,32.6856
69.3375,33.0382
69.3375,33.0382
69.2656,33.3996
69.2476,33.5830
69.2295,33.7663
63.4405,33.7663
63.4405,33.6257
63.4044,33.2590
63.3325,32.8976
63.2255,32.5450
63.0845,32.2045
63.0845,32.2045
63.0845,32.2045
62.9108,31.8795
62.8239,31.7494
62.7061,31.5731
62.4723,31.2883
62.2117,31.0277
62.2117,31.0277
61.9269,30.7939
61.9269,30.7939
61.6205,30.5892
61.6205,30.5892
61.6205,30.5892
61.6205,30.5892
61.2955,30.4155
61.2955,30.4155
60.9550,30.2745
60.7684,30.2179
60.6024,30.1675
60.6024,30.1675
60.6024,30.1675
60.2410,30.0956
60.0743,30.0792
59.8742,30.0595
59.5057,30.0595
59.3224,30.0776
59.1390,30.0956
58.7776,30.1675
58.7776,30.1675
58.7776,30.1675
58.7776,30.1675
58.7776,30.1675
58.4250,30.2745
58.4250,30.2745
58.0845,30.4155
58.0845,30.4155
57.7595,30.5892
57.4531,30.7939
57.4531,30.7939
57.1683,31.0277
56.9077,31.2883
56.6739,31.5731
56.6739,31.5731
56.4692,31.8795
56.3880,32.0314
56.2752,32.1991
56.1309,32.3407
55.9611,32.4503
55.7727,32.5235
55.5734,32.5573
55.5070,32.5595
53.7266,32.5595
53.5256,32.5390
53.3327,32.4785
53.1560,32.3804
53.0202,32.2669
47.2784,26.5251
47.1507,26.3684
47.0571,26.1893
47.0015,25.9949
46.9861,25.7934
47.0117,25.5929
47.0771,25.4016
47.1796,25.2274
47.2784,25.1123
47.5076,24.8831
47.6643,24.7554
47.8434,24.6618
48.0378,24.6062
48.2140,24.5905
56.2685,24.5905
56.2685,24.5905
56.6034,24.5528
56.9320,24.4778
57.2501,24.3665
57.5537,24.2202
57.8390,24.0409
58.1025,23.8308
58.3408,23.5925
58.5509,23.3290
58.7302,23.0437
58.8765,22.7401
58.9878,22.4220
59.0628,22.0934
59.1005,21.7585
59.1005,21.4215
59.0628,21.0866
58.9878,20.7580
58.8765,20.4399
58.7302,20.1363
58.5509,19.8510
58.3408,19.5875
58.1025,19.3492
57.8390,19.1391
57.8007,19.1150
57.5537,18.9598
57.3372,18.8555
57.2501,18.8135
57.2500,18.8135
57.2500,18.8135
56.9320,18.7022
56.9320,18.7022
56.9320,18.7022
56.6034,18.6272
56.6034,18.6272
56.2685,18.5895
56.2685,18.5895
56.2685,18.5895
46.7259,18.5895
46.3889,18.5895
46.3888,18.5895
46.1538,18.6160
46.1146,18.6204
46.0550,18.6271
46.0540,18.6272
45.7254,18.7022
45.7254,18.7022
45.4073,18.8135
45.1037,18.9598
44.8183,19.1391
44.8183,19.1391
44.5548,19.3492
39.2092,24.6948
38.9991,24.9583
38.9991,24.9583
38.8198,25.2437
38.6735,25.5473
38.5622,25.8654
38.5622,25.8654
38.5622,25.8654
38.5622,25.8654
38.4872,26.1940
38.4872,26.1940
38.4872,26.1940
38.4495,26.5288
38.4495,26.5289
38.4495,29.4127
38.4290,29.6138
38.3685,29.8066
38.2704,29.9834
38.1388,30.1367
37.9789,30.2604
37.7975,30.3495
37.6018,30.4001
37.3999,30.4104
37.2001,30.3798
37.0105,30.3096
36.9717,30.2895
36.8732,30.2356
36.8732,30.2356
36.6050,30.1356
36.6050,30.1356
36.3254,30.0748
36.3254,30.0748
36.3254,30.0748
36.1241,30.0604
36.1114,30.0595
36.1114,30.0595
32.4686,30.0595
32.4686,30.0595
32.4257,30.0626
32.2546,30.0748
32.2546,30.0748
32.2546,30.0748
31.9750,30.1356
31.9750,30.1356
31.7068,30.2356
31.7068,30.2356
31.4557,30.3728
31.4557,30.3728
31.2266,30.5443
31.0243,30.7466
30.8528,30.9757
30.8528,30.9757
30.7156,31.2268
30.7156,31.2268
30.6156,31.4950
30.6156,31.4950
30.5548,31.7746
30.5548,31.7746
30.5395,31.9886
30.5395,39.1314
30.5548,39.3454
30.5548,39.3454
30.5548,39.3454
30.6156,39.6250
30.6156,39.6250
30.7156,39.8932
30.7156,39.8932
30.7156,39.8932
30.8528,40.1443
31.0243,40.3734
31.0243,40.3734
31.0455,40.3979
31.1617,40.5633
31.2423,40.7486
31.2839,40.9465
31.2895,41.0521
31.2895,43.3485
31.2895,43.3485
31.3272,43.6834
31.3272,43.6834
31.3272,43.6834
31.3889,43.9537
31.4022,44.0120
31.4022,44.0120
31.5135,44.3300
31.5135,44.3301
31.6598,44.6337
31.7165,44.7240
31.8391,44.9190
31.8781,44.9680
32.0036,45.1254
32.0492,45.1825
34.5892,47.7225
34.5892,47.7225
42.4475,55.5808
42.7110,55.7909
42.9963,55.9702
43.2999,56.1165
43.6180,56.2278
43.9466,56.3028
44.2815,56.3405
44.2815,56.3405
44.6185,56.3405
44.6185,56.3405
44.9534,56.3028
45.2820,56.2278
45.6001,56.1165
45.9037,55.9702
46.1890,55.7909
46.4525,55.5808
46.6908,55.3425
46.9009,55.0790
47.0802,54.7937
47.2265,54.4901
47.3378,54.1720
47.4128,53.8434
47.4128,53.8434
47.4190,53.8161
47.4214,53.8166
47.4647,53.6598
47.5567,53.4797
47.6830,53.3219
47.8385,53.1928
48.0168,53.0976
48.2106,53.0402
48.4120,53.0230
48.6127,53.0468
48.8046,53.1104
48.9797,53.2113
49.1021,53.3155
50.9482,55.1615
52.7508,56.9641
52.8785,57.1208
52.9721,57.2999
53.0277,57.4943
53.0430,57.6958
53.0175,57.8963
52.9521,58.0876
52.8496,58.2618
52.7141,58.4118
52.5511,58.5314
52.3675,58.6158
52.1706,58.6615
52.0444,58.6695
46.4485,58.6695
46.1115,58.6695
46.1115,58.6695
46.1115,58.6695
45.7766,58.7072
45.7766,58.7072
45.4481,58.7822
45.4480,58.7822
45.1300,58.8935
44.8263,59.0398
44.5410,59.2191
44.5410,59.2191
44.2775,59.4292
44.0392,59.6675
44.0392,59.6675
42.2092,61.4975
42.2092,61.4975
41.9991,61.7610
41.9991,61.7610
41.8198,62.0463
41.7320,62.2285
41.6264,62.4008
41.4882,62.5483
41.3231,62.6650
41.1379,62.7460
40.9402,62.7881
40.7381,62.7896
40.5398,62.7503
40.3535,62.6720
40.1867,62.5577
40.1256,62.5014
39.9637,62.3395
38.7817,61.1576
38.7800,61.1562
38.5182,60.9475
38.3836,60.8628
38.2329,60.7682
37.9699,60.6415
37.9293,60.6219
37.9292,60.6219
37.9292,60.6219
37.6112,60.5106
37.6111,60.5106
37.2826,60.4356
37.2798,60.4353
37.1039,60.4155
37.0471,60.4091
36.9477,60.3979
36.9477,60.3979
36.9477,60.3979
33.0574,60.3979
32.8563,60.3774
32.6634,60.3169
32.4867,60.2188
32.3333,60.0872
32.2096,59.9273
32.1206,59.7459
32.0699,59.5502
32.0597,59.3483
32.0632,59.3010
32.0889,59.0398
32.0940,58.9883
32.0940,58.6197
32.0579,58.2530
32.0579,58.2530
31.9860,57.8916
31.9860,57.8916
31.9860,57.8916
31.8790,57.5390
31.7380,57.1985
31.7380,57.1985
31.7380,57.1985
31.5643,56.8735
31.4808,56.7486
31.3596,56.5671
31.2049,56.3787
31.1258,56.2823
30.8652,56.0217
30.5895,55.7955
30.5804,55.7879
30.2740,55.5832
30.2740,55.5832
30.2740,55.5832
30.2740,55.5832
29.9490,55.4095
29.9490,55.4095
29.6085,55.2685
29.3720,55.1967
29.2559,55.1615
29.2559,55.1615
29.2559,55.1615
28.8945,55.0896
28.7278,55.0732
28.5277,55.0535
24.6593,55.0535
24.4759,55.0716
24.2925,55.0896
23.9311,55.1615
23.9311,55.1615
23.9311,55.1615
23.9311,55.1615
23.9311,55.1615
23.5785,55.2685
23.5785,55.2685
23.2380,55.4095
23.2380,55.4095
22.9130,55.5832
22.6066,55.7879
22.6066,55.7879
22.3218,56.0217
22.0612,56.2823
21.8274,56.5671
21.8274,56.5671
21.6227,56.8735
21.4490,57.1985
21.4490,57.1985
21.3080,57.5390
21.3080,57.5390
21.2010,57.8916
21.2010,57.8916
21.1291,58.2530
21.1283,58.2618
21.0930,58.6197
16.3755,58.6197
16.3755,18.0838
16.3959,17.8827
16.4565,17.6898
16.5546,17.5131
16.6862,17.3597
16.8461,17.2360
17.0275,17.1470
17.2232,17.0963
17.4251,17.0861
17.6249,17.1167
17.8145,17.1869
17.9860,17.2938
18.1325,17.4331
18.2480,17.5990
18.3071,17.7258
18.3877,17.9357
18.4455,18.0491
18.5543,18.2626
18.5543,18.2627
18.7541,18.5704
18.7541,18.5704
18.9850,18.8555
18.9850,18.8555
18.9851,18.8555
19.2445,19.1149
19.2445,19.1150
19.2445,19.1150
19.5296,19.3458
19.5296,19.3459
19.8373,19.5457
19.8374,19.5457
20.1643,19.7123
20.1643,19.7123
20.5068,19.8437
20.8612,19.9387
21.2236,19.9961
21.5900,20.0153
21.9564,19.9961
22.3188,19.9387
22.6732,19.8437
23.0157,19.7123
23.3427,19.5457
23.6504,19.3459
23.9355,19.1149
24.1949,18.8555
24.4259,18.5704
24.6257,18.2627
24.7923,17.9357
24.9237,17.5932
25.0187,17.2388
25.0761,16.8764
25.0953,16.5100
100.6347,16.5100
100.6539,16.8764
100.6539,16.8764
100.7113,17.2388
100.7848,17.5131
100.8063,17.5932
100.9377,17.9357
101.1043,18.2626
101.1043,18.2627
101.3041,18.5704
101.3041,18.5704
101.5350,18.8555
101.5350,18.8555
101.5351,18.8555
101.7945,19.1149
101.7945,19.1150
101.7945,19.1150
102.0796,19.3458
102.0796,19.3459
102.3873,19.5457
102.3874,19.5457
102.7143,19.7123
102.7143,19.7123
103.0568,19.8437
103.4112,19.9387
103.7736,19.9961
104.1400,20.0153
104.5064,19.9961
104.8688,19.9387
105.2232,19.8437
105.5657,19.7123
105.8927,19.5457
106.2004,19.3459
106.4855,19.1149
106.7449,18.8555
106.9759,18.5704
107.1757,18.2627
107.3423,17.9357
107.4737,17.5932
107.5687,17.2388
107.6261,16.8764
107.6453,16.5100
107.6261,16.1436
107.5687,15.7812
107.4737,15.4268
107.3423,15.0843
107.3201,15.0408
107.1757,14.7574
107.1757,14.7573
106.9759,14.4496
106.9758,14.4496
106.7450,14.1645
106.7450,14.1645
106.7449,14.1645
106.4855,13.9051
106.4855,13.9050
106.4855,13.9050
106.2004,13.6741
106.2004,13.6741
105.8927,13.4743
105.8926,13.4743
105.5657,13.3077
105.2232,13.1763
105.2232,13.1763
105.2232,13.1763
104.8688,13.0813
104.5064,13.0239
104.5064,13.0239
104.1400,13.0047
103.7736,13.0239
103.6707,13.0402
103.4112,13.0813
103.0568,13.1763
103.0568,13.1763
102.7143,13.3077
102.3874,13.4743
102.3873,13.4743
102.0796,13.6741
102.0796,13.6741
101.7945,13.9050
101.5350,14.1645
101.3041,14.4496
101.3041,14.4496
101.1043,14.7573
101.1043,14.7574
100.9377,15.0843
100.8063,15.4268
100.8063,15.4268
100.8063,15.4268
100.7113,15.7812
100.6990,15.8589
100.6539,16.1436
100.6347,16.5100
25.0953,16.5100
25.0761,16.1436
25.0187,15.7812
24.9237,15.4268
24.7923,15.0843
24.7701,15.0408
24.6257,14.7574
24.6257,14.7573
24.4259,14.4496
24.4259,14.4496
24.1950,14.1645
24.1950,14.1645
24.1949,14.1645
23.9355,13.9051
23.9355,13.9050
23.9355,13.9050
23.6504,13.6741
23.6504,13.6741
23.3427,13.4743
23.3426,13.4743
23.0157,13.3077
22.6732,13.1763
22.6732,13.1763
22.6732,13.1763
22.3188,13.0813
21.9564,13.0239
21.9564,13.0239
21.5900,13.0047
21.2236,13.0239
21.1207,13.0402
20.8612,13.0813
20.5068,13.1763
20.5068,13.1763
20.1643,13.3077
19.8374,13.4743
19.8373,13.4743
19.5296,13.6741
19.5296,13.6741
19.2445,13.9050
18.9850,14.1645
18.7541,14.4496
18.7541,14.4496
18.5543,14.7573
18.5543,14.7574
18.3877,15.0843
18.3877,15.0843
18.3071,15.2942
18.2160,15.4746
18.0904,15.6330
17.9355,15.7629
17.7576,15.8589
17.5640,15.9171
17.3627,15.9352
17.1618,15.9123
16.9697,15.8495
16.7941,15.7494
16.6423,15.6159
16.5205,15.4546
16.4336,15.2721
16.3853,15.0758
16.3755,14.9362
16.3755,11.6595
16.3959,11.4584
16.4565,11.2655
16.5546,11.0888
16.6862,10.9354
16.8461,10.8117
17.0275,10.7227
17.2232,10.6720
17.3745,10.6605
109.6255,10.6605
Z" /> 
</g>
<g style="fill:#FFFFFF; fill-opacity:1.0000; stroke:none;">
<circle cx="63.6300" cy="88.9000" r="0.6500" /> 
</g>
<g style="fill:#FFFFFF; fill-opacity:1.0000; stroke:none;">
<circle cx="58.6300" cy="88.9000" r="0.6500" /> 
</g>
<g style="fill:#FFFFFF; fill-opacity:1.0000; stroke:none;">
<circle cx="40.6400" cy="77.4700" r="0.6500" /> 
</g>
<g style="fill:#FFFFFF; fill-opacity:1.0000; stroke:none;">
<circle cx="40.6400" cy="72.4700" r="0.6500" /> 
</g>
<g style="fill:#FFFFFF; fill-opacity:1.0000; stroke:none;">
<circle cx="48.2600" cy="88.9000" r="0.6500" /> 
</g>
<g style="fill:#FFFFFF; fill-opacity:1.0000; stroke:none;">
<circle cx="43.2600" cy="88.9000" r="0.6500" /> 
</g>
<g style="fill:#FFFFFF; fill-opacity:1.0000; stroke:none;">
<circle cx="38.2600" cy="88.9000" r="0.6500" /> 
</g>
<g style="fill:#FFFFFF; fill-opacity:1.0000; stroke:none;">
<circle cx="98.1561" cy="73.4500" r="0.6500" /> 
</g>
<g style="fill:#FFFFFF; fill-opacity:1.0000; stroke:none;">
<circle cx="98.1561" cy="68.4500" r="0.6500" /> 
</g>
<g style="fill:#FFFFFF; fill-opacity:1.0000; stroke:none;">
<circle cx="92.3350" cy="90.1700" r="0.6500" /> 
</g>
<g style="fill:#FFFFFF; fill-opacity:1.0000; stroke:none;">
<circle cx="97.3350" cy="90.1700" r="0.6500" /> 
</g>
<g style="fill:#FFFFFF; fill-opacity:1.0000; stroke:none;">
<circle cx="64.6900" cy="35.5600" r="0.6500" /> 
</g>
<g style="fill:#FFFFFF; fill-opacity:1.0000; stroke:none;">
<circle cx="59.6900" cy="35.5600" r="0.6500" /> 
</g>
<g style="fill:#FFFFFF; fill-opacity:1.0000; stroke:none;">
<circle cx="81.2800" cy="50.8000" r="0.6500" /> 
</g>
<g style="fill:#FFFFFF; fill-opacity:1.0000; stroke:none;">
<circle cx="81.2800" cy="45.8000" r="0.6500" /> 
</g>
<g style="fill:#FFFFFF; fill-opacity:1.0000; stroke:none;">
<circle cx="26.5935" cy="53.8040" r="0.6500" /> 
</g>
<g style="fill:#FFFFFF; fill-opacity:1.0000; stroke:none;">
<circle cx="26.5935" cy="58.8040" r="0.6500" /> 
</g>
<g style="fill:#FFFFFF; fill-opacity:1.0000; stroke:none;">
<circle cx="82.9800" cy="35.7006" r="0.6500" /> 
</g>
<g style="fill:#FFFFFF; fill-opacity:1.0000; stroke:none;">
<circle cx="77.9800" cy="35.7006" r="0.6500" /> 
</g>
<g style="fill:#FFFFFF; fill-opacity:1.0000; stroke:none;">
<circle cx="72.9800" cy="35.7006" r="0.6500" /> 
</g>
<g style="fill:#FFFFFF; fill-opacity:1.0000; stroke:none;">
<circle cx="34.2900" cy="35.5600" r="0.6500" /> 
</g>
<g style="fill:#FFFFFF; fill-opacity:1.0000; stroke:none;">
<circle cx="29.2900" cy="35.5600" r="0.6500" /> 
</g>
<g style="fill:#FFFFFF; fill-opacity:1.0000; stroke:none;">
<circle cx="37.0500" cy="102.8700" r="0.4000" /> 
</g>
<g style="fill:#FFFFFF; fill-opacity:1.0000; stroke:none;">
<circle cx="64.5500" cy="102.8700" r="0.4000" /> 
</g>
<g style="fill:#FFFFFF; fill-opacity:1.0000; stroke:none;">
<circle cx="102.6846" cy="81.6864" r="0.4000" /> 
</g>
<g style="fill:#FFFFFF; fill-opacity:1.0000; stroke:none;">
<circle cx="92.5246" cy="81.6864" r="0.4000" /> 
</g>
<g style="fill:#FFFFFF; fill-opacity:1.0000; stroke:none;">
<circle cx="79.5550" cy="93.9800" r="0.4000" /> 
</g>
<g style="fill:#FFFFFF; fill-opacity:1.0000; stroke:none;">
<circle cx="79.5550" cy="81.2800" r="0.4000" /> 
</g>
<g style="fill:#FFFFFF; fill-opacity:1.0000; stroke:none;">
<circle cx="56.1000" cy="21.5900" r="0.4000" /> 
</g>
<g style="fill:#FFFFFF; fill-opacity:1.0000; stroke:none;">
<circle cx="83.6000" cy="21.5900" r="0.4000" /> 
</g>
<g style="fill:#FFFFFF; fill-opacity:1.0000; stroke:none;">
<circle cx="44.4500" cy="53.3400" r="0.4000" /> 
</g>
<g style="fill:#FFFFFF; fill-opacity:1.0000; stroke:none;">
<circle cx="44.4500" cy="63.5000" r="0.4000" /> 
</g>
<g style="fill:#FFFFFF; fill-opacity:1.0000; stroke:none;">
<circle cx="44.4500" cy="27.9400" r="0.4000" /> 
</g>
<g style="fill:#FFFFFF; fill-opacity:1.0000; stroke:none;">
<circle cx="44.4500" cy="40.6400" r="0.4000" /> 
</g>
<g style="fill:#FFFFFF; fill-opacity:1.0000; stroke:none;">
<circle cx="65.6800" cy="68.2500" r="0.5100" /> 
</g>
<g style="fill:#FFFFFF; fill-opacity:1.0000; stroke:none;">
<circle cx="67.8300" cy="65.3200" r="0.5100" /> 
</g>
<g style="fill:#FFFFFF; fill-opacity:1.0000; stroke:none;">
<circle cx="67.8300" cy="61.6700" r="0.5100" /> 
</g>
<g style="fill:#FFFFFF; fill-opacity:1.0000; stroke:none;">
<circle cx="65.6800" cy="58.7400" r="0.5100" /> 
</g>
<g style="fill:#FFFFFF; fill-opacity:1.0000; stroke:none;">
<circle cx="62.2300" cy="57.6000" r="0.5100" /> 
</g>
<g style="fill:#FFFFFF; fill-opacity:1.0000; stroke:none;">
<circle cx="58.7700" cy="58.7400" r="0.5100" /> 
</g>
<g style="fill:#FFFFFF; fill-opacity:1.0000; stroke:none;">
<circle cx="56.6200" cy="61.6700" r="0.5100" /> 
</g>
<g style="fill:#FFFFFF; fill-opacity:1.0000; stroke:none;">
<circle cx="56.6200" cy="65.2800" r="0.5100" /> 
</g>
<g style="fill:#FFFFFF; fill-opacity:1.0000; stroke:none;">
<circle cx="58.7700" cy="68.2500" r="0.5100" /> 
</g>
<g style="fill:#FFFFFF; fill-opacity:1.0000; stroke:none;">
<circle cx="36.7792" cy="63.3984" r="0.4000" /> 
</g>
<g style="fill:#FFFFFF; fill-opacity:1.0000; stroke:none;">
<circle cx="36.7792" cy="50.6984" r="0.4000" /> 
</g>
<g style="fill:#FFFFFF; fill-opacity:1.0000; stroke:none;">
<circle cx="85.7860" cy="62.7888" r="0.4000" /> 
</g>
<g style="fill:#FFFFFF; fill-opacity:1.0000; stroke:none;">
<circle cx="85.7860" cy="75.4888" r="0.4000" /> 
</g>
<g style="fill:#FFFFFF; fill-opacity:1.0000; stroke:none;">
<circle cx="26.6700" cy="45.7200" r="0.4000" /> 
</g>
<g style="fill:#FFFFFF; fill-opacity:1.0000; stroke:none;">
<circle cx="36.8300" cy="45.7200" r="0.4000" /> 
</g>
<g style="fill:#FFFFFF; fill-opacity:1.0000; stroke:none;">
<circle cx="79.5376" cy="72.7964" r="0.4000" /> 
</g>
<g style="fill:#FFFFFF; fill-opacity:1.0000; stroke:none;">
<circle cx="79.5376" cy="62.6364" r="0.4000" /> 
</g>
<g style="fill:none; 
stroke:#000000; stroke-width:0.0500; stroke-opacity:1; 
stroke-linecap:round; stroke-linejoin:round;">
<circle cx="21.5900" cy="16.5100" r="3.0000" /> 
<circle cx="21.5900" cy="105.4100" r="3.0000" /> 
<circle cx="104.1400" cy="105.4100" r="3.0000" /> 
<circle cx="104.1400" cy="16.5100" r="3.0000" /> 
<path d="M15.8750 10.1600
L111.1250 10.1600
" />
<path d="M111.1250 113.0300
L15.8750 113.0300
" />
<path d="M111.1250 10.1600
L111.1250 113.0300
" />
<path d="M15.8750 113.0300
L15.8750 10.1600
" />
</g> 
</svg>
