<?xml version="1.0" standalone="no"?>
 <!DOCTYPE svg PUBLIC "-//W3C//DTD SVG 1.1//EN" 
 "http://www.w3.org/Graphics/SVG/1.1/DTD/svg11.dtd"> 
<svg
  xmlns:svg="http://www.w3.org/2000/svg"
  xmlns="http://www.w3.org/2000/svg"
  xmlns:xlink="http://www.w3.org/1999/xlink"
  version="1.1"
  width="75.3364mm" height="90.2208mm" viewBox="0.0000 0.0000 75.3364 90.2208">
<title>SVG Image created as multi-channel-preamp-F_Cu.svg date 2024/06/12 20:48:08 </title>
  <desc>Image generated by PCBNEW </desc>
<g style="fill:#000000; fill-opacity:1.0000;stroke:#000000; stroke-opacity:1.0000;
stroke-linecap:round; stroke-linejoin:round;"
 transform="translate(0 0) scale(1 1)">
<path style="fill:#000000; fill-opacity:1.0000; stroke:none;fill-rule:evenodd;"
d="M 44.2978,49.0767
49.2978,49.0767
49.2978,54.0767
44.2978,54.0767
Z" /> 
</g>
<g style="fill:none; 
stroke:#000000; stroke-width:3.5000; stroke-opacity:1; 
stroke-linecap:round; stroke-linejoin:round;">
<path d="M49.5532 45.4050
L48.0532 45.4050
" />
<path d="M47.5478 39.2333
L46.0478 39.2333
" />
<path d="M41.5478 34.6690
L41.5478 36.1690
" />
<path d="M35.0586 34.6690
L35.0586 36.1690
" />
<path d="M30.5586 39.2333
L29.0586 39.2333
" />
<path d="M28.5532 45.4050
L27.0532 45.4050
" />
<path d="M30.5586 51.5767
L29.0586 51.5767
" />
<path d="M35.0586 54.6410
L35.0586 56.1410
" />
<path style="fill:#000000; fill-opacity:1.0000; stroke:none;fill-rule:evenodd;"
d="M 32.9532,74.3080
32.9532,67.3080
36.4532,67.3080
36.4532,74.3080
Z" /> 
</g>
<g style="fill:none; 
stroke:#000000; stroke-width:3.5000; stroke-opacity:1; 
stroke-linecap:round; stroke-linejoin:round;">
<path d="M39.7032 69.0580
L39.7032 72.5580
" />
<path style="fill:#000000; fill-opacity:1.0000; stroke:none;fill-rule:evenodd;"
d="M 6.5582,52.6280
13.5582,52.6280
13.5582,56.1280
6.5582,56.1280
Z" /> 
</g>
<g style="fill:none; 
stroke:#000000; stroke-width:3.5000; stroke-opacity:1; 
stroke-linecap:round; stroke-linejoin:round;">
<path d="M11.8082 59.3780
L8.3082 59.3780
" />
<path style="fill:#000000; fill-opacity:1.0000; stroke:none;fill-rule:evenodd;"
d="M 12.5832,74.3080
12.5832,67.3080
16.0832,67.3080
16.0832,74.3080
Z" /> 
</g>
<g style="fill:none; 
stroke:#000000; stroke-width:3.5000; stroke-opacity:1; 
stroke-linecap:round; stroke-linejoin:round;">
<path d="M19.3332 69.0580
L19.3332 72.5580
" />
<path d="M24.3332 69.0580
L24.3332 72.5580
" />
<path style="fill:#000000; fill-opacity:1.0000; stroke:none;fill-rule:evenodd;"
d="M 68.4732,52.1686
61.4732,52.1686
61.4732,48.6686
68.4732,48.6686
Z" /> 
</g>
<g style="fill:none; 
stroke:#000000; stroke-width:3.5000; stroke-opacity:1; 
stroke-linecap:round; stroke-linejoin:round;">
<path d="M63.2232 45.4186
L66.7232 45.4186
" />
<path d="M58.5432 69.3950
L58.5432 72.8950
" />
<path style="fill:#000000; fill-opacity:1.0000; stroke:none;fill-rule:evenodd;"
d="M 51.7932,74.6450
51.7932,67.6450
55.2932,67.6450
55.2932,74.6450
Z" /> 
<path style="fill:#000000; fill-opacity:1.0000; stroke:none;fill-rule:evenodd;"
d="M 42.5132,16.8450
42.5132,23.8450
39.0132,23.8450
39.0132,16.8450
Z" /> 
</g>
<g style="fill:none; 
stroke:#000000; stroke-width:3.5000; stroke-opacity:1; 
stroke-linecap:round; stroke-linejoin:round;">
<path d="M35.7632 22.0950
L35.7632 18.5950
" />
<path style="fill:#000000; fill-opacity:1.0000; stroke:none;fill-rule:evenodd;"
d="M 68.4732,37.3350
61.4732,37.3350
61.4732,33.8350
68.4732,33.8350
Z" /> 
</g>
<g style="fill:none; 
stroke:#000000; stroke-width:3.5000; stroke-opacity:1; 
stroke-linecap:round; stroke-linejoin:round;">
<path d="M63.2232 30.5850
L66.7232 30.5850
" />
<path style="fill:#000000; fill-opacity:1.0000; stroke:none;fill-rule:evenodd;"
d="M 6.5582,38.9550
13.5582,38.9550
13.5582,42.4550
6.5582,42.4550
Z" /> 
</g>
<g style="fill:none; 
stroke:#000000; stroke-width:3.5000; stroke-opacity:1; 
stroke-linecap:round; stroke-linejoin:round;">
<path d="M11.8082 45.7050
L8.3082 45.7050
" />
<path style="fill:#000000; fill-opacity:1.0000; stroke:none;fill-rule:evenodd;"
d="M 60.8032,16.9856
60.8032,23.9856
57.3032,23.9856
57.3032,16.9856
Z" /> 
</g>
<g style="fill:none; 
stroke:#000000; stroke-width:3.5000; stroke-opacity:1; 
stroke-linecap:round; stroke-linejoin:round;">
<path d="M54.0532 22.2356
L54.0532 18.7356
" />
<path d="M49.0532 22.2356
L49.0532 18.7356
" />
<path style="fill:#000000; fill-opacity:1.0000; stroke:none;fill-rule:evenodd;"
d="M 22.2732,16.8450
22.2732,23.8450
18.7732,23.8450
18.7732,16.8450
Z" /> 
</g>
<g style="fill:none; 
stroke:#000000; stroke-width:3.5000; stroke-opacity:1; 
stroke-linecap:round; stroke-linejoin:round;">
<path d="M15.5232 22.0950
L15.5232 18.5950
" />
</g>
<g style="fill:#000000; fill-opacity:1.0000; stroke:none;">
<circle cx="40.6232" cy="84.7780" r="0.8000" /> 
</g>
<g style="fill:#000000; fill-opacity:1.0000; stroke:none;">
<circle cx="13.1232" cy="84.7780" r="0.8000" /> 
<circle cx="61.1632" cy="59.7150" r="0.8000" /> 
</g>
<g style="fill:#000000; fill-opacity:1.0000; stroke:none;">
<circle cx="51.0032" cy="59.7150" r="0.8000" /> 
<circle cx="47.1932" cy="61.9180" r="0.8000" /> 
<circle cx="47.1932" cy="74.6180" r="0.8000" /> 
</g>
<g style="fill:#000000; fill-opacity:1.0000; stroke:none;">
<circle cx="59.6732" cy="6.3750" r="0.8000" /> 
<circle cx="32.1732" cy="6.3750" r="0.8000" /> 
</g>
<g style="fill:#000000; fill-opacity:1.0000; stroke:none;">
<circle cx="20.5232" cy="38.1250" r="0.8000" /> 
</g>
<g style="fill:#000000; fill-opacity:1.0000; stroke:none;">
<circle cx="20.5232" cy="48.2850" r="0.8000" /> 
<circle cx="28.1432" cy="16.5350" r="0.8000" /> 
</g>
<g style="fill:#000000; fill-opacity:1.0000; stroke:none;">
<circle cx="28.1432" cy="29.2350" r="0.8000" /> 
<circle cx="6.5532" cy="29.2350" r="0.8000" /> 
</g>
<g style="fill:#000000; fill-opacity:1.0000; stroke:none;">
<circle cx="6.5532" cy="16.5350" r="0.8000" /> 
<circle cx="66.2432" cy="74.9550" r="0.8000" /> 
<circle cx="66.2432" cy="62.2550" r="0.8000" /> 
</g>
<g style="fill:#000000; fill-opacity:1.0000; stroke:none;">
<circle cx="12.9032" cy="30.5050" r="0.8000" /> 
</g>
<g style="fill:#000000; fill-opacity:1.0000; stroke:none;">
<circle cx="23.0632" cy="30.5050" r="0.8000" /> 
<circle cx="55.6108" cy="53.3650" r="0.8000" /> 
</g>
<g style="fill:#000000; fill-opacity:1.0000; stroke:none;">
<circle cx="55.6108" cy="43.2050" r="0.8000" /> 
</g>
<g style="fill:none; 
stroke:#000000; stroke-width:2.0000; stroke-opacity:1; 
stroke-linecap:round; stroke-linejoin:round;">
<path d="M10.0582 45.7050
L13.7006 45.7050
" />
<path d="M13.7006 45.7050
L19.5723 51.5767
" />
<path d="M19.5723 51.5767
L29.8086 51.5767
" />
<path d="M19.3332 70.8080
L19.3332 65.3080
" />
<path d="M19.3332 65.3080
L13.4032 59.3780
" />
<path d="M13.4032 59.3780
L10.0582 59.3780
" />
<path d="M54.0532 20.4856
L54.0532 24.7356
" />
<path d="M54.0532 24.7356
L59.9026 30.5850
" />
<path d="M59.9026 30.5850
L64.9732 30.5850
" />
<path d="M32.1732 6.3750
L25.1432 13.4050
" />
<path d="M25.1432 13.4050
L25.1432 26.2350
" />
<path d="M25.1432 26.2350
L28.1432 29.2350
" />
<path d="M47.1932 61.9180
L47.1932 51.9721
" />
<path d="M47.1932 51.9721
L46.7978 51.5767
" />
<path d="M40.6232 84.7780
L43.4532 81.9480
" />
<path d="M43.4532 81.9480
L43.4532 65.6580
" />
<path d="M43.4532 65.6580
L47.1932 61.9180
" />
<path d="M64.9732 45.4186
L59.7596 40.2050
" />
<path d="M59.7596 40.2050
L47.7695 40.2050
" />
<path d="M47.7695 40.2050
L46.7978 39.2333
" />
<path d="M66.2432 62.2550
L66.2432 60.9850
" />
<path d="M66.2432 60.9850
L70.4732 56.7550
" />
<path d="M70.4732 56.7550
L70.4732 46.6686
" />
<path d="M70.4732 46.6686
L69.2232 45.4186
" />
<path d="M69.2232 45.4186
L64.9732 45.4186
" />
<path d="M53.5432 71.1450
L53.5432 62.2550
" />
<path d="M53.5432 62.2550
L51.0032 59.7150
" />
<path d="M51.0032 59.7150
L51.0032 57.9726
" />
<path d="M51.0032 57.9726
L55.6108 53.3650
" />
<path d="M55.6108 43.2050
L51.0032 43.2050
" />
<path d="M51.0032 43.2050
L48.8032 45.4050
" />
<path d="M35.7632 20.3450
L31.9532 20.3450
" />
<path d="M31.9532 20.3450
L28.1432 16.5350
" />
<path d="M28.1432 29.2350
L28.1432 37.5679
" />
<path d="M28.1432 37.5679
L29.8086 39.2333
" />
<path d="M23.0632 30.5050
L23.0632 35.5850
" />
<path d="M23.0632 35.5850
L20.5232 38.1250
" />
<path d="M20.5232 20.3450
L20.5232 27.9650
" />
<path d="M20.5232 27.9650
L23.0632 30.5050
" />
<path d="M20.5232 48.2850
L24.9232 48.2850
" />
<path d="M24.9232 48.2850
L27.8032 45.4050
" />
<path d="M6.5532 29.2350
L4.5582 31.2300
" />
<path d="M4.5582 31.2300
L4.5582 44.4550
" />
<path d="M4.5582 44.4550
L5.8082 45.7050
" />
<path d="M5.8082 45.7050
L10.0582 45.7050
" />
<path d="M59.6732 6.3750
L49.0532 16.9950
" />
<path d="M49.0532 16.9950
L49.0532 20.4856
" />
<path d="M13.1232 84.7780
L24.3332 73.5680
" />
<path d="M24.3332 73.5680
L24.3332 70.8080
" />
<path style="fill:#000000; fill-opacity:1.0000; stroke:none;fill-rule:evenodd;"
d="M 38.5290,38.6681
38.7203,38.7334
38.8945,38.8360
39.0096,38.9348
39.0261,38.9513
39.0524,38.9729
39.3109,39.1851
39.6173,39.3898
39.6173,39.3898
39.6173,39.3898
39.9423,39.5635
39.9423,39.5635
39.9423,39.5635
40.2828,39.7045
40.6354,39.8115
40.6354,39.8115
40.6354,39.8115
40.9968,39.8834
40.9968,39.8834
40.9968,39.8834
41.3635,39.9195
41.3636,39.9195
41.6050,39.9195
41.8061,39.9399
41.9990,40.0005
42.1757,40.0986
42.3291,40.2302
42.4528,40.3901
42.5280,40.5362
42.6533,40.8388
42.6533,40.8388
42.8270,41.1638
42.9197,41.3025
43.0317,41.4702
43.0317,41.4702
43.2655,41.7550
43.5261,42.0156
43.5438,42.0301
43.8109,42.2494
44.1173,42.4541
44.1173,42.4541
44.1173,42.4541
44.2186,42.5082
44.3863,42.6210
44.5278,42.7653
44.6375,42.9351
44.7107,43.1236
44.7444,43.3228
44.7374,43.5249
44.6898,43.7213
44.6671,43.7765
44.6681,43.7769
44.5177,44.1400
44.5177,44.1400
44.4107,44.4926
44.4107,44.4926
44.3388,44.8540
44.3260,44.9839
44.3027,45.2207
44.3027,45.5892
44.3121,45.6846
44.3388,45.9560
44.3526,46.0255
44.3718,46.2267
44.3501,46.4276
44.2884,46.6201
44.1891,46.7962
44.0565,46.9488
43.8959,47.0715
43.7219,47.1564
43.4646,47.2523
43.2135,47.3895
43.2135,47.3895
42.9844,47.5610
42.7821,47.7633
42.6106,47.9924
42.6106,47.9924
42.4734,48.2435
42.4734,48.2435
42.3734,48.5117
42.3734,48.5117
42.3126,48.7913
42.3126,48.7913
42.2973,49.0053
42.2973,54.1481
42.3126,54.3621
42.3126,54.3621
42.3126,54.3621
42.3734,54.6417
42.3734,54.6417
42.4734,54.9099
42.4734,54.9099
42.4734,54.9099
42.6106,55.1610
42.7821,55.3901
42.9844,55.5924
43.2135,55.7639
43.4646,55.9011
43.4646,55.9011
43.4646,55.9011
43.5428,55.9302
43.7241,56.0197
43.8836,56.1438
44.0150,56.2974
44.1126,56.4744
44.1727,56.6674
44.1927,56.8662
44.1927,60.2614
44.1722,60.4624
44.1117,60.6553
44.0136,60.8320
43.9001,60.9678
42.5150,62.3528
41.2124,63.6555
41.0999,63.7965
41.0999,63.7965
41.0023,63.9190
40.8230,64.2043
40.6767,64.5079
40.6311,64.6384
40.5453,64.8215
40.4245,64.9836
40.2736,65.1180
40.0986,65.2193
39.9069,65.2833
39.7062,65.3073
39.6881,65.3075
39.5189,65.3075
39.3356,65.3256
39.1522,65.3436
38.7908,65.4155
38.7908,65.4155
38.7908,65.4155
38.7908,65.4155
38.7908,65.4155
38.4382,65.5225
38.4382,65.5225
38.2652,65.5941
38.0716,65.6522
37.8703,65.6701
37.6695,65.6471
37.4774,65.5841
37.4042,65.5480
37.2864,65.4836
37.2864,65.4836
37.0182,65.3836
37.0182,65.3836
36.7386,65.3228
36.7386,65.3228
36.7386,65.3228
36.5461,65.3090
36.5246,65.3075
36.5246,65.3075
32.8818,65.3075
32.8817,65.3075
32.8389,65.3106
32.6678,65.3228
32.6678,65.3228
32.6678,65.3228
32.3882,65.3836
32.3882,65.3836
32.1200,65.4836
32.1200,65.4836
31.8689,65.6208
31.8689,65.6208
31.6398,65.7923
31.4375,65.9946
31.2660,66.2237
31.2660,66.2237
31.1288,66.4748
31.1288,66.4748
31.0288,66.7430
31.0288,66.7430
30.9693,67.0165
30.9680,67.0226
30.9527,67.2366
30.9527,74.3794
30.9680,74.5934
30.9680,74.5934
30.9680,74.5934
31.0288,74.8730
31.0288,74.8730
31.1288,75.1412
31.1288,75.1412
31.1288,75.1412
31.2660,75.3923
31.4375,75.6214
31.6398,75.8237
31.8689,75.9952
32.1076,76.1256
32.1200,76.1324
32.1200,76.1324
32.3027,76.2005
32.3882,76.2324
32.3882,76.2324
32.3882,76.2324
32.5020,76.2571
32.6678,76.2932
32.8818,76.3085
32.8818,76.3085
36.5246,76.3085
36.5246,76.3085
36.7386,76.2932
36.9563,76.2458
37.0182,76.2324
37.0182,76.2324
37.0182,76.2324
37.2136,76.1595
37.2864,76.1324
37.2864,76.1324
37.2864,76.1324
37.4042,76.0680
37.5905,75.9896
37.7887,75.9503
37.9909,75.9517
38.1886,75.9937
38.2652,76.0219
38.3529,76.0582
38.4382,76.0935
38.4382,76.0935
38.4382,76.0935
38.7908,76.2005
38.7908,76.2005
38.7908,76.2005
39.1522,76.2724
39.1522,76.2724
39.1522,76.2724
39.5189,76.3085
39.5190,76.3085
39.5434,76.3109
39.5431,76.3138
39.7025,76.3380
39.8921,76.4078
40.0639,76.5145
40.2106,76.6535
40.3264,76.8192
40.4064,77.0048
40.4474,77.2028
40.4527,77.3055
40.4527,80.2914
40.4322,80.4924
40.3717,80.6853
40.2736,80.8620
40.1601,80.9978
38.3824,82.7755
38.3824,82.7755
38.1723,83.0390
38.1723,83.0390
37.9930,83.3243
37.8467,83.6280
37.7354,83.9460
37.7354,83.9461
37.6604,84.2746
37.6604,84.2746
37.6227,84.6095
37.6227,84.6095
37.6227,84.9465
37.6227,84.9465
37.6604,85.2814
37.6604,85.2814
37.7354,85.6099
37.7354,85.6100
37.8467,85.9280
37.9930,86.2317
38.0479,86.3191
38.1723,86.5170
38.3824,86.7805
38.6207,87.0188
38.8842,87.2289
39.1695,87.4082
39.4731,87.5545
39.7912,87.6658
39.9471,87.7014
40.0356,87.7215
40.2271,87.7862
40.4017,87.8881
40.5521,88.0231
40.6221,88.1177
40.6431,88.0840
40.7824,87.9375
40.9483,87.8220
41.1340,87.7423
41.2108,87.7215
41.2743,87.7071
41.4552,87.6658
41.7733,87.5545
42.0769,87.4082
42.3622,87.2289
42.6257,87.0188
45.6940,83.9505
45.7257,83.9109
45.7366,83.8972
45.7366,83.8972
45.7986,83.8194
45.9041,83.6870
46.0834,83.4017
46.2297,83.0981
46.3410,82.7800
46.4160,82.4514
46.4537,82.1165
46.4537,81.7795
46.4537,78.4130
46.4741,78.2119
46.5347,78.0191
46.6328,77.8423
46.7644,77.6890
46.9243,77.5652
47.1057,77.4762
47.3014,77.4256
47.3367,77.4208
47.3563,77.4185
47.3563,77.4185
47.6803,77.3806
47.9978,77.3054
48.3043,77.1938
48.5958,77.0474
48.8684,76.8682
49.1183,76.6585
49.1449,76.6302
49.3453,76.4178
49.4982,76.2856
49.6746,76.1868
49.8672,76.1256
50.0682,76.1044
50.2694,76.1241
50.4625,76.1838
50.6396,76.2813
50.6706,76.3036
50.7089,76.3322
50.8474,76.4078
50.9600,76.4694
50.9600,76.4694
51.1611,76.5444
51.2282,76.5694
51.2282,76.5694
51.2282,76.5694
51.3420,76.5941
51.5078,76.6302
51.7218,76.6455
51.7218,76.6455
55.3646,76.6455
55.3646,76.6455
55.5786,76.6302
55.7963,76.5828
55.8582,76.5694
55.8582,76.5694
55.8582,76.5694
56.0237,76.5077
56.1264,76.4694
56.1264,76.4694
56.1264,76.4694
56.1264,76.4694
56.3775,76.3322
56.6066,76.1607
56.8089,75.9584
56.9804,75.7293
57.1176,75.4782
57.1496,75.3923
57.1785,75.3148
57.2176,75.2100
57.2784,74.9304
57.2937,74.7164
57.2937,67.5736
57.2784,67.3596
57.2176,67.0800
57.1582,66.9207
57.1176,66.8118
57.1176,66.8118
57.0805,66.7439
56.9804,66.5607
56.8089,66.3316
56.8089,66.3316
56.7877,66.3071
56.6715,66.1417
56.5909,65.9563
56.5493,65.7585
56.5437,65.6529
56.5437,62.0865
56.5437,62.0865
56.5343,62.0033
56.5060,61.7516
56.4310,61.4230
56.3939,61.3171
56.3197,61.1049
56.1734,60.8013
56.1734,60.8013
55.9941,60.5160
55.9941,60.5160
55.9941,60.5160
55.7840,60.2525
55.0817,59.5502
54.9540,59.3935
54.8604,59.2144
54.8048,59.0200
54.7895,58.8185
54.8150,58.6180
54.8804,58.4267
54.9829,58.2525
55.0817,58.1374
57.8516,55.3675
58.0617,55.1040
58.2410,54.8187
58.3873,54.5151
58.4986,54.1970
58.5736,53.8684
58.6113,53.5335
58.6113,53.1965
58.5736,52.8616
58.4986,52.5330
58.3873,52.2149
58.2865,52.0057
58.2410,51.9113
58.2410,51.9113
58.0617,51.6260
58.0617,51.6260
58.0617,51.6260
57.8516,51.3625
57.6133,51.1242
57.3498,50.9141
57.3498,50.9141
57.3498,50.9140
57.0645,50.7348
57.0645,50.7348
56.7609,50.5885
56.4428,50.4772
56.4427,50.4772
56.1142,50.4022
55.7793,50.3645
55.7793,50.3645
55.7793,50.3645
55.4423,50.3645
55.4423,50.3645
55.4423,50.3645
55.1074,50.4022
54.7789,50.4772
54.7788,50.4772
54.4608,50.5885
54.1571,50.7348
53.8718,50.9141
53.6083,51.1242
53.0037,51.7288
52.8470,51.8565
52.6679,51.9501
52.4735,52.0057
52.2720,52.0210
52.0715,51.9955
51.8802,51.9301
51.7060,51.8276
51.5560,51.6921
51.4364,51.5291
51.3520,51.3455
51.3063,51.1486
51.2983,51.0224
51.2983,49.2836
51.3187,49.0825
51.3793,48.8897
51.4774,48.7129
51.6090,48.5596
51.7423,48.4530
51.7901,48.4211
51.7901,48.4211
51.7901,48.4211
52.0749,48.1873
52.3355,47.9267
52.5693,47.6419
52.7740,47.3355
52.8719,47.1523
52.9477,47.0105
52.9477,47.0105
52.9477,47.0105
53.0257,46.8222
53.1215,46.6442
53.2512,46.4892
53.4095,46.3635
53.5898,46.2722
53.7849,46.2190
53.9486,46.2055
55.7793,46.2055
55.7793,46.2055
56.1142,46.1678
56.4428,46.0928
56.7609,45.9815
57.0645,45.8352
57.3498,45.6559
57.6133,45.4458
57.7983,45.2608
57.9550,45.1331
58.1342,45.0395
58.3285,44.9839
58.5301,44.9685
58.7306,44.9941
58.9218,45.0594
59.0960,45.1620
59.2460,45.2975
59.3657,45.4604
59.4501,45.6441
59.4957,45.8410
59.4989,45.8693
59.5088,45.9696
59.5807,46.3310
59.5807,46.3310
59.5807,46.3310
59.6757,46.6442
59.6877,46.6836
59.6877,46.6836
59.8287,47.0241
59.8287,47.0241
60.0024,47.3491
60.0947,47.4871
60.2071,47.6555
60.2071,47.6555
60.4409,47.9403
60.7015,48.2009
60.7535,48.2435
60.9863,48.4347
61.2927,48.6394
61.2927,48.6394
61.2927,48.6394
61.6177,48.8131
61.6177,48.8131
61.6177,48.8131
61.9582,48.9541
62.3108,49.0611
62.3108,49.0611
62.3108,49.0611
62.6722,49.1330
62.6722,49.1330
62.6722,49.1330
63.0389,49.1691
63.0390,49.1691
66.4737,49.1691
66.6748,49.1895
66.8677,49.2501
67.0444,49.3482
67.1978,49.4798
67.3215,49.6397
67.4105,49.8211
67.4612,50.0168
67.4727,50.1681
67.4727,55.0984
67.4522,55.2994
67.3917,55.4923
67.2936,55.6690
67.1801,55.8048
64.0024,58.9825
63.8045,59.2306
63.8045,59.2306
63.7923,59.2460
63.6130,59.5313
63.4667,59.8350
63.3554,60.1530
63.3554,60.1530
63.2804,60.4816
63.2444,60.8013
63.2444,60.8013
63.2427,60.8165
63.2427,62.4235
63.2427,62.4235
63.2804,62.7584
63.2804,62.7584
63.2804,62.7584
63.3403,63.0205
63.3554,63.0870
63.3554,63.0870
63.4581,63.3803
63.4667,63.4051
63.5114,63.4978
63.6130,63.7087
63.7923,63.9940
63.7923,63.9940
64.0024,64.2575
64.2407,64.4958
64.5042,64.7059
64.7895,64.8852
65.0931,65.0315
65.4112,65.1428
65.7398,65.2178
65.7398,65.2178
65.7398,65.2178
65.8207,65.2269
66.0747,65.2555
66.0747,65.2555
66.4117,65.2555
66.4117,65.2555
66.7466,65.2178
67.0752,65.1428
67.3933,65.0315
67.6969,64.8852
67.9822,64.7059
68.2457,64.4958
68.4840,64.2575
68.6941,63.9940
68.8734,63.7087
69.0197,63.4051
69.1310,63.0870
69.2060,62.7584
69.2294,62.5504
69.2722,62.3528
69.3540,62.1680
69.4712,62.0033
69.5157,61.9559
72.7140,58.7575
72.7247,58.7442
72.7566,58.7042
72.7566,58.7042
72.8526,58.5837
72.9940,58.4392
73.1616,58.3262
73.3485,58.2491
73.5470,58.2113
73.7491,58.2143
73.9465,58.2578
74.1311,58.3402
74.2953,58.4581
74.4325,58.6066
74.5369,58.7796
74.6043,58.9702
74.6320,59.1704
74.6327,59.2066
74.6327,88.6955
74.6123,88.8966
74.5517,89.0895
74.4536,89.2662
74.3220,89.4196
74.1621,89.5433
73.9807,89.6323
73.7850,89.6830
73.6337,89.6945
71.5114,89.6945
71.3103,89.6740
71.1175,89.6135
70.9407,89.5154
70.7874,89.3838
70.6636,89.2239
70.5746,89.0425
70.5239,88.8468
70.5137,88.6449
70.5443,88.4451
70.6145,88.2555
70.7214,88.0840
70.8607,87.9375
70.8827,87.9191
71.0469,87.7862
71.1287,87.7199
71.3881,87.4605
71.6191,87.1754
71.8189,86.8677
71.9855,86.5407
72.1169,86.1982
72.2119,85.8438
72.2693,85.4814
72.2885,85.1150
72.2693,84.7486
72.2119,84.3862
72.1169,84.0318
71.9855,83.6893
71.9542,83.6279
71.8189,83.3624
71.8189,83.3623
71.6191,83.0546
71.6191,83.0546
71.3882,82.7695
71.3882,82.7695
71.3881,82.7695
71.1287,82.5101
71.1287,82.5100
71.1287,82.5100
70.8436,82.2791
70.8436,82.2791
70.5359,82.0793
70.5358,82.0793
70.2089,81.9127
69.8664,81.7813
69.8664,81.7813
69.8664,81.7813
69.5120,81.6863
69.1496,81.6289
69.1496,81.6289
68.7832,81.6097
68.4168,81.6289
68.3139,81.6452
68.0544,81.6863
67.7066,81.7795
67.7000,81.7813
67.3575,81.9127
67.0306,82.0793
67.0305,82.0793
66.7228,82.2791
66.7228,82.2791
66.4377,82.5100
66.1782,82.7695
65.9473,83.0546
65.9473,83.0546
65.7475,83.3623
65.7475,83.3624
65.5809,83.6893
65.4495,84.0318
65.4495,84.0318
65.4495,84.0318
65.3545,84.3862
65.3191,84.6095
65.2971,84.7486
65.2779,85.1150
65.2971,85.4814
65.2971,85.4814
65.3545,85.8438
65.3771,85.9281
65.4495,86.1982
65.5809,86.5407
65.7475,86.8676
65.7475,86.8677
65.9473,87.1754
65.9473,87.1754
66.1782,87.4605
66.1782,87.4605
66.1783,87.4605
66.4377,87.7199
66.4377,87.7200
66.4377,87.7200
66.6837,87.9191
66.8271,88.0616
66.9389,88.2300
67.0145,88.4174
67.0508,88.6163
67.0464,88.8184
67.0014,89.0154
66.9176,89.1994
66.7985,89.3627
66.6490,89.4987
66.4751,89.6018
66.2841,89.6679
66.0837,89.6941
66.0550,89.6945
41.4331,89.6945
41.2320,89.6740
41.0391,89.6135
40.8624,89.5154
40.7090,89.3838
40.6232,89.2729
40.5898,89.3240
40.4474,89.4674
40.2790,89.5793
40.0916,89.6550
39.8928,89.6913
39.8133,89.6945
13.9331,89.6945
13.7320,89.6740
13.5391,89.6135
13.3624,89.5154
13.2090,89.3838
13.1232,89.2729
13.0898,89.3240
12.9474,89.4674
12.7790,89.5793
12.5916,89.6550
12.3928,89.6913
12.3133,89.6945
9.2814,89.6945
9.0803,89.6740
8.8875,89.6135
8.7107,89.5154
8.5574,89.3838
8.4336,89.2239
8.3446,89.0425
8.2939,88.8468
8.2837,88.6449
8.3143,88.4451
8.3845,88.2555
8.4914,88.0840
8.6307,87.9375
8.6527,87.9191
8.8169,87.7862
8.8987,87.7199
9.1581,87.4605
9.3891,87.1754
9.4606,87.0652
9.5872,86.9077
9.7430,86.7789
9.9215,86.6841
10.1155,86.6272
10.3169,86.6105
10.5176,86.6347
10.7093,86.6988
10.8842,86.8001
11.0048,86.9029
11.1207,87.0188
11.3842,87.2289
11.6695,87.4082
11.9731,87.5545
12.2912,87.6658
12.4471,87.7014
12.5356,87.7215
12.7271,87.7862
12.9017,87.8881
13.0521,88.0231
13.1221,88.1177
13.1431,88.0840
13.2824,87.9375
13.4483,87.8220
13.6340,87.7423
13.7108,87.7215
13.7743,87.7071
13.9552,87.6658
14.2733,87.5545
14.5769,87.4082
14.8622,87.2289
15.1257,87.0188
26.5377,75.6068
26.6103,75.5410
26.8549,75.3403
27.1155,75.0797
27.3493,74.7949
27.5540,74.4885
27.7277,74.1635
27.8687,73.8230
27.9757,73.4704
28.0476,73.1090
28.0837,72.7422
28.0837,68.8738
28.0476,68.5070
27.9757,68.1456
27.8687,67.7930
27.7277,67.4525
27.7277,67.4525
27.7277,67.4525
27.5540,67.1275
27.4158,66.9207
27.3493,66.8211
27.1745,66.6082
27.1155,66.5363
26.8549,66.2757
26.5701,66.0419
26.5701,66.0419
26.2637,65.8372
26.2637,65.8372
26.2637,65.8372
26.2637,65.8372
25.9387,65.6635
25.9387,65.6635
25.5982,65.5225
25.3022,65.4327
25.2456,65.4155
25.2456,65.4155
25.2456,65.4155
24.8842,65.3436
24.7175,65.3272
24.5175,65.3075
24.1489,65.3075
23.9936,65.3228
23.7822,65.3436
23.5272,65.3944
23.4309,65.4135
23.2297,65.4327
23.0287,65.4110
22.8362,65.3492
22.6601,65.2500
22.5076,65.1174
22.3849,64.9568
22.2970,64.7747
22.2620,64.6560
22.2210,64.4760
22.1097,64.1579
21.9634,63.8543
21.9634,63.8543
21.9634,63.8543
21.9634,63.8543
21.9271,63.7965
21.9271,63.7965
21.9271,63.7965
21.7842,63.5690
21.7841,63.5690
21.5740,63.3055
15.4057,57.1372
15.1422,56.9271
15.1366,56.9235
14.8569,56.7478
14.6900,56.6674
14.5533,56.6015
14.5103,56.5865
14.3433,56.5281
14.1602,56.4423
14.0654,56.3756
14.0648,56.3765
14.0451,56.3619
14.0451,56.3619
13.7387,56.1572
13.7387,56.1572
13.7387,56.1572
13.7387,56.1572
13.4137,55.9835
13.4137,55.9835
13.0732,55.8425
12.8143,55.7639
12.7206,55.7355
12.7206,55.7355
12.7206,55.7355
12.3592,55.6636
12.1925,55.6472
11.9924,55.6275
8.1239,55.6275
7.9406,55.6456
7.7572,55.6636
7.3958,55.7355
7.3958,55.7355
7.3958,55.7355
7.3958,55.7355
7.3958,55.7355
7.0432,55.8425
7.0432,55.8425
6.7027,55.9835
6.7027,55.9835
6.3777,56.1572
6.0713,56.3619
6.0713,56.3619
5.7865,56.5957
5.5259,56.8563
5.2921,57.1411
5.2921,57.1411
5.0874,57.4475
4.9137,57.7725
4.9137,57.7725
4.7727,58.1130
4.7727,58.1130
4.6657,58.4656
4.6657,58.4656
4.5938,58.8270
4.5797,58.9702
4.5577,59.1937
4.5577,59.5622
4.5690,59.6765
4.5938,59.9290
4.6657,60.2904
4.6657,60.2904
4.6657,60.2904
4.6657,60.2904
4.7727,60.6430
4.7727,60.6430
4.9137,60.9835
4.9137,60.9835
5.0874,61.3085
5.1640,61.4230
5.2921,61.6149
5.2921,61.6149
5.5259,61.8997
5.7865,62.1603
5.8688,62.2278
6.0713,62.3941
6.3777,62.5988
6.3777,62.5988
6.3777,62.5988
6.7027,62.7725
6.7027,62.7725
6.7027,62.7725
7.0432,62.9135
7.3958,63.0205
7.3958,63.0205
7.3958,63.0205
7.7572,63.0924
7.7572,63.0924
7.7572,63.0924
8.1239,63.1285
8.1240,63.1285
11.9924,63.1285
11.9924,63.1285
12.3578,63.0925
12.5600,63.0932
12.7578,63.1345
12.9433,63.2148
13.1089,63.3308
13.1622,63.3803
15.8661,66.0843
15.9939,66.2409
16.0874,66.4201
16.1430,66.6144
16.1584,66.8160
16.1329,67.0165
16.0675,67.2078
16.0408,67.2616
15.9387,67.4525
15.7977,67.7930
15.7977,67.7930
15.6907,68.1456
15.6907,68.1456
15.6188,68.5070
15.6008,68.6904
15.5827,68.8738
15.5827,72.7422
15.5898,72.8148
15.6188,73.1090
15.6907,73.4704
15.6907,73.4704
15.6907,73.4704
15.6907,73.4704
15.7977,73.8230
15.7977,73.8230
15.9387,74.1635
15.9387,74.1635
16.1124,74.4885
16.1825,74.5934
16.3171,74.7949
16.3171,74.7949
16.5509,75.0797
16.8115,75.3403
16.8240,75.3517
16.9593,75.5019
17.0616,75.6762
17.1267,75.8676
17.1519,76.0682
17.1362,76.2697
17.0803,76.4639
16.9864,76.6429
16.8596,76.7983
10.8824,82.7755
10.8043,82.8733
10.6630,83.0178
10.4954,83.1308
10.3085,83.2079
10.1100,83.2457
9.9079,83.2428
9.7105,83.1992
9.5259,83.1168
9.3617,82.9989
9.2469,82.8791
9.1581,82.7695
8.8987,82.5101
8.8987,82.5100
8.8987,82.5100
8.6136,82.2791
8.6136,82.2791
8.3059,82.0793
8.3058,82.0793
7.9789,81.9127
7.6364,81.7813
7.6364,81.7813
7.6364,81.7813
7.2820,81.6863
6.9196,81.6289
6.9196,81.6289
6.5532,81.6097
6.1868,81.6289
6.0839,81.6452
5.8244,81.6863
5.4766,81.7795
5.4700,81.7813
5.1275,81.9127
4.8006,82.0793
4.8005,82.0793
4.4928,82.2791
4.4928,82.2791
4.2077,82.5100
3.9482,82.7695
3.7173,83.0546
3.7173,83.0546
3.5175,83.3623
3.5175,83.3624
3.3509,83.6893
3.2195,84.0318
3.2195,84.0318
3.2195,84.0318
3.1245,84.3862
3.0891,84.6095
3.0671,84.7486
3.0479,85.1150
3.0671,85.4814
3.0671,85.4814
3.1245,85.8438
3.1471,85.9281
3.2195,86.1982
3.3509,86.5407
3.5175,86.8676
3.5175,86.8677
3.7173,87.1754
3.7173,87.1754
3.9482,87.4605
3.9482,87.4605
3.9483,87.4605
4.2077,87.7199
4.2077,87.7200
4.2077,87.7200
4.4537,87.9191
4.5971,88.0616
4.7089,88.2300
4.7845,88.4174
4.8208,88.6163
4.8164,88.8184
4.7714,89.0154
4.6876,89.1994
4.5685,89.3627
4.4190,89.4987
4.2451,89.6018
4.0541,89.6679
3.8537,89.6941
3.8250,89.6945
1.7027,89.6945
1.5016,89.6740
1.3087,89.6135
1.1320,89.5154
0.9786,89.3838
0.8549,89.2239
0.7659,89.0425
0.7152,88.8468
0.7037,88.6955
0.7037,47.2556
0.7241,47.0545
0.7847,46.8617
0.8828,46.6850
1.0144,46.5316
1.1743,46.4079
1.3557,46.3188
1.5514,46.2682
1.7533,46.2579
1.9531,46.2885
2.1427,46.3587
2.3142,46.4657
2.4091,46.5492
3.8057,47.9458
4.0692,48.1559
4.3545,48.3352
4.6581,48.4815
4.9762,48.5928
5.3048,48.6678
5.6397,48.7055
5.6397,48.7055
5.7450,48.7055
5.9461,48.7259
6.1390,48.7865
6.3000,48.8739
6.3777,48.9258
6.3777,48.9258
6.7027,49.0995
6.7027,49.0995
6.7027,49.0995
7.0432,49.2405
7.3958,49.3475
7.3958,49.3475
7.3958,49.3475
7.7572,49.4194
7.7572,49.4194
7.7572,49.4194
8.1239,49.4555
8.1240,49.4555
11.9924,49.4555
11.9924,49.4555
12.3592,49.4194
12.3592,49.4194
12.3592,49.4194
12.4137,49.4085
12.5131,49.3888
12.7143,49.3696
12.9153,49.3913
13.1077,49.4530
13.2839,49.5523
13.4144,49.6622
17.3119,53.5597
17.3119,53.5597
17.3314,53.5792
17.5697,53.8175
17.8332,54.0276
17.8332,54.0276
18.1027,54.1970
18.1186,54.2069
18.4222,54.3532
18.7403,54.4645
18.9581,54.5142
19.0689,54.5395
19.4038,54.5772
19.4038,54.5772
26.4954,54.5772
26.6965,54.5976
26.8894,54.6582
27.0504,54.7456
27.1281,54.7975
27.1281,54.7975
27.4531,54.9712
27.4531,54.9712
27.4531,54.9712
27.7936,55.1122
28.1462,55.2192
28.1462,55.2192
28.1462,55.2192
28.5076,55.2911
28.5076,55.2911
28.5076,55.2911
28.8743,55.3272
28.8744,55.3272
30.3091,55.3272
30.5102,55.3476
30.7031,55.4082
30.8798,55.5063
31.0332,55.6379
31.1569,55.7978
31.2459,55.9792
31.2966,56.1749
31.3062,56.3008
31.3069,56.3007
31.3081,56.3252
31.3081,56.3252
31.3081,56.3252
31.3196,56.4423
31.3442,56.6920
31.4161,57.0534
31.4161,57.0534
31.4161,57.0534
31.4427,57.1411
31.5231,57.4060
31.5231,57.4060
31.6641,57.7465
31.6641,57.7465
31.8378,58.0715
31.9565,58.2491
32.0425,58.3779
32.0425,58.3779
32.2763,58.6627
32.5369,58.9233
32.6090,58.9825
32.8217,59.1571
33.1281,59.3618
33.1281,59.3618
33.1281,59.3618
33.4531,59.5355
33.4531,59.5355
33.4531,59.5355
33.7936,59.6765
34.1462,59.7835
34.1462,59.7835
34.1462,59.7835
34.5076,59.8554
34.5076,59.8554
34.5076,59.8554
34.8743,59.8915
34.8744,59.8915
35.2428,59.8915
35.2428,59.8915
35.6096,59.8554
35.9710,59.7835
36.3236,59.6765
36.6641,59.5355
36.6641,59.5355
36.6641,59.5355
36.9891,59.3618
36.9891,59.3618
36.9891,59.3618
37.2955,59.1571
37.5803,58.9233
37.8409,58.6627
38.0747,58.3779
38.2794,58.0715
38.3683,57.9051
38.4531,57.7465
38.4531,57.7465
38.4531,57.7465
38.5941,57.4060
38.7011,57.0534
38.7730,56.6920
38.8091,56.3252
38.8091,54.4567
38.7730,54.0900
38.7730,54.0900
38.7011,53.7286
38.7011,53.7286
38.7011,53.7286
38.5941,53.3760
38.4531,53.0355
38.4531,53.0355
38.4531,53.0355
38.2794,52.7105
38.1608,52.5330
38.0747,52.4041
37.8409,52.1193
37.5803,51.8587
37.5803,51.8587
37.2967,51.6260
37.2955,51.6249
36.9891,51.4202
36.9891,51.4202
36.9891,51.4202
36.9891,51.4202
36.6641,51.2465
36.6641,51.2465
36.3236,51.1055
36.1370,51.0489
35.9710,50.9985
35.9710,50.9985
35.9710,50.9985
35.6096,50.9266
35.4429,50.9102
35.2428,50.8905
35.0014,50.8905
34.8003,50.8700
34.6074,50.8095
34.4307,50.7114
34.2773,50.5798
34.1536,50.4199
34.0784,50.2738
33.9531,49.9712
33.9531,49.9712
33.7794,49.6462
33.6278,49.4194
33.5747,49.3398
33.3459,49.0611
33.3409,49.0550
33.0803,48.7944
32.7955,48.5606
32.7955,48.5606
32.4891,48.3559
32.3878,48.3018
32.2201,48.1890
32.0786,48.0447
31.9689,47.8749
31.8957,47.6864
31.8620,47.4871
31.8690,47.2851
31.9166,47.0887
31.9393,47.0335
31.9383,47.0331
31.9477,47.0105
32.0887,46.6700
32.1957,46.3174
32.2676,45.9560
32.3037,45.5892
32.3037,45.2207
32.2676,44.8540
32.2544,44.7877
32.1957,44.4926
32.1957,44.4926
32.1957,44.4926
32.0887,44.1400
31.9477,43.7995
31.9477,43.7995
31.9383,43.7769
31.9412,43.7756
31.8882,43.6259
31.8604,43.4257
31.8735,43.2240
31.9270,43.0290
32.0185,42.8488
32.1445,42.6908
32.2998,42.5613
32.3878,42.5082
32.4891,42.4541
32.7955,42.2494
33.0803,42.0156
33.3409,41.7550
33.5747,41.4702
33.7794,41.1638
33.8601,41.0128
33.9531,40.8388
33.9531,40.8388
34.0784,40.5362
34.1743,40.3582
34.3040,40.2032
34.4623,40.0775
34.6426,39.9862
34.8376,39.9330
35.0014,39.9195
35.2428,39.9195
35.2428,39.9195
35.6096,39.8834
35.9710,39.8115
36.3236,39.7045
36.6641,39.5635
36.6641,39.5635
36.6641,39.5635
36.9891,39.3898
36.9891,39.3898
36.9891,39.3898
37.2955,39.1851
37.5803,38.9513
37.5968,38.9348
37.7535,38.8071
37.9326,38.7135
38.1270,38.6579
38.3285,38.6425
Z" /> 
<path style="fill:#000000; fill-opacity:1.0000; stroke:none;fill-rule:evenodd;"
d="M 73.8348,0.5459
74.0277,0.6065
74.2044,0.7046
74.3578,0.8362
74.4815,0.9961
74.5705,1.1775
74.6212,1.3732
74.6327,1.5245
74.6327,44.2170
74.6123,44.4181
74.5517,44.6110
74.4536,44.7877
74.3220,44.9411
74.1621,45.0648
73.9807,45.1539
73.7850,45.2045
73.5831,45.2148
73.3833,45.1841
73.1937,45.1139
73.0222,45.0070
72.8757,44.8678
72.8527,44.8399
72.7140,44.6661
71.2257,43.1778
71.1577,43.1236
71.1039,43.0807
70.9622,42.9677
70.9622,42.9677
70.9622,42.9677
70.6769,42.7884
70.4749,42.6911
70.3733,42.6421
70.3732,42.6421
70.3732,42.6421
70.0552,42.5308
70.0551,42.5308
69.7266,42.4558
69.7266,42.4558
69.6968,42.4525
69.6499,42.4472
69.3917,42.4181
69.3917,42.4181
69.3917,42.4181
69.2864,42.4181
69.0853,42.3976
68.8924,42.3371
68.7314,42.2497
68.6537,42.1978
68.6537,42.1978
68.6537,42.1978
68.3287,42.0241
68.3287,42.0241
67.9882,41.8831
67.6799,41.7895
67.6356,41.7761
67.6356,41.7761
67.6356,41.7761
67.2742,41.7042
67.1075,41.6878
66.9074,41.6681
66.9074,41.6681
65.8798,41.6681
65.6787,41.6476
65.4859,41.5871
65.3092,41.4890
65.1734,41.3755
63.6327,39.8347
61.7621,37.9642
61.7621,37.9642
61.7621,37.9642
61.7525,37.9565
61.7525,37.9565
61.7525,37.9565
61.4986,37.7541
61.3926,37.6874
61.2133,37.5748
61.0489,37.4956
60.9097,37.4285
60.9096,37.4285
60.9096,37.4285
60.5916,37.3172
60.5915,37.3172
60.2630,37.2422
59.9281,37.2045
59.9281,37.2045
59.9281,37.2045
59.9281,37.2045
59.9281,37.2045
51.2071,37.2045
51.0060,37.1840
50.8131,37.1235
50.6364,37.0254
50.4830,36.8938
50.4349,36.8393
50.3301,36.7116
50.0695,36.4510
50.0695,36.4510
49.7847,36.2172
49.7847,36.2172
49.4783,36.0125
49.4783,36.0125
49.4783,36.0125
49.4783,36.0125
49.1533,35.8388
49.1533,35.8388
48.8128,35.6978
48.6262,35.6412
48.4602,35.5908
48.4602,35.5908
48.4602,35.5908
48.0988,35.5189
47.9321,35.5025
47.7321,35.4828
46.2973,35.4828
46.0962,35.4624
45.9033,35.4018
45.7266,35.3037
45.5732,35.1721
45.4495,35.0122
45.3605,34.8308
45.3098,34.6351
45.3002,34.5092
45.2995,34.5093
45.2983,34.4848
45.2983,34.4847
45.2622,34.1180
45.2245,33.9284
45.1903,33.7566
45.1903,33.7566
45.1903,33.7566
45.0833,33.4040
44.9423,33.0635
44.9423,33.0635
44.9423,33.0635
44.7686,32.7385
44.6677,32.5875
44.5639,32.4321
44.3301,32.1473
44.0695,31.8867
44.0695,31.8867
43.8763,31.7282
43.7847,31.6529
43.4783,31.4482
43.4783,31.4482
43.4783,31.4482
43.4783,31.4482
43.1533,31.2745
43.1533,31.2745
42.8128,31.1335
42.5755,31.0615
42.4602,31.0265
42.4602,31.0265
42.4602,31.0265
42.0988,30.9546
41.9321,30.9382
41.7321,30.9185
41.3635,30.9185
41.1802,30.9366
40.9968,30.9546
40.6354,31.0265
40.6354,31.0265
40.6354,31.0265
40.6354,31.0265
40.6354,31.0265
40.2828,31.1335
40.2828,31.1335
39.9423,31.2745
39.9423,31.2745
39.6173,31.4482
39.3109,31.6529
39.3109,31.6529
39.0261,31.8867
39.0096,31.9032
38.8529,32.0309
38.6738,32.1245
38.4794,32.1801
38.2779,32.1955
38.0774,32.1699
37.8861,32.1046
37.7119,32.0020
37.5968,31.9032
37.5803,31.8867
37.3871,31.7282
37.2955,31.6529
36.9891,31.4482
36.9891,31.4482
36.9891,31.4482
36.9891,31.4482
36.6641,31.2745
36.6641,31.2745
36.3236,31.1335
36.0863,31.0615
35.9710,31.0265
35.9710,31.0265
35.9710,31.0265
35.6096,30.9546
35.4429,30.9382
35.2428,30.9185
34.8743,30.9185
34.6910,30.9366
34.5076,30.9546
34.1462,31.0265
34.1462,31.0265
34.1462,31.0265
34.1462,31.0265
34.1462,31.0265
33.7936,31.1335
33.7936,31.1335
33.4531,31.2745
33.4531,31.2745
33.1281,31.4482
32.8217,31.6529
32.8217,31.6529
32.7765,31.6901
32.6080,31.8019
32.4206,31.8774
32.2217,31.9137
32.0196,31.9092
31.8226,31.8642
31.6386,31.7804
31.4753,31.6612
31.3394,31.5117
31.2363,31.3378
31.1703,31.1468
31.1441,30.9463
31.1437,30.9179
31.1437,29.0665
31.1437,29.0665
31.1420,29.0513
31.1420,29.0513
31.1350,28.9892
31.1060,28.7316
31.0955,28.6859
31.0310,28.4030
30.9197,28.0849
30.8663,27.9740
30.7838,27.8027
30.7734,27.7813
30.7734,27.7813
30.5941,27.4960
30.5057,27.3851
30.5057,27.3851
30.3840,27.2325
30.1457,26.9942
30.1262,26.9746
30.1262,26.9746
30.1262,26.9746
28.4363,25.2848
28.3086,25.1281
28.2150,24.9489
28.1594,24.7546
28.1437,24.5784
28.1437,23.1906
28.1641,22.9895
28.2247,22.7967
28.3228,22.6199
28.4544,22.4666
28.6143,22.3429
28.7957,22.2538
28.9914,22.2032
29.1933,22.1929
29.3931,22.2235
29.5827,22.2937
29.7542,22.4007
29.8491,22.4842
29.9507,22.5858
29.9507,22.5858
29.9507,22.5858
30.2024,22.7866
30.2024,22.7866
30.2024,22.7866
30.2142,22.7959
30.4995,22.9752
30.7643,23.1028
30.8031,23.1215
31.1212,23.2328
31.2941,23.2722
31.4498,23.3078
31.6825,23.3340
31.8801,23.3768
32.0649,23.4585
32.2296,23.5758
32.3672,23.7238
32.4517,23.8558
32.5424,24.0255
32.6364,24.1661
32.7471,24.3319
32.7471,24.3319
32.9809,24.6167
32.9809,24.6167
33.2415,24.8773
33.5263,25.1111
33.8327,25.3158
33.8327,25.3158
33.8327,25.3158
34.1577,25.4895
34.1577,25.4895
34.1577,25.4895
34.4982,25.6305
34.8508,25.7375
34.8508,25.7375
34.8508,25.7375
35.2122,25.8094
35.2122,25.8094
35.2122,25.8094
35.5789,25.8455
35.5790,25.8455
35.9474,25.8455
35.9474,25.8455
36.3142,25.8094
36.6756,25.7375
37.0282,25.6305
37.3687,25.4895
37.3687,25.4895
37.3687,25.4895
37.6937,25.3158
37.6937,25.3158
37.6937,25.3158
38.0001,25.1111
38.2849,24.8773
38.5455,24.6167
38.7793,24.3319
38.9840,24.0255
39.0666,23.8708
39.1577,23.7005
39.1577,23.7005
39.1577,23.7005
39.2987,23.3600
39.4057,23.0074
39.4776,22.6460
39.5137,22.2792
39.5137,18.5513
45.3027,18.5513
45.3027,22.4199
45.3190,22.5858
45.3388,22.7866
45.4107,23.1480
45.4107,23.1480
45.4107,23.1480
45.4750,23.3600
45.5177,23.5006
45.5177,23.5006
45.6587,23.8411
45.6587,23.8411
45.8324,24.1661
45.8363,24.1718
46.0371,24.4725
46.0371,24.4725
46.2709,24.7573
46.2709,24.7573
46.5315,25.0179
46.8163,25.2517
47.1227,25.4564
47.1227,25.4564
47.1227,25.4564
47.4477,25.6301
47.4477,25.6301
47.4477,25.6301
47.7882,25.7711
48.1408,25.8781
48.1408,25.8781
48.1408,25.8781
48.5022,25.9500
48.5022,25.9500
48.5022,25.9500
48.8689,25.9861
48.8690,25.9861
49.2374,25.9861
49.2374,25.9861
49.6042,25.9500
49.9656,25.8781
50.2954,25.7780
50.4938,25.7392
50.6959,25.7412
50.8935,25.7837
51.0785,25.8652
51.2433,25.9822
51.3812,26.1301
51.4313,26.2025
51.6022,26.4746
51.6023,26.4746
51.6023,26.4746
51.8124,26.7381
54.7468,29.6726
57.6422,32.5680
57.6422,32.5680
57.6618,32.5875
57.9001,32.8258
58.1636,33.0359
58.4489,33.2152
58.7525,33.3615
59.0706,33.4728
59.3992,33.5478
59.7341,33.5855
59.7341,33.5855
60.6600,33.5855
60.8611,33.6059
61.0540,33.6665
61.2150,33.7539
61.2927,33.8058
61.2927,33.8058
61.6177,33.9795
61.6177,33.9795
61.6177,33.9795
61.9582,34.1205
62.3108,34.2275
62.3108,34.2275
62.3108,34.2275
62.6722,34.2994
62.6722,34.2994
62.6722,34.2994
63.0389,34.3355
63.0390,34.3355
66.9074,34.3355
66.9074,34.3355
67.2742,34.2994
67.6356,34.2275
67.9882,34.1205
68.3287,33.9795
68.3287,33.9795
68.3287,33.9795
68.6537,33.8058
68.6537,33.8058
68.6537,33.8058
68.9601,33.6011
69.2449,33.3673
69.5055,33.1067
69.7393,32.8219
69.9440,32.5155
69.9885,32.4321
70.1177,32.1905
70.1177,32.1905
70.1177,32.1905
70.2587,31.8500
70.3657,31.4974
70.4376,31.1360
70.4737,30.7692
70.4737,30.4007
70.4376,30.0340
70.4376,30.0340
70.3657,29.6726
70.3657,29.6726
70.3657,29.6726
70.2587,29.3200
70.1177,28.9795
70.1177,28.9795
70.1177,28.9795
69.9440,28.6545
69.8761,28.5529
69.7393,28.3481
69.5233,28.0850
69.5055,28.0633
69.2449,27.8027
68.9601,27.5689
68.9601,27.5689
68.6537,27.3642
68.6537,27.3642
68.6537,27.3642
68.6537,27.3642
68.3287,27.1905
68.3287,27.1905
67.9882,27.0495
67.7415,26.9746
67.6356,26.9425
67.6356,26.9425
67.6356,26.9425
67.2742,26.8706
67.1075,26.8542
66.9074,26.8345
63.0389,26.8345
62.8556,26.8526
62.6722,26.8706
62.3108,26.9425
62.3108,26.9425
62.3108,26.9425
62.3108,26.9425
62.3108,26.9425
61.9582,27.0495
61.9582,27.0495
61.6219,27.1888
61.4283,27.2468
61.2269,27.2647
61.0261,27.2417
60.8340,27.1788
60.6585,27.0785
60.5332,26.9722
57.8894,24.3285
57.7617,24.1718
57.6681,23.9927
57.6125,23.7983
57.5971,23.5968
57.6227,23.3963
57.6398,23.3321
57.6957,23.1480
57.7676,22.7866
57.8037,22.4199
57.8037,18.5513
57.7676,18.1846
57.6957,17.8232
57.5887,17.4706
57.4477,17.1301
57.4477,17.1301
57.4477,17.1301
57.2740,16.8051
57.1099,16.5596
57.0693,16.4987
56.8355,16.2139
56.5749,15.9533
56.5749,15.9533
56.3817,15.7948
56.2901,15.7195
56.2723,15.7077
56.1165,15.5789
55.9897,15.4215
55.8973,15.2417
55.8429,15.0470
55.8288,14.8454
55.8556,14.6451
55.9222,14.4542
56.0259,14.2807
56.1209,14.1706
61.9140,8.3775
62.1241,8.1140
62.3034,7.8287
62.4497,7.5251
62.5610,7.2070
62.6360,6.8784
62.6737,6.5435
62.6737,6.3750
65.2779,6.3750
65.2971,6.7414
65.2971,6.7414
65.3545,7.1038
65.3821,7.2069
65.4495,7.4582
65.5809,7.8007
65.7475,8.1276
65.7475,8.1277
65.9473,8.4354
65.9473,8.4354
66.1782,8.7205
66.1782,8.7205
66.1783,8.7205
66.4377,8.9799
66.4377,8.9800
66.4377,8.9800
66.7228,9.2108
66.7228,9.2109
67.0305,9.4107
67.0306,9.4107
67.3575,9.5773
67.3575,9.5773
67.7000,9.7087
68.0544,9.8037
68.4168,9.8611
68.7832,9.8803
69.1496,9.8611
69.5120,9.8037
69.8664,9.7087
70.2089,9.5773
70.5359,9.4107
70.8436,9.2109
71.1287,8.9799
71.3881,8.7205
71.6191,8.4354
71.8189,8.1277
71.9855,7.8007
72.1169,7.4582
72.2119,7.1038
72.2693,6.7414
72.2885,6.3750
72.2693,6.0086
72.2119,5.6462
72.1169,5.2918
71.9855,4.9493
71.9633,4.9058
71.8189,4.6224
71.8189,4.6223
71.6191,4.3146
71.6191,4.3146
71.3882,4.0295
71.3882,4.0295
71.3881,4.0295
71.1287,3.7701
71.1287,3.7700
71.1287,3.7700
70.8436,3.5391
70.8436,3.5391
70.5359,3.3393
70.5358,3.3393
70.2089,3.1727
69.8664,3.0413
69.8664,3.0413
69.8664,3.0413
69.5120,2.9463
69.1496,2.8889
69.1496,2.8889
68.7832,2.8697
68.4168,2.8889
68.3139,2.9052
68.0544,2.9463
67.7000,3.0413
67.7000,3.0413
67.3575,3.1727
67.0306,3.3393
67.0305,3.3393
66.7228,3.5391
66.7228,3.5391
66.4377,3.7700
66.1782,4.0295
65.9473,4.3146
65.9473,4.3146
65.7475,4.6223
65.7475,4.6224
65.5809,4.9493
65.4495,5.2918
65.4495,5.2918
65.4495,5.2918
65.3545,5.6462
65.3375,5.7534
65.2971,6.0086
65.2779,6.3750
62.6737,6.3750
62.6737,6.2065
62.6360,5.8716
62.5610,5.5430
62.4497,5.2249
62.3034,4.9213
62.2937,4.9058
62.1241,4.6360
62.1241,4.6360
61.9140,4.3725
61.6757,4.1342
61.4122,3.9241
61.4054,3.9198
61.1269,3.7448
60.9625,3.6656
60.8233,3.5985
60.8232,3.5985
60.8232,3.5985
60.5052,3.4872
60.5051,3.4872
60.1766,3.4122
59.8417,3.3745
59.8417,3.3745
59.8417,3.3745
59.5047,3.3745
59.5047,3.3745
59.5047,3.3745
59.1698,3.4122
59.1698,3.4122
58.8413,3.4872
58.8412,3.4872
58.5232,3.5985
58.2195,3.7448
57.9342,3.9241
57.9342,3.9241
57.6707,4.1342
47.0507,14.7542
46.8124,14.9925
46.6023,15.2560
46.6023,15.2560
46.4230,15.5413
46.2767,15.8449
46.1654,16.1630
46.1654,16.1631
46.1566,16.2017
46.0919,16.3932
46.0133,16.5344
45.8324,16.8051
45.8324,16.8051
45.6587,17.1301
45.6587,17.1301
45.5177,17.4706
45.5177,17.4706
45.4107,17.8232
45.4107,17.8232
45.3388,18.1846
45.3208,18.3680
45.3027,18.5513
39.5137,18.5513
39.5137,18.4108
39.4776,18.0440
39.4057,17.6826
39.2987,17.3300
39.1577,16.9895
39.1577,16.9895
39.1577,16.9895
38.9840,16.6645
38.8971,16.5344
38.7793,16.3581
38.5455,16.0733
38.2849,15.8127
38.2849,15.8127
38.2849,15.8127
38.0001,15.5789
38.0001,15.5789
37.6937,15.3742
37.6937,15.3742
37.6937,15.3742
37.6937,15.3742
37.3687,15.2005
37.3687,15.2005
37.0282,15.0595
36.8416,15.0029
36.6756,14.9525
36.6756,14.9525
36.6756,14.9525
36.3142,14.8806
36.1475,14.8642
35.9474,14.8445
35.5789,14.8445
35.3956,14.8626
35.2122,14.8806
34.8508,14.9525
34.8508,14.9525
34.8508,14.9525
34.8508,14.9525
34.8508,14.9525
34.4982,15.0595
34.4982,15.0595
34.1577,15.2005
34.1577,15.2005
33.8327,15.3742
33.5263,15.5789
33.5263,15.5789
33.2415,15.8127
33.2415,15.8127
33.1593,15.8949
33.0026,16.0227
32.8234,16.1162
32.6291,16.1719
32.4276,16.1872
32.2270,16.1617
32.0358,16.0963
31.8616,15.9937
31.7465,15.8949
31.3664,15.5148
30.1457,14.2942
30.1457,14.2942
30.1457,14.2942
30.1027,14.2599
29.9582,14.1185
29.8451,13.9509
29.7681,13.7640
29.7303,13.5655
29.7332,13.3634
29.7768,13.1660
29.8592,12.9814
29.9770,12.8172
30.0191,12.7724
34.4140,8.3775
34.6241,8.1140
34.8034,7.8287
34.9497,7.5251
35.0610,7.2070
35.1360,6.8784
35.1737,6.5435
35.1737,6.2065
35.1360,5.8716
35.0610,5.5430
34.9497,5.2249
34.8034,4.9213
34.6417,4.6640
34.6242,4.6360
34.6241,4.6360
34.6241,4.6360
34.4140,4.3725
34.1757,4.1342
33.9122,3.9241
33.9122,3.9241
33.9122,3.9240
33.6269,3.7448
33.6269,3.7448
33.3233,3.5985
33.0052,3.4872
33.0051,3.4872
32.6766,3.4122
32.3417,3.3745
32.3417,3.3745
32.3417,3.3745
32.0047,3.3745
32.0047,3.3745
32.0047,3.3745
31.6698,3.4122
31.3413,3.4872
31.3412,3.4872
31.0232,3.5985
30.7195,3.7448
30.4342,3.9241
30.1707,4.1342
23.1407,11.1642
22.9024,11.4025
22.6923,11.6660
22.6923,11.6660
22.5130,11.9513
22.3667,12.2550
22.2554,12.5730
22.2554,12.5730
22.2554,12.5730
22.2554,12.5730
22.1804,12.9016
22.1804,12.9016
22.1804,12.9016
22.1427,13.2365
22.1427,13.2365
22.1427,13.8455
22.1222,14.0466
22.0617,14.2395
21.9636,14.4162
21.8320,14.5696
21.6721,14.6933
21.4907,14.7823
21.2950,14.8330
21.1437,14.8445
18.7018,14.8445
18.6589,14.8476
18.4878,14.8598
18.4878,14.8598
18.4878,14.8598
18.2082,14.9206
18.2082,14.9206
17.9400,15.0206
17.9400,15.0206
17.6889,15.1578
17.6889,15.1578
17.4598,15.3293
17.2575,15.5316
17.0860,15.7607
17.0860,15.7607
16.9488,16.0118
16.9488,16.0118
16.8488,16.2800
16.8488,16.2800
16.7880,16.5596
16.7880,16.5596
16.7727,16.7736
16.7727,23.9164
16.7880,24.1304
16.7880,24.1304
16.7880,24.1304
16.8488,24.4100
16.8488,24.4100
16.9488,24.6782
16.9488,24.6782
16.9488,24.6782
17.0860,24.9293
17.2575,25.1584
17.2575,25.1584
17.2787,25.1829
17.3949,25.3483
17.4755,25.5336
17.5171,25.7315
17.5227,25.8371
17.5227,28.1335
17.5227,28.1335
17.5604,28.4684
17.5604,28.4684
17.5604,28.4684
17.6253,28.7525
17.6354,28.7970
17.6354,28.7970
17.7467,29.1150
17.7467,29.1151
17.8182,29.2635
17.8930,29.4187
18.0723,29.7040
18.1113,29.7530
18.2824,29.9675
18.2824,29.9675
19.7701,31.4553
19.8978,31.6119
19.9914,31.7911
20.0470,31.9854
20.0627,32.1616
20.0627,33.9284
20.0422,34.1294
19.9817,34.3223
19.8836,34.4990
19.7701,34.6348
18.2824,36.1225
18.2824,36.1225
18.0723,36.3860
18.0723,36.3860
17.8930,36.6713
17.7467,36.9750
17.6354,37.2930
17.6354,37.2931
17.5604,37.6216
17.5604,37.6216
17.5227,37.9565
17.5227,37.9565
17.5227,38.2935
17.5227,38.2935
17.5604,38.6284
17.5604,38.6284
17.6354,38.9569
17.6354,38.9570
17.7343,39.2397
17.7467,39.2751
17.8020,39.3898
17.8930,39.5787
18.0538,39.8347
18.0723,39.8640
18.2824,40.1275
18.5207,40.3658
18.7842,40.5759
19.0695,40.7552
19.3731,40.9015
19.6912,41.0128
20.0198,41.0878
20.3547,41.1255
20.3547,41.1255
20.6917,41.1255
20.6917,41.1255
21.0266,41.0878
21.3552,41.0128
21.6733,40.9015
21.9769,40.7552
22.2622,40.5759
22.5257,40.3658
23.6519,39.2397
23.8085,39.1119
23.9877,39.0183
24.1820,38.9627
24.3836,38.9474
24.5841,38.9729
24.7754,39.0383
24.9496,39.1408
25.0996,39.2763
25.2192,39.4393
25.3036,39.6229
25.3371,39.7607
25.3394,39.7602
25.4161,40.1457
25.4161,40.1457
25.4161,40.1457
25.5231,40.4983
25.5231,40.4983
25.6735,40.8614
25.6706,40.8626
25.7236,41.0125
25.7514,41.2127
25.7383,41.4144
25.6848,41.6094
25.5932,41.7895
25.4672,41.9476
25.3120,42.0771
25.2240,42.1301
25.1227,42.1842
24.8163,42.3889
24.8163,42.3889
24.5315,42.6227
24.2709,42.8833
24.0371,43.1681
24.0371,43.1681
23.8324,43.4745
23.6587,43.7995
23.6587,43.7995
23.5177,44.1400
23.5177,44.1400
23.4107,44.4926
23.4047,44.5164
23.4023,44.5158
23.3538,44.6736
23.2569,44.8510
23.1262,45.0052
22.9671,45.1299
22.7862,45.2201
22.5909,45.2720
22.4333,45.2845
20.3547,45.2845
20.3547,45.2845
20.3547,45.2845
20.0198,45.3222
20.0198,45.3222
20.0198,45.3222
20.0198,45.3222
19.6912,45.3972
19.6912,45.3972
19.6912,45.3972
19.6912,45.3972
19.3732,45.5085
19.0695,45.6548
19.0695,45.6548
19.0220,45.6846
18.8408,45.7743
18.6453,45.8257
18.4435,45.8366
18.2436,45.8068
18.0538,45.7372
17.8818,45.6309
17.7841,45.5452
15.7031,43.4642
15.6717,43.4392
15.6717,43.4392
15.4396,43.2541
15.1542,43.0748
14.9898,42.9956
14.8506,42.9285
14.8506,42.9285
14.8506,42.9285
14.5325,42.8172
14.5325,42.8172
14.2633,42.7558
14.0718,42.6911
13.9306,42.6125
13.7387,42.4842
13.7387,42.4842
13.4137,42.3105
13.4137,42.3105
13.0732,42.1695
12.8866,42.1129
12.7206,42.0625
12.7206,42.0625
12.7206,42.0625
12.3592,41.9906
12.1925,41.9742
11.9924,41.9545
8.5577,41.9545
8.3566,41.9340
8.1637,41.8735
7.9870,41.7754
7.8336,41.6438
7.7099,41.4839
7.6209,41.3025
7.5702,41.1068
7.5587,40.9555
7.5587,32.8866
7.5791,32.6855
7.6397,32.4927
7.7378,32.3160
7.8513,32.1803
8.7940,31.2375
9.0041,30.9740
9.1834,30.6887
9.3297,30.3851
9.4410,30.0670
9.5160,29.7384
9.5537,29.4035
9.5537,29.0665
9.5160,28.7316
9.4410,28.4030
9.3297,28.0849
9.1834,27.7813
9.0041,27.4960
8.7940,27.2325
8.5557,26.9942
8.2922,26.7841
8.2922,26.7841
8.0069,26.6048
7.8425,26.5256
7.7033,26.4585
7.7032,26.4585
7.7032,26.4585
7.3852,26.3472
7.3851,26.3472
7.0566,26.2722
6.7217,26.2345
6.7217,26.2345
6.7217,26.2345
6.3847,26.2345
6.3847,26.2345
6.3847,26.2345
6.0498,26.2722
6.0498,26.2722
5.7213,26.3472
5.7212,26.3472
5.4032,26.4585
5.0995,26.6048
4.8142,26.7841
4.8142,26.7841
4.5507,26.9942
4.5507,26.9942
2.5557,28.9892
2.5557,28.9892
2.4091,29.1358
2.2524,29.2635
2.0733,29.3571
1.8789,29.4127
1.6774,29.4280
1.4769,29.4025
1.2856,29.3371
1.1114,29.2346
0.9614,29.0991
0.8418,28.9361
0.7574,28.7525
0.7117,28.5556
0.7037,28.4294
0.7037,6.3750
3.0479,6.3750
3.0671,6.7414
3.0671,6.7414
3.1245,7.1038
3.1521,7.2069
3.2195,7.4582
3.3509,7.8007
3.5175,8.1276
3.5175,8.1277
3.7173,8.4354
3.7173,8.4354
3.9482,8.7205
3.9482,8.7205
3.9483,8.7205
4.2077,8.9799
4.2077,8.9800
4.2077,8.9800
4.4928,9.2108
4.4928,9.2109
4.8005,9.4107
4.8006,9.4107
5.1275,9.5773
5.1275,9.5773
5.4700,9.7087
5.8244,9.8037
6.1868,9.8611
6.5532,9.8803
6.9196,9.8611
7.2820,9.8037
7.6364,9.7087
7.9789,9.5773
8.3059,9.4107
8.6136,9.2109
8.8987,8.9799
9.1581,8.7205
9.3891,8.4354
9.5889,8.1277
9.7555,7.8007
9.8869,7.4582
9.9819,7.1038
10.0393,6.7414
10.0585,6.3750
10.0393,6.0086
9.9819,5.6462
9.8869,5.2918
9.7555,4.9493
9.7333,4.9058
9.5889,4.6224
9.5889,4.6223
9.3891,4.3146
9.3890,4.3146
9.1582,4.0295
9.1582,4.0295
9.1581,4.0295
8.8987,3.7701
8.8987,3.7700
8.8987,3.7700
8.6136,3.5391
8.6136,3.5391
8.3059,3.3393
8.3058,3.3393
7.9789,3.1727
7.6364,3.0413
7.6364,3.0413
7.6364,3.0413
7.2820,2.9463
6.9196,2.8889
6.9196,2.8889
6.5532,2.8697
6.1868,2.8889
6.0839,2.9052
5.8244,2.9463
5.4700,3.0413
5.4700,3.0413
5.1275,3.1727
4.8006,3.3393
4.8005,3.3393
4.4928,3.5391
4.4928,3.5391
4.2077,3.7700
3.9482,4.0295
3.7173,4.3146
3.7173,4.3146
3.5175,4.6223
3.5175,4.6224
3.3509,4.9493
3.2195,5.2918
3.2195,5.2918
3.2195,5.2918
3.1245,5.6462
3.1075,5.7534
3.0671,6.0086
3.0479,6.3750
0.7037,6.3750
0.7037,1.5245
0.7241,1.3234
0.7847,1.1305
0.8828,0.9538
1.0144,0.8004
1.1743,0.6767
1.3557,0.5877
1.5514,0.5370
1.7027,0.5255
73.6337,0.5255
Z" /> 
</g>
<g style="fill:#FFFFFF; fill-opacity:1.0000; stroke:none;">
<circle cx="46.7978" cy="51.5767" r="0.8450" /> 
</g>
<g style="fill:#FFFFFF; fill-opacity:1.0000; stroke:none;">
<circle cx="48.8032" cy="45.4050" r="0.8450" /> 
</g>
<g style="fill:#FFFFFF; fill-opacity:1.0000; stroke:none;">
<circle cx="46.7978" cy="39.2333" r="0.8450" /> 
</g>
<g style="fill:#FFFFFF; fill-opacity:1.0000; stroke:none;">
<circle cx="41.5478" cy="35.4190" r="0.8450" /> 
</g>
<g style="fill:#FFFFFF; fill-opacity:1.0000; stroke:none;">
<circle cx="35.0586" cy="35.4190" r="0.8450" /> 
</g>
<g style="fill:#FFFFFF; fill-opacity:1.0000; stroke:none;">
<circle cx="29.8086" cy="39.2333" r="0.8450" /> 
</g>
<g style="fill:#FFFFFF; fill-opacity:1.0000; stroke:none;">
<circle cx="27.8032" cy="45.4050" r="0.8450" /> 
</g>
<g style="fill:#FFFFFF; fill-opacity:1.0000; stroke:none;">
<circle cx="29.8086" cy="51.5767" r="0.8450" /> 
</g>
<g style="fill:#FFFFFF; fill-opacity:1.0000; stroke:none;">
<circle cx="35.0586" cy="55.3910" r="0.8450" /> 
</g>
<g style="fill:#FFFFFF; fill-opacity:1.0000; stroke:none;">
<circle cx="34.7032" cy="70.8080" r="0.6500" /> 
</g>
<g style="fill:#FFFFFF; fill-opacity:1.0000; stroke:none;">
<circle cx="39.7032" cy="70.8080" r="0.6500" /> 
</g>
<g style="fill:#FFFFFF; fill-opacity:1.0000; stroke:none;">
<circle cx="10.0582" cy="54.3780" r="0.6500" /> 
</g>
<g style="fill:#FFFFFF; fill-opacity:1.0000; stroke:none;">
<circle cx="10.0582" cy="59.3780" r="0.6500" /> 
</g>
<g style="fill:#FFFFFF; fill-opacity:1.0000; stroke:none;">
<circle cx="14.3332" cy="70.8080" r="0.6500" /> 
</g>
<g style="fill:#FFFFFF; fill-opacity:1.0000; stroke:none;">
<circle cx="19.3332" cy="70.8080" r="0.6500" /> 
</g>
<g style="fill:#FFFFFF; fill-opacity:1.0000; stroke:none;">
<circle cx="24.3332" cy="70.8080" r="0.6500" /> 
</g>
<g style="fill:#FFFFFF; fill-opacity:1.0000; stroke:none;">
<circle cx="64.9732" cy="50.4186" r="0.6500" /> 
</g>
<g style="fill:#FFFFFF; fill-opacity:1.0000; stroke:none;">
<circle cx="64.9732" cy="45.4186" r="0.6500" /> 
</g>
<g style="fill:#FFFFFF; fill-opacity:1.0000; stroke:none;">
<circle cx="58.5432" cy="71.1450" r="0.6500" /> 
</g>
<g style="fill:#FFFFFF; fill-opacity:1.0000; stroke:none;">
<circle cx="53.5432" cy="71.1450" r="0.6500" /> 
</g>
<g style="fill:#FFFFFF; fill-opacity:1.0000; stroke:none;">
<circle cx="40.7632" cy="20.3450" r="0.6500" /> 
</g>
<g style="fill:#FFFFFF; fill-opacity:1.0000; stroke:none;">
<circle cx="35.7632" cy="20.3450" r="0.6500" /> 
</g>
<g style="fill:#FFFFFF; fill-opacity:1.0000; stroke:none;">
<circle cx="64.9732" cy="35.5850" r="0.6500" /> 
</g>
<g style="fill:#FFFFFF; fill-opacity:1.0000; stroke:none;">
<circle cx="64.9732" cy="30.5850" r="0.6500" /> 
</g>
<g style="fill:#FFFFFF; fill-opacity:1.0000; stroke:none;">
<circle cx="10.0582" cy="40.7050" r="0.6500" /> 
</g>
<g style="fill:#FFFFFF; fill-opacity:1.0000; stroke:none;">
<circle cx="10.0582" cy="45.7050" r="0.6500" /> 
</g>
<g style="fill:#FFFFFF; fill-opacity:1.0000; stroke:none;">
<circle cx="59.0532" cy="20.4856" r="0.6500" /> 
</g>
<g style="fill:#FFFFFF; fill-opacity:1.0000; stroke:none;">
<circle cx="54.0532" cy="20.4856" r="0.6500" /> 
</g>
<g style="fill:#FFFFFF; fill-opacity:1.0000; stroke:none;">
<circle cx="49.0532" cy="20.4856" r="0.6500" /> 
</g>
<g style="fill:#FFFFFF; fill-opacity:1.0000; stroke:none;">
<circle cx="20.5232" cy="20.3450" r="0.6500" /> 
</g>
<g style="fill:#FFFFFF; fill-opacity:1.0000; stroke:none;">
<circle cx="15.5232" cy="20.3450" r="0.6500" /> 
</g>
<g style="fill:#FFFFFF; fill-opacity:1.0000; stroke:none;">
<circle cx="40.6232" cy="84.7780" r="0.4000" /> 
</g>
<g style="fill:#FFFFFF; fill-opacity:1.0000; stroke:none;">
<circle cx="13.1232" cy="84.7780" r="0.4000" /> 
</g>
<g style="fill:#FFFFFF; fill-opacity:1.0000; stroke:none;">
<circle cx="61.1632" cy="59.7150" r="0.4000" /> 
</g>
<g style="fill:#FFFFFF; fill-opacity:1.0000; stroke:none;">
<circle cx="51.0032" cy="59.7150" r="0.4000" /> 
</g>
<g style="fill:#FFFFFF; fill-opacity:1.0000; stroke:none;">
<circle cx="47.1932" cy="61.9180" r="0.4000" /> 
</g>
<g style="fill:#FFFFFF; fill-opacity:1.0000; stroke:none;">
<circle cx="47.1932" cy="74.6180" r="0.4000" /> 
</g>
<g style="fill:#FFFFFF; fill-opacity:1.0000; stroke:none;">
<circle cx="59.6732" cy="6.3750" r="0.4000" /> 
</g>
<g style="fill:#FFFFFF; fill-opacity:1.0000; stroke:none;">
<circle cx="32.1732" cy="6.3750" r="0.4000" /> 
</g>
<g style="fill:#FFFFFF; fill-opacity:1.0000; stroke:none;">
<circle cx="20.5232" cy="38.1250" r="0.4000" /> 
</g>
<g style="fill:#FFFFFF; fill-opacity:1.0000; stroke:none;">
<circle cx="20.5232" cy="48.2850" r="0.4000" /> 
</g>
<g style="fill:#FFFFFF; fill-opacity:1.0000; stroke:none;">
<circle cx="28.1432" cy="16.5350" r="0.4000" /> 
</g>
<g style="fill:#FFFFFF; fill-opacity:1.0000; stroke:none;">
<circle cx="28.1432" cy="29.2350" r="0.4000" /> 
</g>
<g style="fill:#FFFFFF; fill-opacity:1.0000; stroke:none;">
<circle cx="6.5532" cy="29.2350" r="0.4000" /> 
</g>
<g style="fill:#FFFFFF; fill-opacity:1.0000; stroke:none;">
<circle cx="6.5532" cy="16.5350" r="0.4000" /> 
</g>
<g style="fill:#FFFFFF; fill-opacity:1.0000; stroke:none;">
<circle cx="66.2432" cy="74.9550" r="0.4000" /> 
</g>
<g style="fill:#FFFFFF; fill-opacity:1.0000; stroke:none;">
<circle cx="66.2432" cy="62.2550" r="0.4000" /> 
</g>
<g style="fill:#FFFFFF; fill-opacity:1.0000; stroke:none;">
<circle cx="12.9032" cy="30.5050" r="0.4000" /> 
</g>
<g style="fill:#FFFFFF; fill-opacity:1.0000; stroke:none;">
<circle cx="23.0632" cy="30.5050" r="0.4000" /> 
</g>
<g style="fill:#FFFFFF; fill-opacity:1.0000; stroke:none;">
<circle cx="55.6108" cy="53.3650" r="0.4000" /> 
</g>
<g style="fill:#FFFFFF; fill-opacity:1.0000; stroke:none;">
<circle cx="55.6108" cy="43.2050" r="0.4000" /> 
</g>
<g style="fill:none; 
stroke:#000000; stroke-width:0.0500; stroke-opacity:1; 
stroke-linecap:round; stroke-linejoin:round;">
<circle cx="6.5532" cy="6.3750" r="3.0000" /> 
<circle cx="6.5532" cy="85.1150" r="3.0000" /> 
<circle cx="68.7832" cy="85.1150" r="3.0000" /> 
<circle cx="68.7832" cy="6.3750" r="3.0000" /> 
<path d="M0.2032 0.0250
L75.1332 0.0250
" />
<path d="M75.1332 90.1950
L0.2032 90.1950
" />
<path d="M75.1332 0.0250
L75.1332 90.1950
" />
<path d="M0.2032 90.1950
L0.2032 0.0250
" />
</g> 
</svg>
