<?xml version="1.0" standalone="no"?>
 <!DOCTYPE svg PUBLIC "-//W3C//DTD SVG 1.1//EN" 
 "http://www.w3.org/Graphics/SVG/1.1/DTD/svg11.dtd"> 
<svg
  xmlns:svg="http://www.w3.org/2000/svg"
  xmlns="http://www.w3.org/2000/svg"
  xmlns:xlink="http://www.w3.org/1999/xlink"
  version="1.1"
  width="75.3364mm" height="90.2208mm" viewBox="0.0000 0.0000 75.3364 90.2208">
<title>SVG Image created as multi-channel-preamp-B_Cu.svg date 2024/06/12 20:48:08 </title>
  <desc>Image generated by PCBNEW </desc>
<g style="fill:#000000; fill-opacity:1.0000;stroke:#000000; stroke-opacity:1.0000;
stroke-linecap:round; stroke-linejoin:round;"
 transform="translate(0 0) scale(1 1)">
<path style="fill:#000000; fill-opacity:1.0000; stroke:none;fill-rule:evenodd;"
d="M 44.2978,49.0767
49.2978,49.0767
49.2978,54.0767
44.2978,54.0767
Z" /> 
</g>
<g style="fill:none; 
stroke:#000000; stroke-width:3.5000; stroke-opacity:1; 
stroke-linecap:round; stroke-linejoin:round;">
<path d="M49.5532 45.4050
L48.0532 45.4050
" />
<path d="M47.5478 39.2333
L46.0478 39.2333
" />
<path d="M41.5478 34.6690
L41.5478 36.1690
" />
<path d="M35.0586 34.6690
L35.0586 36.1690
" />
<path d="M30.5586 39.2333
L29.0586 39.2333
" />
<path d="M28.5532 45.4050
L27.0532 45.4050
" />
<path d="M30.5586 51.5767
L29.0586 51.5767
" />
<path d="M35.0586 54.6410
L35.0586 56.1410
" />
<path style="fill:#000000; fill-opacity:1.0000; stroke:none;fill-rule:evenodd;"
d="M 32.9532,74.3080
32.9532,67.3080
36.4532,67.3080
36.4532,74.3080
Z" /> 
</g>
<g style="fill:none; 
stroke:#000000; stroke-width:3.5000; stroke-opacity:1; 
stroke-linecap:round; stroke-linejoin:round;">
<path d="M39.7032 69.0580
L39.7032 72.5580
" />
<path style="fill:#000000; fill-opacity:1.0000; stroke:none;fill-rule:evenodd;"
d="M 6.5582,52.6280
13.5582,52.6280
13.5582,56.1280
6.5582,56.1280
Z" /> 
</g>
<g style="fill:none; 
stroke:#000000; stroke-width:3.5000; stroke-opacity:1; 
stroke-linecap:round; stroke-linejoin:round;">
<path d="M11.8082 59.3780
L8.3082 59.3780
" />
<path style="fill:#000000; fill-opacity:1.0000; stroke:none;fill-rule:evenodd;"
d="M 12.5832,74.3080
12.5832,67.3080
16.0832,67.3080
16.0832,74.3080
Z" /> 
</g>
<g style="fill:none; 
stroke:#000000; stroke-width:3.5000; stroke-opacity:1; 
stroke-linecap:round; stroke-linejoin:round;">
<path d="M19.3332 69.0580
L19.3332 72.5580
" />
<path d="M24.3332 69.0580
L24.3332 72.5580
" />
<path style="fill:#000000; fill-opacity:1.0000; stroke:none;fill-rule:evenodd;"
d="M 68.4732,52.1686
61.4732,52.1686
61.4732,48.6686
68.4732,48.6686
Z" /> 
</g>
<g style="fill:none; 
stroke:#000000; stroke-width:3.5000; stroke-opacity:1; 
stroke-linecap:round; stroke-linejoin:round;">
<path d="M63.2232 45.4186
L66.7232 45.4186
" />
<path d="M58.5432 69.3950
L58.5432 72.8950
" />
<path style="fill:#000000; fill-opacity:1.0000; stroke:none;fill-rule:evenodd;"
d="M 51.7932,74.6450
51.7932,67.6450
55.2932,67.6450
55.2932,74.6450
Z" /> 
<path style="fill:#000000; fill-opacity:1.0000; stroke:none;fill-rule:evenodd;"
d="M 42.5132,16.8450
42.5132,23.8450
39.0132,23.8450
39.0132,16.8450
Z" /> 
</g>
<g style="fill:none; 
stroke:#000000; stroke-width:3.5000; stroke-opacity:1; 
stroke-linecap:round; stroke-linejoin:round;">
<path d="M35.7632 22.0950
L35.7632 18.5950
" />
<path style="fill:#000000; fill-opacity:1.0000; stroke:none;fill-rule:evenodd;"
d="M 68.4732,37.3350
61.4732,37.3350
61.4732,33.8350
68.4732,33.8350
Z" /> 
</g>
<g style="fill:none; 
stroke:#000000; stroke-width:3.5000; stroke-opacity:1; 
stroke-linecap:round; stroke-linejoin:round;">
<path d="M63.2232 30.5850
L66.7232 30.5850
" />
<path style="fill:#000000; fill-opacity:1.0000; stroke:none;fill-rule:evenodd;"
d="M 6.5582,38.9550
13.5582,38.9550
13.5582,42.4550
6.5582,42.4550
Z" /> 
</g>
<g style="fill:none; 
stroke:#000000; stroke-width:3.5000; stroke-opacity:1; 
stroke-linecap:round; stroke-linejoin:round;">
<path d="M11.8082 45.7050
L8.3082 45.7050
" />
<path style="fill:#000000; fill-opacity:1.0000; stroke:none;fill-rule:evenodd;"
d="M 60.8032,16.9856
60.8032,23.9856
57.3032,23.9856
57.3032,16.9856
Z" /> 
</g>
<g style="fill:none; 
stroke:#000000; stroke-width:3.5000; stroke-opacity:1; 
stroke-linecap:round; stroke-linejoin:round;">
<path d="M54.0532 22.2356
L54.0532 18.7356
" />
<path d="M49.0532 22.2356
L49.0532 18.7356
" />
<path style="fill:#000000; fill-opacity:1.0000; stroke:none;fill-rule:evenodd;"
d="M 22.2732,16.8450
22.2732,23.8450
18.7732,23.8450
18.7732,16.8450
Z" /> 
</g>
<g style="fill:none; 
stroke:#000000; stroke-width:3.5000; stroke-opacity:1; 
stroke-linecap:round; stroke-linejoin:round;">
<path d="M15.5232 22.0950
L15.5232 18.5950
" />
</g>
<g style="fill:#000000; fill-opacity:1.0000; stroke:none;">
<circle cx="40.6232" cy="84.7780" r="0.8000" /> 
</g>
<g style="fill:#000000; fill-opacity:1.0000; stroke:none;">
<circle cx="13.1232" cy="84.7780" r="0.8000" /> 
<circle cx="61.1632" cy="59.7150" r="0.8000" /> 
</g>
<g style="fill:#000000; fill-opacity:1.0000; stroke:none;">
<circle cx="51.0032" cy="59.7150" r="0.8000" /> 
<circle cx="47.1932" cy="61.9180" r="0.8000" /> 
<circle cx="47.1932" cy="74.6180" r="0.8000" /> 
</g>
<g style="fill:#000000; fill-opacity:1.0000; stroke:none;">
<circle cx="59.6732" cy="6.3750" r="0.8000" /> 
<circle cx="32.1732" cy="6.3750" r="0.8000" /> 
</g>
<g style="fill:#000000; fill-opacity:1.0000; stroke:none;">
<circle cx="20.5232" cy="38.1250" r="0.8000" /> 
</g>
<g style="fill:#000000; fill-opacity:1.0000; stroke:none;">
<circle cx="20.5232" cy="48.2850" r="0.8000" /> 
<circle cx="28.1432" cy="16.5350" r="0.8000" /> 
</g>
<g style="fill:#000000; fill-opacity:1.0000; stroke:none;">
<circle cx="28.1432" cy="29.2350" r="0.8000" /> 
<circle cx="6.5532" cy="29.2350" r="0.8000" /> 
</g>
<g style="fill:#000000; fill-opacity:1.0000; stroke:none;">
<circle cx="6.5532" cy="16.5350" r="0.8000" /> 
<circle cx="66.2432" cy="74.9550" r="0.8000" /> 
<circle cx="66.2432" cy="62.2550" r="0.8000" /> 
</g>
<g style="fill:#000000; fill-opacity:1.0000; stroke:none;">
<circle cx="12.9032" cy="30.5050" r="0.8000" /> 
</g>
<g style="fill:#000000; fill-opacity:1.0000; stroke:none;">
<circle cx="23.0632" cy="30.5050" r="0.8000" /> 
<circle cx="55.6108" cy="53.3650" r="0.8000" /> 
</g>
<g style="fill:#000000; fill-opacity:1.0000; stroke:none;">
<circle cx="55.6108" cy="43.2050" r="0.8000" /> 
</g>
<g style="fill:none; 
stroke:#000000; stroke-width:2.0000; stroke-opacity:1; 
stroke-linecap:round; stroke-linejoin:round;">
<path d="M47.1932 74.6180
L44.3932 71.8180
" />
<path d="M44.3932 71.8180
L44.3932 57.7667
" />
<path d="M35.7632 24.5950
L35.7632 20.3450
" />
<path d="M44.3932 57.7667
L46.0832 56.0767
" />
<path d="M58.4108 42.0452
L43.0606 26.6950
" />
<path d="M46.0832 56.0767
L51.2978 56.0767
" />
<path d="M43.0606 26.6950
L37.8632 26.6950
" />
<path d="M51.2978 56.0767
L51.2978 51.4778
" />
<path d="M37.8632 26.6950
L35.7632 24.5950
" />
<path d="M51.2978 51.4778
L58.4108 44.3648
" />
<path d="M58.4108 44.3648
L58.4108 42.0452
" />
<path d="M41.5478 35.4190
L35.0586 35.4190
" />
<path d="M39.7032 70.8080
L39.7032 37.2636
" />
<path d="M39.7032 37.2636
L41.5478 35.4190
" />
<path d="M34.7032 70.8080
L34.7032 55.7464
" />
<path d="M34.7032 55.7464
L35.0586 55.3910
" />
<path style="fill:#000000; fill-opacity:1.0000; stroke:none;fill-rule:evenodd;"
d="M 73.8348,0.5459
74.0277,0.6065
74.2044,0.7046
74.3578,0.8362
74.4815,0.9961
74.5705,1.1775
74.6212,1.3732
74.6327,1.5245
74.6327,88.6955
74.6123,88.8966
74.5517,89.0895
74.4536,89.2662
74.3220,89.4196
74.1621,89.5433
73.9807,89.6323
73.7850,89.6830
73.6337,89.6945
71.5114,89.6945
71.3103,89.6740
71.1175,89.6135
70.9407,89.5154
70.7874,89.3838
70.6636,89.2239
70.5746,89.0425
70.5239,88.8468
70.5137,88.6449
70.5443,88.4451
70.6145,88.2555
70.7214,88.0840
70.8607,87.9375
70.8827,87.9191
70.9705,87.8480
71.1287,87.7199
71.3881,87.4605
71.6191,87.1754
71.8189,86.8677
71.9855,86.5407
72.1169,86.1982
72.2119,85.8438
72.2693,85.4814
72.2885,85.1150
72.2693,84.7486
72.2119,84.3862
72.1169,84.0318
71.9855,83.6893
71.8987,83.5190
71.8189,83.3624
71.8189,83.3623
71.6191,83.0546
71.6191,83.0546
71.5785,83.0045
71.3881,82.7695
71.1287,82.5101
71.1287,82.5100
71.1287,82.5100
70.8436,82.2791
70.8436,82.2791
70.5359,82.0793
70.5358,82.0793
70.2089,81.9127
69.8664,81.7813
69.8664,81.7813
69.8664,81.7813
69.5120,81.6863
69.1496,81.6289
69.1496,81.6289
68.7832,81.6097
68.4168,81.6289
68.3139,81.6452
68.0544,81.6863
67.7000,81.7813
67.7000,81.7813
67.3575,81.9127
67.0306,82.0793
67.0305,82.0793
66.7228,82.2791
66.7228,82.2791
66.4377,82.5100
66.1782,82.7695
65.9473,83.0546
65.9473,83.0546
65.7475,83.3623
65.7475,83.3624
65.5809,83.6893
65.4495,84.0318
65.4495,84.0318
65.4495,84.0318
65.3545,84.3862
65.3440,84.4523
65.2971,84.7486
65.2779,85.1150
65.2971,85.4814
65.2971,85.4814
65.3545,85.8438
65.3545,85.8438
65.4495,86.1982
65.5809,86.5407
65.7475,86.8676
65.7475,86.8677
65.9473,87.1754
65.9473,87.1754
66.1782,87.4605
66.1782,87.4605
66.1783,87.4605
66.4377,87.7199
66.4377,87.7200
66.4377,87.7200
66.6837,87.9191
66.8271,88.0616
66.9389,88.2300
67.0145,88.4174
67.0508,88.6163
67.0464,88.8184
67.0014,89.0154
66.9176,89.1994
66.7985,89.3627
66.6490,89.4987
66.4751,89.6018
66.2841,89.6679
66.0837,89.6941
66.0550,89.6945
9.2814,89.6945
9.0803,89.6740
8.8875,89.6135
8.7107,89.5154
8.5574,89.3838
8.4336,89.2239
8.3446,89.0425
8.2939,88.8468
8.2837,88.6449
8.3143,88.4451
8.3845,88.2555
8.4914,88.0840
8.6307,87.9375
8.6527,87.9191
8.7405,87.8480
8.8987,87.7199
9.1581,87.4605
9.3891,87.1754
9.5716,86.8942
9.6983,86.7367
9.8541,86.6079
10.0326,86.5131
10.2266,86.4562
10.4280,86.4395
10.6287,86.4637
10.8204,86.5277
10.9953,86.6291
11.1361,86.7527
11.1981,86.8185
11.1981,86.8185
11.3502,86.9460
11.4480,87.0282
11.7206,87.2074
12.0121,87.3538
12.3186,87.4654
12.6361,87.5406
12.9222,87.5741
12.9601,87.5785
12.9601,87.5785
13.2863,87.5785
13.3202,87.5745
13.6103,87.5406
13.9278,87.4654
14.2343,87.3538
14.5258,87.2074
14.7984,87.0282
15.0483,86.8185
15.2721,86.5812
15.4669,86.3195
15.6301,86.0370
15.7593,85.7375
15.8528,85.4249
15.9095,85.1037
15.9284,84.7780
37.8180,84.7780
37.8369,85.1037
37.8369,85.1037
37.8936,85.4249
37.9869,85.7366
37.9871,85.7375
38.1163,86.0370
38.1163,86.0370
38.1163,86.0370
38.2794,86.3195
38.2795,86.3195
38.3688,86.4395
38.4743,86.5812
38.4743,86.5812
38.4743,86.5812
38.6981,86.8185
38.6981,86.8185
38.8502,86.9460
38.9480,87.0282
39.2206,87.2074
39.5121,87.3538
39.8186,87.4654
40.1361,87.5406
40.4222,87.5741
40.4601,87.5785
40.4601,87.5785
40.7863,87.5785
40.8202,87.5745
41.1103,87.5406
41.4278,87.4654
41.7343,87.3538
42.0258,87.2074
42.2984,87.0282
42.5483,86.8185
42.7721,86.5812
42.9669,86.3195
43.1301,86.0370
43.2593,85.7375
43.3528,85.4249
43.4095,85.1037
43.4284,84.7780
43.4095,84.4523
43.3528,84.1311
43.2593,83.8185
43.1301,83.5190
42.9669,83.2365
42.9317,83.1891
42.8316,83.0546
42.7721,82.9748
42.6576,82.8534
42.5483,82.7375
42.5483,82.7375
42.3718,82.5894
42.2984,82.5278
42.0258,82.3486
42.0258,82.3486
41.7343,82.2022
41.7343,82.2022
41.4278,82.0906
41.1103,82.0154
40.7863,81.9775
40.7863,81.9775
40.4601,81.9775
40.4601,81.9775
40.1361,82.0154
39.8186,82.0906
39.5121,82.2022
39.5121,82.2022
39.2206,82.3486
38.9480,82.5278
38.9480,82.5279
38.6981,82.7375
38.6981,82.7375
38.4743,82.9748
38.4743,82.9748
38.2795,83.2365
38.2794,83.2365
38.1163,83.5190
38.1163,83.5190
38.1163,83.5190
38.0429,83.6893
37.9871,83.8186
37.8936,84.1311
37.8369,84.4523
37.8369,84.4523
37.8180,84.7780
15.9284,84.7780
15.9095,84.4523
15.8528,84.1311
15.7593,83.8185
15.6301,83.5190
15.4669,83.2365
15.4317,83.1891
15.3316,83.0546
15.2721,82.9748
15.1576,82.8534
15.0483,82.7375
15.0483,82.7375
14.8718,82.5894
14.7984,82.5278
14.5258,82.3486
14.5258,82.3486
14.2343,82.2022
14.2343,82.2022
13.9278,82.0906
13.6103,82.0154
13.2863,81.9775
13.2863,81.9775
12.9601,81.9775
12.9601,81.9775
12.6361,82.0154
12.3186,82.0906
12.0121,82.2022
12.0121,82.2022
11.7206,82.3486
11.4480,82.5278
11.4480,82.5279
11.1981,82.7375
11.1981,82.7375
10.9743,82.9748
10.9742,82.9748
10.9522,83.0045
10.8157,83.1536
10.6519,83.2722
10.4677,83.3554
10.2705,83.3997
10.0684,83.4035
9.8697,83.3666
9.6825,83.2903
9.5144,83.1780
9.3745,83.0366
9.1582,82.7695
9.1582,82.7695
9.1581,82.7695
8.8987,82.5101
8.8987,82.5100
8.8987,82.5100
8.6136,82.2791
8.6136,82.2791
8.3059,82.0793
8.3058,82.0793
7.9789,81.9127
7.6364,81.7813
7.6364,81.7813
7.6364,81.7813
7.2820,81.6863
6.9196,81.6289
6.9196,81.6289
6.5532,81.6097
6.1868,81.6289
6.0839,81.6452
5.8244,81.6863
5.4700,81.7813
5.4700,81.7813
5.1275,81.9127
4.8006,82.0793
4.8005,82.0793
4.4928,82.2791
4.4928,82.2791
4.2077,82.5100
3.9482,82.7695
3.7173,83.0546
3.7173,83.0546
3.5175,83.3623
3.5175,83.3624
3.3509,83.6893
3.2195,84.0318
3.2195,84.0318
3.2195,84.0318
3.1245,84.3862
3.1140,84.4523
3.0671,84.7486
3.0479,85.1150
3.0671,85.4814
3.0671,85.4814
3.1245,85.8438
3.1245,85.8438
3.2195,86.1982
3.3509,86.5407
3.5175,86.8676
3.5175,86.8677
3.7173,87.1754
3.7173,87.1754
3.9482,87.4605
3.9482,87.4605
3.9483,87.4605
4.2077,87.7199
4.2077,87.7200
4.2077,87.7200
4.4537,87.9191
4.5971,88.0616
4.7089,88.2300
4.7845,88.4174
4.8208,88.6163
4.8164,88.8184
4.7714,89.0154
4.6876,89.1994
4.5685,89.3627
4.4190,89.4987
4.2451,89.6018
4.0541,89.6679
3.8537,89.6941
3.8250,89.6945
1.7027,89.6945
1.5016,89.6740
1.3087,89.6135
1.1320,89.5154
0.9786,89.3838
0.8549,89.2239
0.7659,89.0425
0.7152,88.8468
0.7037,88.6955
0.7037,68.8738
15.5827,68.8738
15.5827,72.7422
15.5962,72.8790
15.6188,73.1090
15.6907,73.4704
15.6907,73.4704
15.6907,73.4704
15.6907,73.4704
15.7977,73.8230
15.7977,73.8230
15.9387,74.1635
15.9387,74.1635
16.1124,74.4885
16.1825,74.5934
16.3171,74.7949
16.3171,74.7949
16.5509,75.0797
16.8115,75.3403
16.8749,75.3923
17.0963,75.5741
17.4027,75.7788
17.4027,75.7788
17.4027,75.7788
17.7277,75.9525
17.7277,75.9525
17.7277,75.9525
18.0682,76.0935
18.4208,76.2005
18.4208,76.2005
18.4208,76.2005
18.7822,76.2724
18.7822,76.2724
18.7822,76.2724
19.1489,76.3085
19.1490,76.3085
19.5174,76.3085
19.5175,76.3085
19.8842,76.2724
20.2456,76.2005
20.5982,76.0935
20.9387,75.9525
20.9387,75.9525
20.9387,75.9525
21.1796,75.8237
21.2637,75.7788
21.2782,75.7691
21.4567,75.6744
21.6507,75.6175
21.8522,75.6009
22.0528,75.6252
22.2445,75.6893
22.3882,75.7691
22.4027,75.7788
22.4027,75.7788
22.7277,75.9525
22.7277,75.9525
22.7277,75.9525
23.0682,76.0935
23.4208,76.2005
23.4208,76.2005
23.4208,76.2005
23.7822,76.2724
23.7822,76.2724
23.7822,76.2724
24.1489,76.3085
24.1490,76.3085
24.5174,76.3085
24.5175,76.3085
24.8842,76.2724
25.2456,76.2005
25.5982,76.0935
25.9387,75.9525
25.9387,75.9525
25.9387,75.9525
26.2637,75.7788
26.2637,75.7788
26.2637,75.7788
26.5701,75.5741
26.8549,75.3403
27.1155,75.0797
27.3493,74.7949
27.5540,74.4885
27.7277,74.1635
27.8687,73.8230
27.9757,73.4704
28.0476,73.1090
28.0837,72.7422
28.0837,68.8738
28.0476,68.5070
27.9757,68.1456
27.8687,67.7930
27.7277,67.4525
27.7277,67.4525
27.7277,67.4525
27.5540,67.1275
27.4839,67.0226
27.3493,66.8211
27.2212,66.6651
27.1155,66.5363
26.8549,66.2757
26.5701,66.0419
26.5701,66.0419
26.2637,65.8372
26.2637,65.8372
26.2637,65.8372
26.2637,65.8372
25.9387,65.6635
25.9387,65.6635
25.5982,65.5225
25.4116,65.4659
25.2456,65.4155
25.2456,65.4155
25.2456,65.4155
24.8842,65.3436
24.7175,65.3272
24.5175,65.3075
24.1489,65.3075
23.9848,65.3237
23.7822,65.3436
23.4208,65.4155
23.4208,65.4155
23.4208,65.4155
23.4208,65.4155
23.4208,65.4155
23.0682,65.5225
23.0682,65.5225
22.7277,65.6635
22.7277,65.6635
22.4027,65.8372
22.4027,65.8372
22.3882,65.8469
22.2096,65.9416
22.0157,65.9985
21.8142,66.0151
21.6135,65.9908
21.4219,65.9267
21.2782,65.8469
21.2637,65.8372
21.2637,65.8372
20.9387,65.6635
20.9387,65.6635
20.5982,65.5225
20.4116,65.4659
20.2456,65.4155
20.2456,65.4155
20.2456,65.4155
19.8842,65.3436
19.7175,65.3272
19.5175,65.3075
19.1489,65.3075
18.9848,65.3237
18.7822,65.3436
18.4208,65.4155
18.4208,65.4155
18.4208,65.4155
18.4208,65.4155
18.4208,65.4155
18.0682,65.5225
18.0682,65.5225
17.7277,65.6635
17.7277,65.6635
17.4027,65.8372
17.0963,66.0419
17.0963,66.0419
16.8115,66.2757
16.5509,66.5363
16.3171,66.8211
16.3171,66.8211
16.1124,67.1275
15.9387,67.4525
15.9387,67.4525
15.7977,67.7930
15.7977,67.7930
15.6907,68.1456
15.6907,68.1456
15.6188,68.5070
15.6008,68.6904
15.5827,68.8738
0.7037,68.8738
0.7037,59.1937
4.5577,59.1937
4.5577,59.5622
4.5788,59.7762
4.5938,59.9290
4.6657,60.2904
4.6657,60.2904
4.6657,60.2904
4.7147,60.4518
4.7727,60.6430
4.7727,60.6430
4.9137,60.9835
4.9137,60.9835
5.0874,61.3085
5.2233,61.5118
5.2921,61.6149
5.2921,61.6149
5.5259,61.8997
5.7865,62.1603
5.9153,62.2660
6.0713,62.3941
6.3777,62.5988
6.3777,62.5988
6.3777,62.5988
6.7027,62.7725
6.7027,62.7725
6.7027,62.7725
7.0432,62.9135
7.3958,63.0205
7.3958,63.0205
7.3958,63.0205
7.7572,63.0924
7.7572,63.0924
7.7572,63.0924
8.1239,63.1285
8.1240,63.1285
11.9924,63.1285
11.9924,63.1285
12.3592,63.0924
12.7206,63.0205
13.0732,62.9135
13.4137,62.7725
13.4137,62.7725
13.4137,62.7725
13.7387,62.5988
13.7387,62.5988
13.7387,62.5988
14.0451,62.3941
14.3299,62.1603
14.5905,61.8997
14.8243,61.6149
15.0290,61.3085
15.0568,61.2565
15.2027,60.9835
15.2027,60.9835
15.2027,60.9835
15.3437,60.6430
15.4507,60.2904
15.5226,59.9290
15.5587,59.5622
15.5587,59.1937
15.5226,58.8270
15.5084,58.7555
15.4507,58.4656
15.4507,58.4656
15.4507,58.4656
15.3437,58.1130
15.2027,57.7725
15.2027,57.7725
15.2027,57.7725
15.0290,57.4475
14.9611,57.3459
14.8243,57.1411
14.6335,56.9087
14.5905,56.8563
14.3299,56.5957
14.0451,56.3619
14.0451,56.3619
13.7387,56.1572
13.7387,56.1572
13.7387,56.1572
13.7387,56.1572
13.4137,55.9835
13.4137,55.9835
13.0732,55.8425
12.8866,55.7859
12.7206,55.7355
12.7206,55.7355
12.7206,55.7355
12.3592,55.6636
12.1925,55.6472
11.9924,55.6275
8.1239,55.6275
7.9406,55.6456
7.7572,55.6636
7.3958,55.7355
7.3958,55.7355
7.3958,55.7355
7.3958,55.7355
7.3958,55.7355
7.0432,55.8425
7.0432,55.8425
6.7027,55.9835
6.7027,55.9835
6.3777,56.1572
6.0713,56.3619
6.0713,56.3619
5.7865,56.5957
5.5259,56.8563
5.2921,57.1411
5.2921,57.1411
5.0874,57.4475
4.9137,57.7725
4.9137,57.7725
4.7727,58.1130
4.7727,58.1130
4.6657,58.4656
4.6657,58.4656
4.5938,58.8270
4.5758,59.0104
4.5577,59.1937
0.7037,59.1937
0.7037,45.5207
4.5577,45.5207
4.5577,45.8892
4.5656,45.9696
4.5938,46.2560
4.6657,46.6174
4.6657,46.6174
4.6657,46.6174
4.6858,46.6836
4.7727,46.9700
4.7727,46.9700
4.9137,47.3105
4.9137,47.3105
5.0874,47.6355
5.1601,47.7443
5.2921,47.9419
5.2921,47.9419
5.5259,48.2267
5.7865,48.4873
5.9153,48.5930
6.0713,48.7211
6.3777,48.9258
6.3777,48.9258
6.3777,48.9258
6.7027,49.0995
6.7027,49.0995
6.7027,49.0995
7.0432,49.2405
7.3958,49.3475
7.3958,49.3475
7.3958,49.3475
7.7572,49.4194
7.7572,49.4194
7.7572,49.4194
8.1239,49.4555
8.1240,49.4555
11.9924,49.4555
11.9924,49.4555
12.3592,49.4194
12.7206,49.3475
13.0732,49.2405
13.4137,49.0995
13.4137,49.0995
13.4137,49.0995
13.7387,48.9258
13.7387,48.9258
13.7387,48.9258
14.0451,48.7211
14.3299,48.4873
14.5905,48.2267
14.8243,47.9419
15.0290,47.6355
15.1083,47.4871
15.2027,47.3105
15.2027,47.3105
15.2027,47.3105
15.3437,46.9700
15.4507,46.6174
15.5226,46.2560
15.5587,45.8892
15.5587,45.5207
15.5226,45.1540
15.4999,45.0402
15.4507,44.7926
15.4507,44.7926
15.4507,44.7926
15.3437,44.4400
15.2027,44.0995
15.2027,44.0995
15.2027,44.0995
15.0290,43.7745
14.9297,43.6259
14.8243,43.4681
14.6239,43.2240
14.5905,43.1833
14.3299,42.9227
14.0451,42.6889
14.0451,42.6889
13.7387,42.4842
13.7387,42.4842
13.7387,42.4842
13.7387,42.4842
13.4137,42.3105
13.4137,42.3105
13.0732,42.1695
12.8866,42.1129
12.7206,42.0625
12.7206,42.0625
12.7206,42.0625
12.3592,41.9906
12.1925,41.9742
11.9924,41.9545
8.1239,41.9545
7.9406,41.9726
7.7572,41.9906
7.3958,42.0625
7.3958,42.0625
7.3958,42.0625
7.3958,42.0625
7.3958,42.0625
7.0432,42.1695
7.0432,42.1695
6.7027,42.3105
6.7027,42.3105
6.3777,42.4842
6.0713,42.6889
6.0713,42.6889
5.7865,42.9227
5.5259,43.1833
5.2921,43.4681
5.2921,43.4681
5.0874,43.7745
4.9137,44.0995
4.9137,44.0995
4.7727,44.4400
4.7727,44.4400
4.6657,44.7926
4.6657,44.7926
4.5938,45.1540
4.5758,45.3374
4.5577,45.5207
0.7037,45.5207
0.7037,38.1250
17.7180,38.1250
17.7369,38.4507
17.7369,38.4507
17.7936,38.7719
17.8765,39.0491
17.8871,39.0845
18.0163,39.3840
18.0163,39.3840
18.0163,39.3840
18.1794,39.6665
18.1795,39.6665
18.2671,39.7843
18.3743,39.9282
18.3743,39.9282
18.3743,39.9282
18.5981,40.1655
18.5981,40.1655
18.7215,40.2690
18.8480,40.3752
19.1206,40.5544
19.4121,40.7008
19.7186,40.8124
20.0361,40.8876
20.3222,40.9211
20.3601,40.9255
20.3601,40.9255
20.6863,40.9255
20.7202,40.9215
21.0103,40.8876
21.3278,40.8124
21.6343,40.7008
21.9258,40.5544
22.1984,40.3752
22.4483,40.1655
22.6721,39.9282
22.8669,39.6665
23.0301,39.3840
23.1593,39.0845
23.2528,38.7719
23.3095,38.4507
23.3284,38.1250
23.3095,37.7993
23.2528,37.4781
23.1593,37.1655
23.0301,36.8660
22.8669,36.5835
22.6721,36.3218
22.6721,36.3218
22.4483,36.0845
22.4483,36.0845
22.2718,35.9364
22.1984,35.8748
21.9258,35.6956
21.9258,35.6956
21.6343,35.5492
21.6343,35.5492
21.3278,35.4376
21.0103,35.3624
20.6863,35.3245
20.6863,35.3245
20.3601,35.3245
20.3601,35.3245
20.0361,35.3624
19.7186,35.4376
19.4121,35.5492
19.4121,35.5492
19.1206,35.6956
18.8480,35.8748
18.8480,35.8748
18.5981,36.0845
18.5981,36.0845
18.3743,36.3218
18.3743,36.3218
18.1795,36.5835
18.1794,36.5835
18.0163,36.8660
18.0163,36.8660
18.0163,36.8660
17.9601,36.9964
17.8871,37.1656
17.7936,37.4781
17.7369,37.7993
17.7369,37.7993
17.7180,38.1250
0.7037,38.1250
0.7037,29.2350
3.7480,29.2350
3.7669,29.5607
3.7669,29.5607
3.8236,29.8819
3.9126,30.1793
3.9171,30.1945
4.0463,30.4940
4.0463,30.4940
4.0463,30.4940
4.2094,30.7765
4.2095,30.7765
4.2576,30.8412
4.4043,31.0382
4.4043,31.0382
4.4043,31.0382
4.6281,31.2755
4.6281,31.2755
4.7802,31.4030
4.8780,31.4852
5.1506,31.6644
5.4421,31.8108
5.7486,31.9224
6.0661,31.9976
6.3522,32.0311
6.3901,32.0355
6.3901,32.0355
6.7163,32.0355
6.7502,32.0315
7.0403,31.9976
7.3578,31.9224
7.6643,31.8108
7.9558,31.6644
8.2284,31.4852
8.4783,31.2755
8.7021,31.0382
8.8969,30.7765
9.0537,30.5050
20.2580,30.5050
20.2769,30.8307
20.2769,30.8307
20.3336,31.1519
20.3706,31.2755
20.4271,31.4645
20.5563,31.7640
20.5563,31.7640
20.5563,31.7640
20.7194,32.0465
20.7195,32.0465
20.7945,32.1473
20.9143,32.3082
20.9143,32.3082
20.9143,32.3082
21.1381,32.5455
21.1381,32.5455
21.2902,32.6730
21.3880,32.7552
21.6606,32.9344
21.9521,33.0808
22.2586,33.1924
22.5761,33.2676
22.8622,33.3011
22.9001,33.3055
22.9001,33.3055
23.2263,33.3055
23.2602,33.3015
23.5503,33.2676
23.8678,33.1924
24.1743,33.0808
24.4658,32.9344
24.7384,32.7552
24.9883,32.5455
25.2121,32.3082
25.4069,32.0465
25.4070,32.0465
25.4229,32.0222
25.4241,32.0230
25.5247,31.8834
25.6735,31.7466
25.8469,31.6426
26.0376,31.5756
26.2379,31.5484
26.4395,31.5620
26.6343,31.6160
26.7200,31.6541
26.7406,31.6644
26.7406,31.6644
27.0321,31.8108
27.3386,31.9224
27.6561,31.9976
27.9422,32.0311
27.9801,32.0355
27.9801,32.0355
28.3063,32.0355
28.3402,32.0315
28.6303,31.9976
28.9478,31.9224
29.2543,31.8108
29.5458,31.6644
29.8184,31.4852
30.0683,31.2755
30.2921,31.0382
30.4869,30.7765
30.6501,30.4940
30.7793,30.1945
30.8728,29.8819
30.9295,29.5607
30.9484,29.2350
30.9295,28.9093
30.8728,28.5881
30.7793,28.2755
30.6501,27.9760
30.6230,27.9292
30.4869,27.6935
30.4869,27.6935
30.2921,27.4318
30.2921,27.4318
30.2284,27.3642
30.0683,27.1945
30.0683,27.1945
29.8918,27.0464
29.8184,26.9848
29.5458,26.8056
29.5458,26.8056
29.2543,26.6592
29.2543,26.6592
28.9478,26.5476
28.6303,26.4724
28.3063,26.4345
28.3063,26.4345
27.9801,26.4345
27.9801,26.4345
27.6561,26.4724
27.3386,26.5476
27.0321,26.6592
27.0321,26.6592
26.7406,26.8056
26.4680,26.9848
26.4680,26.9848
26.2181,27.1945
26.2181,27.1945
25.9943,27.4318
25.9943,27.4318
25.7995,27.6935
25.7835,27.7178
25.7823,27.7170
25.6817,27.8566
25.5328,27.9934
25.3595,28.0974
25.1688,28.1644
24.9685,28.1916
24.7668,28.1780
24.5720,28.1240
24.4864,28.0859
24.4658,28.0756
24.4658,28.0756
24.2675,27.9760
24.1743,27.9292
24.1743,27.9292
23.8678,27.8176
23.5503,27.7424
23.2263,27.7045
23.2263,27.7045
23.1870,27.7045
22.9859,27.6840
22.7931,27.6235
22.7081,27.5764
22.6833,27.6025
22.5174,27.7180
22.3317,27.7977
22.2630,27.8166
22.2624,27.8167
22.2586,27.8176
21.9521,27.9292
21.9521,27.9292
21.6606,28.0756
21.3880,28.2548
21.3880,28.2548
21.1381,28.4645
21.1381,28.4645
20.9143,28.7018
20.9143,28.7018
20.7195,28.9635
20.7194,28.9635
20.5563,29.2460
20.4271,29.5456
20.3336,29.8581
20.2769,30.1793
20.2769,30.1793
20.2580,30.5050
9.0537,30.5050
9.0601,30.4940
9.1893,30.1945
9.2828,29.8819
9.3395,29.5607
9.3584,29.2350
9.3395,28.9093
9.2828,28.5881
9.1893,28.2755
9.0601,27.9760
9.0330,27.9292
8.8969,27.6935
8.8969,27.6935
8.7021,27.4318
8.7021,27.4318
8.6384,27.3642
8.4783,27.1945
8.4783,27.1945
8.3018,27.0464
8.2284,26.9848
7.9558,26.8056
7.9558,26.8056
7.6643,26.6592
7.6643,26.6592
7.3578,26.5476
7.0403,26.4724
6.7163,26.4345
6.7163,26.4345
6.3901,26.4345
6.3901,26.4345
6.0661,26.4724
5.7486,26.5476
5.4421,26.6592
5.4421,26.6592
5.1506,26.8056
4.8780,26.9848
4.8780,26.9848
4.6281,27.1945
4.6281,27.1945
4.4043,27.4318
4.4043,27.4318
4.2095,27.6935
4.2094,27.6935
4.0463,27.9760
4.0463,27.9760
4.0463,27.9760
3.9261,28.2548
3.9171,28.2756
3.8236,28.5881
3.7669,28.9093
3.7669,28.9093
3.7480,29.2350
0.7037,29.2350
0.7037,16.7736
16.7727,16.7736
16.7727,23.9164
16.7880,24.1304
16.7880,24.1304
16.7880,24.1304
16.8488,24.4100
16.8488,24.4100
16.9488,24.6782
16.9488,24.6782
16.9954,24.7635
17.0860,24.9293
17.2575,25.1584
17.4598,25.3607
17.6889,25.5322
17.8681,25.6301
17.9400,25.6694
17.9400,25.6694
18.1411,25.7444
18.2082,25.7694
18.2082,25.7694
18.2082,25.7694
18.3220,25.7941
18.4878,25.8302
18.7018,25.8455
18.7018,25.8455
22.0326,25.8455
22.2337,25.8659
22.4266,25.9265
22.5115,25.9736
22.5363,25.9475
22.7022,25.8320
22.8379,25.7695
23.1064,25.6694
23.1064,25.6694
23.1064,25.6694
23.1064,25.6694
23.3575,25.5322
23.5866,25.3607
23.7889,25.1584
23.9604,24.9293
24.0976,24.6782
24.1976,24.4100
24.2584,24.1304
24.2737,23.9164
24.2737,19.0291
24.2941,18.8280
24.3547,18.6352
24.4528,18.4584
24.5844,18.3051
24.7443,18.1813
24.9257,18.0923
25.1214,18.0416
25.3233,18.0314
25.5231,18.0620
25.7127,18.1322
25.8842,18.2391
25.9993,18.3436
26.1292,18.4812
26.2181,18.5755
26.3862,18.7165
26.4680,18.7852
26.7406,18.9644
27.0321,19.1108
27.3386,19.2224
27.6561,19.2976
27.9422,19.3311
27.9801,19.3355
27.9801,19.3355
28.3063,19.3355
28.3402,19.3315
28.6303,19.2976
28.9478,19.2224
29.2543,19.1108
29.5458,18.9644
29.8184,18.7852
30.0069,18.6270
30.0683,18.5755
30.0683,18.5755
30.2871,18.3436
30.4399,18.2113
30.6163,18.1126
30.8089,18.0513
31.0099,18.0301
31.2111,18.0498
31.4042,18.1096
31.5813,18.2070
31.7352,18.3381
31.8595,18.4975
31.9492,18.6786
32.0006,18.8741
32.0127,19.0291
32.0127,22.2792
32.0265,22.4199
32.0488,22.6460
32.1207,23.0074
32.1207,23.0074
32.1207,23.0074
32.1634,23.1480
32.2277,23.3600
32.2277,23.3600
32.3687,23.7005
32.3687,23.7005
32.5424,24.0255
32.5943,24.1032
32.6891,24.2818
32.7459,24.4757
32.7627,24.6582
32.7627,24.7635
32.7627,24.7635
32.8004,25.0984
32.8004,25.0984
32.8754,25.4269
32.8754,25.4270
32.9465,25.6301
32.9867,25.7451
33.0277,25.8302
33.1330,26.0487
33.2556,26.2438
33.3123,26.3340
33.5224,26.5975
35.8607,28.9358
35.9155,28.9795
36.1429,29.1609
36.2874,29.3023
36.4005,29.4699
36.4775,29.6567
36.5153,29.8553
36.5124,30.0574
36.4688,30.2548
36.3864,30.4394
36.2686,30.6036
36.1201,30.7407
35.9470,30.8452
35.7564,30.9126
35.5562,30.9403
35.4222,30.9362
35.2428,30.9185
34.8743,30.9185
34.6950,30.9362
34.5076,30.9546
34.1462,31.0265
34.1462,31.0265
34.1462,31.0265
34.1462,31.0265
34.1462,31.0265
33.7936,31.1335
33.7936,31.1335
33.4531,31.2745
33.4531,31.2745
33.1281,31.4482
32.8217,31.6529
32.8217,31.6529
32.5369,31.8867
32.2763,32.1473
32.0425,32.4321
32.0425,32.4321
31.8378,32.7385
31.6641,33.0635
31.6641,33.0635
31.5231,33.4040
31.5231,33.4040
31.4161,33.7566
31.4161,33.7566
31.3442,34.1180
31.3081,34.4848
31.3069,34.5093
31.3055,34.5092
31.2876,34.6849
31.2271,34.8778
31.1290,35.0545
30.9974,35.2079
30.8375,35.3316
30.6561,35.4206
30.4604,35.4713
30.3091,35.4828
28.8743,35.4828
28.6910,35.5009
28.5076,35.5189
28.1462,35.5908
28.1462,35.5908
28.1462,35.5908
28.1462,35.5908
28.1462,35.5908
27.7936,35.6978
27.7936,35.6978
27.4531,35.8388
27.4531,35.8388
27.1281,36.0125
26.8217,36.2172
26.8217,36.2172
26.5369,36.4510
26.2763,36.7116
26.0425,36.9964
26.0425,36.9964
25.8378,37.3028
25.6641,37.6278
25.6641,37.6278
25.5231,37.9683
25.5231,37.9683
25.4161,38.3209
25.4161,38.3209
25.3442,38.6823
25.3354,38.7719
25.3081,39.0491
25.3081,39.4175
25.3204,39.5429
25.3442,39.7843
25.4161,40.1457
25.4161,40.1457
25.4161,40.1457
25.4648,40.3062
25.5231,40.4983
25.5231,40.4983
25.6735,40.8614
25.6706,40.8626
25.7236,41.0125
25.7514,41.2127
25.7383,41.4144
25.6848,41.6094
25.5932,41.7895
25.4672,41.9476
25.3120,42.0771
25.2240,42.1301
25.1227,42.1842
24.8163,42.3889
24.8163,42.3889
24.5315,42.6227
24.2709,42.8833
24.0371,43.1681
24.0371,43.1681
23.8324,43.4745
23.6587,43.7995
23.6587,43.7995
23.5177,44.1400
23.5177,44.1400
23.4107,44.4926
23.4107,44.4926
23.3388,44.8540
23.3388,44.8540
23.3208,45.0369
23.2807,45.2350
23.2016,45.4210
23.0867,45.5873
22.9406,45.7270
22.7694,45.8345
22.5801,45.9053
22.3804,45.9365
22.1785,45.9269
21.9826,45.8769
21.8783,45.8317
21.6343,45.7092
21.6343,45.7092
21.3278,45.5976
21.0103,45.5224
20.6863,45.4845
20.6863,45.4845
20.3601,45.4845
20.3601,45.4845
20.0361,45.5224
19.7186,45.5976
19.4121,45.7092
19.4121,45.7092
19.1206,45.8556
18.8480,46.0348
18.8480,46.0348
18.5981,46.2445
18.5981,46.2445
18.3743,46.4818
18.3743,46.4818
18.1795,46.7435
18.1794,46.7435
18.0163,47.0260
18.0163,47.0260
18.0163,47.0260
17.8936,47.3105
17.8871,47.3256
17.7936,47.6381
17.7369,47.9593
17.7369,47.9593
17.7180,48.2850
17.7369,48.6107
17.7369,48.6107
17.7936,48.9319
17.8538,49.1330
17.8871,49.2445
18.0163,49.5440
18.0163,49.5440
18.0163,49.5440
18.1794,49.8265
18.1795,49.8265
18.2872,49.9712
18.3743,50.0882
18.3743,50.0882
18.3743,50.0882
18.5981,50.3255
18.5981,50.3255
18.7502,50.4530
18.8480,50.5352
19.1206,50.7144
19.4121,50.8608
19.7186,50.9724
20.0361,51.0476
20.3222,51.0811
20.3601,51.0855
20.3601,51.0855
20.6863,51.0855
20.7202,51.0815
21.0103,51.0476
21.3278,50.9724
21.6343,50.8608
21.9258,50.7144
22.1984,50.5352
22.4483,50.3255
22.6721,50.0882
22.8669,49.8265
23.0301,49.5440
23.1593,49.2445
23.2528,48.9319
23.2528,48.9319
23.2537,48.9291
23.3309,48.7424
23.4442,48.5750
23.5889,48.4338
23.7590,48.3246
23.9476,48.2519
24.1470,48.2187
24.3490,48.2263
24.5453,48.2744
24.7279,48.3610
24.8058,48.4132
24.8163,48.4211
24.8163,48.4211
25.1227,48.6258
25.1227,48.6258
25.1227,48.6258
25.2240,48.6799
25.3917,48.7927
25.5332,48.9370
25.6429,49.1068
25.7161,49.2953
25.7498,49.4945
25.7428,49.6966
25.6952,49.8930
25.6725,49.9482
25.6735,49.9486
25.5231,50.3117
25.5231,50.3117
25.4161,50.6643
25.4161,50.6643
25.3442,51.0257
25.3354,51.1148
25.3081,51.3924
25.3081,51.7610
25.3143,51.8235
25.3442,52.1277
25.4161,52.4891
25.4161,52.4891
25.4161,52.4891
25.4161,52.4891
25.5231,52.8417
25.5231,52.8417
25.6641,53.1822
25.6641,53.1822
25.8378,53.5072
25.9604,53.6907
26.0425,53.8136
26.0425,53.8136
26.2763,54.0984
26.2763,54.0984
26.5369,54.3590
26.8217,54.5928
27.1281,54.7975
27.1281,54.7975
27.1281,54.7975
27.4531,54.9712
27.4531,54.9712
27.4531,54.9712
27.7936,55.1122
28.1462,55.2192
28.1462,55.2192
28.1462,55.2192
28.5076,55.2911
28.5076,55.2911
28.5076,55.2911
28.8743,55.3272
28.8744,55.3272
30.3091,55.3272
30.5102,55.3476
30.7031,55.4082
30.8798,55.5063
31.0332,55.6379
31.1569,55.7978
31.2459,55.9792
31.2966,56.1749
31.3062,56.3008
31.3069,56.3007
31.3081,56.3252
31.3081,56.3252
31.3081,56.3252
31.3117,56.3619
31.3442,56.6920
31.4161,57.0534
31.4161,57.0534
31.4161,57.0534
31.4427,57.1411
31.5231,57.4060
31.5231,57.4060
31.6267,57.6561
31.6847,57.8497
31.7027,58.0384
31.7027,65.3159
31.6822,65.5170
31.6217,65.7099
31.5236,65.8866
31.4587,65.9701
31.4375,65.9946
31.2660,66.2237
31.2660,66.2237
31.1288,66.4748
31.1288,66.4748
31.0288,66.7430
31.0288,66.7430
30.9680,67.0226
30.9680,67.0226
30.9527,67.2366
30.9527,74.3794
30.9680,74.5934
30.9680,74.5934
30.9680,74.5934
31.0288,74.8730
31.0288,74.8730
31.1288,75.1412
31.1288,75.1412
31.1288,75.1412
31.2660,75.3923
31.4375,75.6214
31.6398,75.8237
31.8689,75.9952
32.1200,76.1324
32.1200,76.1324
32.1200,76.1324
32.3027,76.2005
32.3882,76.2324
32.3882,76.2324
32.3882,76.2324
32.4982,76.2563
32.6678,76.2932
32.8818,76.3085
32.8818,76.3085
36.5246,76.3085
36.5246,76.3085
36.7386,76.2932
36.9563,76.2458
37.0182,76.2324
37.0182,76.2324
37.0182,76.2324
37.2103,76.1607
37.2864,76.1324
37.2864,76.1324
37.2864,76.1324
37.4042,76.0680
37.5905,75.9896
37.7887,75.9503
37.9909,75.9517
38.1886,75.9937
38.2652,76.0219
38.3529,76.0582
38.4382,76.0935
38.4382,76.0935
38.4382,76.0935
38.7908,76.2005
38.7908,76.2005
38.7908,76.2005
39.1522,76.2724
39.1522,76.2724
39.1522,76.2724
39.5189,76.3085
39.5190,76.3085
39.8874,76.3085
39.8875,76.3085
40.2542,76.2724
40.6156,76.2005
40.9682,76.0935
41.3087,75.9525
41.3087,75.9525
41.3087,75.9525
41.6337,75.7788
41.6337,75.7788
41.6337,75.7788
41.9401,75.5741
42.2249,75.3403
42.2421,75.3231
42.3988,75.1953
42.5779,75.1018
42.7723,75.0461
42.9738,75.0308
43.1743,75.0563
43.3656,75.1217
43.5398,75.2242
43.6549,75.3231
45.1907,76.8588
45.4542,77.0689
45.7395,77.2482
46.0431,77.3945
46.3612,77.5058
46.6898,77.5808
47.0247,77.6185
47.0247,77.6185
47.3617,77.6185
47.3617,77.6185
47.6966,77.5808
48.0252,77.5058
48.3433,77.3945
48.6469,77.2482
48.9322,77.0689
49.1957,76.8588
49.4340,76.6205
49.4577,76.5909
49.5990,76.4464
49.7666,76.3333
49.9535,76.2563
50.1520,76.2185
50.3542,76.2214
50.5516,76.2650
50.7175,76.3369
50.9600,76.4694
50.9600,76.4694
50.9600,76.4694
51.1223,76.5299
51.2282,76.5694
51.2282,76.5694
51.2282,76.5694
51.3270,76.5909
51.5078,76.6302
51.7218,76.6455
51.7218,76.6455
55.3646,76.6455
55.3646,76.6455
55.5786,76.6302
55.7963,76.5828
55.8582,76.5694
55.8582,76.5694
55.8582,76.5694
56.0237,76.5077
56.1264,76.4694
56.1264,76.4694
56.1264,76.4694
56.1264,76.4694
56.3775,76.3322
56.6066,76.1607
56.8089,75.9584
56.9804,75.7293
57.1176,75.4782
57.1496,75.3923
57.1754,75.3231
57.2176,75.2100
57.2208,75.1953
57.2368,75.1217
57.2784,74.9304
57.2937,74.7164
57.2937,67.5736
57.2784,67.3596
57.2176,67.0800
57.1210,66.8211
57.1176,66.8118
57.1176,66.8118
57.1176,66.8118
56.9804,66.5607
56.8089,66.3316
56.6066,66.1293
56.3775,65.9578
56.2928,65.9115
56.1264,65.8206
56.1264,65.8206
55.8582,65.7206
55.8582,65.7206
55.5786,65.6598
55.5786,65.6598
55.5786,65.6598
55.3861,65.6460
55.3646,65.6445
55.3646,65.6445
51.7218,65.6445
51.7218,65.6445
51.6789,65.6476
51.5078,65.6598
51.5078,65.6598
51.5078,65.6598
51.2282,65.7206
51.2282,65.7206
50.9600,65.8206
50.9600,65.8206
50.7089,65.9578
50.7089,65.9578
50.4798,66.1293
50.2775,66.3316
50.1060,66.5607
50.1060,66.5607
49.9688,66.8118
49.9688,66.8118
49.8688,67.0800
49.8688,67.0800
49.8080,67.3596
49.8080,67.3596
49.8014,67.4525
49.7927,67.5735
49.7927,70.5624
49.7722,70.7634
49.7117,70.9563
49.6136,71.1330
49.4820,71.2864
49.3221,71.4101
49.1407,71.4992
48.9450,71.5498
48.7431,71.5601
48.5433,71.5295
48.3537,71.4593
48.1822,71.3523
48.0873,71.2688
47.6863,70.8678
47.5586,70.7111
47.4650,70.5319
47.4094,70.3376
47.3937,70.1614
47.3937,65.5248
47.4141,65.3237
47.4747,65.1308
47.5728,64.9541
47.7044,64.8007
47.8643,64.6770
48.0457,64.5879
48.0509,64.5861
48.3043,64.4938
48.5958,64.3474
48.8684,64.1682
49.1183,63.9585
49.3421,63.7212
49.5369,63.4595
49.7001,63.1770
49.7318,63.1033
49.8303,62.9268
49.9622,62.7736
50.1223,62.6502
50.3039,62.5615
50.4997,62.5112
50.7016,62.5014
50.7651,62.5067
50.8266,62.5139
50.8401,62.5155
50.8401,62.5155
51.1663,62.5155
51.2029,62.5112
51.4903,62.4776
51.8078,62.4024
52.1143,62.2908
52.1856,62.2550
63.4380,62.2550
63.4569,62.5807
63.4569,62.5807
63.5136,62.9019
63.5959,63.1770
63.6071,63.2145
63.7363,63.5140
63.7363,63.5140
63.7363,63.5140
63.8994,63.7965
63.8995,63.7965
64.0200,63.9585
64.0943,64.0582
64.0943,64.0582
64.0943,64.0582
64.3181,64.2955
64.3181,64.2955
64.4702,64.4230
64.5680,64.5052
64.8406,64.6844
65.1321,64.8308
65.4386,64.9424
65.7561,65.0176
66.0422,65.0511
66.0801,65.0555
66.0801,65.0555
66.4063,65.0555
66.4402,65.0515
66.7303,65.0176
67.0478,64.9424
67.3543,64.8308
67.6458,64.6844
67.9184,64.5052
68.1683,64.2955
68.3921,64.0582
68.5869,63.7965
68.7501,63.5140
68.8793,63.2145
68.9728,62.9019
69.0295,62.5807
69.0484,62.2550
69.0295,61.9293
68.9728,61.6081
68.8793,61.2955
68.7501,60.9960
68.7428,60.9835
68.5869,60.7135
68.5869,60.7135
68.3921,60.4518
68.3921,60.4518
68.3921,60.4518
68.1683,60.2145
68.1683,60.2145
67.9611,60.0407
67.9184,60.0048
67.6458,59.8256
67.6458,59.8256
67.3543,59.6792
67.3543,59.6792
67.0478,59.5676
66.7303,59.4924
66.4063,59.4545
66.4063,59.4545
66.0801,59.4545
66.0801,59.4545
65.7561,59.4924
65.4386,59.5676
65.1321,59.6792
65.1321,59.6792
64.8406,59.8256
64.5680,60.0048
64.5680,60.0048
64.3181,60.2145
64.3181,60.2145
64.0943,60.4518
64.0943,60.4518
63.8995,60.7135
63.8994,60.7135
63.7363,60.9960
63.6071,61.2956
63.5136,61.6081
63.4569,61.9293
63.4569,61.9293
63.4380,62.2550
52.1856,62.2550
52.4058,62.1444
52.6784,61.9652
52.9283,61.7555
53.1521,61.5182
53.3469,61.2565
53.5101,60.9740
53.6393,60.6745
53.7328,60.3619
53.7895,60.0407
53.8084,59.7150
53.7895,59.3893
53.7328,59.0681
53.6607,58.8270
53.6393,58.7556
53.6295,58.7288
53.5800,58.5328
53.5709,58.3309
53.6026,58.1313
53.6739,57.9421
53.7349,57.8401
53.7338,57.8395
53.9280,57.5304
53.9280,57.5304
54.0743,57.2268
54.1856,56.9087
54.1856,56.9086
54.1933,56.8817
54.1952,56.8823
54.2488,56.7237
54.3507,56.5491
54.4856,56.3986
54.6481,56.2784
54.8315,56.1933
55.0282,56.1469
55.2303,56.1411
55.2740,56.1452
55.4477,56.1655
55.4477,56.1655
55.7739,56.1655
55.8078,56.1615
56.0979,56.1276
56.4154,56.0524
56.7219,55.9408
57.0134,55.7944
57.2860,55.6152
57.5114,55.4260
57.5359,55.4055
57.5359,55.4055
57.7116,55.2192
57.7597,55.1682
57.9545,54.9065
58.1177,54.6240
58.2469,54.3245
58.3404,54.0119
58.3971,53.6907
58.4160,53.3650
58.3971,53.0393
58.3404,52.7181
58.2469,52.4055
58.1177,52.1060
57.9545,51.8235
57.7597,51.5618
57.7597,51.5618
57.5359,51.3245
57.5359,51.3245
57.3697,51.1851
57.2288,51.0402
57.1200,50.8699
57.0477,50.6811
57.0148,50.4817
57.0228,50.2797
57.0712,50.0835
57.1582,49.9010
57.2801,49.7398
57.3055,49.7135
59.0534,47.9656
59.2100,47.8378
59.3892,47.7443
59.5835,47.6886
59.7851,47.6733
59.9856,47.6988
60.1769,47.7642
60.3511,47.8668
60.4662,47.9656
60.7015,48.2009
60.9863,48.4347
61.2927,48.6394
61.2927,48.6394
61.2927,48.6394
61.6177,48.8131
61.6177,48.8131
61.6177,48.8131
61.9582,48.9541
62.3108,49.0611
62.3108,49.0611
62.3108,49.0611
62.6722,49.1330
62.6722,49.1330
62.6722,49.1330
63.0389,49.1691
63.0390,49.1691
66.9074,49.1691
66.9074,49.1691
67.2742,49.1330
67.6356,49.0611
67.9882,48.9541
68.3287,48.8131
68.3287,48.8131
68.3287,48.8131
68.6537,48.6394
68.6537,48.6394
68.6537,48.6394
68.9601,48.4347
69.2449,48.2009
69.5055,47.9403
69.7393,47.6555
69.9440,47.3491
70.0491,47.1523
70.1177,47.0241
70.1177,47.0241
70.1177,47.0241
70.2587,46.6836
70.3657,46.3310
70.4376,45.9696
70.4737,45.6028
70.4737,45.2343
70.4376,44.8676
70.4349,44.8540
70.3657,44.5062
70.3657,44.5062
70.3657,44.5062
70.2587,44.1536
70.1177,43.8131
70.1177,43.8131
70.1177,43.8131
69.9440,43.4881
69.7403,43.1833
69.7393,43.1817
69.5055,42.8969
69.2449,42.6363
69.2449,42.6363
68.9601,42.4025
68.9601,42.4025
68.6537,42.1978
68.6537,42.1978
68.6537,42.1978
68.6537,42.1978
68.3287,42.0241
68.3287,42.0241
67.9882,41.8831
67.6799,41.7895
67.6356,41.7761
67.6356,41.7761
67.6356,41.7761
67.2742,41.7042
67.1075,41.6878
66.9074,41.6681
63.0389,41.6681
62.7746,41.6941
62.6722,41.7042
62.3998,41.7584
62.1986,41.7776
61.9976,41.7559
61.8051,41.6941
61.6290,41.5949
61.4765,41.4623
61.3538,41.3017
61.2659,41.1196
61.2619,41.1086
61.1873,40.8952
61.0410,40.5915
60.8617,40.3062
60.6516,40.0427
60.4133,39.8044
60.3938,39.7848
60.3938,39.7848
52.7562,32.1473
51.0097,30.4007
59.4727,30.4007
59.4727,30.7692
59.4910,30.9546
59.5088,31.1360
59.5807,31.4974
59.5807,31.4974
59.5807,31.4974
59.6758,31.8108
59.6877,31.8500
59.6877,31.8500
59.8287,32.1905
59.8287,32.1905
60.0024,32.5155
60.1383,32.7188
60.2071,32.8219
60.2071,32.8219
60.4409,33.1067
60.7015,33.3673
60.7462,33.4040
60.9863,33.6011
61.2927,33.8058
61.2927,33.8058
61.2927,33.8058
61.6177,33.9795
61.6177,33.9795
61.6177,33.9795
61.9582,34.1205
62.3108,34.2275
62.3108,34.2275
62.3108,34.2275
62.6722,34.2994
62.6722,34.2994
62.6722,34.2994
63.0389,34.3355
63.0390,34.3355
66.9074,34.3355
66.9074,34.3355
67.2742,34.2994
67.6356,34.2275
67.9882,34.1205
68.3287,33.9795
68.3287,33.9795
68.3287,33.9795
68.6537,33.8058
68.6537,33.8058
68.6537,33.8058
68.9601,33.6011
69.2449,33.3673
69.5055,33.1067
69.7393,32.8219
69.9440,32.5155
70.1177,32.1905
70.2587,31.8500
70.3657,31.4974
70.4376,31.1360
70.4737,30.7692
70.4737,30.4007
70.4376,30.0340
70.4073,29.8819
70.3657,29.6726
70.3657,29.6726
70.3657,29.6726
70.2587,29.3200
70.1177,28.9795
70.1177,28.9795
70.1177,28.9795
69.9440,28.6545
69.8761,28.5529
69.7393,28.3481
69.5885,28.1644
69.5055,28.0633
69.2449,27.8027
68.9601,27.5689
68.9601,27.5689
68.6537,27.3642
68.6537,27.3642
68.6537,27.3642
68.6537,27.3642
68.3287,27.1905
68.3287,27.1905
67.9882,27.0495
67.6926,26.9598
67.6356,26.9425
67.6356,26.9425
67.6356,26.9425
67.2742,26.8706
67.1075,26.8542
66.9074,26.8345
63.0389,26.8345
62.8556,26.8526
62.6722,26.8706
62.3108,26.9425
62.3108,26.9425
62.3108,26.9425
62.3108,26.9425
62.3108,26.9425
61.9582,27.0495
61.9582,27.0495
61.6177,27.1905
61.6177,27.1905
61.2927,27.3642
60.9863,27.5689
60.9863,27.5689
60.7015,27.8027
60.4409,28.0633
60.2071,28.3481
60.2071,28.3481
60.0024,28.6545
59.8287,28.9795
59.8287,28.9795
59.6877,29.3200
59.6877,29.3200
59.5807,29.6726
59.5807,29.6726
59.5088,30.0340
59.5065,30.0574
59.4727,30.4007
51.0097,30.4007
48.3004,27.6915
48.1727,27.5348
48.0791,27.3557
48.0235,27.1613
48.0082,26.9598
48.0337,26.7593
48.0991,26.5680
48.2016,26.3938
48.3371,26.2438
48.5001,26.1242
48.6837,26.0398
48.8806,25.9941
49.0068,25.9861
49.2374,25.9861
49.2374,25.9861
49.6042,25.9500
49.9656,25.8781
50.3182,25.7711
50.6587,25.6301
50.6587,25.6301
50.6587,25.6301
50.7909,25.5594
50.9837,25.4564
50.9982,25.4467
51.1767,25.3520
51.3707,25.2951
51.5722,25.2785
51.7728,25.3028
51.9645,25.3669
52.1082,25.4467
52.1227,25.4564
52.1227,25.4564
52.4477,25.6301
52.4477,25.6301
52.4477,25.6301
52.7882,25.7711
53.1408,25.8781
53.1408,25.8781
53.1408,25.8781
53.5022,25.9500
53.5022,25.9500
53.5022,25.9500
53.8689,25.9861
53.8690,25.9861
54.2374,25.9861
54.2374,25.9861
54.6042,25.9500
54.9656,25.8781
55.3182,25.7711
55.6587,25.6301
55.6587,25.6301
55.6587,25.6301
55.9837,25.4564
55.9837,25.4564
55.9837,25.4564
56.2901,25.2517
56.5749,25.0179
56.8355,24.7573
57.0693,24.4725
57.2740,24.1661
57.4074,23.9164
57.4477,23.8411
57.4477,23.8411
57.4477,23.8411
57.5887,23.5006
57.6957,23.1480
57.7676,22.7866
57.8037,22.4199
57.8037,18.5513
57.7676,18.1846
57.7572,18.1322
57.6957,17.8232
57.6957,17.8232
57.6957,17.8232
57.5887,17.4706
57.4477,17.1301
57.4477,17.1301
57.4477,17.1301
57.2740,16.8051
57.1750,16.6570
57.0693,16.4987
56.8355,16.2139
56.5749,15.9533
56.5749,15.9533
56.3817,15.7948
56.2901,15.7195
55.9837,15.5148
55.9837,15.5148
55.9837,15.5148
55.9837,15.5148
55.6587,15.3411
55.6587,15.3411
55.3182,15.2001
55.1316,15.1435
54.9656,15.0931
54.9656,15.0931
54.9656,15.0931
54.6042,15.0212
54.4375,15.0048
54.2374,14.9851
53.8689,14.9851
53.6856,15.0032
53.5022,15.0212
53.1408,15.0931
53.1408,15.0931
53.1408,15.0931
53.1408,15.0931
53.1408,15.0931
52.7882,15.2001
52.7882,15.2001
52.4477,15.3411
52.4477,15.3411
52.1227,15.5148
52.1227,15.5148
52.1082,15.5245
51.9296,15.6192
51.7357,15.6761
51.5342,15.6927
51.3335,15.6684
51.1419,15.6043
50.9982,15.5245
50.9837,15.5148
50.9837,15.5148
50.6587,15.3411
50.6587,15.3411
50.3182,15.2001
50.1316,15.1435
49.9656,15.0931
49.9656,15.0931
49.9656,15.0931
49.6042,15.0212
49.4375,15.0048
49.2374,14.9851
48.8689,14.9851
48.6856,15.0032
48.5022,15.0212
48.1408,15.0931
48.1408,15.0931
48.1408,15.0931
48.1408,15.0931
48.1408,15.0931
47.7882,15.2001
47.7882,15.2001
47.4477,15.3411
47.4477,15.3411
47.1227,15.5148
46.8163,15.7195
46.8163,15.7195
46.5315,15.9533
46.2709,16.2139
46.0371,16.4987
46.0371,16.4987
45.8324,16.8051
45.6587,17.1301
45.6587,17.1301
45.5177,17.4706
45.5177,17.4706
45.4107,17.8232
45.4107,17.8232
45.3388,18.1846
45.3270,18.3051
45.3027,18.5513
45.3027,18.5514
45.3027,22.4198
45.3411,22.8099
45.3405,23.0120
45.2992,23.2099
45.2189,23.3954
45.1029,23.5609
44.9559,23.6997
44.7840,23.8061
44.5943,23.8757
44.3944,23.9057
44.1925,23.8948
44.0170,23.8508
43.8926,23.8072
43.8925,23.8072
43.5640,23.7322
43.2291,23.6945
43.2291,23.6945
43.2291,23.6945
43.2291,23.6945
43.2291,23.6945
40.4765,23.6945
40.2754,23.6740
40.0826,23.6135
39.9058,23.5154
39.7525,23.3838
39.6287,23.2239
39.5397,23.0425
39.4891,22.8468
39.4788,22.6449
39.4823,22.5976
39.4999,22.4199
39.5137,22.2792
39.5137,18.4108
39.4776,18.0440
39.4337,17.8232
39.4057,17.6826
39.4057,17.6826
39.4057,17.6826
39.2987,17.3300
39.1577,16.9895
39.1577,16.9895
39.1577,16.9895
38.9840,16.6645
38.8974,16.5350
38.7793,16.3581
38.5455,16.0733
38.2849,15.8127
38.2849,15.8127
38.0001,15.5789
38.0001,15.5789
37.6937,15.3742
37.6937,15.3742
37.6937,15.3742
37.6937,15.3742
37.3687,15.2005
37.3687,15.2005
37.0282,15.0595
36.8416,15.0029
36.6756,14.9525
36.6756,14.9525
36.6756,14.9525
36.3142,14.8806
36.1475,14.8642
35.9474,14.8445
35.5789,14.8445
35.3956,14.8626
35.2122,14.8806
34.8508,14.9525
34.8508,14.9525
34.8508,14.9525
34.8508,14.9525
34.8508,14.9525
34.4982,15.0595
34.4982,15.0595
34.1577,15.2005
34.1577,15.2005
33.8327,15.3742
33.5263,15.5789
33.5263,15.5789
33.2415,15.8127
32.9809,16.0733
32.7471,16.3581
32.7471,16.3581
32.7121,16.4105
32.5834,16.5664
32.4259,16.6931
32.2462,16.7856
32.0515,16.8399
31.8499,16.8540
31.6495,16.8272
31.4587,16.7606
31.2851,16.6570
31.1360,16.5205
31.0174,16.3568
30.9342,16.1726
30.8977,16.0290
30.8728,15.8881
30.7793,15.5755
30.6501,15.2760
30.5026,15.0206
30.4869,14.9935
30.4869,14.9935
30.2921,14.7318
30.2921,14.7318
30.2921,14.7318
30.0683,14.4945
30.0683,14.4945
29.8918,14.3464
29.8184,14.2848
29.5458,14.1056
29.5458,14.1056
29.2543,13.9592
29.2543,13.9592
28.9478,13.8476
28.6303,13.7724
28.3063,13.7345
28.3063,13.7345
27.9801,13.7345
27.9801,13.7345
27.6561,13.7724
27.3386,13.8476
27.0321,13.9592
27.0321,13.9592
26.7406,14.1056
26.4680,14.2848
26.4680,14.2848
26.2181,14.4945
26.2181,14.4945
25.9943,14.7318
25.9943,14.7318
25.7995,14.9935
25.7995,14.9935
25.6363,15.2760
25.5743,15.4199
25.4759,15.5964
25.3439,15.7495
25.1838,15.8730
25.0022,15.9616
24.8064,16.0119
24.6045,16.0218
24.4048,15.9908
24.2153,15.9203
24.0440,15.8130
23.8978,15.6735
23.8573,15.6229
23.8433,15.6043
23.7889,15.5316
23.5866,15.3293
23.3575,15.1578
23.1775,15.0595
23.1064,15.0206
23.1064,15.0206
22.8382,14.9206
22.8382,14.9206
22.5586,14.8598
22.5586,14.8598
22.5586,14.8598
22.3661,14.8460
22.3446,14.8445
22.3446,14.8445
18.7018,14.8445
18.7018,14.8445
18.6589,14.8476
18.4878,14.8598
18.4878,14.8598
18.4878,14.8598
18.2082,14.9206
18.2082,14.9206
17.9400,15.0206
17.9400,15.0206
17.6889,15.1578
17.6889,15.1578
17.4598,15.3293
17.2575,15.5316
17.0860,15.7607
17.0860,15.7607
16.9488,16.0118
16.9488,16.0118
16.8488,16.2800
16.8488,16.2800
16.7965,16.5205
16.7880,16.5596
16.7727,16.7736
0.7037,16.7736
0.7037,6.3750
3.0479,6.3750
3.0671,6.7414
3.0671,6.7414
3.1245,7.1038
3.1245,7.1038
3.2195,7.4582
3.3509,7.8007
3.5175,8.1276
3.5175,8.1277
3.7173,8.4354
3.7173,8.4354
3.9482,8.7205
3.9482,8.7205
3.9483,8.7205
4.2077,8.9799
4.2077,8.9800
4.2077,8.9800
4.4928,9.2108
4.4928,9.2109
4.8005,9.4107
4.8006,9.4107
5.1275,9.5773
5.1275,9.5773
5.4700,9.7087
5.8244,9.8037
6.1868,9.8611
6.5532,9.8803
6.9196,9.8611
7.2820,9.8037
7.6364,9.7087
7.9789,9.5773
8.3059,9.4107
8.6136,9.2109
8.8987,8.9799
9.1581,8.7205
9.3891,8.4354
9.5889,8.1277
9.7555,7.8007
9.8869,7.4582
9.9819,7.1038
10.0393,6.7414
10.0585,6.3750
29.3680,6.3750
29.3869,6.7007
29.3869,6.7007
29.4436,7.0219
29.5254,7.2951
29.5371,7.3345
29.6663,7.6340
29.6663,7.6340
29.6663,7.6340
29.8294,7.9165
29.8295,7.9165
29.9557,8.0860
30.0243,8.1782
30.0243,8.1782
30.0243,8.1782
30.2481,8.4155
30.2481,8.4155
30.3315,8.4854
30.4980,8.6252
30.7706,8.8044
31.0621,8.9508
31.3686,9.0624
31.6861,9.1376
31.9722,9.1711
32.0101,9.1755
32.0101,9.1755
32.3363,9.1755
32.3702,9.1715
32.6603,9.1376
32.9778,9.0624
33.2843,8.9508
33.5758,8.8044
33.8484,8.6252
34.0983,8.4155
34.3221,8.1782
34.5169,7.9165
34.6801,7.6340
34.8093,7.3345
34.9028,7.0219
34.9595,6.7007
34.9784,6.3750
56.8680,6.3750
56.8869,6.7007
56.8869,6.7007
56.9436,7.0219
57.0254,7.2951
57.0371,7.3345
57.1663,7.6340
57.1663,7.6340
57.1663,7.6340
57.3294,7.9165
57.3295,7.9165
57.4557,8.0860
57.5243,8.1782
57.5243,8.1782
57.5243,8.1782
57.7481,8.4155
57.7481,8.4155
57.8315,8.4854
57.9980,8.6252
58.2706,8.8044
58.5621,8.9508
58.8686,9.0624
59.1861,9.1376
59.4722,9.1711
59.5101,9.1755
59.5101,9.1755
59.8363,9.1755
59.8702,9.1715
60.1603,9.1376
60.4778,9.0624
60.7843,8.9508
61.0758,8.8044
61.3484,8.6252
61.5983,8.4155
61.8221,8.1782
62.0169,7.9165
62.1801,7.6340
62.3093,7.3345
62.4028,7.0219
62.4595,6.7007
62.4784,6.3750
65.2779,6.3750
65.2971,6.7414
65.2971,6.7414
65.3545,7.1038
65.3545,7.1038
65.4495,7.4582
65.5809,7.8007
65.7475,8.1276
65.7475,8.1277
65.9473,8.4354
65.9473,8.4354
66.1782,8.7205
66.1782,8.7205
66.1783,8.7205
66.4377,8.9799
66.4377,8.9800
66.4377,8.9800
66.7228,9.2108
66.7228,9.2109
67.0305,9.4107
67.0306,9.4107
67.3575,9.5773
67.3575,9.5773
67.7000,9.7087
68.0544,9.8037
68.4168,9.8611
68.7832,9.8803
69.1496,9.8611
69.5120,9.8037
69.8664,9.7087
70.2089,9.5773
70.5359,9.4107
70.8436,9.2109
71.1287,8.9799
71.3881,8.7205
71.6191,8.4354
71.8189,8.1277
71.9855,7.8007
72.1169,7.4582
72.2119,7.1038
72.2693,6.7414
72.2885,6.3750
72.2693,6.0086
72.2119,5.6462
72.1169,5.2918
71.9855,4.9493
71.9265,4.8335
71.8189,4.6224
71.8189,4.6223
71.6191,4.3146
71.6191,4.3146
71.3882,4.0295
71.3882,4.0295
71.3881,4.0295
71.1287,3.7701
71.1287,3.7700
71.1287,3.7700
70.8436,3.5391
70.8436,3.5391
70.5359,3.3393
70.5358,3.3393
70.2089,3.1727
69.8664,3.0413
69.8664,3.0413
69.8664,3.0413
69.5120,2.9463
69.1496,2.8889
69.1496,2.8889
68.7832,2.8697
68.4168,2.8889
68.3139,2.9052
68.0544,2.9463
67.7000,3.0413
67.7000,3.0413
67.3575,3.1727
67.0306,3.3393
67.0305,3.3393
66.7228,3.5391
66.7228,3.5391
66.4377,3.7700
66.1782,4.0295
65.9473,4.3146
65.9473,4.3146
65.7475,4.6223
65.7475,4.6224
65.5809,4.9493
65.4495,5.2918
65.4495,5.2918
65.4495,5.2918
65.3545,5.6462
65.3415,5.7281
65.2971,6.0086
65.2779,6.3750
62.4784,6.3750
62.4595,6.0493
62.4028,5.7281
62.3093,5.4155
62.1801,5.1160
62.0169,4.8335
61.8221,4.5718
61.8221,4.5718
61.5983,4.3345
61.5983,4.3345
61.4218,4.1864
61.3484,4.1248
61.0758,3.9456
61.0758,3.9456
60.7843,3.7992
60.7843,3.7992
60.4778,3.6876
60.1603,3.6124
59.8363,3.5745
59.8363,3.5745
59.5101,3.5745
59.5101,3.5745
59.1861,3.6124
58.8686,3.6876
58.5621,3.7992
58.5621,3.7992
58.2706,3.9456
57.9980,4.1248
57.9980,4.1248
57.7481,4.3345
57.7481,4.3345
57.5243,4.5718
57.5243,4.5718
57.3295,4.8335
57.3294,4.8335
57.1663,5.1160
57.0371,5.4156
56.9436,5.7281
56.8869,6.0493
56.8869,6.0493
56.8680,6.3750
34.9784,6.3750
34.9595,6.0493
34.9028,5.7281
34.8093,5.4155
34.6801,5.1160
34.5169,4.8335
34.3221,4.5718
34.3221,4.5718
34.0983,4.3345
34.0983,4.3345
33.9218,4.1864
33.8484,4.1248
33.5758,3.9456
33.5758,3.9456
33.2843,3.7992
33.2843,3.7992
32.9778,3.6876
32.6603,3.6124
32.3363,3.5745
32.3363,3.5745
32.0101,3.5745
32.0101,3.5745
31.6861,3.6124
31.3686,3.6876
31.0621,3.7992
31.0621,3.7992
30.7706,3.9456
30.4980,4.1248
30.4980,4.1248
30.2481,4.3345
30.2481,4.3345
30.0243,4.5718
30.0243,4.5718
29.8295,4.8335
29.8294,4.8335
29.6663,5.1160
29.5371,5.4156
29.4436,5.7281
29.3869,6.0493
29.3869,6.0493
29.3680,6.3750
10.0585,6.3750
10.0393,6.0086
9.9819,5.6462
9.8869,5.2918
9.7555,4.9493
9.6965,4.8335
9.5889,4.6224
9.5889,4.6223
9.3891,4.3146
9.3890,4.3146
9.1582,4.0295
9.1582,4.0295
9.1581,4.0295
8.8987,3.7701
8.8987,3.7700
8.8987,3.7700
8.6136,3.5391
8.6136,3.5391
8.3059,3.3393
8.3058,3.3393
7.9789,3.1727
7.6364,3.0413
7.6364,3.0413
7.6364,3.0413
7.2820,2.9463
6.9196,2.8889
6.9196,2.8889
6.5532,2.8697
6.1868,2.8889
6.0839,2.9052
5.8244,2.9463
5.4700,3.0413
5.4700,3.0413
5.1275,3.1727
4.8006,3.3393
4.8005,3.3393
4.4928,3.5391
4.4928,3.5391
4.2077,3.7700
3.9482,4.0295
3.7173,4.3146
3.7173,4.3146
3.5175,4.6223
3.5175,4.6224
3.3509,4.9493
3.2195,5.2918
3.2195,5.2918
3.2195,5.2918
3.1245,5.6462
3.1115,5.7281
3.0671,6.0086
3.0479,6.3750
0.7037,6.3750
0.7037,1.5245
0.7241,1.3234
0.7847,1.1305
0.8828,0.9538
1.0144,0.8004
1.1743,0.6767
1.3557,0.5877
1.5514,0.5370
1.7027,0.5255
73.6337,0.5255
Z" /> 
</g>
<g style="fill:#FFFFFF; fill-opacity:1.0000; stroke:none;">
<circle cx="46.7978" cy="51.5767" r="0.8450" /> 
</g>
<g style="fill:#FFFFFF; fill-opacity:1.0000; stroke:none;">
<circle cx="48.8032" cy="45.4050" r="0.8450" /> 
</g>
<g style="fill:#FFFFFF; fill-opacity:1.0000; stroke:none;">
<circle cx="46.7978" cy="39.2333" r="0.8450" /> 
</g>
<g style="fill:#FFFFFF; fill-opacity:1.0000; stroke:none;">
<circle cx="41.5478" cy="35.4190" r="0.8450" /> 
</g>
<g style="fill:#FFFFFF; fill-opacity:1.0000; stroke:none;">
<circle cx="35.0586" cy="35.4190" r="0.8450" /> 
</g>
<g style="fill:#FFFFFF; fill-opacity:1.0000; stroke:none;">
<circle cx="29.8086" cy="39.2333" r="0.8450" /> 
</g>
<g style="fill:#FFFFFF; fill-opacity:1.0000; stroke:none;">
<circle cx="27.8032" cy="45.4050" r="0.8450" /> 
</g>
<g style="fill:#FFFFFF; fill-opacity:1.0000; stroke:none;">
<circle cx="29.8086" cy="51.5767" r="0.8450" /> 
</g>
<g style="fill:#FFFFFF; fill-opacity:1.0000; stroke:none;">
<circle cx="35.0586" cy="55.3910" r="0.8450" /> 
</g>
<g style="fill:#FFFFFF; fill-opacity:1.0000; stroke:none;">
<circle cx="34.7032" cy="70.8080" r="0.6500" /> 
</g>
<g style="fill:#FFFFFF; fill-opacity:1.0000; stroke:none;">
<circle cx="39.7032" cy="70.8080" r="0.6500" /> 
</g>
<g style="fill:#FFFFFF; fill-opacity:1.0000; stroke:none;">
<circle cx="10.0582" cy="54.3780" r="0.6500" /> 
</g>
<g style="fill:#FFFFFF; fill-opacity:1.0000; stroke:none;">
<circle cx="10.0582" cy="59.3780" r="0.6500" /> 
</g>
<g style="fill:#FFFFFF; fill-opacity:1.0000; stroke:none;">
<circle cx="14.3332" cy="70.8080" r="0.6500" /> 
</g>
<g style="fill:#FFFFFF; fill-opacity:1.0000; stroke:none;">
<circle cx="19.3332" cy="70.8080" r="0.6500" /> 
</g>
<g style="fill:#FFFFFF; fill-opacity:1.0000; stroke:none;">
<circle cx="24.3332" cy="70.8080" r="0.6500" /> 
</g>
<g style="fill:#FFFFFF; fill-opacity:1.0000; stroke:none;">
<circle cx="64.9732" cy="50.4186" r="0.6500" /> 
</g>
<g style="fill:#FFFFFF; fill-opacity:1.0000; stroke:none;">
<circle cx="64.9732" cy="45.4186" r="0.6500" /> 
</g>
<g style="fill:#FFFFFF; fill-opacity:1.0000; stroke:none;">
<circle cx="58.5432" cy="71.1450" r="0.6500" /> 
</g>
<g style="fill:#FFFFFF; fill-opacity:1.0000; stroke:none;">
<circle cx="53.5432" cy="71.1450" r="0.6500" /> 
</g>
<g style="fill:#FFFFFF; fill-opacity:1.0000; stroke:none;">
<circle cx="40.7632" cy="20.3450" r="0.6500" /> 
</g>
<g style="fill:#FFFFFF; fill-opacity:1.0000; stroke:none;">
<circle cx="35.7632" cy="20.3450" r="0.6500" /> 
</g>
<g style="fill:#FFFFFF; fill-opacity:1.0000; stroke:none;">
<circle cx="64.9732" cy="35.5850" r="0.6500" /> 
</g>
<g style="fill:#FFFFFF; fill-opacity:1.0000; stroke:none;">
<circle cx="64.9732" cy="30.5850" r="0.6500" /> 
</g>
<g style="fill:#FFFFFF; fill-opacity:1.0000; stroke:none;">
<circle cx="10.0582" cy="40.7050" r="0.6500" /> 
</g>
<g style="fill:#FFFFFF; fill-opacity:1.0000; stroke:none;">
<circle cx="10.0582" cy="45.7050" r="0.6500" /> 
</g>
<g style="fill:#FFFFFF; fill-opacity:1.0000; stroke:none;">
<circle cx="59.0532" cy="20.4856" r="0.6500" /> 
</g>
<g style="fill:#FFFFFF; fill-opacity:1.0000; stroke:none;">
<circle cx="54.0532" cy="20.4856" r="0.6500" /> 
</g>
<g style="fill:#FFFFFF; fill-opacity:1.0000; stroke:none;">
<circle cx="49.0532" cy="20.4856" r="0.6500" /> 
</g>
<g style="fill:#FFFFFF; fill-opacity:1.0000; stroke:none;">
<circle cx="20.5232" cy="20.3450" r="0.6500" /> 
</g>
<g style="fill:#FFFFFF; fill-opacity:1.0000; stroke:none;">
<circle cx="15.5232" cy="20.3450" r="0.6500" /> 
</g>
<g style="fill:#FFFFFF; fill-opacity:1.0000; stroke:none;">
<circle cx="40.6232" cy="84.7780" r="0.4000" /> 
</g>
<g style="fill:#FFFFFF; fill-opacity:1.0000; stroke:none;">
<circle cx="13.1232" cy="84.7780" r="0.4000" /> 
</g>
<g style="fill:#FFFFFF; fill-opacity:1.0000; stroke:none;">
<circle cx="61.1632" cy="59.7150" r="0.4000" /> 
</g>
<g style="fill:#FFFFFF; fill-opacity:1.0000; stroke:none;">
<circle cx="51.0032" cy="59.7150" r="0.4000" /> 
</g>
<g style="fill:#FFFFFF; fill-opacity:1.0000; stroke:none;">
<circle cx="47.1932" cy="61.9180" r="0.4000" /> 
</g>
<g style="fill:#FFFFFF; fill-opacity:1.0000; stroke:none;">
<circle cx="47.1932" cy="74.6180" r="0.4000" /> 
</g>
<g style="fill:#FFFFFF; fill-opacity:1.0000; stroke:none;">
<circle cx="59.6732" cy="6.3750" r="0.4000" /> 
</g>
<g style="fill:#FFFFFF; fill-opacity:1.0000; stroke:none;">
<circle cx="32.1732" cy="6.3750" r="0.4000" /> 
</g>
<g style="fill:#FFFFFF; fill-opacity:1.0000; stroke:none;">
<circle cx="20.5232" cy="38.1250" r="0.4000" /> 
</g>
<g style="fill:#FFFFFF; fill-opacity:1.0000; stroke:none;">
<circle cx="20.5232" cy="48.2850" r="0.4000" /> 
</g>
<g style="fill:#FFFFFF; fill-opacity:1.0000; stroke:none;">
<circle cx="28.1432" cy="16.5350" r="0.4000" /> 
</g>
<g style="fill:#FFFFFF; fill-opacity:1.0000; stroke:none;">
<circle cx="28.1432" cy="29.2350" r="0.4000" /> 
</g>
<g style="fill:#FFFFFF; fill-opacity:1.0000; stroke:none;">
<circle cx="6.5532" cy="29.2350" r="0.4000" /> 
</g>
<g style="fill:#FFFFFF; fill-opacity:1.0000; stroke:none;">
<circle cx="6.5532" cy="16.5350" r="0.4000" /> 
</g>
<g style="fill:#FFFFFF; fill-opacity:1.0000; stroke:none;">
<circle cx="66.2432" cy="74.9550" r="0.4000" /> 
</g>
<g style="fill:#FFFFFF; fill-opacity:1.0000; stroke:none;">
<circle cx="66.2432" cy="62.2550" r="0.4000" /> 
</g>
<g style="fill:#FFFFFF; fill-opacity:1.0000; stroke:none;">
<circle cx="12.9032" cy="30.5050" r="0.4000" /> 
</g>
<g style="fill:#FFFFFF; fill-opacity:1.0000; stroke:none;">
<circle cx="23.0632" cy="30.5050" r="0.4000" /> 
</g>
<g style="fill:#FFFFFF; fill-opacity:1.0000; stroke:none;">
<circle cx="55.6108" cy="53.3650" r="0.4000" /> 
</g>
<g style="fill:#FFFFFF; fill-opacity:1.0000; stroke:none;">
<circle cx="55.6108" cy="43.2050" r="0.4000" /> 
</g>
<g style="fill:none; 
stroke:#000000; stroke-width:0.0500; stroke-opacity:1; 
stroke-linecap:round; stroke-linejoin:round;">
<circle cx="6.5532" cy="6.3750" r="3.0000" /> 
<circle cx="6.5532" cy="85.1150" r="3.0000" /> 
<circle cx="68.7832" cy="85.1150" r="3.0000" /> 
<circle cx="68.7832" cy="6.3750" r="3.0000" /> 
<path d="M0.2032 0.0250
L75.1332 0.0250
" />
<path d="M75.1332 90.1950
L0.2032 90.1950
" />
<path d="M75.1332 0.0250
L75.1332 90.1950
" />
<path d="M0.2032 90.1950
L0.2032 0.0250
" />
</g> 
</svg>
