%TF.GenerationSoftware,KiCad,Pcbnew,8.0.3*%
%TF.CreationDate,2024-06-11T18:53:39-07:00*%
%TF.ProjectId,multi-channel-preamp,6d756c74-692d-4636-9861-6e6e656c2d70,rev?*%
%TF.SameCoordinates,Original*%
%TF.FileFunction,Copper,L2,Bot*%
%TF.FilePolarity,Positive*%
%FSLAX46Y46*%
G04 Gerber Fmt 4.6, Leading zero omitted, Abs format (unit mm)*
G04 Created by KiCad (PCBNEW 8.0.3) date 2024-06-11 18:53:39*
%MOMM*%
%LPD*%
G01*
G04 APERTURE LIST*
%TA.AperFunction,ComponentPad*%
%ADD10O,3.500000X7.000000*%
%TD*%
%TA.AperFunction,ComponentPad*%
%ADD11R,3.500000X7.000000*%
%TD*%
%TA.AperFunction,ComponentPad*%
%ADD12O,7.000000X3.500000*%
%TD*%
%TA.AperFunction,ComponentPad*%
%ADD13R,7.000000X3.500000*%
%TD*%
%TA.AperFunction,ComponentPad*%
%ADD14O,1.600000X1.600000*%
%TD*%
%TA.AperFunction,ComponentPad*%
%ADD15C,1.600000*%
%TD*%
%TA.AperFunction,ComponentPad*%
%ADD16C,2.030000*%
%TD*%
%TA.AperFunction,Conductor*%
%ADD17C,2.000000*%
%TD*%
G04 APERTURE END LIST*
D10*
%TO.P,J11,2,Pin_2*%
%TO.N,Net-(J11-Pin_2)*%
X124590000Y-115570000D03*
D11*
%TO.P,J11,1,Pin_1*%
%TO.N,Net-(J11-Pin_1)*%
X119590000Y-115570000D03*
%TD*%
D12*
%TO.P,J10,2,Pin_2*%
%TO.N,Net-(J10-Pin_2)*%
X101600000Y-104140000D03*
D13*
%TO.P,J10,1,Pin_1*%
%TO.N,GND*%
X101600000Y-99140000D03*
%TD*%
D10*
%TO.P,J9,3,Pin_3*%
%TO.N,Net-(J9-Pin_3)*%
X109220000Y-115570000D03*
%TO.P,J9,2,Pin_2*%
%TO.N,Net-(J10-Pin_2)*%
X104220000Y-115570000D03*
D11*
%TO.P,J9,1,Pin_1*%
%TO.N,GND*%
X99220000Y-115570000D03*
%TD*%
D13*
%TO.P,J8,1,Pin_1*%
%TO.N,GND*%
X159116100Y-100120000D03*
D12*
%TO.P,J8,2,Pin_2*%
%TO.N,Net-(J8-Pin_2)*%
X159116100Y-95120000D03*
%TD*%
D11*
%TO.P,J6,1,Pin_1*%
%TO.N,Net-(J6-Pin_1)*%
X153295000Y-116840000D03*
D10*
%TO.P,J6,2,Pin_2*%
%TO.N,GND*%
X158295000Y-116840000D03*
%TD*%
D11*
%TO.P,J5,1,Pin_1*%
%TO.N,GND*%
X125650000Y-62230000D03*
D10*
%TO.P,J5,2,Pin_2*%
%TO.N,Net-(J5-Pin_2)*%
X120650000Y-62230000D03*
%TD*%
D13*
%TO.P,J4,1,Pin_1*%
%TO.N,GND*%
X142240000Y-77470000D03*
D12*
%TO.P,J4,2,Pin_2*%
%TO.N,Net-(J2-Pin_2)*%
X142240000Y-72470000D03*
%TD*%
D13*
%TO.P,J3,1,Pin_1*%
%TO.N,GND*%
X87553500Y-80474000D03*
D12*
%TO.P,J3,2,Pin_2*%
%TO.N,Net-(J3-Pin_2)*%
X87553500Y-85474000D03*
%TD*%
D11*
%TO.P,J2,1,Pin_1*%
%TO.N,GND*%
X143940000Y-62370600D03*
D10*
%TO.P,J2,2,Pin_2*%
%TO.N,Net-(J2-Pin_2)*%
X138940000Y-62370600D03*
%TO.P,J2,3,Pin_3*%
%TO.N,Net-(J2-Pin_3)*%
X133940000Y-62370600D03*
%TD*%
D11*
%TO.P,J1,1,Pin_1*%
%TO.N,Net-(J1-Pin_1)*%
X95250000Y-62230000D03*
D10*
%TO.P,J1,2,Pin_2*%
%TO.N,GND*%
X90250000Y-62230000D03*
%TD*%
D14*
%TO.P,C2,2*%
%TO.N,Net-(J9-Pin_3)*%
X98010000Y-129540000D03*
D15*
%TO.P,C2,1*%
%TO.N,Net-(U1B-A)*%
X125510000Y-129540000D03*
%TD*%
%TO.P,R5,1*%
%TO.N,GND*%
X163644600Y-108356400D03*
D14*
%TO.P,R5,2*%
%TO.N,Net-(J6-Pin_1)*%
X153484600Y-108356400D03*
%TD*%
D15*
%TO.P,R8,1*%
%TO.N,Net-(J5-Pin_2)*%
X140515000Y-120650000D03*
D14*
%TO.P,R8,2*%
%TO.N,Net-(U1B-A)*%
X140515000Y-107950000D03*
%TD*%
D15*
%TO.P,C1,1*%
%TO.N,Net-(U1A-A)*%
X117060000Y-48260000D03*
D14*
%TO.P,C1,2*%
%TO.N,Net-(J2-Pin_3)*%
X144560000Y-48260000D03*
%TD*%
D15*
%TO.P,R1,1*%
%TO.N,Net-(J1-Pin_1)*%
X105410000Y-80010000D03*
D14*
%TO.P,R1,2*%
%TO.N,Net-(U1A-G)*%
X105410000Y-90170000D03*
%TD*%
D15*
%TO.P,R4,1*%
%TO.N,Net-(J5-Pin_2)*%
X105410000Y-54610000D03*
D14*
%TO.P,R4,2*%
%TO.N,Net-(U1A-A)*%
X105410000Y-67310000D03*
%TD*%
D16*
%TO.P,U1,1,A*%
%TO.N,Net-(U1B-A)*%
X126640000Y-94920000D03*
%TO.P,U1,2,G*%
%TO.N,Net-(U1B-G)*%
X128790000Y-91990000D03*
%TO.P,U1,3,K*%
%TO.N,Net-(J8-Pin_2)*%
X128790000Y-88340000D03*
%TO.P,U1,4,F1*%
%TO.N,Net-(J11-Pin_2)*%
X126640000Y-85410000D03*
%TO.P,U1,5,F1*%
X123190000Y-84270000D03*
%TO.P,U1,6,A*%
%TO.N,Net-(U1A-A)*%
X119730000Y-85410000D03*
%TO.P,U1,7,G*%
%TO.N,Net-(U1A-G)*%
X117580000Y-88340000D03*
%TO.P,U1,8,K*%
%TO.N,Net-(J3-Pin_2)*%
X117580000Y-91950000D03*
%TO.P,U1,9,F2*%
%TO.N,Net-(J11-Pin_1)*%
X119730000Y-94920000D03*
%TD*%
D15*
%TO.P,R3,1*%
%TO.N,Net-(J3-Pin_2)*%
X97739200Y-90068400D03*
D14*
%TO.P,R3,2*%
%TO.N,GND*%
X97739200Y-77368400D03*
%TD*%
D15*
%TO.P,R7,1*%
%TO.N,Net-(J8-Pin_2)*%
X146746000Y-89458800D03*
D14*
%TO.P,R7,2*%
%TO.N,GND*%
X146746000Y-102158800D03*
%TD*%
D15*
%TO.P,R2,1*%
%TO.N,GND*%
X87630000Y-72390000D03*
D14*
%TO.P,R2,2*%
%TO.N,Net-(J1-Pin_1)*%
X97790000Y-72390000D03*
%TD*%
D15*
%TO.P,R6,1*%
%TO.N,Net-(J6-Pin_1)*%
X140497600Y-99466400D03*
D14*
%TO.P,R6,2*%
%TO.N,Net-(U1B-G)*%
X140497600Y-89306400D03*
%TD*%
D17*
%TO.N,Net-(J5-Pin_2)*%
X120650000Y-62230000D02*
X120650000Y-65499002D01*
X120650000Y-65499002D02*
X143510000Y-88359002D01*
X143510000Y-88359002D02*
X143510000Y-117655000D01*
X143510000Y-117655000D02*
X140515000Y-120650000D01*
%TO.N,Net-(J11-Pin_2)*%
X124590000Y-115570000D02*
X124590000Y-110070000D01*
X124590000Y-110070000D02*
X123190000Y-108670000D01*
X123190000Y-88860000D02*
X126640000Y-85410000D01*
X123190000Y-108670000D02*
X123190000Y-88860000D01*
%TO.N,Net-(J11-Pin_1)*%
X119590000Y-115570000D02*
X119590000Y-95060000D01*
X119590000Y-95060000D02*
X119730000Y-94920000D01*
%TO.N,Net-(J11-Pin_2)*%
X123190000Y-84270000D02*
X125500000Y-84270000D01*
X125500000Y-84270000D02*
X126640000Y-85410000D01*
%TD*%
%TA.AperFunction,Conductor*%
%TO.N,GND*%
G36*
X170786597Y-37350950D02*
G01*
X170979461Y-37411461D01*
X171156197Y-37509557D01*
X171309568Y-37641222D01*
X171433296Y-37801065D01*
X171522314Y-37982542D01*
X171572980Y-38178224D01*
X171584500Y-38329500D01*
X171584500Y-138200500D01*
X171564050Y-138401597D01*
X171503539Y-138594461D01*
X171405443Y-138771197D01*
X171273778Y-138924568D01*
X171113935Y-139048296D01*
X170932458Y-139137314D01*
X170736776Y-139187980D01*
X170585500Y-139199500D01*
X78334500Y-139199500D01*
X78133403Y-139179050D01*
X77940539Y-139118539D01*
X77763803Y-139020443D01*
X77610432Y-138888778D01*
X77486704Y-138728935D01*
X77397686Y-138547458D01*
X77347020Y-138351776D01*
X77335500Y-138200500D01*
X77335500Y-133653779D01*
X77355950Y-133452682D01*
X77416461Y-133259818D01*
X77514557Y-133083082D01*
X77646222Y-132929711D01*
X77806065Y-132805983D01*
X77987542Y-132716965D01*
X78183224Y-132666299D01*
X78385099Y-132656061D01*
X78584902Y-132686670D01*
X78774454Y-132756872D01*
X78945994Y-132863794D01*
X79092499Y-133003058D01*
X79207972Y-133168962D01*
X79267146Y-133295769D01*
X79347745Y-133505736D01*
X79405512Y-133619111D01*
X79514313Y-133832644D01*
X79514320Y-133832656D01*
X79714145Y-134140361D01*
X79714149Y-134140366D01*
X79945044Y-134425498D01*
X79945046Y-134425500D01*
X79945051Y-134425506D01*
X80204494Y-134684949D01*
X80204499Y-134684953D01*
X80204501Y-134684955D01*
X80489633Y-134915850D01*
X80489638Y-134915854D01*
X80797343Y-135115679D01*
X80797355Y-135115686D01*
X81124262Y-135282254D01*
X81124264Y-135282255D01*
X81466801Y-135413742D01*
X81821206Y-135508705D01*
X82183596Y-135566102D01*
X82550000Y-135585304D01*
X82916404Y-135566102D01*
X83278794Y-135508705D01*
X83633199Y-135413742D01*
X83975736Y-135282255D01*
X84302652Y-135115682D01*
X84610366Y-134915851D01*
X84895506Y-134684949D01*
X85154949Y-134425506D01*
X85385851Y-134140366D01*
X85585682Y-133832652D01*
X85752255Y-133505736D01*
X85883742Y-133163199D01*
X85978705Y-132808794D01*
X86036102Y-132446404D01*
X86055304Y-132080000D01*
X86036102Y-131713596D01*
X85978705Y-131351206D01*
X85883742Y-130996801D01*
X85752255Y-130654264D01*
X85730125Y-130610831D01*
X85585686Y-130327355D01*
X85585679Y-130327343D01*
X85385854Y-130019638D01*
X85385850Y-130019633D01*
X85154955Y-129734501D01*
X85154953Y-129734499D01*
X85154949Y-129734494D01*
X84960455Y-129540000D01*
X95204754Y-129540000D01*
X95223721Y-129865655D01*
X95223722Y-129865669D01*
X95280370Y-130186936D01*
X95322405Y-130327343D01*
X95373931Y-130499451D01*
X95503141Y-130798992D01*
X95503143Y-130798995D01*
X95503145Y-130799000D01*
X95666250Y-131081507D01*
X95666251Y-131081509D01*
X95743960Y-131185889D01*
X95861057Y-131343177D01*
X95861067Y-131343188D01*
X95861070Y-131343191D01*
X96084917Y-131580457D01*
X96084923Y-131580463D01*
X96236964Y-131708040D01*
X96334823Y-131790153D01*
X96607377Y-131969414D01*
X96898899Y-132115822D01*
X97205446Y-132227396D01*
X97522874Y-132302628D01*
X97809016Y-132336073D01*
X97846888Y-132340500D01*
X97846889Y-132340500D01*
X98173112Y-132340500D01*
X98207020Y-132336536D01*
X98497126Y-132302628D01*
X98814554Y-132227396D01*
X99121101Y-132115822D01*
X99412623Y-131969414D01*
X99685177Y-131790153D01*
X99935077Y-131580462D01*
X100158943Y-131343177D01*
X100353749Y-131081508D01*
X100516859Y-130798992D01*
X100646069Y-130499451D01*
X100739630Y-130186934D01*
X100796278Y-129865669D01*
X100815246Y-129540000D01*
X122704754Y-129540000D01*
X122723721Y-129865655D01*
X122723722Y-129865669D01*
X122780370Y-130186936D01*
X122822405Y-130327343D01*
X122873931Y-130499451D01*
X123003141Y-130798992D01*
X123003143Y-130798995D01*
X123003145Y-130799000D01*
X123166250Y-131081507D01*
X123166251Y-131081509D01*
X123243960Y-131185889D01*
X123361057Y-131343177D01*
X123361067Y-131343188D01*
X123361070Y-131343191D01*
X123584917Y-131580457D01*
X123584923Y-131580463D01*
X123736964Y-131708040D01*
X123834823Y-131790153D01*
X124107377Y-131969414D01*
X124398899Y-132115822D01*
X124705446Y-132227396D01*
X125022874Y-132302628D01*
X125309016Y-132336073D01*
X125346888Y-132340500D01*
X125346889Y-132340500D01*
X125673112Y-132340500D01*
X125707020Y-132336536D01*
X125997126Y-132302628D01*
X126314554Y-132227396D01*
X126621101Y-132115822D01*
X126692428Y-132080000D01*
X161594696Y-132080000D01*
X161613897Y-132446398D01*
X161613898Y-132446404D01*
X161671295Y-132808794D01*
X161744791Y-133083082D01*
X161766260Y-133163205D01*
X161897745Y-133505737D01*
X162064313Y-133832644D01*
X162064320Y-133832656D01*
X162264145Y-134140361D01*
X162264149Y-134140366D01*
X162495044Y-134425498D01*
X162495046Y-134425500D01*
X162495051Y-134425506D01*
X162754494Y-134684949D01*
X162754499Y-134684953D01*
X162754501Y-134684955D01*
X163039633Y-134915850D01*
X163039638Y-134915854D01*
X163347343Y-135115679D01*
X163347355Y-135115686D01*
X163674262Y-135282254D01*
X163674264Y-135282255D01*
X164016801Y-135413742D01*
X164371206Y-135508705D01*
X164733596Y-135566102D01*
X165100000Y-135585304D01*
X165466404Y-135566102D01*
X165828794Y-135508705D01*
X166183199Y-135413742D01*
X166525736Y-135282255D01*
X166852652Y-135115682D01*
X167160366Y-134915851D01*
X167445506Y-134684949D01*
X167704949Y-134425506D01*
X167935851Y-134140366D01*
X168135682Y-133832652D01*
X168302255Y-133505736D01*
X168433742Y-133163199D01*
X168528705Y-132808794D01*
X168586102Y-132446404D01*
X168605304Y-132080000D01*
X168586102Y-131713596D01*
X168528705Y-131351206D01*
X168433742Y-130996801D01*
X168302255Y-130654264D01*
X168280125Y-130610831D01*
X168135686Y-130327355D01*
X168135679Y-130327343D01*
X167935854Y-130019638D01*
X167935850Y-130019633D01*
X167704955Y-129734501D01*
X167704953Y-129734499D01*
X167704949Y-129734494D01*
X167445506Y-129475051D01*
X167445500Y-129475046D01*
X167445498Y-129475044D01*
X167160366Y-129244149D01*
X167160361Y-129244145D01*
X166852656Y-129044320D01*
X166852644Y-129044313D01*
X166525737Y-128877745D01*
X166183205Y-128746260D01*
X166183202Y-128746259D01*
X166183199Y-128746258D01*
X165828794Y-128651295D01*
X165466404Y-128593898D01*
X165466398Y-128593897D01*
X165100000Y-128574696D01*
X164733601Y-128593897D01*
X164630716Y-128610192D01*
X164371206Y-128651295D01*
X164016801Y-128746258D01*
X164016794Y-128746260D01*
X163674262Y-128877745D01*
X163347355Y-129044313D01*
X163347343Y-129044320D01*
X163039638Y-129244145D01*
X163039633Y-129244149D01*
X162754501Y-129475044D01*
X162495044Y-129734501D01*
X162264149Y-130019633D01*
X162264145Y-130019638D01*
X162064320Y-130327343D01*
X162064313Y-130327355D01*
X161897745Y-130654262D01*
X161766260Y-130996794D01*
X161766258Y-130996799D01*
X161766258Y-130996801D01*
X161671295Y-131351206D01*
X161658997Y-131428853D01*
X161613897Y-131713601D01*
X161594696Y-132080000D01*
X126692428Y-132080000D01*
X126912623Y-131969414D01*
X127185177Y-131790153D01*
X127435077Y-131580462D01*
X127658943Y-131343177D01*
X127853749Y-131081508D01*
X128016859Y-130798992D01*
X128146069Y-130499451D01*
X128239630Y-130186934D01*
X128296278Y-129865669D01*
X128315246Y-129540000D01*
X128296278Y-129214331D01*
X128239630Y-128893066D01*
X128146069Y-128580549D01*
X128016859Y-128281008D01*
X127853749Y-127998492D01*
X127658943Y-127736823D01*
X127658929Y-127736808D01*
X127435082Y-127499542D01*
X127435076Y-127499536D01*
X127258570Y-127351431D01*
X127185177Y-127289847D01*
X126912626Y-127110588D01*
X126912627Y-127110588D01*
X126621108Y-126964181D01*
X126621104Y-126964179D01*
X126314554Y-126852604D01*
X125997126Y-126777372D01*
X125673112Y-126739500D01*
X125673111Y-126739500D01*
X125346889Y-126739500D01*
X125346888Y-126739500D01*
X125022873Y-126777372D01*
X124705445Y-126852604D01*
X124398895Y-126964179D01*
X124398891Y-126964181D01*
X124107372Y-127110588D01*
X123834824Y-127289846D01*
X123834819Y-127289850D01*
X123584923Y-127499536D01*
X123584917Y-127499542D01*
X123361070Y-127736808D01*
X123361052Y-127736829D01*
X123166251Y-127998490D01*
X123166250Y-127998492D01*
X123003145Y-128280999D01*
X122873929Y-128580554D01*
X122780370Y-128893063D01*
X122723722Y-129214330D01*
X122723721Y-129214344D01*
X122704754Y-129540000D01*
X100815246Y-129540000D01*
X100796278Y-129214331D01*
X100739630Y-128893066D01*
X100646069Y-128580549D01*
X100516859Y-128281008D01*
X100353749Y-127998492D01*
X100158943Y-127736823D01*
X100158929Y-127736808D01*
X99935082Y-127499542D01*
X99935076Y-127499536D01*
X99758570Y-127351431D01*
X99685177Y-127289847D01*
X99412626Y-127110588D01*
X99412627Y-127110588D01*
X99121108Y-126964181D01*
X99121104Y-126964179D01*
X98814554Y-126852604D01*
X98497126Y-126777372D01*
X98173112Y-126739500D01*
X98173111Y-126739500D01*
X97846889Y-126739500D01*
X97846888Y-126739500D01*
X97522873Y-126777372D01*
X97205445Y-126852604D01*
X96898895Y-126964179D01*
X96898891Y-126964181D01*
X96607372Y-127110588D01*
X96334824Y-127289846D01*
X96334819Y-127289850D01*
X96084923Y-127499536D01*
X96084917Y-127499542D01*
X95861070Y-127736808D01*
X95861052Y-127736829D01*
X95666251Y-127998490D01*
X95666250Y-127998492D01*
X95503145Y-128280999D01*
X95373929Y-128580554D01*
X95280370Y-128893063D01*
X95223722Y-129214330D01*
X95223721Y-129214344D01*
X95204754Y-129540000D01*
X84960455Y-129540000D01*
X84895506Y-129475051D01*
X84895500Y-129475046D01*
X84895498Y-129475044D01*
X84610366Y-129244149D01*
X84610361Y-129244145D01*
X84302656Y-129044320D01*
X84302644Y-129044313D01*
X83975737Y-128877745D01*
X83633205Y-128746260D01*
X83633202Y-128746259D01*
X83633199Y-128746258D01*
X83278794Y-128651295D01*
X82916404Y-128593898D01*
X82916398Y-128593897D01*
X82550000Y-128574696D01*
X82183601Y-128593897D01*
X82080716Y-128610192D01*
X81821206Y-128651295D01*
X81466801Y-128746258D01*
X81466794Y-128746260D01*
X81124262Y-128877745D01*
X80797355Y-129044313D01*
X80797343Y-129044320D01*
X80489638Y-129244145D01*
X80489633Y-129244149D01*
X80204501Y-129475044D01*
X79945044Y-129734501D01*
X79714149Y-130019633D01*
X79714145Y-130019638D01*
X79514320Y-130327343D01*
X79514313Y-130327355D01*
X79347745Y-130654263D01*
X79347741Y-130654270D01*
X79267146Y-130864230D01*
X79175988Y-131044642D01*
X79050379Y-131203011D01*
X78895462Y-131332853D01*
X78717579Y-131428853D01*
X78524013Y-131487080D01*
X78322688Y-131505150D01*
X78121847Y-131482324D01*
X77929711Y-131419537D01*
X77754148Y-131319358D01*
X77602344Y-131185889D01*
X77480515Y-131024594D01*
X77393649Y-130842077D01*
X77345300Y-130645810D01*
X77335500Y-130506220D01*
X77335500Y-113635750D01*
X100469500Y-113635750D01*
X100469500Y-117504250D01*
X100490569Y-117718173D01*
X100505619Y-117870981D01*
X100577505Y-118232376D01*
X100577508Y-118232389D01*
X100577510Y-118232396D01*
X100577513Y-118232405D01*
X100684480Y-118585029D01*
X100684480Y-118585030D01*
X100825499Y-118925479D01*
X100825504Y-118925491D01*
X100940937Y-119141449D01*
X100999209Y-119250468D01*
X101203937Y-119556865D01*
X101203943Y-119556872D01*
X101437708Y-119841716D01*
X101698283Y-120102291D01*
X101752279Y-120146604D01*
X101983135Y-120336063D01*
X102289532Y-120540791D01*
X102289534Y-120540792D01*
X102289533Y-120540792D01*
X102614508Y-120714495D01*
X102614516Y-120714498D01*
X102614521Y-120714501D01*
X102954971Y-120855520D01*
X103307604Y-120962490D01*
X103307620Y-120962493D01*
X103307623Y-120962494D01*
X103669018Y-121034380D01*
X103669019Y-121034380D01*
X103669024Y-121034381D01*
X104035750Y-121070500D01*
X104035756Y-121070500D01*
X104404244Y-121070500D01*
X104404250Y-121070500D01*
X104770976Y-121034381D01*
X105132396Y-120962490D01*
X105485029Y-120855520D01*
X105825479Y-120714501D01*
X105825487Y-120714496D01*
X105825491Y-120714495D01*
X106066372Y-120585741D01*
X106150468Y-120540791D01*
X106164982Y-120531092D01*
X106343549Y-120436372D01*
X106537528Y-120379535D01*
X106738977Y-120362909D01*
X106939650Y-120387175D01*
X107131330Y-120451340D01*
X107275017Y-120531092D01*
X107289532Y-120540791D01*
X107289534Y-120540792D01*
X107614508Y-120714495D01*
X107614516Y-120714498D01*
X107614521Y-120714501D01*
X107954971Y-120855520D01*
X108307604Y-120962490D01*
X108307620Y-120962493D01*
X108307623Y-120962494D01*
X108669018Y-121034380D01*
X108669019Y-121034380D01*
X108669024Y-121034381D01*
X109035750Y-121070500D01*
X109035756Y-121070500D01*
X109404244Y-121070500D01*
X109404250Y-121070500D01*
X109770976Y-121034381D01*
X110132396Y-120962490D01*
X110485029Y-120855520D01*
X110825479Y-120714501D01*
X110825487Y-120714496D01*
X110825491Y-120714495D01*
X111150466Y-120540792D01*
X111150465Y-120540792D01*
X111150468Y-120540791D01*
X111456865Y-120336063D01*
X111741719Y-120102289D01*
X112002289Y-119841719D01*
X112236063Y-119556865D01*
X112440791Y-119250468D01*
X112499063Y-119141449D01*
X112614495Y-118925491D01*
X112614496Y-118925487D01*
X112614501Y-118925479D01*
X112755520Y-118585029D01*
X112862490Y-118232396D01*
X112934381Y-117870976D01*
X112970500Y-117504250D01*
X112970500Y-113635750D01*
X112934381Y-113269024D01*
X112862490Y-112907604D01*
X112755520Y-112554971D01*
X112614501Y-112214521D01*
X112614498Y-112214516D01*
X112614495Y-112214508D01*
X112440792Y-111889533D01*
X112370655Y-111784566D01*
X112236063Y-111583135D01*
X112084447Y-111398391D01*
X112002291Y-111298283D01*
X111741716Y-111037708D01*
X111456872Y-110803943D01*
X111456865Y-110803937D01*
X111150468Y-110599209D01*
X111150467Y-110599208D01*
X111150465Y-110599207D01*
X111150466Y-110599207D01*
X110825491Y-110425504D01*
X110825479Y-110425499D01*
X110485030Y-110284480D01*
X110207040Y-110200153D01*
X110132396Y-110177510D01*
X110132389Y-110177508D01*
X110132376Y-110177505D01*
X109770981Y-110105619D01*
X109604282Y-110089201D01*
X109404250Y-110069500D01*
X109035750Y-110069500D01*
X108852387Y-110087559D01*
X108669018Y-110105619D01*
X108307623Y-110177505D01*
X108307607Y-110177509D01*
X108307604Y-110177510D01*
X108307595Y-110177512D01*
X108307594Y-110177513D01*
X107954970Y-110284480D01*
X107954969Y-110284480D01*
X107614520Y-110425499D01*
X107614508Y-110425504D01*
X107289533Y-110599207D01*
X107289531Y-110599208D01*
X107275002Y-110608917D01*
X107096433Y-110703634D01*
X106902453Y-110760468D01*
X106701003Y-110777089D01*
X106500331Y-110752819D01*
X106308652Y-110688651D01*
X106164998Y-110608917D01*
X106150468Y-110599208D01*
X106150466Y-110599207D01*
X105825491Y-110425504D01*
X105825479Y-110425499D01*
X105485030Y-110284480D01*
X105207040Y-110200153D01*
X105132396Y-110177510D01*
X105132389Y-110177508D01*
X105132376Y-110177505D01*
X104770981Y-110105619D01*
X104604282Y-110089201D01*
X104404250Y-110069500D01*
X104035750Y-110069500D01*
X103852387Y-110087559D01*
X103669018Y-110105619D01*
X103307623Y-110177505D01*
X103307607Y-110177509D01*
X103307604Y-110177510D01*
X103307595Y-110177512D01*
X103307594Y-110177513D01*
X102954970Y-110284480D01*
X102954969Y-110284480D01*
X102614520Y-110425499D01*
X102614508Y-110425504D01*
X102289533Y-110599207D01*
X101983136Y-110803936D01*
X101983127Y-110803943D01*
X101698283Y-111037708D01*
X101437708Y-111298283D01*
X101203943Y-111583127D01*
X101203936Y-111583136D01*
X100999207Y-111889533D01*
X100825504Y-112214508D01*
X100825499Y-112214520D01*
X100684480Y-112554969D01*
X100684480Y-112554970D01*
X100577513Y-112907594D01*
X100577505Y-112907623D01*
X100505619Y-113269018D01*
X100487559Y-113452387D01*
X100469500Y-113635750D01*
X77335500Y-113635750D01*
X77335500Y-103955750D01*
X96099500Y-103955750D01*
X96099500Y-104324250D01*
X96115275Y-104484415D01*
X96135619Y-104690981D01*
X96207505Y-105052376D01*
X96207508Y-105052389D01*
X96207510Y-105052396D01*
X96207513Y-105052405D01*
X96314480Y-105405029D01*
X96314480Y-105405030D01*
X96455499Y-105745479D01*
X96455504Y-105745491D01*
X96629207Y-106070466D01*
X96765073Y-106273804D01*
X96833937Y-106376865D01*
X96833943Y-106376872D01*
X97067708Y-106661716D01*
X97067711Y-106661719D01*
X97328281Y-106922289D01*
X97613135Y-107156063D01*
X97919532Y-107360791D01*
X97919534Y-107360792D01*
X97919533Y-107360792D01*
X98244508Y-107534495D01*
X98244516Y-107534498D01*
X98244521Y-107534501D01*
X98584971Y-107675520D01*
X98937604Y-107782490D01*
X98937620Y-107782493D01*
X98937623Y-107782494D01*
X99299018Y-107854380D01*
X99299019Y-107854380D01*
X99299024Y-107854381D01*
X99665750Y-107890500D01*
X99665756Y-107890500D01*
X103534244Y-107890500D01*
X103534250Y-107890500D01*
X103900976Y-107854381D01*
X104262396Y-107782490D01*
X104615029Y-107675520D01*
X104955479Y-107534501D01*
X104955487Y-107534496D01*
X104955491Y-107534495D01*
X105280466Y-107360792D01*
X105280465Y-107360792D01*
X105280468Y-107360791D01*
X105586865Y-107156063D01*
X105871719Y-106922289D01*
X106132289Y-106661719D01*
X106366063Y-106376865D01*
X106570791Y-106070468D01*
X106725740Y-105780579D01*
X106744495Y-105745491D01*
X106744496Y-105745487D01*
X106744501Y-105745479D01*
X106885520Y-105405029D01*
X106992490Y-105052396D01*
X107064381Y-104690976D01*
X107100500Y-104324250D01*
X107100500Y-103955750D01*
X107064381Y-103589024D01*
X106992490Y-103227604D01*
X106885520Y-102874971D01*
X106744501Y-102534521D01*
X106744498Y-102534516D01*
X106744495Y-102534508D01*
X106570792Y-102209533D01*
X106458998Y-102042222D01*
X106366063Y-101903135D01*
X106132289Y-101618281D01*
X105871719Y-101357711D01*
X105871716Y-101357708D01*
X105586872Y-101123943D01*
X105586865Y-101123937D01*
X105280468Y-100919209D01*
X105280467Y-100919208D01*
X105280465Y-100919207D01*
X105280466Y-100919207D01*
X104955491Y-100745504D01*
X104955479Y-100745499D01*
X104615030Y-100604480D01*
X104428424Y-100547874D01*
X104262396Y-100497510D01*
X104262389Y-100497508D01*
X104262376Y-100497505D01*
X103900981Y-100425619D01*
X103734282Y-100409201D01*
X103534250Y-100389500D01*
X99665750Y-100389500D01*
X99482387Y-100407559D01*
X99299018Y-100425619D01*
X98937623Y-100497505D01*
X98937607Y-100497509D01*
X98937604Y-100497510D01*
X98937595Y-100497512D01*
X98937594Y-100497513D01*
X98584970Y-100604480D01*
X98584969Y-100604480D01*
X98244520Y-100745499D01*
X98244508Y-100745504D01*
X97919533Y-100919207D01*
X97613136Y-101123936D01*
X97613127Y-101123943D01*
X97328283Y-101357708D01*
X97067708Y-101618283D01*
X96833943Y-101903127D01*
X96833936Y-101903136D01*
X96629207Y-102209533D01*
X96455504Y-102534508D01*
X96455499Y-102534520D01*
X96314480Y-102874969D01*
X96314480Y-102874970D01*
X96207513Y-103227594D01*
X96207505Y-103227623D01*
X96135619Y-103589018D01*
X96117559Y-103772387D01*
X96099500Y-103955750D01*
X77335500Y-103955750D01*
X77335500Y-90068400D01*
X94933954Y-90068400D01*
X94952921Y-90394055D01*
X94952922Y-90394069D01*
X95009570Y-90715336D01*
X95103129Y-91027845D01*
X95103131Y-91027851D01*
X95232341Y-91327392D01*
X95232343Y-91327395D01*
X95232345Y-91327400D01*
X95395450Y-91609907D01*
X95395451Y-91609909D01*
X95489185Y-91735814D01*
X95590257Y-91871577D01*
X95590267Y-91871588D01*
X95590270Y-91871591D01*
X95814117Y-92108857D01*
X95814123Y-92108863D01*
X95948274Y-92221428D01*
X96064023Y-92318553D01*
X96336577Y-92497814D01*
X96628099Y-92644222D01*
X96934646Y-92755796D01*
X97252074Y-92831028D01*
X97538216Y-92864473D01*
X97576088Y-92868900D01*
X97576089Y-92868900D01*
X97902312Y-92868900D01*
X97936220Y-92864936D01*
X98226326Y-92831028D01*
X98543754Y-92755796D01*
X98850301Y-92644222D01*
X99141823Y-92497814D01*
X99414377Y-92318553D01*
X99664277Y-92108862D01*
X99668924Y-92103937D01*
X99772836Y-91993796D01*
X99888143Y-91871577D01*
X100082949Y-91609908D01*
X100246059Y-91327392D01*
X100375269Y-91027851D01*
X100468830Y-90715334D01*
X100525478Y-90394069D01*
X100538528Y-90170000D01*
X102604754Y-90170000D01*
X102623721Y-90495655D01*
X102623722Y-90495669D01*
X102680370Y-90816936D01*
X102743512Y-91027845D01*
X102773931Y-91129451D01*
X102903141Y-91428992D01*
X102903143Y-91428995D01*
X102903145Y-91429000D01*
X103066250Y-91711507D01*
X103066251Y-91711509D01*
X103084346Y-91735814D01*
X103261057Y-91973177D01*
X103261067Y-91973188D01*
X103261070Y-91973191D01*
X103484917Y-92210457D01*
X103484923Y-92210463D01*
X103613736Y-92318549D01*
X103734823Y-92420153D01*
X104007377Y-92599414D01*
X104298899Y-92745822D01*
X104605446Y-92857396D01*
X104922874Y-92932628D01*
X105209016Y-92966073D01*
X105246888Y-92970500D01*
X105246889Y-92970500D01*
X105573112Y-92970500D01*
X105607020Y-92966536D01*
X105897126Y-92932628D01*
X106214554Y-92857396D01*
X106521101Y-92745822D01*
X106812623Y-92599414D01*
X107085177Y-92420153D01*
X107335077Y-92210462D01*
X107558943Y-91973177D01*
X107753749Y-91711508D01*
X107916859Y-91428992D01*
X108046069Y-91129451D01*
X108139630Y-90816934D01*
X108196278Y-90495669D01*
X108215246Y-90170000D01*
X108196278Y-89844331D01*
X108139630Y-89523066D01*
X108046069Y-89210549D01*
X107916859Y-88911008D01*
X107858200Y-88809408D01*
X107753749Y-88628492D01*
X107753748Y-88628490D01*
X107558947Y-88366829D01*
X107558943Y-88366823D01*
X107533637Y-88340000D01*
X107533630Y-88339993D01*
X114559749Y-88339993D01*
X114559749Y-88340006D01*
X114578739Y-88678155D01*
X114635471Y-89012061D01*
X114635474Y-89012072D01*
X114729235Y-89337527D01*
X114858847Y-89650436D01*
X114865114Y-89661775D01*
X114944488Y-89847673D01*
X114984817Y-90045744D01*
X114984449Y-90247878D01*
X114943399Y-90445800D01*
X114865114Y-90628225D01*
X114858847Y-90639563D01*
X114729235Y-90952472D01*
X114635474Y-91277927D01*
X114635471Y-91277938D01*
X114578739Y-91611844D01*
X114559749Y-91949993D01*
X114559749Y-91950006D01*
X114578739Y-92288155D01*
X114635471Y-92622061D01*
X114635472Y-92622067D01*
X114635473Y-92622069D01*
X114646997Y-92662069D01*
X114729235Y-92947527D01*
X114858847Y-93260436D01*
X114858849Y-93260440D01*
X115022678Y-93556867D01*
X115022679Y-93556869D01*
X115218676Y-93833100D01*
X115218677Y-93833101D01*
X115254423Y-93873101D01*
X115444360Y-94085640D01*
X115444369Y-94085648D01*
X115444373Y-94085652D01*
X115696898Y-94311322D01*
X115696899Y-94311323D01*
X115696901Y-94311324D01*
X115696904Y-94311327D01*
X115753279Y-94351327D01*
X115973130Y-94507320D01*
X115973132Y-94507321D01*
X116073731Y-94562920D01*
X116239845Y-94678091D01*
X116379374Y-94824344D01*
X116486607Y-94995690D01*
X116557153Y-95185114D01*
X116588124Y-95384861D01*
X116589500Y-95437270D01*
X116589500Y-110077895D01*
X116569050Y-110278992D01*
X116508539Y-110471856D01*
X116410443Y-110648592D01*
X116345495Y-110732100D01*
X116324259Y-110756607D01*
X116152776Y-110985682D01*
X116152772Y-110985688D01*
X116015631Y-111236841D01*
X116015629Y-111236845D01*
X115915631Y-111504952D01*
X115915628Y-111504961D01*
X115883474Y-111652776D01*
X115854804Y-111784572D01*
X115839500Y-111998552D01*
X115839500Y-119141448D01*
X115854804Y-119355428D01*
X115854804Y-119355432D01*
X115854805Y-119355433D01*
X115915628Y-119635038D01*
X115915631Y-119635047D01*
X116015629Y-119903154D01*
X116015631Y-119903158D01*
X116106516Y-120069600D01*
X116152774Y-120154315D01*
X116324261Y-120383395D01*
X116526605Y-120585739D01*
X116755685Y-120757226D01*
X117006839Y-120894367D01*
X117006841Y-120894368D01*
X117006845Y-120894370D01*
X117189483Y-120962490D01*
X117274954Y-120994369D01*
X117274956Y-120994369D01*
X117274961Y-120994371D01*
X117388815Y-121019137D01*
X117554572Y-121055196D01*
X117768552Y-121070500D01*
X117768565Y-121070500D01*
X121411435Y-121070500D01*
X121411448Y-121070500D01*
X121625428Y-121055196D01*
X121843080Y-121007848D01*
X121905038Y-120994371D01*
X121905040Y-120994370D01*
X121905046Y-120994369D01*
X122144551Y-120905038D01*
X122173151Y-120894371D01*
X122173152Y-120894370D01*
X122173161Y-120894367D01*
X122290970Y-120830037D01*
X122477255Y-120751615D01*
X122675528Y-120712294D01*
X122877657Y-120713689D01*
X123075368Y-120755744D01*
X123152028Y-120783884D01*
X123235597Y-120818500D01*
X123324958Y-120855515D01*
X123324962Y-120855516D01*
X123324971Y-120855520D01*
X123677604Y-120962490D01*
X123677620Y-120962493D01*
X123677623Y-120962494D01*
X124039018Y-121034380D01*
X124039019Y-121034380D01*
X124039024Y-121034381D01*
X124405750Y-121070500D01*
X124405756Y-121070500D01*
X124774244Y-121070500D01*
X124774250Y-121070500D01*
X125140976Y-121034381D01*
X125502396Y-120962490D01*
X125855029Y-120855520D01*
X126195479Y-120714501D01*
X126195487Y-120714496D01*
X126195491Y-120714495D01*
X126520466Y-120540792D01*
X126520465Y-120540792D01*
X126520468Y-120540791D01*
X126826865Y-120336063D01*
X127111719Y-120102289D01*
X127372289Y-119841719D01*
X127606063Y-119556865D01*
X127810791Y-119250468D01*
X127869063Y-119141449D01*
X127984495Y-118925491D01*
X127984496Y-118925487D01*
X127984501Y-118925479D01*
X128125520Y-118585029D01*
X128232490Y-118232396D01*
X128304381Y-117870976D01*
X128340500Y-117504250D01*
X128340500Y-113635750D01*
X128304381Y-113269024D01*
X128232490Y-112907604D01*
X128125520Y-112554971D01*
X127984501Y-112214521D01*
X127984498Y-112214516D01*
X127984495Y-112214508D01*
X127810792Y-111889533D01*
X127810788Y-111889527D01*
X127758861Y-111811812D01*
X127664141Y-111633244D01*
X127607305Y-111439265D01*
X127590500Y-111256799D01*
X127590500Y-109901497D01*
X127590499Y-109901490D01*
X127590095Y-109897908D01*
X127573788Y-109753177D01*
X127552767Y-109566606D01*
X127477776Y-109238046D01*
X127366469Y-108919949D01*
X127220246Y-108616314D01*
X127092948Y-108413721D01*
X127040945Y-108330959D01*
X126996853Y-108275670D01*
X126996850Y-108275667D01*
X126996841Y-108275655D01*
X126830825Y-108067477D01*
X126592523Y-107829175D01*
X126483100Y-107719752D01*
X126355363Y-107563094D01*
X126261776Y-107383931D01*
X126206169Y-107189595D01*
X126190500Y-107013352D01*
X126190500Y-98898668D01*
X126210950Y-98697571D01*
X126271461Y-98504707D01*
X126369557Y-98327971D01*
X126501222Y-98174600D01*
X126661065Y-98050872D01*
X126842542Y-97961854D01*
X127022150Y-97913785D01*
X127312069Y-97864527D01*
X127637526Y-97770765D01*
X127950438Y-97641152D01*
X128246870Y-97477320D01*
X128523096Y-97281327D01*
X128775640Y-97055640D01*
X129001327Y-96803096D01*
X129197320Y-96526870D01*
X129361152Y-96230438D01*
X129490765Y-95917526D01*
X129584527Y-95592069D01*
X129615659Y-95408837D01*
X129669504Y-95214008D01*
X129761466Y-95034004D01*
X129887780Y-94876197D01*
X130043275Y-94747048D01*
X130117293Y-94701836D01*
X130396870Y-94547320D01*
X130673096Y-94351327D01*
X130925640Y-94125640D01*
X131151327Y-93873096D01*
X131347320Y-93596870D01*
X131511152Y-93300438D01*
X131640765Y-92987526D01*
X131734527Y-92662069D01*
X131791260Y-92328161D01*
X131803852Y-92103937D01*
X131810251Y-91990006D01*
X131810251Y-91989993D01*
X131794611Y-91711507D01*
X131791260Y-91651839D01*
X131734527Y-91317931D01*
X131640765Y-90992474D01*
X131511152Y-90679562D01*
X131493836Y-90648231D01*
X131414464Y-90462349D01*
X131374130Y-90264280D01*
X131374494Y-90062146D01*
X131415539Y-89864223D01*
X131493836Y-89681768D01*
X131511152Y-89650438D01*
X131640765Y-89337526D01*
X131734527Y-89012069D01*
X131791260Y-88678161D01*
X131801824Y-88490056D01*
X131810251Y-88340006D01*
X131810251Y-88339993D01*
X131792726Y-88027942D01*
X131791260Y-88001839D01*
X131734527Y-87667931D01*
X131640765Y-87342474D01*
X131511152Y-87029562D01*
X131347320Y-86733130D01*
X131151327Y-86456904D01*
X131151322Y-86456898D01*
X130925652Y-86204373D01*
X130925648Y-86204369D01*
X130925640Y-86204360D01*
X130925630Y-86204351D01*
X130925626Y-86204347D01*
X130673101Y-85978677D01*
X130673100Y-85978676D01*
X130396875Y-85782683D01*
X130396870Y-85782680D01*
X130117303Y-85628169D01*
X129951196Y-85513000D01*
X129811667Y-85366747D01*
X129704435Y-85195401D01*
X129633890Y-85005976D01*
X129615659Y-84921162D01*
X129584528Y-84737938D01*
X129584527Y-84737931D01*
X129490765Y-84412474D01*
X129361152Y-84099562D01*
X129197320Y-83803130D01*
X129001327Y-83526904D01*
X128775640Y-83274360D01*
X128775630Y-83274351D01*
X128775626Y-83274347D01*
X128533895Y-83058323D01*
X128493176Y-83019827D01*
X127502524Y-82029176D01*
X127465556Y-81999695D01*
X127429377Y-81970843D01*
X127429366Y-81970835D01*
X127388794Y-81938480D01*
X127239039Y-81819054D01*
X127132987Y-81752416D01*
X126953687Y-81639754D01*
X126764916Y-81548847D01*
X126650051Y-81493531D01*
X126650047Y-81493529D01*
X126650046Y-81493529D01*
X126331962Y-81382226D01*
X126331944Y-81382221D01*
X126003395Y-81307233D01*
X125668519Y-81269501D01*
X125668508Y-81269500D01*
X125668505Y-81269500D01*
X125668504Y-81269500D01*
X125668501Y-81269500D01*
X123569729Y-81269500D01*
X123513715Y-81267928D01*
X123190008Y-81249749D01*
X123189993Y-81249749D01*
X122851844Y-81268739D01*
X122517938Y-81325471D01*
X122517927Y-81325474D01*
X122192472Y-81419235D01*
X121879563Y-81548847D01*
X121879559Y-81548849D01*
X121583132Y-81712678D01*
X121583130Y-81712679D01*
X121306899Y-81908676D01*
X121306898Y-81908677D01*
X121054357Y-82134361D01*
X121041525Y-82147194D01*
X120884866Y-82274929D01*
X120705700Y-82368514D01*
X120511364Y-82424117D01*
X120309813Y-82439463D01*
X120167798Y-82425669D01*
X120068155Y-82408739D01*
X119730007Y-82389749D01*
X119729993Y-82389749D01*
X119391844Y-82408739D01*
X119057938Y-82465471D01*
X119057927Y-82465474D01*
X118732472Y-82559235D01*
X118419563Y-82688847D01*
X118419559Y-82688849D01*
X118123132Y-82852678D01*
X118123130Y-82852679D01*
X117846899Y-83048676D01*
X117846898Y-83048677D01*
X117594373Y-83274347D01*
X117594347Y-83274373D01*
X117368677Y-83526898D01*
X117368676Y-83526899D01*
X117172679Y-83803130D01*
X117172678Y-83803132D01*
X117008849Y-84099559D01*
X117008847Y-84099563D01*
X116879235Y-84412472D01*
X116785474Y-84737927D01*
X116785473Y-84737929D01*
X116754340Y-84921166D01*
X116700493Y-85115996D01*
X116608530Y-85295999D01*
X116482215Y-85453806D01*
X116326719Y-85582954D01*
X116252691Y-85628172D01*
X115973127Y-85782681D01*
X115696899Y-85978676D01*
X115696898Y-85978677D01*
X115444373Y-86204347D01*
X115444347Y-86204373D01*
X115218677Y-86456898D01*
X115218676Y-86456899D01*
X115022679Y-86733130D01*
X115022678Y-86733132D01*
X114858849Y-87029559D01*
X114858847Y-87029563D01*
X114729235Y-87342472D01*
X114635474Y-87667927D01*
X114635471Y-87667938D01*
X114578739Y-88001844D01*
X114559749Y-88339993D01*
X107533630Y-88339993D01*
X107335082Y-88129542D01*
X107335076Y-88129536D01*
X107158570Y-87981431D01*
X107085177Y-87919847D01*
X106812626Y-87740588D01*
X106812627Y-87740588D01*
X106521108Y-87594181D01*
X106521104Y-87594179D01*
X106214554Y-87482604D01*
X105897126Y-87407372D01*
X105573112Y-87369500D01*
X105573111Y-87369500D01*
X105246889Y-87369500D01*
X105246888Y-87369500D01*
X104922873Y-87407372D01*
X104605445Y-87482604D01*
X104298895Y-87594179D01*
X104298891Y-87594181D01*
X104007372Y-87740588D01*
X103734824Y-87919846D01*
X103734819Y-87919850D01*
X103484923Y-88129536D01*
X103484917Y-88129542D01*
X103261070Y-88366808D01*
X103261052Y-88366829D01*
X103066251Y-88628490D01*
X103066250Y-88628492D01*
X102903145Y-88910999D01*
X102903141Y-88911007D01*
X102903141Y-88911008D01*
X102783494Y-89188381D01*
X102773929Y-89210554D01*
X102680370Y-89523063D01*
X102623722Y-89844330D01*
X102623721Y-89844344D01*
X102604754Y-90170000D01*
X100538528Y-90170000D01*
X100544446Y-90068400D01*
X100525478Y-89742731D01*
X100468830Y-89421466D01*
X100375269Y-89108949D01*
X100246059Y-88809408D01*
X100082949Y-88526892D01*
X99888143Y-88265223D01*
X99879714Y-88256289D01*
X99664282Y-88027942D01*
X99664276Y-88027936D01*
X99425529Y-87827605D01*
X99414377Y-87818247D01*
X99141826Y-87638988D01*
X99141827Y-87638988D01*
X98850308Y-87492581D01*
X98850304Y-87492579D01*
X98543754Y-87381004D01*
X98226326Y-87305772D01*
X97902312Y-87267900D01*
X97902311Y-87267900D01*
X97576089Y-87267900D01*
X97576088Y-87267900D01*
X97252073Y-87305772D01*
X96934645Y-87381004D01*
X96628095Y-87492579D01*
X96628091Y-87492581D01*
X96336572Y-87638988D01*
X96064024Y-87818246D01*
X96064019Y-87818250D01*
X95814123Y-88027936D01*
X95814117Y-88027942D01*
X95590270Y-88265208D01*
X95590252Y-88265229D01*
X95395451Y-88526890D01*
X95395450Y-88526892D01*
X95232345Y-88809399D01*
X95103129Y-89108954D01*
X95009570Y-89421463D01*
X94952922Y-89742730D01*
X94952921Y-89742744D01*
X94933954Y-90068400D01*
X77335500Y-90068400D01*
X77335500Y-85289750D01*
X82053000Y-85289750D01*
X82053000Y-85658250D01*
X82074069Y-85872173D01*
X82089119Y-86024981D01*
X82161005Y-86386376D01*
X82161008Y-86386389D01*
X82161010Y-86386396D01*
X82266191Y-86733130D01*
X82267980Y-86739029D01*
X82267980Y-86739030D01*
X82408999Y-87079479D01*
X82409004Y-87079491D01*
X82582707Y-87404466D01*
X82641582Y-87492578D01*
X82787437Y-87710865D01*
X82811830Y-87740588D01*
X83021208Y-87995716D01*
X83281783Y-88256291D01*
X83292667Y-88265223D01*
X83566635Y-88490063D01*
X83873032Y-88694791D01*
X83873034Y-88694792D01*
X83873033Y-88694792D01*
X84198008Y-88868495D01*
X84198016Y-88868498D01*
X84198021Y-88868501D01*
X84538471Y-89009520D01*
X84891104Y-89116490D01*
X84891120Y-89116493D01*
X84891123Y-89116494D01*
X85252518Y-89188380D01*
X85252519Y-89188380D01*
X85252524Y-89188381D01*
X85619250Y-89224500D01*
X85619256Y-89224500D01*
X89487744Y-89224500D01*
X89487750Y-89224500D01*
X89854476Y-89188381D01*
X90215896Y-89116490D01*
X90568529Y-89009520D01*
X90908979Y-88868501D01*
X90908987Y-88868496D01*
X90908991Y-88868495D01*
X91233966Y-88694792D01*
X91233965Y-88694792D01*
X91233968Y-88694791D01*
X91540365Y-88490063D01*
X91825219Y-88256289D01*
X92085789Y-87995719D01*
X92319563Y-87710865D01*
X92524291Y-87404468D01*
X92597288Y-87267900D01*
X92697995Y-87079491D01*
X92697996Y-87079487D01*
X92698001Y-87079479D01*
X92839020Y-86739029D01*
X92945990Y-86386396D01*
X93017881Y-86024976D01*
X93054000Y-85658250D01*
X93054000Y-85289750D01*
X93017881Y-84923024D01*
X93017880Y-84923018D01*
X92945994Y-84561623D01*
X92945993Y-84561620D01*
X92945990Y-84561604D01*
X92839020Y-84208971D01*
X92698001Y-83868521D01*
X92697998Y-83868516D01*
X92697995Y-83868508D01*
X92524292Y-83543533D01*
X92456358Y-83441864D01*
X92319563Y-83237135D01*
X92164899Y-83048677D01*
X92085791Y-82952283D01*
X91825216Y-82691708D01*
X91549549Y-82465474D01*
X91540365Y-82457937D01*
X91233968Y-82253209D01*
X91233967Y-82253208D01*
X91233965Y-82253207D01*
X91233966Y-82253207D01*
X90908991Y-82079504D01*
X90908979Y-82079499D01*
X90568530Y-81938480D01*
X90381924Y-81881874D01*
X90215896Y-81831510D01*
X90215889Y-81831508D01*
X90215876Y-81831505D01*
X89854481Y-81759619D01*
X89687782Y-81743201D01*
X89487750Y-81723500D01*
X85619250Y-81723500D01*
X85435887Y-81741559D01*
X85252518Y-81759619D01*
X84891123Y-81831505D01*
X84891107Y-81831509D01*
X84891104Y-81831510D01*
X84891095Y-81831512D01*
X84891094Y-81831513D01*
X84538470Y-81938480D01*
X84538469Y-81938480D01*
X84198020Y-82079499D01*
X84198008Y-82079504D01*
X83873033Y-82253207D01*
X83566636Y-82457936D01*
X83566627Y-82457943D01*
X83281783Y-82691708D01*
X83021208Y-82952283D01*
X82787443Y-83237127D01*
X82787436Y-83237136D01*
X82582707Y-83543533D01*
X82409004Y-83868508D01*
X82408999Y-83868520D01*
X82267980Y-84208969D01*
X82267980Y-84208970D01*
X82161013Y-84561594D01*
X82161005Y-84561623D01*
X82089119Y-84923018D01*
X82080949Y-85005976D01*
X82053000Y-85289750D01*
X77335500Y-85289750D01*
X77335500Y-80010000D01*
X102604754Y-80010000D01*
X102623721Y-80335655D01*
X102623722Y-80335669D01*
X102680370Y-80656936D01*
X102773929Y-80969445D01*
X102773931Y-80969451D01*
X102903141Y-81268992D01*
X102903143Y-81268995D01*
X102903145Y-81269000D01*
X103066250Y-81551507D01*
X103066251Y-81551509D01*
X103194295Y-81723500D01*
X103261057Y-81813177D01*
X103261067Y-81813188D01*
X103261070Y-81813191D01*
X103484917Y-82050457D01*
X103484923Y-82050463D01*
X103636964Y-82178040D01*
X103734823Y-82260153D01*
X104007377Y-82439414D01*
X104298899Y-82585822D01*
X104605446Y-82697396D01*
X104922874Y-82772628D01*
X105209016Y-82806073D01*
X105246888Y-82810500D01*
X105246889Y-82810500D01*
X105573112Y-82810500D01*
X105607020Y-82806536D01*
X105897126Y-82772628D01*
X106214554Y-82697396D01*
X106521101Y-82585822D01*
X106812623Y-82439414D01*
X107085177Y-82260153D01*
X107335077Y-82050462D01*
X107558943Y-81813177D01*
X107753749Y-81551508D01*
X107916859Y-81268992D01*
X108046069Y-80969451D01*
X108139630Y-80656934D01*
X108196278Y-80335669D01*
X108215246Y-80010000D01*
X108196278Y-79684331D01*
X108139630Y-79363066D01*
X108046069Y-79050549D01*
X107916859Y-78751008D01*
X107753749Y-78468492D01*
X107558943Y-78206823D01*
X107558929Y-78206808D01*
X107335082Y-77969542D01*
X107335076Y-77969536D01*
X107158570Y-77821431D01*
X107085177Y-77759847D01*
X106812626Y-77580588D01*
X106812627Y-77580588D01*
X106521108Y-77434181D01*
X106521104Y-77434179D01*
X106214554Y-77322604D01*
X105897126Y-77247372D01*
X105573112Y-77209500D01*
X105573111Y-77209500D01*
X105246889Y-77209500D01*
X105246888Y-77209500D01*
X104922873Y-77247372D01*
X104605445Y-77322604D01*
X104298895Y-77434179D01*
X104298891Y-77434181D01*
X104007372Y-77580588D01*
X103734824Y-77759846D01*
X103734819Y-77759850D01*
X103484923Y-77969536D01*
X103484917Y-77969542D01*
X103261070Y-78206808D01*
X103261052Y-78206829D01*
X103066251Y-78468490D01*
X103066250Y-78468492D01*
X102903145Y-78750999D01*
X102773929Y-79050554D01*
X102680370Y-79363063D01*
X102623722Y-79684330D01*
X102623721Y-79684344D01*
X102604754Y-80010000D01*
X77335500Y-80010000D01*
X77335500Y-72390000D01*
X94984754Y-72390000D01*
X95003721Y-72715655D01*
X95003722Y-72715669D01*
X95060370Y-73036936D01*
X95153929Y-73349445D01*
X95153931Y-73349451D01*
X95283141Y-73648992D01*
X95283143Y-73648995D01*
X95283145Y-73649000D01*
X95446250Y-73931507D01*
X95446251Y-73931509D01*
X95553434Y-74075479D01*
X95641057Y-74193177D01*
X95641067Y-74193188D01*
X95641070Y-74193191D01*
X95864917Y-74430457D01*
X95864923Y-74430463D01*
X96016964Y-74558040D01*
X96114823Y-74640153D01*
X96387377Y-74819414D01*
X96678899Y-74965822D01*
X96985446Y-75077396D01*
X97302874Y-75152628D01*
X97589016Y-75186073D01*
X97626888Y-75190500D01*
X97626889Y-75190500D01*
X97953112Y-75190500D01*
X97987020Y-75186536D01*
X98277126Y-75152628D01*
X98594554Y-75077396D01*
X98901101Y-74965822D01*
X99192623Y-74819414D01*
X99465177Y-74640153D01*
X99715077Y-74430462D01*
X99938943Y-74193177D01*
X100133749Y-73931508D01*
X100296859Y-73648992D01*
X100426069Y-73349451D01*
X100519630Y-73036934D01*
X100576278Y-72715669D01*
X100595246Y-72390000D01*
X100576278Y-72064331D01*
X100519630Y-71743066D01*
X100426069Y-71430549D01*
X100296859Y-71131008D01*
X100133749Y-70848492D01*
X99938943Y-70586823D01*
X99938929Y-70586808D01*
X99715082Y-70349542D01*
X99715076Y-70349536D01*
X99538570Y-70201431D01*
X99465177Y-70139847D01*
X99192626Y-69960588D01*
X99192627Y-69960588D01*
X98901108Y-69814181D01*
X98901104Y-69814179D01*
X98594554Y-69702604D01*
X98277126Y-69627372D01*
X97953112Y-69589500D01*
X97953111Y-69589500D01*
X97913843Y-69589500D01*
X97712746Y-69569050D01*
X97519882Y-69508539D01*
X97434949Y-69461397D01*
X97410138Y-69487499D01*
X97244234Y-69602972D01*
X97058481Y-69682685D01*
X96989805Y-69701570D01*
X96989211Y-69701711D01*
X96985446Y-69702603D01*
X96678895Y-69814179D01*
X96678891Y-69814181D01*
X96387372Y-69960588D01*
X96114824Y-70139846D01*
X96114819Y-70139850D01*
X95864923Y-70349536D01*
X95864917Y-70349542D01*
X95641070Y-70586808D01*
X95641052Y-70586829D01*
X95446251Y-70848490D01*
X95446250Y-70848492D01*
X95283145Y-71130999D01*
X95153929Y-71430554D01*
X95060370Y-71743063D01*
X95003722Y-72064330D01*
X95003721Y-72064344D01*
X94984754Y-72390000D01*
X77335500Y-72390000D01*
X77335500Y-58658552D01*
X91499500Y-58658552D01*
X91499500Y-65801448D01*
X91514804Y-66015428D01*
X91514804Y-66015432D01*
X91514805Y-66015433D01*
X91575628Y-66295038D01*
X91575631Y-66295047D01*
X91675629Y-66563154D01*
X91675631Y-66563158D01*
X91718855Y-66642316D01*
X91812774Y-66814315D01*
X91984261Y-67043395D01*
X92186605Y-67245739D01*
X92415685Y-67417226D01*
X92594929Y-67515101D01*
X92666841Y-67554368D01*
X92666845Y-67554370D01*
X92867925Y-67629368D01*
X92934954Y-67654369D01*
X92934956Y-67654369D01*
X92934961Y-67654371D01*
X93048815Y-67679137D01*
X93214572Y-67715196D01*
X93428552Y-67730500D01*
X93428565Y-67730500D01*
X96759417Y-67730500D01*
X96960514Y-67750950D01*
X97153378Y-67811461D01*
X97238310Y-67858602D01*
X97263122Y-67832501D01*
X97429026Y-67717028D01*
X97564730Y-67654487D01*
X97833154Y-67554370D01*
X97833158Y-67554368D01*
X97833157Y-67554368D01*
X97833161Y-67554367D01*
X98084315Y-67417226D01*
X98227552Y-67310000D01*
X102604754Y-67310000D01*
X102623721Y-67635655D01*
X102623722Y-67635669D01*
X102680370Y-67956936D01*
X102763421Y-68234345D01*
X102773931Y-68269451D01*
X102903141Y-68568992D01*
X102903143Y-68568995D01*
X102903145Y-68569000D01*
X103066250Y-68851507D01*
X103066251Y-68851509D01*
X103192316Y-69020842D01*
X103261057Y-69113177D01*
X103261067Y-69113188D01*
X103261070Y-69113191D01*
X103484917Y-69350457D01*
X103484923Y-69350463D01*
X103608247Y-69453943D01*
X103734823Y-69560153D01*
X104007377Y-69739414D01*
X104298899Y-69885822D01*
X104605446Y-69997396D01*
X104922874Y-70072628D01*
X105209016Y-70106073D01*
X105246888Y-70110500D01*
X105246889Y-70110500D01*
X105573112Y-70110500D01*
X105607020Y-70106536D01*
X105897126Y-70072628D01*
X106214554Y-69997396D01*
X106521101Y-69885822D01*
X106812623Y-69739414D01*
X107085177Y-69560153D01*
X107335077Y-69350462D01*
X107558943Y-69113177D01*
X107753749Y-68851508D01*
X107916859Y-68568992D01*
X108046069Y-68269451D01*
X108139630Y-67956934D01*
X108196278Y-67635669D01*
X108215246Y-67310000D01*
X108196278Y-66984331D01*
X108139630Y-66663066D01*
X108046069Y-66350549D01*
X107916859Y-66051008D01*
X107753749Y-65768492D01*
X107558943Y-65506823D01*
X107444603Y-65385629D01*
X107335082Y-65269542D01*
X107335076Y-65269536D01*
X107142697Y-65108112D01*
X107085177Y-65059847D01*
X106812626Y-64880588D01*
X106812627Y-64880588D01*
X106521108Y-64734181D01*
X106521104Y-64734179D01*
X106214554Y-64622604D01*
X105897126Y-64547372D01*
X105573112Y-64509500D01*
X105573111Y-64509500D01*
X105246889Y-64509500D01*
X105246888Y-64509500D01*
X104922873Y-64547372D01*
X104605445Y-64622604D01*
X104298895Y-64734179D01*
X104298891Y-64734181D01*
X104007372Y-64880588D01*
X103734824Y-65059846D01*
X103734819Y-65059850D01*
X103484923Y-65269536D01*
X103484917Y-65269542D01*
X103261070Y-65506808D01*
X103261052Y-65506829D01*
X103066251Y-65768490D01*
X103066250Y-65768492D01*
X102903145Y-66050999D01*
X102773929Y-66350554D01*
X102680370Y-66663063D01*
X102623722Y-66984330D01*
X102623721Y-66984344D01*
X102604754Y-67310000D01*
X98227552Y-67310000D01*
X98313395Y-67245739D01*
X98515739Y-67043395D01*
X98687226Y-66814315D01*
X98824367Y-66563161D01*
X98924369Y-66295046D01*
X98985196Y-66015428D01*
X99000500Y-65801448D01*
X99000500Y-60295750D01*
X116899500Y-60295750D01*
X116899500Y-64164250D01*
X116913347Y-64304843D01*
X116935619Y-64530981D01*
X117007505Y-64892376D01*
X117007508Y-64892389D01*
X117007510Y-64892396D01*
X117058306Y-65059847D01*
X117114480Y-65245029D01*
X117114480Y-65245030D01*
X117255499Y-65585479D01*
X117255504Y-65585491D01*
X117429207Y-65910466D01*
X117633936Y-66216863D01*
X117633941Y-66216871D01*
X117675724Y-66267783D01*
X117787491Y-66436206D01*
X117846424Y-66571588D01*
X117873527Y-66649043D01*
X117873529Y-66649048D01*
X117873531Y-66649053D01*
X117946642Y-66800870D01*
X118019754Y-66952689D01*
X118198382Y-67236972D01*
X118199054Y-67238041D01*
X118409176Y-67501526D01*
X128117150Y-77209500D01*
X137803033Y-86895383D01*
X137930770Y-87052041D01*
X138024357Y-87231204D01*
X138079964Y-87425540D01*
X138095312Y-87627090D01*
X138069775Y-87827605D01*
X138004397Y-88018875D01*
X137991263Y-88046197D01*
X137861529Y-88346954D01*
X137767970Y-88659463D01*
X137711322Y-88980730D01*
X137711321Y-88980744D01*
X137692354Y-89306400D01*
X137711321Y-89632055D01*
X137711322Y-89632069D01*
X137767970Y-89953336D01*
X137861529Y-90265845D01*
X137861531Y-90265851D01*
X137990741Y-90565392D01*
X137990743Y-90565395D01*
X137990745Y-90565400D01*
X138153850Y-90847907D01*
X138153851Y-90847909D01*
X138287814Y-91027851D01*
X138348657Y-91109577D01*
X138348667Y-91109588D01*
X138348670Y-91109591D01*
X138572517Y-91346857D01*
X138572523Y-91346863D01*
X138670411Y-91429000D01*
X138822423Y-91556553D01*
X139094977Y-91735814D01*
X139386499Y-91882222D01*
X139693046Y-91993796D01*
X139740887Y-92005134D01*
X139931838Y-92071404D01*
X140105549Y-92174760D01*
X140254900Y-92310969D01*
X140373774Y-92474454D01*
X140457306Y-92658521D01*
X140502075Y-92855635D01*
X140509500Y-92977205D01*
X140509500Y-95795594D01*
X140489050Y-95996691D01*
X140428539Y-96189555D01*
X140330443Y-96366291D01*
X140198778Y-96519662D01*
X140038935Y-96643390D01*
X139857458Y-96732408D01*
X139740889Y-96767665D01*
X139693046Y-96779004D01*
X139386495Y-96890579D01*
X139386491Y-96890581D01*
X139094972Y-97036988D01*
X138822424Y-97216246D01*
X138822419Y-97216250D01*
X138572523Y-97425936D01*
X138572517Y-97425942D01*
X138348670Y-97663208D01*
X138348652Y-97663229D01*
X138153851Y-97924890D01*
X138153850Y-97924892D01*
X137990745Y-98207399D01*
X137990741Y-98207407D01*
X137990741Y-98207408D01*
X137933205Y-98340792D01*
X137861529Y-98506954D01*
X137767970Y-98819463D01*
X137711322Y-99140730D01*
X137711321Y-99140744D01*
X137692354Y-99466400D01*
X137711321Y-99792055D01*
X137711322Y-99792069D01*
X137767970Y-100113336D01*
X137861529Y-100425845D01*
X137861531Y-100425851D01*
X137990741Y-100725392D01*
X137990743Y-100725395D01*
X137990745Y-100725400D01*
X138153850Y-101007907D01*
X138153851Y-101007909D01*
X138240236Y-101123943D01*
X138348657Y-101269577D01*
X138348667Y-101269588D01*
X138348670Y-101269591D01*
X138572517Y-101506857D01*
X138572523Y-101506863D01*
X138705307Y-101618281D01*
X138822423Y-101716553D01*
X139094977Y-101895814D01*
X139386499Y-102042222D01*
X139693046Y-102153796D01*
X139740887Y-102165134D01*
X139931838Y-102231404D01*
X140105549Y-102334760D01*
X140254900Y-102470969D01*
X140373774Y-102634454D01*
X140457306Y-102818521D01*
X140502075Y-103015635D01*
X140509500Y-103137205D01*
X140509500Y-104283318D01*
X140489050Y-104484415D01*
X140428539Y-104677279D01*
X140330443Y-104854015D01*
X140198778Y-105007386D01*
X140038935Y-105131114D01*
X139857458Y-105220132D01*
X139740888Y-105255389D01*
X139710448Y-105262603D01*
X139403895Y-105374179D01*
X139403891Y-105374181D01*
X139112372Y-105520588D01*
X138839824Y-105699846D01*
X138839819Y-105699850D01*
X138589923Y-105909536D01*
X138589917Y-105909542D01*
X138366070Y-106146808D01*
X138366052Y-106146829D01*
X138171251Y-106408490D01*
X138171250Y-106408492D01*
X138008145Y-106690999D01*
X138008141Y-106691007D01*
X138008141Y-106691008D01*
X137954703Y-106814892D01*
X137878929Y-106990554D01*
X137785370Y-107303063D01*
X137728722Y-107624330D01*
X137728721Y-107624344D01*
X137719510Y-107782490D01*
X137709754Y-107950000D01*
X137728722Y-108275669D01*
X137738471Y-108330959D01*
X137785370Y-108596936D01*
X137878929Y-108909445D01*
X137878931Y-108909451D01*
X138008141Y-109208992D01*
X138008143Y-109208995D01*
X138008145Y-109209000D01*
X138171250Y-109491507D01*
X138171251Y-109491509D01*
X138263485Y-109615400D01*
X138366057Y-109753177D01*
X138366067Y-109753188D01*
X138366070Y-109753191D01*
X138589917Y-109990457D01*
X138589923Y-109990463D01*
X138741964Y-110118040D01*
X138839823Y-110200153D01*
X139112377Y-110379414D01*
X139403899Y-110525822D01*
X139710446Y-110637396D01*
X139740882Y-110644609D01*
X139931834Y-110710878D01*
X140105546Y-110814234D01*
X140254896Y-110950442D01*
X140373772Y-111113925D01*
X140457304Y-111297992D01*
X140502075Y-111495106D01*
X140509500Y-111616681D01*
X140509500Y-115998352D01*
X140489050Y-116199449D01*
X140428539Y-116392313D01*
X140330443Y-116569049D01*
X140216900Y-116704751D01*
X138274177Y-118647474D01*
X138274176Y-118647476D01*
X138064058Y-118910955D01*
X138064052Y-118910963D01*
X137884754Y-119196312D01*
X137738529Y-119499953D01*
X137627226Y-119818037D01*
X137627221Y-119818055D01*
X137552233Y-120146603D01*
X137552233Y-120146604D01*
X137514501Y-120481480D01*
X137514500Y-120481499D01*
X137514500Y-120818500D01*
X137514501Y-120818519D01*
X137552233Y-121153395D01*
X137552233Y-121153396D01*
X137627221Y-121481944D01*
X137627226Y-121481962D01*
X137738529Y-121800046D01*
X137884754Y-122103687D01*
X138033554Y-122340499D01*
X138064054Y-122389039D01*
X138274176Y-122652524D01*
X138512476Y-122890824D01*
X138775961Y-123100946D01*
X139061314Y-123280246D01*
X139364949Y-123426469D01*
X139683046Y-123537776D01*
X140011606Y-123612767D01*
X140346495Y-123650500D01*
X140346499Y-123650500D01*
X140683501Y-123650500D01*
X140683505Y-123650500D01*
X141018394Y-123612767D01*
X141346954Y-123537776D01*
X141665051Y-123426469D01*
X141968686Y-123280246D01*
X142254039Y-123100946D01*
X142517524Y-122890824D01*
X145469196Y-119939149D01*
X145469206Y-119939141D01*
X145512520Y-119895826D01*
X145512523Y-119895825D01*
X145750825Y-119657523D01*
X145960946Y-119394039D01*
X146051158Y-119250468D01*
X146140247Y-119108685D01*
X146286469Y-118805051D01*
X146397776Y-118486953D01*
X146404436Y-118457776D01*
X146472767Y-118158394D01*
X146510500Y-117823504D01*
X146510500Y-113268552D01*
X149544500Y-113268552D01*
X149544500Y-120411448D01*
X149559804Y-120625428D01*
X149559804Y-120625432D01*
X149559805Y-120625433D01*
X149620628Y-120905038D01*
X149620631Y-120905047D01*
X149720629Y-121173154D01*
X149720631Y-121173158D01*
X149720633Y-121173161D01*
X149857774Y-121424315D01*
X150029261Y-121653395D01*
X150231605Y-121855739D01*
X150460685Y-122027226D01*
X150711839Y-122164367D01*
X150711841Y-122164368D01*
X150711845Y-122164370D01*
X150912925Y-122239368D01*
X150979954Y-122264369D01*
X150979956Y-122264369D01*
X150979961Y-122264371D01*
X151093815Y-122289137D01*
X151259572Y-122325196D01*
X151473552Y-122340500D01*
X151473565Y-122340500D01*
X155116435Y-122340500D01*
X155116448Y-122340500D01*
X155330428Y-122325196D01*
X155548080Y-122277848D01*
X155610038Y-122264371D01*
X155610040Y-122264370D01*
X155610046Y-122264369D01*
X155775483Y-122202663D01*
X155878154Y-122164370D01*
X155878158Y-122164368D01*
X155878157Y-122164368D01*
X155878161Y-122164367D01*
X156129315Y-122027226D01*
X156358395Y-121855739D01*
X156560739Y-121653395D01*
X156732226Y-121424315D01*
X156869367Y-121173161D01*
X156876740Y-121153395D01*
X156913366Y-121055196D01*
X156969369Y-120905046D01*
X156971692Y-120894370D01*
X157001525Y-120757226D01*
X157030196Y-120625428D01*
X157045500Y-120411448D01*
X157045500Y-113268552D01*
X157030196Y-113054572D01*
X156969369Y-112774954D01*
X156944368Y-112707925D01*
X156869370Y-112506845D01*
X156869368Y-112506841D01*
X156869367Y-112506839D01*
X156732226Y-112255685D01*
X156560739Y-112026605D01*
X156358395Y-111824261D01*
X156129315Y-111652774D01*
X156063216Y-111616681D01*
X155995656Y-111579790D01*
X155828958Y-111465465D01*
X155688686Y-111319925D01*
X155580582Y-111149127D01*
X155509073Y-110960065D01*
X155477085Y-110760477D01*
X155485929Y-110558537D01*
X155535242Y-110362510D01*
X155623006Y-110180422D01*
X155673106Y-110106434D01*
X155828349Y-109897908D01*
X155991459Y-109615392D01*
X156120669Y-109315851D01*
X156214230Y-109003334D01*
X156270878Y-108682069D01*
X156289846Y-108356400D01*
X156270878Y-108030731D01*
X156214230Y-107709466D01*
X156120669Y-107396949D01*
X155991459Y-107097408D01*
X155942929Y-107013352D01*
X155828349Y-106814892D01*
X155828348Y-106814890D01*
X155728695Y-106681034D01*
X155633543Y-106553223D01*
X155633529Y-106553208D01*
X155409682Y-106315942D01*
X155409676Y-106315936D01*
X155208141Y-106146829D01*
X155159777Y-106106247D01*
X154887226Y-105926988D01*
X154887227Y-105926988D01*
X154595708Y-105780581D01*
X154595704Y-105780579D01*
X154289154Y-105669004D01*
X153971726Y-105593772D01*
X153647712Y-105555900D01*
X153647711Y-105555900D01*
X153321489Y-105555900D01*
X153321488Y-105555900D01*
X152997473Y-105593772D01*
X152680045Y-105669004D01*
X152373495Y-105780579D01*
X152373491Y-105780581D01*
X152081972Y-105926988D01*
X151809424Y-106106246D01*
X151809419Y-106106250D01*
X151559523Y-106315936D01*
X151559517Y-106315942D01*
X151335670Y-106553208D01*
X151335652Y-106553229D01*
X151140851Y-106814890D01*
X151140850Y-106814892D01*
X150977745Y-107097399D01*
X150977741Y-107097407D01*
X150977741Y-107097408D01*
X150854147Y-107383931D01*
X150848529Y-107396954D01*
X150754970Y-107709463D01*
X150698322Y-108030730D01*
X150698321Y-108030744D01*
X150679354Y-108356400D01*
X150698321Y-108682055D01*
X150698322Y-108682069D01*
X150754970Y-109003336D01*
X150816542Y-109209000D01*
X150848531Y-109315851D01*
X150977741Y-109615392D01*
X150977743Y-109615395D01*
X150977745Y-109615400D01*
X151140850Y-109897907D01*
X151140851Y-109897909D01*
X151195505Y-109971321D01*
X151299190Y-110144837D01*
X151365823Y-110335673D01*
X151392678Y-110536016D01*
X151378654Y-110737663D01*
X151324326Y-110932359D01*
X151231917Y-111112134D01*
X151105212Y-111269627D01*
X150949398Y-111398391D01*
X150770853Y-111493154D01*
X150743303Y-111503897D01*
X150711841Y-111515631D01*
X150460688Y-111652772D01*
X150460682Y-111652776D01*
X150231608Y-111824258D01*
X150029258Y-112026608D01*
X149857776Y-112255682D01*
X149857772Y-112255688D01*
X149720631Y-112506841D01*
X149720629Y-112506845D01*
X149620631Y-112774952D01*
X149620628Y-112774961D01*
X149559805Y-113054566D01*
X149559804Y-113054572D01*
X149544500Y-113268552D01*
X146510500Y-113268552D01*
X146510500Y-94935750D01*
X153615600Y-94935750D01*
X153615600Y-95304250D01*
X153625901Y-95408838D01*
X153651719Y-95670981D01*
X153723605Y-96032376D01*
X153723608Y-96032389D01*
X153723610Y-96032396D01*
X153723613Y-96032405D01*
X153830580Y-96385029D01*
X153830580Y-96385030D01*
X153971599Y-96725479D01*
X153971604Y-96725491D01*
X154145307Y-97050466D01*
X154256078Y-97216246D01*
X154350037Y-97356865D01*
X154350043Y-97356872D01*
X154583808Y-97641716D01*
X154844383Y-97902291D01*
X154916961Y-97961854D01*
X155129235Y-98136063D01*
X155435632Y-98340791D01*
X155435634Y-98340792D01*
X155435633Y-98340792D01*
X155760608Y-98514495D01*
X155760616Y-98514498D01*
X155760621Y-98514501D01*
X156101071Y-98655520D01*
X156453704Y-98762490D01*
X156453720Y-98762493D01*
X156453723Y-98762494D01*
X156815118Y-98834380D01*
X156815119Y-98834380D01*
X156815124Y-98834381D01*
X157181850Y-98870500D01*
X157181856Y-98870500D01*
X161050344Y-98870500D01*
X161050350Y-98870500D01*
X161417076Y-98834381D01*
X161778496Y-98762490D01*
X162131129Y-98655520D01*
X162471579Y-98514501D01*
X162471587Y-98514496D01*
X162471591Y-98514495D01*
X162796566Y-98340792D01*
X162796565Y-98340792D01*
X162796568Y-98340791D01*
X163102965Y-98136063D01*
X163387819Y-97902289D01*
X163648389Y-97641719D01*
X163882163Y-97356865D01*
X164086891Y-97050468D01*
X164172352Y-96890581D01*
X164260595Y-96725491D01*
X164260596Y-96725487D01*
X164260601Y-96725479D01*
X164401620Y-96385029D01*
X164508590Y-96032396D01*
X164580481Y-95670976D01*
X164616600Y-95304250D01*
X164616600Y-94935750D01*
X164580481Y-94569024D01*
X164576164Y-94547320D01*
X164508594Y-94207623D01*
X164508593Y-94207620D01*
X164508590Y-94207604D01*
X164401620Y-93854971D01*
X164260601Y-93514521D01*
X164260598Y-93514516D01*
X164260595Y-93514508D01*
X164086892Y-93189533D01*
X164018958Y-93087864D01*
X163882163Y-92883135D01*
X163667914Y-92622072D01*
X163648391Y-92598283D01*
X163387816Y-92337708D01*
X163102972Y-92103943D01*
X163102965Y-92103937D01*
X162796568Y-91899209D01*
X162796567Y-91899208D01*
X162796565Y-91899207D01*
X162796566Y-91899207D01*
X162471591Y-91725504D01*
X162471579Y-91725499D01*
X162131130Y-91584480D01*
X161850206Y-91499263D01*
X161778496Y-91477510D01*
X161778489Y-91477508D01*
X161778476Y-91477505D01*
X161417081Y-91405619D01*
X161250382Y-91389201D01*
X161050350Y-91369500D01*
X157181850Y-91369500D01*
X156998487Y-91387559D01*
X156815118Y-91405619D01*
X156453723Y-91477505D01*
X156453707Y-91477509D01*
X156453704Y-91477510D01*
X156453695Y-91477512D01*
X156453694Y-91477513D01*
X156101070Y-91584480D01*
X156101069Y-91584480D01*
X155760620Y-91725499D01*
X155760608Y-91725504D01*
X155435633Y-91899207D01*
X155129236Y-92103936D01*
X155129227Y-92103943D01*
X154844383Y-92337708D01*
X154583808Y-92598283D01*
X154350043Y-92883127D01*
X154350036Y-92883136D01*
X154145307Y-93189533D01*
X153971604Y-93514508D01*
X153971599Y-93514520D01*
X153830580Y-93854969D01*
X153830580Y-93854970D01*
X153723613Y-94207594D01*
X153723605Y-94207623D01*
X153651719Y-94569018D01*
X153641660Y-94671152D01*
X153615600Y-94935750D01*
X146510500Y-94935750D01*
X146510500Y-93182599D01*
X146530950Y-92981502D01*
X146591461Y-92788638D01*
X146689557Y-92611902D01*
X146821222Y-92458531D01*
X146981065Y-92334803D01*
X147162542Y-92245785D01*
X147279103Y-92210531D01*
X147550554Y-92146196D01*
X147857101Y-92034622D01*
X148148623Y-91888214D01*
X148421177Y-91708953D01*
X148671077Y-91499262D01*
X148894943Y-91261977D01*
X149089749Y-91000308D01*
X149252859Y-90717792D01*
X149382069Y-90418251D01*
X149475630Y-90105734D01*
X149532278Y-89784469D01*
X149551246Y-89458800D01*
X149532278Y-89133131D01*
X149475630Y-88811866D01*
X149382069Y-88499349D01*
X149252859Y-88199808D01*
X149089749Y-87917292D01*
X149016012Y-87818247D01*
X148894947Y-87655629D01*
X148894943Y-87655623D01*
X148751162Y-87503223D01*
X148671082Y-87418342D01*
X148671076Y-87418336D01*
X148448059Y-87231204D01*
X148421177Y-87208647D01*
X148148626Y-87029388D01*
X148148627Y-87029388D01*
X147857108Y-86882981D01*
X147857104Y-86882979D01*
X147550554Y-86771404D01*
X147233126Y-86696172D01*
X146909112Y-86658300D01*
X146909111Y-86658300D01*
X146582889Y-86658300D01*
X146582883Y-86658300D01*
X146553864Y-86659990D01*
X146553757Y-86658164D01*
X146386381Y-86660674D01*
X146187797Y-86622956D01*
X146000870Y-86546036D01*
X145833254Y-86433063D01*
X145766140Y-86371794D01*
X145512523Y-86118176D01*
X145512523Y-86118177D01*
X124659116Y-65264770D01*
X124531379Y-65108112D01*
X124437792Y-64928949D01*
X124382185Y-64734613D01*
X124366837Y-64533063D01*
X124371324Y-64460479D01*
X124400500Y-64164250D01*
X124400500Y-60436350D01*
X130189500Y-60436350D01*
X130189500Y-64304850D01*
X130204825Y-64460451D01*
X130225619Y-64671581D01*
X130297505Y-65032976D01*
X130297508Y-65032989D01*
X130297510Y-65032996D01*
X130361830Y-65245030D01*
X130404480Y-65385629D01*
X130404480Y-65385630D01*
X130545499Y-65726079D01*
X130545504Y-65726091D01*
X130719207Y-66051066D01*
X130829990Y-66216863D01*
X130923937Y-66357465D01*
X130923943Y-66357472D01*
X131157708Y-66642316D01*
X131418283Y-66902891D01*
X131473568Y-66948262D01*
X131703135Y-67136663D01*
X132009532Y-67341391D01*
X132009534Y-67341392D01*
X132009533Y-67341392D01*
X132334508Y-67515095D01*
X132334516Y-67515098D01*
X132334521Y-67515101D01*
X132674971Y-67656120D01*
X133027604Y-67763090D01*
X133027620Y-67763093D01*
X133027623Y-67763094D01*
X133389018Y-67834980D01*
X133389019Y-67834980D01*
X133389024Y-67834981D01*
X133755750Y-67871100D01*
X133755756Y-67871100D01*
X134124244Y-67871100D01*
X134124250Y-67871100D01*
X134490976Y-67834981D01*
X134852396Y-67763090D01*
X135205029Y-67656120D01*
X135545479Y-67515101D01*
X135545487Y-67515096D01*
X135545491Y-67515095D01*
X135677735Y-67444408D01*
X135870468Y-67341391D01*
X135884982Y-67331692D01*
X136063549Y-67236972D01*
X136257528Y-67180135D01*
X136458977Y-67163509D01*
X136659650Y-67187775D01*
X136851330Y-67251940D01*
X136995017Y-67331692D01*
X137009532Y-67341391D01*
X137009534Y-67341392D01*
X137334508Y-67515095D01*
X137334516Y-67515098D01*
X137334521Y-67515101D01*
X137674971Y-67656120D01*
X137720401Y-67669901D01*
X137908028Y-67726817D01*
X138094530Y-67804761D01*
X138261524Y-67918653D01*
X138402174Y-68063828D01*
X138510720Y-68234345D01*
X138582720Y-68423221D01*
X138615226Y-68622725D01*
X138606907Y-68824688D01*
X138558102Y-69020842D01*
X138470812Y-69203157D01*
X138348608Y-69364168D01*
X138251795Y-69455036D01*
X137968280Y-69687711D01*
X137707708Y-69948283D01*
X137473943Y-70233127D01*
X137473936Y-70233136D01*
X137269207Y-70539533D01*
X137095504Y-70864508D01*
X137095499Y-70864520D01*
X136954480Y-71204969D01*
X136954480Y-71204970D01*
X136847513Y-71557594D01*
X136847505Y-71557623D01*
X136775619Y-71919018D01*
X136761308Y-72064330D01*
X136739500Y-72285750D01*
X136739500Y-72654250D01*
X136760569Y-72868173D01*
X136775619Y-73020981D01*
X136847505Y-73382376D01*
X136847508Y-73382389D01*
X136847510Y-73382396D01*
X136847513Y-73382405D01*
X136954480Y-73735029D01*
X136954480Y-73735030D01*
X137095499Y-74075479D01*
X137095504Y-74075491D01*
X137269207Y-74400466D01*
X137405073Y-74603804D01*
X137473937Y-74706865D01*
X137473943Y-74706872D01*
X137707708Y-74991716D01*
X137707711Y-74991719D01*
X137968281Y-75252289D01*
X138253135Y-75486063D01*
X138559532Y-75690791D01*
X138559534Y-75690792D01*
X138559533Y-75690792D01*
X138884508Y-75864495D01*
X138884516Y-75864498D01*
X138884521Y-75864501D01*
X139224971Y-76005520D01*
X139577604Y-76112490D01*
X139577620Y-76112493D01*
X139577623Y-76112494D01*
X139939018Y-76184380D01*
X139939019Y-76184380D01*
X139939024Y-76184381D01*
X140305750Y-76220500D01*
X140305756Y-76220500D01*
X144174244Y-76220500D01*
X144174250Y-76220500D01*
X144540976Y-76184381D01*
X144902396Y-76112490D01*
X145255029Y-76005520D01*
X145595479Y-75864501D01*
X145595487Y-75864496D01*
X145595491Y-75864495D01*
X145920466Y-75690792D01*
X145920465Y-75690792D01*
X145920468Y-75690791D01*
X146226865Y-75486063D01*
X146511719Y-75252289D01*
X146772289Y-74991719D01*
X147006063Y-74706865D01*
X147210791Y-74400468D01*
X147384501Y-74075479D01*
X147525520Y-73735029D01*
X147632490Y-73382396D01*
X147704381Y-73020976D01*
X147740500Y-72654250D01*
X147740500Y-72285750D01*
X147704381Y-71919024D01*
X147632490Y-71557604D01*
X147525520Y-71204971D01*
X147384501Y-70864521D01*
X147384498Y-70864516D01*
X147384495Y-70864508D01*
X147210792Y-70539533D01*
X147142858Y-70437864D01*
X147006063Y-70233135D01*
X146782389Y-69960588D01*
X146772291Y-69948283D01*
X146511716Y-69687708D01*
X146226872Y-69453943D01*
X146226865Y-69453937D01*
X145920468Y-69249209D01*
X145920467Y-69249208D01*
X145920465Y-69249207D01*
X145920466Y-69249207D01*
X145595491Y-69075504D01*
X145595479Y-69075499D01*
X145255030Y-68934480D01*
X144981510Y-68851509D01*
X144902396Y-68827510D01*
X144902389Y-68827508D01*
X144902376Y-68827505D01*
X144540981Y-68755619D01*
X144374282Y-68739201D01*
X144174250Y-68719500D01*
X142040190Y-68719500D01*
X141839093Y-68699050D01*
X141646229Y-68638539D01*
X141469493Y-68540443D01*
X141316122Y-68408778D01*
X141192394Y-68248935D01*
X141103376Y-68067458D01*
X141052710Y-67871776D01*
X141042472Y-67669901D01*
X141073081Y-67470098D01*
X141143283Y-67280546D01*
X141250205Y-67109006D01*
X141389469Y-66962501D01*
X141406432Y-66948262D01*
X141440000Y-66920713D01*
X141461719Y-66902889D01*
X141722289Y-66642319D01*
X141956063Y-66357465D01*
X142160791Y-66051068D01*
X142294215Y-65801449D01*
X142334495Y-65726091D01*
X142334496Y-65726087D01*
X142334501Y-65726079D01*
X142475520Y-65385629D01*
X142582490Y-65032996D01*
X142654381Y-64671576D01*
X142690500Y-64304850D01*
X142690500Y-60436350D01*
X142654381Y-60069624D01*
X142582490Y-59708204D01*
X142475520Y-59355571D01*
X142334501Y-59015121D01*
X142334498Y-59015116D01*
X142334495Y-59015108D01*
X142160792Y-58690133D01*
X141996709Y-58444566D01*
X141956063Y-58383735D01*
X141722289Y-58098881D01*
X141461719Y-57838311D01*
X141461716Y-57838308D01*
X141268530Y-57679765D01*
X141176865Y-57604537D01*
X140870468Y-57399809D01*
X140870467Y-57399808D01*
X140870465Y-57399807D01*
X140870466Y-57399807D01*
X140545491Y-57226104D01*
X140545479Y-57226099D01*
X140205030Y-57085080D01*
X140018424Y-57028474D01*
X139852396Y-56978110D01*
X139852389Y-56978108D01*
X139852376Y-56978105D01*
X139490981Y-56906219D01*
X139324282Y-56889801D01*
X139124250Y-56870100D01*
X138755750Y-56870100D01*
X138572387Y-56888159D01*
X138389018Y-56906219D01*
X138027623Y-56978105D01*
X138027607Y-56978109D01*
X138027604Y-56978110D01*
X138027595Y-56978112D01*
X138027594Y-56978113D01*
X137674970Y-57085080D01*
X137674969Y-57085080D01*
X137334520Y-57226099D01*
X137334508Y-57226104D01*
X137009533Y-57399807D01*
X137009531Y-57399808D01*
X136995002Y-57409517D01*
X136816433Y-57504234D01*
X136622453Y-57561068D01*
X136421003Y-57577689D01*
X136220331Y-57553419D01*
X136028652Y-57489251D01*
X135884998Y-57409517D01*
X135870468Y-57399808D01*
X135870466Y-57399807D01*
X135545491Y-57226104D01*
X135545479Y-57226099D01*
X135205030Y-57085080D01*
X135018424Y-57028474D01*
X134852396Y-56978110D01*
X134852389Y-56978108D01*
X134852376Y-56978105D01*
X134490981Y-56906219D01*
X134324282Y-56889801D01*
X134124250Y-56870100D01*
X133755750Y-56870100D01*
X133572387Y-56888159D01*
X133389018Y-56906219D01*
X133027623Y-56978105D01*
X133027607Y-56978109D01*
X133027604Y-56978110D01*
X133027595Y-56978112D01*
X133027594Y-56978113D01*
X132674970Y-57085080D01*
X132674969Y-57085080D01*
X132334520Y-57226099D01*
X132334508Y-57226104D01*
X132009533Y-57399807D01*
X131703136Y-57604536D01*
X131703127Y-57604543D01*
X131418283Y-57838308D01*
X131157708Y-58098883D01*
X130923943Y-58383727D01*
X130923936Y-58383736D01*
X130719207Y-58690133D01*
X130545504Y-59015108D01*
X130545499Y-59015120D01*
X130404480Y-59355569D01*
X130404480Y-59355570D01*
X130297513Y-59708194D01*
X130297505Y-59708223D01*
X130225619Y-60069618D01*
X130207559Y-60252987D01*
X130189500Y-60436350D01*
X124400500Y-60436350D01*
X124400500Y-60295750D01*
X124364381Y-59929024D01*
X124292490Y-59567604D01*
X124185520Y-59214971D01*
X124044501Y-58874521D01*
X124044498Y-58874516D01*
X124044495Y-58874508D01*
X123870792Y-58549533D01*
X123800655Y-58444566D01*
X123666063Y-58243135D01*
X123432289Y-57958281D01*
X123171719Y-57697711D01*
X123171716Y-57697708D01*
X122886872Y-57463943D01*
X122886865Y-57463937D01*
X122580468Y-57259209D01*
X122580467Y-57259208D01*
X122580465Y-57259207D01*
X122580466Y-57259207D01*
X122255491Y-57085504D01*
X122255479Y-57085499D01*
X121915030Y-56944480D01*
X121637040Y-56860153D01*
X121562396Y-56837510D01*
X121562389Y-56837508D01*
X121562376Y-56837505D01*
X121200981Y-56765619D01*
X121034282Y-56749201D01*
X120834250Y-56729500D01*
X120465750Y-56729500D01*
X120282387Y-56747559D01*
X120099018Y-56765619D01*
X119737623Y-56837505D01*
X119737607Y-56837509D01*
X119737604Y-56837510D01*
X119737595Y-56837512D01*
X119737594Y-56837513D01*
X119384970Y-56944480D01*
X119384969Y-56944480D01*
X119044520Y-57085499D01*
X119044508Y-57085504D01*
X118719533Y-57259207D01*
X118413136Y-57463936D01*
X118413127Y-57463943D01*
X118128283Y-57697708D01*
X117867708Y-57958283D01*
X117633943Y-58243127D01*
X117633936Y-58243136D01*
X117429207Y-58549533D01*
X117255504Y-58874508D01*
X117255499Y-58874520D01*
X117114480Y-59214969D01*
X117114480Y-59214970D01*
X117007513Y-59567594D01*
X117007505Y-59567623D01*
X116935619Y-59929018D01*
X116921772Y-60069618D01*
X116899500Y-60295750D01*
X99000500Y-60295750D01*
X99000500Y-58658552D01*
X98985196Y-58444572D01*
X98949137Y-58278815D01*
X98924371Y-58164961D01*
X98924368Y-58164952D01*
X98824370Y-57896845D01*
X98824368Y-57896841D01*
X98792408Y-57838311D01*
X98687226Y-57645685D01*
X98515739Y-57416605D01*
X98313395Y-57214261D01*
X98084315Y-57042774D01*
X97904304Y-56944480D01*
X97833158Y-56905631D01*
X97833154Y-56905629D01*
X97565047Y-56805631D01*
X97565038Y-56805628D01*
X97285433Y-56744805D01*
X97285432Y-56744804D01*
X97285428Y-56744804D01*
X97092886Y-56731033D01*
X97071449Y-56729500D01*
X97071448Y-56729500D01*
X93428552Y-56729500D01*
X93428550Y-56729500D01*
X93385675Y-56732566D01*
X93214572Y-56744804D01*
X93214568Y-56744804D01*
X93214566Y-56744805D01*
X92934961Y-56805628D01*
X92934952Y-56805631D01*
X92666845Y-56905629D01*
X92666841Y-56905631D01*
X92415688Y-57042772D01*
X92415682Y-57042776D01*
X92186608Y-57214258D01*
X91984258Y-57416608D01*
X91812776Y-57645682D01*
X91812772Y-57645688D01*
X91675631Y-57896841D01*
X91675629Y-57896845D01*
X91575631Y-58164952D01*
X91575628Y-58164961D01*
X91514805Y-58444566D01*
X91514804Y-58444572D01*
X91499500Y-58658552D01*
X77335500Y-58658552D01*
X77335500Y-54610000D01*
X102604754Y-54610000D01*
X102623721Y-54935655D01*
X102623722Y-54935669D01*
X102680370Y-55256936D01*
X102773929Y-55569445D01*
X102773931Y-55569451D01*
X102903141Y-55868992D01*
X102903143Y-55868995D01*
X102903145Y-55869000D01*
X103066250Y-56151507D01*
X103066251Y-56151509D01*
X103217982Y-56355317D01*
X103261057Y-56413177D01*
X103261067Y-56413188D01*
X103261070Y-56413191D01*
X103484917Y-56650457D01*
X103484923Y-56650463D01*
X103622162Y-56765619D01*
X103734823Y-56860153D01*
X104007377Y-57039414D01*
X104298899Y-57185822D01*
X104605446Y-57297396D01*
X104922874Y-57372628D01*
X105209016Y-57406073D01*
X105246888Y-57410500D01*
X105246889Y-57410500D01*
X105573112Y-57410500D01*
X105607020Y-57406536D01*
X105897126Y-57372628D01*
X106214554Y-57297396D01*
X106521101Y-57185822D01*
X106812623Y-57039414D01*
X107085177Y-56860153D01*
X107335077Y-56650462D01*
X107558943Y-56413177D01*
X107753749Y-56151508D01*
X107916859Y-55868992D01*
X108046069Y-55569451D01*
X108139630Y-55256934D01*
X108196278Y-54935669D01*
X108215246Y-54610000D01*
X108196278Y-54284331D01*
X108139630Y-53963066D01*
X108046069Y-53650549D01*
X107916859Y-53351008D01*
X107753749Y-53068492D01*
X107558943Y-52806823D01*
X107558929Y-52806808D01*
X107335082Y-52569542D01*
X107335076Y-52569536D01*
X107158570Y-52421431D01*
X107085177Y-52359847D01*
X106812626Y-52180588D01*
X106812627Y-52180588D01*
X106521108Y-52034181D01*
X106521104Y-52034179D01*
X106214554Y-51922604D01*
X105897126Y-51847372D01*
X105573112Y-51809500D01*
X105573111Y-51809500D01*
X105246889Y-51809500D01*
X105246888Y-51809500D01*
X104922873Y-51847372D01*
X104605445Y-51922604D01*
X104298895Y-52034179D01*
X104298891Y-52034181D01*
X104007372Y-52180588D01*
X103734824Y-52359846D01*
X103734819Y-52359850D01*
X103484923Y-52569536D01*
X103484917Y-52569542D01*
X103261070Y-52806808D01*
X103261052Y-52806829D01*
X103066251Y-53068490D01*
X103066250Y-53068492D01*
X102903145Y-53350999D01*
X102773929Y-53650554D01*
X102680370Y-53963063D01*
X102623722Y-54284330D01*
X102623721Y-54284344D01*
X102604754Y-54610000D01*
X77335500Y-54610000D01*
X77335500Y-48260000D01*
X114254754Y-48260000D01*
X114273721Y-48585655D01*
X114273722Y-48585669D01*
X114330370Y-48906936D01*
X114423929Y-49219445D01*
X114423931Y-49219451D01*
X114553141Y-49518992D01*
X114553143Y-49518995D01*
X114553145Y-49519000D01*
X114716250Y-49801507D01*
X114716251Y-49801509D01*
X114867982Y-50005317D01*
X114911057Y-50063177D01*
X114911067Y-50063188D01*
X114911070Y-50063191D01*
X115134917Y-50300457D01*
X115134923Y-50300463D01*
X115286964Y-50428040D01*
X115384823Y-50510153D01*
X115657377Y-50689414D01*
X115948899Y-50835822D01*
X116255446Y-50947396D01*
X116572874Y-51022628D01*
X116859016Y-51056073D01*
X116896888Y-51060500D01*
X116896889Y-51060500D01*
X117223112Y-51060500D01*
X117257020Y-51056536D01*
X117547126Y-51022628D01*
X117864554Y-50947396D01*
X118171101Y-50835822D01*
X118462623Y-50689414D01*
X118735177Y-50510153D01*
X118985077Y-50300462D01*
X119208943Y-50063177D01*
X119403749Y-49801508D01*
X119566859Y-49518992D01*
X119696069Y-49219451D01*
X119789630Y-48906934D01*
X119846278Y-48585669D01*
X119865246Y-48260000D01*
X141754754Y-48260000D01*
X141773721Y-48585655D01*
X141773722Y-48585669D01*
X141830370Y-48906936D01*
X141923929Y-49219445D01*
X141923931Y-49219451D01*
X142053141Y-49518992D01*
X142053143Y-49518995D01*
X142053145Y-49519000D01*
X142216250Y-49801507D01*
X142216251Y-49801509D01*
X142367982Y-50005317D01*
X142411057Y-50063177D01*
X142411067Y-50063188D01*
X142411070Y-50063191D01*
X142634917Y-50300457D01*
X142634923Y-50300463D01*
X142786964Y-50428040D01*
X142884823Y-50510153D01*
X143157377Y-50689414D01*
X143448899Y-50835822D01*
X143755446Y-50947396D01*
X144072874Y-51022628D01*
X144359016Y-51056073D01*
X144396888Y-51060500D01*
X144396889Y-51060500D01*
X144723112Y-51060500D01*
X144757020Y-51056536D01*
X145047126Y-51022628D01*
X145364554Y-50947396D01*
X145671101Y-50835822D01*
X145962623Y-50689414D01*
X146235177Y-50510153D01*
X146485077Y-50300462D01*
X146708943Y-50063177D01*
X146903749Y-49801508D01*
X147066859Y-49518992D01*
X147196069Y-49219451D01*
X147289630Y-48906934D01*
X147346278Y-48585669D01*
X147365246Y-48260000D01*
X147346278Y-47934331D01*
X147289630Y-47613066D01*
X147196069Y-47300549D01*
X147066859Y-47001008D01*
X146903749Y-46718492D01*
X146879041Y-46685304D01*
X146751318Y-46513742D01*
X146708943Y-46456823D01*
X146638592Y-46382255D01*
X146485082Y-46219542D01*
X146485076Y-46219536D01*
X146308570Y-46071431D01*
X146235177Y-46009847D01*
X145962626Y-45830588D01*
X145962627Y-45830588D01*
X145671108Y-45684181D01*
X145671104Y-45684179D01*
X145364554Y-45572604D01*
X145047126Y-45497372D01*
X144723112Y-45459500D01*
X144723111Y-45459500D01*
X144396889Y-45459500D01*
X144396888Y-45459500D01*
X144072873Y-45497372D01*
X143755445Y-45572604D01*
X143448895Y-45684179D01*
X143448891Y-45684181D01*
X143157372Y-45830588D01*
X142884824Y-46009846D01*
X142884819Y-46009850D01*
X142634923Y-46219536D01*
X142634917Y-46219542D01*
X142411070Y-46456808D01*
X142411052Y-46456829D01*
X142216251Y-46718490D01*
X142216250Y-46718492D01*
X142053145Y-47000999D01*
X141923929Y-47300554D01*
X141830370Y-47613063D01*
X141773722Y-47934330D01*
X141773721Y-47934344D01*
X141754754Y-48260000D01*
X119865246Y-48260000D01*
X119846278Y-47934331D01*
X119789630Y-47613066D01*
X119696069Y-47300549D01*
X119566859Y-47001008D01*
X119403749Y-46718492D01*
X119379041Y-46685304D01*
X119251318Y-46513742D01*
X119208943Y-46456823D01*
X119138592Y-46382255D01*
X118985082Y-46219542D01*
X118985076Y-46219536D01*
X118808570Y-46071431D01*
X118735177Y-46009847D01*
X118462626Y-45830588D01*
X118462627Y-45830588D01*
X118171108Y-45684181D01*
X118171104Y-45684179D01*
X117864554Y-45572604D01*
X117547126Y-45497372D01*
X117223112Y-45459500D01*
X117223111Y-45459500D01*
X116896889Y-45459500D01*
X116896888Y-45459500D01*
X116572873Y-45497372D01*
X116255445Y-45572604D01*
X115948895Y-45684179D01*
X115948891Y-45684181D01*
X115657372Y-45830588D01*
X115384824Y-46009846D01*
X115384819Y-46009850D01*
X115134923Y-46219536D01*
X115134917Y-46219542D01*
X114911070Y-46456808D01*
X114911052Y-46456829D01*
X114716251Y-46718490D01*
X114716250Y-46718492D01*
X114553145Y-47000999D01*
X114423929Y-47300554D01*
X114330370Y-47613063D01*
X114273722Y-47934330D01*
X114273721Y-47934344D01*
X114254754Y-48260000D01*
X77335500Y-48260000D01*
X77335500Y-44753779D01*
X77355950Y-44552682D01*
X77416461Y-44359818D01*
X77514557Y-44183082D01*
X77646222Y-44029711D01*
X77806065Y-43905983D01*
X77987542Y-43816965D01*
X78183224Y-43766299D01*
X78385099Y-43756061D01*
X78584902Y-43786670D01*
X78774454Y-43856872D01*
X78945994Y-43963794D01*
X79092499Y-44103058D01*
X79207972Y-44268962D01*
X79267146Y-44395769D01*
X79347745Y-44605736D01*
X79405512Y-44719111D01*
X79514313Y-44932644D01*
X79514320Y-44932656D01*
X79714145Y-45240361D01*
X79714149Y-45240366D01*
X79945044Y-45525498D01*
X79945046Y-45525500D01*
X79945051Y-45525506D01*
X80204494Y-45784949D01*
X80482223Y-46009850D01*
X80489633Y-46015850D01*
X80489638Y-46015854D01*
X80797343Y-46215679D01*
X80797355Y-46215686D01*
X81124262Y-46382254D01*
X81124264Y-46382255D01*
X81466801Y-46513742D01*
X81821206Y-46608705D01*
X82183596Y-46666102D01*
X82550000Y-46685304D01*
X82916404Y-46666102D01*
X83278794Y-46608705D01*
X83633199Y-46513742D01*
X83975736Y-46382255D01*
X84302652Y-46215682D01*
X84610366Y-46015851D01*
X84895506Y-45784949D01*
X85154949Y-45525506D01*
X85385851Y-45240366D01*
X85585682Y-44932652D01*
X85752255Y-44605736D01*
X85883742Y-44263199D01*
X85978705Y-43908794D01*
X86036102Y-43546404D01*
X86055304Y-43180000D01*
X161594696Y-43180000D01*
X161613897Y-43546398D01*
X161613898Y-43546404D01*
X161671295Y-43908794D01*
X161744791Y-44183082D01*
X161766260Y-44263205D01*
X161897745Y-44605737D01*
X162064313Y-44932644D01*
X162064320Y-44932656D01*
X162264145Y-45240361D01*
X162264149Y-45240366D01*
X162495044Y-45525498D01*
X162495046Y-45525500D01*
X162495051Y-45525506D01*
X162754494Y-45784949D01*
X163032223Y-46009850D01*
X163039633Y-46015850D01*
X163039638Y-46015854D01*
X163347343Y-46215679D01*
X163347355Y-46215686D01*
X163674262Y-46382254D01*
X163674264Y-46382255D01*
X164016801Y-46513742D01*
X164371206Y-46608705D01*
X164733596Y-46666102D01*
X165100000Y-46685304D01*
X165466404Y-46666102D01*
X165828794Y-46608705D01*
X166183199Y-46513742D01*
X166525736Y-46382255D01*
X166852652Y-46215682D01*
X167160366Y-46015851D01*
X167445506Y-45784949D01*
X167704949Y-45525506D01*
X167935851Y-45240366D01*
X168135682Y-44932652D01*
X168302255Y-44605736D01*
X168433742Y-44263199D01*
X168528705Y-43908794D01*
X168586102Y-43546404D01*
X168605304Y-43180000D01*
X168586102Y-42813596D01*
X168528705Y-42451206D01*
X168433742Y-42096801D01*
X168302255Y-41754264D01*
X168280125Y-41710831D01*
X168135686Y-41427355D01*
X168135679Y-41427343D01*
X167935854Y-41119638D01*
X167935850Y-41119633D01*
X167704955Y-40834501D01*
X167704953Y-40834499D01*
X167704949Y-40834494D01*
X167445506Y-40575051D01*
X167445500Y-40575046D01*
X167445498Y-40575044D01*
X167160366Y-40344149D01*
X167160361Y-40344145D01*
X166852656Y-40144320D01*
X166852644Y-40144313D01*
X166525737Y-39977745D01*
X166183205Y-39846260D01*
X166183202Y-39846259D01*
X166183199Y-39846258D01*
X165828794Y-39751295D01*
X165466404Y-39693898D01*
X165466398Y-39693897D01*
X165100000Y-39674696D01*
X164733601Y-39693897D01*
X164630716Y-39710192D01*
X164371206Y-39751295D01*
X164016801Y-39846258D01*
X164016794Y-39846260D01*
X163674262Y-39977745D01*
X163347355Y-40144313D01*
X163347343Y-40144320D01*
X163039638Y-40344145D01*
X163039633Y-40344149D01*
X162754501Y-40575044D01*
X162495044Y-40834501D01*
X162264149Y-41119633D01*
X162264145Y-41119638D01*
X162064320Y-41427343D01*
X162064313Y-41427355D01*
X161897745Y-41754262D01*
X161766260Y-42096794D01*
X161766258Y-42096799D01*
X161766258Y-42096801D01*
X161671295Y-42451206D01*
X161658997Y-42528853D01*
X161613897Y-42813601D01*
X161594696Y-43180000D01*
X86055304Y-43180000D01*
X86036102Y-42813596D01*
X85978705Y-42451206D01*
X85883742Y-42096801D01*
X85752255Y-41754264D01*
X85730125Y-41710831D01*
X85585686Y-41427355D01*
X85585679Y-41427343D01*
X85385854Y-41119638D01*
X85385850Y-41119633D01*
X85154955Y-40834501D01*
X85154953Y-40834499D01*
X85154949Y-40834494D01*
X84895506Y-40575051D01*
X84895500Y-40575046D01*
X84895498Y-40575044D01*
X84610366Y-40344149D01*
X84610361Y-40344145D01*
X84302656Y-40144320D01*
X84302644Y-40144313D01*
X83975737Y-39977745D01*
X83633205Y-39846260D01*
X83633202Y-39846259D01*
X83633199Y-39846258D01*
X83278794Y-39751295D01*
X82916404Y-39693898D01*
X82916398Y-39693897D01*
X82550000Y-39674696D01*
X82183601Y-39693897D01*
X82080716Y-39710192D01*
X81821206Y-39751295D01*
X81466801Y-39846258D01*
X81466794Y-39846260D01*
X81124262Y-39977745D01*
X80797355Y-40144313D01*
X80797343Y-40144320D01*
X80489638Y-40344145D01*
X80489633Y-40344149D01*
X80204501Y-40575044D01*
X79945044Y-40834501D01*
X79714149Y-41119633D01*
X79714145Y-41119638D01*
X79514320Y-41427343D01*
X79514313Y-41427355D01*
X79347745Y-41754263D01*
X79347741Y-41754270D01*
X79267146Y-41964230D01*
X79175988Y-42144642D01*
X79050379Y-42303011D01*
X78895462Y-42432853D01*
X78717579Y-42528853D01*
X78524013Y-42587080D01*
X78322688Y-42605150D01*
X78121847Y-42582324D01*
X77929711Y-42519537D01*
X77754148Y-42419358D01*
X77602344Y-42285889D01*
X77480515Y-42124594D01*
X77393649Y-41942077D01*
X77345300Y-41745810D01*
X77335500Y-41606220D01*
X77335500Y-38329500D01*
X77355950Y-38128403D01*
X77416461Y-37935539D01*
X77514557Y-37758803D01*
X77646222Y-37605432D01*
X77806065Y-37481704D01*
X77987542Y-37392686D01*
X78183224Y-37342020D01*
X78334500Y-37330500D01*
X170585500Y-37330500D01*
X170786597Y-37350950D01*
G37*
%TD.AperFunction*%
%TD*%
M02*
