<?xml version="1.0" standalone="no"?>
 <!DOCTYPE svg PUBLIC "-//W3C//DTD SVG 1.1//EN" 
 "http://www.w3.org/Graphics/SVG/1.1/DTD/svg11.dtd"> 
<svg
  xmlns:svg="http://www.w3.org/2000/svg"
  xmlns="http://www.w3.org/2000/svg"
  xmlns:xlink="http://www.w3.org/1999/xlink"
  version="1.1"
  width="75.3364mm" height="90.2208mm" viewBox="0.0000 0.0000 75.3364 90.2208">
<title>SVG Image created as multi-channel-preamp-F_Silkscreen.svg date 2024/06/12 20:48:08 </title>
  <desc>Image generated by PCBNEW </desc>
<g style="fill:#000000; fill-opacity:1.0000;stroke:#000000; stroke-opacity:1.0000;
stroke-linecap:round; stroke-linejoin:round;"
 transform="translate(0 0) scale(1 1)">
</g>
<g style="fill:none; 
stroke:#000000; stroke-width:0.1500; stroke-opacity:1; 
stroke-linecap:round; stroke-linejoin:round;">
<g transform="rotate(-90.000000 51.9382 45.0800)">
<text x="51.9382" y="45.5800"
textLength="2.2500" font-size="1.3333" lengthAdjust="spacingAndGlyphs"
text-anchor="middle" opacity="0">U1</text>
</g>
<g class="stroked-text"><desc>U1</desc>
<path d="M51.3930 45.8419
L52.2025 45.8419
" />
<path d="M52.2025 45.8419
L52.2978 45.7943
" />
<path d="M52.2978 45.7943
L52.3454 45.7467
" />
<path d="M52.3454 45.7467
L52.3930 45.6514
" />
<path d="M52.3930 45.6514
L52.3930 45.4610
" />
<path d="M52.3930 45.4610
L52.3454 45.3657
" />
<path d="M52.3454 45.3657
L52.2978 45.3181
" />
<path d="M52.2978 45.3181
L52.2025 45.2705
" />
<path d="M52.2025 45.2705
L51.3930 45.2705
" />
<path d="M52.3930 44.2705
L52.3930 44.8419
" />
<path d="M52.3930 44.5562
L51.3930 44.5562
" />
<path d="M51.3930 44.5562
L51.5359 44.6514
" />
<path d="M51.5359 44.6514
L51.6311 44.7467
" />
<path d="M51.6311 44.7467
L51.6787 44.8419
" />
</g><text x="37.2032" y="65.0480"
textLength="2.9167" font-size="1.3333" lengthAdjust="spacingAndGlyphs"
text-anchor="middle" opacity="0">J11</text>
<g class="stroked-text"><desc>J11</desc>
<path d="M36.3937 64.0028
L36.3937 64.7171
" />
<path d="M36.3937 64.7171
L36.3461 64.8600
" />
<path d="M36.3461 64.8600
L36.2508 64.9552
" />
<path d="M36.2508 64.9552
L36.1080 65.0028
" />
<path d="M36.1080 65.0028
L36.0127 65.0028
" />
<path d="M37.3937 65.0028
L36.8222 65.0028
" />
<path d="M37.1080 65.0028
L37.1080 64.0028
" />
<path d="M37.1080 64.0028
L37.0127 64.1457
" />
<path d="M37.0127 64.1457
L36.9175 64.2409
" />
<path d="M36.9175 64.2409
L36.8222 64.2885
" />
<path d="M38.3461 65.0028
L37.7746 65.0028
" />
<path d="M38.0603 65.0028
L38.0603 64.0028
" />
<path d="M38.0603 64.0028
L37.9651 64.1457
" />
<path d="M37.9651 64.1457
L37.8699 64.2409
" />
<path d="M37.8699 64.2409
L37.7746 64.2885
" />
</g><g transform="rotate(-90.000000 16.3182 56.8780)">
<text x="16.3182" y="57.3780"
textLength="2.9167" font-size="1.3333" lengthAdjust="spacingAndGlyphs"
text-anchor="middle" opacity="0">J10</text>
</g>
<g class="stroked-text"><desc>J10</desc>
<path d="M15.7730 57.6875
L16.4873 57.6875
" />
<path d="M16.4873 57.6875
L16.6302 57.7351
" />
<path d="M16.6302 57.7351
L16.7254 57.8304
" />
<path d="M16.7254 57.8304
L16.7730 57.9732
" />
<path d="M16.7730 57.9732
L16.7730 58.0685
" />
<path d="M16.7730 56.6875
L16.7730 57.2590
" />
<path d="M16.7730 56.9732
L15.7730 56.9732
" />
<path d="M15.7730 56.9732
L15.9159 57.0685
" />
<path d="M15.9159 57.0685
L16.0111 57.1637
" />
<path d="M16.0111 57.1637
L16.0587 57.2590
" />
<path d="M15.7730 56.0685
L15.7730 55.9732
" />
<path d="M15.7730 55.9732
L15.8206 55.8780
" />
<path d="M15.8206 55.8780
L15.8683 55.8304
" />
<path d="M15.8683 55.8304
L15.9635 55.7828
" />
<path d="M15.9635 55.7828
L16.1540 55.7351
" />
<path d="M16.1540 55.7351
L16.3921 55.7351
" />
<path d="M16.3921 55.7351
L16.5825 55.7828
" />
<path d="M16.5825 55.7828
L16.6778 55.8304
" />
<path d="M16.6778 55.8304
L16.7254 55.8780
" />
<path d="M16.7254 55.8780
L16.7730 55.9732
" />
<path d="M16.7730 55.9732
L16.7730 56.0685
" />
<path d="M16.7730 56.0685
L16.7254 56.1637
" />
<path d="M16.7254 56.1637
L16.6778 56.2113
" />
<path d="M16.6778 56.2113
L16.5825 56.2590
" />
<path d="M16.5825 56.2590
L16.3921 56.3066
" />
<path d="M16.3921 56.3066
L16.1540 56.3066
" />
<path d="M16.1540 56.3066
L15.9635 56.2590
" />
<path d="M15.9635 56.2590
L15.8683 56.2113
" />
<path d="M15.8683 56.2113
L15.8206 56.1637
" />
<path d="M15.8206 56.1637
L15.7730 56.0685
" />
</g><text x="19.3332" y="65.0480"
textLength="1.9643" font-size="1.3333" lengthAdjust="spacingAndGlyphs"
text-anchor="middle" opacity="0">J9</text>
<g class="stroked-text"><desc>J9</desc>
<path d="M18.9999 64.0028
L18.9999 64.7171
" />
<path d="M18.9999 64.7171
L18.9522 64.8600
" />
<path d="M18.9522 64.8600
L18.8570 64.9552
" />
<path d="M18.8570 64.9552
L18.7142 65.0028
" />
<path d="M18.7142 65.0028
L18.6189 65.0028
" />
<path d="M19.5237 65.0028
L19.7142 65.0028
" />
<path d="M19.7142 65.0028
L19.8094 64.9552
" />
<path d="M19.8094 64.9552
L19.8570 64.9076
" />
<path d="M19.8570 64.9076
L19.9522 64.7647
" />
<path d="M19.9522 64.7647
L19.9999 64.5742
" />
<path d="M19.9999 64.5742
L19.9999 64.1933
" />
<path d="M19.9999 64.1933
L19.9522 64.0981
" />
<path d="M19.9522 64.0981
L19.9046 64.0504
" />
<path d="M19.9046 64.0504
L19.8094 64.0028
" />
<path d="M19.8094 64.0028
L19.6189 64.0028
" />
<path d="M19.6189 64.0028
L19.5237 64.0504
" />
<path d="M19.5237 64.0504
L19.4761 64.0981
" />
<path d="M19.4761 64.0981
L19.4284 64.1933
" />
<path d="M19.4284 64.1933
L19.4284 64.4314
" />
<path d="M19.4284 64.4314
L19.4761 64.5266
" />
<path d="M19.4761 64.5266
L19.5237 64.5742
" />
<path d="M19.5237 64.5742
L19.6189 64.6219
" />
<path d="M19.6189 64.6219
L19.8094 64.6219
" />
<path d="M19.8094 64.6219
L19.9046 64.5742
" />
<path d="M19.9046 64.5742
L19.9522 64.5266
" />
<path d="M19.9522 64.5266
L19.9999 64.4314
" />
</g><g transform="rotate(-90.000000 58.7132 47.9186)">
<text x="58.7132" y="48.4186"
textLength="1.9643" font-size="1.3333" lengthAdjust="spacingAndGlyphs"
text-anchor="middle" opacity="0">J8</text>
</g>
<g class="stroked-text"><desc>J8</desc>
<path d="M58.1680 48.2519
L58.8823 48.2519
" />
<path d="M58.8823 48.2519
L59.0252 48.2996
" />
<path d="M59.0252 48.2996
L59.1204 48.3948
" />
<path d="M59.1204 48.3948
L59.1680 48.5376
" />
<path d="M59.1680 48.5376
L59.1680 48.6329
" />
<path d="M58.5966 47.6329
L58.5490 47.7281
" />
<path d="M58.5490 47.7281
L58.5014 47.7757
" />
<path d="M58.5014 47.7757
L58.4061 47.8234
" />
<path d="M58.4061 47.8234
L58.3585 47.8234
" />
<path d="M58.3585 47.8234
L58.2633 47.7757
" />
<path d="M58.2633 47.7757
L58.2156 47.7281
" />
<path d="M58.2156 47.7281
L58.1680 47.6329
" />
<path d="M58.1680 47.6329
L58.1680 47.4424
" />
<path d="M58.1680 47.4424
L58.2156 47.3472
" />
<path d="M58.2156 47.3472
L58.2633 47.2996
" />
<path d="M58.2633 47.2996
L58.3585 47.2519
" />
<path d="M58.3585 47.2519
L58.4061 47.2519
" />
<path d="M58.4061 47.2519
L58.5014 47.2996
" />
<path d="M58.5014 47.2996
L58.5490 47.3472
" />
<path d="M58.5490 47.3472
L58.5966 47.4424
" />
<path d="M58.5966 47.4424
L58.5966 47.6329
" />
<path d="M58.5966 47.6329
L58.6442 47.7281
" />
<path d="M58.6442 47.7281
L58.6918 47.7757
" />
<path d="M58.6918 47.7757
L58.7871 47.8234
" />
<path d="M58.7871 47.8234
L58.9775 47.8234
" />
<path d="M58.9775 47.8234
L59.0728 47.7757
" />
<path d="M59.0728 47.7757
L59.1204 47.7281
" />
<path d="M59.1204 47.7281
L59.1680 47.6329
" />
<path d="M59.1680 47.6329
L59.1680 47.4424
" />
<path d="M59.1680 47.4424
L59.1204 47.3472
" />
<path d="M59.1204 47.3472
L59.0728 47.2996
" />
<path d="M59.0728 47.2996
L58.9775 47.2519
" />
<path d="M58.9775 47.2519
L58.7871 47.2519
" />
<path d="M58.7871 47.2519
L58.6918 47.2996
" />
<path d="M58.6918 47.2996
L58.6442 47.3472
" />
<path d="M58.6442 47.3472
L58.5966 47.4424
" />
</g><text x="56.0432" y="65.3850"
textLength="1.9643" font-size="1.3333" lengthAdjust="spacingAndGlyphs"
text-anchor="middle" opacity="0">J6</text>
<g class="stroked-text"><desc>J6</desc>
<path d="M55.7099 64.3398
L55.7099 65.0541
" />
<path d="M55.7099 65.0541
L55.6622 65.1970
" />
<path d="M55.6622 65.1970
L55.5670 65.2922
" />
<path d="M55.5670 65.2922
L55.4242 65.3398
" />
<path d="M55.4242 65.3398
L55.3289 65.3398
" />
<path d="M56.6146 64.3398
L56.4242 64.3398
" />
<path d="M56.4242 64.3398
L56.3289 64.3874
" />
<path d="M56.3289 64.3874
L56.2813 64.4351
" />
<path d="M56.2813 64.4351
L56.1861 64.5779
" />
<path d="M56.1861 64.5779
L56.1384 64.7684
" />
<path d="M56.1384 64.7684
L56.1384 65.1493
" />
<path d="M56.1384 65.1493
L56.1861 65.2446
" />
<path d="M56.1861 65.2446
L56.2337 65.2922
" />
<path d="M56.2337 65.2922
L56.3289 65.3398
" />
<path d="M56.3289 65.3398
L56.5194 65.3398
" />
<path d="M56.5194 65.3398
L56.6146 65.2922
" />
<path d="M56.6146 65.2922
L56.6622 65.2446
" />
<path d="M56.6622 65.2446
L56.7099 65.1493
" />
<path d="M56.7099 65.1493
L56.7099 64.9112
" />
<path d="M56.7099 64.9112
L56.6622 64.8160
" />
<path d="M56.6622 64.8160
L56.6146 64.7684
" />
<path d="M56.6146 64.7684
L56.5194 64.7208
" />
<path d="M56.5194 64.7208
L56.3289 64.7208
" />
<path d="M56.3289 64.7208
L56.2337 64.7684
" />
<path d="M56.2337 64.7684
L56.1861 64.8160
" />
<path d="M56.1861 64.8160
L56.1384 64.9112
" />
</g><text x="38.2632" y="27.1050"
textLength="1.9643" font-size="1.3333" lengthAdjust="spacingAndGlyphs"
text-anchor="middle" opacity="0">J5</text>
<g class="stroked-text"><desc>J5</desc>
<path d="M37.9299 26.0598
L37.9299 26.7741
" />
<path d="M37.9299 26.7741
L37.8822 26.9170
" />
<path d="M37.8822 26.9170
L37.7870 27.0122
" />
<path d="M37.7870 27.0122
L37.6442 27.0598
" />
<path d="M37.6442 27.0598
L37.5489 27.0598
" />
<path d="M38.8822 26.0598
L38.4061 26.0598
" />
<path d="M38.4061 26.0598
L38.3584 26.5360
" />
<path d="M38.3584 26.5360
L38.4061 26.4884
" />
<path d="M38.4061 26.4884
L38.5013 26.4408
" />
<path d="M38.5013 26.4408
L38.7394 26.4408
" />
<path d="M38.7394 26.4408
L38.8346 26.4884
" />
<path d="M38.8346 26.4884
L38.8822 26.5360
" />
<path d="M38.8822 26.5360
L38.9299 26.6312
" />
<path d="M38.9299 26.6312
L38.9299 26.8693
" />
<path d="M38.9299 26.8693
L38.8822 26.9646
" />
<path d="M38.8822 26.9646
L38.8346 27.0122
" />
<path d="M38.8346 27.0122
L38.7394 27.0598
" />
<path d="M38.7394 27.0598
L38.5013 27.0598
" />
<path d="M38.5013 27.0598
L38.4061 27.0122
" />
<path d="M38.4061 27.0122
L38.3584 26.9646
" />
</g><g transform="rotate(-90.000000 58.7132 33.0850)">
<text x="58.7132" y="33.5850"
textLength="1.9643" font-size="1.3333" lengthAdjust="spacingAndGlyphs"
text-anchor="middle" opacity="0">J4</text>
</g>
<g class="stroked-text"><desc>J4</desc>
<path d="M58.1680 33.4183
L58.8823 33.4183
" />
<path d="M58.8823 33.4183
L59.0252 33.4660
" />
<path d="M59.0252 33.4660
L59.1204 33.5612
" />
<path d="M59.1204 33.5612
L59.1680 33.7040
" />
<path d="M59.1680 33.7040
L59.1680 33.7993
" />
<path d="M58.5014 32.5136
L59.1680 32.5136
" />
<path d="M58.1204 32.7517
L58.8347 32.9898
" />
<path d="M58.8347 32.9898
L58.8347 32.3707
" />
</g><g transform="rotate(-90.000000 16.3182 43.2050)">
<text x="16.3182" y="43.7050"
textLength="1.9643" font-size="1.3333" lengthAdjust="spacingAndGlyphs"
text-anchor="middle" opacity="0">J3</text>
</g>
<g class="stroked-text"><desc>J3</desc>
<path d="M15.7730 43.5383
L16.4873 43.5383
" />
<path d="M16.4873 43.5383
L16.6302 43.5860
" />
<path d="M16.6302 43.5860
L16.7254 43.6812
" />
<path d="M16.7254 43.6812
L16.7730 43.8240
" />
<path d="M16.7730 43.8240
L16.7730 43.9193
" />
<path d="M15.7730 43.1574
L15.7730 42.5383
" />
<path d="M15.7730 42.5383
L16.1540 42.8717
" />
<path d="M16.1540 42.8717
L16.1540 42.7288
" />
<path d="M16.1540 42.7288
L16.2016 42.6336
" />
<path d="M16.2016 42.6336
L16.2492 42.5860
" />
<path d="M16.2492 42.5860
L16.3444 42.5383
" />
<path d="M16.3444 42.5383
L16.5825 42.5383
" />
<path d="M16.5825 42.5383
L16.6778 42.5860
" />
<path d="M16.6778 42.5860
L16.7254 42.6336
" />
<path d="M16.7254 42.6336
L16.7730 42.7288
" />
<path d="M16.7730 42.7288
L16.7730 43.0145
" />
<path d="M16.7730 43.0145
L16.7254 43.1098
" />
<path d="M16.7254 43.1098
L16.6778 43.1574
" />
</g><text x="54.0532" y="27.2456"
textLength="1.9643" font-size="1.3333" lengthAdjust="spacingAndGlyphs"
text-anchor="middle" opacity="0">J2</text>
<g class="stroked-text"><desc>J2</desc>
<path d="M53.7199 26.2004
L53.7199 26.9147
" />
<path d="M53.7199 26.9147
L53.6722 27.0576
" />
<path d="M53.6722 27.0576
L53.5770 27.1528
" />
<path d="M53.5770 27.1528
L53.4342 27.2004
" />
<path d="M53.4342 27.2004
L53.3389 27.2004
" />
<path d="M54.1484 26.2957
L54.1961 26.2480
" />
<path d="M54.1961 26.2480
L54.2913 26.2004
" />
<path d="M54.2913 26.2004
L54.5294 26.2004
" />
<path d="M54.5294 26.2004
L54.6246 26.2480
" />
<path d="M54.6246 26.2480
L54.6722 26.2957
" />
<path d="M54.6722 26.2957
L54.7199 26.3909
" />
<path d="M54.7199 26.3909
L54.7199 26.4861
" />
<path d="M54.7199 26.4861
L54.6722 26.6290
" />
<path d="M54.6722 26.6290
L54.1008 27.2004
" />
<path d="M54.1008 27.2004
L54.7199 27.2004
" />
</g><text x="18.0232" y="27.1050"
textLength="1.9643" font-size="1.3333" lengthAdjust="spacingAndGlyphs"
text-anchor="middle" opacity="0">J1</text>
<g class="stroked-text"><desc>J1</desc>
<path d="M17.6899 26.0598
L17.6899 26.7741
" />
<path d="M17.6899 26.7741
L17.6422 26.9170
" />
<path d="M17.6422 26.9170
L17.5470 27.0122
" />
<path d="M17.5470 27.0122
L17.4042 27.0598
" />
<path d="M17.4042 27.0598
L17.3089 27.0598
" />
<path d="M18.6899 27.0598
L18.1184 27.0598
" />
<path d="M18.4042 27.0598
L18.4042 26.0598
" />
<path d="M18.4042 26.0598
L18.3089 26.2027
" />
<path d="M18.3089 26.2027
L18.2137 26.2979
" />
<path d="M18.2137 26.2979
L18.1184 26.3455
" />
</g><text x="56.0832" y="62.5850"
textLength="2.2024" font-size="1.3333" lengthAdjust="spacingAndGlyphs"
text-anchor="middle" opacity="0">R5</text>
<g class="stroked-text"><desc>R5</desc>
<path d="M55.9165 62.5398
L55.5832 62.0636
" />
<path d="M55.3451 62.5398
L55.3451 61.5398
" />
<path d="M55.3451 61.5398
L55.7261 61.5398
" />
<path d="M55.7261 61.5398
L55.8213 61.5874
" />
<path d="M55.8213 61.5874
L55.8689 61.6351
" />
<path d="M55.8689 61.6351
L55.9165 61.7303
" />
<path d="M55.9165 61.7303
L55.9165 61.8732
" />
<path d="M55.9165 61.8732
L55.8689 61.9684
" />
<path d="M55.8689 61.9684
L55.8213 62.0160
" />
<path d="M55.8213 62.0160
L55.7261 62.0636
" />
<path d="M55.7261 62.0636
L55.3451 62.0636
" />
<path d="M56.8213 61.5398
L56.3451 61.5398
" />
<path d="M56.3451 61.5398
L56.2975 62.0160
" />
<path d="M56.2975 62.0160
L56.3451 61.9684
" />
<path d="M56.3451 61.9684
L56.4403 61.9208
" />
<path d="M56.4403 61.9208
L56.6784 61.9208
" />
<path d="M56.6784 61.9208
L56.7737 61.9684
" />
<path d="M56.7737 61.9684
L56.8213 62.0160
" />
<path d="M56.8213 62.0160
L56.8689 62.1112
" />
<path d="M56.8689 62.1112
L56.8689 62.3493
" />
<path d="M56.8689 62.3493
L56.8213 62.4446
" />
<path d="M56.8213 62.4446
L56.7737 62.4922
" />
<path d="M56.7737 62.4922
L56.6784 62.5398
" />
<path d="M56.6784 62.5398
L56.4403 62.5398
" />
<path d="M56.4403 62.5398
L56.3451 62.4922
" />
<path d="M56.3451 62.4922
L56.2975 62.4446
" />
</g><g transform="rotate(-90.000000 44.4732 68.2680)">
<text x="44.4732" y="68.7680"
textLength="2.2024" font-size="1.3333" lengthAdjust="spacingAndGlyphs"
text-anchor="middle" opacity="0">R8</text>
</g>
<g class="stroked-text"><desc>R8</desc>
<path d="M44.9280 68.4347
L44.4518 68.7680
" />
<path d="M44.9280 69.0061
L43.9280 69.0061
" />
<path d="M43.9280 69.0061
L43.9280 68.6251
" />
<path d="M43.9280 68.6251
L43.9756 68.5299
" />
<path d="M43.9756 68.5299
L44.0233 68.4823
" />
<path d="M44.0233 68.4823
L44.1185 68.4347
" />
<path d="M44.1185 68.4347
L44.2614 68.4347
" />
<path d="M44.2614 68.4347
L44.3566 68.4823
" />
<path d="M44.3566 68.4823
L44.4042 68.5299
" />
<path d="M44.4042 68.5299
L44.4518 68.6251
" />
<path d="M44.4518 68.6251
L44.4518 69.0061
" />
<path d="M44.3566 67.8632
L44.3090 67.9585
" />
<path d="M44.3090 67.9585
L44.2614 68.0061
" />
<path d="M44.2614 68.0061
L44.1661 68.0537
" />
<path d="M44.1661 68.0537
L44.1185 68.0537
" />
<path d="M44.1185 68.0537
L44.0233 68.0061
" />
<path d="M44.0233 68.0061
L43.9756 67.9585
" />
<path d="M43.9756 67.9585
L43.9280 67.8632
" />
<path d="M43.9280 67.8632
L43.9280 67.6728
" />
<path d="M43.9280 67.6728
L43.9756 67.5775
" />
<path d="M43.9756 67.5775
L44.0233 67.5299
" />
<path d="M44.0233 67.5299
L44.1185 67.4823
" />
<path d="M44.1185 67.4823
L44.1661 67.4823
" />
<path d="M44.1661 67.4823
L44.2614 67.5299
" />
<path d="M44.2614 67.5299
L44.3090 67.5775
" />
<path d="M44.3090 67.5775
L44.3566 67.6728
" />
<path d="M44.3566 67.6728
L44.3566 67.8632
" />
<path d="M44.3566 67.8632
L44.4042 67.9585
" />
<path d="M44.4042 67.9585
L44.4518 68.0061
" />
<path d="M44.4518 68.0061
L44.5471 68.0537
" />
<path d="M44.5471 68.0537
L44.7375 68.0537
" />
<path d="M44.7375 68.0537
L44.8328 68.0061
" />
<path d="M44.8328 68.0061
L44.8804 67.9585
" />
<path d="M44.8804 67.9585
L44.9280 67.8632
" />
<path d="M44.9280 67.8632
L44.9280 67.6728
" />
<path d="M44.9280 67.6728
L44.8804 67.5775
" />
<path d="M44.8804 67.5775
L44.8328 67.5299
" />
<path d="M44.8328 67.5299
L44.7375 67.4823
" />
<path d="M44.7375 67.4823
L44.5471 67.4823
" />
<path d="M44.5471 67.4823
L44.4518 67.5299
" />
<path d="M44.4518 67.5299
L44.4042 67.5775
" />
<path d="M44.4042 67.5775
L44.3566 67.6728
" />
</g><text x="45.9232" y="6.8750"
textLength="2.2024" font-size="1.3333" lengthAdjust="spacingAndGlyphs"
text-anchor="middle" opacity="0">C1</text>
<g class="stroked-text"><desc>C1</desc>
<path d="M45.7565 6.7346
L45.7089 6.7822
" />
<path d="M45.7089 6.7822
L45.5661 6.8298
" />
<path d="M45.5661 6.8298
L45.4708 6.8298
" />
<path d="M45.4708 6.8298
L45.3280 6.7822
" />
<path d="M45.3280 6.7822
L45.2327 6.6870
" />
<path d="M45.2327 6.6870
L45.1851 6.5917
" />
<path d="M45.1851 6.5917
L45.1375 6.4012
" />
<path d="M45.1375 6.4012
L45.1375 6.2584
" />
<path d="M45.1375 6.2584
L45.1851 6.0679
" />
<path d="M45.1851 6.0679
L45.2327 5.9727
" />
<path d="M45.2327 5.9727
L45.3280 5.8774
" />
<path d="M45.3280 5.8774
L45.4708 5.8298
" />
<path d="M45.4708 5.8298
L45.5661 5.8298
" />
<path d="M45.5661 5.8298
L45.7089 5.8774
" />
<path d="M45.7089 5.8774
L45.7565 5.9251
" />
<path d="M46.7089 6.8298
L46.1375 6.8298
" />
<path d="M46.4232 6.8298
L46.4232 5.8298
" />
<path d="M46.4232 5.8298
L46.3280 5.9727
" />
<path d="M46.3280 5.9727
L46.2327 6.0679
" />
<path d="M46.2327 6.0679
L46.1375 6.1155
" />
</g><g transform="rotate(-90.000000 22.8932 43.2050)">
<text x="22.8932" y="43.7050"
textLength="2.2024" font-size="1.3333" lengthAdjust="spacingAndGlyphs"
text-anchor="middle" opacity="0">R1</text>
</g>
<g class="stroked-text"><desc>R1</desc>
<path d="M23.3480 43.3717
L22.8718 43.7050
" />
<path d="M23.3480 43.9431
L22.3480 43.9431
" />
<path d="M22.3480 43.9431
L22.3480 43.5621
" />
<path d="M22.3480 43.5621
L22.3956 43.4669
" />
<path d="M22.3956 43.4669
L22.4433 43.4193
" />
<path d="M22.4433 43.4193
L22.5385 43.3717
" />
<path d="M22.5385 43.3717
L22.6814 43.3717
" />
<path d="M22.6814 43.3717
L22.7766 43.4193
" />
<path d="M22.7766 43.4193
L22.8242 43.4669
" />
<path d="M22.8242 43.4669
L22.8718 43.5621
" />
<path d="M22.8718 43.5621
L22.8718 43.9431
" />
<path d="M23.3480 42.4193
L23.3480 42.9907
" />
<path d="M23.3480 42.7050
L22.3480 42.7050
" />
<path d="M22.3480 42.7050
L22.4909 42.8002
" />
<path d="M22.4909 42.8002
L22.5861 42.8955
" />
<path d="M22.5861 42.8955
L22.6337 42.9907
" />
</g><g transform="rotate(-90.000000 30.8632 22.8850)">
<text x="30.8632" y="23.3850"
textLength="2.2024" font-size="1.3333" lengthAdjust="spacingAndGlyphs"
text-anchor="middle" opacity="0">R4</text>
</g>
<g class="stroked-text"><desc>R4</desc>
<path d="M31.3180 23.0517
L30.8418 23.3850
" />
<path d="M31.3180 23.6231
L30.3180 23.6231
" />
<path d="M30.3180 23.6231
L30.3180 23.2421
" />
<path d="M30.3180 23.2421
L30.3656 23.1469
" />
<path d="M30.3656 23.1469
L30.4133 23.0993
" />
<path d="M30.4133 23.0993
L30.5085 23.0517
" />
<path d="M30.5085 23.0517
L30.6514 23.0517
" />
<path d="M30.6514 23.0517
L30.7466 23.0993
" />
<path d="M30.7466 23.0993
L30.7942 23.1469
" />
<path d="M30.7942 23.1469
L30.8418 23.2421
" />
<path d="M30.8418 23.2421
L30.8418 23.6231
" />
<path d="M30.6514 22.1945
L31.3180 22.1945
" />
<path d="M30.2704 22.4326
L30.9847 22.6707
" />
<path d="M30.9847 22.6707
L30.9847 22.0517
" />
</g><g transform="rotate(-90.000000 3.8332 22.8850)">
<text x="3.8332" y="23.3850"
textLength="2.2024" font-size="1.3333" lengthAdjust="spacingAndGlyphs"
text-anchor="middle" opacity="0">R3</text>
</g>
<g class="stroked-text"><desc>R3</desc>
<path d="M4.2880 23.0517
L3.8118 23.3850
" />
<path d="M4.2880 23.6231
L3.2880 23.6231
" />
<path d="M3.2880 23.6231
L3.2880 23.2421
" />
<path d="M3.2880 23.2421
L3.3356 23.1469
" />
<path d="M3.3356 23.1469
L3.3833 23.0993
" />
<path d="M3.3833 23.0993
L3.4785 23.0517
" />
<path d="M3.4785 23.0517
L3.6214 23.0517
" />
<path d="M3.6214 23.0517
L3.7166 23.0993
" />
<path d="M3.7166 23.0993
L3.7642 23.1469
" />
<path d="M3.7642 23.1469
L3.8118 23.2421
" />
<path d="M3.8118 23.2421
L3.8118 23.6231
" />
<path d="M3.2880 22.7183
L3.2880 22.0993
" />
<path d="M3.2880 22.0993
L3.6690 22.4326
" />
<path d="M3.6690 22.4326
L3.6690 22.2898
" />
<path d="M3.6690 22.2898
L3.7166 22.1945
" />
<path d="M3.7166 22.1945
L3.7642 22.1469
" />
<path d="M3.7642 22.1469
L3.8594 22.0993
" />
<path d="M3.8594 22.0993
L4.0975 22.0993
" />
<path d="M4.0975 22.0993
L4.1928 22.1469
" />
<path d="M4.1928 22.1469
L4.2404 22.1945
" />
<path d="M4.2404 22.1945
L4.2880 22.2898
" />
<path d="M4.2880 22.2898
L4.2880 22.5755
" />
<path d="M4.2880 22.5755
L4.2404 22.6707
" />
<path d="M4.2404 22.6707
L4.1928 22.7183
" />
</g><g transform="rotate(-90.000000 68.9632 68.6050)">
<text x="68.9632" y="69.1050"
textLength="2.2024" font-size="1.3333" lengthAdjust="spacingAndGlyphs"
text-anchor="middle" opacity="0">R7</text>
</g>
<g class="stroked-text"><desc>R7</desc>
<path d="M69.4180 68.7717
L68.9418 69.1050
" />
<path d="M69.4180 69.3431
L68.4180 69.3431
" />
<path d="M68.4180 69.3431
L68.4180 68.9621
" />
<path d="M68.4180 68.9621
L68.4656 68.8669
" />
<path d="M68.4656 68.8669
L68.5133 68.8193
" />
<path d="M68.5133 68.8193
L68.6085 68.7717
" />
<path d="M68.6085 68.7717
L68.7514 68.7717
" />
<path d="M68.7514 68.7717
L68.8466 68.8193
" />
<path d="M68.8466 68.8193
L68.8942 68.8669
" />
<path d="M68.8942 68.8669
L68.9418 68.9621
" />
<path d="M68.9418 68.9621
L68.9418 69.3431
" />
<path d="M68.4180 68.4383
L68.4180 67.7717
" />
<path d="M68.4180 67.7717
L69.4180 68.2002
" />
</g><text x="17.9832" y="28.6350"
textLength="2.2024" font-size="1.3333" lengthAdjust="spacingAndGlyphs"
text-anchor="middle" opacity="0">R2</text>
<g class="stroked-text"><desc>R2</desc>
<path d="M17.8165 28.5898
L17.4832 28.1136
" />
<path d="M17.2451 28.5898
L17.2451 27.5898
" />
<path d="M17.2451 27.5898
L17.6261 27.5898
" />
<path d="M17.6261 27.5898
L17.7213 27.6374
" />
<path d="M17.7213 27.6374
L17.7689 27.6851
" />
<path d="M17.7689 27.6851
L17.8165 27.7803
" />
<path d="M17.8165 27.7803
L17.8165 27.9232
" />
<path d="M17.8165 27.9232
L17.7689 28.0184
" />
<path d="M17.7689 28.0184
L17.7213 28.0660
" />
<path d="M17.7213 28.0660
L17.6261 28.1136
" />
<path d="M17.6261 28.1136
L17.2451 28.1136
" />
<path d="M18.1975 27.6851
L18.2451 27.6374
" />
<path d="M18.2451 27.6374
L18.3403 27.5898
" />
<path d="M18.3403 27.5898
L18.5784 27.5898
" />
<path d="M18.5784 27.5898
L18.6737 27.6374
" />
<path d="M18.6737 27.6374
L18.7213 27.6851
" />
<path d="M18.7213 27.6851
L18.7689 27.7803
" />
<path d="M18.7689 27.7803
L18.7689 27.8755
" />
<path d="M18.7689 27.8755
L18.7213 28.0184
" />
<path d="M18.7213 28.0184
L18.1499 28.5898
" />
<path d="M18.1499 28.5898
L18.7689 28.5898
" />
</g><g transform="rotate(-90.000000 53.2408 48.2850)">
<text x="53.2408" y="48.7850"
textLength="2.2024" font-size="1.3333" lengthAdjust="spacingAndGlyphs"
text-anchor="middle" opacity="0">R6</text>
</g>
<g class="stroked-text"><desc>R6</desc>
<path d="M53.6956 48.4517
L53.2194 48.7850
" />
<path d="M53.6956 49.0231
L52.6956 49.0231
" />
<path d="M52.6956 49.0231
L52.6956 48.6421
" />
<path d="M52.6956 48.6421
L52.7432 48.5469
" />
<path d="M52.7432 48.5469
L52.7909 48.4993
" />
<path d="M52.7909 48.4993
L52.8861 48.4517
" />
<path d="M52.8861 48.4517
L53.0290 48.4517
" />
<path d="M53.0290 48.4517
L53.1242 48.4993
" />
<path d="M53.1242 48.4993
L53.1718 48.5469
" />
<path d="M53.1718 48.5469
L53.2194 48.6421
" />
<path d="M53.2194 48.6421
L53.2194 49.0231
" />
<path d="M52.6956 47.5945
L52.6956 47.7850
" />
<path d="M52.6956 47.7850
L52.7432 47.8802
" />
<path d="M52.7432 47.8802
L52.7909 47.9279
" />
<path d="M52.7909 47.9279
L52.9337 48.0231
" />
<path d="M52.9337 48.0231
L53.1242 48.0707
" />
<path d="M53.1242 48.0707
L53.5051 48.0707
" />
<path d="M53.5051 48.0707
L53.6004 48.0231
" />
<path d="M53.6004 48.0231
L53.6480 47.9755
" />
<path d="M53.6480 47.9755
L53.6956 47.8802
" />
<path d="M53.6956 47.8802
L53.6956 47.6898
" />
<path d="M53.6956 47.6898
L53.6480 47.5945
" />
<path d="M53.6480 47.5945
L53.6004 47.5469
" />
<path d="M53.6004 47.5469
L53.5051 47.4993
" />
<path d="M53.5051 47.4993
L53.2670 47.4993
" />
<path d="M53.2670 47.4993
L53.1718 47.5469
" />
<path d="M53.1718 47.5469
L53.1242 47.5945
" />
<path d="M53.1242 47.5945
L53.0766 47.6898
" />
<path d="M53.0766 47.6898
L53.0766 47.8802
" />
<path d="M53.0766 47.8802
L53.1242 47.9755
" />
<path d="M53.1242 47.9755
L53.1718 48.0231
" />
<path d="M53.1718 48.0231
L53.2670 48.0707
" />
</g></g>
<g style="fill:none; 
stroke:#000000; stroke-width:0.1270; stroke-opacity:1; 
stroke-linecap:round; stroke-linejoin:round;">
<path d="M44.9682 36.1550
L43.3032 36.1550
" />
<path d="M39.8832 36.1550
L36.7232 36.1550
" />
<path d="M31.6382 36.1550
L33.3032 36.1550
" />
<path d="M36.7286 54.6550
L44.9682 54.6550
" />
<path d="M31.6382 54.6550
L33.3886 54.6550
" />
<path d="M46.6132 37.6050 A11.4395 11.4395 0.0 0 0 44.9682 36.1550" />
<path d="M31.6382 36.1550 A11.4394 11.4394 0.0 0 0 29.9932 37.6050" />
<path d="M49.3999 42.8050 A11.4394 11.4394 0.0 0 0 48.7003 40.7268" />
<path d="M27.9061 40.7268 A11.4394 11.4394 0.0 0 0 27.2065 42.8050" />
<path d="M48.7003 50.0832 A11.4394 11.4394 0.0 0 0 49.3999 48.0050" />
<path d="M27.2065 48.0050 A11.4394 11.4394 0.0 0 0 27.9061 50.0832" />
<path d="M44.9682 54.6550 A11.4394 11.4394 0.0 0 0 46.6132 53.2050" />
<path d="M29.9932 53.2050 A11.4395 11.4395 0.0 0 0 31.6382 54.6550" />
</g>
<g style="fill:none; 
stroke:#000000; stroke-width:0.2000; stroke-opacity:1; 
stroke-linecap:round; stroke-linejoin:round;">
<circle cx="46.8032" cy="55.4050" r="0.1000" /> 
</g>
<g style="fill:none; 
stroke:#000000; stroke-width:0.1200; stroke-opacity:1; 
stroke-linecap:round; stroke-linejoin:round;">
<path d="M31.9032 74.9680
L31.9032 75.7080
" />
<path d="M31.9032 75.7080
L32.4032 75.7080
" />
<path d="M32.1432 65.5470
L32.1432 75.4680
" />
<path d="M32.1432 65.5470
L42.2632 65.5470
" />
<path d="M32.1432 68.5070
L42.2632 68.5070
" />
<path d="M32.1432 73.4080
L42.2632 73.4080
" />
<path d="M32.1432 74.9080
L42.2632 74.9080
" />
<path d="M32.1432 75.4680
L42.2632 75.4680
" />
<path d="M38.4762 71.8310
L38.4292 71.8770
" />
<path d="M38.6692 72.0470
L38.6342 72.0820
" />
<path d="M40.7732 69.5330
L40.7382 69.5690
" />
<path d="M40.9782 69.7390
L40.9312 69.7850
" />
<path d="M42.2632 65.5470
L42.2632 75.4680
" />
<path d="M33.1682 70.1240 A1.6805 1.6805 0.0 0 0 33.1678 71.4910" />
<path d="M35.3872 69.2730 A1.6805 1.6805 0.0 0 0 34.0202 69.2726" />
<path d="M34.0192 72.3430 A1.6805 1.6805 0.0 0 0 34.7320 72.4883" />
<path d="M34.7032 72.4880 A1.6800 1.6800 0.0 0 0 35.3865 72.3428" />
<path d="M36.2382 71.4920 A1.6805 1.6805 0.0 0 0 36.2386 70.1250" />
<circle cx="39.7032" cy="70.8080" r="1.6800" /> 
<path d="M5.8982 51.5780
L5.1582 51.5780
" />
<path d="M5.1582 51.5780
L5.1582 52.0780
" />
<path d="M15.3192 51.8180
L5.3982 51.8180
" />
<path d="M15.3192 51.8180
L15.3192 61.9380
" />
<path d="M12.3592 51.8180
L12.3592 61.9380
" />
<path d="M7.4582 51.8180
L7.4582 61.9380
" />
<path d="M5.9582 51.8180
L5.9582 61.9380
" />
<path d="M5.3982 51.8180
L5.3982 61.9380
" />
<path d="M9.0352 58.1510
L8.9892 58.1040
" />
<path d="M8.8192 58.3440
L8.7842 58.3090
" />
<path d="M11.3332 60.4480
L11.2972 60.4130
" />
<path d="M11.1272 60.6530
L11.0812 60.6060
" />
<path d="M15.3192 61.9380
L5.3982 61.9380
" />
<path d="M10.7422 52.8430 A1.6805 1.6805 0.0 0 0 9.3752 52.8426" />
<path d="M11.5932 55.0620 A1.6805 1.6805 0.0 0 0 11.5936 53.6950" />
<path d="M8.5232 53.6940 A1.6805 1.6805 0.0 0 0 8.3779 54.4068" />
<path d="M8.3782 54.3780 A1.6800 1.6800 0.0 0 0 8.5234 55.0613" />
<path d="M9.3742 55.9130 A1.6805 1.6805 0.0 0 0 10.7412 55.9134" />
<circle cx="10.0582" cy="59.3780" r="1.6800" /> 
<path d="M11.5332 74.9680
L11.5332 75.7080
" />
<path d="M11.5332 75.7080
L12.0332 75.7080
" />
<path d="M11.7732 65.5470
L11.7732 75.4680
" />
<path d="M11.7732 65.5470
L26.8932 65.5470
" />
<path d="M11.7732 68.5070
L26.8932 68.5070
" />
<path d="M11.7732 73.4080
L26.8932 73.4080
" />
<path d="M11.7732 74.9080
L26.8932 74.9080
" />
<path d="M11.7732 75.4680
L26.8932 75.4680
" />
<path d="M18.1062 71.8310
L18.0592 71.8770
" />
<path d="M18.2992 72.0470
L18.2642 72.0820
" />
<path d="M20.4032 69.5330
L20.3682 69.5690
" />
<path d="M20.6082 69.7390
L20.5612 69.7850
" />
<path d="M23.1062 71.8310
L23.0592 71.8770
" />
<path d="M23.2992 72.0470
L23.2642 72.0820
" />
<path d="M25.4032 69.5330
L25.3682 69.5690
" />
<path d="M25.6082 69.7390
L25.5612 69.7850
" />
<path d="M26.8932 65.5470
L26.8932 75.4680
" />
<path d="M12.7982 70.1240 A1.6805 1.6805 0.0 0 0 12.7978 71.4910" />
<path d="M15.0172 69.2730 A1.6805 1.6805 0.0 0 0 13.6502 69.2726" />
<path d="M13.6492 72.3430 A1.6805 1.6805 0.0 0 0 14.3620 72.4883" />
<path d="M14.3332 72.4880 A1.6800 1.6800 0.0 0 0 15.0165 72.3428" />
<path d="M15.8682 71.4920 A1.6805 1.6805 0.0 0 0 15.8686 70.1250" />
<circle cx="19.3332" cy="70.8080" r="1.6800" /> 
<circle cx="24.3332" cy="70.8080" r="1.6800" /> 
<path d="M69.1332 53.2186
L69.8732 53.2186
" />
<path d="M69.8732 53.2186
L69.8732 52.7186
" />
<path d="M59.7122 52.9786
L69.6332 52.9786
" />
<path d="M59.7122 52.9786
L59.7122 42.8586
" />
<path d="M62.6722 52.9786
L62.6722 42.8586
" />
<path d="M67.5732 52.9786
L67.5732 42.8586
" />
<path d="M69.0732 52.9786
L69.0732 42.8586
" />
<path d="M69.6332 52.9786
L69.6332 42.8586
" />
<path d="M65.9962 46.6456
L66.0422 46.6926
" />
<path d="M66.2122 46.4526
L66.2472 46.4876
" />
<path d="M63.6982 44.3486
L63.7342 44.3836
" />
<path d="M63.9042 44.1436
L63.9502 44.1906
" />
<path d="M59.7122 42.8586
L69.6332 42.8586
" />
<path d="M64.2892 51.9536 A1.6805 1.6805 0.0 0 0 65.6562 51.9540" />
<path d="M63.4382 49.7346 A1.6805 1.6805 0.0 0 0 63.4378 51.1016" />
<path d="M66.5082 51.1026 A1.6805 1.6805 0.0 0 0 66.6535 50.3898" />
<path d="M66.6532 50.4186 A1.6800 1.6800 0.0 0 0 66.5080 49.7353" />
<path d="M65.6572 48.8836 A1.6805 1.6805 0.0 0 0 64.2902 48.8832" />
<circle cx="64.9732" cy="45.4186" r="1.6800" /> 
<circle cx="58.5432" cy="71.1450" r="1.6800" /> 
<path d="M55.0782 71.8290 A1.6805 1.6805 0.0 0 0 55.0786 70.4620" />
<path d="M53.5432 72.8250 A1.6800 1.6800 0.0 0 0 54.2265 72.6798" />
<path d="M52.8592 72.6800 A1.6805 1.6805 0.0 0 0 53.5720 72.8253" />
<path d="M54.2272 69.6100 A1.6805 1.6805 0.0 0 0 52.8602 69.6096" />
<path d="M52.0082 70.4610 A1.6805 1.6805 0.0 0 0 52.0078 71.8280" />
<path d="M61.1032 65.8840
L61.1032 75.8050
" />
<path d="M59.8182 70.0760
L59.7712 70.1220
" />
<path d="M59.6132 69.8700
L59.5782 69.9060
" />
<path d="M57.5092 72.3840
L57.4742 72.4190
" />
<path d="M57.3162 72.1680
L57.2692 72.2140
" />
<path d="M50.9832 75.8050
L61.1032 75.8050
" />
<path d="M50.9832 75.2450
L61.1032 75.2450
" />
<path d="M50.9832 73.7450
L61.1032 73.7450
" />
<path d="M50.9832 68.8440
L61.1032 68.8440
" />
<path d="M50.9832 65.8840
L61.1032 65.8840
" />
<path d="M50.9832 65.8840
L50.9832 75.8050
" />
<path d="M50.7432 76.0450
L51.2432 76.0450
" />
<path d="M50.7432 75.3050
L50.7432 76.0450
" />
<path d="M43.5632 16.1850
L43.5632 15.4450
" />
<path d="M43.5632 15.4450
L43.0632 15.4450
" />
<path d="M43.3232 25.6060
L43.3232 15.6850
" />
<path d="M43.3232 25.6060
L33.2032 25.6060
" />
<path d="M43.3232 22.6460
L33.2032 22.6460
" />
<path d="M43.3232 17.7450
L33.2032 17.7450
" />
<path d="M43.3232 16.2450
L33.2032 16.2450
" />
<path d="M43.3232 15.6850
L33.2032 15.6850
" />
<path d="M36.9902 19.3220
L37.0372 19.2760
" />
<path d="M36.7972 19.1060
L36.8322 19.0710
" />
<path d="M34.6932 21.6200
L34.7282 21.5840
" />
<path d="M34.4882 21.4140
L34.5352 21.3680
" />
<path d="M33.2032 25.6060
L33.2032 15.6850
" />
<path d="M42.2982 21.0290 A1.6805 1.6805 0.0 0 0 42.2986 19.6620" />
<path d="M40.0792 21.8800 A1.6805 1.6805 0.0 0 0 41.4462 21.8804" />
<path d="M41.4472 18.8100 A1.6805 1.6805 0.0 0 0 40.7344 18.6647" />
<path d="M40.7632 18.6650 A1.6800 1.6800 0.0 0 0 40.0799 18.8102" />
<path d="M39.2282 19.6610 A1.6805 1.6805 0.0 0 0 39.2278 21.0280" />
<circle cx="35.7632" cy="20.3450" r="1.6800" /> 
<path d="M69.1332 38.3850
L69.8732 38.3850
" />
<path d="M69.8732 38.3850
L69.8732 37.8850
" />
<path d="M59.7122 38.1450
L69.6332 38.1450
" />
<path d="M59.7122 38.1450
L59.7122 28.0250
" />
<path d="M62.6722 38.1450
L62.6722 28.0250
" />
<path d="M67.5732 38.1450
L67.5732 28.0250
" />
<path d="M69.0732 38.1450
L69.0732 28.0250
" />
<path d="M69.6332 38.1450
L69.6332 28.0250
" />
<path d="M65.9962 31.8120
L66.0422 31.8590
" />
<path d="M66.2122 31.6190
L66.2472 31.6540
" />
<path d="M63.6982 29.5150
L63.7342 29.5500
" />
<path d="M63.9042 29.3100
L63.9502 29.3570
" />
<path d="M59.7122 28.0250
L69.6332 28.0250
" />
<path d="M64.2892 37.1200 A1.6805 1.6805 0.0 0 0 65.6562 37.1204" />
<path d="M63.4382 34.9010 A1.6805 1.6805 0.0 0 0 63.4378 36.2680" />
<path d="M66.5082 36.2690 A1.6805 1.6805 0.0 0 0 66.6535 35.5562" />
<path d="M66.6532 35.5850 A1.6800 1.6800 0.0 0 0 66.5080 34.9017" />
<path d="M65.6572 34.0500 A1.6805 1.6805 0.0 0 0 64.2902 34.0496" />
<circle cx="64.9732" cy="30.5850" r="1.6800" /> 
<path d="M5.8982 37.9050
L5.1582 37.9050
" />
<path d="M5.1582 37.9050
L5.1582 38.4050
" />
<path d="M15.3192 38.1450
L5.3982 38.1450
" />
<path d="M15.3192 38.1450
L15.3192 48.2650
" />
<path d="M12.3592 38.1450
L12.3592 48.2650
" />
<path d="M7.4582 38.1450
L7.4582 48.2650
" />
<path d="M5.9582 38.1450
L5.9582 48.2650
" />
<path d="M5.3982 38.1450
L5.3982 48.2650
" />
<path d="M9.0352 44.4780
L8.9892 44.4310
" />
<path d="M8.8192 44.6710
L8.7842 44.6360
" />
<path d="M11.3332 46.7750
L11.2972 46.7400
" />
<path d="M11.1272 46.9800
L11.0812 46.9330
" />
<path d="M15.3192 48.2650
L5.3982 48.2650
" />
<path d="M10.7422 39.1700 A1.6805 1.6805 0.0 0 0 9.3752 39.1696" />
<path d="M11.5932 41.3890 A1.6805 1.6805 0.0 0 0 11.5936 40.0220" />
<path d="M8.5232 40.0210 A1.6805 1.6805 0.0 0 0 8.3779 40.7338" />
<path d="M8.3782 40.7050 A1.6800 1.6800 0.0 0 0 8.5234 41.3883" />
<path d="M9.3742 42.2400 A1.6805 1.6805 0.0 0 0 10.7412 42.2404" />
<circle cx="10.0582" cy="45.7050" r="1.6800" /> 
<path d="M61.8532 16.3256
L61.8532 15.5856
" />
<path d="M61.8532 15.5856
L61.3532 15.5856
" />
<path d="M61.6132 25.7466
L61.6132 15.8256
" />
<path d="M61.6132 25.7466
L46.4932 25.7466
" />
<path d="M61.6132 22.7866
L46.4932 22.7866
" />
<path d="M61.6132 17.8856
L46.4932 17.8856
" />
<path d="M61.6132 16.3856
L46.4932 16.3856
" />
<path d="M61.6132 15.8256
L46.4932 15.8256
" />
<path d="M55.2802 19.4626
L55.3272 19.4166
" />
<path d="M55.0872 19.2466
L55.1222 19.2116
" />
<path d="M52.9832 21.7606
L53.0182 21.7246
" />
<path d="M52.7782 21.5546
L52.8252 21.5086
" />
<path d="M50.2802 19.4626
L50.3272 19.4166
" />
<path d="M50.0872 19.2466
L50.1222 19.2116
" />
<path d="M47.9832 21.7606
L48.0182 21.7246
" />
<path d="M47.7782 21.5546
L47.8252 21.5086
" />
<path d="M46.4932 25.7466
L46.4932 15.8256
" />
<path d="M60.5882 21.1696 A1.6805 1.6805 0.0 0 0 60.5886 19.8026" />
<path d="M58.3692 22.0206 A1.6805 1.6805 0.0 0 0 59.7362 22.0210" />
<path d="M59.7372 18.9506 A1.6805 1.6805 0.0 0 0 59.0244 18.8053" />
<path d="M59.0532 18.8056 A1.6800 1.6800 0.0 0 0 58.3699 18.9508" />
<path d="M57.5182 19.8016 A1.6805 1.6805 0.0 0 0 57.5178 21.1686" />
<circle cx="54.0532" cy="20.4856" r="1.6800" /> 
<circle cx="49.0532" cy="20.4856" r="1.6800" /> 
<path d="M23.3232 16.1850
L23.3232 15.4450
" />
<path d="M23.3232 15.4450
L22.8232 15.4450
" />
<path d="M23.0832 25.6060
L23.0832 15.6850
" />
<path d="M23.0832 25.6060
L12.9632 25.6060
" />
<path d="M23.0832 22.6460
L12.9632 22.6460
" />
<path d="M23.0832 17.7450
L12.9632 17.7450
" />
<path d="M23.0832 16.2450
L12.9632 16.2450
" />
<path d="M23.0832 15.6850
L12.9632 15.6850
" />
<path d="M16.7502 19.3220
L16.7972 19.2760
" />
<path d="M16.5572 19.1060
L16.5922 19.0710
" />
<path d="M14.4532 21.6200
L14.4882 21.5840
" />
<path d="M14.2482 21.4140
L14.2952 21.3680
" />
<path d="M12.9632 25.6060
L12.9632 15.6850
" />
<path d="M22.0582 21.0290 A1.6805 1.6805 0.0 0 0 22.0586 19.6620" />
<path d="M19.8392 21.8800 A1.6805 1.6805 0.0 0 0 21.2062 21.8804" />
<path d="M21.2072 18.8100 A1.6805 1.6805 0.0 0 0 20.4944 18.6647" />
<path d="M20.5232 18.6650 A1.6800 1.6800 0.0 0 0 19.8399 18.8102" />
<path d="M18.9882 19.6610 A1.6805 1.6805 0.0 0 0 18.9878 21.0280" />
<circle cx="15.5232" cy="20.3450" r="1.6800" /> 
<path d="M14.1632 84.7780
L15.7532 84.7780
" />
<path d="M15.7532 79.9080
L15.7532 89.6480
" />
<path d="M15.7532 89.6480
L37.9932 89.6480
" />
<path d="M37.9932 79.9080
L15.7532 79.9080
" />
<path d="M37.9932 89.6480
L37.9932 79.9080
" />
<path d="M39.5832 84.7780
L37.9932 84.7780
" />
<path d="M52.0432 59.7150
L52.8132 59.7150
" />
<path d="M52.8132 58.3450
L52.8132 61.0850
" />
<path d="M52.8132 61.0850
L59.3532 61.0850
" />
<path d="M59.3532 58.3450
L52.8132 58.3450
" />
<path d="M59.3532 61.0850
L59.3532 58.3450
" />
<path d="M60.1232 59.7150
L59.3532 59.7150
" />
<path d="M48.9132 72.8880
L48.9132 63.6480
" />
<path d="M48.9132 63.6480
L45.4732 63.6480
" />
<path d="M47.1932 73.5780
L47.1932 72.8880
" />
<path d="M47.1932 62.9580
L47.1932 63.6480
" />
<path d="M45.4732 72.8880
L48.9132 72.8880
" />
<path d="M45.4732 63.6480
L45.4732 72.8880
" />
<path d="M58.6332 6.3750
L57.0432 6.3750
" />
<path d="M57.0432 11.2450
L57.0432 1.5050
" />
<path d="M57.0432 1.5050
L34.8032 1.5050
" />
<path d="M34.8032 11.2450
L57.0432 11.2450
" />
<path d="M34.8032 1.5050
L34.8032 11.2450
" />
<path d="M33.2132 6.3750
L34.8032 6.3750
" />
<path d="M19.1532 39.9350
L19.1532 46.4750
" />
<path d="M19.1532 46.4750
L21.8932 46.4750
" />
<path d="M20.5232 39.1650
L20.5232 39.9350
" />
<path d="M20.5232 47.2450
L20.5232 46.4750
" />
<path d="M21.8932 39.9350
L19.1532 39.9350
" />
<path d="M21.8932 46.4750
L21.8932 39.9350
" />
<path d="M26.4232 18.2650
L26.4232 27.5050
" />
<path d="M26.4232 27.5050
L29.8632 27.5050
" />
<path d="M28.1432 17.5750
L28.1432 18.2650
" />
<path d="M28.1432 28.1950
L28.1432 27.5050
" />
<path d="M29.8632 18.2650
L26.4232 18.2650
" />
<path d="M29.8632 27.5050
L29.8632 18.2650
" />
<path d="M4.8332 18.2650
L4.8332 27.5050
" />
<path d="M4.8332 27.5050
L8.2732 27.5050
" />
<path d="M6.5532 17.5750
L6.5532 18.2650
" />
<path d="M6.5532 28.1950
L6.5532 27.5050
" />
<path d="M8.2732 18.2650
L4.8332 18.2650
" />
<path d="M8.2732 27.5050
L8.2732 18.2650
" />
<path d="M67.9632 73.2250
L67.9632 63.9850
" />
<path d="M67.9632 63.9850
L64.5232 63.9850
" />
<path d="M66.2432 73.9150
L66.2432 73.2250
" />
<path d="M66.2432 63.2950
L66.2432 63.9850
" />
<path d="M64.5232 73.2250
L67.9632 73.2250
" />
<path d="M64.5232 63.9850
L64.5232 73.2250
" />
<path d="M13.9432 30.5050
L14.7132 30.5050
" />
<path d="M14.7132 29.1350
L14.7132 31.8750
" />
<path d="M14.7132 31.8750
L21.2532 31.8750
" />
<path d="M21.2532 29.1350
L14.7132 29.1350
" />
<path d="M21.2532 31.8750
L21.2532 29.1350
" />
<path d="M22.0232 30.5050
L21.2532 30.5050
" />
<path d="M54.2408 45.0150
L54.2408 51.5550
" />
<path d="M54.2408 51.5550
L56.9808 51.5550
" />
<path d="M55.6108 44.2450
L55.6108 45.0150
" />
<path d="M55.6108 52.3250
L55.6108 51.5550
" />
<path d="M56.9808 45.0150
L54.2408 45.0150
" />
<path d="M56.9808 51.5550
L56.9808 45.0150
" />
</g>
<g style="fill:none; 
stroke:#000000; stroke-width:0.0500; stroke-opacity:1; 
stroke-linecap:round; stroke-linejoin:round;">
<circle cx="6.5532" cy="6.3750" r="3.0000" /> 
<circle cx="6.5532" cy="85.1150" r="3.0000" /> 
<circle cx="68.7832" cy="85.1150" r="3.0000" /> 
<circle cx="68.7832" cy="6.3750" r="3.0000" /> 
<path d="M0.2032 0.0250
L75.1332 0.0250
" />
<path d="M75.1332 90.1950
L0.2032 90.1950
" />
<path d="M75.1332 0.0250
L75.1332 90.1950
" />
<path d="M0.2032 90.1950
L0.2032 0.0250
" />
</g> 
</svg>
