M48
; DRILL file {KiCad 8.0.3} date 2024-06-11T18:53:33-0700
; FORMAT={-:-/ absolute / metric / decimal}
; #@! TF.CreationDate,2024-06-11T18:53:33-07:00
; #@! TF.GenerationSoftware,Kicad,Pcbnew,8.0.3
; #@! TF.FileFunction,MixedPlating,1,2
FMAT,2
METRIC
; #@! TA.AperFunction,Plated,PTH,ComponentDrill
T1C0.800
; #@! TA.AperFunction,Plated,PTH,ComponentDrill
T2C1.020
; #@! TA.AperFunction,Plated,PTH,ComponentDrill
T3C1.300
%
G90
G05
T1
X87.63Y-72.39
X97.739Y-77.368
X97.739Y-90.068
X97.79Y-72.39
X98.01Y-129.54
X105.41Y-54.61
X105.41Y-67.31
X105.41Y-80.01
X105.41Y-90.17
X117.06Y-48.26
X125.51Y-129.54
X140.498Y-89.306
X140.498Y-99.466
X140.515Y-107.95
X140.515Y-120.65
X144.56Y-48.26
X146.746Y-89.459
X146.746Y-102.159
X153.485Y-108.356
X163.645Y-108.356
T2
X117.58Y-88.34
X117.58Y-91.95
X119.73Y-85.41
X119.73Y-94.92
X123.19Y-84.27
X126.64Y-85.41
X126.64Y-94.92
X128.79Y-88.34
X128.79Y-91.99
T3
X87.553Y-80.474
X87.553Y-85.474
X90.25Y-62.23
X95.25Y-62.23
X99.22Y-115.57
X101.6Y-99.14
X101.6Y-104.14
X104.22Y-115.57
X109.22Y-115.57
X119.59Y-115.57
X120.65Y-62.23
X124.59Y-115.57
X125.65Y-62.23
X133.94Y-62.371
X138.94Y-62.371
X142.24Y-72.47
X142.24Y-77.47
X143.94Y-62.371
X153.295Y-116.84
X158.295Y-116.84
X159.116Y-95.12
X159.116Y-100.12
M30
