<?xml version="1.0" encoding="UTF-8" standalone="no"?>
<!-- Created with Inkscape (http://www.inkscape.org/) -->

<svg
   width="8.5in"
   height="11in"
   viewBox="0 0 215.9 279.4"
   version="1.1"
   id="svg1"
   inkscape:version="1.3.2 (091e20e, 2023-11-25)"
   sodipodi:docname="multi-channel-preamp-output.svg"
   xml:space="preserve"
   xmlns:inkscape="http://www.inkscape.org/namespaces/inkscape"
   xmlns:sodipodi="http://sodipodi.sourceforge.net/DTD/sodipodi-0.dtd"
   xmlns="http://www.w3.org/2000/svg"
   xmlns:svg="http://www.w3.org/2000/svg"><sodipodi:namedview
     id="namedview1"
     pagecolor="#ffffff"
     bordercolor="#000000"
     borderopacity="0.25"
     inkscape:showpageshadow="2"
     inkscape:pageopacity="0.0"
     inkscape:pagecheckerboard="0"
     inkscape:deskcolor="#d1d1d1"
     inkscape:document-units="mm"
     inkscape:zoom="0.92737795"
     inkscape:cx="396.81772"
     inkscape:cy="560.72069"
     inkscape:window-width="1504"
     inkscape:window-height="1639"
     inkscape:window-x="0"
     inkscape:window-y="25"
     inkscape:window-maximized="0"
     inkscape:current-layer="layer1" /><defs
     id="defs1" /><g
     inkscape:label="Layer 1"
     inkscape:groupmode="layer"
     id="layer1"><g
       id="g15"
       transform="translate(64.961354,116.58235)"><g
         style="fill:#000000;fill-opacity:1;stroke:#000000;stroke-linecap:round;stroke-linejoin:round;stroke-opacity:1"
         id="g1" /><g
         style="fill:#000000;fill-opacity:1;stroke:none"
         id="g2"><circle
           cx="53.365002"
           cy="53.365002"
           r="2.5"
           id="circle1" /></g><g
         style="fill:#000000;fill-opacity:1;stroke:none"
         id="g3"><circle
           cx="66.065002"
           cy="53.365002"
           r="2.5"
           id="circle2" /></g><g
         style="fill:#000000;fill-opacity:1;stroke:none"
         id="g4"><circle
           cx="19.075001"
           cy="39.395"
           r="2.5"
           id="circle3" /></g><g
         style="fill:#000000;fill-opacity:1;stroke:none"
         id="g5"><circle
           cx="19.075001"
           cy="26.695"
           r="2.5"
           id="circle4" /></g><g
         style="fill:#000000;fill-opacity:1;stroke:none"
         id="g6"><circle
           cx="11.455"
           cy="39.395"
           r="2.5"
           id="circle5" /></g><g
         style="fill:#000000;fill-opacity:1;stroke:none"
         id="g7"><circle
           cx="11.455"
           cy="26.695"
           r="2.5"
           id="circle6" /></g><g
         style="fill:#000000;fill-opacity:1;stroke:none"
         id="g8"><circle
           cx="31.775"
           cy="11.455"
           r="2.5"
           id="circle7" /></g><g
         style="fill:#000000;fill-opacity:1;stroke:none"
         id="g9"><circle
           cx="44.474998"
           cy="11.455"
           r="2.5"
           id="circle8" /></g><g
         style="fill:#000000;fill-opacity:1;stroke:none"
         id="g10"><circle
           cx="45.625"
           cy="53.365002"
           r="2.5"
           id="circle9" /></g><g
         style="fill:#000000;fill-opacity:1;stroke:none"
         id="g11"><circle
           cx="30.625"
           cy="53.365002"
           r="2.5"
           id="circle10" /></g><g
         style="fill:#000000;fill-opacity:1;stroke:none"
         id="g12"><circle
           cx="59.715"
           cy="32.014999"
           r="2.5"
           id="circle11" /></g><g
         style="fill:#000000;fill-opacity:1;stroke:none"
         id="g13"><circle
           cx="59.715"
           cy="47.014999"
           r="2.5"
           id="circle12" /><path
           style="fill:#000000;fill-opacity:1;fill-rule:evenodd;stroke:none"
           d="m 11.055,56.865 v -7 h 3.5 v 7 z"
           id="path12" /></g><g
         style="fill:none;stroke:#000000;stroke-width:3.5;stroke-linecap:round;stroke-linejoin:round;stroke-opacity:1"
         id="g14"><path
           d="m 17.805,51.615 v 3.5"
           id="path13" /><path
           style="fill:#000000;fill-opacity:1;fill-rule:evenodd;stroke:none"
           d="m 20.825,8.26 v 7 h -3.5 v -7 z"
           id="path14" /></g><g
         style="fill:none;stroke:#000000;stroke-width:3.5;stroke-linecap:round;stroke-linejoin:round;stroke-opacity:1"
         id="g16"><path
           d="m 14.075,13.51 v -3.5"
           id="path15" /><path
           style="fill:#000000;fill-opacity:1;fill-rule:evenodd;stroke:none"
           d="m 44.1196,35.4467 h 5 v 5 h -5 z"
           id="path16" /></g><g
         style="fill:none;stroke:#000000;stroke-width:3.5;stroke-linecap:round;stroke-linejoin:round;stroke-opacity:1"
         id="g25"><path
           d="m 49.375,31.775 h -1.5"
           id="path17" /><path
           d="m 47.3696,25.6033 h -1.5"
           id="path18" /><path
           d="m 41.3696,21.039 v 1.5"
           id="path19" /><path
           d="m 34.8804,21.039 v 1.5"
           id="path20" /><path
           d="m 30.3804,25.6033 h -1.5"
           id="path21" /><path
           d="m 28.375,31.775 h -1.5"
           id="path22" /><path
           d="m 30.3804,37.9467 h -1.5"
           id="path23" /><path
           d="m 34.8804,41.011 v 1.5"
           id="path24" /><path
           style="fill:#000000;fill-opacity:1;fill-rule:evenodd;stroke:none"
           d="m 56.215,7.245 h 7 v 3.5 h -7 z"
           id="path25" /></g><g
         style="fill:none;stroke:#000000;stroke-width:3.5;stroke-linecap:round;stroke-linejoin:round;stroke-opacity:1"
         id="g27"><path
           d="m 61.465,13.995 h -3.5"
           id="path26" /><path
           style="fill:#000000;fill-opacity:1;fill-rule:evenodd;stroke:none"
           d="m 55.91,18.635 h 7 v 3.5 h -7 z"
           id="path27" /></g><g
         style="fill:none;stroke:#000000;stroke-width:3.5;stroke-linecap:round;stroke-linejoin:round;stroke-opacity:1"
         id="g28"><path
           d="m 61.16,25.385 h -3.5"
           id="path28" /></g><g
         style="fill:none;stroke:#000000;stroke-width:2;stroke-linecap:round;stroke-linejoin:round;stroke-opacity:1"
         id="g39"><path
           d="m 34.8804,21.789 h 6.4892"
           id="path29" /><path
           d="m 17.805,53.365 5.89,-5.89"
           id="path30" /><path
           d="m 35.2197,47.475 3.4107,-3.4107"
           id="path31" /><path
           d="M 38.6304,44.0643 V 25.539"
           id="path32" /><path
           d="M 23.695,47.475 H 35.2197"
           id="path33" /><path
           d="m 38.6304,25.539 -3.75,-3.75"
           id="path34" /><path
           d="M 12.805,53.365 V 51.3117"
           id="path35" /><path
           d="M 12.805,51.3117 19.6417,44.475"
           id="path36" /><path
           d="M 19.6417,44.475 H 32.1664"
           id="path37" /><path
           d="m 32.1664,44.475 2.714,-2.714"
           id="path38" /><path
           style="fill:#000000;fill-opacity:1;fill-rule:evenodd;stroke:none"
           d="m 78.708,1.3147 0.0458,0.0528 0.0112,0.0515 v 60.712 l -0.0197,0.067 -0.0528,0.0458 -0.0515,0.0112 H 1.419 L 1.352,62.2353 1.3062,62.1825 1.295,62.131 v -3.686 h 0.4648 v 0 l 0.0196,0.3617 0.0586,0.3574 v 0 l 0.0969,0.349 v 0 l 0.1341,0.3365 v 0 l 0.1323,0.2495 0.0373,0.0705 0.2033,0.2998 0.2345,0.2761 0.263,0.2491 0.2883,0.2192 0.3104,0.1867 v 0 0 0 l 0.3287,0.1521 v 0 l 0.3433,0.1157 0.3537,0.0778 0.3601,0.0392 v 0 h 0.3622 v 0 l 0.3601,-0.0392 0.3537,-0.0778 0.3433,-0.1157 0.3287,-0.1521 0.3104,-0.1867 0.2883,-0.2192 0.263,-0.2491 0.2345,-0.2761 0.2033,-0.2998 0.1696,-0.32 0.1341,-0.3365 0.0969,-0.349 0.0586,-0.3574 0.0196,-0.3617 v 0 h 63.1596 v 0 l 0.0196,0.3617 0.0586,0.3574 v 0 l 0.0969,0.349 v 0 l 0.1341,0.3365 v 0 l 0.1323,0.2495 0.0373,0.0705 0.2033,0.2998 0.2345,0.2761 0.263,0.2491 0.2883,0.2192 0.3104,0.1867 v 0 0 0 l 0.3287,0.1521 v 0 l 0.3433,0.1157 0.3537,0.0778 0.3601,0.0392 v 0 h 0.3622 v 0 l 0.3601,-0.0392 0.3537,-0.0778 0.3433,-0.1157 0.3287,-0.1521 0.3104,-0.1867 0.2883,-0.2192 0.263,-0.2491 0.2345,-0.2761 0.2033,-0.2998 0.1696,-0.32 0.1341,-0.3365 0.0969,-0.349 0.0586,-0.3574 0.0196,-0.3617 -0.0196,-0.3617 -0.0586,-0.3574 -0.0555,-0.1998 -0.0414,-0.1492 v 0 L 77.991,57.0404 v 0 l -0.0382,-0.072 -0.1314,-0.248 -0.2033,-0.2998 -0.2345,-0.2761 -0.263,-0.2491 v 0 0 l -0.1578,-0.12 -0.1305,-0.0992 -0.3104,-0.1867 v 0 0 0 l -0.3287,-0.1521 v 0 0 l -0.2015,-0.0679 -0.1418,-0.0478 -0.3537,-0.0778 -0.3601,-0.0392 v 0 h -0.3622 v 0 l -0.3601,0.0392 -0.3537,0.0778 -0.2224,0.0749 -0.1209,0.0408 v 0 0 l -0.3287,0.1521 v 0 l -0.2312,0.139 -0.0792,0.0477 -0.0451,0.0343 -0.2432,0.1849 v 0 l -0.263,0.2491 -0.2345,0.2761 -0.2033,0.2998 -0.1696,0.32 v 0 l -0.1341,0.3365 v 0 l -0.0969,0.349 v 0 l -0.0586,0.3574 -0.0196,0.3617 H 8.4502 L 8.4306,58.0833 8.372,57.7259 8.3165,57.5261 8.2751,57.3769 v 0 L 8.141,57.0404 v 0 L 8.1028,56.9684 7.9714,56.7204 7.7681,56.4206 7.5336,56.1445 7.2706,55.8954 v 0 0 L 7.1128,55.7754 6.9823,55.6762 6.6719,55.4895 v 0 0 0 L 6.3432,55.3374 v 0 0 L 6.1417,55.2695 5.9999,55.2217 5.6462,55.1439 5.2861,55.1047 v 0 H 4.9239 v 0 l -0.3601,0.0392 -0.3537,0.0778 -0.2224,0.0749 -0.1209,0.0408 v 0 0 l -0.3287,0.1521 v 0 l -0.2312,0.139 -0.0792,0.0477 -0.0451,0.0343 -0.2432,0.1849 v 0 l -0.263,0.2491 -0.2345,0.2761 -0.2033,0.2998 -0.1696,0.32 v 0 l -0.1341,0.3365 v 0 l -0.0969,0.349 v 0 L 1.7794,58.0833 1.7598,58.445 H 1.295 v -8.638 h 8.7595 v 7.116 0 l 0.0106,0.1194 0.056,0.1956 v 0 0 l 0.0942,0.1804 v 0 l 0.1286,0.1577 0.0939,0.0766 0.0638,0.052 0.1804,0.0942 0.1956,0.056 0.1194,0.0106 h 3.616 l 0.1194,-0.0106 0.1956,-0.056 0.1804,-0.0942 0.1577,-0.1286 0.1286,-0.1577 0.0942,-0.1804 0.056,-0.1956 8e-4,-0.009 0.0255,-0.065 0.0567,-0.041 0.0697,-0.0037 0.0593,0.033 0.2124,0.2124 0.2416,0.1926 0.2615,0.1644 0.2784,0.134 v 0 l 0.2916,0.1021 v 0 l 0.3011,0.0687 h 10e-5 v 0 l 0.2046,0.0231 0.1023,0.0115 v 0 0 h 0.309 v 0 l 0.1569,-0.0177 0.15,-0.0169 v 0 h 10e-5 l 0.3011,-0.0687 0.2916,-0.1021 0.2784,-0.134 0.2615,-0.1644 0.2416,-0.1926 0.2184,-0.2184 0.1926,-0.2416 0.1644,-0.2615 0.134,-0.2784 0.1021,-0.2916 0.0687,-0.3011 0.0098,-0.087 0.0171,-0.1521 0.0077,-0.0679 V 53.495 l 0.0197,-0.067 0.0166,-0.0207 0.0423,-0.0423 h 6.4856 v 0 l 0.0192,0.3664 0.0574,0.3624 v 0 l 0.095,0.3544 0.1314,0.3425 0.1666,0.327 0.1998,0.3077 0.1866,0.2303 0.0444,0.0548 0.2594,0.2594 v 10e-5 l 0.2851,0.2309 0.2528,0.1641 0.0549,0.0357 0.327,0.1666 0.3425,0.1314 0.3544,0.095 0.3624,0.0574 0.3461,0.0181 0.0203,0.0011 v 0 0 l 0.0192,-10e-4 0.3472,-0.0182 0.3624,-0.0574 0.3544,-0.095 0.3425,-0.1314 0.327,-0.1666 0.3077,-0.1998 0.2851,-0.231 0.2594,-0.2594 0.231,-0.2851 0.1998,-0.3077 0.1666,-0.327 0.1314,-0.3425 0.095,-0.3544 0.0574,-0.3624 0.0192,-0.3664 v 0 h 7.9894 v 0 l 0.0192,0.3664 0.0574,0.3624 v 0 l 0.095,0.3544 0.1314,0.3425 0.1666,0.327 0.1998,0.3077 0.1866,0.2303 0.0444,0.0548 0.2594,0.2594 v 10e-5 l 0.2851,0.2309 0.2528,0.1641 0.0549,0.0357 0.327,0.1666 0.3425,0.1314 0.3544,0.095 0.3624,0.0574 0.3461,0.0181 0.0203,0.0011 v 0 0 l 0.0192,-10e-4 0.3472,-0.0182 0.3624,-0.0574 0.3544,-0.095 0.3425,-0.1314 0.327,-0.1666 0.3077,-0.1998 0.2851,-0.231 0.2594,-0.2594 0.231,-0.2851 0.1998,-0.3077 0.1666,-0.327 0.1314,-0.3425 0.095,-0.3544 0.0574,-0.3624 0.0192,-0.3664 v 0 h 0.7294 v 0 l 0.0192,0.3664 0.0574,0.3624 v 0 l 0.095,0.3544 0.1314,0.3425 0.1666,0.327 0.1998,0.3077 0.1866,0.2303 0.0444,0.0548 0.2594,0.2594 v 10e-5 l 0.2851,0.2309 0.2528,0.1641 0.0549,0.0357 0.327,0.1666 0.3425,0.1314 0.3544,0.095 0.3624,0.0574 0.3461,0.0181 0.0203,0.0011 v 0 0 l 0.0192,-10e-4 0.3472,-0.0182 0.3624,-0.0574 0.3544,-0.095 0.3425,-0.1314 0.327,-0.1666 0.3077,-0.1998 0.2851,-0.231 0.2594,-0.2594 0.231,-0.2851 0.1998,-0.3077 0.1666,-0.327 0.1314,-0.3425 0.095,-0.3544 0.0574,-0.3624 0.0192,-0.3664 v 0 h 6.1896 v 0 l 0.0203,0.3489 v 0 l 0.0607,0.3441 v 0 l 0.1002,0.3348 0.1385,0.3209 v 0 l 0.1747,0.3026 0.2087,0.2803 0.0081,0.0087 1.6163,-1.6163 0.013,0.0313 0.082,0.1228 0.1045,0.1045 0.1228,0.082 0.0313,0.013 -1.6132,1.6131 v 0 l 0.1427,0.1197 0.292,0.1921 0.3122,0.1568 v 0 l 0.3284,0.1195 v 0 l 0.3401,0.0806 0.3471,0.0406 v 0 h 0.3494 v 0 l 0.3471,-0.0406 v 0 l 0.3401,-0.0806 v 0 l 0.3284,-0.1195 v 0 l 0.3122,-0.1568 0.292,-0.1921 v 0 l 0.1427,-0.1197 v 0 l -1.6132,-1.6131 0.0313,-0.013 0.1228,-0.082 0.1045,-0.1045 0.082,-0.1228 0.013,-0.0313 1.6162,1.6163 h 1e-4 l 0.0081,-0.0087 v 0 l 0.2087,-0.2803 0.1747,-0.3026 v 0 l 0.1385,-0.3209 0.1002,-0.3348 v 0 l 0.0607,-0.3441 v 0 l 0.0203,-0.3489 v 0 l -0.0203,-0.3489 v 0 L 68.9891,52.672 v 0 l -0.1002,-0.3348 -0.1385,-0.3209 v 0 l -0.1747,-0.3026 -0.2087,-0.2803 -0.0081,-0.0087 -1.6163,1.6163 -0.013,-0.0313 -0.082,-0.1228 -0.1045,-0.1045 -0.1228,-0.082 -0.0313,-0.013 1.6132,-1.6131 v 0 l -0.1427,-0.1197 -0.292,-0.1921 -0.3122,-0.1568 v 0 l -0.3284,-0.1195 v 0 L 66.5868,50.4056 66.2397,50.365 h -0.3494 l -0.3471,0.0406 v 0 l -0.3401,0.0806 v 0 l -0.3284,0.1195 v 0 l -0.3122,0.1568 -0.292,0.1921 -0.1427,0.1197 v 0 l 1.6132,1.6131 -0.0313,0.013 -0.1228,0.082 -0.1045,0.1045 -0.082,0.1228 -0.013,0.0313 -1.6163,-1.6163 v 0 l -0.0081,0.0087 v 0 l -0.2087,0.2803 -0.1747,0.3026 v 0 l -0.1385,0.3209 -0.1002,0.3348 v 0 l -0.0607,0.3441 v 0 l -0.0203,0.3489 h -6.1896 l -0.0192,-0.3664 -0.0574,-0.3624 -0.095,-0.3544 -0.1314,-0.3425 -0.1666,-0.327 v 0 L 56.2009,51.3046 55.97,51.0195 h -10e-5 l -0.2594,-0.2594 -0.2851,-0.231 v 0 l -0.3077,-0.1998 -0.327,-0.1666 -0.3425,-0.1314 v 0 l -0.3544,-0.095 v 0 0 L 53.7314,49.8789 53.365,49.8597 v 0 l -0.3664,0.0192 -0.3624,0.0574 v 0 l -0.3544,0.095 -0.3425,0.1314 -0.327,0.1666 -0.3077,0.1998 -0.2851,0.2309 v 1e-4 l -0.2594,0.2594 h -1e-4 l -0.2309,0.2851 -0.1998,0.3077 -0.1666,0.327 -0.1314,0.3425 -0.095,0.3544 v 0 l -0.0574,0.3624 -0.0192,0.3664 h -0.7294 l -0.0192,-0.3664 -0.0574,-0.3624 -0.095,-0.3544 -0.1314,-0.3425 -0.1666,-0.327 v 0 L 48.4609,51.3046 48.23,51.0195 h -10e-5 l -0.2594,-0.2594 -0.2851,-0.231 v 0 l -0.3077,-0.1998 -0.327,-0.1666 -0.3425,-0.1314 v 0 l -0.3544,-0.095 v 0 0 L 45.9914,49.8789 45.625,49.8597 v 0 l -0.3664,0.0192 -0.3624,0.0574 v 0 l -0.3544,0.095 -0.3425,0.1314 -0.327,0.1666 -0.3077,0.1998 -0.2851,0.2309 v 1e-4 l -0.2594,0.2594 H 43.02 l -0.2309,0.2851 -0.1998,0.3077 -0.1666,0.327 -0.1314,0.3425 -0.095,0.3544 v 0 l -0.0574,0.3624 -0.0192,0.3664 h -7.9894 l -0.0192,-0.3664 -0.0574,-0.3624 -0.095,-0.3544 -0.1314,-0.3425 -0.1666,-0.327 v 0 L 33.4609,51.3046 33.23,51.0195 h -10e-5 l -0.2594,-0.2594 -0.2851,-0.231 v 0 l -0.3077,-0.1998 -0.327,-0.1666 -0.3425,-0.1314 v 0 l -0.3544,-0.095 v 0 0 L 30.9914,49.8789 30.625,49.8597 v 0 l -0.3664,0.0192 -0.3624,0.0574 v 0 l -0.3544,0.095 -0.3425,0.1314 -0.327,0.1666 -0.3077,0.1998 -0.2851,0.2309 v 1e-4 l -0.2594,0.2594 H 28.02 l -0.2309,0.2851 -0.1998,0.3077 -0.1666,0.327 -0.1314,0.3425 -0.095,0.3544 v 0 l -0.0574,0.3624 -0.0192,0.3664 h -6.4856 l 3.8532,-3.8532 0.0613,-0.0335 0.0264,-0.0028 h 10.7758 v 0 l 0.13,-0.0171 0.13,-0.0171 0.2533,-0.0679 0.2423,-0.1004 0.2064,-0.1191 0.0207,-0.012 0.0867,-0.0665 0.0653,-0.0501 v 0 l 0.0303,-0.0232 0.0257,-0.0198 h 1e-4 l 1.9672,-1.9673 h 17.7009 v 0 l 0.0192,0.3664 0.0574,0.3624 v 0 l 0.095,0.3544 0.1314,0.3425 0.1666,0.327 0.1998,0.3077 0.0636,0.0785 0.1674,0.2066 0.2594,0.2594 v 10e-5 l 0.2851,0.2309 0.3077,0.1998 v 0 l 0.327,0.1666 0.3425,0.1314 0.3544,0.095 0.3624,0.0574 0.3461,0.0181 0.0203,0.0011 v 0 0 l 0.0192,-10e-4 0.3472,-0.0182 0.3624,-0.0574 0.3544,-0.095 0.3425,-0.1314 0.327,-0.1666 0.3077,-0.1998 0.2851,-0.231 0.2594,-0.2594 0.231,-0.2851 0.1998,-0.3077 0.1666,-0.327 0.1314,-0.3425 0.095,-0.3544 0.0574,-0.3624 0.0192,-0.3664 -0.0192,-0.3664 -0.0574,-0.3624 -0.095,-0.3544 -0.1314,-0.3425 -0.1666,-0.327 -0.1998,-0.3077 -0.231,-0.2851 -0.2594,-0.2594 -0.0834,-0.0676 -0.2017,-0.1634 -0.3077,-0.1998 -0.327,-0.1666 -0.3425,-0.1314 v 0 l -0.3544,-0.095 v 0 0 L 60.0814,43.5289 59.715,43.5097 v 0 l -0.3664,0.0192 -0.3624,0.0574 v 0 l -0.3544,0.095 -0.3425,0.1314 -0.327,0.1666 -0.3077,0.1998 -0.2851,0.2309 v 1e-4 l -0.2594,0.2594 v 0 0 l -0.056,0.0691 -0.175,0.216 -0.1998,0.3077 -0.1666,0.327 -0.1314,0.3425 -0.095,0.3544 v 0 l -0.0574,0.3624 -0.0192,0.3664 H 38.5088 l 1.6289,-1.6288 v 0 l 0.095,-0.1239 v 0 0 l 0.0522,-0.068 0.0124,-0.0162 0.1311,-0.2271 0.1004,-0.2423 0.0105,-0.0392 v 0 l 0.0199,-0.0742 0.0375,-0.1399 v 0 l 0.0148,-0.1129 v 0 l 0.0194,-0.1471 v -8.8067 h 2.4882 v 5.116 0 l 0.0106,0.1194 0.056,0.1956 v 0 0 l 0.0942,0.1804 v 0 l 0.1286,0.1577 0.0939,0.0766 0.0638,0.052 0.1804,0.0942 0.1956,0.056 0.1194,0.0106 h 5.116 l 0.1194,-0.0106 0.1956,-0.056 0.1804,-0.0942 0.1577,-0.1286 0.1286,-0.1577 0.0942,-0.1804 0.056,-0.1956 0.0106,-0.1194 v -5.116 l -0.0106,-0.1194 -0.056,-0.1956 -0.0942,-0.1804 -0.052,-0.0638 -0.0766,-0.0939 -0.0364,-0.0297 -0.0395,-0.0576 -0.0021,-0.0698 0.036,-0.0599 0.0564,-0.0297 0.2925,-0.0667 0.2916,-0.1021 0.2784,-0.134 0.2615,-0.1644 0.2416,-0.1926 0.2184,-0.2184 0.1926,-0.2416 0.1644,-0.2615 0.134,-0.2784 0.1021,-0.2916 0.0687,-0.3011 0.025,-0.2215 h 4.0938 v 0 l 0.0192,0.3664 0.0247,0.1562 0.0327,0.2062 0.0229,0.0854 0.0721,0.269 0.1314,0.3425 0.1666,0.327 0.1998,0.3077 0.0897,0.1107 0.1413,0.1744 0.2594,0.2594 0.1062,0.086 0.1789,0.145 0.0654,0.0424 0.2423,0.1574 0.327,0.1666 0.3425,0.1314 0.3544,0.095 0.3624,0.0574 0.3461,0.0181 0.0203,0.0011 v 0 0 l 0.0192,-10e-4 0.3472,-0.0182 0.3624,-0.0574 0.3544,-0.095 0.3425,-0.1314 0.327,-0.1666 0.3077,-0.1998 0.2851,-0.231 0.2594,-0.2594 0.231,-0.2851 0.1998,-0.3077 0.1666,-0.327 0.1314,-0.3425 0.095,-0.3544 0.0574,-0.3624 0.0192,-0.3664 -0.0192,-0.3664 -0.0574,-0.3624 -0.095,-0.3544 -0.1314,-0.3425 -0.1666,-0.327 -0.0529,-0.0814 -0.1469,-0.2263 -0.1023,-0.1263 -0.1287,-0.1588 -0.2594,-0.2594 -0.0325,-0.0264 -0.2526,-0.2046 -0.3077,-0.1998 -0.327,-0.1666 -0.3425,-0.1314 v 0 l -0.3544,-0.095 v 0 0 L 60.0814,28.5289 59.715,28.5097 v 0 l -0.3664,0.0192 -0.3624,0.0574 v 0 l -0.3544,0.095 -0.3425,0.1314 -0.327,0.1666 -0.3077,0.1998 -0.2851,0.2309 v 10e-5 l -0.2594,0.2594 h -1e-4 l -0.2309,0.2851 -0.1998,0.3077 -0.1666,0.327 -0.1314,0.3425 -0.095,0.3544 v 0 l -0.0574,0.3624 -0.0192,0.3664 h -4.0938 l 0.0096,-0.0855 v -0.309 l -0.0346,-0.307 -0.0687,-0.3011 -0.1021,-0.2916 -0.134,-0.2784 -0.1644,-0.2615 -0.1926,-0.2416 -0.2184,-0.2184 -0.2416,-0.1926 -0.2615,-0.1644 v 0 l -0.2784,-0.134 v 0 l -0.2916,-0.1021 v 0 l -0.3011,-0.0687 h -1e-4 l -0.3069,-0.0346 v 0 h -1.809 v 0 l -0.3069,0.0346 h -1e-4 l -0.3011,0.0687 v 0 l -0.2916,0.1021 v 0 l -0.2784,0.134 -0.2615,0.1644 -0.2416,0.1926 -0.2184,0.2184 -0.1926,0.2416 -0.1644,0.2615 -0.134,0.2784 v 0 l -0.1021,0.2916 v 0 l -0.0687,0.3011 v 10e-5 l -0.0346,0.3069 v 0.309 l 0.0346,0.3069 v 10e-5 l 0.0687,0.3011 v 0 l 0.1021,0.2916 v 0 l 0.134,0.2784 v 0 l 0.1644,0.2615 0.1926,0.2416 0.2184,0.2184 0.2416,0.1926 0.2615,0.1644 v 0 l 0.0507,0.0244 0.0518,0.0468 0.0183,0.0674 -0.021,0.0667 -0.0537,0.0446 -0.0492,0.0102 h -2.4777 v 0 0 l -0.0117,0.001 -0.1077,0.0096 -0.1956,0.056 -0.0902,0.0471 -0.0902,0.0471 v 0 0 l -0.1577,0.1286 -0.1286,0.1577 -0.0942,0.1804 -0.056,0.1956 v 0 l -0.0106,0.1194 h -2.4882 v -9.9808 0 l -0.0061,-0.0462 0.0108,-0.0691 0.0464,-0.0522 0.0672,-0.0189 0.0261,0.0031 0.1328,0.0303 h 1e-4 v 0 l 0.2046,0.0231 0.1023,0.0115 v 0 0 h 0.309 v 0 l 0.1569,-0.0177 0.15,-0.0169 v 0 h 10e-5 l 0.3011,-0.0687 0.2916,-0.1021 0.2784,-0.134 0.2615,-0.1644 0.0546,-0.0434 0.0646,-0.0265 0.0687,0.0128 0.0509,0.0479 0.017,0.0678 -0.003,0.0225 -0.0628,0.275 v 10e-5 l -0.0346,0.3069 v 0.309 l 0.0346,0.3069 v 1e-4 l 0.0687,0.3011 v 0 l 0.1021,0.2916 v 0 l 0.134,0.2784 v 0 l 0.1644,0.2615 0.1926,0.2416 0.2184,0.2184 0.2416,0.1926 0.2615,0.1644 0.2784,0.134 v 0 l 0.2916,0.1021 v 0 l 0.3011,0.0687 h 1e-4 v 0 l 0.2046,0.0231 0.1023,0.0115 v 0 0 h 1.809 v 0 l 0.1569,-0.0177 0.15,-0.0169 v 0 h 10e-5 l 0.3011,-0.0687 0.2916,-0.1021 0.2784,-0.134 0.2615,-0.1644 0.2416,-0.1926 0.2184,-0.2184 0.1926,-0.2416 0.1644,-0.2615 0.134,-0.2784 0.1021,-0.2916 0.0687,-0.3011 0.0346,-0.307 v -0.309 L 50.1,25.2708 50.0855,25.1419 v -10e-5 l -0.0132,-0.0577 -0.0555,-0.2434 -0.0193,-0.055 -0.0828,-0.2366 v 0 l -0.134,-0.2784 -0.1644,-0.2615 -0.1926,-0.2416 -0.2184,-0.2184 -0.2416,-0.1926 -0.2615,-0.1644 v 0 l -0.2784,-0.134 v 0 l -0.2916,-0.1021 v 0 l -0.3011,-0.0687 h -10e-5 l -0.3069,-0.0346 v 0 h -1.809 v 0 l -0.3069,0.0346 h -1e-4 l -0.3011,0.0687 v 0 l -0.2916,0.1021 v 0 l -0.2784,0.134 -0.2615,0.1644 -0.0546,0.0434 -0.0647,0.0265 -0.0686,-0.0128 -0.0509,-0.0479 -0.017,-0.0678 0.003,-0.0225 0.0628,-0.275 0.005,-0.0444 0.0296,-0.2626 v 0 -1.809 0 l -0.0346,-0.3069 v -10e-5 l -0.0687,-0.3011 v 0 l -0.1021,-0.2916 v 0 l -0.134,-0.2784 -0.1644,-0.2615 -0.1926,-0.2416 -0.2184,-0.2184 -0.2416,-0.1926 -0.2615,-0.1644 v 0 L 42.5964,18.577 h 12.3131 v 3.616 0 l 0.0106,0.1194 0.056,0.1956 v 0 0 l 0.0942,0.1804 0.0041,0.0051 0.1245,0.1526 0.0939,0.0766 0.0638,0.052 0.1804,0.0942 0.1956,0.056 0.1194,0.0106 h 0.7415 l 0.067,0.0197 0.0458,0.0528 0.0099,0.0691 -0.029,0.0636 -0.0317,0.0262 -0.2482,0.1433 v 0 l -0.234,0.1795 v 0 l -0.2086,0.2086 v 0 l -0.1795,0.234 v 0 l -0.1475,0.2554 v 0 l -0.1129,0.2725 v 0 l -0.0763,0.2849 v 0 l -0.025,0.1899 H 58.81 l -0.025,0.0604 -0.025,0.1256 v 0.128 l 0.025,0.1256 0.025,0.0604 h -3.3865 l 0.025,0.1899 v 0 l 0.0763,0.2849 v 0 l 0.1129,0.2725 v 0 l 0.1475,0.2554 v 0 l 0.1795,0.234 v 0 l 0.2086,0.2086 v 0 l 0.234,0.1795 v 0 l 0.2554,0.1475 v 0 l 0.2725,0.1129 v 0 l 0.2849,0.0763 v 0 l 0.2924,0.0385 v 0 H 59.16 v -1.65 l 0.0604,0.025 0.1256,0.025 h 0.128 L 59.5996,26.01 59.66,25.985 v 1.65 h 1.6475 v 0 l 0.2924,-0.0385 v 0 l 0.2849,-0.0763 v 0 l 0.2725,-0.1129 v 0 l 0.2554,-0.1475 v 0 l 0.234,-0.1795 v 0 l 0.2086,-0.2086 v 0 l 0.1795,-0.234 v 0 l 0.1475,-0.2554 v 0 l 0.1129,-0.2725 v 0 l 0.0763,-0.2849 v 0 l 0.025,-0.1899 H 60.01 L 60.035,25.5746 60.06,25.449 V 25.321 L 60.035,25.1954 60.01,25.135 h 3.3865 l -0.025,-0.1899 v 0 l -0.0763,-0.2849 v 0 l -0.1129,-0.2725 v 0 l -0.1475,-0.2554 v 0 l -0.1795,-0.234 v 0 l -0.2086,-0.2086 v 0 l -0.234,-0.1795 v 0 l -0.2482,-0.1433 -0.0482,-0.0506 -0.0132,-0.0686 0.026,-0.0649 0.0569,-0.0405 0.0405,-0.0068 h 0.7415 l 0.1194,-0.0106 0.1956,-0.056 0.1804,-0.0942 0.1577,-0.1286 0.1286,-0.1577 0.0942,-0.1804 0.056,-0.1956 0.0106,-0.1194 v -3.616 l -0.0106,-0.1194 -0.056,-0.1956 -0.0942,-0.1804 -0.052,-0.0638 -0.0766,-0.0939 -0.1577,-0.1286 v 0 0 L 63.283,17.7011 v 0 0 l -0.1172,-0.0336 -0.0784,-0.0224 v 0 0 L 63.0211,17.6392 62.968,17.6345 v 0 h -7.116 v 0 0 l -0.0117,0.001 -0.1077,0.0096 -0.1956,0.056 -0.0902,0.0471 -0.0902,0.0471 v 0 0 l -0.1577,0.1286 -0.1286,0.1577 -0.0942,0.1804 -0.056,0.1956 v 0 L 54.9095,18.577 H 42.5964 l -0.1726,-0.0831 v 0 l -0.2916,-0.1021 v 0 l -0.3011,-0.0687 h -10e-5 l -0.3069,-0.0346 v 0 h -0.309 v 0 l -0.3069,0.0346 h -1e-4 l -0.3011,0.0687 v 0 l -0.2916,0.1021 v 0 l -0.2784,0.134 -0.2615,0.1644 -0.2416,0.1926 -0.2184,0.2184 -0.1926,0.2416 -0.1644,0.2615 -0.0057,0.0119 -0.0468,0.0519 -0.0649,0.0183 h -1.4322 l -0.067,-0.0197 -0.0447,-0.0505 -10e-4,-0.002 -0.0047,-0.0099 -0.1644,-0.2615 -0.1926,-0.2416 -0.2184,-0.2184 -0.2416,-0.1926 -0.2615,-0.1644 v 0 l -0.2784,-0.134 v 0 L 35.643,18.3918 v 0 l -0.3011,-0.0687 h -1e-4 l -0.3069,-0.0346 v 0 h -0.309 v 0 l -0.3069,0.0346 h -10e-5 l -0.3011,0.0687 v 0 l -0.2916,0.1021 v 0 l -0.2784,0.134 -0.2615,0.1644 -0.2416,0.1926 -0.2184,0.2184 -0.1926,0.2416 -0.1644,0.2615 -0.134,0.2784 v 0 l -0.1021,0.2916 v 0 l -0.0687,0.3011 v 10e-5 l -0.0346,0.3069 v 1.809 l 0.0346,0.3069 v 10e-5 l 0.0628,0.275 -0.0043,0.0697 -0.0413,0.0564 -0.0652,0.0251 -0.0684,-0.0142 -0.019,-0.0125 -0.0546,-0.0434 v 0 l -0.2615,-0.1644 -0.2784,-0.134 v 0 L 31.143,22.9561 v 0 l -0.3011,-0.0687 h -10e-5 l -0.3069,-0.0346 v 0 h -1.809 v 0 l -0.3069,0.0346 h -10e-5 l -0.3011,0.0687 v 0 l -0.2916,0.1021 v 0 l -0.2784,0.134 -0.2615,0.1644 -0.2416,0.1926 -0.2184,0.2184 -0.1926,0.2416 -0.1644,0.2615 -0.134,0.2784 v 0 l -0.1021,0.2916 v 0 l -0.0687,0.3011 v 10e-5 l -0.0346,0.3069 v 0.309 l 0.0346,0.3069 v 1e-4 l 0.0687,0.3011 v 0 l 0.1021,0.2916 v 0 l 0.134,0.2784 v 0 l 0.1644,0.2615 0.1926,0.2416 0.2184,0.2184 0.2416,0.1926 0.2615,0.1644 0.2784,0.134 v 0 l 0.2916,0.1021 v 0 l 0.3011,0.0687 h 10e-5 v 0 l 0.2046,0.0231 0.1023,0.0115 v 0 0 h 1.809 v 0 l 0.1569,-0.0177 0.15,-0.0169 v 0 h 10e-5 l 0.3011,-0.0687 0.2916,-0.1021 0.2784,-0.134 0.2615,-0.1644 0.2416,-0.1926 0.2184,-0.2184 0.1926,-0.2416 0.1644,-0.2615 0.134,-0.2784 0.1021,-0.2916 0.0687,-0.3011 0.0346,-0.307 v -0.309 l -0.0201,-0.178 -0.0145,-0.1289 v 0 -10e-5 l -0.0628,-0.275 0.0043,-0.0697 0.0413,-0.0564 0.0652,-0.0251 0.0684,0.0142 0.019,0.0125 0.0546,0.0434 0.2615,0.1644 0.2784,0.134 v 0 l 0.2916,0.1021 v 0 l 0.3011,0.0687 h 10e-5 v 0 l 0.2046,0.0231 0.1023,0.0115 v 0 0 h 0.309 v 0 l 0.1569,-0.0177 0.15,-0.0169 v 0 h 1e-4 l 0.0759,-0.0173 0.0697,0.0043 0.0456,0.0289 1.0605,1.0605 0.0335,0.0613 0.0028,0.0264 v 12.2185 l -0.0197,0.0671 -0.0528,0.0457 -0.0691,0.01 -0.0484,-0.0178 -0.2269,-0.1426 -0.2784,-0.134 v 0 L 35.643,38.3638 v 0 l -0.3011,-0.0687 h -1e-4 l -0.3069,-0.0346 v 0 h -0.309 v 0 l -0.3069,0.0346 h -10e-5 l -0.3011,0.0687 v 0 l -0.2916,0.1021 v 0 l -0.2784,0.134 -0.2615,0.1644 -0.0546,0.0434 -0.0647,0.0265 -0.0686,-0.0128 -0.0509,-0.0479 -0.017,-0.0678 0.003,-0.0225 0.0628,-0.275 0.005,-0.0444 0.0296,-0.2626 v 0 -0.309 0 l -0.0346,-0.3069 v -1e-4 l -0.0687,-0.3011 v 0 l -0.1021,-0.2916 v 0 L 32.7915,36.6141 32.6271,36.3526 32.4345,36.111 32.2161,35.8926 31.9745,35.7 31.713,35.5356 v 0 l -0.2784,-0.134 v 0 L 31.143,35.2995 v 0 l -0.3011,-0.0687 h -10e-5 l -0.3069,-0.0346 v 0 h -1.809 v 0 l -0.3069,0.0346 h -10e-5 l -0.3011,0.0687 v 0 l -0.2916,0.1021 v 0 l -0.2784,0.134 -0.2615,0.1644 -0.2416,0.1926 -0.2184,0.2184 -0.1926,0.2416 -0.1644,0.2615 -0.134,0.2784 v 0 l -0.1021,0.2916 v 0 l -0.0687,0.3011 v 1e-4 l -0.0346,0.3069 v 0.309 l 0.0346,0.3069 v 1e-4 l 0.0687,0.3011 v 0 l 0.1021,0.2916 v 0 l 0.134,0.2784 v 0 l 0.1644,0.2615 0.1926,0.2416 0.2184,0.2184 0.2416,0.1926 0.2615,0.1644 0.2784,0.134 v 0 l 0.2916,0.1021 v 0 l 0.3011,0.0687 h 10e-5 v 0 l 0.2046,0.0231 0.1023,0.0115 v 0 0 h 1.809 v 0 l 0.1569,-0.0177 0.15,-0.0169 v 0 h 10e-5 l 0.3011,-0.0687 0.2916,-0.1021 0.2784,-0.134 0.2615,-0.1644 0.0546,-0.0434 0.0646,-0.0265 0.0687,0.0128 0.0509,0.0479 0.017,0.0678 -0.003,0.0225 -0.0628,0.275 v 10e-5 l -0.0346,0.3069 v 0.7745 l -0.0197,0.067 -0.0166,0.0207 -0.7195,0.7195 -0.0613,0.0335 -0.0264,0.0028 H 21.1788 l -0.067,-0.0197 -0.0458,-0.0528 -0.0099,-0.0691 0.029,-0.0636 0.0262,-0.0228 0.0241,-0.0156 0.2851,-0.231 0.2594,-0.2594 0.231,-0.2851 0.1998,-0.3077 0.1666,-0.327 0.1314,-0.3425 0.095,-0.3544 0.0574,-0.3624 0.0192,-0.3664 -0.0192,-0.3664 -0.0574,-0.3624 -0.095,-0.3544 -0.1314,-0.3425 -0.1666,-0.327 -0.102,-0.157 -0.0978,-0.1507 -0.2309,-0.2851 h -10e-5 l -0.2594,-0.2594 -0.0325,-0.0264 -0.2526,-0.2046 -0.3077,-0.1998 -0.327,-0.1666 -0.3425,-0.1314 v 0 l -0.3544,-0.095 v 0 0 L 19.4414,35.9089 19.075,35.8897 v 0 l -0.3664,0.0192 -0.3624,0.0574 v 0 l -0.3544,0.095 -0.3425,0.1314 -0.327,0.1666 -0.3077,0.1998 -0.2851,0.2309 v 1e-4 l -0.2594,0.2594 H 16.47 l -0.2309,0.2851 -0.1998,0.3077 -0.1666,0.327 -0.1314,0.3425 -0.095,0.3544 v 0 l -0.046,0.2907 -0.0114,0.0717 -0.0192,0.3664 0.0192,0.3664 0.0574,0.3624 0.0404,0.1507 0.0546,0.2037 0.1314,0.3425 0.1666,0.327 0.1998,0.3077 v 0 l 0.231,0.2851 0.2594,0.2594 V 42 l 0.2851,0.2309 0.2636,0.1711 0.0441,0.0287 0.327,0.1666 0.3425,0.1314 0.2397,0.0643 0.0597,0.0363 0.0305,0.0629 -0.0083,0.0694 -0.0263,0.0388 -5.8277,5.8278 -0.0613,0.0335 -0.0264,0.0028 H 10.997 v 0 0 l -0.0117,10e-4 -0.1077,0.0096 -0.1956,0.056 -0.0704,0.0367 -0.11,0.0575 v 0 0 l -0.1577,0.1286 -0.1286,0.1577 v 0 l -0.0323,0.0618 -0.0619,0.1186 -0.056,0.1956 v 0 L 10.0545,49.807 H 1.295 V 39.395 h 6.6547 l 0.0192,0.3664 0.0574,0.3624 0.0404,0.1507 0.0546,0.2037 0.1314,0.3425 0.1666,0.327 0.1998,0.3077 v 0 l 0.231,0.2851 0.2594,0.2594 V 42 l 0.2851,0.2309 0.2636,0.1711 0.0441,0.0287 0.327,0.1666 0.3425,0.1314 0.3544,0.095 0.3624,0.0574 0.3461,0.0181 0.0203,0.0011 v 0 0 l 0.0192,-0.001 0.3472,-0.0182 0.3624,-0.0574 0.3544,-0.095 0.3425,-0.1314 0.327,-0.1666 0.3077,-0.1998 0.2851,-0.231 0.2594,-0.2594 0.231,-0.2851 0.1998,-0.3077 0.1666,-0.327 0.1314,-0.3425 0.095,-0.3544 0.0574,-0.3624 0.0192,-0.3664 -0.0192,-0.3664 -0.0574,-0.3624 -0.095,-0.3544 -0.1314,-0.3425 -0.1666,-0.327 -0.102,-0.157 -0.0978,-0.1507 -0.2309,-0.2851 h -10e-5 l -0.2594,-0.2594 -0.0325,-0.0264 -0.2526,-0.2046 -0.3077,-0.1998 -0.327,-0.1666 -0.3425,-0.1314 v 0 l -0.3544,-0.095 v 0 0 L 11.8214,35.9089 11.455,35.8897 v 0 l -0.3664,0.0192 -0.3624,0.0574 v 0 l -0.3544,0.095 -0.3425,0.1314 -0.327,0.1666 -0.3077,0.1998 -0.2851,0.2309 v 1e-4 L 8.8501,37.0495 H 8.85 l -0.2309,0.2851 -0.1998,0.3077 -0.1666,0.327 -0.1314,0.3425 -0.095,0.3544 v 0 L 7.9803,38.9569 7.9689,39.0286 7.9497,39.395 H 1.295 v -7.7745 h 22.8295 v 0.309 l 0.0346,0.3069 v 10e-5 l 0.0687,0.3011 v 0 l 0.1021,0.2916 v 0 l 0.134,0.2784 v 0 l 0.1644,0.2615 0.1926,0.2416 0.2184,0.2184 0.2416,0.1926 0.2615,0.1644 0.2784,0.134 v 0 l 0.2916,0.1021 v 0 l 0.3011,0.0687 h 10e-5 v 0 l 0.1941,0.0219 0.1128,0.0127 v 0 0 h 1.809 v 0 l 0.1569,-0.0177 0.15,-0.0169 v 0 h 10e-5 l 0.3011,-0.0687 0.2916,-0.1021 0.2784,-0.134 0.2615,-0.1644 0.2416,-0.1926 0.2184,-0.2184 0.1926,-0.2416 0.1644,-0.2615 0.134,-0.2784 0.1021,-0.2916 0.0687,-0.3011 0.0346,-0.307 v -0.309 l -0.0346,-0.307 -0.0687,-0.3011 -0.1021,-0.2916 -0.134,-0.2784 -0.1644,-0.2615 -0.1926,-0.2416 -0.2184,-0.2184 -0.2416,-0.1926 -0.2615,-0.1644 v 0 l -0.2784,-0.134 v 0 l -0.2916,-0.1021 v 0 l -0.3011,-0.0687 h -10e-5 l -0.3069,-0.0346 v 0 h -1.809 v 0 l -0.3069,0.0346 h -10e-5 l -0.3011,0.0687 v 0 l -0.2916,0.1021 v 0 l -0.2784,0.134 -0.2615,0.1644 -0.2416,0.1926 -0.2184,0.2184 -0.1926,0.2416 -0.1644,0.2615 -0.134,0.2784 v 0 l -0.1021,0.2916 v 0 l -0.0687,0.3011 v 10e-5 l -0.0346,0.3069 H 1.295 V 26.695 h 7.1549 v 0 l 0.0203,0.3489 v 0 l 0.0607,0.3441 v 0 l 0.1002,0.3348 0.1385,0.3209 v 0 l 0.1747,0.3026 0.2087,0.2803 0.0081,0.0087 1.6163,-1.6163 0.013,0.0313 0.082,0.1228 0.1045,0.1045 0.1228,0.082 0.0313,0.013 -1.6132,1.6131 v 0 l 0.1427,0.1197 0.292,0.1921 0.3122,0.1568 v 0 l 0.3284,0.1195 v 0 l 0.3401,0.0806 0.3471,0.0406 v 0 h 0.3494 v 0 l 0.3471,-0.0406 v 0 l 0.3401,-0.0806 v 0 l 0.3284,-0.1195 v 0 l 0.3122,-0.1568 0.292,-0.1921 v 0 l 0.1427,-0.1197 v 0 l -1.6132,-1.6131 0.0313,-0.013 0.1228,-0.082 0.1045,-0.1045 0.082,-0.1228 0.013,-0.0313 1.6162,1.6163 h 1e-4 l 0.0081,-0.0087 v 0 l 0.2087,-0.2803 0.1747,-0.3026 v 0 l 0.1385,-0.3209 0.1002,-0.3348 v 0 l 0.0607,-0.3441 v 0 l 0.0203,-0.3489 v 0 h 1.6098 v 0 l 0.0203,0.3489 v 0 l 0.0607,0.3441 v 0 l 0.1002,0.3348 0.1385,0.3209 v 0 l 0.1747,0.3026 0.2087,0.2803 0.0081,0.0087 1.6163,-1.6163 0.013,0.0313 0.082,0.1228 0.1045,0.1045 0.1228,0.082 0.0313,0.013 -1.6132,1.6131 v 0 l 0.1427,0.1197 0.292,0.1921 0.3122,0.1568 v 0 l 0.3284,0.1195 v 0 l 0.3401,0.0806 0.3471,0.0406 v 0 h 0.3494 v 0 l 0.3471,-0.0406 v 0 l 0.3401,-0.0806 v 0 l 0.3284,-0.1195 v 0 l 0.3122,-0.1568 0.292,-0.1921 v 0 l 0.1427,-0.1197 v 0 l -1.6132,-1.6131 0.0313,-0.013 0.1228,-0.082 0.1045,-0.1045 0.082,-0.1228 0.013,-0.0313 1.6162,1.6163 h 10e-5 l 0.0081,-0.0087 v 0 l 0.2087,-0.2803 0.1747,-0.3026 v 0 l 0.1385,-0.3209 0.1002,-0.3348 v 0 l 0.0607,-0.3441 v 0 l 0.0203,-0.3489 v 0 l -0.0203,-0.3489 v 0 L 21.9991,26.002 v 0 l -0.1002,-0.3348 -0.1385,-0.3209 v 0 l -0.1747,-0.3026 -0.2087,-0.2803 -0.0082,-0.0087 -1.6162,1.6163 -0.013,-0.0313 -0.082,-0.1228 -0.1045,-0.1045 -0.1228,-0.082 -0.0313,-0.013 1.6132,-1.6131 v 0 l -0.1427,-0.1197 -0.292,-0.1921 -0.3122,-0.1568 v 0 l -0.3284,-0.1195 v 0 L 19.5968,23.7356 19.2497,23.695 h -0.3494 l -0.3471,0.0406 v 0 l -0.3401,0.0806 v 0 l -0.3284,0.1195 v 0 l -0.3122,0.1568 -0.292,0.1921 -0.1427,0.1197 v 0 l 1.6132,1.6131 -0.0313,0.013 -0.1228,0.082 -0.1045,0.1045 -0.082,0.1228 -0.013,0.0313 -1.6163,-1.6163 v 0 l -0.0081,0.0087 v 0 l -0.2087,0.2803 -0.1747,0.3026 v 0 l -0.1385,0.3209 -0.1002,0.3348 v 0 l -0.0607,0.3441 v 0 l -0.0203,0.3489 h -1.6098 l -0.0203,-0.3489 v 0 L 14.3791,26.002 v 0 l -0.1002,-0.3348 -0.1385,-0.3209 v 0 l -0.1747,-0.3026 -0.2087,-0.2803 -0.0082,-0.0087 -1.6162,1.6163 -0.013,-0.0313 -0.082,-0.1228 -0.1045,-0.1045 -0.1228,-0.082 -0.0313,-0.013 1.6132,-1.6131 v 0 l -0.1427,-0.1197 -0.292,-0.1921 -0.3122,-0.1568 v 0 l -0.3284,-0.1195 v 0 L 11.9768,23.7356 11.6297,23.695 h -0.3494 l -0.3471,0.0406 v 0 l -0.3401,0.0806 v 0 l -0.3284,0.1195 v 0 l -0.3122,0.1568 -0.292,0.1921 -0.1427,0.1197 v 0 l 1.6132,1.6131 -0.0313,0.013 -0.1228,0.082 -0.1045,0.1045 -0.082,0.1228 -0.013,0.0313 -1.6163,-1.6163 v 0 L 9.153,24.7634 v 0 l -0.2087,0.2803 -0.1747,0.3026 v 0 L 8.6311,25.6672 8.5309,26.002 v 0 l -0.0607,0.3441 v 0 L 8.4499,26.695 H 1.295 V 9.8625 h 10.53 V 11.51 h 1.65 l -0.025,0.0604 -0.025,0.1256 v 0.128 l 0.025,0.1256 0.025,0.0604 h -1.65 v 1.6475 0 l 0.0385,0.2924 v 0 l 0.0763,0.2849 v 0 l 0.1129,0.2725 v 0 l 0.1475,0.2554 v 0 l 0.1795,0.234 v 0 l 0.2086,0.2086 v 0 l 0.234,0.1795 v 0 l 0.2554,0.1475 v 0 l 0.2725,0.1129 v 0 l 0.2849,0.0763 v 0 l 0.1899,0.025 V 12.36 l 0.0604,0.025 0.1256,0.025 h 0.128 l 0.1256,-0.025 0.0604,-0.025 v 3.3865 l 0.1899,-0.025 v 0 l 0.2849,-0.0763 v 0 l 0.2725,-0.1129 v 0 l 0.2554,-0.1475 v 0 l 0.234,-0.1795 v 0 l 0.2086,-0.2086 v 0 l 0.1795,-0.234 v 0 l 0.1433,-0.2482 0.0506,-0.0482 0.0686,-0.0132 0.0649,0.026 0.0405,0.0569 0.0068,0.0405 v 0.7415 0 l 0.0106,0.1194 0.056,0.1956 v 0 0 l 0.0942,0.1804 v 0 l 0.1286,0.1577 0.0939,0.0766 0.0638,0.052 0.1804,0.0942 0.1956,0.056 0.1194,0.0106 h 3.616 l 0.1194,-0.0106 0.1956,-0.056 0.1804,-0.0942 0.1577,-0.1286 0.1286,-0.1577 0.0942,-0.1804 0.056,-0.1956 0.0106,-0.1194 v -3.863 h 6.4442 v 0 l 0.0192,0.3664 0.0166,0.1049 0.0408,0.2575 0.0311,0.1159 0.0639,0.2385 0.1314,0.3425 0.1666,0.327 0.1998,0.3077 0.0322,0.0397 0.1988,0.2454 0.2594,0.2594 v 10e-5 l 0.2851,0.2309 0.2702,0.1754 0.0375,0.0244 0.327,0.1666 0.3425,0.1314 0.3544,0.095 0.3624,0.0574 0.3461,0.0181 0.0203,0.0011 v 0 0 l 0.0192,-10e-4 0.3472,-0.0182 0.3624,-0.0574 0.3544,-0.095 0.3425,-0.1314 0.327,-0.1666 0.3077,-0.1998 0.2851,-0.231 0.2594,-0.2594 0.231,-0.2851 0.1998,-0.3077 0.1666,-0.327 0.1314,-0.3425 0.095,-0.3544 0.0574,-0.3624 0.0192,-0.3664 v 0 h 5.6894 v 0 l 0.0192,0.3664 0.0166,0.1049 0.0408,0.2575 0.0311,0.1159 0.0639,0.2385 0.1314,0.3425 0.1666,0.327 0.1998,0.3077 0.0322,0.0397 0.1988,0.2454 0.2594,0.2594 v 10e-5 l 0.2851,0.2309 0.2702,0.1754 0.0375,0.0244 0.327,0.1666 0.3425,0.1314 0.3544,0.095 0.3624,0.0574 0.3461,0.0181 0.0203,0.0011 v 0 0 l 0.0192,-10e-4 0.3472,-0.0182 0.3624,-0.0574 0.3544,-0.095 0.3425,-0.1314 0.327,-0.1666 0.3077,-0.1998 0.2851,-0.231 0.2594,-0.2594 0.231,-0.2851 0.1998,-0.3077 0.1666,-0.327 0.1314,-0.3425 0.095,-0.3544 0.0574,-0.3624 0.0192,-0.3664 -0.0192,-0.3664 -0.0574,-0.3624 -0.095,-0.3544 -0.1314,-0.3425 -0.1666,-0.327 v 0 L 47.3109,9.3946 47.08,9.1095 h -10e-5 L 46.8205,8.8501 46.5354,8.6191 v 0 L 46.2277,8.4193 45.9007,8.2527 45.5582,8.1213 v 0 l -0.3544,-0.095 v 0 0 L 44.8414,7.9689 44.475,7.9497 v 0 l -0.3664,0.0192 -0.3624,0.0574 v 0 l -0.3544,0.095 -0.3425,0.1314 -0.327,0.1666 -0.3077,0.1998 -0.2851,0.2309 v 10e-5 l -0.2594,0.2594 h -1e-4 l -0.2309,0.2851 -0.1998,0.3077 -0.1666,0.327 -0.1314,0.3425 -0.095,0.3544 v 0 l -0.0574,0.3624 -0.0192,0.3664 h -5.6894 l -0.0192,-0.3664 -0.0574,-0.3624 -0.095,-0.3544 -0.1314,-0.3425 -0.1666,-0.327 v 0 L 34.6109,9.3946 34.38,9.1095 h -1e-4 L 34.1205,8.8501 33.8354,8.6191 v 0 L 33.5277,8.4193 33.2007,8.2527 32.8582,8.1213 v 0 l -0.3544,-0.095 v 0 0 L 32.1414,7.9689 31.775,7.9497 v 0 l -0.3664,0.0192 -0.3624,0.0574 v 0 l -0.3544,0.095 -0.3425,0.1314 -0.327,0.1666 -0.3077,0.1998 -0.2851,0.2309 v 10e-5 L 29.1701,9.1095 H 29.17 l -0.2309,0.2851 -0.1998,0.3077 -0.1666,0.327 -0.1314,0.3425 -0.095,0.3544 v 0 l -0.0574,0.3624 -0.0192,0.3664 H 21.8255 V 8.202 L 21.8149,8.0826 21.7589,7.887 21.6647,7.7066 21.6127,7.6428 21.5361,7.5489 21.4209,7.455 21.3784,7.4203 21.198,7.3261 v 0 0 L 21.0808,7.2925 21.0024,7.2701 v 0 0 L 20.9361,7.2642 20.883,7.2595 v 0 h -3.616 v 0 0 l -0.0117,0.001 -0.1077,0.0096 -0.1956,0.056 -0.0738,0.0385 -0.1066,0.0557 v 0 0 L 16.6139,7.5489 16.4853,7.7066 16.3911,7.887 16.3512,8.0263 16.3414,8.0605 16.3351,8.0826 v 0 L 16.3245,8.202 V 8.9435 L 16.3048,9.0105 16.252,9.0563 16.1829,9.0662 16.1193,9.0372 16.0931,9.0055 15.9498,8.7573 v 0 l -0.1795,-0.234 v 0 L 15.5617,8.3147 v 0 l -0.234,-0.1795 v 0 L 15.0723,7.9877 v 0 L 14.7998,7.8748 v 0 L 14.5149,7.7985 v 0 L 14.325,7.7735 V 11.16 L 14.2646,11.135 14.139,11.11 h -0.128 l -0.1256,0.025 -0.0604,0.025 v -3.3865 0 l -0.1899,0.025 v 0 l -0.2849,0.0763 v 0 l -0.2725,0.1129 v 0 l -0.2554,0.1475 v 0 l -0.234,0.1795 v 0 l -0.2086,0.2086 v 0 l -0.1795,0.234 v 0 l -0.1475,0.2554 v 0 l -0.1129,0.2725 v 0 l -0.0763,0.2849 v 0 L 11.825,9.8625 v 0 H 1.295 V 5.105 h 0.4648 v 0 L 1.7794,5.4667 1.838,5.8241 v 0 l 0.0969,0.349 v 0 L 2.069,6.5096 v 0 l 0.1696,0.32 0.2033,0.2998 0.0489,0.0576 0.1856,0.2185 0.263,0.2491 0.2883,0.2192 0.3104,0.1867 v 0 0 0 l 0.3057,0.1415 0.023,0.0106 0.3433,0.1157 0.3537,0.0778 0.3601,0.0392 v 0 h 0.3622 v 0 L 5.6462,8.4061 5.9999,8.3283 6.3432,8.2126 6.6719,8.0605 6.9823,7.8738 7.2706,7.6546 7.5336,7.4055 7.7192,7.187 h 47.4953 v 3.616 0 l 0.0106,0.1194 0.056,0.1956 v 0 0 l 0.0942,0.1804 v 0 l 0.1286,0.1577 0.0661,0.0539 0.0916,0.0747 0.1804,0.0942 0.1956,0.056 0.1194,0.0106 h 0.7415 l 0.067,0.0197 0.0458,0.0528 0.0099,0.0691 -0.029,0.0636 -0.0317,0.0262 -0.2482,0.1433 v 0 l -0.234,0.1795 v 0 l -0.2086,0.2086 v 0 l -0.1795,0.234 v 0 l -0.1475,0.2554 v 0 l -0.1129,0.2725 v 0 l -0.0763,0.2849 v 0 l -0.025,0.1899 h 3.3865 l -0.025,0.0604 -0.025,0.1256 v 0.128 l 0.025,0.1256 0.025,0.0604 h -3.3865 l 0.025,0.1899 v 0 l 0.0763,0.2849 v 0 l 0.1129,0.2725 v 0 l 0.1475,0.2554 v 0 l 0.1795,0.234 v 0 l 0.2086,0.2086 v 0 l 0.234,0.1795 v 0 l 0.2554,0.1475 v 0 l 0.2725,0.1129 v 0 l 0.2849,0.0763 v 0 l 0.2924,0.0385 v 0 h 1.6475 v -1.65 l 0.0604,0.025 0.1256,0.025 h 0.128 l 0.1256,-0.025 0.0604,-0.025 v 1.65 h 1.6475 v 0 l 0.2924,-0.0385 v 0 l 0.2849,-0.0763 v 0 l 0.2725,-0.1129 v 0 l 0.2554,-0.1475 v 0 l 0.234,-0.1795 v 0 l 0.2086,-0.2086 v 0 l 0.1795,-0.234 v 0 l 0.1475,-0.2554 v 0 l 0.1129,-0.2725 v 0 l 0.0763,-0.2849 v 0 l 0.025,-0.1899 H 60.315 L 60.34,14.1846 60.365,14.059 V 13.931 L 60.34,13.8054 60.315,13.745 h 3.3865 l -0.025,-0.1899 v 0 l -0.0763,-0.2849 v 0 l -0.1129,-0.2725 v 0 l -0.1475,-0.2554 v 0 l -0.1795,-0.234 v 0 l -0.2086,-0.2086 v 0 l -0.234,-0.1795 v 0 l -0.2482,-0.1433 -0.0482,-0.0506 -0.0132,-0.0686 0.026,-0.0649 0.0569,-0.0405 0.0405,-0.0068 h 0.7415 l 0.1194,-0.0106 0.1956,-0.056 0.1804,-0.0942 0.1577,-0.1286 0.1286,-0.1577 0.0942,-0.1804 0.056,-0.1956 0.0106,-0.1194 V 7.187 L 64.2049,7.0676 64.1489,6.872 64.0547,6.6916 64.0027,6.6278 63.9261,6.5339 63.7684,6.4053 v 0 0 L 63.588,6.3111 v 0 0 L 63.4607,6.2747 63.3924,6.2551 v 0 0 L 63.3261,6.2492 63.273,6.2445 v 0 h -7.116 v 0 0 l -0.0117,10e-4 -0.1077,0.0096 -0.1956,0.056 -0.0902,0.0471 -0.0902,0.0471 v 0 0 l -0.1577,0.1286 -0.1286,0.1577 -0.0942,0.1804 -0.056,0.1956 v 0 L 55.2145,7.187 H 7.7192 L 7.7681,7.1294 7.9714,6.8296 8.141,6.5096 8.2751,6.1731 8.372,5.8241 8.4306,5.4667 8.4502,5.105 v 0 h 63.1596 v 0 l 0.0196,0.3617 0.0586,0.3574 v 0 l 0.0969,0.349 v 0 l 0.1341,0.3365 v 0 l 0.1696,0.32 0.2033,0.2998 0.0489,0.0576 0.1856,0.2185 0.263,0.2491 0.2883,0.2192 0.3104,0.1867 v 0 0 0 l 0.3057,0.1415 0.023,0.0106 0.3433,0.1157 0.3537,0.0778 0.3601,0.0392 v 0 h 0.3622 v 0 L 75.4962,8.4061 75.8499,8.3283 76.1932,8.2126 76.5219,8.0605 76.8323,7.8738 77.1206,7.6546 77.3836,7.4055 77.6181,7.1294 77.8214,6.8296 77.991,6.5096 78.1251,6.1731 78.222,5.8241 78.2806,5.4667 78.3002,5.105 78.2806,4.7433 78.222,4.3859 78.1251,4.0369 77.991,3.7004 77.8214,3.3804 77.6181,3.0806 77.3836,2.8045 77.1206,2.5554 v 0 0 L 77.0522,2.5034 76.8323,2.3362 76.5219,2.1495 v 0 0 0 L 76.1932,1.9974 v 0 0 L 76.0259,1.941 75.8499,1.8817 75.4962,1.8039 75.1361,1.7647 v 0 h -0.3622 v 0 l -0.3601,0.0392 -0.3537,0.0778 -0.2654,0.0894 -0.0779,0.0263 v 0 0 l -0.3287,0.1521 v 0 l -0.2312,0.139 -0.0792,0.0477 -0.0894,0.0679 -0.1989,0.1513 v 0 l -0.263,0.2491 -0.2345,0.2761 -0.2033,0.2998 -0.1696,0.32 v 0 l -0.1341,0.3365 v 0 l -0.0969,0.349 v 0 L 71.6294,4.7433 71.6098,5.105 H 8.4502 L 8.4306,4.7433 8.372,4.3859 8.2751,4.0369 8.141,3.7004 7.9714,3.3804 7.7681,3.0806 7.5336,2.8045 7.2706,2.5554 v 0 0 L 7.2022,2.5034 6.9823,2.3362 6.6719,2.1495 v 0 0 0 L 6.3432,1.9974 v 0 0 L 6.1759,1.941 5.9999,1.8817 5.6462,1.8039 5.2861,1.7647 v 0 H 4.9239 v 0 L 4.5638,1.8039 4.2101,1.8817 3.9447,1.9711 3.8668,1.9974 v 0 0 L 3.5381,2.1495 v 0 L 3.3069,2.2885 3.2277,2.3362 3.1383,2.4041 2.9394,2.5554 v 0 L 2.6764,2.8045 2.4419,3.0806 2.2386,3.3804 2.069,3.7004 v 0 L 1.9349,4.0369 v 0 L 1.838,4.3859 v 0 L 1.7794,4.7433 1.7598,5.105 H 1.295 V 1.419 L 1.3147,1.352 1.3675,1.3062 1.419,1.295 h 77.222 z"
           id="path39" /></g><g
         style="fill:#ffffff;fill-opacity:1;stroke:none"
         id="g40"><circle
           cx="53.365002"
           cy="53.365002"
           r="0.75"
           id="circle39" /></g><g
         style="fill:#ffffff;fill-opacity:1;stroke:none"
         id="g41"><circle
           cx="66.065002"
           cy="53.365002"
           r="0.75"
           id="circle40" /></g><g
         style="fill:#ffffff;fill-opacity:1;stroke:none"
         id="g42"><circle
           cx="19.075001"
           cy="39.395"
           r="0.75"
           id="circle41" /></g><g
         style="fill:#ffffff;fill-opacity:1;stroke:none"
         id="g43"><circle
           cx="19.075001"
           cy="26.695"
           r="0.75"
           id="circle42" /></g><g
         style="fill:#ffffff;fill-opacity:1;stroke:none"
         id="g44"><circle
           cx="11.455"
           cy="39.395"
           r="0.75"
           id="circle43" /></g><g
         style="fill:#ffffff;fill-opacity:1;stroke:none"
         id="g45"><circle
           cx="11.455"
           cy="26.695"
           r="0.75"
           id="circle44" /></g><g
         style="fill:#ffffff;fill-opacity:1;stroke:none"
         id="g46"><circle
           cx="31.775"
           cy="11.455"
           r="0.75"
           id="circle45" /></g><g
         style="fill:#ffffff;fill-opacity:1;stroke:none"
         id="g47"><circle
           cx="44.474998"
           cy="11.455"
           r="0.75"
           id="circle46" /></g><g
         style="fill:#ffffff;fill-opacity:1;stroke:none"
         id="g48"><circle
           cx="45.625"
           cy="53.365002"
           r="0.75"
           id="circle47" /></g><g
         style="fill:#ffffff;fill-opacity:1;stroke:none"
         id="g49"><circle
           cx="30.625"
           cy="53.365002"
           r="0.75"
           id="circle48" /></g><g
         style="fill:#ffffff;fill-opacity:1;stroke:none"
         id="g50"><circle
           cx="59.715"
           cy="32.014999"
           r="0.75"
           id="circle49" /></g><g
         style="fill:#ffffff;fill-opacity:1;stroke:none"
         id="g51"><circle
           cx="59.715"
           cy="47.014999"
           r="0.75"
           id="circle50" /></g><g
         style="fill:#ffffff;fill-opacity:1;stroke:none"
         id="g52"><circle
           cx="12.805"
           cy="53.365002"
           r="0.64999998"
           id="circle51" /></g><g
         style="fill:#ffffff;fill-opacity:1;stroke:none"
         id="g53"><circle
           cx="17.805"
           cy="53.365002"
           r="0.64999998"
           id="circle52" /></g><g
         style="fill:#ffffff;fill-opacity:1;stroke:none"
         id="g54"><circle
           cx="19.075001"
           cy="11.76"
           r="0.64999998"
           id="circle53" /></g><g
         style="fill:#ffffff;fill-opacity:1;stroke:none"
         id="g55"><circle
           cx="14.075"
           cy="11.76"
           r="0.64999998"
           id="circle54" /></g><g
         style="fill:#ffffff;fill-opacity:1;stroke:none"
         id="g56"><circle
           cx="46.619598"
           cy="37.946701"
           r="0.84500003"
           id="circle55" /></g><g
         style="fill:#ffffff;fill-opacity:1;stroke:none"
         id="g57"><circle
           cx="48.625"
           cy="31.775"
           r="0.84500003"
           id="circle56" /></g><g
         style="fill:#ffffff;fill-opacity:1;stroke:none"
         id="g58"><circle
           cx="46.619598"
           cy="25.6033"
           r="0.84500003"
           id="circle57" /></g><g
         style="fill:#ffffff;fill-opacity:1;stroke:none"
         id="g59"><circle
           cx="41.369598"
           cy="21.789"
           r="0.84500003"
           id="circle58" /></g><g
         style="fill:#ffffff;fill-opacity:1;stroke:none"
         id="g60"><circle
           cx="34.880402"
           cy="21.789"
           r="0.84500003"
           id="circle59" /></g><g
         style="fill:#ffffff;fill-opacity:1;stroke:none"
         id="g61"><circle
           cx="29.6304"
           cy="25.6033"
           r="0.84500003"
           id="circle60" /></g><g
         style="fill:#ffffff;fill-opacity:1;stroke:none"
         id="g62"><circle
           cx="27.625"
           cy="31.775"
           r="0.84500003"
           id="circle61" /></g><g
         style="fill:#ffffff;fill-opacity:1;stroke:none"
         id="g63"><circle
           cx="29.6304"
           cy="37.946701"
           r="0.84500003"
           id="circle62" /></g><g
         style="fill:#ffffff;fill-opacity:1;stroke:none"
         id="g64"><circle
           cx="34.880402"
           cy="41.761002"
           r="0.84500003"
           id="circle63" /></g><g
         style="fill:#ffffff;fill-opacity:1;stroke:none"
         id="g65"><circle
           cx="59.715"
           cy="8.9949999"
           r="0.64999998"
           id="circle64" /></g><g
         style="fill:#ffffff;fill-opacity:1;stroke:none"
         id="g66"><circle
           cx="59.715"
           cy="13.995"
           r="0.64999998"
           id="circle65" /></g><g
         style="fill:#ffffff;fill-opacity:1;stroke:none"
         id="g67"><circle
           cx="59.41"
           cy="20.385"
           r="0.64999998"
           id="circle66" /></g><g
         style="fill:#ffffff;fill-opacity:1;stroke:none"
         id="g68"><circle
           cx="59.41"
           cy="25.385"
           r="0.64999998"
           id="circle67" /></g><g
         style="fill:none;stroke:#000000;stroke-width:0.05;stroke-linecap:round;stroke-linejoin:round;stroke-opacity:1"
         id="g74"><circle
           cx="74.955002"
           cy="58.445"
           r="2.8397999"
           id="circle68" /><circle
           cx="5.105"
           cy="58.445"
           r="2.8397999"
           id="circle69" /><circle
           cx="5.105"
           cy="5.105"
           r="2.8397999"
           id="circle70" /><circle
           cx="74.955002"
           cy="5.105"
           r="2.8397999"
           id="circle71" /><path
           d="M 0.025,63.525 V 0.025"
           id="path71" /><path
           d="M 80.035,63.525 H 0.025"
           id="path72" /><path
           d="m 80.035,0.025 v 63.5"
           id="path73" /><path
           d="m 0.025,0.025 h 80.01"
           id="path74" /></g></g></g></svg>
