<?xml version="1.0" standalone="no"?>
 <!DOCTYPE svg PUBLIC "-//W3C//DTD SVG 1.1//EN" 
 "http://www.w3.org/Graphics/SVG/1.1/DTD/svg11.dtd"> 
<svg
  xmlns:svg="http://www.w3.org/2000/svg"
  xmlns="http://www.w3.org/2000/svg"
  xmlns:xlink="http://www.w3.org/1999/xlink"
  version="1.1"
  width="80.0354mm" height="63.5254mm" viewBox="0.0000 0.0000 80.0354 63.5254">
<title>SVG Image created as multi-channel-preamp-output-F_Fab.svg date 2024/06/14 20:36:37 </title>
  <desc>Image generated by PCBNEW </desc>
<g style="fill:#000000; fill-opacity:1.0000;stroke:#000000; stroke-opacity:1.0000;
stroke-linecap:round; stroke-linejoin:round;"
 transform="translate(0 0) scale(1 1)">
</g>
<g style="fill:none; 
stroke:#000000; stroke-width:0.1500; stroke-opacity:1; 
stroke-linecap:round; stroke-linejoin:round;">
<text x="59.7150" y="56.7850"
textLength="5.5833" font-size="1.3333" lengthAdjust="spacingAndGlyphs"
text-anchor="middle" opacity="0">2.2M Q</text>
<g class="stroked-text"><desc>2.2M Q</desc>
<path d="M57.2388 55.8351
L57.2864 55.7874
" />
<path d="M57.2864 55.7874
L57.3817 55.7398
" />
<path d="M57.3817 55.7398
L57.6198 55.7398
" />
<path d="M57.6198 55.7398
L57.7150 55.7874
" />
<path d="M57.7150 55.7874
L57.7626 55.8351
" />
<path d="M57.7626 55.8351
L57.8102 55.9303
" />
<path d="M57.8102 55.9303
L57.8102 56.0255
" />
<path d="M57.8102 56.0255
L57.7626 56.1684
" />
<path d="M57.7626 56.1684
L57.1912 56.7398
" />
<path d="M57.1912 56.7398
L57.8102 56.7398
" />
<path d="M58.2388 56.6446
L58.2864 56.6922
" />
<path d="M58.2864 56.6922
L58.2388 56.7398
" />
<path d="M58.2388 56.7398
L58.1912 56.6922
" />
<path d="M58.1912 56.6922
L58.2388 56.6446
" />
<path d="M58.2388 56.6446
L58.2388 56.7398
" />
<path d="M58.6674 55.8351
L58.7150 55.7874
" />
<path d="M58.7150 55.7874
L58.8102 55.7398
" />
<path d="M58.8102 55.7398
L59.0483 55.7398
" />
<path d="M59.0483 55.7398
L59.1436 55.7874
" />
<path d="M59.1436 55.7874
L59.1912 55.8351
" />
<path d="M59.1912 55.8351
L59.2388 55.9303
" />
<path d="M59.2388 55.9303
L59.2388 56.0255
" />
<path d="M59.2388 56.0255
L59.1912 56.1684
" />
<path d="M59.1912 56.1684
L58.6198 56.7398
" />
<path d="M58.6198 56.7398
L59.2388 56.7398
" />
<path d="M59.6674 56.7398
L59.6674 55.7398
" />
<path d="M59.6674 55.7398
L60.0007 56.4541
" />
<path d="M60.0007 56.4541
L60.3340 55.7398
" />
<path d="M60.3340 55.7398
L60.3340 56.7398
" />
<path d="M62.2388 56.8351
L62.1436 56.7874
" />
<path d="M62.1436 56.7874
L62.0483 56.6922
" />
<path d="M62.0483 56.6922
L61.9055 56.5493
" />
<path d="M61.9055 56.5493
L61.8102 56.5017
" />
<path d="M61.8102 56.5017
L61.7150 56.5017
" />
<path d="M61.7626 56.7398
L61.6674 56.6922
" />
<path d="M61.6674 56.6922
L61.5721 56.5970
" />
<path d="M61.5721 56.5970
L61.5245 56.4065
" />
<path d="M61.5245 56.4065
L61.5245 56.0732
" />
<path d="M61.5245 56.0732
L61.5721 55.8827
" />
<path d="M61.5721 55.8827
L61.6674 55.7874
" />
<path d="M61.6674 55.7874
L61.7626 55.7398
" />
<path d="M61.7626 55.7398
L61.9531 55.7398
" />
<path d="M61.9531 55.7398
L62.0483 55.7874
" />
<path d="M62.0483 55.7874
L62.1436 55.8827
" />
<path d="M62.1436 55.8827
L62.1912 56.0732
" />
<path d="M62.1912 56.0732
L62.1912 56.4065
" />
<path d="M62.1912 56.4065
L62.1436 56.5970
" />
<path d="M62.1436 56.5970
L62.0483 56.6922
" />
<path d="M62.0483 56.6922
L61.9531 56.7398
" />
<path d="M61.9531 56.7398
L61.7626 56.7398
" />
</g><text x="59.7150" y="53.8650"
textLength="2.2024" font-size="1.3333" lengthAdjust="spacingAndGlyphs"
text-anchor="middle" opacity="0">R4</text>
<g class="stroked-text"><desc>R4</desc>
<path d="M59.5483 53.8198
L59.2150 53.3436
" />
<path d="M58.9769 53.8198
L58.9769 52.8198
" />
<path d="M58.9769 52.8198
L59.3579 52.8198
" />
<path d="M59.3579 52.8198
L59.4531 52.8674
" />
<path d="M59.4531 52.8674
L59.5007 52.9151
" />
<path d="M59.5007 52.9151
L59.5483 53.0103
" />
<path d="M59.5483 53.0103
L59.5483 53.1532
" />
<path d="M59.5483 53.1532
L59.5007 53.2484
" />
<path d="M59.5007 53.2484
L59.4531 53.2960
" />
<path d="M59.4531 53.2960
L59.3579 53.3436
" />
<path d="M59.3579 53.3436
L58.9769 53.3436
" />
<path d="M60.4055 53.1532
L60.4055 53.8198
" />
<path d="M60.1674 52.7722
L59.9293 53.4865
" />
<path d="M59.9293 53.4865
L60.5483 53.4865
" />
</g><g transform="rotate(-90.000000 21.9950 33.0450)">
<text x="21.9950" y="33.5450"
textLength="5.5833" font-size="1.3333" lengthAdjust="spacingAndGlyphs"
text-anchor="middle" opacity="0">2.2M Q</text>
</g>
<g class="stroked-text"><desc>2.2M Q</desc>
<path d="M21.5451 35.5212
L21.4974 35.4736
" />
<path d="M21.4974 35.4736
L21.4498 35.3783
" />
<path d="M21.4498 35.3783
L21.4498 35.1402
" />
<path d="M21.4498 35.1402
L21.4974 35.0450
" />
<path d="M21.4974 35.0450
L21.5451 34.9974
" />
<path d="M21.5451 34.9974
L21.6403 34.9498
" />
<path d="M21.6403 34.9498
L21.7355 34.9498
" />
<path d="M21.7355 34.9498
L21.8784 34.9974
" />
<path d="M21.8784 34.9974
L22.4498 35.5688
" />
<path d="M22.4498 35.5688
L22.4498 34.9498
" />
<path d="M22.3546 34.5212
L22.4022 34.4736
" />
<path d="M22.4022 34.4736
L22.4498 34.5212
" />
<path d="M22.4498 34.5212
L22.4022 34.5688
" />
<path d="M22.4022 34.5688
L22.3546 34.5212
" />
<path d="M22.3546 34.5212
L22.4498 34.5212
" />
<path d="M21.5451 34.0926
L21.4974 34.0450
" />
<path d="M21.4974 34.0450
L21.4498 33.9498
" />
<path d="M21.4498 33.9498
L21.4498 33.7117
" />
<path d="M21.4498 33.7117
L21.4974 33.6164
" />
<path d="M21.4974 33.6164
L21.5451 33.5688
" />
<path d="M21.5451 33.5688
L21.6403 33.5212
" />
<path d="M21.6403 33.5212
L21.7355 33.5212
" />
<path d="M21.7355 33.5212
L21.8784 33.5688
" />
<path d="M21.8784 33.5688
L22.4498 34.1402
" />
<path d="M22.4498 34.1402
L22.4498 33.5212
" />
<path d="M22.4498 33.0926
L21.4498 33.0926
" />
<path d="M21.4498 33.0926
L22.1641 32.7593
" />
<path d="M22.1641 32.7593
L21.4498 32.4260
" />
<path d="M21.4498 32.4260
L22.4498 32.4260
" />
<path d="M22.5451 30.5212
L22.4974 30.6164
" />
<path d="M22.4974 30.6164
L22.4022 30.7117
" />
<path d="M22.4022 30.7117
L22.2593 30.8545
" />
<path d="M22.2593 30.8545
L22.2117 30.9498
" />
<path d="M22.2117 30.9498
L22.2117 31.0450
" />
<path d="M22.4498 30.9974
L22.4022 31.0926
" />
<path d="M22.4022 31.0926
L22.3070 31.1879
" />
<path d="M22.3070 31.1879
L22.1165 31.2355
" />
<path d="M22.1165 31.2355
L21.7832 31.2355
" />
<path d="M21.7832 31.2355
L21.5927 31.1879
" />
<path d="M21.5927 31.1879
L21.4974 31.0926
" />
<path d="M21.4974 31.0926
L21.4498 30.9974
" />
<path d="M21.4498 30.9974
L21.4498 30.8069
" />
<path d="M21.4498 30.8069
L21.4974 30.7117
" />
<path d="M21.4974 30.7117
L21.5927 30.6164
" />
<path d="M21.5927 30.6164
L21.7832 30.5688
" />
<path d="M21.7832 30.5688
L22.1165 30.5688
" />
<path d="M22.1165 30.5688
L22.3070 30.6164
" />
<path d="M22.3070 30.6164
L22.4022 30.7117
" />
<path d="M22.4022 30.7117
L22.4498 30.8069
" />
<path d="M22.4498 30.8069
L22.4498 30.9974
" />
</g><g transform="rotate(-90.000000 19.0750 33.0450)">
<text x="19.0750" y="33.5450"
textLength="2.2024" font-size="1.3333" lengthAdjust="spacingAndGlyphs"
text-anchor="middle" opacity="0">R3</text>
</g>
<g class="stroked-text"><desc>R3</desc>
<path d="M19.5298 33.2117
L19.0536 33.5450
" />
<path d="M19.5298 33.7831
L18.5298 33.7831
" />
<path d="M18.5298 33.7831
L18.5298 33.4021
" />
<path d="M18.5298 33.4021
L18.5774 33.3069
" />
<path d="M18.5774 33.3069
L18.6251 33.2593
" />
<path d="M18.6251 33.2593
L18.7203 33.2117
" />
<path d="M18.7203 33.2117
L18.8632 33.2117
" />
<path d="M18.8632 33.2117
L18.9584 33.2593
" />
<path d="M18.9584 33.2593
L19.0060 33.3069
" />
<path d="M19.0060 33.3069
L19.0536 33.4021
" />
<path d="M19.0536 33.4021
L19.0536 33.7831
" />
<path d="M18.5298 32.8783
L18.5298 32.2593
" />
<path d="M18.5298 32.2593
L18.9108 32.5926
" />
<path d="M18.9108 32.5926
L18.9108 32.4498
" />
<path d="M18.9108 32.4498
L18.9584 32.3545
" />
<path d="M18.9584 32.3545
L19.0060 32.3069
" />
<path d="M19.0060 32.3069
L19.1012 32.2593
" />
<path d="M19.1012 32.2593
L19.3393 32.2593
" />
<path d="M19.3393 32.2593
L19.4346 32.3069
" />
<path d="M19.4346 32.3069
L19.4822 32.3545
" />
<path d="M19.4822 32.3545
L19.5298 32.4498
" />
<path d="M19.5298 32.4498
L19.5298 32.7355
" />
<path d="M19.5298 32.7355
L19.4822 32.8307
" />
<path d="M19.4822 32.8307
L19.4346 32.8783
" />
</g><g transform="rotate(-90.000000 14.3750 33.0450)">
<text x="14.3750" y="33.5450"
textLength="5.9167" font-size="1.3333" lengthAdjust="spacingAndGlyphs"
text-anchor="middle" opacity="0">499R H</text>
</g>
<g class="stroked-text"><desc>499R H</desc>
<path d="M14.1632 35.2117
L14.8298 35.2117
" />
<path d="M13.7822 35.4498
L14.4965 35.6879
" />
<path d="M14.4965 35.6879
L14.4965 35.0688
" />
<path d="M14.8298 34.6402
L14.8298 34.4498
" />
<path d="M14.8298 34.4498
L14.7822 34.3545
" />
<path d="M14.7822 34.3545
L14.7346 34.3069
" />
<path d="M14.7346 34.3069
L14.5917 34.2117
" />
<path d="M14.5917 34.2117
L14.4012 34.1640
" />
<path d="M14.4012 34.1640
L14.0203 34.1640
" />
<path d="M14.0203 34.1640
L13.9251 34.2117
" />
<path d="M13.9251 34.2117
L13.8774 34.2593
" />
<path d="M13.8774 34.2593
L13.8298 34.3545
" />
<path d="M13.8298 34.3545
L13.8298 34.5450
" />
<path d="M13.8298 34.5450
L13.8774 34.6402
" />
<path d="M13.8774 34.6402
L13.9251 34.6879
" />
<path d="M13.9251 34.6879
L14.0203 34.7355
" />
<path d="M14.0203 34.7355
L14.2584 34.7355
" />
<path d="M14.2584 34.7355
L14.3536 34.6879
" />
<path d="M14.3536 34.6879
L14.4012 34.6402
" />
<path d="M14.4012 34.6402
L14.4489 34.5450
" />
<path d="M14.4489 34.5450
L14.4489 34.3545
" />
<path d="M14.4489 34.3545
L14.4012 34.2593
" />
<path d="M14.4012 34.2593
L14.3536 34.2117
" />
<path d="M14.3536 34.2117
L14.2584 34.1640
" />
<path d="M14.8298 33.6879
L14.8298 33.4974
" />
<path d="M14.8298 33.4974
L14.7822 33.4021
" />
<path d="M14.7822 33.4021
L14.7346 33.3545
" />
<path d="M14.7346 33.3545
L14.5917 33.2593
" />
<path d="M14.5917 33.2593
L14.4012 33.2117
" />
<path d="M14.4012 33.2117
L14.0203 33.2117
" />
<path d="M14.0203 33.2117
L13.9251 33.2593
" />
<path d="M13.9251 33.2593
L13.8774 33.3069
" />
<path d="M13.8774 33.3069
L13.8298 33.4021
" />
<path d="M13.8298 33.4021
L13.8298 33.5926
" />
<path d="M13.8298 33.5926
L13.8774 33.6879
" />
<path d="M13.8774 33.6879
L13.9251 33.7355
" />
<path d="M13.9251 33.7355
L14.0203 33.7831
" />
<path d="M14.0203 33.7831
L14.2584 33.7831
" />
<path d="M14.2584 33.7831
L14.3536 33.7355
" />
<path d="M14.3536 33.7355
L14.4012 33.6879
" />
<path d="M14.4012 33.6879
L14.4489 33.5926
" />
<path d="M14.4489 33.5926
L14.4489 33.4021
" />
<path d="M14.4489 33.4021
L14.4012 33.3069
" />
<path d="M14.4012 33.3069
L14.3536 33.2593
" />
<path d="M14.3536 33.2593
L14.2584 33.2117
" />
<path d="M14.8298 32.2117
L14.3536 32.5450
" />
<path d="M14.8298 32.7831
L13.8298 32.7831
" />
<path d="M13.8298 32.7831
L13.8298 32.4021
" />
<path d="M13.8298 32.4021
L13.8774 32.3069
" />
<path d="M13.8774 32.3069
L13.9251 32.2593
" />
<path d="M13.9251 32.2593
L14.0203 32.2117
" />
<path d="M14.0203 32.2117
L14.1632 32.2117
" />
<path d="M14.1632 32.2117
L14.2584 32.2593
" />
<path d="M14.2584 32.2593
L14.3060 32.3069
" />
<path d="M14.3060 32.3069
L14.3536 32.4021
" />
<path d="M14.3536 32.4021
L14.3536 32.7831
" />
<path d="M14.8298 31.0212
L13.8298 31.0212
" />
<path d="M14.3060 31.0212
L14.3060 30.4498
" />
<path d="M14.8298 30.4498
L13.8298 30.4498
" />
</g><g transform="rotate(-90.000000 11.4550 33.0450)">
<text x="11.4550" y="33.5450"
textLength="2.2024" font-size="1.3333" lengthAdjust="spacingAndGlyphs"
text-anchor="middle" opacity="0">R2</text>
</g>
<g class="stroked-text"><desc>R2</desc>
<path d="M11.9098 33.2117
L11.4336 33.5450
" />
<path d="M11.9098 33.7831
L10.9098 33.7831
" />
<path d="M10.9098 33.7831
L10.9098 33.4021
" />
<path d="M10.9098 33.4021
L10.9574 33.3069
" />
<path d="M10.9574 33.3069
L11.0051 33.2593
" />
<path d="M11.0051 33.2593
L11.1003 33.2117
" />
<path d="M11.1003 33.2117
L11.2432 33.2117
" />
<path d="M11.2432 33.2117
L11.3384 33.2593
" />
<path d="M11.3384 33.2593
L11.3860 33.3069
" />
<path d="M11.3860 33.3069
L11.4336 33.4021
" />
<path d="M11.4336 33.4021
L11.4336 33.7831
" />
<path d="M11.0051 32.8307
L10.9574 32.7831
" />
<path d="M10.9574 32.7831
L10.9098 32.6879
" />
<path d="M10.9098 32.6879
L10.9098 32.4498
" />
<path d="M10.9098 32.4498
L10.9574 32.3545
" />
<path d="M10.9574 32.3545
L11.0051 32.3069
" />
<path d="M11.0051 32.3069
L11.1003 32.2593
" />
<path d="M11.1003 32.2593
L11.1955 32.2593
" />
<path d="M11.1955 32.2593
L11.3384 32.3069
" />
<path d="M11.3384 32.3069
L11.9098 32.8783
" />
<path d="M11.9098 32.8783
L11.9098 32.2593
" />
</g><text x="38.1250" y="14.8750"
textLength="6.3929" font-size="1.3333" lengthAdjust="spacingAndGlyphs"
text-anchor="middle" opacity="0">4.99K H</text>
<g class="stroked-text"><desc>4.99K H</desc>
<path d="M35.7202 14.1632
L35.7202 14.8298
" />
<path d="M35.4821 13.7822
L35.2440 14.4965
" />
<path d="M35.2440 14.4965
L35.8631 14.4965
" />
<path d="M36.2440 14.7346
L36.2917 14.7822
" />
<path d="M36.2917 14.7822
L36.2440 14.8298
" />
<path d="M36.2440 14.8298
L36.1964 14.7822
" />
<path d="M36.1964 14.7822
L36.2440 14.7346
" />
<path d="M36.2440 14.7346
L36.2440 14.8298
" />
<path d="M36.7679 14.8298
L36.9583 14.8298
" />
<path d="M36.9583 14.8298
L37.0536 14.7822
" />
<path d="M37.0536 14.7822
L37.1012 14.7346
" />
<path d="M37.1012 14.7346
L37.1964 14.5917
" />
<path d="M37.1964 14.5917
L37.2440 14.4012
" />
<path d="M37.2440 14.4012
L37.2440 14.0203
" />
<path d="M37.2440 14.0203
L37.1964 13.9251
" />
<path d="M37.1964 13.9251
L37.1488 13.8774
" />
<path d="M37.1488 13.8774
L37.0536 13.8298
" />
<path d="M37.0536 13.8298
L36.8631 13.8298
" />
<path d="M36.8631 13.8298
L36.7679 13.8774
" />
<path d="M36.7679 13.8774
L36.7202 13.9251
" />
<path d="M36.7202 13.9251
L36.6726 14.0203
" />
<path d="M36.6726 14.0203
L36.6726 14.2584
" />
<path d="M36.6726 14.2584
L36.7202 14.3536
" />
<path d="M36.7202 14.3536
L36.7679 14.4012
" />
<path d="M36.7679 14.4012
L36.8631 14.4489
" />
<path d="M36.8631 14.4489
L37.0536 14.4489
" />
<path d="M37.0536 14.4489
L37.1488 14.4012
" />
<path d="M37.1488 14.4012
L37.1964 14.3536
" />
<path d="M37.1964 14.3536
L37.2440 14.2584
" />
<path d="M37.7202 14.8298
L37.9107 14.8298
" />
<path d="M37.9107 14.8298
L38.0060 14.7822
" />
<path d="M38.0060 14.7822
L38.0536 14.7346
" />
<path d="M38.0536 14.7346
L38.1488 14.5917
" />
<path d="M38.1488 14.5917
L38.1964 14.4012
" />
<path d="M38.1964 14.4012
L38.1964 14.0203
" />
<path d="M38.1964 14.0203
L38.1488 13.9251
" />
<path d="M38.1488 13.9251
L38.1012 13.8774
" />
<path d="M38.1012 13.8774
L38.0060 13.8298
" />
<path d="M38.0060 13.8298
L37.8155 13.8298
" />
<path d="M37.8155 13.8298
L37.7202 13.8774
" />
<path d="M37.7202 13.8774
L37.6726 13.9251
" />
<path d="M37.6726 13.9251
L37.6250 14.0203
" />
<path d="M37.6250 14.0203
L37.6250 14.2584
" />
<path d="M37.6250 14.2584
L37.6726 14.3536
" />
<path d="M37.6726 14.3536
L37.7202 14.4012
" />
<path d="M37.7202 14.4012
L37.8155 14.4489
" />
<path d="M37.8155 14.4489
L38.0060 14.4489
" />
<path d="M38.0060 14.4489
L38.1012 14.4012
" />
<path d="M38.1012 14.4012
L38.1488 14.3536
" />
<path d="M38.1488 14.3536
L38.1964 14.2584
" />
<path d="M38.6250 14.8298
L38.6250 13.8298
" />
<path d="M39.1964 14.8298
L38.7679 14.2584
" />
<path d="M39.1964 13.8298
L38.6250 14.4012
" />
<path d="M40.3869 14.8298
L40.3869 13.8298
" />
<path d="M40.3869 14.3060
L40.9583 14.3060
" />
<path d="M40.9583 14.8298
L40.9583 13.8298
" />
</g><text x="38.1250" y="11.9550"
textLength="2.2024" font-size="1.3333" lengthAdjust="spacingAndGlyphs"
text-anchor="middle" opacity="0">R1</text>
<g class="stroked-text"><desc>R1</desc>
<path d="M37.9583 11.9098
L37.6250 11.4336
" />
<path d="M37.3869 11.9098
L37.3869 10.9098
" />
<path d="M37.3869 10.9098
L37.7679 10.9098
" />
<path d="M37.7679 10.9098
L37.8631 10.9574
" />
<path d="M37.8631 10.9574
L37.9107 11.0051
" />
<path d="M37.9107 11.0051
L37.9583 11.1003
" />
<path d="M37.9583 11.1003
L37.9583 11.2432
" />
<path d="M37.9583 11.2432
L37.9107 11.3384
" />
<path d="M37.9107 11.3384
L37.8631 11.3860
" />
<path d="M37.8631 11.3860
L37.7679 11.4336
" />
<path d="M37.7679 11.4336
L37.3869 11.4336
" />
<path d="M38.9107 11.9098
L38.3393 11.9098
" />
<path d="M38.6250 11.9098
L38.6250 10.9098
" />
<path d="M38.6250 10.9098
L38.5298 11.0527
" />
<path d="M38.5298 11.0527
L38.4345 11.1479
" />
<path d="M38.4345 11.1479
L38.3393 11.1955
" />
</g><text x="38.1250" y="48.4950"
textLength="8.8690" font-size="1.3333" lengthAdjust="spacingAndGlyphs"
text-anchor="middle" opacity="0">0.1uF 250V</text>
<g class="stroked-text"><desc>0.1uF 250V</desc>
<path d="M34.2440 47.4498
L34.3393 47.4498
" />
<path d="M34.3393 47.4498
L34.4345 47.4974
" />
<path d="M34.4345 47.4974
L34.4821 47.5451
" />
<path d="M34.4821 47.5451
L34.5298 47.6403
" />
<path d="M34.5298 47.6403
L34.5774 47.8308
" />
<path d="M34.5774 47.8308
L34.5774 48.0689
" />
<path d="M34.5774 48.0689
L34.5298 48.2593
" />
<path d="M34.5298 48.2593
L34.4821 48.3546
" />
<path d="M34.4821 48.3546
L34.4345 48.4022
" />
<path d="M34.4345 48.4022
L34.3393 48.4498
" />
<path d="M34.3393 48.4498
L34.2440 48.4498
" />
<path d="M34.2440 48.4498
L34.1488 48.4022
" />
<path d="M34.1488 48.4022
L34.1012 48.3546
" />
<path d="M34.1012 48.3546
L34.0536 48.2593
" />
<path d="M34.0536 48.2593
L34.0060 48.0689
" />
<path d="M34.0060 48.0689
L34.0060 47.8308
" />
<path d="M34.0060 47.8308
L34.0536 47.6403
" />
<path d="M34.0536 47.6403
L34.1012 47.5451
" />
<path d="M34.1012 47.5451
L34.1488 47.4974
" />
<path d="M34.1488 47.4974
L34.2440 47.4498
" />
<path d="M35.0060 48.3546
L35.0536 48.4022
" />
<path d="M35.0536 48.4022
L35.0060 48.4498
" />
<path d="M35.0060 48.4498
L34.9583 48.4022
" />
<path d="M34.9583 48.4022
L35.0060 48.3546
" />
<path d="M35.0060 48.3546
L35.0060 48.4498
" />
<path d="M36.0060 48.4498
L35.4345 48.4498
" />
<path d="M35.7202 48.4498
L35.7202 47.4498
" />
<path d="M35.7202 47.4498
L35.6250 47.5927
" />
<path d="M35.6250 47.5927
L35.5298 47.6879
" />
<path d="M35.5298 47.6879
L35.4345 47.7355
" />
<path d="M36.8631 47.7832
L36.8631 48.4498
" />
<path d="M36.4345 47.7832
L36.4345 48.3070
" />
<path d="M36.4345 48.3070
L36.4821 48.4022
" />
<path d="M36.4821 48.4022
L36.5774 48.4498
" />
<path d="M36.5774 48.4498
L36.7202 48.4498
" />
<path d="M36.7202 48.4498
L36.8155 48.4022
" />
<path d="M36.8155 48.4022
L36.8631 48.3546
" />
<path d="M37.6726 47.9260
L37.3393 47.9260
" />
<path d="M37.3393 48.4498
L37.3393 47.4498
" />
<path d="M37.3393 47.4498
L37.8155 47.4498
" />
<path d="M38.9107 47.5451
L38.9583 47.4974
" />
<path d="M38.9583 47.4974
L39.0536 47.4498
" />
<path d="M39.0536 47.4498
L39.2917 47.4498
" />
<path d="M39.2917 47.4498
L39.3869 47.4974
" />
<path d="M39.3869 47.4974
L39.4345 47.5451
" />
<path d="M39.4345 47.5451
L39.4821 47.6403
" />
<path d="M39.4821 47.6403
L39.4821 47.7355
" />
<path d="M39.4821 47.7355
L39.4345 47.8784
" />
<path d="M39.4345 47.8784
L38.8631 48.4498
" />
<path d="M38.8631 48.4498
L39.4821 48.4498
" />
<path d="M40.3869 47.4498
L39.9107 47.4498
" />
<path d="M39.9107 47.4498
L39.8631 47.9260
" />
<path d="M39.8631 47.9260
L39.9107 47.8784
" />
<path d="M39.9107 47.8784
L40.0060 47.8308
" />
<path d="M40.0060 47.8308
L40.2440 47.8308
" />
<path d="M40.2440 47.8308
L40.3393 47.8784
" />
<path d="M40.3393 47.8784
L40.3869 47.9260
" />
<path d="M40.3869 47.9260
L40.4345 48.0212
" />
<path d="M40.4345 48.0212
L40.4345 48.2593
" />
<path d="M40.4345 48.2593
L40.3869 48.3546
" />
<path d="M40.3869 48.3546
L40.3393 48.4022
" />
<path d="M40.3393 48.4022
L40.2440 48.4498
" />
<path d="M40.2440 48.4498
L40.0060 48.4498
" />
<path d="M40.0060 48.4498
L39.9107 48.4022
" />
<path d="M39.9107 48.4022
L39.8631 48.3546
" />
<path d="M41.0536 47.4498
L41.1488 47.4498
" />
<path d="M41.1488 47.4498
L41.2440 47.4974
" />
<path d="M41.2440 47.4974
L41.2917 47.5451
" />
<path d="M41.2917 47.5451
L41.3393 47.6403
" />
<path d="M41.3393 47.6403
L41.3869 47.8308
" />
<path d="M41.3869 47.8308
L41.3869 48.0689
" />
<path d="M41.3869 48.0689
L41.3393 48.2593
" />
<path d="M41.3393 48.2593
L41.2917 48.3546
" />
<path d="M41.2917 48.3546
L41.2440 48.4022
" />
<path d="M41.2440 48.4022
L41.1488 48.4498
" />
<path d="M41.1488 48.4498
L41.0536 48.4498
" />
<path d="M41.0536 48.4498
L40.9583 48.4022
" />
<path d="M40.9583 48.4022
L40.9107 48.3546
" />
<path d="M40.9107 48.3546
L40.8631 48.2593
" />
<path d="M40.8631 48.2593
L40.8155 48.0689
" />
<path d="M40.8155 48.0689
L40.8155 47.8308
" />
<path d="M40.8155 47.8308
L40.8631 47.6403
" />
<path d="M40.8631 47.6403
L40.9107 47.5451
" />
<path d="M40.9107 47.5451
L40.9583 47.4974
" />
<path d="M40.9583 47.4974
L41.0536 47.4498
" />
<path d="M41.6726 47.4498
L42.0060 48.4498
" />
<path d="M42.0060 48.4498
L42.3393 47.4498
" />
</g><text x="38.1250" y="53.8650"
textLength="2.2024" font-size="1.3333" lengthAdjust="spacingAndGlyphs"
text-anchor="middle" opacity="0">C2</text>
<g class="stroked-text"><desc>C2</desc>
<path d="M37.9583 53.7246
L37.9107 53.7722
" />
<path d="M37.9107 53.7722
L37.7679 53.8198
" />
<path d="M37.7679 53.8198
L37.6726 53.8198
" />
<path d="M37.6726 53.8198
L37.5298 53.7722
" />
<path d="M37.5298 53.7722
L37.4345 53.6770
" />
<path d="M37.4345 53.6770
L37.3869 53.5817
" />
<path d="M37.3869 53.5817
L37.3393 53.3912
" />
<path d="M37.3393 53.3912
L37.3393 53.2484
" />
<path d="M37.3393 53.2484
L37.3869 53.0579
" />
<path d="M37.3869 53.0579
L37.4345 52.9627
" />
<path d="M37.4345 52.9627
L37.5298 52.8674
" />
<path d="M37.5298 52.8674
L37.6726 52.8198
" />
<path d="M37.6726 52.8198
L37.7679 52.8198
" />
<path d="M37.7679 52.8198
L37.9107 52.8674
" />
<path d="M37.9107 52.8674
L37.9583 52.9151
" />
<path d="M38.3393 52.9151
L38.3869 52.8674
" />
<path d="M38.3869 52.8674
L38.4821 52.8198
" />
<path d="M38.4821 52.8198
L38.7202 52.8198
" />
<path d="M38.7202 52.8198
L38.8155 52.8674
" />
<path d="M38.8155 52.8674
L38.8631 52.9151
" />
<path d="M38.8631 52.9151
L38.9107 53.0103
" />
<path d="M38.9107 53.0103
L38.9107 53.1055
" />
<path d="M38.9107 53.1055
L38.8631 53.2484
" />
<path d="M38.8631 53.2484
L38.2917 53.8198
" />
<path d="M38.2917 53.8198
L38.9107 53.8198
" />
</g><g transform="rotate(-90.000000 54.3450 39.5150)">
<text x="54.3450" y="40.0150"
textLength="8.8690" font-size="1.3333" lengthAdjust="spacingAndGlyphs"
text-anchor="middle" opacity="0">2.2uF 250V</text>
</g>
<g class="stroked-text"><desc>2.2uF 250V</desc>
<path d="M53.8951 43.6340
L53.8474 43.5864
" />
<path d="M53.8474 43.5864
L53.7998 43.4912
" />
<path d="M53.7998 43.4912
L53.7998 43.2531
" />
<path d="M53.7998 43.2531
L53.8474 43.1579
" />
<path d="M53.8474 43.1579
L53.8951 43.1102
" />
<path d="M53.8951 43.1102
L53.9903 43.0626
" />
<path d="M53.9903 43.0626
L54.0855 43.0626
" />
<path d="M54.0855 43.0626
L54.2284 43.1102
" />
<path d="M54.2284 43.1102
L54.7998 43.6817
" />
<path d="M54.7998 43.6817
L54.7998 43.0626
" />
<path d="M54.7046 42.6340
L54.7522 42.5864
" />
<path d="M54.7522 42.5864
L54.7998 42.6340
" />
<path d="M54.7998 42.6340
L54.7522 42.6817
" />
<path d="M54.7522 42.6817
L54.7046 42.6340
" />
<path d="M54.7046 42.6340
L54.7998 42.6340
" />
<path d="M53.8951 42.2055
L53.8474 42.1579
" />
<path d="M53.8474 42.1579
L53.7998 42.0626
" />
<path d="M53.7998 42.0626
L53.7998 41.8245
" />
<path d="M53.7998 41.8245
L53.8474 41.7293
" />
<path d="M53.8474 41.7293
L53.8951 41.6817
" />
<path d="M53.8951 41.6817
L53.9903 41.6340
" />
<path d="M53.9903 41.6340
L54.0855 41.6340
" />
<path d="M54.0855 41.6340
L54.2284 41.6817
" />
<path d="M54.2284 41.6817
L54.7998 42.2531
" />
<path d="M54.7998 42.2531
L54.7998 41.6340
" />
<path d="M54.1332 40.7769
L54.7998 40.7769
" />
<path d="M54.1332 41.2055
L54.6570 41.2055
" />
<path d="M54.6570 41.2055
L54.7522 41.1579
" />
<path d="M54.7522 41.1579
L54.7998 41.0626
" />
<path d="M54.7998 41.0626
L54.7998 40.9198
" />
<path d="M54.7998 40.9198
L54.7522 40.8245
" />
<path d="M54.7522 40.8245
L54.7046 40.7769
" />
<path d="M54.2760 39.9674
L54.2760 40.3007
" />
<path d="M54.7998 40.3007
L53.7998 40.3007
" />
<path d="M53.7998 40.3007
L53.7998 39.8245
" />
<path d="M53.8951 38.7293
L53.8474 38.6817
" />
<path d="M53.8474 38.6817
L53.7998 38.5864
" />
<path d="M53.7998 38.5864
L53.7998 38.3483
" />
<path d="M53.7998 38.3483
L53.8474 38.2531
" />
<path d="M53.8474 38.2531
L53.8951 38.2055
" />
<path d="M53.8951 38.2055
L53.9903 38.1579
" />
<path d="M53.9903 38.1579
L54.0855 38.1579
" />
<path d="M54.0855 38.1579
L54.2284 38.2055
" />
<path d="M54.2284 38.2055
L54.7998 38.7769
" />
<path d="M54.7998 38.7769
L54.7998 38.1579
" />
<path d="M53.7998 37.2531
L53.7998 37.7293
" />
<path d="M53.7998 37.7293
L54.2760 37.7769
" />
<path d="M54.2760 37.7769
L54.2284 37.7293
" />
<path d="M54.2284 37.7293
L54.1808 37.6340
" />
<path d="M54.1808 37.6340
L54.1808 37.3960
" />
<path d="M54.1808 37.3960
L54.2284 37.3007
" />
<path d="M54.2284 37.3007
L54.2760 37.2531
" />
<path d="M54.2760 37.2531
L54.3712 37.2055
" />
<path d="M54.3712 37.2055
L54.6093 37.2055
" />
<path d="M54.6093 37.2055
L54.7046 37.2531
" />
<path d="M54.7046 37.2531
L54.7522 37.3007
" />
<path d="M54.7522 37.3007
L54.7998 37.3960
" />
<path d="M54.7998 37.3960
L54.7998 37.6340
" />
<path d="M54.7998 37.6340
L54.7522 37.7293
" />
<path d="M54.7522 37.7293
L54.7046 37.7769
" />
<path d="M53.7998 36.5864
L53.7998 36.4912
" />
<path d="M53.7998 36.4912
L53.8474 36.3960
" />
<path d="M53.8474 36.3960
L53.8951 36.3483
" />
<path d="M53.8951 36.3483
L53.9903 36.3007
" />
<path d="M53.9903 36.3007
L54.1808 36.2531
" />
<path d="M54.1808 36.2531
L54.4189 36.2531
" />
<path d="M54.4189 36.2531
L54.6093 36.3007
" />
<path d="M54.6093 36.3007
L54.7046 36.3483
" />
<path d="M54.7046 36.3483
L54.7522 36.3960
" />
<path d="M54.7522 36.3960
L54.7998 36.4912
" />
<path d="M54.7998 36.4912
L54.7998 36.5864
" />
<path d="M54.7998 36.5864
L54.7522 36.6817
" />
<path d="M54.7522 36.6817
L54.7046 36.7293
" />
<path d="M54.7046 36.7293
L54.6093 36.7769
" />
<path d="M54.6093 36.7769
L54.4189 36.8245
" />
<path d="M54.4189 36.8245
L54.1808 36.8245
" />
<path d="M54.1808 36.8245
L53.9903 36.7769
" />
<path d="M53.9903 36.7769
L53.8951 36.7293
" />
<path d="M53.8951 36.7293
L53.8474 36.6817
" />
<path d="M53.8474 36.6817
L53.7998 36.5864
" />
<path d="M53.7998 35.9674
L54.7998 35.6340
" />
<path d="M54.7998 35.6340
L53.7998 35.3007
" />
</g><g transform="rotate(-90.000000 59.7150 39.5150)">
<text x="59.7150" y="40.0150"
textLength="2.2024" font-size="1.3333" lengthAdjust="spacingAndGlyphs"
text-anchor="middle" opacity="0">C1</text>
</g>
<g class="stroked-text"><desc>C1</desc>
<path d="M60.0746 39.6817
L60.1222 39.7293
" />
<path d="M60.1222 39.7293
L60.1698 39.8721
" />
<path d="M60.1698 39.8721
L60.1698 39.9674
" />
<path d="M60.1698 39.9674
L60.1222 40.1102
" />
<path d="M60.1222 40.1102
L60.0270 40.2055
" />
<path d="M60.0270 40.2055
L59.9317 40.2531
" />
<path d="M59.9317 40.2531
L59.7412 40.3007
" />
<path d="M59.7412 40.3007
L59.5984 40.3007
" />
<path d="M59.5984 40.3007
L59.4079 40.2531
" />
<path d="M59.4079 40.2531
L59.3127 40.2055
" />
<path d="M59.3127 40.2055
L59.2174 40.1102
" />
<path d="M59.2174 40.1102
L59.1698 39.9674
" />
<path d="M59.1698 39.9674
L59.1698 39.8721
" />
<path d="M59.1698 39.8721
L59.2174 39.7293
" />
<path d="M59.2174 39.7293
L59.2651 39.6817
" />
<path d="M60.1698 38.7293
L60.1698 39.3007
" />
<path d="M60.1698 39.0150
L59.1698 39.0150
" />
<path d="M59.1698 39.0150
L59.3127 39.1102
" />
<path d="M59.3127 39.1102
L59.4079 39.2055
" />
<path d="M59.4079 39.2055
L59.4555 39.3007
" />
</g><text x="15.3050" y="59.5250"
textLength="10.8214" font-size="1.3333" lengthAdjust="spacingAndGlyphs"
text-anchor="middle" opacity="0">Heater Supply</text>
<g class="stroked-text"><desc>Heater Supply</desc>
<path d="M10.2574 59.4798
L10.2574 58.4798
" />
<path d="M10.2574 58.9560
L10.8288 58.9560
" />
<path d="M10.8288 59.4798
L10.8288 58.4798
" />
<path d="M11.6860 59.4322
L11.5907 59.4798
" />
<path d="M11.5907 59.4798
L11.4002 59.4798
" />
<path d="M11.4002 59.4798
L11.3050 59.4322
" />
<path d="M11.3050 59.4322
L11.2574 59.3370
" />
<path d="M11.2574 59.3370
L11.2574 58.9560
" />
<path d="M11.2574 58.9560
L11.3050 58.8608
" />
<path d="M11.3050 58.8608
L11.4002 58.8132
" />
<path d="M11.4002 58.8132
L11.5907 58.8132
" />
<path d="M11.5907 58.8132
L11.6860 58.8608
" />
<path d="M11.6860 58.8608
L11.7336 58.9560
" />
<path d="M11.7336 58.9560
L11.7336 59.0512
" />
<path d="M11.7336 59.0512
L11.2574 59.1465
" />
<path d="M12.5907 59.4798
L12.5907 58.9560
" />
<path d="M12.5907 58.9560
L12.5431 58.8608
" />
<path d="M12.5431 58.8608
L12.4479 58.8132
" />
<path d="M12.4479 58.8132
L12.2574 58.8132
" />
<path d="M12.2574 58.8132
L12.1621 58.8608
" />
<path d="M12.5907 59.4322
L12.4955 59.4798
" />
<path d="M12.4955 59.4798
L12.2574 59.4798
" />
<path d="M12.2574 59.4798
L12.1621 59.4322
" />
<path d="M12.1621 59.4322
L12.1145 59.3370
" />
<path d="M12.1145 59.3370
L12.1145 59.2417
" />
<path d="M12.1145 59.2417
L12.1621 59.1465
" />
<path d="M12.1621 59.1465
L12.2574 59.0989
" />
<path d="M12.2574 59.0989
L12.4955 59.0989
" />
<path d="M12.4955 59.0989
L12.5907 59.0512
" />
<path d="M12.9240 58.8132
L13.3050 58.8132
" />
<path d="M13.0669 58.4798
L13.0669 59.3370
" />
<path d="M13.0669 59.3370
L13.1145 59.4322
" />
<path d="M13.1145 59.4322
L13.2098 59.4798
" />
<path d="M13.2098 59.4798
L13.3050 59.4798
" />
<path d="M14.0193 59.4322
L13.9240 59.4798
" />
<path d="M13.9240 59.4798
L13.7336 59.4798
" />
<path d="M13.7336 59.4798
L13.6383 59.4322
" />
<path d="M13.6383 59.4322
L13.5907 59.3370
" />
<path d="M13.5907 59.3370
L13.5907 58.9560
" />
<path d="M13.5907 58.9560
L13.6383 58.8608
" />
<path d="M13.6383 58.8608
L13.7336 58.8132
" />
<path d="M13.7336 58.8132
L13.9240 58.8132
" />
<path d="M13.9240 58.8132
L14.0193 58.8608
" />
<path d="M14.0193 58.8608
L14.0669 58.9560
" />
<path d="M14.0669 58.9560
L14.0669 59.0512
" />
<path d="M14.0669 59.0512
L13.5907 59.1465
" />
<path d="M14.4955 59.4798
L14.4955 58.8132
" />
<path d="M14.4955 59.0036
L14.5431 58.9084
" />
<path d="M14.5431 58.9084
L14.5907 58.8608
" />
<path d="M14.5907 58.8608
L14.6860 58.8132
" />
<path d="M14.6860 58.8132
L14.7812 58.8132
" />
<path d="M15.8288 59.4322
L15.9717 59.4798
" />
<path d="M15.9717 59.4798
L16.2098 59.4798
" />
<path d="M16.2098 59.4798
L16.3050 59.4322
" />
<path d="M16.3050 59.4322
L16.3526 59.3846
" />
<path d="M16.3526 59.3846
L16.4002 59.2893
" />
<path d="M16.4002 59.2893
L16.4002 59.1941
" />
<path d="M16.4002 59.1941
L16.3526 59.0989
" />
<path d="M16.3526 59.0989
L16.3050 59.0512
" />
<path d="M16.3050 59.0512
L16.2098 59.0036
" />
<path d="M16.2098 59.0036
L16.0193 58.9560
" />
<path d="M16.0193 58.9560
L15.9240 58.9084
" />
<path d="M15.9240 58.9084
L15.8764 58.8608
" />
<path d="M15.8764 58.8608
L15.8288 58.7655
" />
<path d="M15.8288 58.7655
L15.8288 58.6703
" />
<path d="M15.8288 58.6703
L15.8764 58.5751
" />
<path d="M15.8764 58.5751
L15.9240 58.5274
" />
<path d="M15.9240 58.5274
L16.0193 58.4798
" />
<path d="M16.0193 58.4798
L16.2574 58.4798
" />
<path d="M16.2574 58.4798
L16.4002 58.5274
" />
<path d="M17.2574 58.8132
L17.2574 59.4798
" />
<path d="M16.8288 58.8132
L16.8288 59.3370
" />
<path d="M16.8288 59.3370
L16.8764 59.4322
" />
<path d="M16.8764 59.4322
L16.9717 59.4798
" />
<path d="M16.9717 59.4798
L17.1145 59.4798
" />
<path d="M17.1145 59.4798
L17.2098 59.4322
" />
<path d="M17.2098 59.4322
L17.2574 59.3846
" />
<path d="M17.7336 58.8132
L17.7336 59.8132
" />
<path d="M17.7336 58.8608
L17.8288 58.8132
" />
<path d="M17.8288 58.8132
L18.0193 58.8132
" />
<path d="M18.0193 58.8132
L18.1145 58.8608
" />
<path d="M18.1145 58.8608
L18.1621 58.9084
" />
<path d="M18.1621 58.9084
L18.2098 59.0036
" />
<path d="M18.2098 59.0036
L18.2098 59.2893
" />
<path d="M18.2098 59.2893
L18.1621 59.3846
" />
<path d="M18.1621 59.3846
L18.1145 59.4322
" />
<path d="M18.1145 59.4322
L18.0193 59.4798
" />
<path d="M18.0193 59.4798
L17.8288 59.4798
" />
<path d="M17.8288 59.4798
L17.7336 59.4322
" />
<path d="M18.6383 58.8132
L18.6383 59.8132
" />
<path d="M18.6383 58.8608
L18.7336 58.8132
" />
<path d="M18.7336 58.8132
L18.9240 58.8132
" />
<path d="M18.9240 58.8132
L19.0193 58.8608
" />
<path d="M19.0193 58.8608
L19.0669 58.9084
" />
<path d="M19.0669 58.9084
L19.1145 59.0036
" />
<path d="M19.1145 59.0036
L19.1145 59.2893
" />
<path d="M19.1145 59.2893
L19.0669 59.3846
" />
<path d="M19.0669 59.3846
L19.0193 59.4322
" />
<path d="M19.0193 59.4322
L18.9240 59.4798
" />
<path d="M18.9240 59.4798
L18.7336 59.4798
" />
<path d="M18.7336 59.4798
L18.6383 59.4322
" />
<path d="M19.6860 59.4798
L19.5907 59.4322
" />
<path d="M19.5907 59.4322
L19.5431 59.3370
" />
<path d="M19.5431 59.3370
L19.5431 58.4798
" />
<path d="M19.9717 58.8132
L20.2098 59.4798
" />
<path d="M20.4479 58.8132
L20.2098 59.4798
" />
<path d="M20.2098 59.4798
L20.1145 59.7179
" />
<path d="M20.1145 59.7179
L20.0669 59.7655
" />
<path d="M20.0669 59.7655
L19.9717 59.8132
" />
</g><text x="15.3050" y="57.0650"
textLength="1.9643" font-size="1.3333" lengthAdjust="spacingAndGlyphs"
text-anchor="middle" opacity="0">J1</text>
<g class="stroked-text"><desc>J1</desc>
<path d="M14.9717 56.0198
L14.9717 56.7341
" />
<path d="M14.9717 56.7341
L14.9240 56.8770
" />
<path d="M14.9240 56.8770
L14.8288 56.9722
" />
<path d="M14.8288 56.9722
L14.6860 57.0198
" />
<path d="M14.6860 57.0198
L14.5907 57.0198
" />
<path d="M15.9717 57.0198
L15.4002 57.0198
" />
<path d="M15.6860 57.0198
L15.6860 56.0198
" />
<path d="M15.6860 56.0198
L15.5907 56.1627
" />
<path d="M15.5907 56.1627
L15.4955 56.2579
" />
<path d="M15.4955 56.2579
L15.4002 56.3055
" />
</g><text x="16.5750" y="6.6000"
textLength="2.4881" font-size="1.3333" lengthAdjust="spacingAndGlyphs"
text-anchor="middle" opacity="0">B+</text>
<g class="stroked-text"><desc>B+</desc>
<path d="M16.0274 6.0310
L16.1702 6.0786
" />
<path d="M16.1702 6.0786
L16.2179 6.1262
" />
<path d="M16.2179 6.1262
L16.2655 6.2215
" />
<path d="M16.2655 6.2215
L16.2655 6.3643
" />
<path d="M16.2655 6.3643
L16.2179 6.4596
" />
<path d="M16.2179 6.4596
L16.1702 6.5072
" />
<path d="M16.1702 6.5072
L16.0750 6.5548
" />
<path d="M16.0750 6.5548
L15.6940 6.5548
" />
<path d="M15.6940 6.5548
L15.6940 5.5548
" />
<path d="M15.6940 5.5548
L16.0274 5.5548
" />
<path d="M16.0274 5.5548
L16.1226 5.6024
" />
<path d="M16.1226 5.6024
L16.1702 5.6501
" />
<path d="M16.1702 5.6501
L16.2179 5.7453
" />
<path d="M16.2179 5.7453
L16.2179 5.8405
" />
<path d="M16.2179 5.8405
L16.1702 5.9358
" />
<path d="M16.1702 5.9358
L16.1226 5.9834
" />
<path d="M16.1226 5.9834
L16.0274 6.0310
" />
<path d="M16.0274 6.0310
L15.6940 6.0310
" />
<path d="M16.6940 6.1739
L17.4560 6.1739
" />
<path d="M17.0750 6.5548
L17.0750 5.7929
" />
</g><text x="16.5750" y="9.0600"
textLength="1.9643" font-size="1.3333" lengthAdjust="spacingAndGlyphs"
text-anchor="middle" opacity="0">J2</text>
<g class="stroked-text"><desc>J2</desc>
<path d="M16.2417 8.0148
L16.2417 8.7291
" />
<path d="M16.2417 8.7291
L16.1940 8.8720
" />
<path d="M16.1940 8.8720
L16.0988 8.9672
" />
<path d="M16.0988 8.9672
L15.9560 9.0148
" />
<path d="M15.9560 9.0148
L15.8607 9.0148
" />
<path d="M16.6702 8.1101
L16.7179 8.0624
" />
<path d="M16.7179 8.0624
L16.8131 8.0148
" />
<path d="M16.8131 8.0148
L17.0512 8.0148
" />
<path d="M17.0512 8.0148
L17.1464 8.0624
" />
<path d="M17.1464 8.0624
L17.1940 8.1101
" />
<path d="M17.1940 8.1101
L17.2417 8.2053
" />
<path d="M17.2417 8.2053
L17.2417 8.3005
" />
<path d="M17.2417 8.3005
L17.1940 8.4434
" />
<path d="M17.1940 8.4434
L16.6226 9.0148
" />
<path d="M16.6226 9.0148
L17.2417 9.0148
" />
</g><g transform="rotate(-90.000000 24.4900 36.5300)">
<text x="24.4900" y="37.0300"
textLength="5.0595" font-size="1.3333" lengthAdjust="spacingAndGlyphs"
text-anchor="middle" opacity="0">ECC83</text>
</g>
<g class="stroked-text"><desc>ECC83</desc>
<path d="M24.4210 38.6967
L24.4210 38.3633
" />
<path d="M24.9448 38.2205
L24.9448 38.6967
" />
<path d="M24.9448 38.6967
L23.9448 38.6967
" />
<path d="M23.9448 38.6967
L23.9448 38.2205
" />
<path d="M24.8496 37.2205
L24.8972 37.2681
" />
<path d="M24.8972 37.2681
L24.9448 37.4110
" />
<path d="M24.9448 37.4110
L24.9448 37.5062
" />
<path d="M24.9448 37.5062
L24.8972 37.6490
" />
<path d="M24.8972 37.6490
L24.8020 37.7443
" />
<path d="M24.8020 37.7443
L24.7067 37.7919
" />
<path d="M24.7067 37.7919
L24.5162 37.8395
" />
<path d="M24.5162 37.8395
L24.3734 37.8395
" />
<path d="M24.3734 37.8395
L24.1829 37.7919
" />
<path d="M24.1829 37.7919
L24.0877 37.7443
" />
<path d="M24.0877 37.7443
L23.9924 37.6490
" />
<path d="M23.9924 37.6490
L23.9448 37.5062
" />
<path d="M23.9448 37.5062
L23.9448 37.4110
" />
<path d="M23.9448 37.4110
L23.9924 37.2681
" />
<path d="M23.9924 37.2681
L24.0401 37.2205
" />
<path d="M24.8496 36.2205
L24.8972 36.2681
" />
<path d="M24.8972 36.2681
L24.9448 36.4110
" />
<path d="M24.9448 36.4110
L24.9448 36.5062
" />
<path d="M24.9448 36.5062
L24.8972 36.6490
" />
<path d="M24.8972 36.6490
L24.8020 36.7443
" />
<path d="M24.8020 36.7443
L24.7067 36.7919
" />
<path d="M24.7067 36.7919
L24.5162 36.8395
" />
<path d="M24.5162 36.8395
L24.3734 36.8395
" />
<path d="M24.3734 36.8395
L24.1829 36.7919
" />
<path d="M24.1829 36.7919
L24.0877 36.7443
" />
<path d="M24.0877 36.7443
L23.9924 36.6490
" />
<path d="M23.9924 36.6490
L23.9448 36.5062
" />
<path d="M23.9448 36.5062
L23.9448 36.4110
" />
<path d="M23.9448 36.4110
L23.9924 36.2681
" />
<path d="M23.9924 36.2681
L24.0401 36.2205
" />
<path d="M24.3734 35.6490
L24.3258 35.7443
" />
<path d="M24.3258 35.7443
L24.2782 35.7919
" />
<path d="M24.2782 35.7919
L24.1829 35.8395
" />
<path d="M24.1829 35.8395
L24.1353 35.8395
" />
<path d="M24.1353 35.8395
L24.0401 35.7919
" />
<path d="M24.0401 35.7919
L23.9924 35.7443
" />
<path d="M23.9924 35.7443
L23.9448 35.6490
" />
<path d="M23.9448 35.6490
L23.9448 35.4586
" />
<path d="M23.9448 35.4586
L23.9924 35.3633
" />
<path d="M23.9924 35.3633
L24.0401 35.3157
" />
<path d="M24.0401 35.3157
L24.1353 35.2681
" />
<path d="M24.1353 35.2681
L24.1829 35.2681
" />
<path d="M24.1829 35.2681
L24.2782 35.3157
" />
<path d="M24.2782 35.3157
L24.3258 35.3633
" />
<path d="M24.3258 35.3633
L24.3734 35.4586
" />
<path d="M24.3734 35.4586
L24.3734 35.6490
" />
<path d="M24.3734 35.6490
L24.4210 35.7443
" />
<path d="M24.4210 35.7443
L24.4686 35.7919
" />
<path d="M24.4686 35.7919
L24.5639 35.8395
" />
<path d="M24.5639 35.8395
L24.7543 35.8395
" />
<path d="M24.7543 35.8395
L24.8496 35.7919
" />
<path d="M24.8496 35.7919
L24.8972 35.7443
" />
<path d="M24.8972 35.7443
L24.9448 35.6490
" />
<path d="M24.9448 35.6490
L24.9448 35.4586
" />
<path d="M24.9448 35.4586
L24.8972 35.3633
" />
<path d="M24.8972 35.3633
L24.8496 35.3157
" />
<path d="M24.8496 35.3157
L24.7543 35.2681
" />
<path d="M24.7543 35.2681
L24.5639 35.2681
" />
<path d="M24.5639 35.2681
L24.4686 35.3157
" />
<path d="M24.4686 35.3157
L24.4210 35.3633
" />
<path d="M24.4210 35.3633
L24.3734 35.4586
" />
<path d="M23.9448 34.9348
L23.9448 34.3157
" />
<path d="M23.9448 34.3157
L24.3258 34.6490
" />
<path d="M24.3258 34.6490
L24.3258 34.5062
" />
<path d="M24.3258 34.5062
L24.3734 34.4110
" />
<path d="M24.3734 34.4110
L24.4210 34.3633
" />
<path d="M24.4210 34.3633
L24.5162 34.3157
" />
<path d="M24.5162 34.3157
L24.7543 34.3157
" />
<path d="M24.7543 34.3157
L24.8496 34.3633
" />
<path d="M24.8496 34.3633
L24.8972 34.4110
" />
<path d="M24.8972 34.4110
L24.9448 34.5062
" />
<path d="M24.9448 34.5062
L24.9448 34.7919
" />
<path d="M24.9448 34.7919
L24.8972 34.8871
" />
<path d="M24.8972 34.8871
L24.8496 34.9348
" />
</g><g transform="rotate(-90.000000 54.0550 11.4950)">
<text x="54.0550" y="11.9950"
textLength="2.6310" font-size="1.3333" lengthAdjust="spacingAndGlyphs"
text-anchor="middle" opacity="0">VIN</text>
</g>
<g class="stroked-text"><desc>VIN</desc>
<path d="M53.5098 12.5902
L54.5098 12.2569
" />
<path d="M54.5098 12.2569
L53.5098 11.9236
" />
<path d="M54.5098 11.5902
L53.5098 11.5902
" />
<path d="M54.5098 11.1140
L53.5098 11.1140
" />
<path d="M53.5098 11.1140
L54.5098 10.5426
" />
<path d="M54.5098 10.5426
L53.5098 10.5426
" />
</g><g transform="rotate(-90.000000 56.5150 11.4950)">
<text x="56.5150" y="11.9950"
textLength="1.9643" font-size="1.3333" lengthAdjust="spacingAndGlyphs"
text-anchor="middle" opacity="0">J4</text>
</g>
<g class="stroked-text"><desc>J4</desc>
<path d="M55.9698 11.8283
L56.6841 11.8283
" />
<path d="M56.6841 11.8283
L56.8270 11.8760
" />
<path d="M56.8270 11.8760
L56.9222 11.9712
" />
<path d="M56.9222 11.9712
L56.9698 12.1140
" />
<path d="M56.9698 12.1140
L56.9698 12.2093
" />
<path d="M56.3032 10.9236
L56.9698 10.9236
" />
<path d="M55.9222 11.1617
L56.6365 11.3998
" />
<path d="M56.6365 11.3998
L56.6365 10.7807
" />
</g><g transform="rotate(-90.000000 53.7500 22.8850)">
<text x="53.7500" y="23.3850"
textLength="3.9643" font-size="1.3333" lengthAdjust="spacingAndGlyphs"
text-anchor="middle" opacity="0">VOUT</text>
</g>
<g class="stroked-text"><desc>VOUT</desc>
<path d="M53.2048 24.6469
L54.2048 24.3136
" />
<path d="M54.2048 24.3136
L53.2048 23.9802
" />
<path d="M53.2048 23.4564
L53.2048 23.2660
" />
<path d="M53.2048 23.2660
L53.2524 23.1707
" />
<path d="M53.2524 23.1707
L53.3477 23.0755
" />
<path d="M53.3477 23.0755
L53.5382 23.0279
" />
<path d="M53.5382 23.0279
L53.8715 23.0279
" />
<path d="M53.8715 23.0279
L54.0620 23.0755
" />
<path d="M54.0620 23.0755
L54.1572 23.1707
" />
<path d="M54.1572 23.1707
L54.2048 23.2660
" />
<path d="M54.2048 23.2660
L54.2048 23.4564
" />
<path d="M54.2048 23.4564
L54.1572 23.5517
" />
<path d="M54.1572 23.5517
L54.0620 23.6469
" />
<path d="M54.0620 23.6469
L53.8715 23.6945
" />
<path d="M53.8715 23.6945
L53.5382 23.6945
" />
<path d="M53.5382 23.6945
L53.3477 23.6469
" />
<path d="M53.3477 23.6469
L53.2524 23.5517
" />
<path d="M53.2524 23.5517
L53.2048 23.4564
" />
<path d="M53.2048 22.5993
L54.0143 22.5993
" />
<path d="M54.0143 22.5993
L54.1096 22.5517
" />
<path d="M54.1096 22.5517
L54.1572 22.5040
" />
<path d="M54.1572 22.5040
L54.2048 22.4088
" />
<path d="M54.2048 22.4088
L54.2048 22.2183
" />
<path d="M54.2048 22.2183
L54.1572 22.1231
" />
<path d="M54.1572 22.1231
L54.1096 22.0755
" />
<path d="M54.1096 22.0755
L54.0143 22.0279
" />
<path d="M54.0143 22.0279
L53.2048 22.0279
" />
<path d="M53.2048 21.6945
L53.2048 21.1231
" />
<path d="M54.2048 21.4088
L53.2048 21.4088
" />
</g><g transform="rotate(-90.000000 56.2100 22.8850)">
<text x="56.2100" y="23.3850"
textLength="1.9643" font-size="1.3333" lengthAdjust="spacingAndGlyphs"
text-anchor="middle" opacity="0">J3</text>
</g>
<g class="stroked-text"><desc>J3</desc>
<path d="M55.6648 23.2183
L56.3791 23.2183
" />
<path d="M56.3791 23.2183
L56.5220 23.2660
" />
<path d="M56.5220 23.2660
L56.6172 23.3612
" />
<path d="M56.6172 23.3612
L56.6648 23.5040
" />
<path d="M56.6648 23.5040
L56.6648 23.5993
" />
<path d="M55.6648 22.8374
L55.6648 22.2183
" />
<path d="M55.6648 22.2183
L56.0458 22.5517
" />
<path d="M56.0458 22.5517
L56.0458 22.4088
" />
<path d="M56.0458 22.4088
L56.0934 22.3136
" />
<path d="M56.0934 22.3136
L56.1410 22.2660
" />
<path d="M56.1410 22.2660
L56.2362 22.2183
" />
<path d="M56.2362 22.2183
L56.4743 22.2183
" />
<path d="M56.4743 22.2183
L56.5696 22.2660
" />
<path d="M56.5696 22.2660
L56.6172 22.3136
" />
<path d="M56.6172 22.3136
L56.6648 22.4088
" />
<path d="M56.6648 22.4088
L56.6648 22.6945
" />
<path d="M56.6648 22.6945
L56.6172 22.7898
" />
<path d="M56.6172 22.7898
L56.5696 22.8374
" />
</g></g>
<g style="fill:none; 
stroke:#000000; stroke-width:0.1000; stroke-opacity:1; 
stroke-linecap:round; stroke-linejoin:round;">
<path d="M53.3650 53.3650
L54.7650 53.3650
" />
<path d="M54.7650 51.5650
L54.7650 55.1650
" />
<path d="M54.7650 55.1650
L64.6650 55.1650
" />
<path d="M64.6650 51.5650
L54.7650 51.5650
" />
<path d="M64.6650 55.1650
L64.6650 51.5650
" />
<path d="M66.0650 53.3650
L64.6650 53.3650
" />
<path d="M19.0750 39.3950
L19.0750 37.9950
" />
<path d="M17.2750 37.9950
L20.8750 37.9950
" />
<path d="M20.8750 37.9950
L20.8750 28.0950
" />
<path d="M17.2750 28.0950
L17.2750 37.9950
" />
<path d="M20.8750 28.0950
L17.2750 28.0950
" />
<path d="M19.0750 26.6950
L19.0750 28.0950
" />
<path d="M11.4550 39.3950
L11.4550 37.9950
" />
<path d="M9.6550 37.9950
L13.2550 37.9950
" />
<path d="M13.2550 37.9950
L13.2550 28.0950
" />
<path d="M9.6550 28.0950
L9.6550 37.9950
" />
<path d="M13.2550 28.0950
L9.6550 28.0950
" />
<path d="M11.4550 26.6950
L11.4550 28.0950
" />
<path d="M31.7750 11.4550
L33.1750 11.4550
" />
<path d="M33.1750 9.6550
L33.1750 13.2550
" />
<path d="M33.1750 13.2550
L43.0750 13.2550
" />
<path d="M43.0750 9.6550
L33.1750 9.6550
" />
<path d="M43.0750 13.2550
L43.0750 9.6550
" />
<path d="M44.4750 11.4550
L43.0750 11.4550
" />
<path d="M45.6250 53.3650
L44.1250 53.3650
" />
<path d="M44.1250 57.6150
L44.1250 49.1150
" />
<path d="M44.1250 49.1150
L32.1250 49.1150
" />
<path d="M32.1250 57.6150
L44.1250 57.6150
" />
<path d="M32.1250 49.1150
L32.1250 57.6150
" />
<path d="M30.6250 53.3650
L32.1250 53.3650
" />
<path d="M59.7150 32.0150
L59.7150 33.5150
" />
<path d="M63.9650 33.5150
L55.4650 33.5150
" />
<path d="M55.4650 33.5150
L55.4650 45.5150
" />
<path d="M63.9650 45.5150
L63.9650 33.5150
" />
<path d="M55.4650 45.5150
L63.9650 45.5150
" />
<path d="M59.7150 47.0150
L59.7150 45.5150
" />
<path d="M10.3050 48.1650
L20.3050 48.1650
" />
<path d="M10.3050 51.0650
L20.3050 51.0650
" />
<path d="M10.3050 55.9650
L20.3050 55.9650
" />
<path d="M10.3050 57.4650
L10.3050 48.1650
" />
<path d="M10.3050 57.4650
L20.3050 57.4650
" />
<path d="M10.8050 57.9650
L10.3050 57.4650
" />
<path d="M13.7600 52.2270
L11.6670 54.3200
" />
<path d="M13.9430 52.4100
L11.8500 54.5030
" />
<path d="M18.7600 52.2270
L16.6680 54.3200
" />
<path d="M18.9430 52.4100
L16.8510 54.5030
" />
<path d="M20.3050 48.1650
L20.3050 57.9650
" />
<path d="M20.3050 57.9650
L10.8050 57.9650
" />
<circle cx="12.8050" cy="53.3650" r="1.5000" /> 
<circle cx="17.8050" cy="53.3650" r="1.5000" /> 
<path d="M21.5750 16.9600
L11.5750 16.9600
" />
<path d="M21.5750 14.0600
L11.5750 14.0600
" />
<path d="M21.5750 9.1600
L11.5750 9.1600
" />
<path d="M21.5750 7.6600
L21.5750 16.9600
" />
<path d="M21.5750 7.6600
L11.5750 7.6600
" />
<path d="M21.0750 7.1600
L21.5750 7.6600
" />
<path d="M18.1200 12.8980
L20.2130 10.8050
" />
<path d="M17.9370 12.7150
L20.0300 10.6220
" />
<path d="M13.1200 12.8980
L15.2120 10.8050
" />
<path d="M12.9370 12.7150
L15.0290 10.6220
" />
<path d="M11.5750 16.9600
L11.5750 7.1600
" />
<path d="M11.5750 7.1600
L21.0750 7.1600
" />
<circle cx="19.0750" cy="11.7600" r="1.5000" /> 
<circle cx="14.0750" cy="11.7600" r="1.5000" /> 
</g>
<g style="fill:none; 
stroke:#000000; stroke-width:0.1270; stroke-opacity:1; 
stroke-linecap:round; stroke-linejoin:round;">
<path d="M31.4600 41.0250
L44.7900 41.0250
" />
<path d="M44.7900 22.5250
L31.4600 22.5250
" />
<path d="M31.4600 22.5250 A11.4446 11.4446 0.0 0 0 26.7250 31.7750" />
<path d="M26.7250 31.7750 A11.4446 11.4446 0.0 0 0 31.4600 41.0250" />
<path d="M49.5250 31.7750 A11.4446 11.4446 0.0 0 0 44.7900 22.5250" />
<path d="M44.7900 41.0250 A11.4446 11.4446 0.0 0 0 49.5250 31.7750" />
</g>
<g style="fill:none; 
stroke:#000000; stroke-width:0.2000; stroke-opacity:1; 
stroke-linecap:round; stroke-linejoin:round;">
<circle cx="46.6250" cy="41.7750" r="0.1000" /> 
</g>
<g style="fill:none; 
stroke:#000000; stroke-width:0.1000; stroke-opacity:1; 
stroke-linecap:round; stroke-linejoin:round;">
<path d="M55.1150 6.9950
L55.6150 6.4950
" />
<path d="M55.1150 16.4950
L55.1150 6.9950
" />
<path d="M55.6150 6.4950
L55.6150 16.4950
" />
<path d="M55.6150 6.4950
L64.9150 6.4950
" />
<path d="M57.1150 6.4950
L57.1150 16.4950
" />
<path d="M60.6700 10.1330
L58.5770 8.0400
" />
<path d="M60.6700 15.1330
L58.5770 13.0410
" />
<path d="M60.8530 9.9500
L58.7600 7.8570
" />
<path d="M60.8530 14.9500
L58.7600 12.8580
" />
<path d="M62.0150 6.4950
L62.0150 16.4950
" />
<path d="M64.9150 6.4950
L64.9150 16.4950
" />
<path d="M64.9150 16.4950
L55.1150 16.4950
" />
<circle cx="59.7150" cy="8.9950" r="1.5000" /> 
<circle cx="59.7150" cy="13.9950" r="1.5000" /> 
<path d="M54.8100 18.3850
L55.3100 17.8850
" />
<path d="M54.8100 27.8850
L54.8100 18.3850
" />
<path d="M55.3100 17.8850
L55.3100 27.8850
" />
<path d="M55.3100 17.8850
L64.6100 17.8850
" />
<path d="M56.8100 17.8850
L56.8100 27.8850
" />
<path d="M60.3650 21.5230
L58.2720 19.4300
" />
<path d="M60.3650 26.5230
L58.2720 24.4310
" />
<path d="M60.5480 21.3400
L58.4550 19.2470
" />
<path d="M60.5480 26.3400
L58.4550 24.2480
" />
<path d="M61.7100 17.8850
L61.7100 27.8850
" />
<path d="M64.6100 17.8850
L64.6100 27.8850
" />
<path d="M64.6100 27.8850
L54.8100 27.8850
" />
<circle cx="59.4100" cy="20.3850" r="1.5000" /> 
<circle cx="59.4100" cy="25.3850" r="1.5000" /> 
</g>
<g style="fill:none; 
stroke:#000000; stroke-width:0.0500; stroke-opacity:1; 
stroke-linecap:round; stroke-linejoin:round;">
<circle cx="74.9550" cy="58.4450" r="2.8398" /> 
<circle cx="5.1050" cy="58.4450" r="2.8398" /> 
<circle cx="5.1050" cy="5.1050" r="2.8398" /> 
<circle cx="74.9550" cy="5.1050" r="2.8398" /> 
<path d="M0.0250 63.5250
L0.0250 0.0250
" />
<path d="M80.0350 63.5250
L0.0250 63.5250
" />
<path d="M80.0350 0.0250
L80.0350 63.5250
" />
<path d="M0.0250 0.0250
L80.0350 0.0250
" />
</g> 
</svg>
