<?xml version="1.0" standalone="no"?>
 <!DOCTYPE svg PUBLIC "-//W3C//DTD SVG 1.1//EN" 
 "http://www.w3.org/Graphics/SVG/1.1/DTD/svg11.dtd"> 
<svg
  xmlns:svg="http://www.w3.org/2000/svg"
  xmlns="http://www.w3.org/2000/svg"
  xmlns:xlink="http://www.w3.org/1999/xlink"
  version="1.1"
  width="80.0354mm" height="63.5254mm" viewBox="0.0000 0.0000 80.0354 63.5254">
<title>SVG Image created as multi-channel-preamp-output-F_Cu.svg date 2024/06/14 20:36:37 </title>
  <desc>Image generated by PCBNEW </desc>
<g style="fill:#000000; fill-opacity:1.0000;stroke:#000000; stroke-opacity:1.0000;
stroke-linecap:round; stroke-linejoin:round;"
 transform="translate(0 0) scale(1 1)">
</g>
<g style="fill:none; 
stroke:#000000; stroke-width:0.3000; stroke-opacity:1; 
stroke-linecap:round; stroke-linejoin:round;">
<text x="64.7950" y="20.3450"
textLength="6.1714" font-size="2.0000" lengthAdjust="spacingAndGlyphs"
text-anchor="start" opacity="0">VOUT</text>
<g class="stroked-text"><desc>VOUT</desc>
<path d="M65.1352 18.6458
L65.6352 20.1458
" />
<path d="M65.6352 20.1458
L66.1352 18.6458
" />
<path d="M66.9209 18.6458
L67.2067 18.6458
" />
<path d="M67.2067 18.6458
L67.3495 18.7173
" />
<path d="M67.3495 18.7173
L67.4924 18.8601
" />
<path d="M67.4924 18.8601
L67.5638 19.1458
" />
<path d="M67.5638 19.1458
L67.5638 19.6458
" />
<path d="M67.5638 19.6458
L67.4924 19.9315
" />
<path d="M67.4924 19.9315
L67.3495 20.0744
" />
<path d="M67.3495 20.0744
L67.2067 20.1458
" />
<path d="M67.2067 20.1458
L66.9209 20.1458
" />
<path d="M66.9209 20.1458
L66.7781 20.0744
" />
<path d="M66.7781 20.0744
L66.6352 19.9315
" />
<path d="M66.6352 19.9315
L66.5638 19.6458
" />
<path d="M66.5638 19.6458
L66.5638 19.1458
" />
<path d="M66.5638 19.1458
L66.6352 18.8601
" />
<path d="M66.6352 18.8601
L66.7781 18.7173
" />
<path d="M66.7781 18.7173
L66.9209 18.6458
" />
<path d="M68.2067 18.6458
L68.2067 19.8601
" />
<path d="M68.2067 19.8601
L68.2781 20.0030
" />
<path d="M68.2781 20.0030
L68.3495 20.0744
" />
<path d="M68.3495 20.0744
L68.4924 20.1458
" />
<path d="M68.4924 20.1458
L68.7781 20.1458
" />
<path d="M68.7781 20.1458
L68.9209 20.0744
" />
<path d="M68.9209 20.0744
L68.9924 20.0030
" />
<path d="M68.9924 20.0030
L69.0638 19.8601
" />
<path d="M69.0638 19.8601
L69.0638 18.6458
" />
<path d="M69.5638 18.6458
L70.4209 18.6458
" />
<path d="M69.9924 20.1458
L69.9924 18.6458
" />
</g><text x="15.2650" y="6.3750"
textLength="3.9571" font-size="2.0000" lengthAdjust="spacingAndGlyphs"
text-anchor="start" opacity="0">B+</text>
<g class="stroked-text"><desc>B+</desc>
<path d="M16.3195 5.3901
L16.5338 5.4615
" />
<path d="M16.5338 5.4615
L16.6052 5.5330
" />
<path d="M16.6052 5.5330
L16.6767 5.6758
" />
<path d="M16.6767 5.6758
L16.6767 5.8901
" />
<path d="M16.6767 5.8901
L16.6052 6.0330
" />
<path d="M16.6052 6.0330
L16.5338 6.1044
" />
<path d="M16.5338 6.1044
L16.3909 6.1758
" />
<path d="M16.3909 6.1758
L15.8195 6.1758
" />
<path d="M15.8195 6.1758
L15.8195 4.6758
" />
<path d="M15.8195 4.6758
L16.3195 4.6758
" />
<path d="M16.3195 4.6758
L16.4624 4.7473
" />
<path d="M16.4624 4.7473
L16.5338 4.8187
" />
<path d="M16.5338 4.8187
L16.6052 4.9615
" />
<path d="M16.6052 4.9615
L16.6052 5.1044
" />
<path d="M16.6052 5.1044
L16.5338 5.2473
" />
<path d="M16.5338 5.2473
L16.4624 5.3187
" />
<path d="M16.4624 5.3187
L16.3195 5.3901
" />
<path d="M16.3195 5.3901
L15.8195 5.3901
" />
<path d="M17.3195 5.6044
L18.4624 5.6044
" />
<path d="M17.8909 6.1758
L17.8909 5.0330
" />
</g><text x="15.2650" y="33.1701"
textLength="3.5286" font-size="2.0000" lengthAdjust="spacingAndGlyphs"
text-anchor="start" opacity="0">R3</text>
<g class="stroked-text"><desc>R3</desc>
<path d="M16.6767 32.9709
L16.1767 32.2566
" />
<path d="M15.8195 32.9709
L15.8195 31.4709
" />
<path d="M15.8195 31.4709
L16.3909 31.4709
" />
<path d="M16.3909 31.4709
L16.5338 31.5423
" />
<path d="M16.5338 31.5423
L16.6052 31.6138
" />
<path d="M16.6052 31.6138
L16.6767 31.7566
" />
<path d="M16.6767 31.7566
L16.6767 31.9709
" />
<path d="M16.6767 31.9709
L16.6052 32.1138
" />
<path d="M16.6052 32.1138
L16.5338 32.1852
" />
<path d="M16.5338 32.1852
L16.3909 32.2566
" />
<path d="M16.3909 32.2566
L15.8195 32.2566
" />
<path d="M17.1767 31.4709
L18.1052 31.4709
" />
<path d="M18.1052 31.4709
L17.6052 32.0423
" />
<path d="M17.6052 32.0423
L17.8195 32.0423
" />
<path d="M17.8195 32.0423
L17.9624 32.1138
" />
<path d="M17.9624 32.1138
L18.0338 32.1852
" />
<path d="M18.0338 32.1852
L18.1052 32.3281
" />
<path d="M18.1052 32.3281
L18.1052 32.6852
" />
<path d="M18.1052 32.6852
L18.0338 32.8281
" />
<path d="M18.0338 32.8281
L17.9624 32.8995
" />
<path d="M17.9624 32.8995
L17.8195 32.9709
" />
<path d="M17.8195 32.9709
L17.3909 32.9709
" />
<path d="M17.3909 32.9709
L17.2481 32.8995
" />
<path d="M17.2481 32.8995
L17.1767 32.8281
" />
</g><text x="15.2650" y="35.5850"
textLength="5.8857" font-size="2.0000" lengthAdjust="spacingAndGlyphs"
text-anchor="start" opacity="0">2.2M</text>
<g class="stroked-text"><desc>2.2M</desc>
<path d="M15.7481 34.0287
L15.8195 33.9573
" />
<path d="M15.8195 33.9573
L15.9624 33.8858
" />
<path d="M15.9624 33.8858
L16.3195 33.8858
" />
<path d="M16.3195 33.8858
L16.4624 33.9573
" />
<path d="M16.4624 33.9573
L16.5338 34.0287
" />
<path d="M16.5338 34.0287
L16.6052 34.1715
" />
<path d="M16.6052 34.1715
L16.6052 34.3144
" />
<path d="M16.6052 34.3144
L16.5338 34.5287
" />
<path d="M16.5338 34.5287
L15.6767 35.3858
" />
<path d="M15.6767 35.3858
L16.6052 35.3858
" />
<path d="M17.2481 35.2430
L17.3195 35.3144
" />
<path d="M17.3195 35.3144
L17.2481 35.3858
" />
<path d="M17.2481 35.3858
L17.1767 35.3144
" />
<path d="M17.1767 35.3144
L17.2481 35.2430
" />
<path d="M17.2481 35.2430
L17.2481 35.3858
" />
<path d="M17.8909 34.0287
L17.9624 33.9573
" />
<path d="M17.9624 33.9573
L18.1052 33.8858
" />
<path d="M18.1052 33.8858
L18.4624 33.8858
" />
<path d="M18.4624 33.8858
L18.6052 33.9573
" />
<path d="M18.6052 33.9573
L18.6767 34.0287
" />
<path d="M18.6767 34.0287
L18.7481 34.1715
" />
<path d="M18.7481 34.1715
L18.7481 34.3144
" />
<path d="M18.7481 34.3144
L18.6767 34.5287
" />
<path d="M18.6767 34.5287
L17.8195 35.3858
" />
<path d="M17.8195 35.3858
L18.7481 35.3858
" />
<path d="M19.3909 35.3858
L19.3909 33.8858
" />
<path d="M19.3909 33.8858
L19.8909 34.9573
" />
<path d="M19.8909 34.9573
L20.3909 33.8858
" />
<path d="M20.3909 33.8858
L20.3909 35.3858
" />
</g><text x="7.6450" y="33.1701"
textLength="3.5286" font-size="2.0000" lengthAdjust="spacingAndGlyphs"
text-anchor="start" opacity="0">R2</text>
<g class="stroked-text"><desc>R2</desc>
<path d="M9.0567 32.9709
L8.5567 32.2566
" />
<path d="M8.1995 32.9709
L8.1995 31.4709
" />
<path d="M8.1995 31.4709
L8.7709 31.4709
" />
<path d="M8.7709 31.4709
L8.9138 31.5423
" />
<path d="M8.9138 31.5423
L8.9852 31.6138
" />
<path d="M8.9852 31.6138
L9.0567 31.7566
" />
<path d="M9.0567 31.7566
L9.0567 31.9709
" />
<path d="M9.0567 31.9709
L8.9852 32.1138
" />
<path d="M8.9852 32.1138
L8.9138 32.1852
" />
<path d="M8.9138 32.1852
L8.7709 32.2566
" />
<path d="M8.7709 32.2566
L8.1995 32.2566
" />
<path d="M9.6281 31.6138
L9.6995 31.5423
" />
<path d="M9.6995 31.5423
L9.8424 31.4709
" />
<path d="M9.8424 31.4709
L10.1995 31.4709
" />
<path d="M10.1995 31.4709
L10.3424 31.5423
" />
<path d="M10.3424 31.5423
L10.4138 31.6138
" />
<path d="M10.4138 31.6138
L10.4852 31.7566
" />
<path d="M10.4852 31.7566
L10.4852 31.8995
" />
<path d="M10.4852 31.8995
L10.4138 32.1138
" />
<path d="M10.4138 32.1138
L9.5567 32.9709
" />
<path d="M9.5567 32.9709
L10.4852 32.9709
" />
</g><text x="7.6450" y="35.5850"
textLength="6.3857" font-size="2.0000" lengthAdjust="spacingAndGlyphs"
text-anchor="start" opacity="0">499R</text>
<g class="stroked-text"><desc>499R</desc>
<path d="M8.8424 34.3858
L8.8424 35.3858
" />
<path d="M8.4852 33.8144
L8.1281 34.8858
" />
<path d="M8.1281 34.8858
L9.0567 34.8858
" />
<path d="M9.6995 35.3858
L9.9852 35.3858
" />
<path d="M9.9852 35.3858
L10.1281 35.3144
" />
<path d="M10.1281 35.3144
L10.1995 35.2430
" />
<path d="M10.1995 35.2430
L10.3424 35.0287
" />
<path d="M10.3424 35.0287
L10.4138 34.7430
" />
<path d="M10.4138 34.7430
L10.4138 34.1715
" />
<path d="M10.4138 34.1715
L10.3424 34.0287
" />
<path d="M10.3424 34.0287
L10.2709 33.9573
" />
<path d="M10.2709 33.9573
L10.1281 33.8858
" />
<path d="M10.1281 33.8858
L9.8424 33.8858
" />
<path d="M9.8424 33.8858
L9.6995 33.9573
" />
<path d="M9.6995 33.9573
L9.6281 34.0287
" />
<path d="M9.6281 34.0287
L9.5567 34.1715
" />
<path d="M9.5567 34.1715
L9.5567 34.5287
" />
<path d="M9.5567 34.5287
L9.6281 34.6715
" />
<path d="M9.6281 34.6715
L9.6995 34.7430
" />
<path d="M9.6995 34.7430
L9.8424 34.8144
" />
<path d="M9.8424 34.8144
L10.1281 34.8144
" />
<path d="M10.1281 34.8144
L10.2709 34.7430
" />
<path d="M10.2709 34.7430
L10.3424 34.6715
" />
<path d="M10.3424 34.6715
L10.4138 34.5287
" />
<path d="M11.1281 35.3858
L11.4138 35.3858
" />
<path d="M11.4138 35.3858
L11.5567 35.3144
" />
<path d="M11.5567 35.3144
L11.6281 35.2430
" />
<path d="M11.6281 35.2430
L11.7709 35.0287
" />
<path d="M11.7709 35.0287
L11.8424 34.7430
" />
<path d="M11.8424 34.7430
L11.8424 34.1715
" />
<path d="M11.8424 34.1715
L11.7709 34.0287
" />
<path d="M11.7709 34.0287
L11.6995 33.9573
" />
<path d="M11.6995 33.9573
L11.5567 33.8858
" />
<path d="M11.5567 33.8858
L11.2709 33.8858
" />
<path d="M11.2709 33.8858
L11.1281 33.9573
" />
<path d="M11.1281 33.9573
L11.0567 34.0287
" />
<path d="M11.0567 34.0287
L10.9852 34.1715
" />
<path d="M10.9852 34.1715
L10.9852 34.5287
" />
<path d="M10.9852 34.5287
L11.0567 34.6715
" />
<path d="M11.0567 34.6715
L11.1281 34.7430
" />
<path d="M11.1281 34.7430
L11.2709 34.8144
" />
<path d="M11.2709 34.8144
L11.5567 34.8144
" />
<path d="M11.5567 34.8144
L11.6995 34.7430
" />
<path d="M11.6995 34.7430
L11.7709 34.6715
" />
<path d="M11.7709 34.6715
L11.8424 34.5287
" />
<path d="M13.3424 35.3858
L12.8424 34.6715
" />
<path d="M12.4852 35.3858
L12.4852 33.8858
" />
<path d="M12.4852 33.8858
L13.0567 33.8858
" />
<path d="M13.0567 33.8858
L13.1995 33.9573
" />
<path d="M13.1995 33.9573
L13.2709 34.0287
" />
<path d="M13.2709 34.0287
L13.3424 34.1715
" />
<path d="M13.3424 34.1715
L13.3424 34.3858
" />
<path d="M13.3424 34.3858
L13.2709 34.5287
" />
<path d="M13.2709 34.5287
L13.1995 34.6001
" />
<path d="M13.1995 34.6001
L13.0567 34.6715
" />
<path d="M13.0567 34.6715
L12.4852 34.6715
" />
</g><text x="11.4550" y="60.9850"
textLength="7.8857" font-size="2.0000" lengthAdjust="spacingAndGlyphs"
text-anchor="start" opacity="0">Heater</text>
<g class="stroked-text"><desc>Heater</desc>
<path d="M12.0095 60.7858
L12.0095 59.2858
" />
<path d="M12.0095 60.0001
L12.8667 60.0001
" />
<path d="M12.8667 60.7858
L12.8667 59.2858
" />
<path d="M14.1524 60.7144
L14.0095 60.7858
" />
<path d="M14.0095 60.7858
L13.7238 60.7858
" />
<path d="M13.7238 60.7858
L13.5809 60.7144
" />
<path d="M13.5809 60.7144
L13.5095 60.5715
" />
<path d="M13.5095 60.5715
L13.5095 60.0001
" />
<path d="M13.5095 60.0001
L13.5809 59.8573
" />
<path d="M13.5809 59.8573
L13.7238 59.7858
" />
<path d="M13.7238 59.7858
L14.0095 59.7858
" />
<path d="M14.0095 59.7858
L14.1524 59.8573
" />
<path d="M14.1524 59.8573
L14.2238 60.0001
" />
<path d="M14.2238 60.0001
L14.2238 60.1430
" />
<path d="M14.2238 60.1430
L13.5095 60.2858
" />
<path d="M15.5095 60.7858
L15.5095 60.0001
" />
<path d="M15.5095 60.0001
L15.4381 59.8573
" />
<path d="M15.4381 59.8573
L15.2952 59.7858
" />
<path d="M15.2952 59.7858
L15.0095 59.7858
" />
<path d="M15.0095 59.7858
L14.8667 59.8573
" />
<path d="M15.5095 60.7144
L15.3667 60.7858
" />
<path d="M15.3667 60.7858
L15.0095 60.7858
" />
<path d="M15.0095 60.7858
L14.8667 60.7144
" />
<path d="M14.8667 60.7144
L14.7952 60.5715
" />
<path d="M14.7952 60.5715
L14.7952 60.4287
" />
<path d="M14.7952 60.4287
L14.8667 60.2858
" />
<path d="M14.8667 60.2858
L15.0095 60.2144
" />
<path d="M15.0095 60.2144
L15.3667 60.2144
" />
<path d="M15.3667 60.2144
L15.5095 60.1430
" />
<path d="M16.0095 59.7858
L16.5809 59.7858
" />
<path d="M16.2238 59.2858
L16.2238 60.5715
" />
<path d="M16.2238 60.5715
L16.2952 60.7144
" />
<path d="M16.2952 60.7144
L16.4381 60.7858
" />
<path d="M16.4381 60.7858
L16.5809 60.7858
" />
<path d="M17.6524 60.7144
L17.5095 60.7858
" />
<path d="M17.5095 60.7858
L17.2238 60.7858
" />
<path d="M17.2238 60.7858
L17.0809 60.7144
" />
<path d="M17.0809 60.7144
L17.0095 60.5715
" />
<path d="M17.0095 60.5715
L17.0095 60.0001
" />
<path d="M17.0095 60.0001
L17.0809 59.8573
" />
<path d="M17.0809 59.8573
L17.2238 59.7858
" />
<path d="M17.2238 59.7858
L17.5095 59.7858
" />
<path d="M17.5095 59.7858
L17.6524 59.8573
" />
<path d="M17.6524 59.8573
L17.7238 60.0001
" />
<path d="M17.7238 60.0001
L17.7238 60.1430
" />
<path d="M17.7238 60.1430
L17.0095 60.2858
" />
<path d="M18.3667 60.7858
L18.3667 59.7858
" />
<path d="M18.3667 60.0715
L18.4381 59.9287
" />
<path d="M18.4381 59.9287
L18.5095 59.8573
" />
<path d="M18.5095 59.8573
L18.6524 59.7858
" />
<path d="M18.6524 59.7858
L18.7952 59.7858
" />
</g><text x="38.1250" y="57.3001"
textLength="3.5286" font-size="2.0000" lengthAdjust="spacingAndGlyphs"
text-anchor="start" opacity="0">C2</text>
<g class="stroked-text"><desc>C2</desc>
<path d="M39.5367 56.9581
L39.4652 57.0295
" />
<path d="M39.4652 57.0295
L39.2509 57.1009
" />
<path d="M39.2509 57.1009
L39.1081 57.1009
" />
<path d="M39.1081 57.1009
L38.8938 57.0295
" />
<path d="M38.8938 57.0295
L38.7509 56.8866
" />
<path d="M38.7509 56.8866
L38.6795 56.7438
" />
<path d="M38.6795 56.7438
L38.6081 56.4581
" />
<path d="M38.6081 56.4581
L38.6081 56.2438
" />
<path d="M38.6081 56.2438
L38.6795 55.9581
" />
<path d="M38.6795 55.9581
L38.7509 55.8152
" />
<path d="M38.7509 55.8152
L38.8938 55.6723
" />
<path d="M38.8938 55.6723
L39.1081 55.6009
" />
<path d="M39.1081 55.6009
L39.2509 55.6009
" />
<path d="M39.2509 55.6009
L39.4652 55.6723
" />
<path d="M39.4652 55.6723
L39.5367 55.7438
" />
<path d="M40.1081 55.7438
L40.1795 55.6723
" />
<path d="M40.1795 55.6723
L40.3224 55.6009
" />
<path d="M40.3224 55.6009
L40.6795 55.6009
" />
<path d="M40.6795 55.6009
L40.8224 55.6723
" />
<path d="M40.8224 55.6723
L40.8938 55.7438
" />
<path d="M40.8938 55.7438
L40.9652 55.8866
" />
<path d="M40.9652 55.8866
L40.9652 56.0295
" />
<path d="M40.9652 56.0295
L40.8938 56.2438
" />
<path d="M40.8938 56.2438
L40.0367 57.1009
" />
<path d="M40.0367 57.1009
L40.9652 57.1009
" />
</g><text x="38.1250" y="59.7150"
textLength="6.8143" font-size="2.0000" lengthAdjust="spacingAndGlyphs"
text-anchor="start" opacity="0">0.1uF</text>
<g class="stroked-text"><desc>0.1uF</desc>
<path d="M38.9652 58.0158
L39.1081 58.0158
" />
<path d="M39.1081 58.0158
L39.2509 58.0873
" />
<path d="M39.2509 58.0873
L39.3224 58.1587
" />
<path d="M39.3224 58.1587
L39.3938 58.3015
" />
<path d="M39.3938 58.3015
L39.4652 58.5873
" />
<path d="M39.4652 58.5873
L39.4652 58.9444
" />
<path d="M39.4652 58.9444
L39.3938 59.2301
" />
<path d="M39.3938 59.2301
L39.3224 59.3730
" />
<path d="M39.3224 59.3730
L39.2509 59.4444
" />
<path d="M39.2509 59.4444
L39.1081 59.5158
" />
<path d="M39.1081 59.5158
L38.9652 59.5158
" />
<path d="M38.9652 59.5158
L38.8224 59.4444
" />
<path d="M38.8224 59.4444
L38.7509 59.3730
" />
<path d="M38.7509 59.3730
L38.6795 59.2301
" />
<path d="M38.6795 59.2301
L38.6081 58.9444
" />
<path d="M38.6081 58.9444
L38.6081 58.5873
" />
<path d="M38.6081 58.5873
L38.6795 58.3015
" />
<path d="M38.6795 58.3015
L38.7509 58.1587
" />
<path d="M38.7509 58.1587
L38.8224 58.0873
" />
<path d="M38.8224 58.0873
L38.9652 58.0158
" />
<path d="M40.1081 59.3730
L40.1795 59.4444
" />
<path d="M40.1795 59.4444
L40.1081 59.5158
" />
<path d="M40.1081 59.5158
L40.0367 59.4444
" />
<path d="M40.0367 59.4444
L40.1081 59.3730
" />
<path d="M40.1081 59.3730
L40.1081 59.5158
" />
<path d="M41.6081 59.5158
L40.7509 59.5158
" />
<path d="M41.1795 59.5158
L41.1795 58.0158
" />
<path d="M41.1795 58.0158
L41.0367 58.2301
" />
<path d="M41.0367 58.2301
L40.8938 58.3730
" />
<path d="M40.8938 58.3730
L40.7509 58.4444
" />
<path d="M42.8938 58.5158
L42.8938 59.5158
" />
<path d="M42.2509 58.5158
L42.2509 59.3015
" />
<path d="M42.2509 59.3015
L42.3224 59.4444
" />
<path d="M42.3224 59.4444
L42.4652 59.5158
" />
<path d="M42.4652 59.5158
L42.6795 59.5158
" />
<path d="M42.6795 59.5158
L42.8224 59.4444
" />
<path d="M42.8224 59.4444
L42.8938 59.3730
" />
<path d="M44.1081 58.7301
L43.6081 58.7301
" />
<path d="M43.6081 59.5158
L43.6081 58.0158
" />
<path d="M43.6081 58.0158
L44.3224 58.0158
" />
</g><text x="57.1750" y="54.7601"
textLength="3.5286" font-size="2.0000" lengthAdjust="spacingAndGlyphs"
text-anchor="start" opacity="0">R4</text>
<g class="stroked-text"><desc>R4</desc>
<path d="M58.5867 54.5609
L58.0867 53.8466
" />
<path d="M57.7295 54.5609
L57.7295 53.0609
" />
<path d="M57.7295 53.0609
L58.3009 53.0609
" />
<path d="M58.3009 53.0609
L58.4438 53.1323
" />
<path d="M58.4438 53.1323
L58.5152 53.2038
" />
<path d="M58.5152 53.2038
L58.5867 53.3466
" />
<path d="M58.5867 53.3466
L58.5867 53.5609
" />
<path d="M58.5867 53.5609
L58.5152 53.7038
" />
<path d="M58.5152 53.7038
L58.4438 53.7752
" />
<path d="M58.4438 53.7752
L58.3009 53.8466
" />
<path d="M58.3009 53.8466
L57.7295 53.8466
" />
<path d="M59.8724 53.5609
L59.8724 54.5609
" />
<path d="M59.5152 52.9895
L59.1581 54.0609
" />
<path d="M59.1581 54.0609
L60.0867 54.0609
" />
</g><text x="57.1750" y="57.1750"
textLength="5.8857" font-size="2.0000" lengthAdjust="spacingAndGlyphs"
text-anchor="start" opacity="0">2.2M</text>
<g class="stroked-text"><desc>2.2M</desc>
<path d="M57.6581 55.6187
L57.7295 55.5473
" />
<path d="M57.7295 55.5473
L57.8724 55.4758
" />
<path d="M57.8724 55.4758
L58.2295 55.4758
" />
<path d="M58.2295 55.4758
L58.3724 55.5473
" />
<path d="M58.3724 55.5473
L58.4438 55.6187
" />
<path d="M58.4438 55.6187
L58.5152 55.7615
" />
<path d="M58.5152 55.7615
L58.5152 55.9044
" />
<path d="M58.5152 55.9044
L58.4438 56.1187
" />
<path d="M58.4438 56.1187
L57.5867 56.9758
" />
<path d="M57.5867 56.9758
L58.5152 56.9758
" />
<path d="M59.1581 56.8330
L59.2295 56.9044
" />
<path d="M59.2295 56.9044
L59.1581 56.9758
" />
<path d="M59.1581 56.9758
L59.0867 56.9044
" />
<path d="M59.0867 56.9044
L59.1581 56.8330
" />
<path d="M59.1581 56.8330
L59.1581 56.9758
" />
<path d="M59.8009 55.6187
L59.8724 55.5473
" />
<path d="M59.8724 55.5473
L60.0152 55.4758
" />
<path d="M60.0152 55.4758
L60.3724 55.4758
" />
<path d="M60.3724 55.4758
L60.5152 55.5473
" />
<path d="M60.5152 55.5473
L60.5867 55.6187
" />
<path d="M60.5867 55.6187
L60.6581 55.7615
" />
<path d="M60.6581 55.7615
L60.6581 55.9044
" />
<path d="M60.6581 55.9044
L60.5867 56.1187
" />
<path d="M60.5867 56.1187
L59.7295 56.9758
" />
<path d="M59.7295 56.9758
L60.6581 56.9758
" />
<path d="M61.3009 56.9758
L61.3009 55.4758
" />
<path d="M61.3009 55.4758
L61.8009 56.5473
" />
<path d="M61.8009 56.5473
L62.3009 55.4758
" />
<path d="M62.3009 55.4758
L62.3009 56.9758
" />
</g><text x="55.9050" y="38.2501"
textLength="3.5286" font-size="2.0000" lengthAdjust="spacingAndGlyphs"
text-anchor="start" opacity="0">C1</text>
<g class="stroked-text"><desc>C1</desc>
<path d="M57.3167 37.9081
L57.2452 37.9795
" />
<path d="M57.2452 37.9795
L57.0309 38.0509
" />
<path d="M57.0309 38.0509
L56.8881 38.0509
" />
<path d="M56.8881 38.0509
L56.6738 37.9795
" />
<path d="M56.6738 37.9795
L56.5309 37.8366
" />
<path d="M56.5309 37.8366
L56.4595 37.6938
" />
<path d="M56.4595 37.6938
L56.3881 37.4081
" />
<path d="M56.3881 37.4081
L56.3881 37.1938
" />
<path d="M56.3881 37.1938
L56.4595 36.9081
" />
<path d="M56.4595 36.9081
L56.5309 36.7652
" />
<path d="M56.5309 36.7652
L56.6738 36.6223
" />
<path d="M56.6738 36.6223
L56.8881 36.5509
" />
<path d="M56.8881 36.5509
L57.0309 36.5509
" />
<path d="M57.0309 36.5509
L57.2452 36.6223
" />
<path d="M57.2452 36.6223
L57.3167 36.6938
" />
<path d="M58.7452 38.0509
L57.8881 38.0509
" />
<path d="M58.3167 38.0509
L58.3167 36.5509
" />
<path d="M58.3167 36.5509
L58.1738 36.7652
" />
<path d="M58.1738 36.7652
L58.0309 36.9081
" />
<path d="M58.0309 36.9081
L57.8881 36.9795
" />
</g><text x="55.9050" y="40.6650"
textLength="6.8143" font-size="2.0000" lengthAdjust="spacingAndGlyphs"
text-anchor="start" opacity="0">2.2uF</text>
<g class="stroked-text"><desc>2.2uF</desc>
<path d="M56.3881 39.1087
L56.4595 39.0373
" />
<path d="M56.4595 39.0373
L56.6024 38.9658
" />
<path d="M56.6024 38.9658
L56.9595 38.9658
" />
<path d="M56.9595 38.9658
L57.1024 39.0373
" />
<path d="M57.1024 39.0373
L57.1738 39.1087
" />
<path d="M57.1738 39.1087
L57.2452 39.2515
" />
<path d="M57.2452 39.2515
L57.2452 39.3944
" />
<path d="M57.2452 39.3944
L57.1738 39.6087
" />
<path d="M57.1738 39.6087
L56.3167 40.4658
" />
<path d="M56.3167 40.4658
L57.2452 40.4658
" />
<path d="M57.8881 40.3230
L57.9595 40.3944
" />
<path d="M57.9595 40.3944
L57.8881 40.4658
" />
<path d="M57.8881 40.4658
L57.8167 40.3944
" />
<path d="M57.8167 40.3944
L57.8881 40.3230
" />
<path d="M57.8881 40.3230
L57.8881 40.4658
" />
<path d="M58.5309 39.1087
L58.6024 39.0373
" />
<path d="M58.6024 39.0373
L58.7452 38.9658
" />
<path d="M58.7452 38.9658
L59.1024 38.9658
" />
<path d="M59.1024 38.9658
L59.2452 39.0373
" />
<path d="M59.2452 39.0373
L59.3167 39.1087
" />
<path d="M59.3167 39.1087
L59.3881 39.2515
" />
<path d="M59.3881 39.2515
L59.3881 39.3944
" />
<path d="M59.3881 39.3944
L59.3167 39.6087
" />
<path d="M59.3167 39.6087
L58.4595 40.4658
" />
<path d="M58.4595 40.4658
L59.3881 40.4658
" />
<path d="M60.6738 39.4658
L60.6738 40.4658
" />
<path d="M60.0309 39.4658
L60.0309 40.2515
" />
<path d="M60.0309 40.2515
L60.1024 40.3944
" />
<path d="M60.1024 40.3944
L60.2452 40.4658
" />
<path d="M60.2452 40.4658
L60.4595 40.4658
" />
<path d="M60.4595 40.4658
L60.6024 40.3944
" />
<path d="M60.6024 40.3944
L60.6738 40.3230
" />
<path d="M61.8881 39.6801
L61.3881 39.6801
" />
<path d="M61.3881 40.4658
L61.3881 38.9658
" />
<path d="M61.3881 38.9658
L62.1024 38.9658
" />
</g><text x="57.1750" y="5.1050"
textLength="4.1714" font-size="2.0000" lengthAdjust="spacingAndGlyphs"
text-anchor="start" opacity="0">VIN</text>
<g class="stroked-text"><desc>VIN</desc>
<path d="M57.5152 3.4058
L58.0152 4.9058
" />
<path d="M58.0152 4.9058
L58.5152 3.4058
" />
<path d="M59.0152 4.9058
L59.0152 3.4058
" />
<path d="M59.7295 4.9058
L59.7295 3.4058
" />
<path d="M59.7295 3.4058
L60.5867 4.9058
" />
<path d="M60.5867 4.9058
L60.5867 3.4058
" />
</g><g transform="rotate(-90.000000 73.8101 48.2850)">
<text x="73.8101" y="48.2850"
textLength="35.8143" font-size="2.0000" lengthAdjust="spacingAndGlyphs"
text-anchor="start" opacity="0">multi-channel preamp output </text>
</g>
<g class="stroked-text"><desc>multi-channel preamp output </desc>
<path d="M73.6109 47.7305
L72.6109 47.7305
" />
<path d="M72.7538 47.7305
L72.6823 47.6591
" />
<path d="M72.6823 47.6591
L72.6109 47.5162
" />
<path d="M72.6109 47.5162
L72.6109 47.3019
" />
<path d="M72.6109 47.3019
L72.6823 47.1591
" />
<path d="M72.6823 47.1591
L72.8252 47.0876
" />
<path d="M72.8252 47.0876
L73.6109 47.0876
" />
<path d="M72.8252 47.0876
L72.6823 47.0162
" />
<path d="M72.6823 47.0162
L72.6109 46.8733
" />
<path d="M72.6109 46.8733
L72.6109 46.6591
" />
<path d="M72.6109 46.6591
L72.6823 46.5162
" />
<path d="M72.6823 46.5162
L72.8252 46.4448
" />
<path d="M72.8252 46.4448
L73.6109 46.4448
" />
<path d="M72.6109 45.0876
L73.6109 45.0876
" />
<path d="M72.6109 45.7305
L73.3966 45.7305
" />
<path d="M73.3966 45.7305
L73.5395 45.6591
" />
<path d="M73.5395 45.6591
L73.6109 45.5162
" />
<path d="M73.6109 45.5162
L73.6109 45.3019
" />
<path d="M73.6109 45.3019
L73.5395 45.1591
" />
<path d="M73.5395 45.1591
L73.4681 45.0876
" />
<path d="M73.6109 44.1591
L73.5395 44.3019
" />
<path d="M73.5395 44.3019
L73.3966 44.3733
" />
<path d="M73.3966 44.3733
L72.1109 44.3733
" />
<path d="M72.6109 43.8019
L72.6109 43.2305
" />
<path d="M72.1109 43.5876
L73.3966 43.5876
" />
<path d="M73.3966 43.5876
L73.5395 43.5162
" />
<path d="M73.5395 43.5162
L73.6109 43.3733
" />
<path d="M73.6109 43.3733
L73.6109 43.2305
" />
<path d="M73.6109 42.7305
L72.6109 42.7305
" />
<path d="M72.1109 42.7305
L72.1823 42.8019
" />
<path d="M72.1823 42.8019
L72.2538 42.7305
" />
<path d="M72.2538 42.7305
L72.1823 42.6591
" />
<path d="M72.1823 42.6591
L72.1109 42.7305
" />
<path d="M72.1109 42.7305
L72.2538 42.7305
" />
<path d="M73.0395 42.0162
L73.0395 40.8733
" />
<path d="M73.5395 39.5162
L73.6109 39.6591
" />
<path d="M73.6109 39.6591
L73.6109 39.9448
" />
<path d="M73.6109 39.9448
L73.5395 40.0876
" />
<path d="M73.5395 40.0876
L73.4681 40.1591
" />
<path d="M73.4681 40.1591
L73.3252 40.2305
" />
<path d="M73.3252 40.2305
L72.8966 40.2305
" />
<path d="M72.8966 40.2305
L72.7538 40.1591
" />
<path d="M72.7538 40.1591
L72.6823 40.0876
" />
<path d="M72.6823 40.0876
L72.6109 39.9448
" />
<path d="M72.6109 39.9448
L72.6109 39.6591
" />
<path d="M72.6109 39.6591
L72.6823 39.5162
" />
<path d="M73.6109 38.8733
L72.1109 38.8733
" />
<path d="M73.6109 38.2305
L72.8252 38.2305
" />
<path d="M72.8252 38.2305
L72.6823 38.3019
" />
<path d="M72.6823 38.3019
L72.6109 38.4448
" />
<path d="M72.6109 38.4448
L72.6109 38.6591
" />
<path d="M72.6109 38.6591
L72.6823 38.8019
" />
<path d="M72.6823 38.8019
L72.7538 38.8733
" />
<path d="M73.6109 36.8733
L72.8252 36.8733
" />
<path d="M72.8252 36.8733
L72.6823 36.9448
" />
<path d="M72.6823 36.9448
L72.6109 37.0876
" />
<path d="M72.6109 37.0876
L72.6109 37.3733
" />
<path d="M72.6109 37.3733
L72.6823 37.5162
" />
<path d="M73.5395 36.8733
L73.6109 37.0162
" />
<path d="M73.6109 37.0162
L73.6109 37.3733
" />
<path d="M73.6109 37.3733
L73.5395 37.5162
" />
<path d="M73.5395 37.5162
L73.3966 37.5876
" />
<path d="M73.3966 37.5876
L73.2538 37.5876
" />
<path d="M73.2538 37.5876
L73.1109 37.5162
" />
<path d="M73.1109 37.5162
L73.0395 37.3733
" />
<path d="M73.0395 37.3733
L73.0395 37.0162
" />
<path d="M73.0395 37.0162
L72.9681 36.8733
" />
<path d="M72.6109 36.1591
L73.6109 36.1591
" />
<path d="M72.7538 36.1591
L72.6823 36.0876
" />
<path d="M72.6823 36.0876
L72.6109 35.9448
" />
<path d="M72.6109 35.9448
L72.6109 35.7305
" />
<path d="M72.6109 35.7305
L72.6823 35.5876
" />
<path d="M72.6823 35.5876
L72.8252 35.5162
" />
<path d="M72.8252 35.5162
L73.6109 35.5162
" />
<path d="M72.6109 34.8019
L73.6109 34.8019
" />
<path d="M72.7538 34.8019
L72.6823 34.7305
" />
<path d="M72.6823 34.7305
L72.6109 34.5876
" />
<path d="M72.6109 34.5876
L72.6109 34.3733
" />
<path d="M72.6109 34.3733
L72.6823 34.2305
" />
<path d="M72.6823 34.2305
L72.8252 34.1591
" />
<path d="M72.8252 34.1591
L73.6109 34.1591
" />
<path d="M73.5395 32.8733
L73.6109 33.0162
" />
<path d="M73.6109 33.0162
L73.6109 33.3019
" />
<path d="M73.6109 33.3019
L73.5395 33.4448
" />
<path d="M73.5395 33.4448
L73.3966 33.5162
" />
<path d="M73.3966 33.5162
L72.8252 33.5162
" />
<path d="M72.8252 33.5162
L72.6823 33.4448
" />
<path d="M72.6823 33.4448
L72.6109 33.3019
" />
<path d="M72.6109 33.3019
L72.6109 33.0162
" />
<path d="M72.6109 33.0162
L72.6823 32.8733
" />
<path d="M72.6823 32.8733
L72.8252 32.8019
" />
<path d="M72.8252 32.8019
L72.9681 32.8019
" />
<path d="M72.9681 32.8019
L73.1109 33.5162
" />
<path d="M73.6109 31.9448
L73.5395 32.0876
" />
<path d="M73.5395 32.0876
L73.3966 32.1591
" />
<path d="M73.3966 32.1591
L72.1109 32.1591
" />
<path d="M72.6109 30.2305
L74.1109 30.2305
" />
<path d="M72.6823 30.2305
L72.6109 30.0876
" />
<path d="M72.6109 30.0876
L72.6109 29.8019
" />
<path d="M72.6109 29.8019
L72.6823 29.6591
" />
<path d="M72.6823 29.6591
L72.7538 29.5876
" />
<path d="M72.7538 29.5876
L72.8966 29.5162
" />
<path d="M72.8966 29.5162
L73.3252 29.5162
" />
<path d="M73.3252 29.5162
L73.4681 29.5876
" />
<path d="M73.4681 29.5876
L73.5395 29.6591
" />
<path d="M73.5395 29.6591
L73.6109 29.8019
" />
<path d="M73.6109 29.8019
L73.6109 30.0876
" />
<path d="M73.6109 30.0876
L73.5395 30.2305
" />
<path d="M73.6109 28.8733
L72.6109 28.8733
" />
<path d="M72.8966 28.8733
L72.7538 28.8019
" />
<path d="M72.7538 28.8019
L72.6823 28.7305
" />
<path d="M72.6823 28.7305
L72.6109 28.5876
" />
<path d="M72.6109 28.5876
L72.6109 28.4448
" />
<path d="M73.5395 27.3733
L73.6109 27.5162
" />
<path d="M73.6109 27.5162
L73.6109 27.8019
" />
<path d="M73.6109 27.8019
L73.5395 27.9448
" />
<path d="M73.5395 27.9448
L73.3966 28.0162
" />
<path d="M73.3966 28.0162
L72.8252 28.0162
" />
<path d="M72.8252 28.0162
L72.6823 27.9448
" />
<path d="M72.6823 27.9448
L72.6109 27.8019
" />
<path d="M72.6109 27.8019
L72.6109 27.5162
" />
<path d="M72.6109 27.5162
L72.6823 27.3733
" />
<path d="M72.6823 27.3733
L72.8252 27.3019
" />
<path d="M72.8252 27.3019
L72.9681 27.3019
" />
<path d="M72.9681 27.3019
L73.1109 28.0162
" />
<path d="M73.6109 26.0162
L72.8252 26.0162
" />
<path d="M72.8252 26.0162
L72.6823 26.0876
" />
<path d="M72.6823 26.0876
L72.6109 26.2305
" />
<path d="M72.6109 26.2305
L72.6109 26.5162
" />
<path d="M72.6109 26.5162
L72.6823 26.6591
" />
<path d="M73.5395 26.0162
L73.6109 26.1591
" />
<path d="M73.6109 26.1591
L73.6109 26.5162
" />
<path d="M73.6109 26.5162
L73.5395 26.6591
" />
<path d="M73.5395 26.6591
L73.3966 26.7305
" />
<path d="M73.3966 26.7305
L73.2538 26.7305
" />
<path d="M73.2538 26.7305
L73.1109 26.6591
" />
<path d="M73.1109 26.6591
L73.0395 26.5162
" />
<path d="M73.0395 26.5162
L73.0395 26.1591
" />
<path d="M73.0395 26.1591
L72.9681 26.0162
" />
<path d="M73.6109 25.3019
L72.6109 25.3019
" />
<path d="M72.7538 25.3019
L72.6823 25.2305
" />
<path d="M72.6823 25.2305
L72.6109 25.0876
" />
<path d="M72.6109 25.0876
L72.6109 24.8733
" />
<path d="M72.6109 24.8733
L72.6823 24.7305
" />
<path d="M72.6823 24.7305
L72.8252 24.6591
" />
<path d="M72.8252 24.6591
L73.6109 24.6591
" />
<path d="M72.8252 24.6591
L72.6823 24.5876
" />
<path d="M72.6823 24.5876
L72.6109 24.4448
" />
<path d="M72.6109 24.4448
L72.6109 24.2305
" />
<path d="M72.6109 24.2305
L72.6823 24.0876
" />
<path d="M72.6823 24.0876
L72.8252 24.0162
" />
<path d="M72.8252 24.0162
L73.6109 24.0162
" />
<path d="M72.6109 23.3019
L74.1109 23.3019
" />
<path d="M72.6823 23.3019
L72.6109 23.1591
" />
<path d="M72.6109 23.1591
L72.6109 22.8733
" />
<path d="M72.6109 22.8733
L72.6823 22.7305
" />
<path d="M72.6823 22.7305
L72.7538 22.6591
" />
<path d="M72.7538 22.6591
L72.8966 22.5876
" />
<path d="M72.8966 22.5876
L73.3252 22.5876
" />
<path d="M73.3252 22.5876
L73.4681 22.6591
" />
<path d="M73.4681 22.6591
L73.5395 22.7305
" />
<path d="M73.5395 22.7305
L73.6109 22.8733
" />
<path d="M73.6109 22.8733
L73.6109 23.1591
" />
<path d="M73.6109 23.1591
L73.5395 23.3019
" />
<path d="M73.6109 20.5876
L73.5395 20.7305
" />
<path d="M73.5395 20.7305
L73.4681 20.8019
" />
<path d="M73.4681 20.8019
L73.3252 20.8733
" />
<path d="M73.3252 20.8733
L72.8966 20.8733
" />
<path d="M72.8966 20.8733
L72.7538 20.8019
" />
<path d="M72.7538 20.8019
L72.6823 20.7305
" />
<path d="M72.6823 20.7305
L72.6109 20.5876
" />
<path d="M72.6109 20.5876
L72.6109 20.3733
" />
<path d="M72.6109 20.3733
L72.6823 20.2305
" />
<path d="M72.6823 20.2305
L72.7538 20.1591
" />
<path d="M72.7538 20.1591
L72.8966 20.0876
" />
<path d="M72.8966 20.0876
L73.3252 20.0876
" />
<path d="M73.3252 20.0876
L73.4681 20.1591
" />
<path d="M73.4681 20.1591
L73.5395 20.2305
" />
<path d="M73.5395 20.2305
L73.6109 20.3733
" />
<path d="M73.6109 20.3733
L73.6109 20.5876
" />
<path d="M72.6109 18.8019
L73.6109 18.8019
" />
<path d="M72.6109 19.4448
L73.3966 19.4448
" />
<path d="M73.3966 19.4448
L73.5395 19.3733
" />
<path d="M73.5395 19.3733
L73.6109 19.2305
" />
<path d="M73.6109 19.2305
L73.6109 19.0162
" />
<path d="M73.6109 19.0162
L73.5395 18.8733
" />
<path d="M73.5395 18.8733
L73.4681 18.8019
" />
<path d="M72.6109 18.3019
L72.6109 17.7305
" />
<path d="M72.1109 18.0876
L73.3966 18.0876
" />
<path d="M73.3966 18.0876
L73.5395 18.0162
" />
<path d="M73.5395 18.0162
L73.6109 17.8733
" />
<path d="M73.6109 17.8733
L73.6109 17.7305
" />
<path d="M72.6109 17.2305
L74.1109 17.2305
" />
<path d="M72.6823 17.2305
L72.6109 17.0876
" />
<path d="M72.6109 17.0876
L72.6109 16.8019
" />
<path d="M72.6109 16.8019
L72.6823 16.6591
" />
<path d="M72.6823 16.6591
L72.7538 16.5876
" />
<path d="M72.7538 16.5876
L72.8966 16.5162
" />
<path d="M72.8966 16.5162
L73.3252 16.5162
" />
<path d="M73.3252 16.5162
L73.4681 16.5876
" />
<path d="M73.4681 16.5876
L73.5395 16.6591
" />
<path d="M73.5395 16.6591
L73.6109 16.8019
" />
<path d="M73.6109 16.8019
L73.6109 17.0876
" />
<path d="M73.6109 17.0876
L73.5395 17.2305
" />
<path d="M72.6109 15.2305
L73.6109 15.2305
" />
<path d="M72.6109 15.8733
L73.3966 15.8733
" />
<path d="M73.3966 15.8733
L73.5395 15.8019
" />
<path d="M73.5395 15.8019
L73.6109 15.6591
" />
<path d="M73.6109 15.6591
L73.6109 15.4448
" />
<path d="M73.6109 15.4448
L73.5395 15.3019
" />
<path d="M73.5395 15.3019
L73.4681 15.2305
" />
<path d="M72.6109 14.7305
L72.6109 14.1591
" />
<path d="M72.1109 14.5162
L73.3966 14.5162
" />
<path d="M73.3966 14.5162
L73.5395 14.4448
" />
<path d="M73.5395 14.4448
L73.6109 14.3019
" />
<path d="M73.6109 14.3019
L73.6109 14.1591
" />
</g><g transform="rotate(-90.000000 76.2250 48.2850)">
<text x="76.2250" y="48.2850"
textLength="15.7429" font-size="2.0000" lengthAdjust="spacingAndGlyphs"
text-anchor="start" opacity="0">2024-06-14</text>
</g>
<g class="stroked-text"><desc>2024-06-14</desc>
<path d="M74.6687 47.8019
L74.5973 47.7305
" />
<path d="M74.5973 47.7305
L74.5258 47.5876
" />
<path d="M74.5258 47.5876
L74.5258 47.2305
" />
<path d="M74.5258 47.2305
L74.5973 47.0876
" />
<path d="M74.5973 47.0876
L74.6687 47.0162
" />
<path d="M74.6687 47.0162
L74.8115 46.9448
" />
<path d="M74.8115 46.9448
L74.9544 46.9448
" />
<path d="M74.9544 46.9448
L75.1687 47.0162
" />
<path d="M75.1687 47.0162
L76.0258 47.8733
" />
<path d="M76.0258 47.8733
L76.0258 46.9448
" />
<path d="M74.5258 46.0162
L74.5258 45.8733
" />
<path d="M74.5258 45.8733
L74.5973 45.7305
" />
<path d="M74.5973 45.7305
L74.6687 45.6591
" />
<path d="M74.6687 45.6591
L74.8115 45.5876
" />
<path d="M74.8115 45.5876
L75.0973 45.5162
" />
<path d="M75.0973 45.5162
L75.4544 45.5162
" />
<path d="M75.4544 45.5162
L75.7401 45.5876
" />
<path d="M75.7401 45.5876
L75.8830 45.6591
" />
<path d="M75.8830 45.6591
L75.9544 45.7305
" />
<path d="M75.9544 45.7305
L76.0258 45.8733
" />
<path d="M76.0258 45.8733
L76.0258 46.0162
" />
<path d="M76.0258 46.0162
L75.9544 46.1591
" />
<path d="M75.9544 46.1591
L75.8830 46.2305
" />
<path d="M75.8830 46.2305
L75.7401 46.3019
" />
<path d="M75.7401 46.3019
L75.4544 46.3733
" />
<path d="M75.4544 46.3733
L75.0973 46.3733
" />
<path d="M75.0973 46.3733
L74.8115 46.3019
" />
<path d="M74.8115 46.3019
L74.6687 46.2305
" />
<path d="M74.6687 46.2305
L74.5973 46.1591
" />
<path d="M74.5973 46.1591
L74.5258 46.0162
" />
<path d="M74.6687 44.9448
L74.5973 44.8733
" />
<path d="M74.5973 44.8733
L74.5258 44.7305
" />
<path d="M74.5258 44.7305
L74.5258 44.3733
" />
<path d="M74.5258 44.3733
L74.5973 44.2305
" />
<path d="M74.5973 44.2305
L74.6687 44.1591
" />
<path d="M74.6687 44.1591
L74.8115 44.0876
" />
<path d="M74.8115 44.0876
L74.9544 44.0876
" />
<path d="M74.9544 44.0876
L75.1687 44.1591
" />
<path d="M75.1687 44.1591
L76.0258 45.0162
" />
<path d="M76.0258 45.0162
L76.0258 44.0876
" />
<path d="M75.0258 42.8019
L76.0258 42.8019
" />
<path d="M74.4544 43.1591
L75.5258 43.5162
" />
<path d="M75.5258 43.5162
L75.5258 42.5876
" />
<path d="M75.4544 42.0162
L75.4544 40.8733
" />
<path d="M74.5258 39.8733
L74.5258 39.7305
" />
<path d="M74.5258 39.7305
L74.5973 39.5876
" />
<path d="M74.5973 39.5876
L74.6687 39.5162
" />
<path d="M74.6687 39.5162
L74.8115 39.4448
" />
<path d="M74.8115 39.4448
L75.0973 39.3733
" />
<path d="M75.0973 39.3733
L75.4544 39.3733
" />
<path d="M75.4544 39.3733
L75.7401 39.4448
" />
<path d="M75.7401 39.4448
L75.8830 39.5162
" />
<path d="M75.8830 39.5162
L75.9544 39.5876
" />
<path d="M75.9544 39.5876
L76.0258 39.7305
" />
<path d="M76.0258 39.7305
L76.0258 39.8733
" />
<path d="M76.0258 39.8733
L75.9544 40.0162
" />
<path d="M75.9544 40.0162
L75.8830 40.0876
" />
<path d="M75.8830 40.0876
L75.7401 40.1591
" />
<path d="M75.7401 40.1591
L75.4544 40.2305
" />
<path d="M75.4544 40.2305
L75.0973 40.2305
" />
<path d="M75.0973 40.2305
L74.8115 40.1591
" />
<path d="M74.8115 40.1591
L74.6687 40.0876
" />
<path d="M74.6687 40.0876
L74.5973 40.0162
" />
<path d="M74.5973 40.0162
L74.5258 39.8733
" />
<path d="M74.5258 38.0876
L74.5258 38.3733
" />
<path d="M74.5258 38.3733
L74.5973 38.5162
" />
<path d="M74.5973 38.5162
L74.6687 38.5876
" />
<path d="M74.6687 38.5876
L74.8830 38.7305
" />
<path d="M74.8830 38.7305
L75.1687 38.8019
" />
<path d="M75.1687 38.8019
L75.7401 38.8019
" />
<path d="M75.7401 38.8019
L75.8830 38.7305
" />
<path d="M75.8830 38.7305
L75.9544 38.6591
" />
<path d="M75.9544 38.6591
L76.0258 38.5162
" />
<path d="M76.0258 38.5162
L76.0258 38.2305
" />
<path d="M76.0258 38.2305
L75.9544 38.0876
" />
<path d="M75.9544 38.0876
L75.8830 38.0162
" />
<path d="M75.8830 38.0162
L75.7401 37.9448
" />
<path d="M75.7401 37.9448
L75.3830 37.9448
" />
<path d="M75.3830 37.9448
L75.2401 38.0162
" />
<path d="M75.2401 38.0162
L75.1687 38.0876
" />
<path d="M75.1687 38.0876
L75.0973 38.2305
" />
<path d="M75.0973 38.2305
L75.0973 38.5162
" />
<path d="M75.0973 38.5162
L75.1687 38.6591
" />
<path d="M75.1687 38.6591
L75.2401 38.7305
" />
<path d="M75.2401 38.7305
L75.3830 38.8019
" />
<path d="M75.4544 37.3019
L75.4544 36.1591
" />
<path d="M76.0258 34.6591
L76.0258 35.5162
" />
<path d="M76.0258 35.0876
L74.5258 35.0876
" />
<path d="M74.5258 35.0876
L74.7401 35.2305
" />
<path d="M74.7401 35.2305
L74.8830 35.3733
" />
<path d="M74.8830 35.3733
L74.9544 35.5162
" />
<path d="M75.0258 33.3733
L76.0258 33.3733
" />
<path d="M74.4544 33.7305
L75.5258 34.0876
" />
<path d="M75.5258 34.0876
L75.5258 33.1591
" />
</g></g>
<g style="fill:#000000; fill-opacity:1.0000; stroke:none;">
<circle cx="53.3650" cy="53.3650" r="2.5000" /> 
</g>
<g style="fill:#000000; fill-opacity:1.0000; stroke:none;">
<circle cx="66.0650" cy="53.3650" r="2.5000" /> 
</g>
<g style="fill:#000000; fill-opacity:1.0000; stroke:none;">
<circle cx="19.0750" cy="39.3950" r="2.5000" /> 
</g>
<g style="fill:#000000; fill-opacity:1.0000; stroke:none;">
<circle cx="19.0750" cy="26.6950" r="2.5000" /> 
</g>
<g style="fill:#000000; fill-opacity:1.0000; stroke:none;">
<circle cx="11.4550" cy="39.3950" r="2.5000" /> 
</g>
<g style="fill:#000000; fill-opacity:1.0000; stroke:none;">
<circle cx="11.4550" cy="26.6950" r="2.5000" /> 
</g>
<g style="fill:#000000; fill-opacity:1.0000; stroke:none;">
<circle cx="31.7750" cy="11.4550" r="2.5000" /> 
</g>
<g style="fill:#000000; fill-opacity:1.0000; stroke:none;">
<circle cx="44.4750" cy="11.4550" r="2.5000" /> 
</g>
<g style="fill:#000000; fill-opacity:1.0000; stroke:none;">
<circle cx="45.6250" cy="53.3650" r="2.5000" /> 
</g>
<g style="fill:#000000; fill-opacity:1.0000; stroke:none;">
<circle cx="30.6250" cy="53.3650" r="2.5000" /> 
</g>
<g style="fill:#000000; fill-opacity:1.0000; stroke:none;">
<circle cx="59.7150" cy="32.0150" r="2.5000" /> 
</g>
<g style="fill:#000000; fill-opacity:1.0000; stroke:none;">
<circle cx="59.7150" cy="47.0150" r="2.5000" /> 
<path style="fill:#000000; fill-opacity:1.0000; stroke:none;fill-rule:evenodd;"
d="M 11.0550,56.8650
11.0550,49.8650
14.5550,49.8650
14.5550,56.8650
Z" /> 
</g>
<g style="fill:none; 
stroke:#000000; stroke-width:3.5000; stroke-opacity:1; 
stroke-linecap:round; stroke-linejoin:round;">
<path d="M17.8050 51.6150
L17.8050 55.1150
" />
<path style="fill:#000000; fill-opacity:1.0000; stroke:none;fill-rule:evenodd;"
d="M 20.8250,8.2600
20.8250,15.2600
17.3250,15.2600
17.3250,8.2600
Z" /> 
</g>
<g style="fill:none; 
stroke:#000000; stroke-width:3.5000; stroke-opacity:1; 
stroke-linecap:round; stroke-linejoin:round;">
<path d="M14.0750 13.5100
L14.0750 10.0100
" />
<path style="fill:#000000; fill-opacity:1.0000; stroke:none;fill-rule:evenodd;"
d="M 44.1196,35.4467
49.1196,35.4467
49.1196,40.4467
44.1196,40.4467
Z" /> 
</g>
<g style="fill:none; 
stroke:#000000; stroke-width:3.5000; stroke-opacity:1; 
stroke-linecap:round; stroke-linejoin:round;">
<path d="M49.3750 31.7750
L47.8750 31.7750
" />
<path d="M47.3696 25.6033
L45.8696 25.6033
" />
<path d="M41.3696 21.0390
L41.3696 22.5390
" />
<path d="M34.8804 21.0390
L34.8804 22.5390
" />
<path d="M30.3804 25.6033
L28.8804 25.6033
" />
<path d="M28.3750 31.7750
L26.8750 31.7750
" />
<path d="M30.3804 37.9467
L28.8804 37.9467
" />
<path d="M34.8804 41.0110
L34.8804 42.5110
" />
<path style="fill:#000000; fill-opacity:1.0000; stroke:none;fill-rule:evenodd;"
d="M 56.2150,7.2450
63.2150,7.2450
63.2150,10.7450
56.2150,10.7450
Z" /> 
</g>
<g style="fill:none; 
stroke:#000000; stroke-width:3.5000; stroke-opacity:1; 
stroke-linecap:round; stroke-linejoin:round;">
<path d="M61.4650 13.9950
L57.9650 13.9950
" />
<path style="fill:#000000; fill-opacity:1.0000; stroke:none;fill-rule:evenodd;"
d="M 55.9100,18.6350
62.9100,18.6350
62.9100,22.1350
55.9100,22.1350
Z" /> 
</g>
<g style="fill:none; 
stroke:#000000; stroke-width:3.5000; stroke-opacity:1; 
stroke-linecap:round; stroke-linejoin:round;">
<path d="M61.1600 25.3850
L57.6600 25.3850
" />
</g>
<g style="fill:none; 
stroke:#000000; stroke-width:2.0000; stroke-opacity:1; 
stroke-linecap:round; stroke-linejoin:round;">
<path d="M59.7150 47.0150
L64.9100 41.8200
" />
<path d="M64.9100 41.8200
L64.9100 23.8317
" />
<path d="M64.9100 23.8317
L61.4633 20.3850
" />
<path d="M61.4633 20.3850
L59.4100 20.3850
" />
<path d="M53.3650 53.3650
L59.7150 47.0150
" />
<path d="M11.4550 39.3950
L21.5550 49.4950
" />
<path d="M21.5550 49.4950
L21.5550 52.0350
" />
<path d="M35.5850 48.5189
L29.6304 42.5643
" />
<path d="M21.5550 52.0350
L27.3850 57.8650
" />
<path d="M27.3850 57.8650
L32.4890 57.8650
" />
<path d="M32.4890 57.8650
L35.5850 54.7690
" />
<path d="M35.5850 54.7690
L35.5850 48.5189
" />
<path d="M29.6304 42.5643
L29.6304 37.9467
" />
<path d="M19.0750 39.3950
L20.0050 39.3950
" />
<path d="M20.0050 39.3950
L27.6250 31.7750
" />
<path d="M30.6250 53.3650
L30.6250 50.9450
" />
<path d="M30.6250 50.9450
L19.0750 39.3950
" />
<path d="M45.6250 53.3650
L45.6250 38.9413
" />
<path d="M45.6250 38.9413
L46.6196 37.9467
" />
<path d="M44.4750 11.4550
L44.4750 12.7250
" />
<path d="M51.1196 37.9467
L46.6196 37.9467
" />
<path d="M44.4750 12.7250
L53.1250 21.3750
" />
<path d="M53.1250 21.3750
L53.1250 35.9413
" />
<path d="M53.1250 35.9413
L51.1196 37.9467
" />
<path d="M31.7750 11.4550
L19.3800 11.4550
" />
<path d="M19.3800 11.4550
L19.0750 11.7600
" />
<path style="fill:#000000; fill-opacity:1.0000; stroke:none;fill-rule:evenodd;"
d="M 55.3279,22.9513
55.3566,22.9747
55.5370,23.0689
55.7326,23.1249
55.8520,23.1355
56.5935,23.1355
56.6605,23.1552
56.7063,23.2080
56.7162,23.2771
56.6872,23.3407
56.6555,23.3669
56.4073,23.5102
56.4073,23.5102
56.1733,23.6897
56.1733,23.6897
55.9647,23.8983
55.9647,23.8983
55.7852,24.1323
55.7852,24.1323
55.6377,24.3877
55.6377,24.3877
55.5248,24.6602
55.5248,24.6602
55.4485,24.9451
55.4485,24.9451
55.4235,25.1350
58.8100,25.1350
58.7850,25.1954
58.7600,25.3210
58.7600,25.4490
58.7850,25.5746
58.8100,25.6350
55.4235,25.6350
55.4485,25.8249
55.4485,25.8249
55.5248,26.1098
55.5248,26.1098
55.6377,26.3823
55.6377,26.3823
55.7852,26.6377
55.7852,26.6377
55.9647,26.8717
55.9647,26.8717
56.1733,27.0803
56.1733,27.0803
56.4073,27.2598
56.4073,27.2598
56.6627,27.4073
56.6627,27.4073
56.9352,27.5202
56.9352,27.5202
57.2201,27.5965
57.2201,27.5965
57.5125,27.6350
57.5125,27.6350
59.1600,27.6350
59.1600,25.9850
59.2204,26.0100
59.3460,26.0350
59.4740,26.0350
59.5996,26.0100
59.6600,25.9850
59.6600,27.6350
61.3075,27.6350
61.3075,27.6350
61.5999,27.5965
61.5999,27.5965
61.8848,27.5202
61.8848,27.5202
62.1573,27.4073
62.1573,27.4073
62.4127,27.2598
62.4127,27.2598
62.6467,27.0803
62.6467,27.0803
62.6978,27.0292
62.7591,26.9957
62.8288,27.0007
62.8848,27.0425
62.9092,27.1080
62.9095,27.1168
62.9095,30.0883
62.8898,30.1553
62.8370,30.2011
62.7679,30.2110
62.7043,30.1820
62.6815,30.1558
62.5509,29.9546
62.4486,29.8283
62.3199,29.6695
62.0605,29.4101
62.0280,29.3837
61.7754,29.1791
61.4677,28.9793
61.1407,28.8127
60.7982,28.6813
60.7982,28.6813
60.4438,28.5863
60.4438,28.5863
60.4438,28.5863
60.0814,28.5289
59.7150,28.5097
59.7150,28.5097
59.3486,28.5289
58.9862,28.5863
58.9862,28.5863
58.6318,28.6813
58.2893,28.8127
57.9623,28.9793
57.6546,29.1791
57.3695,29.4100
57.3695,29.4101
57.1101,29.6695
57.1100,29.6695
56.8791,29.9546
56.6793,30.2623
56.5127,30.5893
56.3813,30.9318
56.2863,31.2862
56.2863,31.2862
56.2289,31.6486
56.2097,32.0150
56.2097,32.0150
56.2289,32.3814
56.2536,32.5376
56.2863,32.7438
56.3092,32.8292
56.3813,33.0982
56.5127,33.4407
56.6793,33.7677
56.8791,34.0754
56.9688,34.1861
57.1101,34.3605
57.3695,34.6199
57.4757,34.7059
57.6546,34.8509
57.9623,35.0507
57.9623,35.0507
58.1531,35.1479
58.1731,35.1581
58.2239,35.2061
58.2407,35.2739
58.2182,35.3400
58.1635,35.3835
58.1168,35.3926
55.2495,35.3926
55.1825,35.3729
55.1367,35.3201
55.1255,35.2686
55.1255,23.0474
55.1452,22.9803
55.1980,22.9346
55.2671,22.9246
Z" /> 
<path style="fill:#000000; fill-opacity:1.0000; stroke:none;fill-rule:evenodd;"
d="M 78.7080,1.3147
78.7538,1.3675
78.7650,1.4190
78.7650,62.1310
78.7453,62.1980
78.6925,62.2438
78.6410,62.2550
1.4190,62.2550
1.3520,62.2353
1.3062,62.1825
1.2950,62.1310
1.2950,61.9431
10.8540,61.9431
19.9507,61.9431
19.9507,58.1303
10.8540,58.1303
10.8540,61.9431
1.2950,61.9431
1.2950,58.4450
1.7598,58.4450
1.7598,58.4450
1.7794,58.8067
1.8380,59.1641
1.8380,59.1641
1.9349,59.5131
1.9349,59.5131
2.0690,59.8496
2.0690,59.8496
2.2013,60.0991
2.2386,60.1696
2.4419,60.4694
2.6764,60.7455
2.9394,60.9946
3.2277,61.2138
3.5381,61.4005
3.5381,61.4005
3.5381,61.4005
3.5381,61.4005
3.8668,61.5526
3.8668,61.5526
4.2101,61.6683
4.5638,61.7461
4.9239,61.7853
4.9239,61.7853
5.2861,61.7853
5.2861,61.7853
5.6462,61.7461
5.9999,61.6683
6.3432,61.5526
6.6719,61.4005
6.9823,61.2138
7.2706,60.9946
7.5336,60.7455
7.7681,60.4694
7.9714,60.1696
8.1410,59.8496
8.2751,59.5131
8.3720,59.1641
8.4306,58.8067
8.4502,58.4450
8.4306,58.0833
8.3720,57.7259
8.3165,57.5261
8.2751,57.3769
8.2751,57.3769
8.1410,57.0404
8.1410,57.0404
8.1028,56.9684
7.9714,56.7204
7.7681,56.4206
7.5336,56.1445
7.2706,55.8954
7.2706,55.8954
7.2706,55.8954
7.1128,55.7754
6.9823,55.6762
6.6719,55.4895
6.6719,55.4895
6.6719,55.4895
6.6719,55.4895
6.3432,55.3374
6.3432,55.3374
6.3432,55.3374
6.1417,55.2695
5.9999,55.2217
5.6462,55.1439
5.2861,55.1047
5.2861,55.1047
4.9239,55.1047
4.9239,55.1047
4.5638,55.1439
4.2101,55.2217
3.9877,55.2966
3.8668,55.3374
3.8668,55.3374
3.8668,55.3374
3.5381,55.4895
3.5381,55.4895
3.3069,55.6285
3.2277,55.6762
3.1826,55.7105
2.9394,55.8954
2.9394,55.8954
2.6764,56.1445
2.4419,56.4206
2.2386,56.7204
2.0690,57.0404
2.0690,57.0404
1.9349,57.3769
1.9349,57.3769
1.8380,57.7259
1.8380,57.7259
1.7794,58.0833
1.7598,58.4450
1.2950,58.4450
1.2950,30.3137
6.9709,30.3137
6.9709,36.5442
9.0630,36.5442
9.1300,36.5638
9.1758,36.6166
9.1857,36.6858
9.1567,36.7494
9.1410,36.7645
9.1095,36.7900
9.1095,36.7901
8.8501,37.0495
8.8500,37.0495
8.6191,37.3346
8.4193,37.6423
8.2527,37.9693
8.1213,38.3118
8.0263,38.6662
8.0263,38.6662
7.9803,38.9569
7.9689,39.0286
7.9497,39.3950
7.9689,39.7614
8.0263,40.1238
8.0667,40.2745
8.1213,40.4782
8.2527,40.8207
8.4193,41.1477
8.6191,41.4554
8.7129,41.5712
8.8501,41.7405
9.1095,41.9999
9.1454,42.0290
9.3946,42.2309
9.4005,42.2347
9.7023,42.4307
10.0293,42.5973
10.3718,42.7287
10.7262,42.8237
11.0886,42.8811
11.4347,42.8992
11.4550,42.9003
11.4550,42.9003
11.4550,42.9003
11.4724,42.8994
11.8214,42.8811
12.0098,42.8513
12.0791,42.8602
12.1169,42.8860
17.8837,48.6528
17.9172,48.7141
17.9122,48.7838
17.8703,48.8398
17.8048,48.8642
17.7960,48.8645
17.6505,48.8645
17.3436,48.8991
17.3435,48.8991
17.0424,48.9678
17.0424,48.9678
16.7508,49.0699
16.7508,49.0699
16.4724,49.2039
16.2109,49.3683
15.9693,49.5609
15.7569,49.7733
15.6956,49.8068
15.6259,49.8018
15.5699,49.7600
15.5457,49.6966
15.5449,49.6876
15.5449,49.6876
15.5449,49.6876
15.4889,49.4920
15.3947,49.3116
15.3069,49.2039
15.2661,49.1539
15.1084,49.0253
15.1084,49.0253
15.1084,49.0253
14.9280,48.9311
14.9280,48.9311
14.9280,48.9311
14.8108,48.8975
14.7324,48.8751
14.7324,48.8751
14.7324,48.8751
14.6661,48.8692
14.6130,48.8645
14.6130,48.8645
10.9970,48.8645
10.9970,48.8645
10.9970,48.8645
10.9853,48.8655
10.8776,48.8751
10.6820,48.9311
10.6116,48.9678
10.5016,49.0253
10.5016,49.0253
10.5016,49.0253
10.3439,49.1539
10.2156,49.3112
10.2153,49.3116
10.1857,49.3683
10.1211,49.4920
10.0866,49.6123
10.0651,49.6876
10.0651,49.6876
10.0651,49.6876
10.0545,49.8070
10.0545,56.9230
10.0545,56.9230
10.0651,57.0424
10.1211,57.2380
10.1211,57.2380
10.1211,57.2380
10.2153,57.4184
10.2153,57.4184
10.3439,57.5761
10.4378,57.6527
10.5016,57.7047
10.6820,57.7989
10.8776,57.8549
10.9970,57.8655
14.6130,57.8655
14.7324,57.8549
14.9280,57.7989
15.1084,57.7047
15.2661,57.5761
15.3947,57.4184
15.4889,57.2380
15.5449,57.0424
15.5457,57.0334
15.5712,56.9684
15.6279,56.9274
15.6976,56.9237
15.7569,56.9567
15.9693,57.1691
16.2109,57.3617
16.4724,57.5261
16.7508,57.6601
16.7508,57.6601
17.0424,57.7622
17.0424,57.7622
17.3435,57.8309
17.3436,57.8309
17.3436,57.8309
17.5482,57.8540
17.6505,57.8655
17.6505,57.8655
17.6505,57.8655
17.9595,57.8655
17.9595,57.8655
18.1164,57.8478
18.2664,57.8309
18.2664,57.8309
18.2665,57.8309
18.5676,57.7622
18.8592,57.6601
19.1376,57.5261
19.3991,57.3617
19.6407,57.1691
19.8591,56.9507
20.0517,56.7091
20.2161,56.4476
20.3501,56.1692
20.4522,55.8776
20.5209,55.5765
20.5307,55.4895
20.5478,55.3374
20.5555,55.2695
20.5555,54.1640
20.5752,54.0970
20.6280,54.0512
20.6971,54.0413
20.7607,54.0703
20.7672,54.0763
26.0631,59.3723
26.0632,59.3723
26.1809,59.4626
26.1809,59.4626
26.2712,59.5319
26.2712,59.5319
26.4145,59.6147
26.4145,59.6147
26.4983,59.6630
26.7406,59.7634
26.9939,59.8313
27.1239,59.8484
27.2539,59.8655
27.2539,59.8655
32.6201,59.8655
32.6201,59.8655
32.7501,59.8484
32.8801,59.8313
33.1334,59.7634
33.3757,59.6630
33.4595,59.6147
33.6028,59.5319
33.6931,59.4626
33.8108,59.3723
37.0923,56.0908
37.1876,55.9666
37.2275,55.9146
37.2839,55.8734
37.3537,55.8692
37.4146,55.9034
37.4474,55.9652
37.4499,55.9901
37.4499,60.6731
45.4779,60.6731
45.4779,58.4450
71.6098,58.4450
71.6098,58.4450
71.6294,58.8067
71.6880,59.1641
71.6880,59.1641
71.7849,59.5131
71.7849,59.5131
71.9190,59.8496
71.9190,59.8496
72.0513,60.0991
72.0886,60.1696
72.2919,60.4694
72.5264,60.7455
72.7894,60.9946
73.0777,61.2138
73.3881,61.4005
73.3881,61.4005
73.3881,61.4005
73.3881,61.4005
73.7168,61.5526
73.7168,61.5526
74.0601,61.6683
74.4138,61.7461
74.7739,61.7853
74.7739,61.7853
75.1361,61.7853
75.1361,61.7853
75.4962,61.7461
75.8499,61.6683
76.1932,61.5526
76.5219,61.4005
76.8323,61.2138
77.1206,60.9946
77.3836,60.7455
77.6181,60.4694
77.8214,60.1696
77.9910,59.8496
78.1251,59.5131
78.2220,59.1641
78.2806,58.8067
78.3002,58.4450
78.2806,58.0833
78.2220,57.7259
78.1665,57.5261
78.1251,57.3769
78.1251,57.3769
77.9910,57.0404
77.9910,57.0404
77.9528,56.9684
77.8214,56.7204
77.6181,56.4206
77.3836,56.1445
77.1206,55.8954
77.1206,55.8954
77.1206,55.8954
76.9628,55.7754
76.8323,55.6762
76.5219,55.4895
76.5219,55.4895
76.5219,55.4895
76.5219,55.4895
76.1932,55.3374
76.1932,55.3374
76.1932,55.3374
75.9917,55.2695
75.8499,55.2217
75.4962,55.1439
75.1361,55.1047
75.1361,55.1047
74.7739,55.1047
74.7739,55.1047
74.4138,55.1439
74.0601,55.2217
73.8377,55.2966
73.7168,55.3374
73.7168,55.3374
73.7168,55.3374
73.3881,55.4895
73.3881,55.4895
73.1569,55.6285
73.0777,55.6762
73.0326,55.7105
72.7894,55.8954
72.7894,55.8954
72.5264,56.1445
72.2919,56.4206
72.0886,56.7204
71.9190,57.0404
71.9190,57.0404
71.7849,57.3769
71.7849,57.3769
71.6880,57.7259
71.6880,57.7259
71.6294,58.0833
71.6098,58.4450
45.4779,58.4450
45.4779,56.9933
45.4976,56.9262
45.5504,56.8805
45.6084,56.8694
45.6250,56.8703
45.9914,56.8511
46.3538,56.7937
46.7082,56.6987
47.0507,56.5673
47.3777,56.4007
47.6854,56.2009
47.9705,55.9699
48.2299,55.7105
48.4609,55.4254
48.6607,55.1177
48.8273,54.7907
48.9587,54.4482
49.0537,54.0938
49.1111,53.7314
49.1303,53.3650
49.1111,52.9986
49.0537,52.6362
48.9587,52.2818
48.8273,51.9393
48.6607,51.6123
48.5845,51.4950
48.4609,51.3046
48.2300,51.0195
48.2299,51.0195
47.9705,50.7601
47.6854,50.5291
47.6820,50.5269
47.6365,50.4739
47.6255,50.4229
47.6255,41.5712
47.6452,41.5042
47.6980,41.4584
47.7495,41.4472
49.1776,41.4472
49.1776,41.4472
49.2970,41.4366
49.4926,41.3806
49.6730,41.2864
49.8307,41.1578
49.9593,41.0001
50.0535,40.8197
50.1095,40.6241
50.1201,40.5047
50.1201,40.0712
50.1398,40.0042
50.1926,39.9584
50.2441,39.9472
51.2507,39.9472
51.2507,39.9472
51.3807,39.9301
51.5107,39.9130
51.7640,39.8451
52.0063,39.7447
52.1211,39.6784
52.2334,39.6136
52.3474,39.5261
52.4415,39.4540
54.6323,37.2632
54.7354,37.1287
54.7354,37.1287
54.7355,37.1287
54.7624,37.0936
54.7919,37.0551
54.9230,36.8280
54.9230,36.8280
54.9248,36.8244
54.9260,36.8249
54.9664,36.7747
55.0327,36.7526
55.1004,36.7699
55.1480,36.8210
55.1612,36.8765
55.1612,41.6231
61.9784,41.6231
62.0455,41.6427
62.0912,41.6955
62.1012,41.7647
62.0722,41.8283
62.0661,41.8347
60.3769,43.5239
60.3156,43.5574
60.2698,43.5587
60.0814,43.5289
59.7150,43.5097
59.7150,43.5097
59.3486,43.5289
58.9862,43.5863
58.9862,43.5863
58.6318,43.6813
58.2893,43.8127
57.9623,43.9793
57.6546,44.1791
57.3695,44.4100
57.3695,44.4101
57.1101,44.6695
57.1100,44.6695
56.8791,44.9546
56.6793,45.2623
56.5127,45.5893
56.3813,45.9318
56.2863,46.2862
56.2863,46.2862
56.2289,46.6486
56.2097,47.0150
56.2097,47.0150
56.2289,47.3814
56.2587,47.5698
56.2498,47.6391
56.2239,47.6769
54.0269,49.8740
53.9656,49.9074
53.9198,49.9087
53.7314,49.8789
53.3650,49.8597
53.3650,49.8597
52.9986,49.8789
52.6362,49.9363
52.6362,49.9363
52.2818,50.0313
51.9393,50.1627
51.6123,50.3293
51.3046,50.5291
51.0195,50.7600
51.0195,50.7601
50.7601,51.0195
50.7600,51.0195
50.5291,51.3046
50.3293,51.6123
50.1627,51.9393
50.0313,52.2818
49.9363,52.6362
49.9363,52.6362
49.8789,52.9986
49.8597,53.3650
49.8597,53.3650
49.8789,53.7314
49.9326,54.0703
49.9363,54.0938
50.0248,54.4240
50.0313,54.4482
50.1627,54.7907
50.3293,55.1177
50.5291,55.4254
50.7156,55.6557
50.7601,55.7105
51.0195,55.9699
51.1688,56.0908
51.3046,56.2009
51.5574,56.3650
51.6123,56.4007
51.9393,56.5673
52.2818,56.6987
52.6362,56.7937
52.9986,56.8511
53.3447,56.8692
53.3650,56.8703
53.3650,56.8703
53.3650,56.8703
53.3842,56.8693
53.7314,56.8511
54.0938,56.7937
54.4482,56.6987
54.7907,56.5673
55.1177,56.4007
55.4254,56.2009
55.7105,55.9699
55.9699,55.7105
56.2009,55.4254
56.2032,55.4218
56.2562,55.3763
56.3254,55.3667
56.3888,55.3960
56.4263,55.4550
56.4312,55.4893
56.4312,58.1313
63.4576,58.1313
63.4576,55.2607
63.4773,55.1936
63.5301,55.1479
63.5992,55.1379
63.6628,55.1669
63.6811,55.1866
63.7630,55.2966
63.7630,55.2966
63.7711,55.3053
65.3874,53.6890
65.4004,53.7203
65.4824,53.8431
65.5869,53.9476
65.7097,54.0296
65.7410,54.0426
64.1278,55.6557
64.1278,55.6557
64.2705,55.7754
64.5625,55.9675
64.8747,56.1243
64.8747,56.1243
65.2031,56.2438
65.2031,56.2438
65.5432,56.3244
65.8903,56.3650
65.8903,56.3650
66.2397,56.3650
66.2397,56.3650
66.5868,56.3244
66.5868,56.3244
66.9269,56.2438
66.9269,56.2438
67.2553,56.1243
67.2553,56.1243
67.5675,55.9675
67.8595,55.7754
67.8595,55.7754
68.0022,55.6557
68.0022,55.6557
66.3890,54.0426
66.4203,54.0296
66.5431,53.9476
66.6476,53.8431
66.7296,53.7203
66.7426,53.6890
68.3588,55.3053
68.3589,55.3053
68.3670,55.2966
68.3670,55.2966
68.5757,55.0163
68.7504,54.7137
68.7504,54.7137
68.8889,54.3928
68.9891,54.0580
68.9891,54.0580
69.0498,53.7139
69.0498,53.7139
69.0701,53.3650
69.0701,53.3650
69.0498,53.0161
69.0498,53.0161
68.9891,52.6720
68.9891,52.6720
68.8889,52.3372
68.7504,52.0163
68.7504,52.0163
68.5757,51.7137
68.3670,51.4334
68.3589,51.4247
66.7426,53.0410
66.7296,53.0097
66.6476,52.8869
66.5431,52.7824
66.4203,52.7004
66.3890,52.6874
68.0022,51.0743
68.0022,51.0743
67.8595,50.9546
67.5675,50.7625
67.2553,50.6057
67.2553,50.6057
66.9269,50.4862
66.9269,50.4862
66.5868,50.4056
66.2397,50.3650
65.8903,50.3650
65.5432,50.4056
65.5432,50.4056
65.2031,50.4862
65.2031,50.4862
64.8747,50.6057
64.8747,50.6057
64.5625,50.7625
64.2705,50.9546
64.1278,51.0743
64.1278,51.0743
65.7410,52.6874
65.7097,52.7004
65.5869,52.7824
65.4824,52.8869
65.4004,53.0097
65.3874,53.0410
63.7711,51.4247
63.7711,51.4247
63.7630,51.4334
63.7630,51.4334
63.5543,51.7137
63.5216,51.7703
63.4711,51.8185
63.4142,51.8323
58.0262,51.8323
57.9592,51.8126
57.9134,51.7598
57.9035,51.6906
57.9325,51.6271
57.9386,51.6206
58.1344,51.4247
59.0531,50.5060
59.1144,50.4726
59.1602,50.4713
59.3486,50.5011
59.6968,50.5193
59.7150,50.5203
59.7150,50.5203
59.7150,50.5203
59.7342,50.5193
60.0814,50.5011
60.4438,50.4437
60.7982,50.3487
61.1407,50.2173
61.4677,50.0507
61.7754,49.8509
62.0605,49.6199
62.3199,49.3605
62.5509,49.0754
62.7507,48.7677
62.9173,48.4407
63.0487,48.0982
63.1437,47.7438
63.2011,47.3814
63.2203,47.0150
63.2011,46.6486
63.1713,46.4602
63.1802,46.3909
63.2060,46.3531
66.4173,43.1419
66.4971,43.0378
66.5769,42.9338
66.7080,42.7067
66.8084,42.4644
66.8376,42.3555
66.8763,42.2111
66.9041,41.9999
66.9105,41.9511
66.9105,23.7006
66.9098,23.6950
66.8934,23.5706
66.8934,23.5706
66.8763,23.4406
66.8763,23.4406
66.8084,23.1873
66.7080,22.9450
66.6509,22.8461
66.5769,22.7179
66.4918,22.6070
66.4173,22.5098
66.4173,22.5098
66.4173,22.5098
65.4222,21.5147
65.3887,21.4534
65.3937,21.3837
65.4355,21.3278
65.5010,21.3034
65.5099,21.3031
70.8314,21.3031
70.8985,21.3227
70.9442,21.3755
70.9554,21.4271
70.9554,49.0288
77.1831,49.0288
77.1831,13.0036
70.9554,13.0036
70.9554,17.3646
70.9357,17.4316
70.8829,17.4774
70.8314,17.4886
63.9780,17.4886
63.9780,18.0145
63.9583,18.0816
63.9055,18.1273
63.8364,18.1373
63.7728,18.1082
63.7537,18.0864
63.7537,18.0865
63.7531,18.0857
63.7505,18.0828
63.7497,18.0816
63.7497,18.0816
63.6950,18.0145
63.6211,17.9239
63.4634,17.7953
63.4634,17.7953
63.4634,17.7953
63.2830,17.7011
63.2830,17.7011
63.2830,17.7011
63.1658,17.6675
63.0874,17.6451
63.0874,17.6451
63.0874,17.6451
63.0211,17.6392
62.9680,17.6345
62.9680,17.6345
55.8520,17.6345
55.8520,17.6345
55.8520,17.6345
55.8403,17.6355
55.7326,17.6451
55.5370,17.7011
55.4468,17.7482
55.3566,17.7953
55.3566,17.7953
55.3566,17.7953
55.1989,17.9239
55.0703,18.0816
55.0703,18.0816
55.0412,18.1373
54.9761,18.2620
54.9201,18.4576
54.9201,18.4576
54.9095,18.5770
54.9095,20.0491
54.8898,20.1162
54.8370,20.1619
54.7679,20.1719
54.7043,20.1428
54.6871,20.1246
54.6323,20.0531
54.6323,20.0531
47.6676,13.0884
47.6341,13.0271
47.6391,12.9574
47.6448,12.9445
47.6773,12.8807
47.8087,12.5382
47.9037,12.1838
47.9611,11.8214
47.9803,11.4550
47.9611,11.0886
47.9037,10.7262
47.8087,10.3718
47.6773,10.0293
47.5107,9.7023
47.5107,9.7023
47.3109,9.3946
47.0800,9.1095
47.0799,9.1095
46.8205,8.8501
46.5354,8.6191
46.5354,8.6191
46.2277,8.4193
45.9007,8.2527
45.5582,8.1213
45.5582,8.1213
45.2038,8.0263
45.2038,8.0263
45.2038,8.0263
44.8414,7.9689
44.4750,7.9497
44.4750,7.9497
44.1086,7.9689
43.7462,8.0263
43.7462,8.0263
43.3918,8.1213
43.0493,8.2527
42.7223,8.4193
42.4146,8.6191
42.1295,8.8500
42.1295,8.8501
41.8701,9.1095
41.8700,9.1095
41.6391,9.3946
41.4393,9.7023
41.2727,10.0293
41.1413,10.3718
41.0463,10.7262
41.0463,10.7262
40.9889,11.0886
40.9697,11.4550
40.9697,11.4550
40.9889,11.8214
41.0055,11.9263
41.0463,12.1838
41.0774,12.2997
41.1413,12.5382
41.2727,12.8807
41.4393,13.2077
41.6391,13.5154
41.6920,13.5806
41.8701,13.8005
42.1295,14.0599
42.1295,14.0600
42.4146,14.2909
42.6848,14.4663
42.7223,14.4907
43.0493,14.6573
43.3918,14.7887
43.7462,14.8837
43.7758,14.8884
43.8389,14.9183
43.8440,14.9232
51.0882,22.1673
51.1217,22.2286
51.1245,22.2550
51.1245,29.4015
51.1048,29.4686
51.0520,29.5143
50.9829,29.5243
50.9345,29.5065
50.7076,29.3639
50.4292,29.2299
50.4292,29.2299
50.1376,29.1278
50.1376,29.1278
49.8365,29.0591
49.8364,29.0591
49.5295,29.0245
49.5295,29.0245
47.7205,29.0245
47.7205,29.0245
47.4136,29.0591
47.4135,29.0591
47.1124,29.1278
47.1124,29.1278
46.8208,29.2299
46.8208,29.2299
46.5424,29.3639
46.2809,29.5283
46.0393,29.7209
45.8209,29.9393
45.6283,30.1809
45.4639,30.4424
45.3299,30.7208
45.3299,30.7208
45.2278,31.0124
45.2278,31.0124
45.1591,31.3135
45.1591,31.3136
45.1245,31.6205
45.1245,31.9295
45.1591,32.2364
45.1591,32.2365
45.2278,32.5376
45.2278,32.5376
45.3299,32.8292
45.3299,32.8292
45.4639,33.1076
45.4639,33.1076
45.6283,33.3691
45.8209,33.6107
46.0393,33.8291
46.2809,34.0217
46.5424,34.1861
46.5424,34.1861
46.5931,34.2105
46.6449,34.2573
46.6632,34.3247
46.6422,34.3914
46.5885,34.4360
46.5393,34.4462
44.0616,34.4462
44.0616,34.4462
44.0616,34.4462
44.0499,34.4472
43.9422,34.4568
43.7466,34.5128
43.7168,34.5283
43.5662,34.6070
43.5662,34.6070
43.5662,34.6070
43.4085,34.7356
43.2799,34.8933
43.1857,35.0737
43.1446,35.2173
43.1299,35.2686
43.1297,35.2693
43.1297,35.2693
43.1191,35.3887
43.1191,40.5047
43.1191,40.5047
43.1297,40.6241
43.1857,40.8197
43.1857,40.8197
43.1857,40.8197
43.2799,41.0001
43.2799,41.0001
43.4085,41.1578
43.4912,41.2253
43.5662,41.2864
43.5662,41.2864
43.5687,41.2881
43.5698,41.2894
43.5711,41.2904
43.5709,41.2906
43.6139,41.3414
43.6245,41.3916
43.6245,50.4229
43.6048,50.4900
43.5680,50.5269
43.5646,50.5291
43.5646,50.5291
43.2795,50.7600
43.2795,50.7601
43.0201,51.0195
43.0200,51.0195
42.7891,51.3046
42.5893,51.6123
42.4227,51.9393
42.2913,52.2818
42.1963,52.6362
42.1963,52.6362
42.1389,52.9986
42.1197,53.3650
42.1197,53.3650
42.1389,53.7314
42.1963,54.0938
42.1963,54.0938
42.2482,54.2876
42.2466,54.3574
42.2074,54.4153
42.1432,54.4428
42.1284,54.4437
37.7095,54.4437
37.6425,54.4240
37.5967,54.3712
37.5855,54.3197
37.5855,48.3878
37.5855,48.3878
37.5684,48.2578
37.5684,48.2578
37.5513,48.1278
37.5513,48.1278
37.4834,47.8745
37.3830,47.6322
37.3625,47.5966
37.3625,47.5966
37.2519,47.4051
37.2519,47.4051
37.1826,47.3148
37.0923,47.1970
37.0923,47.1970
37.0923,47.1970
35.3216,45.4264
35.2881,45.3651
35.2931,45.2954
35.3350,45.2394
35.3817,45.2178
35.6430,45.1582
35.9346,45.0561
36.2130,44.9221
36.4745,44.7577
36.7161,44.5651
36.9345,44.3467
37.1271,44.1051
37.2915,43.8436
37.4255,43.5652
37.5276,43.2736
37.5963,42.9725
37.5982,42.9554
37.6238,42.7287
37.6309,42.6655
37.6309,40.8565
37.6047,40.6241
37.5963,40.5496
37.5963,40.5495
37.5861,40.5047
37.5276,40.2484
37.5083,40.1934
37.4449,40.0122
37.4255,39.9568
37.2915,39.6784
37.1271,39.4169
36.9345,39.1753
36.7161,38.9569
36.4745,38.7643
36.2130,38.5999
36.2130,38.5999
35.9346,38.4659
35.9346,38.4659
35.6430,38.3638
35.6430,38.3638
35.3419,38.2951
35.3418,38.2951
35.0349,38.2605
35.0349,38.2605
34.7259,38.2605
34.7259,38.2605
34.4190,38.2951
34.4189,38.2951
34.1178,38.3638
34.1178,38.3638
33.8262,38.4659
33.8262,38.4659
33.5478,38.5999
33.2863,38.7643
33.2317,38.8077
33.1670,38.8342
33.0984,38.8214
33.0475,38.7735
33.0305,38.7057
33.0335,38.6832
33.0963,38.4082
33.1013,38.3638
33.1309,38.1012
33.1309,38.1012
33.1309,37.7922
33.1309,37.7922
33.0963,37.4853
33.0963,37.4852
33.0276,37.1841
33.0276,37.1841
32.9255,36.8925
32.9255,36.8925
32.7915,36.6141
32.6271,36.3526
32.4345,36.1110
32.2161,35.8926
31.9745,35.7000
31.7130,35.5356
31.7130,35.5356
31.4346,35.4016
31.4346,35.4016
31.1430,35.2995
31.1430,35.2995
30.8419,35.2308
30.8418,35.2308
30.5349,35.1962
30.5349,35.1962
28.7259,35.1962
28.7259,35.1962
28.4190,35.2308
28.4189,35.2308
28.1178,35.2995
28.1178,35.2995
27.8262,35.4016
27.8262,35.4016
27.5478,35.5356
27.2863,35.7000
27.0447,35.8926
26.8263,36.1110
26.6337,36.3526
26.4693,36.6141
26.3353,36.8925
26.3353,36.8925
26.2332,37.1841
26.2332,37.1841
26.1645,37.4852
26.1645,37.4853
26.1299,37.7922
26.1299,38.1012
26.1645,38.4081
26.1645,38.4082
26.2332,38.7093
26.2332,38.7093
26.3353,39.0009
26.3353,39.0009
26.4693,39.2793
26.4693,39.2793
26.6337,39.5408
26.8263,39.7824
27.0447,40.0008
27.2863,40.1934
27.5478,40.3578
27.5597,40.3635
27.6116,40.4103
27.6299,40.4752
27.6299,42.6954
27.6422,42.7885
27.6422,42.7885
27.6641,42.9554
27.7141,43.1419
27.7320,43.2087
27.7320,43.2087
27.8324,43.4510
27.8324,43.4510
27.9635,43.6781
27.9944,43.7184
27.9944,43.7184
27.9944,43.7184
28.1231,43.8862
28.1231,43.8862
33.5482,49.3112
33.5817,49.3725
33.5845,49.3989
33.5845,51.1072
33.5648,51.1742
33.5120,51.2200
33.4429,51.2299
33.3793,51.2009
33.3641,51.1852
33.2300,51.0195
33.2299,51.0195
32.9705,50.7601
32.6854,50.5291
32.6854,50.5291
32.6033,50.4759
32.5578,50.4229
32.5511,50.4040
32.5407,50.3650
32.5234,50.3006
32.4230,50.0583
32.4186,50.0507
32.3195,49.8789
32.3195,49.8789
32.2919,49.8312
32.1817,49.6876
32.1817,49.6876
32.1323,49.6231
32.1323,49.6231
22.5660,40.0569
22.5326,39.9956
22.5313,39.9498
22.5611,39.7614
22.5638,39.7104
22.5869,39.6445
22.5999,39.6292
27.6673,34.5618
27.7286,34.5283
27.7550,34.5255
28.5295,34.5255
28.5295,34.5255
28.6864,34.5078
28.8364,34.4909
28.8364,34.4909
28.8365,34.4909
29.1376,34.4222
29.4292,34.3201
29.7076,34.1861
29.9691,34.0217
30.2107,33.8291
30.4291,33.6107
30.6217,33.3691
30.7861,33.1076
30.9201,32.8292
31.0222,32.5376
31.0909,32.2365
31.1255,31.9295
31.1255,31.6205
31.0909,31.3135
31.0222,31.0124
30.9201,30.7208
30.7861,30.4424
30.6217,30.1809
30.4291,29.9393
30.2107,29.7209
29.9691,29.5283
29.7076,29.3639
29.7076,29.3639
29.4292,29.2299
29.4292,29.2299
29.1376,29.1278
29.1376,29.1278
28.8365,29.0591
28.8364,29.0591
28.5295,29.0245
28.5295,29.0245
26.7205,29.0245
26.7205,29.0245
26.4136,29.0591
26.4135,29.0591
26.1124,29.1278
26.1124,29.1278
25.8208,29.2299
25.8208,29.2299
25.5424,29.3639
25.2809,29.5283
25.0393,29.7209
24.8209,29.9393
24.6283,30.1809
24.4639,30.4424
24.3299,30.7208
24.3299,30.7208
24.2278,31.0124
24.2278,31.0124
24.1591,31.3135
24.1591,31.3136
24.1245,31.6205
24.1245,31.9295
24.1591,32.2364
24.1591,32.2364
24.1764,32.3124
24.1721,32.3821
24.1432,32.4277
21.7593,34.8116
21.6980,34.8451
21.6283,34.8401
21.5723,34.7982
21.5479,34.7327
21.5476,34.7239
21.5476,30.3137
14.5212,30.3137
14.5007,30.3137
6.9709,30.3137
1.2950,30.3137
1.2950,26.6950
8.4499,26.6950
8.4499,26.6950
8.4702,27.0439
8.4702,27.0439
8.5309,27.3880
8.5309,27.3880
8.6311,27.7228
8.7696,28.0437
8.7696,28.0437
8.9443,28.3463
9.1530,28.6266
9.1611,28.6353
10.7774,27.0190
10.7904,27.0503
10.8724,27.1731
10.9769,27.2776
11.0997,27.3596
11.1310,27.3726
9.5178,28.9857
9.5178,28.9857
9.6605,29.1054
9.9525,29.2975
10.2647,29.4543
10.2647,29.4543
10.5931,29.5738
10.5931,29.5738
10.9332,29.6544
11.2803,29.6950
11.2803,29.6950
11.6297,29.6950
11.6297,29.6950
11.9768,29.6544
11.9768,29.6544
12.3169,29.5738
12.3169,29.5738
12.6453,29.4543
12.6453,29.4543
12.9575,29.2975
13.2495,29.1054
13.2495,29.1054
13.3922,28.9857
13.3922,28.9857
11.7790,27.3726
11.8103,27.3596
11.9331,27.2776
12.0376,27.1731
12.1196,27.0503
12.1326,27.0190
13.7488,28.6353
13.7489,28.6353
13.7570,28.6266
13.7570,28.6266
13.9657,28.3463
14.1404,28.0437
14.1404,28.0437
14.2789,27.7228
14.3791,27.3880
14.3791,27.3880
14.4398,27.0439
14.4398,27.0439
14.4601,26.6950
14.4601,26.6950
16.0699,26.6950
16.0699,26.6950
16.0902,27.0439
16.0902,27.0439
16.1509,27.3880
16.1509,27.3880
16.2511,27.7228
16.3896,28.0437
16.3896,28.0437
16.5643,28.3463
16.7730,28.6266
16.7811,28.6353
18.3974,27.0190
18.4104,27.0503
18.4924,27.1731
18.5969,27.2776
18.7197,27.3596
18.7510,27.3726
17.1378,28.9857
17.1378,28.9857
17.2805,29.1054
17.5725,29.2975
17.8847,29.4543
17.8847,29.4543
18.2131,29.5738
18.2131,29.5738
18.5532,29.6544
18.9003,29.6950
18.9003,29.6950
19.2497,29.6950
19.2497,29.6950
19.5968,29.6544
19.5968,29.6544
19.9369,29.5738
19.9369,29.5738
20.2653,29.4543
20.2653,29.4543
20.5775,29.2975
20.8695,29.1054
20.8695,29.1054
21.0122,28.9857
21.0122,28.9857
19.3990,27.3726
19.4303,27.3596
19.5531,27.2776
19.6576,27.1731
19.7396,27.0503
19.7526,27.0190
21.3688,28.6353
21.3689,28.6353
21.3770,28.6266
21.3770,28.6266
21.5857,28.3463
21.7604,28.0437
21.7604,28.0437
21.8989,27.7228
21.9991,27.3880
21.9991,27.3880
22.0598,27.0439
22.0598,27.0439
22.0801,26.6950
22.0801,26.6950
22.0598,26.3461
22.0598,26.3461
21.9991,26.0020
21.9991,26.0020
21.8989,25.6672
21.8047,25.4488
26.1299,25.4488
26.1299,25.7578
26.1645,26.0647
26.1645,26.0648
26.2332,26.3659
26.2332,26.3659
26.3353,26.6575
26.3353,26.6575
26.4693,26.9359
26.4693,26.9359
26.6337,27.1974
26.8263,27.4390
27.0447,27.6574
27.2863,27.8500
27.5478,28.0144
27.8262,28.1484
27.8262,28.1484
28.1178,28.2505
28.1178,28.2505
28.4189,28.3192
28.4190,28.3192
28.4190,28.3192
28.6236,28.3423
28.7259,28.3538
28.7259,28.3538
28.7259,28.3538
30.5349,28.3538
30.5349,28.3538
30.6918,28.3361
30.8418,28.3192
30.8418,28.3192
30.8419,28.3192
31.1430,28.2505
31.4346,28.1484
31.7130,28.0144
31.9745,27.8500
32.2161,27.6574
32.4345,27.4390
32.6271,27.1974
32.7915,26.9359
32.9255,26.6575
33.0276,26.3659
33.0963,26.0648
33.1309,25.7578
33.1309,25.4488
33.1095,25.2590
33.0963,25.1419
33.0963,25.1419
33.0963,25.1418
33.0335,24.8668
33.0378,24.7971
33.0791,24.7407
33.1443,24.7156
33.2127,24.7298
33.2317,24.7423
33.2863,24.7857
33.5478,24.9501
33.8262,25.0841
33.8262,25.0841
34.1178,25.1862
34.1178,25.1862
34.4189,25.2549
34.4190,25.2549
34.4190,25.2549
34.6236,25.2780
34.7259,25.2895
34.7259,25.2895
34.7259,25.2895
35.0349,25.2895
35.0349,25.2895
35.1918,25.2718
35.3418,25.2549
35.3418,25.2549
35.3419,25.2549
35.6430,25.1862
35.9346,25.0841
36.2130,24.9501
36.4745,24.7857
36.7161,24.5931
36.9345,24.3747
37.1271,24.1331
37.2915,23.8716
37.4255,23.5932
37.5276,23.3016
37.5963,23.0005
37.6013,22.9561
37.6137,22.8461
37.6309,22.6935
37.6309,20.8845
37.6309,20.8845
38.6191,20.8845
38.6191,22.6935
38.6537,23.0004
38.6537,23.0005
38.7224,23.3016
38.7224,23.3016
38.8245,23.5932
38.8245,23.5932
38.9585,23.8716
38.9585,23.8716
39.1229,24.1331
39.3155,24.3747
39.5339,24.5931
39.7755,24.7857
40.0370,24.9501
40.3154,25.0841
40.3154,25.0841
40.6070,25.1862
40.6070,25.1862
40.9081,25.2549
40.9082,25.2549
40.9082,25.2549
41.1128,25.2780
41.2151,25.2895
41.2151,25.2895
41.2151,25.2895
41.5241,25.2895
41.5241,25.2895
41.6810,25.2718
41.8310,25.2549
41.8310,25.2549
41.8311,25.2549
42.1322,25.1862
42.4238,25.0841
42.7022,24.9501
42.9637,24.7857
43.0183,24.7423
43.0829,24.7158
43.1516,24.7286
43.2025,24.7765
43.2195,24.8443
43.2165,24.8668
43.1537,25.1418
43.1537,25.1419
43.1191,25.4488
43.1191,25.7578
43.1537,26.0647
43.1537,26.0648
43.2224,26.3659
43.2224,26.3659
43.3245,26.6575
43.3245,26.6575
43.4585,26.9359
43.4585,26.9359
43.6229,27.1974
43.8155,27.4390
44.0339,27.6574
44.2755,27.8500
44.5370,28.0144
44.8154,28.1484
44.8154,28.1484
45.1070,28.2505
45.1070,28.2505
45.4081,28.3192
45.4082,28.3192
45.4082,28.3192
45.6128,28.3423
45.7151,28.3538
45.7151,28.3538
45.7151,28.3538
47.5241,28.3538
47.5241,28.3538
47.6810,28.3361
47.8310,28.3192
47.8310,28.3192
47.8311,28.3192
48.1322,28.2505
48.4238,28.1484
48.7022,28.0144
48.9637,27.8500
49.2053,27.6574
49.4237,27.4390
49.6163,27.1974
49.7807,26.9359
49.9147,26.6575
50.0168,26.3659
50.0855,26.0648
50.1201,25.7578
50.1201,25.4488
50.0987,25.2590
50.0855,25.1419
50.0855,25.1418
50.0723,25.0841
50.0168,24.8407
49.9975,24.7857
49.9147,24.5491
49.9147,24.5491
49.7807,24.2707
49.6163,24.0092
49.4237,23.7676
49.2053,23.5492
48.9637,23.3566
48.7022,23.1922
48.7022,23.1922
48.4238,23.0582
48.4238,23.0582
48.1322,22.9561
48.1322,22.9561
47.8311,22.8874
47.8310,22.8874
47.5241,22.8528
47.5241,22.8528
45.7151,22.8528
45.7151,22.8528
45.4082,22.8874
45.4081,22.8874
45.1070,22.9561
45.1070,22.9561
44.8154,23.0582
44.8154,23.0582
44.5370,23.1922
44.2755,23.3566
44.2209,23.4000
44.1562,23.4265
44.0876,23.4137
44.0367,23.3658
44.0197,23.2980
44.0227,23.2755
44.0855,23.0005
44.0905,22.9561
44.1029,22.8461
44.1201,22.6935
44.1201,20.8845
44.0855,20.5775
44.0168,20.2764
43.9147,19.9848
43.7807,19.7064
43.6163,19.4449
43.4237,19.2033
43.2053,18.9849
42.9637,18.7923
42.7022,18.6279
42.7022,18.6279
42.4238,18.4939
42.4238,18.4939
42.1322,18.3918
42.1322,18.3918
41.8311,18.3231
41.8310,18.3231
41.5241,18.2885
41.5241,18.2885
41.2151,18.2885
41.2151,18.2885
40.9082,18.3231
40.9081,18.3231
40.6070,18.3918
40.6070,18.3918
40.3154,18.4939
40.3154,18.4939
40.0370,18.6279
39.7755,18.7923
39.5339,18.9849
39.3155,19.2033
39.1229,19.4449
38.9585,19.7064
38.8245,19.9848
38.8245,19.9848
38.7224,20.2764
38.7224,20.2764
38.6537,20.5775
38.6537,20.5776
38.6191,20.8845
37.6309,20.8845
37.5963,20.5775
37.5276,20.2764
37.4255,19.9848
37.2915,19.7064
37.1271,19.4449
36.9345,19.2033
36.7161,18.9849
36.4745,18.7923
36.2130,18.6279
36.2130,18.6279
35.9346,18.4939
35.9346,18.4939
35.6430,18.3918
35.6430,18.3918
35.3419,18.3231
35.3418,18.3231
35.0349,18.2885
35.0349,18.2885
34.7259,18.2885
34.7259,18.2885
34.4190,18.3231
34.4189,18.3231
34.1178,18.3918
34.1178,18.3918
33.8262,18.4939
33.8262,18.4939
33.5478,18.6279
33.2863,18.7923
33.0447,18.9849
32.8263,19.2033
32.6337,19.4449
32.4693,19.7064
32.3353,19.9848
32.3353,19.9848
32.2332,20.2764
32.2332,20.2764
32.1645,20.5775
32.1645,20.5776
32.1299,20.8845
32.1299,22.6935
32.1645,23.0004
32.1645,23.0005
32.2273,23.2755
32.2230,23.3452
32.1817,23.4016
32.1165,23.4267
32.0481,23.4125
32.0291,23.4000
31.9745,23.3566
31.9745,23.3566
31.7130,23.1922
31.4346,23.0582
31.4346,23.0582
31.1430,22.9561
31.1430,22.9561
30.8419,22.8874
30.8418,22.8874
30.5349,22.8528
30.5349,22.8528
28.7259,22.8528
28.7259,22.8528
28.4190,22.8874
28.4189,22.8874
28.1178,22.9561
28.1178,22.9561
27.8262,23.0582
27.8262,23.0582
27.5478,23.1922
27.2863,23.3566
27.0447,23.5492
26.8263,23.7676
26.6337,24.0092
26.4693,24.2707
26.3353,24.5491
26.3353,24.5491
26.2332,24.8407
26.2332,24.8407
26.1645,25.1418
26.1645,25.1419
26.1299,25.4488
21.8047,25.4488
21.7604,25.3463
21.7604,25.3463
21.5857,25.0437
21.3770,24.7634
21.3688,24.7547
19.7526,26.3710
19.7396,26.3397
19.6576,26.2169
19.5531,26.1124
19.4303,26.0304
19.3990,26.0174
21.0122,24.4043
21.0122,24.4043
20.8695,24.2846
20.5775,24.0925
20.2653,23.9357
20.2653,23.9357
19.9369,23.8162
19.9369,23.8162
19.5968,23.7356
19.2497,23.6950
18.9003,23.6950
18.5532,23.7356
18.5532,23.7356
18.2131,23.8162
18.2131,23.8162
17.8847,23.9357
17.8847,23.9357
17.5725,24.0925
17.2805,24.2846
17.1378,24.4043
17.1378,24.4043
18.7510,26.0174
18.7197,26.0304
18.5969,26.1124
18.4924,26.2169
18.4104,26.3397
18.3974,26.3710
16.7811,24.7547
16.7811,24.7547
16.7730,24.7634
16.7730,24.7634
16.5643,25.0437
16.3896,25.3463
16.3896,25.3463
16.2511,25.6672
16.1509,26.0020
16.1509,26.0020
16.0902,26.3461
16.0902,26.3461
16.0699,26.6950
14.4601,26.6950
14.4398,26.3461
14.4398,26.3461
14.3791,26.0020
14.3791,26.0020
14.2789,25.6672
14.1404,25.3463
14.1404,25.3463
13.9657,25.0437
13.7570,24.7634
13.7488,24.7547
12.1326,26.3710
12.1196,26.3397
12.0376,26.2169
11.9331,26.1124
11.8103,26.0304
11.7790,26.0174
13.3922,24.4043
13.3922,24.4043
13.2495,24.2846
12.9575,24.0925
12.6453,23.9357
12.6453,23.9357
12.3169,23.8162
12.3169,23.8162
11.9768,23.7356
11.6297,23.6950
11.2803,23.6950
10.9332,23.7356
10.9332,23.7356
10.5931,23.8162
10.5931,23.8162
10.2647,23.9357
10.2647,23.9357
9.9525,24.0925
9.6605,24.2846
9.5178,24.4043
9.5178,24.4043
11.1310,26.0174
11.0997,26.0304
10.9769,26.1124
10.8724,26.2169
10.7904,26.3397
10.7774,26.3710
9.1611,24.7547
9.1611,24.7547
9.1530,24.7634
9.1530,24.7634
8.9443,25.0437
8.7696,25.3463
8.7696,25.3463
8.6311,25.6672
8.5309,26.0020
8.5309,26.0020
8.4702,26.3461
8.4702,26.3461
8.4499,26.6950
1.2950,26.6950
1.2950,9.8625
11.8250,9.8625
11.8250,11.5100
13.4750,11.5100
13.4500,11.5704
13.4250,11.6960
13.4250,11.8240
13.4500,11.9496
13.4750,12.0100
11.8250,12.0100
11.8250,13.6575
11.8250,13.6575
11.8635,13.9499
11.8635,13.9499
11.9398,14.2348
11.9398,14.2348
12.0527,14.5073
12.0527,14.5073
12.2002,14.7627
12.2002,14.7627
12.3797,14.9967
12.3797,14.9967
12.5883,15.2053
12.5883,15.2053
12.8223,15.3848
12.8223,15.3848
13.0777,15.5323
13.0777,15.5323
13.3502,15.6452
13.3502,15.6452
13.6351,15.7215
13.6351,15.7215
13.8250,15.7465
13.8250,12.3600
13.8854,12.3850
14.0110,12.4100
14.1390,12.4100
14.2646,12.3850
14.3250,12.3600
14.3250,15.7465
14.5149,15.7215
14.5149,15.7215
14.7998,15.6452
14.7998,15.6452
15.0723,15.5323
15.0723,15.5323
15.3277,15.3848
15.3277,15.3848
15.5617,15.2053
15.5617,15.2053
15.7703,14.9967
15.7703,14.9967
15.9498,14.7627
15.9498,14.7627
16.0931,14.5145
16.1437,14.4663
16.2123,14.4531
16.2772,14.4791
16.3177,14.5360
16.3245,14.5765
16.3245,15.3180
16.3245,15.3180
16.3351,15.4374
16.3911,15.6330
16.3911,15.6330
16.3911,15.6330
16.4853,15.8134
16.4853,15.8134
16.6139,15.9711
16.7078,16.0477
16.7716,16.0997
16.9520,16.1939
17.1476,16.2499
17.2670,16.2605
20.8830,16.2605
21.0024,16.2499
21.1980,16.1939
21.3784,16.0997
21.5361,15.9711
21.6647,15.8134
21.7589,15.6330
21.8149,15.4374
21.8255,15.3180
21.8255,13.5795
21.8452,13.5125
21.8980,13.4667
21.9495,13.4555
28.8329,13.4555
28.9000,13.4752
28.9369,13.5120
28.9380,13.5135
28.9391,13.5154
29.1251,13.7450
29.1701,13.8005
29.4295,14.0599
29.4295,14.0600
29.7146,14.2909
29.9848,14.4663
30.0223,14.4907
30.3493,14.6573
30.6918,14.7887
31.0462,14.8837
31.4086,14.9411
31.7547,14.9592
31.7750,14.9603
31.7750,14.9603
31.7750,14.9603
31.7942,14.9593
32.1414,14.9411
32.5038,14.8837
32.8582,14.7887
33.2007,14.6573
33.5277,14.4907
33.8354,14.2909
34.1205,14.0599
34.3799,13.8005
34.6109,13.5154
34.8107,13.2077
34.9773,12.8807
35.1087,12.5382
35.2037,12.1838
35.2611,11.8214
35.2803,11.4550
35.2611,11.0886
35.2037,10.7262
35.1087,10.3718
34.9773,10.0293
34.8107,9.7023
34.8107,9.7023
34.6109,9.3946
34.3800,9.1095
34.3799,9.1095
34.1205,8.8501
33.8354,8.6191
33.8354,8.6191
33.5277,8.4193
33.2007,8.2527
32.8582,8.1213
32.8582,8.1213
32.5038,8.0263
32.5038,8.0263
32.5038,8.0263
32.1414,7.9689
31.7750,7.9497
31.7750,7.9497
31.4086,7.9689
31.0462,8.0263
31.0462,8.0263
30.6918,8.1213
30.3493,8.2527
30.0223,8.4193
29.7146,8.6191
29.4295,8.8500
29.4295,8.8501
29.1701,9.1095
29.1700,9.1095
28.9391,9.3946
28.9369,9.3980
28.8839,9.4435
28.8329,9.4545
21.9495,9.4545
21.8825,9.4348
21.8367,9.3820
21.8255,9.3305
21.8255,8.2020
21.8255,8.2020
21.8149,8.0826
21.7589,7.8870
21.6647,7.7066
21.6127,7.6428
21.5361,7.5489
21.4209,7.4550
21.3784,7.4203
21.1980,7.3261
21.1980,7.3261
21.1980,7.3261
21.0808,7.2925
21.0024,7.2701
21.0024,7.2701
21.0024,7.2701
20.9296,7.2636
20.8830,7.2595
20.8830,7.2595
19.7419,7.2595
19.6748,7.2398
19.6291,7.1870
19.6291,7.1870
55.2145,7.1870
55.2145,10.8030
55.2145,10.8030
55.2251,10.9224
55.2811,11.1180
55.2811,11.1180
55.2811,11.1180
55.3753,11.2984
55.3753,11.2984
55.5039,11.4561
55.5700,11.5100
55.6616,11.5847
55.8420,11.6789
56.0376,11.7349
56.1570,11.7455
56.8985,11.7455
56.9655,11.7652
57.0113,11.8180
57.0212,11.8871
56.9922,11.9507
56.9605,11.9769
56.7123,12.1202
56.7123,12.1202
56.4783,12.2997
56.4783,12.2997
56.2697,12.5083
56.2697,12.5083
56.0902,12.7423
56.0902,12.7423
55.9427,12.9977
55.9427,12.9977
55.8298,13.2702
55.8298,13.2702
55.7535,13.5551
55.7535,13.5551
55.7285,13.7450
59.1150,13.7450
59.0900,13.8054
59.0650,13.9310
59.0650,14.0590
59.0900,14.1846
59.1150,14.2450
55.7285,14.2450
55.7535,14.4349
55.7535,14.4349
55.8298,14.7198
55.8298,14.7198
55.9427,14.9923
55.9427,14.9923
56.0902,15.2477
56.0902,15.2477
56.2697,15.4817
56.2697,15.4817
56.4783,15.6903
56.4783,15.6903
56.7123,15.8698
56.7123,15.8698
56.9677,16.0173
56.9677,16.0173
57.2402,16.1302
57.2402,16.1302
57.5251,16.2065
57.5251,16.2065
57.8175,16.2450
57.8175,16.2450
59.4650,16.2450
59.4650,14.5950
59.5254,14.6200
59.6510,14.6450
59.7790,14.6450
59.9046,14.6200
59.9650,14.5950
59.9650,16.2450
61.6125,16.2450
61.6125,16.2450
61.9049,16.2065
61.9049,16.2065
62.1898,16.1302
62.1898,16.1302
62.4623,16.0173
62.4623,16.0173
62.7177,15.8698
62.7177,15.8698
62.9517,15.6903
62.9517,15.6903
63.1603,15.4817
63.1603,15.4817
63.3398,15.2477
63.3398,15.2477
63.4873,14.9923
63.4873,14.9923
63.6002,14.7198
63.6002,14.7198
63.6765,14.4349
63.6765,14.4349
63.7015,14.2450
60.3150,14.2450
60.3400,14.1846
60.3650,14.0590
60.3650,13.9310
60.3400,13.8054
60.3150,13.7450
63.7015,13.7450
63.6765,13.5551
63.6765,13.5551
63.6002,13.2702
63.6002,13.2702
63.4873,12.9977
63.4873,12.9977
63.3398,12.7423
63.3398,12.7423
63.1603,12.5083
63.1603,12.5083
62.9517,12.2997
62.9517,12.2997
62.7177,12.1202
62.7177,12.1202
62.4695,11.9769
62.4213,11.9263
62.4081,11.8577
62.4341,11.7928
62.4910,11.7523
62.5315,11.7455
63.2730,11.7455
63.3924,11.7349
63.5880,11.6789
63.7684,11.5847
63.9261,11.4561
64.0547,11.2984
64.1489,11.1180
64.2049,10.9224
64.2155,10.8030
64.2155,7.1870
64.2049,7.0676
64.1489,6.8720
64.0547,6.6916
64.0027,6.6278
63.9261,6.5339
63.7684,6.4053
63.7684,6.4053
63.7684,6.4053
63.5880,6.3111
63.5880,6.3111
63.5880,6.3111
63.4607,6.2747
63.3924,6.2551
63.3924,6.2551
63.3924,6.2551
63.3196,6.2486
63.2730,6.2445
63.2730,6.2445
61.8634,6.2445
61.7964,6.2248
61.7506,6.1720
61.7407,6.1029
61.7447,6.0940
61.7447,5.1050
71.6098,5.1050
71.6098,5.1050
71.6294,5.4667
71.6880,5.8241
71.6880,5.8241
71.7849,6.1731
71.7849,6.1731
71.9190,6.5096
71.9190,6.5096
72.0886,6.8296
72.2919,7.1294
72.4816,7.3527
72.5264,7.4055
72.7894,7.6546
73.0777,7.8738
73.3881,8.0605
73.3881,8.0605
73.3881,8.0605
73.3881,8.0605
73.6938,8.2020
73.7168,8.2126
74.0601,8.3283
74.4138,8.4061
74.7739,8.4453
74.7739,8.4453
75.1361,8.4453
75.1361,8.4453
75.4962,8.4061
75.8499,8.3283
76.1932,8.2126
76.5219,8.0605
76.8323,7.8738
77.1206,7.6546
77.3836,7.4055
77.6181,7.1294
77.8214,6.8296
77.9910,6.5096
78.1251,6.1731
78.2220,5.8241
78.2806,5.4667
78.3002,5.1050
78.2806,4.7433
78.2220,4.3859
78.1251,4.0369
77.9910,3.7004
77.8214,3.3804
77.6181,3.0806
77.3836,2.8045
77.1206,2.5554
77.1206,2.5554
77.1206,2.5554
77.0522,2.5034
76.8323,2.3362
76.5219,2.1495
76.5219,2.1495
76.5219,2.1495
76.5219,2.1495
76.1932,1.9974
76.1932,1.9974
76.1932,1.9974
76.0259,1.9410
75.8499,1.8817
75.4962,1.8039
75.1361,1.7647
75.1361,1.7647
74.7739,1.7647
74.7739,1.7647
74.4138,1.8039
74.0601,1.8817
73.7947,1.9711
73.7168,1.9974
73.7168,1.9974
73.7168,1.9974
73.3881,2.1495
73.3881,2.1495
73.2246,2.2478
73.0777,2.3362
72.9883,2.4041
72.7894,2.5554
72.7894,2.5554
72.5264,2.8045
72.2919,3.0806
72.0886,3.3804
71.9190,3.7004
71.9190,3.7004
71.7849,4.0369
71.7849,4.0369
71.6880,4.3859
71.6880,4.3859
71.6294,4.7433
71.6098,5.1050
61.7447,5.1050
61.7447,2.2478
56.3580,2.2478
56.3580,6.0897
56.3605,6.0941
56.3555,6.1638
56.3136,6.2198
56.2481,6.2442
56.2393,6.2445
56.1570,6.2445
56.1570,6.2445
56.1570,6.2445
56.1453,6.2455
56.0376,6.2551
55.8420,6.3111
55.7518,6.3582
55.6616,6.4053
55.6616,6.4053
55.6616,6.4053
55.5039,6.5339
55.3753,6.6916
55.2811,6.8720
55.2251,7.0676
55.2251,7.0676
55.2145,7.1870
19.6291,7.1870
19.6179,7.1355
19.6179,3.5186
14.6640,3.5186
14.6640,7.3331
16.5304,7.3331
16.5974,7.3527
16.6432,7.4055
16.6531,7.4747
16.6241,7.5383
16.6180,7.5447
16.6139,7.5489
16.4853,7.7066
16.3911,7.8870
16.3512,8.0263
16.3414,8.0605
16.3351,8.0826
16.3351,8.0826
16.3245,8.2020
16.3245,8.9435
16.3048,9.0105
16.2520,9.0563
16.1829,9.0662
16.1193,9.0372
16.0931,9.0055
15.9498,8.7573
15.9498,8.7573
15.7703,8.5233
15.7703,8.5233
15.5617,8.3147
15.5617,8.3147
15.3277,8.1352
15.3277,8.1352
15.0723,7.9877
15.0723,7.9877
14.7998,7.8748
14.7998,7.8748
14.5149,7.7985
14.5149,7.7985
14.3250,7.7735
14.3250,11.1600
14.2646,11.1350
14.1390,11.1100
14.0110,11.1100
13.8854,11.1350
13.8250,11.1600
13.8250,7.7735
13.8250,7.7735
13.6351,7.7985
13.6351,7.7985
13.3502,7.8748
13.3502,7.8748
13.0777,7.9877
13.0777,7.9877
12.8223,8.1352
12.8223,8.1352
12.5883,8.3147
12.5883,8.3147
12.3797,8.5233
12.3797,8.5233
12.2002,8.7573
12.2002,8.7573
12.0527,9.0127
12.0527,9.0127
11.9398,9.2852
11.9398,9.2852
11.8635,9.5701
11.8635,9.5701
11.8250,9.8625
11.8250,9.8625
1.2950,9.8625
1.2950,5.1050
1.7598,5.1050
1.7598,5.1050
1.7794,5.4667
1.8380,5.8241
1.8380,5.8241
1.9349,6.1731
1.9349,6.1731
2.0690,6.5096
2.0690,6.5096
2.2386,6.8296
2.4419,7.1294
2.6316,7.3527
2.6764,7.4055
2.9394,7.6546
3.2277,7.8738
3.5381,8.0605
3.5381,8.0605
3.5381,8.0605
3.5381,8.0605
3.8438,8.2020
3.8668,8.2126
4.2101,8.3283
4.5638,8.4061
4.9239,8.4453
4.9239,8.4453
5.2861,8.4453
5.2861,8.4453
5.6462,8.4061
5.9999,8.3283
6.3432,8.2126
6.6719,8.0605
6.9823,7.8738
7.2706,7.6546
7.5336,7.4055
7.7681,7.1294
7.9714,6.8296
8.1410,6.5096
8.2751,6.1731
8.3720,5.8241
8.4306,5.4667
8.4502,5.1050
8.4306,4.7433
8.3720,4.3859
8.2751,4.0369
8.1410,3.7004
7.9714,3.3804
7.7681,3.0806
7.5336,2.8045
7.2706,2.5554
7.2706,2.5554
7.2706,2.5554
7.2022,2.5034
6.9823,2.3362
6.6719,2.1495
6.6719,2.1495
6.6719,2.1495
6.6719,2.1495
6.3432,1.9974
6.3432,1.9974
6.3432,1.9974
6.1759,1.9410
5.9999,1.8817
5.6462,1.8039
5.2861,1.7647
5.2861,1.7647
4.9239,1.7647
4.9239,1.7647
4.5638,1.8039
4.2101,1.8817
3.9447,1.9711
3.8668,1.9974
3.8668,1.9974
3.8668,1.9974
3.5381,2.1495
3.5381,2.1495
3.3746,2.2478
3.2277,2.3362
3.1383,2.4041
2.9394,2.5554
2.9394,2.5554
2.6764,2.8045
2.4419,3.0806
2.2386,3.3804
2.0690,3.7004
2.0690,3.7004
1.9349,4.0369
1.9349,4.0369
1.8380,4.3859
1.8380,4.3859
1.7794,4.7433
1.7598,5.1050
1.2950,5.1050
1.2950,1.4190
1.3147,1.3520
1.3675,1.3062
1.4190,1.2950
78.6410,1.2950
Z" /> 
</g>
<g style="fill:#FFFFFF; fill-opacity:1.0000; stroke:none;">
<circle cx="53.3650" cy="53.3650" r="0.7500" /> 
</g>
<g style="fill:#FFFFFF; fill-opacity:1.0000; stroke:none;">
<circle cx="66.0650" cy="53.3650" r="0.7500" /> 
</g>
<g style="fill:#FFFFFF; fill-opacity:1.0000; stroke:none;">
<circle cx="19.0750" cy="39.3950" r="0.7500" /> 
</g>
<g style="fill:#FFFFFF; fill-opacity:1.0000; stroke:none;">
<circle cx="19.0750" cy="26.6950" r="0.7500" /> 
</g>
<g style="fill:#FFFFFF; fill-opacity:1.0000; stroke:none;">
<circle cx="11.4550" cy="39.3950" r="0.7500" /> 
</g>
<g style="fill:#FFFFFF; fill-opacity:1.0000; stroke:none;">
<circle cx="11.4550" cy="26.6950" r="0.7500" /> 
</g>
<g style="fill:#FFFFFF; fill-opacity:1.0000; stroke:none;">
<circle cx="31.7750" cy="11.4550" r="0.7500" /> 
</g>
<g style="fill:#FFFFFF; fill-opacity:1.0000; stroke:none;">
<circle cx="44.4750" cy="11.4550" r="0.7500" /> 
</g>
<g style="fill:#FFFFFF; fill-opacity:1.0000; stroke:none;">
<circle cx="45.6250" cy="53.3650" r="0.7500" /> 
</g>
<g style="fill:#FFFFFF; fill-opacity:1.0000; stroke:none;">
<circle cx="30.6250" cy="53.3650" r="0.7500" /> 
</g>
<g style="fill:#FFFFFF; fill-opacity:1.0000; stroke:none;">
<circle cx="59.7150" cy="32.0150" r="0.7500" /> 
</g>
<g style="fill:#FFFFFF; fill-opacity:1.0000; stroke:none;">
<circle cx="59.7150" cy="47.0150" r="0.7500" /> 
</g>
<g style="fill:#FFFFFF; fill-opacity:1.0000; stroke:none;">
<circle cx="12.8050" cy="53.3650" r="0.6500" /> 
</g>
<g style="fill:#FFFFFF; fill-opacity:1.0000; stroke:none;">
<circle cx="17.8050" cy="53.3650" r="0.6500" /> 
</g>
<g style="fill:#FFFFFF; fill-opacity:1.0000; stroke:none;">
<circle cx="19.0750" cy="11.7600" r="0.6500" /> 
</g>
<g style="fill:#FFFFFF; fill-opacity:1.0000; stroke:none;">
<circle cx="14.0750" cy="11.7600" r="0.6500" /> 
</g>
<g style="fill:#FFFFFF; fill-opacity:1.0000; stroke:none;">
<circle cx="46.6196" cy="37.9467" r="0.8450" /> 
</g>
<g style="fill:#FFFFFF; fill-opacity:1.0000; stroke:none;">
<circle cx="48.6250" cy="31.7750" r="0.8450" /> 
</g>
<g style="fill:#FFFFFF; fill-opacity:1.0000; stroke:none;">
<circle cx="46.6196" cy="25.6033" r="0.8450" /> 
</g>
<g style="fill:#FFFFFF; fill-opacity:1.0000; stroke:none;">
<circle cx="41.3696" cy="21.7890" r="0.8450" /> 
</g>
<g style="fill:#FFFFFF; fill-opacity:1.0000; stroke:none;">
<circle cx="34.8804" cy="21.7890" r="0.8450" /> 
</g>
<g style="fill:#FFFFFF; fill-opacity:1.0000; stroke:none;">
<circle cx="29.6304" cy="25.6033" r="0.8450" /> 
</g>
<g style="fill:#FFFFFF; fill-opacity:1.0000; stroke:none;">
<circle cx="27.6250" cy="31.7750" r="0.8450" /> 
</g>
<g style="fill:#FFFFFF; fill-opacity:1.0000; stroke:none;">
<circle cx="29.6304" cy="37.9467" r="0.8450" /> 
</g>
<g style="fill:#FFFFFF; fill-opacity:1.0000; stroke:none;">
<circle cx="34.8804" cy="41.7610" r="0.8450" /> 
</g>
<g style="fill:#FFFFFF; fill-opacity:1.0000; stroke:none;">
<circle cx="59.7150" cy="8.9950" r="0.6500" /> 
</g>
<g style="fill:#FFFFFF; fill-opacity:1.0000; stroke:none;">
<circle cx="59.7150" cy="13.9950" r="0.6500" /> 
</g>
<g style="fill:#FFFFFF; fill-opacity:1.0000; stroke:none;">
<circle cx="59.4100" cy="20.3850" r="0.6500" /> 
</g>
<g style="fill:#FFFFFF; fill-opacity:1.0000; stroke:none;">
<circle cx="59.4100" cy="25.3850" r="0.6500" /> 
</g>
<g style="fill:none; 
stroke:#000000; stroke-width:0.0500; stroke-opacity:1; 
stroke-linecap:round; stroke-linejoin:round;">
<circle cx="74.9550" cy="58.4450" r="2.8398" /> 
<circle cx="5.1050" cy="58.4450" r="2.8398" /> 
<circle cx="5.1050" cy="5.1050" r="2.8398" /> 
<circle cx="74.9550" cy="5.1050" r="2.8398" /> 
<path d="M0.0250 63.5250
L0.0250 0.0250
" />
<path d="M80.0350 63.5250
L0.0250 63.5250
" />
<path d="M80.0350 0.0250
L80.0350 63.5250
" />
<path d="M0.0250 0.0250
L80.0350 0.0250
" />
</g> 
</svg>
