<?xml version="1.0" standalone="no"?>
 <!DOCTYPE svg PUBLIC "-//W3C//DTD SVG 1.1//EN" 
 "http://www.w3.org/Graphics/SVG/1.1/DTD/svg11.dtd"> 
<svg
  xmlns:svg="http://www.w3.org/2000/svg"
  xmlns="http://www.w3.org/2000/svg"
  xmlns:xlink="http://www.w3.org/1999/xlink"
  version="1.1"
  width="80.0354mm" height="63.5254mm" viewBox="0.0000 0.0000 80.0354 63.5254">
<title>SVG Image created as multi-channel-preamp-output-Edge_Cuts.svg date 2024/06/14 20:36:37 </title>
  <desc>Image generated by PCBNEW </desc>
<g style="fill:#000000; fill-opacity:1.0000;stroke:#000000; stroke-opacity:1.0000;
stroke-linecap:round; stroke-linejoin:round;"
 transform="translate(0 0) scale(1 1)">
</g>
<g style="fill:none; 
stroke:#000000; stroke-width:0.0500; stroke-opacity:1; 
stroke-linecap:round; stroke-linejoin:round;">
<circle cx="74.9550" cy="58.4450" r="2.8398" /> 
<circle cx="5.1050" cy="58.4450" r="2.8398" /> 
<circle cx="5.1050" cy="5.1050" r="2.8398" /> 
<circle cx="74.9550" cy="5.1050" r="2.8398" /> 
<path d="M0.0250 63.5250
L0.0250 0.0250
" />
<path d="M80.0350 63.5250
L0.0250 63.5250
" />
<path d="M80.0350 0.0250
L80.0350 63.5250
" />
<path d="M0.0250 0.0250
L80.0350 0.0250
" />
<circle cx="74.9550" cy="58.4450" r="2.8398" /> 
<circle cx="5.1050" cy="58.4450" r="2.8398" /> 
<circle cx="5.1050" cy="5.1050" r="2.8398" /> 
<circle cx="74.9550" cy="5.1050" r="2.8398" /> 
<path d="M0.0250 63.5250
L0.0250 0.0250
" />
<path d="M80.0350 63.5250
L0.0250 63.5250
" />
<path d="M80.0350 0.0250
L80.0350 63.5250
" />
<path d="M0.0250 0.0250
L80.0350 0.0250
" />
</g> 
</svg>
