<?xml version="1.0" standalone="no"?>
 <!DOCTYPE svg PUBLIC "-//W3C//DTD SVG 1.1//EN" 
 "http://www.w3.org/Graphics/SVG/1.1/DTD/svg11.dtd"> 
<svg
  xmlns:svg="http://www.w3.org/2000/svg"
  xmlns="http://www.w3.org/2000/svg"
  xmlns:xlink="http://www.w3.org/1999/xlink"
  version="1.1"
  width="80.0354mm" height="63.5254mm" viewBox="0.0000 0.0000 80.0354 63.5254">
<title>SVG Image created as multi-channel-preamp-output-F_Silkscreen.svg date 2024/06/14 20:36:37 </title>
  <desc>Image generated by PCBNEW </desc>
<g style="fill:#000000; fill-opacity:1.0000;stroke:#000000; stroke-opacity:1.0000;
stroke-linecap:round; stroke-linejoin:round;"
 transform="translate(0 0) scale(1 1)">
</g>
<g style="fill:none; 
stroke:#000000; stroke-width:0.1500; stroke-opacity:1; 
stroke-linecap:round; stroke-linejoin:round;">
<text x="59.7150" y="50.9450"
textLength="2.2024" font-size="1.3333" lengthAdjust="spacingAndGlyphs"
text-anchor="middle" opacity="0">R4</text>
<g class="stroked-text"><desc>R4</desc>
<path d="M59.5483 50.8998
L59.2150 50.4236
" />
<path d="M58.9769 50.8998
L58.9769 49.8998
" />
<path d="M58.9769 49.8998
L59.3579 49.8998
" />
<path d="M59.3579 49.8998
L59.4531 49.9474
" />
<path d="M59.4531 49.9474
L59.5007 49.9951
" />
<path d="M59.5007 49.9951
L59.5483 50.0903
" />
<path d="M59.5483 50.0903
L59.5483 50.2332
" />
<path d="M59.5483 50.2332
L59.5007 50.3284
" />
<path d="M59.5007 50.3284
L59.4531 50.3760
" />
<path d="M59.4531 50.3760
L59.3579 50.4236
" />
<path d="M59.3579 50.4236
L58.9769 50.4236
" />
<path d="M60.4055 50.2332
L60.4055 50.8998
" />
<path d="M60.1674 49.8522
L59.9293 50.5665
" />
<path d="M59.9293 50.5665
L60.5483 50.5665
" />
</g><g transform="rotate(-90.000000 16.1550 33.0450)">
<text x="16.1550" y="33.5450"
textLength="2.2024" font-size="1.3333" lengthAdjust="spacingAndGlyphs"
text-anchor="middle" opacity="0">R3</text>
</g>
<g class="stroked-text"><desc>R3</desc>
<path d="M16.6098 33.2117
L16.1336 33.5450
" />
<path d="M16.6098 33.7831
L15.6098 33.7831
" />
<path d="M15.6098 33.7831
L15.6098 33.4021
" />
<path d="M15.6098 33.4021
L15.6574 33.3069
" />
<path d="M15.6574 33.3069
L15.7051 33.2593
" />
<path d="M15.7051 33.2593
L15.8003 33.2117
" />
<path d="M15.8003 33.2117
L15.9432 33.2117
" />
<path d="M15.9432 33.2117
L16.0384 33.2593
" />
<path d="M16.0384 33.2593
L16.0860 33.3069
" />
<path d="M16.0860 33.3069
L16.1336 33.4021
" />
<path d="M16.1336 33.4021
L16.1336 33.7831
" />
<path d="M15.6098 32.8783
L15.6098 32.2593
" />
<path d="M15.6098 32.2593
L15.9908 32.5926
" />
<path d="M15.9908 32.5926
L15.9908 32.4498
" />
<path d="M15.9908 32.4498
L16.0384 32.3545
" />
<path d="M16.0384 32.3545
L16.0860 32.3069
" />
<path d="M16.0860 32.3069
L16.1812 32.2593
" />
<path d="M16.1812 32.2593
L16.4193 32.2593
" />
<path d="M16.4193 32.2593
L16.5146 32.3069
" />
<path d="M16.5146 32.3069
L16.5622 32.3545
" />
<path d="M16.5622 32.3545
L16.6098 32.4498
" />
<path d="M16.6098 32.4498
L16.6098 32.7355
" />
<path d="M16.6098 32.7355
L16.5622 32.8307
" />
<path d="M16.5622 32.8307
L16.5146 32.8783
" />
</g><g transform="rotate(-90.000000 8.5350 33.0450)">
<text x="8.5350" y="33.5450"
textLength="2.2024" font-size="1.3333" lengthAdjust="spacingAndGlyphs"
text-anchor="middle" opacity="0">R2</text>
</g>
<g class="stroked-text"><desc>R2</desc>
<path d="M8.9898 33.2117
L8.5136 33.5450
" />
<path d="M8.9898 33.7831
L7.9898 33.7831
" />
<path d="M7.9898 33.7831
L7.9898 33.4021
" />
<path d="M7.9898 33.4021
L8.0374 33.3069
" />
<path d="M8.0374 33.3069
L8.0851 33.2593
" />
<path d="M8.0851 33.2593
L8.1803 33.2117
" />
<path d="M8.1803 33.2117
L8.3232 33.2117
" />
<path d="M8.3232 33.2117
L8.4184 33.2593
" />
<path d="M8.4184 33.2593
L8.4660 33.3069
" />
<path d="M8.4660 33.3069
L8.5136 33.4021
" />
<path d="M8.5136 33.4021
L8.5136 33.7831
" />
<path d="M8.0851 32.8307
L8.0374 32.7831
" />
<path d="M8.0374 32.7831
L7.9898 32.6879
" />
<path d="M7.9898 32.6879
L7.9898 32.4498
" />
<path d="M7.9898 32.4498
L8.0374 32.3545
" />
<path d="M8.0374 32.3545
L8.0851 32.3069
" />
<path d="M8.0851 32.3069
L8.1803 32.2593
" />
<path d="M8.1803 32.2593
L8.2755 32.2593
" />
<path d="M8.2755 32.2593
L8.4184 32.3069
" />
<path d="M8.4184 32.3069
L8.9898 32.8783
" />
<path d="M8.9898 32.8783
L8.9898 32.2593
" />
</g><text x="38.1250" y="9.0350"
textLength="2.2024" font-size="1.3333" lengthAdjust="spacingAndGlyphs"
text-anchor="middle" opacity="0">R1</text>
<g class="stroked-text"><desc>R1</desc>
<path d="M37.9583 8.9898
L37.6250 8.5136
" />
<path d="M37.3869 8.9898
L37.3869 7.9898
" />
<path d="M37.3869 7.9898
L37.7679 7.9898
" />
<path d="M37.7679 7.9898
L37.8631 8.0374
" />
<path d="M37.8631 8.0374
L37.9107 8.0851
" />
<path d="M37.9107 8.0851
L37.9583 8.1803
" />
<path d="M37.9583 8.1803
L37.9583 8.3232
" />
<path d="M37.9583 8.3232
L37.9107 8.4184
" />
<path d="M37.9107 8.4184
L37.8631 8.4660
" />
<path d="M37.8631 8.4660
L37.7679 8.5136
" />
<path d="M37.7679 8.5136
L37.3869 8.5136
" />
<path d="M38.9107 8.9898
L38.3393 8.9898
" />
<path d="M38.6250 8.9898
L38.6250 7.9898
" />
<path d="M38.6250 7.9898
L38.5298 8.1327
" />
<path d="M38.5298 8.1327
L38.4345 8.2279
" />
<path d="M38.4345 8.2279
L38.3393 8.2755
" />
</g><text x="38.1250" y="59.2350"
textLength="2.2024" font-size="1.3333" lengthAdjust="spacingAndGlyphs"
text-anchor="middle" opacity="0">C2</text>
<g class="stroked-text"><desc>C2</desc>
<path d="M37.9583 59.0946
L37.9107 59.1422
" />
<path d="M37.9107 59.1422
L37.7679 59.1898
" />
<path d="M37.7679 59.1898
L37.6726 59.1898
" />
<path d="M37.6726 59.1898
L37.5298 59.1422
" />
<path d="M37.5298 59.1422
L37.4345 59.0470
" />
<path d="M37.4345 59.0470
L37.3869 58.9517
" />
<path d="M37.3869 58.9517
L37.3393 58.7612
" />
<path d="M37.3393 58.7612
L37.3393 58.6184
" />
<path d="M37.3393 58.6184
L37.3869 58.4279
" />
<path d="M37.3869 58.4279
L37.4345 58.3327
" />
<path d="M37.4345 58.3327
L37.5298 58.2374
" />
<path d="M37.5298 58.2374
L37.6726 58.1898
" />
<path d="M37.6726 58.1898
L37.7679 58.1898
" />
<path d="M37.7679 58.1898
L37.9107 58.2374
" />
<path d="M37.9107 58.2374
L37.9583 58.2851
" />
<path d="M38.3393 58.2851
L38.3869 58.2374
" />
<path d="M38.3869 58.2374
L38.4821 58.1898
" />
<path d="M38.4821 58.1898
L38.7202 58.1898
" />
<path d="M38.7202 58.1898
L38.8155 58.2374
" />
<path d="M38.8155 58.2374
L38.8631 58.2851
" />
<path d="M38.8631 58.2851
L38.9107 58.3803
" />
<path d="M38.9107 58.3803
L38.9107 58.4755
" />
<path d="M38.9107 58.4755
L38.8631 58.6184
" />
<path d="M38.8631 58.6184
L38.2917 59.1898
" />
<path d="M38.2917 59.1898
L38.9107 59.1898
" />
</g><g transform="rotate(-90.000000 65.0850 39.5150)">
<text x="65.0850" y="40.0150"
textLength="2.2024" font-size="1.3333" lengthAdjust="spacingAndGlyphs"
text-anchor="middle" opacity="0">C1</text>
</g>
<g class="stroked-text"><desc>C1</desc>
<path d="M65.4446 39.6817
L65.4922 39.7293
" />
<path d="M65.4922 39.7293
L65.5398 39.8721
" />
<path d="M65.5398 39.8721
L65.5398 39.9674
" />
<path d="M65.5398 39.9674
L65.4922 40.1102
" />
<path d="M65.4922 40.1102
L65.3970 40.2055
" />
<path d="M65.3970 40.2055
L65.3017 40.2531
" />
<path d="M65.3017 40.2531
L65.1112 40.3007
" />
<path d="M65.1112 40.3007
L64.9684 40.3007
" />
<path d="M64.9684 40.3007
L64.7779 40.2531
" />
<path d="M64.7779 40.2531
L64.6827 40.2055
" />
<path d="M64.6827 40.2055
L64.5874 40.1102
" />
<path d="M64.5874 40.1102
L64.5398 39.9674
" />
<path d="M64.5398 39.9674
L64.5398 39.8721
" />
<path d="M64.5398 39.8721
L64.5874 39.7293
" />
<path d="M64.5874 39.7293
L64.6351 39.6817
" />
<path d="M65.5398 38.7293
L65.5398 39.3007
" />
<path d="M65.5398 39.0150
L64.5398 39.0150
" />
<path d="M64.5398 39.0150
L64.6827 39.1102
" />
<path d="M64.6827 39.1102
L64.7779 39.2055
" />
<path d="M64.7779 39.2055
L64.8255 39.3007
" />
</g><text x="15.3050" y="47.6050"
textLength="1.9643" font-size="1.3333" lengthAdjust="spacingAndGlyphs"
text-anchor="middle" opacity="0">J1</text>
<g class="stroked-text"><desc>J1</desc>
<path d="M14.9717 46.5598
L14.9717 47.2741
" />
<path d="M14.9717 47.2741
L14.9240 47.4170
" />
<path d="M14.9240 47.4170
L14.8288 47.5122
" />
<path d="M14.8288 47.5122
L14.6860 47.5598
" />
<path d="M14.6860 47.5598
L14.5907 47.5598
" />
<path d="M15.9717 47.5598
L15.4002 47.5598
" />
<path d="M15.6860 47.5598
L15.6860 46.5598
" />
<path d="M15.6860 46.5598
L15.5907 46.7027
" />
<path d="M15.5907 46.7027
L15.4955 46.7979
" />
<path d="M15.4955 46.7979
L15.4002 46.8455
" />
</g><text x="16.5750" y="18.5200"
textLength="1.9643" font-size="1.3333" lengthAdjust="spacingAndGlyphs"
text-anchor="middle" opacity="0">J2</text>
<g class="stroked-text"><desc>J2</desc>
<path d="M16.2417 17.4748
L16.2417 18.1891
" />
<path d="M16.2417 18.1891
L16.1940 18.3320
" />
<path d="M16.1940 18.3320
L16.0988 18.4272
" />
<path d="M16.0988 18.4272
L15.9560 18.4748
" />
<path d="M15.9560 18.4748
L15.8607 18.4748
" />
<path d="M16.6702 17.5701
L16.7179 17.5224
" />
<path d="M16.7179 17.5224
L16.8131 17.4748
" />
<path d="M16.8131 17.4748
L17.0512 17.4748
" />
<path d="M17.0512 17.4748
L17.1464 17.5224
" />
<path d="M17.1464 17.5224
L17.1940 17.5701
" />
<path d="M17.1940 17.5701
L17.2417 17.6653
" />
<path d="M17.2417 17.6653
L17.2417 17.7605
" />
<path d="M17.2417 17.7605
L17.1940 17.9034
" />
<path d="M17.1940 17.9034
L16.6226 18.4748
" />
<path d="M16.6226 18.4748
L17.2417 18.4748
" />
</g><g transform="rotate(-90.000000 51.7600 31.4500)">
<text x="51.7600" y="31.9500"
textLength="2.2500" font-size="1.3333" lengthAdjust="spacingAndGlyphs"
text-anchor="middle" opacity="0">U1</text>
</g>
<g class="stroked-text"><desc>U1</desc>
<path d="M51.2148 32.2119
L52.0243 32.2119
" />
<path d="M52.0243 32.2119
L52.1196 32.1643
" />
<path d="M52.1196 32.1643
L52.1672 32.1167
" />
<path d="M52.1672 32.1167
L52.2148 32.0214
" />
<path d="M52.2148 32.0214
L52.2148 31.8310
" />
<path d="M52.2148 31.8310
L52.1672 31.7357
" />
<path d="M52.1672 31.7357
L52.1196 31.6881
" />
<path d="M52.1196 31.6881
L52.0243 31.6405
" />
<path d="M52.0243 31.6405
L51.2148 31.6405
" />
<path d="M52.2148 30.6405
L52.2148 31.2119
" />
<path d="M52.2148 30.9262
L51.2148 30.9262
" />
<path d="M51.2148 30.9262
L51.3577 31.0214
" />
<path d="M51.3577 31.0214
L51.4529 31.1167
" />
<path d="M51.4529 31.1167
L51.5005 31.2119
" />
</g><g transform="rotate(-90.000000 65.9750 11.4950)">
<text x="65.9750" y="11.9950"
textLength="1.9643" font-size="1.3333" lengthAdjust="spacingAndGlyphs"
text-anchor="middle" opacity="0">J4</text>
</g>
<g class="stroked-text"><desc>J4</desc>
<path d="M65.4298 11.8283
L66.1441 11.8283
" />
<path d="M66.1441 11.8283
L66.2870 11.8760
" />
<path d="M66.2870 11.8760
L66.3822 11.9712
" />
<path d="M66.3822 11.9712
L66.4298 12.1140
" />
<path d="M66.4298 12.1140
L66.4298 12.2093
" />
<path d="M65.7632 10.9236
L66.4298 10.9236
" />
<path d="M65.3822 11.1617
L66.0965 11.3998
" />
<path d="M66.0965 11.3998
L66.0965 10.7807
" />
</g><g transform="rotate(-90.000000 65.6700 22.8850)">
<text x="65.6700" y="23.3850"
textLength="1.9643" font-size="1.3333" lengthAdjust="spacingAndGlyphs"
text-anchor="middle" opacity="0">J3</text>
</g>
<g class="stroked-text"><desc>J3</desc>
<path d="M65.1248 23.2183
L65.8391 23.2183
" />
<path d="M65.8391 23.2183
L65.9820 23.2660
" />
<path d="M65.9820 23.2660
L66.0772 23.3612
" />
<path d="M66.0772 23.3612
L66.1248 23.5040
" />
<path d="M66.1248 23.5040
L66.1248 23.5993
" />
<path d="M65.1248 22.8374
L65.1248 22.2183
" />
<path d="M65.1248 22.2183
L65.5058 22.5517
" />
<path d="M65.5058 22.5517
L65.5058 22.4088
" />
<path d="M65.5058 22.4088
L65.5534 22.3136
" />
<path d="M65.5534 22.3136
L65.6010 22.2660
" />
<path d="M65.6010 22.2660
L65.6962 22.2183
" />
<path d="M65.6962 22.2183
L65.9343 22.2183
" />
<path d="M65.9343 22.2183
L66.0296 22.2660
" />
<path d="M66.0296 22.2660
L66.0772 22.3136
" />
<path d="M66.0772 22.3136
L66.1248 22.4088
" />
<path d="M66.1248 22.4088
L66.1248 22.6945
" />
<path d="M66.1248 22.6945
L66.0772 22.7898
" />
<path d="M66.0772 22.7898
L66.0296 22.8374
" />
</g></g>
<g style="fill:none; 
stroke:#000000; stroke-width:0.1200; stroke-opacity:1; 
stroke-linecap:round; stroke-linejoin:round;">
<path d="M54.6450 51.4450
L64.7850 51.4450
" />
<path d="M54.6450 51.9250
L54.6450 51.4450
" />
<path d="M54.6450 54.8050
L54.6450 55.2850
" />
<path d="M54.6450 55.2850
L64.7850 55.2850
" />
<path d="M64.7850 51.4450
L64.7850 51.9250
" />
<path d="M64.7850 55.2850
L64.7850 54.8050
" />
<path d="M17.1550 38.1150
L17.1550 27.9750
" />
<path d="M17.6350 38.1150
L17.1550 38.1150
" />
<path d="M20.5150 38.1150
L20.9950 38.1150
" />
<path d="M20.9950 38.1150
L20.9950 27.9750
" />
<path d="M17.1550 27.9750
L17.6350 27.9750
" />
<path d="M20.9950 27.9750
L20.5150 27.9750
" />
<path d="M9.5350 38.1150
L9.5350 27.9750
" />
<path d="M10.0150 38.1150
L9.5350 38.1150
" />
<path d="M12.8950 38.1150
L13.3750 38.1150
" />
<path d="M13.3750 38.1150
L13.3750 27.9750
" />
<path d="M9.5350 27.9750
L10.0150 27.9750
" />
<path d="M13.3750 27.9750
L12.8950 27.9750
" />
<path d="M33.0550 9.5350
L43.1950 9.5350
" />
<path d="M33.0550 10.0150
L33.0550 9.5350
" />
<path d="M33.0550 12.8950
L33.0550 13.3750
" />
<path d="M33.0550 13.3750
L43.1950 13.3750
" />
<path d="M43.1950 9.5350
L43.1950 10.0150
" />
<path d="M43.1950 13.3750
L43.1950 12.8950
" />
<path d="M44.5850 53.3650
L44.2450 53.3650
" />
<path d="M44.2450 57.7350
L44.2450 48.9950
" />
<path d="M44.2450 48.9950
L32.0050 48.9950
" />
<path d="M32.0050 57.7350
L44.2450 57.7350
" />
<path d="M32.0050 48.9950
L32.0050 57.7350
" />
<path d="M31.6650 53.3650
L32.0050 53.3650
" />
<path d="M59.7150 33.0550
L59.7150 33.3950
" />
<path d="M64.0850 33.3950
L55.3450 33.3950
" />
<path d="M55.3450 33.3950
L55.3450 45.6350
" />
<path d="M64.0850 45.6350
L64.0850 33.3950
" />
<path d="M55.3450 45.6350
L64.0850 45.6350
" />
<path d="M59.7150 45.9750
L59.7150 45.6350
" />
<path d="M10.0050 57.5250
L10.0050 58.2650
" />
<path d="M10.0050 58.2650
L10.5050 58.2650
" />
<path d="M10.2450 48.1040
L10.2450 58.0250
" />
<path d="M10.2450 48.1040
L20.3650 48.1040
" />
<path d="M10.2450 51.0640
L20.3650 51.0640
" />
<path d="M10.2450 55.9650
L20.3650 55.9650
" />
<path d="M10.2450 57.4650
L20.3650 57.4650
" />
<path d="M10.2450 58.0250
L20.3650 58.0250
" />
<path d="M16.5780 54.3880
L16.5310 54.4340
" />
<path d="M16.7710 54.6040
L16.7360 54.6390
" />
<path d="M18.8750 52.0900
L18.8400 52.1260
" />
<path d="M19.0800 52.2960
L19.0330 52.3420
" />
<path d="M20.3650 48.1040
L20.3650 58.0250
" />
<path d="M11.2700 52.6810 A1.6805 1.6805 0.0 0 0 11.2696 54.0480" />
<path d="M13.4890 51.8300 A1.6805 1.6805 0.0 0 0 12.1220 51.8296" />
<path d="M12.1210 54.9000 A1.6805 1.6805 0.0 0 0 12.8338 55.0453" />
<path d="M12.8050 55.0450 A1.6800 1.6800 0.0 0 0 13.4883 54.8998" />
<path d="M14.3400 54.0490 A1.6805 1.6805 0.0 0 0 14.3404 52.6820" />
<circle cx="17.8050" cy="53.3650" r="1.6800" /> 
<path d="M21.8750 7.6000
L21.8750 6.8600
" />
<path d="M21.8750 6.8600
L21.3750 6.8600
" />
<path d="M21.6350 17.0210
L21.6350 7.1000
" />
<path d="M21.6350 17.0210
L11.5150 17.0210
" />
<path d="M21.6350 14.0610
L11.5150 14.0610
" />
<path d="M21.6350 9.1600
L11.5150 9.1600
" />
<path d="M21.6350 7.6600
L11.5150 7.6600
" />
<path d="M21.6350 7.1000
L11.5150 7.1000
" />
<path d="M15.3020 10.7370
L15.3490 10.6910
" />
<path d="M15.1090 10.5210
L15.1440 10.4860
" />
<path d="M13.0050 13.0350
L13.0400 12.9990
" />
<path d="M12.8000 12.8290
L12.8470 12.7830
" />
<path d="M11.5150 17.0210
L11.5150 7.1000
" />
<path d="M20.6100 12.4440 A1.6805 1.6805 0.0 0 0 20.6104 11.0770" />
<path d="M18.3910 13.2950 A1.6805 1.6805 0.0 0 0 19.7580 13.2954" />
<path d="M19.7590 10.2250 A1.6805 1.6805 0.0 0 0 19.0462 10.0797" />
<path d="M19.0750 10.0800 A1.6800 1.6800 0.0 0 0 18.3917 10.2252" />
<path d="M17.5400 11.0760 A1.6805 1.6805 0.0 0 0 17.5396 12.4430" />
<circle cx="14.0750" cy="11.7600" r="1.6800" /> 
</g>
<g style="fill:none; 
stroke:#000000; stroke-width:0.1270; stroke-opacity:1; 
stroke-linecap:round; stroke-linejoin:round;">
<path d="M31.4600 22.5250
L33.1250 22.5250
" />
<path d="M31.4600 41.0250
L33.2104 41.0250
" />
<path d="M36.5504 41.0250
L44.7900 41.0250
" />
<path d="M39.7050 22.5250
L36.5450 22.5250
" />
<path d="M44.7900 22.5250
L43.1250 22.5250
" />
<path d="M27.7279 27.0968 A11.4394 11.4394 0.0 0 0 27.0283 29.1750" />
<path d="M27.0283 34.3750 A11.4399 11.4399 0.0 0 0 27.7279 36.4532" />
<path d="M31.4600 22.5250 A11.4398 11.4398 0.0 0 0 29.8150 23.9750" />
<path d="M29.8150 39.5750 A11.4395 11.4395 0.0 0 0 31.4600 41.0250" />
<path d="M46.4350 23.9750 A11.4394 11.4394 0.0 0 0 44.7900 22.5250" />
<path d="M44.7900 41.0250 A11.4394 11.4394 0.0 0 0 46.4350 39.5750" />
<path d="M49.2217 29.1750 A11.4394 11.4394 0.0 0 0 48.5221 27.0968" />
<path d="M48.5221 36.4532 A11.4389 11.4389 0.0 0 0 49.2217 34.3750" />
</g>
<g style="fill:none; 
stroke:#000000; stroke-width:0.2000; stroke-opacity:1; 
stroke-linecap:round; stroke-linejoin:round;">
<circle cx="46.6250" cy="41.7750" r="0.1000" /> 
</g>
<g style="fill:none; 
stroke:#000000; stroke-width:0.1200; stroke-opacity:1; 
stroke-linecap:round; stroke-linejoin:round;">
<path d="M54.8150 6.1950
L54.8150 6.6950
" />
<path d="M55.0550 6.4350
L55.0550 16.5550
" />
<path d="M55.5550 6.1950
L54.8150 6.1950
" />
<path d="M55.6150 6.4350
L55.6150 16.5550
" />
<path d="M57.1150 6.4350
L57.1150 16.5550
" />
<path d="M58.4760 12.9610
L58.4410 12.9260
" />
<path d="M58.6920 12.7680
L58.6460 12.7210
" />
<path d="M60.7840 15.2700
L60.7380 15.2230
" />
<path d="M60.9900 15.0650
L60.9540 15.0300
" />
<path d="M62.0160 6.4350
L62.0160 16.5550
" />
<path d="M64.9760 6.4350
L55.0550 6.4350
" />
<path d="M64.9760 6.4350
L64.9760 16.5550
" />
<path d="M64.9760 16.5550
L55.0550 16.5550
" />
<path d="M58.1800 8.3110 A1.6805 1.6805 0.0 0 0 58.0347 9.0238" />
<path d="M58.0350 8.9950 A1.6800 1.6800 0.0 0 0 58.1802 9.6783" />
<path d="M60.3990 7.4600 A1.6805 1.6805 0.0 0 0 59.0320 7.4596" />
<path d="M59.0310 10.5300 A1.6805 1.6805 0.0 0 0 60.3980 10.5304" />
<path d="M61.2500 9.6790 A1.6805 1.6805 0.0 0 0 61.2504 8.3120" />
<circle cx="59.7150" cy="13.9950" r="1.6800" /> 
<path d="M54.5100 17.5850
L54.5100 18.0850
" />
<path d="M54.7500 17.8250
L54.7500 27.9450
" />
<path d="M55.2500 17.5850
L54.5100 17.5850
" />
<path d="M55.3100 17.8250
L55.3100 27.9450
" />
<path d="M56.8100 17.8250
L56.8100 27.9450
" />
<path d="M58.1710 24.3510
L58.1360 24.3160
" />
<path d="M58.3870 24.1580
L58.3410 24.1110
" />
<path d="M60.4790 26.6600
L60.4330 26.6130
" />
<path d="M60.6850 26.4550
L60.6490 26.4200
" />
<path d="M61.7110 17.8250
L61.7110 27.9450
" />
<path d="M64.6710 17.8250
L54.7500 17.8250
" />
<path d="M64.6710 17.8250
L64.6710 27.9450
" />
<path d="M64.6710 27.9450
L54.7500 27.9450
" />
<path d="M57.8750 19.7010 A1.6805 1.6805 0.0 0 0 57.7297 20.4138" />
<path d="M57.7300 20.3850 A1.6800 1.6800 0.0 0 0 57.8752 21.0683" />
<path d="M60.0940 18.8500 A1.6805 1.6805 0.0 0 0 58.7270 18.8496" />
<path d="M58.7260 21.9200 A1.6805 1.6805 0.0 0 0 60.0930 21.9204" />
<path d="M60.9450 21.0690 A1.6805 1.6805 0.0 0 0 60.9454 19.7020" />
<circle cx="59.4100" cy="25.3850" r="1.6800" /> 
</g>
<g style="fill:none; 
stroke:#000000; stroke-width:0.0500; stroke-opacity:1; 
stroke-linecap:round; stroke-linejoin:round;">
<circle cx="74.9550" cy="58.4450" r="2.8398" /> 
<circle cx="5.1050" cy="58.4450" r="2.8398" /> 
<circle cx="5.1050" cy="5.1050" r="2.8398" /> 
<circle cx="74.9550" cy="5.1050" r="2.8398" /> 
<path d="M0.0250 63.5250
L0.0250 0.0250
" />
<path d="M80.0350 63.5250
L0.0250 63.5250
" />
<path d="M80.0350 0.0250
L80.0350 63.5250
" />
<path d="M0.0250 0.0250
L80.0350 0.0250
" />
</g> 
</svg>
