<?xml version="1.0" standalone="no"?>
 <!DOCTYPE svg PUBLIC "-//W3C//DTD SVG 1.1//EN" 
 "http://www.w3.org/Graphics/SVG/1.1/DTD/svg11.dtd"> 
<svg
  xmlns:svg="http://www.w3.org/2000/svg"
  xmlns="http://www.w3.org/2000/svg"
  xmlns:xlink="http://www.w3.org/1999/xlink"
  version="1.1"
  width="80.0354mm" height="63.5254mm" viewBox="0.0000 0.0000 80.0354 63.5254">
<title>SVG Image created as multi-channel-preamp-output-B_Cu.svg date 2024/06/14 20:36:37 </title>
  <desc>Image generated by PCBNEW </desc>
<g style="fill:#000000; fill-opacity:1.0000;stroke:#000000; stroke-opacity:1.0000;
stroke-linecap:round; stroke-linejoin:round;"
 transform="translate(0 0) scale(1 1)">
</g>
<g style="fill:#000000; fill-opacity:1.0000; stroke:none;">
<circle cx="53.3650" cy="53.3650" r="2.5000" /> 
</g>
<g style="fill:#000000; fill-opacity:1.0000; stroke:none;">
<circle cx="66.0650" cy="53.3650" r="2.5000" /> 
</g>
<g style="fill:#000000; fill-opacity:1.0000; stroke:none;">
<circle cx="19.0750" cy="39.3950" r="2.5000" /> 
</g>
<g style="fill:#000000; fill-opacity:1.0000; stroke:none;">
<circle cx="19.0750" cy="26.6950" r="2.5000" /> 
</g>
<g style="fill:#000000; fill-opacity:1.0000; stroke:none;">
<circle cx="11.4550" cy="39.3950" r="2.5000" /> 
</g>
<g style="fill:#000000; fill-opacity:1.0000; stroke:none;">
<circle cx="11.4550" cy="26.6950" r="2.5000" /> 
</g>
<g style="fill:#000000; fill-opacity:1.0000; stroke:none;">
<circle cx="31.7750" cy="11.4550" r="2.5000" /> 
</g>
<g style="fill:#000000; fill-opacity:1.0000; stroke:none;">
<circle cx="44.4750" cy="11.4550" r="2.5000" /> 
</g>
<g style="fill:#000000; fill-opacity:1.0000; stroke:none;">
<circle cx="45.6250" cy="53.3650" r="2.5000" /> 
</g>
<g style="fill:#000000; fill-opacity:1.0000; stroke:none;">
<circle cx="30.6250" cy="53.3650" r="2.5000" /> 
</g>
<g style="fill:#000000; fill-opacity:1.0000; stroke:none;">
<circle cx="59.7150" cy="32.0150" r="2.5000" /> 
</g>
<g style="fill:#000000; fill-opacity:1.0000; stroke:none;">
<circle cx="59.7150" cy="47.0150" r="2.5000" /> 
<path style="fill:#000000; fill-opacity:1.0000; stroke:none;fill-rule:evenodd;"
d="M 11.0550,56.8650
11.0550,49.8650
14.5550,49.8650
14.5550,56.8650
Z" /> 
</g>
<g style="fill:none; 
stroke:#000000; stroke-width:3.5000; stroke-opacity:1; 
stroke-linecap:round; stroke-linejoin:round;">
<path d="M17.8050 51.6150
L17.8050 55.1150
" />
<path style="fill:#000000; fill-opacity:1.0000; stroke:none;fill-rule:evenodd;"
d="M 20.8250,8.2600
20.8250,15.2600
17.3250,15.2600
17.3250,8.2600
Z" /> 
</g>
<g style="fill:none; 
stroke:#000000; stroke-width:3.5000; stroke-opacity:1; 
stroke-linecap:round; stroke-linejoin:round;">
<path d="M14.0750 13.5100
L14.0750 10.0100
" />
<path style="fill:#000000; fill-opacity:1.0000; stroke:none;fill-rule:evenodd;"
d="M 44.1196,35.4467
49.1196,35.4467
49.1196,40.4467
44.1196,40.4467
Z" /> 
</g>
<g style="fill:none; 
stroke:#000000; stroke-width:3.5000; stroke-opacity:1; 
stroke-linecap:round; stroke-linejoin:round;">
<path d="M49.3750 31.7750
L47.8750 31.7750
" />
<path d="M47.3696 25.6033
L45.8696 25.6033
" />
<path d="M41.3696 21.0390
L41.3696 22.5390
" />
<path d="M34.8804 21.0390
L34.8804 22.5390
" />
<path d="M30.3804 25.6033
L28.8804 25.6033
" />
<path d="M28.3750 31.7750
L26.8750 31.7750
" />
<path d="M30.3804 37.9467
L28.8804 37.9467
" />
<path d="M34.8804 41.0110
L34.8804 42.5110
" />
<path style="fill:#000000; fill-opacity:1.0000; stroke:none;fill-rule:evenodd;"
d="M 56.2150,7.2450
63.2150,7.2450
63.2150,10.7450
56.2150,10.7450
Z" /> 
</g>
<g style="fill:none; 
stroke:#000000; stroke-width:3.5000; stroke-opacity:1; 
stroke-linecap:round; stroke-linejoin:round;">
<path d="M61.4650 13.9950
L57.9650 13.9950
" />
<path style="fill:#000000; fill-opacity:1.0000; stroke:none;fill-rule:evenodd;"
d="M 55.9100,18.6350
62.9100,18.6350
62.9100,22.1350
55.9100,22.1350
Z" /> 
</g>
<g style="fill:none; 
stroke:#000000; stroke-width:3.5000; stroke-opacity:1; 
stroke-linecap:round; stroke-linejoin:round;">
<path d="M61.1600 25.3850
L57.6600 25.3850
" />
</g>
<g style="fill:none; 
stroke:#000000; stroke-width:2.0000; stroke-opacity:1; 
stroke-linecap:round; stroke-linejoin:round;">
<path d="M34.8804 21.7890
L41.3696 21.7890
" />
<path d="M17.8050 53.3650
L23.6950 47.4750
" />
<path d="M35.2197 47.4750
L38.6304 44.0643
" />
<path d="M38.6304 44.0643
L38.6304 25.5390
" />
<path d="M23.6950 47.4750
L35.2197 47.4750
" />
<path d="M38.6304 25.5390
L34.8804 21.7890
" />
<path d="M12.8050 53.3650
L12.8050 51.3117
" />
<path d="M12.8050 51.3117
L19.6417 44.4750
" />
<path d="M19.6417 44.4750
L32.1664 44.4750
" />
<path d="M32.1664 44.4750
L34.8804 41.7610
" />
<path style="fill:#000000; fill-opacity:1.0000; stroke:none;fill-rule:evenodd;"
d="M 78.7080,1.3147
78.7538,1.3675
78.7650,1.4190
78.7650,62.1310
78.7453,62.1980
78.6925,62.2438
78.6410,62.2550
1.4190,62.2550
1.3520,62.2353
1.3062,62.1825
1.2950,62.1310
1.2950,58.4450
1.7598,58.4450
1.7598,58.4450
1.7794,58.8067
1.8380,59.1641
1.8380,59.1641
1.9349,59.5131
1.9349,59.5131
2.0690,59.8496
2.0690,59.8496
2.2013,60.0991
2.2386,60.1696
2.4419,60.4694
2.6764,60.7455
2.9394,60.9946
3.2277,61.2138
3.5381,61.4005
3.5381,61.4005
3.5381,61.4005
3.5381,61.4005
3.8668,61.5526
3.8668,61.5526
4.2101,61.6683
4.5638,61.7461
4.9239,61.7853
4.9239,61.7853
5.2861,61.7853
5.2861,61.7853
5.6462,61.7461
5.9999,61.6683
6.3432,61.5526
6.6719,61.4005
6.9823,61.2138
7.2706,60.9946
7.5336,60.7455
7.7681,60.4694
7.9714,60.1696
8.1410,59.8496
8.2751,59.5131
8.3720,59.1641
8.4306,58.8067
8.4502,58.4450
8.4502,58.4450
71.6098,58.4450
71.6098,58.4450
71.6294,58.8067
71.6880,59.1641
71.6880,59.1641
71.7849,59.5131
71.7849,59.5131
71.9190,59.8496
71.9190,59.8496
72.0513,60.0991
72.0886,60.1696
72.2919,60.4694
72.5264,60.7455
72.7894,60.9946
73.0777,61.2138
73.3881,61.4005
73.3881,61.4005
73.3881,61.4005
73.3881,61.4005
73.7168,61.5526
73.7168,61.5526
74.0601,61.6683
74.4138,61.7461
74.7739,61.7853
74.7739,61.7853
75.1361,61.7853
75.1361,61.7853
75.4962,61.7461
75.8499,61.6683
76.1932,61.5526
76.5219,61.4005
76.8323,61.2138
77.1206,60.9946
77.3836,60.7455
77.6181,60.4694
77.8214,60.1696
77.9910,59.8496
78.1251,59.5131
78.2220,59.1641
78.2806,58.8067
78.3002,58.4450
78.2806,58.0833
78.2220,57.7259
78.1665,57.5261
78.1251,57.3769
78.1251,57.3769
77.9910,57.0404
77.9910,57.0404
77.9528,56.9684
77.8214,56.7204
77.6181,56.4206
77.3836,56.1445
77.1206,55.8954
77.1206,55.8954
77.1206,55.8954
76.9628,55.7754
76.8323,55.6762
76.5219,55.4895
76.5219,55.4895
76.5219,55.4895
76.5219,55.4895
76.1932,55.3374
76.1932,55.3374
76.1932,55.3374
75.9917,55.2695
75.8499,55.2217
75.4962,55.1439
75.1361,55.1047
75.1361,55.1047
74.7739,55.1047
74.7739,55.1047
74.4138,55.1439
74.0601,55.2217
73.8377,55.2966
73.7168,55.3374
73.7168,55.3374
73.7168,55.3374
73.3881,55.4895
73.3881,55.4895
73.1569,55.6285
73.0777,55.6762
73.0326,55.7105
72.7894,55.8954
72.7894,55.8954
72.5264,56.1445
72.2919,56.4206
72.0886,56.7204
71.9190,57.0404
71.9190,57.0404
71.7849,57.3769
71.7849,57.3769
71.6880,57.7259
71.6880,57.7259
71.6294,58.0833
71.6098,58.4450
8.4502,58.4450
8.4306,58.0833
8.3720,57.7259
8.3165,57.5261
8.2751,57.3769
8.2751,57.3769
8.1410,57.0404
8.1410,57.0404
8.1028,56.9684
7.9714,56.7204
7.7681,56.4206
7.5336,56.1445
7.2706,55.8954
7.2706,55.8954
7.2706,55.8954
7.1128,55.7754
6.9823,55.6762
6.6719,55.4895
6.6719,55.4895
6.6719,55.4895
6.6719,55.4895
6.3432,55.3374
6.3432,55.3374
6.3432,55.3374
6.1417,55.2695
5.9999,55.2217
5.6462,55.1439
5.2861,55.1047
5.2861,55.1047
4.9239,55.1047
4.9239,55.1047
4.5638,55.1439
4.2101,55.2217
3.9877,55.2966
3.8668,55.3374
3.8668,55.3374
3.8668,55.3374
3.5381,55.4895
3.5381,55.4895
3.3069,55.6285
3.2277,55.6762
3.1826,55.7105
2.9394,55.8954
2.9394,55.8954
2.6764,56.1445
2.4419,56.4206
2.2386,56.7204
2.0690,57.0404
2.0690,57.0404
1.9349,57.3769
1.9349,57.3769
1.8380,57.7259
1.8380,57.7259
1.7794,58.0833
1.7598,58.4450
1.2950,58.4450
1.2950,49.8070
10.0545,49.8070
10.0545,56.9230
10.0545,56.9230
10.0651,57.0424
10.1211,57.2380
10.1211,57.2380
10.1211,57.2380
10.2153,57.4184
10.2153,57.4184
10.3439,57.5761
10.4378,57.6527
10.5016,57.7047
10.6820,57.7989
10.8776,57.8549
10.9970,57.8655
14.6130,57.8655
14.7324,57.8549
14.9280,57.7989
15.1084,57.7047
15.2661,57.5761
15.3947,57.4184
15.4889,57.2380
15.5449,57.0424
15.5457,57.0334
15.5712,56.9684
15.6279,56.9274
15.6976,56.9237
15.7569,56.9567
15.9693,57.1691
16.2109,57.3617
16.4724,57.5261
16.7508,57.6601
16.7508,57.6601
17.0424,57.7622
17.0424,57.7622
17.3435,57.8309
17.3436,57.8309
17.3436,57.8309
17.5482,57.8540
17.6505,57.8655
17.6505,57.8655
17.6505,57.8655
17.9595,57.8655
17.9595,57.8655
18.1164,57.8478
18.2664,57.8309
18.2664,57.8309
18.2665,57.8309
18.5676,57.7622
18.8592,57.6601
19.1376,57.5261
19.3991,57.3617
19.6407,57.1691
19.8591,56.9507
20.0517,56.7091
20.2161,56.4476
20.3501,56.1692
20.4522,55.8776
20.5209,55.5765
20.5307,55.4895
20.5478,55.3374
20.5555,55.2695
20.5555,53.4950
20.5752,53.4280
20.5918,53.4073
20.6341,53.3650
27.1197,53.3650
27.1197,53.3650
27.1389,53.7314
27.1963,54.0938
27.1963,54.0938
27.2913,54.4482
27.4227,54.7907
27.5893,55.1177
27.7891,55.4254
27.9757,55.6557
28.0201,55.7105
28.2795,55.9699
28.2795,55.9700
28.5646,56.2009
28.8174,56.3650
28.8723,56.4007
29.1993,56.5673
29.5418,56.6987
29.8962,56.7937
30.2586,56.8511
30.6047,56.8692
30.6250,56.8703
30.6250,56.8703
30.6250,56.8703
30.6442,56.8693
30.9914,56.8511
31.3538,56.7937
31.7082,56.6987
32.0507,56.5673
32.3777,56.4007
32.6854,56.2009
32.9705,55.9699
33.2299,55.7105
33.4609,55.4254
33.6607,55.1177
33.8273,54.7907
33.9587,54.4482
34.0537,54.0938
34.1111,53.7314
34.1303,53.3650
34.1303,53.3650
42.1197,53.3650
42.1197,53.3650
42.1389,53.7314
42.1963,54.0938
42.1963,54.0938
42.2913,54.4482
42.4227,54.7907
42.5893,55.1177
42.7891,55.4254
42.9757,55.6557
43.0201,55.7105
43.2795,55.9699
43.2795,55.9700
43.5646,56.2009
43.8174,56.3650
43.8723,56.4007
44.1993,56.5673
44.5418,56.6987
44.8962,56.7937
45.2586,56.8511
45.6047,56.8692
45.6250,56.8703
45.6250,56.8703
45.6250,56.8703
45.6442,56.8693
45.9914,56.8511
46.3538,56.7937
46.7082,56.6987
47.0507,56.5673
47.3777,56.4007
47.6854,56.2009
47.9705,55.9699
48.2299,55.7105
48.4609,55.4254
48.6607,55.1177
48.8273,54.7907
48.9587,54.4482
49.0537,54.0938
49.1111,53.7314
49.1303,53.3650
49.1303,53.3650
49.8597,53.3650
49.8597,53.3650
49.8789,53.7314
49.9363,54.0938
49.9363,54.0938
50.0313,54.4482
50.1627,54.7907
50.3293,55.1177
50.5291,55.4254
50.7157,55.6557
50.7601,55.7105
51.0195,55.9699
51.0195,55.9700
51.3046,56.2009
51.5574,56.3650
51.6123,56.4007
51.9393,56.5673
52.2818,56.6987
52.6362,56.7937
52.9986,56.8511
53.3447,56.8692
53.3650,56.8703
53.3650,56.8703
53.3650,56.8703
53.3842,56.8693
53.7314,56.8511
54.0938,56.7937
54.4482,56.6987
54.7907,56.5673
55.1177,56.4007
55.4254,56.2009
55.7105,55.9699
55.9699,55.7105
56.2009,55.4254
56.4007,55.1177
56.5673,54.7907
56.6987,54.4482
56.7937,54.0938
56.8511,53.7314
56.8703,53.3650
56.8703,53.3650
63.0599,53.3650
63.0599,53.3650
63.0802,53.7139
63.0802,53.7139
63.1409,54.0580
63.1409,54.0580
63.2411,54.3928
63.3796,54.7137
63.3796,54.7137
63.5543,55.0163
63.7630,55.2966
63.7711,55.3053
65.3874,53.6890
65.4004,53.7203
65.4824,53.8431
65.5869,53.9476
65.7097,54.0296
65.7410,54.0426
64.1278,55.6557
64.1278,55.6557
64.2705,55.7754
64.5625,55.9675
64.8747,56.1243
64.8747,56.1243
65.2031,56.2438
65.2031,56.2438
65.5432,56.3244
65.8903,56.3650
65.8903,56.3650
66.2397,56.3650
66.2397,56.3650
66.5868,56.3244
66.5868,56.3244
66.9269,56.2438
66.9269,56.2438
67.2553,56.1243
67.2553,56.1243
67.5675,55.9675
67.8595,55.7754
67.8595,55.7754
68.0022,55.6557
68.0022,55.6557
66.3890,54.0426
66.4203,54.0296
66.5431,53.9476
66.6476,53.8431
66.7296,53.7203
66.7426,53.6890
68.3588,55.3053
68.3589,55.3053
68.3670,55.2966
68.3670,55.2966
68.5757,55.0163
68.7504,54.7137
68.7504,54.7137
68.8889,54.3928
68.9891,54.0580
68.9891,54.0580
69.0498,53.7139
69.0498,53.7139
69.0701,53.3650
69.0701,53.3650
69.0498,53.0161
69.0498,53.0161
68.9891,52.6720
68.9891,52.6720
68.8889,52.3372
68.7504,52.0163
68.7504,52.0163
68.5757,51.7137
68.3670,51.4334
68.3589,51.4247
66.7426,53.0410
66.7296,53.0097
66.6476,52.8869
66.5431,52.7824
66.4203,52.7004
66.3890,52.6874
68.0022,51.0743
68.0022,51.0743
67.8595,50.9546
67.5675,50.7625
67.2553,50.6057
67.2553,50.6057
66.9269,50.4862
66.9269,50.4862
66.5868,50.4056
66.2397,50.3650
65.8903,50.3650
65.5432,50.4056
65.5432,50.4056
65.2031,50.4862
65.2031,50.4862
64.8747,50.6057
64.8747,50.6057
64.5625,50.7625
64.2705,50.9546
64.1278,51.0743
64.1278,51.0743
65.7410,52.6874
65.7097,52.7004
65.5869,52.7824
65.4824,52.8869
65.4004,53.0097
65.3874,53.0410
63.7711,51.4247
63.7711,51.4247
63.7630,51.4334
63.7630,51.4334
63.5543,51.7137
63.3796,52.0163
63.3796,52.0163
63.2411,52.3372
63.1409,52.6720
63.1409,52.6720
63.0802,53.0161
63.0802,53.0161
63.0599,53.3650
56.8703,53.3650
56.8511,52.9986
56.7937,52.6362
56.6987,52.2818
56.5673,51.9393
56.4007,51.6123
56.4007,51.6123
56.2009,51.3046
55.9700,51.0195
55.9699,51.0195
55.7105,50.7601
55.4254,50.5291
55.4254,50.5291
55.1177,50.3293
54.7907,50.1627
54.4482,50.0313
54.4482,50.0313
54.0938,49.9363
54.0938,49.9363
54.0938,49.9363
53.7314,49.8789
53.3650,49.8597
53.3650,49.8597
52.9986,49.8789
52.6362,49.9363
52.6362,49.9363
52.2818,50.0313
51.9393,50.1627
51.6123,50.3293
51.3046,50.5291
51.0195,50.7600
51.0195,50.7601
50.7601,51.0195
50.7600,51.0195
50.5291,51.3046
50.3293,51.6123
50.1627,51.9393
50.0313,52.2818
49.9363,52.6362
49.9363,52.6362
49.8789,52.9986
49.8597,53.3650
49.1303,53.3650
49.1111,52.9986
49.0537,52.6362
48.9587,52.2818
48.8273,51.9393
48.6607,51.6123
48.6607,51.6123
48.4609,51.3046
48.2300,51.0195
48.2299,51.0195
47.9705,50.7601
47.6854,50.5291
47.6854,50.5291
47.3777,50.3293
47.0507,50.1627
46.7082,50.0313
46.7082,50.0313
46.3538,49.9363
46.3538,49.9363
46.3538,49.9363
45.9914,49.8789
45.6250,49.8597
45.6250,49.8597
45.2586,49.8789
44.8962,49.9363
44.8962,49.9363
44.5418,50.0313
44.1993,50.1627
43.8723,50.3293
43.5646,50.5291
43.2795,50.7600
43.2795,50.7601
43.0201,51.0195
43.0200,51.0195
42.7891,51.3046
42.5893,51.6123
42.4227,51.9393
42.2913,52.2818
42.1963,52.6362
42.1963,52.6362
42.1389,52.9986
42.1197,53.3650
34.1303,53.3650
34.1111,52.9986
34.0537,52.6362
33.9587,52.2818
33.8273,51.9393
33.6607,51.6123
33.6607,51.6123
33.4609,51.3046
33.2300,51.0195
33.2299,51.0195
32.9705,50.7601
32.6854,50.5291
32.6854,50.5291
32.3777,50.3293
32.0507,50.1627
31.7082,50.0313
31.7082,50.0313
31.3538,49.9363
31.3538,49.9363
31.3538,49.9363
30.9914,49.8789
30.6250,49.8597
30.6250,49.8597
30.2586,49.8789
29.8962,49.9363
29.8962,49.9363
29.5418,50.0313
29.1993,50.1627
28.8723,50.3293
28.5646,50.5291
28.2795,50.7600
28.2795,50.7601
28.0201,51.0195
28.0200,51.0195
27.7891,51.3046
27.5893,51.6123
27.4227,51.9393
27.2913,52.2818
27.1963,52.6362
27.1963,52.6362
27.1389,52.9986
27.1197,53.3650
20.6341,53.3650
24.4873,49.5118
24.5486,49.4783
24.5750,49.4755
35.3508,49.4755
35.3508,49.4755
35.4808,49.4584
35.6108,49.4413
35.8641,49.3734
36.1064,49.2730
36.3128,49.1539
36.3335,49.1419
36.4202,49.0754
36.4855,49.0253
36.4855,49.0253
36.5158,49.0021
36.5415,48.9823
36.5416,48.9823
38.5088,47.0150
56.2097,47.0150
56.2097,47.0150
56.2289,47.3814
56.2863,47.7438
56.2863,47.7438
56.3813,48.0982
56.5127,48.4407
56.6793,48.7677
56.8791,49.0754
56.9427,49.1539
57.1101,49.3605
57.3695,49.6199
57.3695,49.6200
57.6546,49.8509
57.9623,50.0507
57.9623,50.0507
58.2893,50.2173
58.6318,50.3487
58.9862,50.4437
59.3486,50.5011
59.6947,50.5192
59.7150,50.5203
59.7150,50.5203
59.7150,50.5203
59.7342,50.5193
60.0814,50.5011
60.4438,50.4437
60.7982,50.3487
61.1407,50.2173
61.4677,50.0507
61.7754,49.8509
62.0605,49.6199
62.3199,49.3605
62.5509,49.0754
62.7507,48.7677
62.9173,48.4407
63.0487,48.0982
63.1437,47.7438
63.2011,47.3814
63.2203,47.0150
63.2011,46.6486
63.1437,46.2862
63.0487,45.9318
62.9173,45.5893
62.7507,45.2623
62.5509,44.9546
62.3199,44.6695
62.0605,44.4101
61.9771,44.3425
61.7754,44.1791
61.4677,43.9793
61.1407,43.8127
60.7982,43.6813
60.7982,43.6813
60.4438,43.5863
60.4438,43.5863
60.4438,43.5863
60.0814,43.5289
59.7150,43.5097
59.7150,43.5097
59.3486,43.5289
58.9862,43.5863
58.9862,43.5863
58.6318,43.6813
58.2893,43.8127
57.9623,43.9793
57.6546,44.1791
57.3695,44.4100
57.3695,44.4101
57.1101,44.6695
57.1101,44.6695
57.1101,44.6695
57.0541,44.7386
56.8791,44.9546
56.6793,45.2623
56.5127,45.5893
56.3813,45.9318
56.2863,46.2862
56.2863,46.2862
56.2289,46.6486
56.2097,47.0150
38.5088,47.0150
40.1377,45.3862
40.1377,45.3862
40.2327,45.2623
40.2327,45.2623
40.2327,45.2623
40.2849,45.1943
40.2973,45.1781
40.4284,44.9510
40.5288,44.7087
40.5393,44.6695
40.5393,44.6695
40.5592,44.5953
40.5967,44.4554
40.5967,44.4554
40.6115,44.3425
40.6115,44.3425
40.6309,44.1954
40.6309,35.3887
43.1191,35.3887
43.1191,40.5047
43.1191,40.5047
43.1297,40.6241
43.1857,40.8197
43.1857,40.8197
43.1857,40.8197
43.2799,41.0001
43.2799,41.0001
43.4085,41.1578
43.5024,41.2344
43.5662,41.2864
43.7466,41.3806
43.9422,41.4366
44.0616,41.4472
49.1776,41.4472
49.2970,41.4366
49.4926,41.3806
49.6730,41.2864
49.8307,41.1578
49.9593,41.0001
50.0535,40.8197
50.1095,40.6241
50.1201,40.5047
50.1201,35.3887
50.1095,35.2693
50.0535,35.0737
49.9593,34.8933
49.9073,34.8295
49.8307,34.7356
49.7943,34.7059
49.7548,34.6483
49.7527,34.5785
49.7887,34.5186
49.8451,34.4889
50.1376,34.4222
50.4292,34.3201
50.7076,34.1861
50.9691,34.0217
51.2107,33.8291
51.4291,33.6107
51.6217,33.3691
51.7861,33.1076
51.9201,32.8292
52.0222,32.5376
52.0909,32.2365
52.1159,32.0150
56.2097,32.0150
56.2097,32.0150
56.2289,32.3814
56.2536,32.5376
56.2863,32.7438
56.3092,32.8292
56.3813,33.0982
56.5127,33.4407
56.6793,33.7677
56.8791,34.0754
56.9688,34.1861
57.1101,34.3605
57.3695,34.6199
57.4757,34.7059
57.6546,34.8509
57.7200,34.8933
57.9623,35.0507
58.2893,35.2173
58.6318,35.3487
58.9862,35.4437
59.3486,35.5011
59.6947,35.5192
59.7150,35.5203
59.7150,35.5203
59.7150,35.5203
59.7342,35.5193
60.0814,35.5011
60.4438,35.4437
60.7982,35.3487
61.1407,35.2173
61.4677,35.0507
61.7754,34.8509
62.0605,34.6199
62.3199,34.3605
62.5509,34.0754
62.7507,33.7677
62.9173,33.4407
63.0487,33.0982
63.1437,32.7438
63.2011,32.3814
63.2203,32.0150
63.2011,31.6486
63.1437,31.2862
63.0487,30.9318
62.9173,30.5893
62.7507,30.2623
62.6978,30.1809
62.5509,29.9546
62.4486,29.8283
62.3199,29.6695
62.0605,29.4101
62.0280,29.3837
61.7754,29.1791
61.4677,28.9793
61.1407,28.8127
60.7982,28.6813
60.7982,28.6813
60.4438,28.5863
60.4438,28.5863
60.4438,28.5863
60.0814,28.5289
59.7150,28.5097
59.7150,28.5097
59.3486,28.5289
58.9862,28.5863
58.9862,28.5863
58.6318,28.6813
58.2893,28.8127
57.9623,28.9793
57.6546,29.1791
57.3695,29.4100
57.3695,29.4101
57.1101,29.6695
57.1100,29.6695
56.8791,29.9546
56.6793,30.2623
56.5127,30.5893
56.3813,30.9318
56.2863,31.2862
56.2863,31.2862
56.2289,31.6486
56.2097,32.0150
52.1159,32.0150
52.1255,31.9295
52.1255,31.6205
52.0909,31.3135
52.0222,31.0124
51.9201,30.7208
51.7861,30.4424
51.6217,30.1809
51.4291,29.9393
51.2107,29.7209
50.9691,29.5283
50.7076,29.3639
50.7076,29.3639
50.4292,29.2299
50.4292,29.2299
50.1376,29.1278
50.1376,29.1278
49.8365,29.0591
49.8364,29.0591
49.5295,29.0245
49.5295,29.0245
47.7205,29.0245
47.7205,29.0245
47.4136,29.0591
47.4135,29.0591
47.1124,29.1278
47.1124,29.1278
46.8208,29.2299
46.8208,29.2299
46.5424,29.3639
46.2809,29.5283
46.0393,29.7209
45.8209,29.9393
45.6283,30.1809
45.4639,30.4424
45.3299,30.7208
45.3299,30.7208
45.2278,31.0124
45.2278,31.0124
45.1591,31.3135
45.1591,31.3136
45.1245,31.6205
45.1245,31.9295
45.1591,32.2364
45.1591,32.2365
45.2278,32.5376
45.2278,32.5376
45.3299,32.8292
45.3299,32.8292
45.4639,33.1076
45.4639,33.1076
45.6283,33.3691
45.8209,33.6107
46.0393,33.8291
46.2809,34.0217
46.5424,34.1861
46.5424,34.1861
46.5931,34.2105
46.6449,34.2573
46.6632,34.3247
46.6422,34.3914
46.5885,34.4360
46.5393,34.4462
44.0616,34.4462
44.0616,34.4462
44.0616,34.4462
44.0499,34.4472
43.9422,34.4568
43.7466,34.5128
43.6564,34.5599
43.5662,34.6070
43.5662,34.6070
43.5662,34.6070
43.4085,34.7356
43.2799,34.8933
43.1857,35.0737
43.1297,35.2693
43.1297,35.2693
43.1191,35.3887
40.6309,35.3887
40.6309,25.4079
40.6309,25.4079
40.6248,25.3617
40.6356,25.2926
40.6820,25.2404
40.7492,25.2215
40.7753,25.2246
40.9081,25.2549
40.9082,25.2549
40.9082,25.2549
41.1128,25.2780
41.2151,25.2895
41.2151,25.2895
41.2151,25.2895
41.5241,25.2895
41.5241,25.2895
41.6810,25.2718
41.8310,25.2549
41.8310,25.2549
41.8311,25.2549
42.1322,25.1862
42.4238,25.0841
42.7022,24.9501
42.9637,24.7857
43.0183,24.7423
43.0829,24.7158
43.1516,24.7286
43.2025,24.7765
43.2195,24.8443
43.2165,24.8668
43.1537,25.1418
43.1537,25.1419
43.1191,25.4488
43.1191,25.7578
43.1537,26.0647
43.1537,26.0648
43.2224,26.3659
43.2224,26.3659
43.3245,26.6575
43.3245,26.6575
43.4585,26.9359
43.4585,26.9359
43.6229,27.1974
43.8155,27.4390
44.0339,27.6574
44.2755,27.8500
44.5370,28.0144
44.8154,28.1484
44.8154,28.1484
45.1070,28.2505
45.1070,28.2505
45.4081,28.3192
45.4082,28.3192
45.4082,28.3192
45.6128,28.3423
45.7151,28.3538
45.7151,28.3538
45.7151,28.3538
47.5241,28.3538
47.5241,28.3538
47.6810,28.3361
47.8310,28.3192
47.8310,28.3192
47.8311,28.3192
48.1322,28.2505
48.4238,28.1484
48.7022,28.0144
48.9637,27.8500
49.2053,27.6574
49.4237,27.4390
49.6163,27.1974
49.7807,26.9359
49.9147,26.6575
50.0168,26.3659
50.0855,26.0648
50.1201,25.7578
50.1201,25.4488
50.1000,25.2708
50.0855,25.1419
50.0855,25.1418
50.0723,25.0841
50.0168,24.8407
49.9975,24.7857
49.9147,24.5491
49.9147,24.5491
49.7807,24.2707
49.6163,24.0092
49.4237,23.7676
49.2053,23.5492
48.9637,23.3566
48.7022,23.1922
48.7022,23.1922
48.4238,23.0582
48.4238,23.0582
48.1322,22.9561
48.1322,22.9561
47.8311,22.8874
47.8310,22.8874
47.5241,22.8528
47.5241,22.8528
45.7151,22.8528
45.7151,22.8528
45.4082,22.8874
45.4081,22.8874
45.1070,22.9561
45.1070,22.9561
44.8154,23.0582
44.8154,23.0582
44.5370,23.1922
44.2755,23.3566
44.2209,23.4000
44.1562,23.4265
44.0876,23.4137
44.0367,23.3658
44.0197,23.2980
44.0227,23.2755
44.0855,23.0005
44.0905,22.9561
44.1201,22.6935
44.1201,22.6935
44.1201,20.8845
44.1201,20.8845
44.0855,20.5776
44.0855,20.5775
44.0168,20.2764
44.0168,20.2764
43.9147,19.9848
43.9147,19.9848
43.7807,19.7064
43.6163,19.4449
43.4237,19.2033
43.2053,18.9849
42.9637,18.7923
42.7022,18.6279
42.7022,18.6279
42.5964,18.5770
54.9095,18.5770
54.9095,22.1930
54.9095,22.1930
54.9201,22.3124
54.9761,22.5080
54.9761,22.5080
54.9761,22.5080
55.0703,22.6884
55.0744,22.6935
55.1989,22.8461
55.2928,22.9227
55.3566,22.9747
55.5370,23.0689
55.7326,23.1249
55.8520,23.1355
56.5935,23.1355
56.6605,23.1552
56.7063,23.2080
56.7162,23.2771
56.6872,23.3407
56.6555,23.3669
56.4073,23.5102
56.4073,23.5102
56.1733,23.6897
56.1733,23.6897
55.9647,23.8983
55.9647,23.8983
55.7852,24.1323
55.7852,24.1323
55.6377,24.3877
55.6377,24.3877
55.5248,24.6602
55.5248,24.6602
55.4485,24.9451
55.4485,24.9451
55.4235,25.1350
58.8100,25.1350
58.7850,25.1954
58.7600,25.3210
58.7600,25.4490
58.7850,25.5746
58.8100,25.6350
55.4235,25.6350
55.4485,25.8249
55.4485,25.8249
55.5248,26.1098
55.5248,26.1098
55.6377,26.3823
55.6377,26.3823
55.7852,26.6377
55.7852,26.6377
55.9647,26.8717
55.9647,26.8717
56.1733,27.0803
56.1733,27.0803
56.4073,27.2598
56.4073,27.2598
56.6627,27.4073
56.6627,27.4073
56.9352,27.5202
56.9352,27.5202
57.2201,27.5965
57.2201,27.5965
57.5125,27.6350
57.5125,27.6350
59.1600,27.6350
59.1600,25.9850
59.2204,26.0100
59.3460,26.0350
59.4740,26.0350
59.5996,26.0100
59.6600,25.9850
59.6600,27.6350
61.3075,27.6350
61.3075,27.6350
61.5999,27.5965
61.5999,27.5965
61.8848,27.5202
61.8848,27.5202
62.1573,27.4073
62.1573,27.4073
62.4127,27.2598
62.4127,27.2598
62.6467,27.0803
62.6467,27.0803
62.8553,26.8717
62.8553,26.8717
63.0348,26.6377
63.0348,26.6377
63.1823,26.3823
63.1823,26.3823
63.2952,26.1098
63.2952,26.1098
63.3715,25.8249
63.3715,25.8249
63.3965,25.6350
60.0100,25.6350
60.0350,25.5746
60.0600,25.4490
60.0600,25.3210
60.0350,25.1954
60.0100,25.1350
63.3965,25.1350
63.3715,24.9451
63.3715,24.9451
63.2952,24.6602
63.2952,24.6602
63.1823,24.3877
63.1823,24.3877
63.0348,24.1323
63.0348,24.1323
62.8553,23.8983
62.8553,23.8983
62.6467,23.6897
62.6467,23.6897
62.4127,23.5102
62.4127,23.5102
62.1645,23.3669
62.1163,23.3163
62.1031,23.2477
62.1291,23.1828
62.1860,23.1423
62.2265,23.1355
62.9680,23.1355
63.0874,23.1249
63.2830,23.0689
63.4634,22.9747
63.6211,22.8461
63.7497,22.6884
63.8439,22.5080
63.8999,22.3124
63.9105,22.1930
63.9105,18.5770
63.8999,18.4576
63.8439,18.2620
63.7497,18.0816
63.6977,18.0178
63.6211,17.9239
63.4634,17.7953
63.4634,17.7953
63.4634,17.7953
63.2830,17.7011
63.2830,17.7011
63.2830,17.7011
63.1658,17.6675
63.0874,17.6451
63.0874,17.6451
63.0874,17.6451
63.0211,17.6392
62.9680,17.6345
62.9680,17.6345
55.8520,17.6345
55.8520,17.6345
55.8520,17.6345
55.8403,17.6355
55.7326,17.6451
55.5370,17.7011
55.4468,17.7482
55.3566,17.7953
55.3566,17.7953
55.3566,17.7953
55.1989,17.9239
55.0703,18.0816
54.9761,18.2620
54.9201,18.4576
54.9201,18.4576
54.9095,18.5770
42.5964,18.5770
42.4238,18.4939
42.4238,18.4939
42.1322,18.3918
42.1322,18.3918
41.8311,18.3231
41.8310,18.3231
41.5241,18.2885
41.5241,18.2885
41.2151,18.2885
41.2151,18.2885
40.9082,18.3231
40.9081,18.3231
40.6070,18.3918
40.6070,18.3918
40.3154,18.4939
40.3154,18.4939
40.0370,18.6279
39.7755,18.7923
39.5339,18.9849
39.3155,19.2033
39.1229,19.4449
38.9585,19.7064
38.9528,19.7183
38.9060,19.7702
38.8411,19.7885
37.4089,19.7885
37.3419,19.7688
37.2972,19.7183
37.2962,19.7163
37.2915,19.7064
37.1271,19.4449
36.9345,19.2033
36.7161,18.9849
36.4745,18.7923
36.2130,18.6279
36.2130,18.6279
35.9346,18.4939
35.9346,18.4939
35.6430,18.3918
35.6430,18.3918
35.3419,18.3231
35.3418,18.3231
35.0349,18.2885
35.0349,18.2885
34.7259,18.2885
34.7259,18.2885
34.4190,18.3231
34.4189,18.3231
34.1178,18.3918
34.1178,18.3918
33.8262,18.4939
33.8262,18.4939
33.5478,18.6279
33.2863,18.7923
33.0447,18.9849
32.8263,19.2033
32.6337,19.4449
32.4693,19.7064
32.3353,19.9848
32.3353,19.9848
32.2332,20.2764
32.2332,20.2764
32.1645,20.5775
32.1645,20.5776
32.1299,20.8845
32.1299,22.6935
32.1645,23.0004
32.1645,23.0005
32.2273,23.2755
32.2230,23.3452
32.1817,23.4016
32.1165,23.4267
32.0481,23.4125
32.0291,23.4000
31.9745,23.3566
31.9745,23.3566
31.7130,23.1922
31.4346,23.0582
31.4346,23.0582
31.1430,22.9561
31.1430,22.9561
30.8419,22.8874
30.8418,22.8874
30.5349,22.8528
30.5349,22.8528
28.7259,22.8528
28.7259,22.8528
28.4190,22.8874
28.4189,22.8874
28.1178,22.9561
28.1178,22.9561
27.8262,23.0582
27.8262,23.0582
27.5478,23.1922
27.2863,23.3566
27.0447,23.5492
26.8263,23.7676
26.6337,24.0092
26.4693,24.2707
26.3353,24.5491
26.3353,24.5491
26.2332,24.8407
26.2332,24.8407
26.1645,25.1418
26.1645,25.1419
26.1299,25.4488
26.1299,25.7578
26.1645,26.0647
26.1645,26.0648
26.2332,26.3659
26.2332,26.3659
26.3353,26.6575
26.3353,26.6575
26.4693,26.9359
26.4693,26.9359
26.6337,27.1974
26.8263,27.4390
27.0447,27.6574
27.2863,27.8500
27.5478,28.0144
27.8262,28.1484
27.8262,28.1484
28.1178,28.2505
28.1178,28.2505
28.4189,28.3192
28.4190,28.3192
28.4190,28.3192
28.6236,28.3423
28.7259,28.3538
28.7259,28.3538
28.7259,28.3538
30.5349,28.3538
30.5349,28.3538
30.6918,28.3361
30.8418,28.3192
30.8418,28.3192
30.8419,28.3192
31.1430,28.2505
31.4346,28.1484
31.7130,28.0144
31.9745,27.8500
32.2161,27.6574
32.4345,27.4390
32.6271,27.1974
32.7915,26.9359
32.9255,26.6575
33.0276,26.3659
33.0963,26.0648
33.1309,25.7578
33.1309,25.4488
33.1108,25.2708
33.0963,25.1419
33.0963,25.1419
33.0963,25.1418
33.0335,24.8668
33.0378,24.7971
33.0791,24.7407
33.1443,24.7156
33.2127,24.7298
33.2317,24.7423
33.2863,24.7857
33.5478,24.9501
33.8262,25.0841
33.8262,25.0841
34.1178,25.1862
34.1178,25.1862
34.4189,25.2549
34.4190,25.2549
34.4190,25.2549
34.6236,25.2780
34.7259,25.2895
34.7259,25.2895
34.7259,25.2895
35.0349,25.2895
35.0349,25.2895
35.1918,25.2718
35.3418,25.2549
35.3418,25.2549
35.3419,25.2549
35.4178,25.2376
35.4875,25.2419
35.5331,25.2708
36.5936,26.3313
36.6271,26.3926
36.6299,26.4190
36.6299,38.6375
36.6102,38.7046
36.5574,38.7503
36.4883,38.7603
36.4399,38.7425
36.2130,38.5999
35.9346,38.4659
35.9346,38.4659
35.6430,38.3638
35.6430,38.3638
35.3419,38.2951
35.3418,38.2951
35.0349,38.2605
35.0349,38.2605
34.7259,38.2605
34.7259,38.2605
34.4190,38.2951
34.4189,38.2951
34.1178,38.3638
34.1178,38.3638
33.8262,38.4659
33.8262,38.4659
33.5478,38.5999
33.2863,38.7643
33.2317,38.8077
33.1670,38.8342
33.0984,38.8214
33.0475,38.7735
33.0305,38.7057
33.0335,38.6832
33.0963,38.4082
33.1013,38.3638
33.1309,38.1012
33.1309,38.1012
33.1309,37.7922
33.1309,37.7922
33.0963,37.4853
33.0963,37.4852
33.0276,37.1841
33.0276,37.1841
32.9255,36.8925
32.9255,36.8925
32.7915,36.6141
32.6271,36.3526
32.4345,36.1110
32.2161,35.8926
31.9745,35.7000
31.7130,35.5356
31.7130,35.5356
31.4346,35.4016
31.4346,35.4016
31.1430,35.2995
31.1430,35.2995
30.8419,35.2308
30.8418,35.2308
30.5349,35.1962
30.5349,35.1962
28.7259,35.1962
28.7259,35.1962
28.4190,35.2308
28.4189,35.2308
28.1178,35.2995
28.1178,35.2995
27.8262,35.4016
27.8262,35.4016
27.5478,35.5356
27.2863,35.7000
27.0447,35.8926
26.8263,36.1110
26.6337,36.3526
26.4693,36.6141
26.3353,36.8925
26.3353,36.8925
26.2332,37.1841
26.2332,37.1841
26.1645,37.4852
26.1645,37.4853
26.1299,37.7922
26.1299,38.1012
26.1645,38.4081
26.1645,38.4082
26.2332,38.7093
26.2332,38.7093
26.3353,39.0009
26.3353,39.0009
26.4693,39.2793
26.4693,39.2793
26.6337,39.5408
26.8263,39.7824
27.0447,40.0008
27.2863,40.1934
27.5478,40.3578
27.8262,40.4918
27.8262,40.4918
28.1178,40.5939
28.1178,40.5939
28.4189,40.6626
28.4190,40.6626
28.4190,40.6626
28.6236,40.6857
28.7259,40.6972
28.7259,40.6972
28.7259,40.6972
30.5349,40.6972
30.5349,40.6972
30.6918,40.6795
30.8418,40.6626
30.8418,40.6626
30.8419,40.6626
31.1430,40.5939
31.4346,40.4918
31.7130,40.3578
31.9745,40.1934
32.0291,40.1500
32.0937,40.1235
32.1624,40.1363
32.2133,40.1842
32.2303,40.2520
32.2273,40.2745
32.1645,40.5495
32.1645,40.5496
32.1299,40.8565
32.1299,41.6310
32.1102,41.6980
32.0936,41.7187
31.3741,42.4382
31.3128,42.4717
31.2864,42.4745
21.1788,42.4745
21.1118,42.4548
21.0660,42.4020
21.0561,42.3329
21.0851,42.2693
21.1113,42.2465
21.1354,42.2309
21.4205,41.9999
21.6799,41.7405
21.9109,41.4554
22.1107,41.1477
22.2773,40.8207
22.4087,40.4782
22.5037,40.1238
22.5611,39.7614
22.5803,39.3950
22.5611,39.0286
22.5037,38.6662
22.4087,38.3118
22.2773,37.9693
22.1107,37.6423
22.0087,37.4853
21.9109,37.3346
21.6800,37.0495
21.6799,37.0495
21.4205,36.7901
21.3880,36.7637
21.1354,36.5591
20.8277,36.3593
20.5007,36.1927
20.1582,36.0613
20.1582,36.0613
19.8038,35.9663
19.8038,35.9663
19.8038,35.9663
19.4414,35.9089
19.0750,35.8897
19.0750,35.8897
18.7086,35.9089
18.3462,35.9663
18.3462,35.9663
17.9918,36.0613
17.6493,36.1927
17.3223,36.3593
17.0146,36.5591
16.7295,36.7900
16.7295,36.7901
16.4701,37.0495
16.4700,37.0495
16.2391,37.3346
16.0393,37.6423
15.8727,37.9693
15.7413,38.3118
15.6463,38.6662
15.6463,38.6662
15.6003,38.9569
15.5889,39.0286
15.5697,39.3950
15.5889,39.7614
15.6463,40.1238
15.6867,40.2745
15.7413,40.4782
15.8727,40.8207
16.0393,41.1477
16.2391,41.4554
16.2391,41.4554
16.4701,41.7405
16.7295,41.9999
16.7295,42.0000
17.0146,42.2309
17.2782,42.4020
17.3223,42.4307
17.6493,42.5973
17.9918,42.7287
18.2315,42.7930
18.2912,42.8293
18.3217,42.8922
18.3134,42.9616
18.2871,43.0004
12.4594,48.8282
12.3981,48.8617
12.3717,48.8645
10.9970,48.8645
10.9970,48.8645
10.9970,48.8645
10.9853,48.8655
10.8776,48.8751
10.6820,48.9311
10.6116,48.9678
10.5016,49.0253
10.5016,49.0253
10.5016,49.0253
10.3439,49.1539
10.2153,49.3116
10.2153,49.3116
10.1830,49.3734
10.1211,49.4920
10.0651,49.6876
10.0651,49.6876
10.0545,49.8070
1.2950,49.8070
1.2950,39.3950
7.9497,39.3950
7.9689,39.7614
8.0263,40.1238
8.0667,40.2745
8.1213,40.4782
8.2527,40.8207
8.4193,41.1477
8.6191,41.4554
8.6191,41.4554
8.8501,41.7405
9.1095,41.9999
9.1095,42.0000
9.3946,42.2309
9.6582,42.4020
9.7023,42.4307
10.0293,42.5973
10.3718,42.7287
10.7262,42.8237
11.0886,42.8811
11.4347,42.8992
11.4550,42.9003
11.4550,42.9003
11.4550,42.9003
11.4742,42.8993
11.8214,42.8811
12.1838,42.8237
12.5382,42.7287
12.8807,42.5973
13.2077,42.4307
13.5154,42.2309
13.8005,41.9999
14.0599,41.7405
14.2909,41.4554
14.4907,41.1477
14.6573,40.8207
14.7887,40.4782
14.8837,40.1238
14.9411,39.7614
14.9603,39.3950
14.9411,39.0286
14.8837,38.6662
14.7887,38.3118
14.6573,37.9693
14.4907,37.6423
14.3887,37.4853
14.2909,37.3346
14.0600,37.0495
14.0599,37.0495
13.8005,36.7901
13.7680,36.7637
13.5154,36.5591
13.2077,36.3593
12.8807,36.1927
12.5382,36.0613
12.5382,36.0613
12.1838,35.9663
12.1838,35.9663
12.1838,35.9663
11.8214,35.9089
11.4550,35.8897
11.4550,35.8897
11.0886,35.9089
10.7262,35.9663
10.7262,35.9663
10.3718,36.0613
10.0293,36.1927
9.7023,36.3593
9.3946,36.5591
9.1095,36.7900
9.1095,36.7901
8.8501,37.0495
8.8500,37.0495
8.6191,37.3346
8.4193,37.6423
8.2527,37.9693
8.1213,38.3118
8.0263,38.6662
8.0263,38.6662
7.9803,38.9569
7.9689,39.0286
7.9497,39.3950
1.2950,39.3950
1.2950,31.6205
24.1245,31.6205
24.1245,31.9295
24.1591,32.2364
24.1591,32.2365
24.2278,32.5376
24.2278,32.5376
24.3299,32.8292
24.3299,32.8292
24.4639,33.1076
24.4639,33.1076
24.6283,33.3691
24.8209,33.6107
25.0393,33.8291
25.2809,34.0217
25.5424,34.1861
25.8208,34.3201
25.8208,34.3201
26.1124,34.4222
26.1124,34.4222
26.4135,34.4909
26.4136,34.4909
26.4136,34.4909
26.6077,34.5128
26.7205,34.5255
26.7205,34.5255
26.7205,34.5255
28.5295,34.5255
28.5295,34.5255
28.6864,34.5078
28.8364,34.4909
28.8364,34.4909
28.8365,34.4909
29.1376,34.4222
29.4292,34.3201
29.7076,34.1861
29.9691,34.0217
30.2107,33.8291
30.4291,33.6107
30.6217,33.3691
30.7861,33.1076
30.9201,32.8292
31.0222,32.5376
31.0909,32.2365
31.1255,31.9295
31.1255,31.6205
31.0909,31.3135
31.0222,31.0124
30.9201,30.7208
30.7861,30.4424
30.6217,30.1809
30.4291,29.9393
30.2107,29.7209
29.9691,29.5283
29.7076,29.3639
29.7076,29.3639
29.4292,29.2299
29.4292,29.2299
29.1376,29.1278
29.1376,29.1278
28.8365,29.0591
28.8364,29.0591
28.5295,29.0245
28.5295,29.0245
26.7205,29.0245
26.7205,29.0245
26.4136,29.0591
26.4135,29.0591
26.1124,29.1278
26.1124,29.1278
25.8208,29.2299
25.8208,29.2299
25.5424,29.3639
25.2809,29.5283
25.0393,29.7209
24.8209,29.9393
24.6283,30.1809
24.4639,30.4424
24.3299,30.7208
24.3299,30.7208
24.2278,31.0124
24.2278,31.0124
24.1591,31.3135
24.1591,31.3136
24.1245,31.6205
1.2950,31.6205
1.2950,26.6950
8.4499,26.6950
8.4499,26.6950
8.4702,27.0439
8.4702,27.0439
8.5309,27.3880
8.5309,27.3880
8.6311,27.7228
8.7696,28.0437
8.7696,28.0437
8.9443,28.3463
9.1530,28.6266
9.1611,28.6353
10.7774,27.0190
10.7904,27.0503
10.8724,27.1731
10.9769,27.2776
11.0997,27.3596
11.1310,27.3726
9.5178,28.9857
9.5178,28.9857
9.6605,29.1054
9.9525,29.2975
10.2647,29.4543
10.2647,29.4543
10.5931,29.5738
10.5931,29.5738
10.9332,29.6544
11.2803,29.6950
11.2803,29.6950
11.6297,29.6950
11.6297,29.6950
11.9768,29.6544
11.9768,29.6544
12.3169,29.5738
12.3169,29.5738
12.6453,29.4543
12.6453,29.4543
12.9575,29.2975
13.2495,29.1054
13.2495,29.1054
13.3922,28.9857
13.3922,28.9857
11.7790,27.3726
11.8103,27.3596
11.9331,27.2776
12.0376,27.1731
12.1196,27.0503
12.1326,27.0190
13.7488,28.6353
13.7489,28.6353
13.7570,28.6266
13.7570,28.6266
13.9657,28.3463
14.1404,28.0437
14.1404,28.0437
14.2789,27.7228
14.3791,27.3880
14.3791,27.3880
14.4398,27.0439
14.4398,27.0439
14.4601,26.6950
14.4601,26.6950
16.0699,26.6950
16.0699,26.6950
16.0902,27.0439
16.0902,27.0439
16.1509,27.3880
16.1509,27.3880
16.2511,27.7228
16.3896,28.0437
16.3896,28.0437
16.5643,28.3463
16.7730,28.6266
16.7811,28.6353
18.3974,27.0190
18.4104,27.0503
18.4924,27.1731
18.5969,27.2776
18.7197,27.3596
18.7510,27.3726
17.1378,28.9857
17.1378,28.9857
17.2805,29.1054
17.5725,29.2975
17.8847,29.4543
17.8847,29.4543
18.2131,29.5738
18.2131,29.5738
18.5532,29.6544
18.9003,29.6950
18.9003,29.6950
19.2497,29.6950
19.2497,29.6950
19.5968,29.6544
19.5968,29.6544
19.9369,29.5738
19.9369,29.5738
20.2653,29.4543
20.2653,29.4543
20.5775,29.2975
20.8695,29.1054
20.8695,29.1054
21.0122,28.9857
21.0122,28.9857
19.3990,27.3726
19.4303,27.3596
19.5531,27.2776
19.6576,27.1731
19.7396,27.0503
19.7526,27.0190
21.3688,28.6353
21.3689,28.6353
21.3770,28.6266
21.3770,28.6266
21.5857,28.3463
21.7604,28.0437
21.7604,28.0437
21.8989,27.7228
21.9991,27.3880
21.9991,27.3880
22.0598,27.0439
22.0598,27.0439
22.0801,26.6950
22.0801,26.6950
22.0598,26.3461
22.0598,26.3461
21.9991,26.0020
21.9991,26.0020
21.8989,25.6672
21.7604,25.3463
21.7604,25.3463
21.5857,25.0437
21.3770,24.7634
21.3688,24.7547
19.7526,26.3710
19.7396,26.3397
19.6576,26.2169
19.5531,26.1124
19.4303,26.0304
19.3990,26.0174
21.0122,24.4043
21.0122,24.4043
20.8695,24.2846
20.5775,24.0925
20.2653,23.9357
20.2653,23.9357
19.9369,23.8162
19.9369,23.8162
19.5968,23.7356
19.2497,23.6950
18.9003,23.6950
18.5532,23.7356
18.5532,23.7356
18.2131,23.8162
18.2131,23.8162
17.8847,23.9357
17.8847,23.9357
17.5725,24.0925
17.2805,24.2846
17.1378,24.4043
17.1378,24.4043
18.7510,26.0174
18.7197,26.0304
18.5969,26.1124
18.4924,26.2169
18.4104,26.3397
18.3974,26.3710
16.7811,24.7547
16.7811,24.7547
16.7730,24.7634
16.7730,24.7634
16.5643,25.0437
16.3896,25.3463
16.3896,25.3463
16.2511,25.6672
16.1509,26.0020
16.1509,26.0020
16.0902,26.3461
16.0902,26.3461
16.0699,26.6950
14.4601,26.6950
14.4398,26.3461
14.4398,26.3461
14.3791,26.0020
14.3791,26.0020
14.2789,25.6672
14.1404,25.3463
14.1404,25.3463
13.9657,25.0437
13.7570,24.7634
13.7488,24.7547
12.1326,26.3710
12.1196,26.3397
12.0376,26.2169
11.9331,26.1124
11.8103,26.0304
11.7790,26.0174
13.3922,24.4043
13.3922,24.4043
13.2495,24.2846
12.9575,24.0925
12.6453,23.9357
12.6453,23.9357
12.3169,23.8162
12.3169,23.8162
11.9768,23.7356
11.6297,23.6950
11.2803,23.6950
10.9332,23.7356
10.9332,23.7356
10.5931,23.8162
10.5931,23.8162
10.2647,23.9357
10.2647,23.9357
9.9525,24.0925
9.6605,24.2846
9.5178,24.4043
9.5178,24.4043
11.1310,26.0174
11.0997,26.0304
10.9769,26.1124
10.8724,26.2169
10.7904,26.3397
10.7774,26.3710
9.1611,24.7547
9.1611,24.7547
9.1530,24.7634
9.1530,24.7634
8.9443,25.0437
8.7696,25.3463
8.7696,25.3463
8.6311,25.6672
8.5309,26.0020
8.5309,26.0020
8.4702,26.3461
8.4702,26.3461
8.4499,26.6950
1.2950,26.6950
1.2950,9.8625
11.8250,9.8625
11.8250,11.5100
13.4750,11.5100
13.4500,11.5704
13.4250,11.6960
13.4250,11.8240
13.4500,11.9496
13.4750,12.0100
11.8250,12.0100
11.8250,13.6575
11.8250,13.6575
11.8635,13.9499
11.8635,13.9499
11.9398,14.2348
11.9398,14.2348
12.0527,14.5073
12.0527,14.5073
12.2002,14.7627
12.2002,14.7627
12.3797,14.9967
12.3797,14.9967
12.5883,15.2053
12.5883,15.2053
12.8223,15.3848
12.8223,15.3848
13.0777,15.5323
13.0777,15.5323
13.3502,15.6452
13.3502,15.6452
13.6351,15.7215
13.6351,15.7215
13.8250,15.7465
13.8250,12.3600
13.8854,12.3850
14.0110,12.4100
14.1390,12.4100
14.2646,12.3850
14.3250,12.3600
14.3250,15.7465
14.5149,15.7215
14.5149,15.7215
14.7998,15.6452
14.7998,15.6452
15.0723,15.5323
15.0723,15.5323
15.3277,15.3848
15.3277,15.3848
15.5617,15.2053
15.5617,15.2053
15.7703,14.9967
15.7703,14.9967
15.9498,14.7627
15.9498,14.7627
16.0931,14.5145
16.1437,14.4663
16.2123,14.4531
16.2772,14.4791
16.3177,14.5360
16.3245,14.5765
16.3245,15.3180
16.3245,15.3180
16.3351,15.4374
16.3911,15.6330
16.3911,15.6330
16.3911,15.6330
16.4853,15.8134
16.4853,15.8134
16.6139,15.9711
16.7078,16.0477
16.7716,16.0997
16.9520,16.1939
17.1476,16.2499
17.2670,16.2605
20.8830,16.2605
21.0024,16.2499
21.1980,16.1939
21.3784,16.0997
21.5361,15.9711
21.6647,15.8134
21.7589,15.6330
21.8149,15.4374
21.8255,15.3180
21.8255,11.4550
28.2697,11.4550
28.2697,11.4550
28.2889,11.8214
28.3055,11.9263
28.3463,12.1838
28.3774,12.2997
28.4413,12.5382
28.5727,12.8807
28.7393,13.2077
28.9391,13.5154
28.9713,13.5551
29.1701,13.8005
29.4295,14.0599
29.4295,14.0600
29.7146,14.2909
29.9848,14.4663
30.0223,14.4907
30.3493,14.6573
30.6918,14.7887
31.0462,14.8837
31.4086,14.9411
31.7547,14.9592
31.7750,14.9603
31.7750,14.9603
31.7750,14.9603
31.7942,14.9593
32.1414,14.9411
32.5038,14.8837
32.8582,14.7887
33.2007,14.6573
33.5277,14.4907
33.8354,14.2909
34.1205,14.0599
34.3799,13.8005
34.6109,13.5154
34.8107,13.2077
34.9773,12.8807
35.1087,12.5382
35.2037,12.1838
35.2611,11.8214
35.2803,11.4550
35.2803,11.4550
40.9697,11.4550
40.9697,11.4550
40.9889,11.8214
41.0055,11.9263
41.0463,12.1838
41.0774,12.2997
41.1413,12.5382
41.2727,12.8807
41.4393,13.2077
41.6391,13.5154
41.6713,13.5551
41.8701,13.8005
42.1295,14.0599
42.1295,14.0600
42.4146,14.2909
42.6848,14.4663
42.7223,14.4907
43.0493,14.6573
43.3918,14.7887
43.7462,14.8837
44.1086,14.9411
44.4547,14.9592
44.4750,14.9603
44.4750,14.9603
44.4750,14.9603
44.4942,14.9593
44.8414,14.9411
45.2038,14.8837
45.5582,14.7887
45.9007,14.6573
46.2277,14.4907
46.5354,14.2909
46.8205,14.0599
47.0799,13.8005
47.3109,13.5154
47.5107,13.2077
47.6773,12.8807
47.8087,12.5382
47.9037,12.1838
47.9611,11.8214
47.9803,11.4550
47.9611,11.0886
47.9037,10.7262
47.8087,10.3718
47.6773,10.0293
47.5107,9.7023
47.5107,9.7023
47.3109,9.3946
47.0800,9.1095
47.0799,9.1095
46.8205,8.8501
46.5354,8.6191
46.5354,8.6191
46.2277,8.4193
45.9007,8.2527
45.5582,8.1213
45.5582,8.1213
45.2038,8.0263
45.2038,8.0263
45.2038,8.0263
44.8414,7.9689
44.4750,7.9497
44.4750,7.9497
44.1086,7.9689
43.7462,8.0263
43.7462,8.0263
43.3918,8.1213
43.0493,8.2527
42.7223,8.4193
42.4146,8.6191
42.1295,8.8500
42.1295,8.8501
41.8701,9.1095
41.8700,9.1095
41.6391,9.3946
41.4393,9.7023
41.2727,10.0293
41.1413,10.3718
41.0463,10.7262
41.0463,10.7262
40.9889,11.0886
40.9697,11.4550
35.2803,11.4550
35.2611,11.0886
35.2037,10.7262
35.1087,10.3718
34.9773,10.0293
34.8107,9.7023
34.8107,9.7023
34.6109,9.3946
34.3800,9.1095
34.3799,9.1095
34.1205,8.8501
33.8354,8.6191
33.8354,8.6191
33.5277,8.4193
33.2007,8.2527
32.8582,8.1213
32.8582,8.1213
32.5038,8.0263
32.5038,8.0263
32.5038,8.0263
32.1414,7.9689
31.7750,7.9497
31.7750,7.9497
31.4086,7.9689
31.0462,8.0263
31.0462,8.0263
30.6918,8.1213
30.3493,8.2527
30.0223,8.4193
29.7146,8.6191
29.4295,8.8500
29.4295,8.8501
29.1701,9.1095
29.1700,9.1095
28.9391,9.3946
28.7393,9.7023
28.5727,10.0293
28.4413,10.3718
28.3463,10.7262
28.3463,10.7262
28.2889,11.0886
28.2697,11.4550
21.8255,11.4550
21.8255,8.2020
21.8149,8.0826
21.7589,7.8870
21.6647,7.7066
21.6127,7.6428
21.5361,7.5489
21.4209,7.4550
21.3784,7.4203
21.1980,7.3261
21.1980,7.3261
21.1980,7.3261
21.0808,7.2925
21.0024,7.2701
21.0024,7.2701
21.0024,7.2701
20.9361,7.2642
20.8830,7.2595
20.8830,7.2595
17.2670,7.2595
17.2670,7.2595
17.2670,7.2595
17.2553,7.2605
17.1476,7.2701
16.9520,7.3261
16.8782,7.3646
16.7716,7.4203
16.7716,7.4203
16.7716,7.4203
16.6139,7.5489
16.4853,7.7066
16.3911,7.8870
16.3512,8.0263
16.3414,8.0605
16.3351,8.0826
16.3351,8.0826
16.3245,8.2020
16.3245,8.9435
16.3048,9.0105
16.2520,9.0563
16.1829,9.0662
16.1193,9.0372
16.0931,9.0055
15.9498,8.7573
15.9498,8.7573
15.7703,8.5233
15.7703,8.5233
15.5617,8.3147
15.5617,8.3147
15.3277,8.1352
15.3277,8.1352
15.0723,7.9877
15.0723,7.9877
14.7998,7.8748
14.7998,7.8748
14.5149,7.7985
14.5149,7.7985
14.3250,7.7735
14.3250,11.1600
14.2646,11.1350
14.1390,11.1100
14.0110,11.1100
13.8854,11.1350
13.8250,11.1600
13.8250,7.7735
13.8250,7.7735
13.6351,7.7985
13.6351,7.7985
13.3502,7.8748
13.3502,7.8748
13.0777,7.9877
13.0777,7.9877
12.8223,8.1352
12.8223,8.1352
12.5883,8.3147
12.5883,8.3147
12.3797,8.5233
12.3797,8.5233
12.2002,8.7573
12.2002,8.7573
12.0527,9.0127
12.0527,9.0127
11.9398,9.2852
11.9398,9.2852
11.8635,9.5701
11.8635,9.5701
11.8250,9.8625
11.8250,9.8625
1.2950,9.8625
1.2950,5.1050
1.7598,5.1050
1.7598,5.1050
1.7794,5.4667
1.8380,5.8241
1.8380,5.8241
1.9349,6.1731
1.9349,6.1731
2.0690,6.5096
2.0690,6.5096
2.2386,6.8296
2.4419,7.1294
2.4908,7.1870
2.6764,7.4055
2.9394,7.6546
3.2277,7.8738
3.5381,8.0605
3.5381,8.0605
3.5381,8.0605
3.5381,8.0605
3.8438,8.2020
3.8668,8.2126
4.2101,8.3283
4.5638,8.4061
4.9239,8.4453
4.9239,8.4453
5.2861,8.4453
5.2861,8.4453
5.6462,8.4061
5.9999,8.3283
6.3432,8.2126
6.6719,8.0605
6.9823,7.8738
7.2706,7.6546
7.5336,7.4055
7.7192,7.1870
55.2145,7.1870
55.2145,10.8030
55.2145,10.8030
55.2251,10.9224
55.2811,11.1180
55.2811,11.1180
55.2811,11.1180
55.3753,11.2984
55.3753,11.2984
55.5039,11.4561
55.5700,11.5100
55.6616,11.5847
55.8420,11.6789
56.0376,11.7349
56.1570,11.7455
56.8985,11.7455
56.9655,11.7652
57.0113,11.8180
57.0212,11.8871
56.9922,11.9507
56.9605,11.9769
56.7123,12.1202
56.7123,12.1202
56.4783,12.2997
56.4783,12.2997
56.2697,12.5083
56.2697,12.5083
56.0902,12.7423
56.0902,12.7423
55.9427,12.9977
55.9427,12.9977
55.8298,13.2702
55.8298,13.2702
55.7535,13.5551
55.7535,13.5551
55.7285,13.7450
59.1150,13.7450
59.0900,13.8054
59.0650,13.9310
59.0650,14.0590
59.0900,14.1846
59.1150,14.2450
55.7285,14.2450
55.7535,14.4349
55.7535,14.4349
55.8298,14.7198
55.8298,14.7198
55.9427,14.9923
55.9427,14.9923
56.0902,15.2477
56.0902,15.2477
56.2697,15.4817
56.2697,15.4817
56.4783,15.6903
56.4783,15.6903
56.7123,15.8698
56.7123,15.8698
56.9677,16.0173
56.9677,16.0173
57.2402,16.1302
57.2402,16.1302
57.5251,16.2065
57.5251,16.2065
57.8175,16.2450
57.8175,16.2450
59.4650,16.2450
59.4650,14.5950
59.5254,14.6200
59.6510,14.6450
59.7790,14.6450
59.9046,14.6200
59.9650,14.5950
59.9650,16.2450
61.6125,16.2450
61.6125,16.2450
61.9049,16.2065
61.9049,16.2065
62.1898,16.1302
62.1898,16.1302
62.4623,16.0173
62.4623,16.0173
62.7177,15.8698
62.7177,15.8698
62.9517,15.6903
62.9517,15.6903
63.1603,15.4817
63.1603,15.4817
63.3398,15.2477
63.3398,15.2477
63.4873,14.9923
63.4873,14.9923
63.6002,14.7198
63.6002,14.7198
63.6765,14.4349
63.6765,14.4349
63.7015,14.2450
60.3150,14.2450
60.3400,14.1846
60.3650,14.0590
60.3650,13.9310
60.3400,13.8054
60.3150,13.7450
63.7015,13.7450
63.6765,13.5551
63.6765,13.5551
63.6002,13.2702
63.6002,13.2702
63.4873,12.9977
63.4873,12.9977
63.3398,12.7423
63.3398,12.7423
63.1603,12.5083
63.1603,12.5083
62.9517,12.2997
62.9517,12.2997
62.7177,12.1202
62.7177,12.1202
62.4695,11.9769
62.4213,11.9263
62.4081,11.8577
62.4341,11.7928
62.4910,11.7523
62.5315,11.7455
63.2730,11.7455
63.3924,11.7349
63.5880,11.6789
63.7684,11.5847
63.9261,11.4561
64.0547,11.2984
64.1489,11.1180
64.2049,10.9224
64.2155,10.8030
64.2155,7.1870
64.2049,7.0676
64.1489,6.8720
64.0547,6.6916
64.0027,6.6278
63.9261,6.5339
63.7684,6.4053
63.7684,6.4053
63.7684,6.4053
63.5880,6.3111
63.5880,6.3111
63.5880,6.3111
63.4607,6.2747
63.3924,6.2551
63.3924,6.2551
63.3924,6.2551
63.3261,6.2492
63.2730,6.2445
63.2730,6.2445
56.1570,6.2445
56.1570,6.2445
56.1570,6.2445
56.1453,6.2455
56.0376,6.2551
55.8420,6.3111
55.7518,6.3582
55.6616,6.4053
55.6616,6.4053
55.6616,6.4053
55.5039,6.5339
55.3753,6.6916
55.2811,6.8720
55.2251,7.0676
55.2251,7.0676
55.2145,7.1870
7.7192,7.1870
7.7681,7.1294
7.9714,6.8296
8.1410,6.5096
8.2751,6.1731
8.3720,5.8241
8.4306,5.4667
8.4502,5.1050
8.4502,5.1050
71.6098,5.1050
71.6098,5.1050
71.6294,5.4667
71.6880,5.8241
71.6880,5.8241
71.7849,6.1731
71.7849,6.1731
71.9190,6.5096
71.9190,6.5096
72.0886,6.8296
72.2919,7.1294
72.3408,7.1870
72.5264,7.4055
72.7894,7.6546
73.0777,7.8738
73.3881,8.0605
73.3881,8.0605
73.3881,8.0605
73.3881,8.0605
73.6938,8.2020
73.7168,8.2126
74.0601,8.3283
74.4138,8.4061
74.7739,8.4453
74.7739,8.4453
75.1361,8.4453
75.1361,8.4453
75.4962,8.4061
75.8499,8.3283
76.1932,8.2126
76.5219,8.0605
76.8323,7.8738
77.1206,7.6546
77.3836,7.4055
77.6181,7.1294
77.8214,6.8296
77.9910,6.5096
78.1251,6.1731
78.2220,5.8241
78.2806,5.4667
78.3002,5.1050
78.2806,4.7433
78.2220,4.3859
78.1251,4.0369
77.9910,3.7004
77.8214,3.3804
77.6181,3.0806
77.3836,2.8045
77.1206,2.5554
77.1206,2.5554
77.1206,2.5554
77.0522,2.5034
76.8323,2.3362
76.5219,2.1495
76.5219,2.1495
76.5219,2.1495
76.5219,2.1495
76.1932,1.9974
76.1932,1.9974
76.1932,1.9974
76.0259,1.9410
75.8499,1.8817
75.4962,1.8039
75.1361,1.7647
75.1361,1.7647
74.7739,1.7647
74.7739,1.7647
74.4138,1.8039
74.0601,1.8817
73.7947,1.9711
73.7168,1.9974
73.7168,1.9974
73.7168,1.9974
73.3881,2.1495
73.3881,2.1495
73.1569,2.2885
73.0777,2.3362
72.9883,2.4041
72.7894,2.5554
72.7894,2.5554
72.5264,2.8045
72.2919,3.0806
72.0886,3.3804
71.9190,3.7004
71.9190,3.7004
71.7849,4.0369
71.7849,4.0369
71.6880,4.3859
71.6880,4.3859
71.6294,4.7433
71.6098,5.1050
8.4502,5.1050
8.4306,4.7433
8.3720,4.3859
8.2751,4.0369
8.1410,3.7004
7.9714,3.3804
7.7681,3.0806
7.5336,2.8045
7.2706,2.5554
7.2706,2.5554
7.2706,2.5554
7.2022,2.5034
6.9823,2.3362
6.6719,2.1495
6.6719,2.1495
6.6719,2.1495
6.6719,2.1495
6.3432,1.9974
6.3432,1.9974
6.3432,1.9974
6.1759,1.9410
5.9999,1.8817
5.6462,1.8039
5.2861,1.7647
5.2861,1.7647
4.9239,1.7647
4.9239,1.7647
4.5638,1.8039
4.2101,1.8817
3.9447,1.9711
3.8668,1.9974
3.8668,1.9974
3.8668,1.9974
3.5381,2.1495
3.5381,2.1495
3.3069,2.2885
3.2277,2.3362
3.1383,2.4041
2.9394,2.5554
2.9394,2.5554
2.6764,2.8045
2.4419,3.0806
2.2386,3.3804
2.0690,3.7004
2.0690,3.7004
1.9349,4.0369
1.9349,4.0369
1.8380,4.3859
1.8380,4.3859
1.7794,4.7433
1.7598,5.1050
1.2950,5.1050
1.2950,1.4190
1.3147,1.3520
1.3675,1.3062
1.4190,1.2950
78.6410,1.2950
Z" /> 
</g>
<g style="fill:#FFFFFF; fill-opacity:1.0000; stroke:none;">
<circle cx="53.3650" cy="53.3650" r="0.7500" /> 
</g>
<g style="fill:#FFFFFF; fill-opacity:1.0000; stroke:none;">
<circle cx="66.0650" cy="53.3650" r="0.7500" /> 
</g>
<g style="fill:#FFFFFF; fill-opacity:1.0000; stroke:none;">
<circle cx="19.0750" cy="39.3950" r="0.7500" /> 
</g>
<g style="fill:#FFFFFF; fill-opacity:1.0000; stroke:none;">
<circle cx="19.0750" cy="26.6950" r="0.7500" /> 
</g>
<g style="fill:#FFFFFF; fill-opacity:1.0000; stroke:none;">
<circle cx="11.4550" cy="39.3950" r="0.7500" /> 
</g>
<g style="fill:#FFFFFF; fill-opacity:1.0000; stroke:none;">
<circle cx="11.4550" cy="26.6950" r="0.7500" /> 
</g>
<g style="fill:#FFFFFF; fill-opacity:1.0000; stroke:none;">
<circle cx="31.7750" cy="11.4550" r="0.7500" /> 
</g>
<g style="fill:#FFFFFF; fill-opacity:1.0000; stroke:none;">
<circle cx="44.4750" cy="11.4550" r="0.7500" /> 
</g>
<g style="fill:#FFFFFF; fill-opacity:1.0000; stroke:none;">
<circle cx="45.6250" cy="53.3650" r="0.7500" /> 
</g>
<g style="fill:#FFFFFF; fill-opacity:1.0000; stroke:none;">
<circle cx="30.6250" cy="53.3650" r="0.7500" /> 
</g>
<g style="fill:#FFFFFF; fill-opacity:1.0000; stroke:none;">
<circle cx="59.7150" cy="32.0150" r="0.7500" /> 
</g>
<g style="fill:#FFFFFF; fill-opacity:1.0000; stroke:none;">
<circle cx="59.7150" cy="47.0150" r="0.7500" /> 
</g>
<g style="fill:#FFFFFF; fill-opacity:1.0000; stroke:none;">
<circle cx="12.8050" cy="53.3650" r="0.6500" /> 
</g>
<g style="fill:#FFFFFF; fill-opacity:1.0000; stroke:none;">
<circle cx="17.8050" cy="53.3650" r="0.6500" /> 
</g>
<g style="fill:#FFFFFF; fill-opacity:1.0000; stroke:none;">
<circle cx="19.0750" cy="11.7600" r="0.6500" /> 
</g>
<g style="fill:#FFFFFF; fill-opacity:1.0000; stroke:none;">
<circle cx="14.0750" cy="11.7600" r="0.6500" /> 
</g>
<g style="fill:#FFFFFF; fill-opacity:1.0000; stroke:none;">
<circle cx="46.6196" cy="37.9467" r="0.8450" /> 
</g>
<g style="fill:#FFFFFF; fill-opacity:1.0000; stroke:none;">
<circle cx="48.6250" cy="31.7750" r="0.8450" /> 
</g>
<g style="fill:#FFFFFF; fill-opacity:1.0000; stroke:none;">
<circle cx="46.6196" cy="25.6033" r="0.8450" /> 
</g>
<g style="fill:#FFFFFF; fill-opacity:1.0000; stroke:none;">
<circle cx="41.3696" cy="21.7890" r="0.8450" /> 
</g>
<g style="fill:#FFFFFF; fill-opacity:1.0000; stroke:none;">
<circle cx="34.8804" cy="21.7890" r="0.8450" /> 
</g>
<g style="fill:#FFFFFF; fill-opacity:1.0000; stroke:none;">
<circle cx="29.6304" cy="25.6033" r="0.8450" /> 
</g>
<g style="fill:#FFFFFF; fill-opacity:1.0000; stroke:none;">
<circle cx="27.6250" cy="31.7750" r="0.8450" /> 
</g>
<g style="fill:#FFFFFF; fill-opacity:1.0000; stroke:none;">
<circle cx="29.6304" cy="37.9467" r="0.8450" /> 
</g>
<g style="fill:#FFFFFF; fill-opacity:1.0000; stroke:none;">
<circle cx="34.8804" cy="41.7610" r="0.8450" /> 
</g>
<g style="fill:#FFFFFF; fill-opacity:1.0000; stroke:none;">
<circle cx="59.7150" cy="8.9950" r="0.6500" /> 
</g>
<g style="fill:#FFFFFF; fill-opacity:1.0000; stroke:none;">
<circle cx="59.7150" cy="13.9950" r="0.6500" /> 
</g>
<g style="fill:#FFFFFF; fill-opacity:1.0000; stroke:none;">
<circle cx="59.4100" cy="20.3850" r="0.6500" /> 
</g>
<g style="fill:#FFFFFF; fill-opacity:1.0000; stroke:none;">
<circle cx="59.4100" cy="25.3850" r="0.6500" /> 
</g>
<g style="fill:none; 
stroke:#000000; stroke-width:0.0500; stroke-opacity:1; 
stroke-linecap:round; stroke-linejoin:round;">
<circle cx="74.9550" cy="58.4450" r="2.8398" /> 
<circle cx="5.1050" cy="58.4450" r="2.8398" /> 
<circle cx="5.1050" cy="5.1050" r="2.8398" /> 
<circle cx="74.9550" cy="5.1050" r="2.8398" /> 
<path d="M0.0250 63.5250
L0.0250 0.0250
" />
<path d="M80.0350 63.5250
L0.0250 63.5250
" />
<path d="M80.0350 0.0250
L80.0350 63.5250
" />
<path d="M0.0250 0.0250
L80.0350 0.0250
" />
</g> 
</svg>
